<svg height="512" viewBox="0 0 512 512" width="512" xmlns="http://www.w3.org/2000/svg" xmlns:xlink="http://www.w3.org/1999/xlink"><linearGradient id="New_Gradient_Swatch_12" gradientUnits="userSpaceOnUse" x1="86.294" x2="425.706" y1="425.706" y2="86.294"><stop offset=".011" stop-color="#80d1cb"/><stop offset="1" stop-color="#bfe8e5"/></linearGradient><linearGradient id="New_Gradient_Swatch_18" gradientUnits="userSpaceOnUse" x1="128.363" x2="456.363" y1="384.363" y2="56.363"><stop offset=".015" stop-color="#83839e"/><stop offset="1" stop-color="#b8b8c7"/></linearGradient><linearGradient id="New_Gradient_Swatch_18-2" x1="401.889" x2="557.889" xlink:href="#New_Gradient_Swatch_18" y1="289.889" y2="133.889"/><linearGradient id="New_Gradient_Swatch_18-3" x1="-33.691" x2="122.309" xlink:href="#New_Gradient_Swatch_18" y1="477.409" y2="321.409"/><linearGradient id="New_Gradient_Swatch_13" gradientUnits="userSpaceOnUse" x1="39.904" x2="144.096" y1="170.464" y2="66.272"><stop offset="0" stop-color="#d46669"/><stop offset="1" stop-color="#dd888a"/></linearGradient><linearGradient id="New_Gradient_Swatch_22" gradientUnits="userSpaceOnUse" x1="72.201" x2="111.799" y1="135.799" y2="96.201"><stop offset=".011" stop-color="#dcdce3"/><stop offset="1" stop-color="#ededf1"/></linearGradient><linearGradient id="New_Gradient_Swatch_13-2" x1="359.904" x2="464.096" xlink:href="#New_Gradient_Swatch_13" y1="146.464" y2="42.272"/><linearGradient id="New_Gradient_Swatch_22-2" x1="392.201" x2="431.799" xlink:href="#New_Gradient_Swatch_22" y1="111.799" y2="72.201"/><linearGradient id="New_Gradient_Swatch_13-3" x1="274.882" x2="379.073" xlink:href="#New_Gradient_Swatch_13" y1="356.442" y2="252.25"/><linearGradient id="New_Gradient_Swatch_22-3" x1="307.179" x2="346.776" xlink:href="#New_Gradient_Swatch_22" y1="321.776" y2="282.179"/><g id="_15-globe" data-name="15-globe"><g id="linear_color" data-name="linear color"><circle cx="256" cy="256" fill="url(#New_Gradient_Swatch_12)" r="240"/><path d="m360 344-32-40-47.5-24.5-48.5-7.5-48-32-8-40 40-16 32 16 40-48 80-40 40.951-40.951a240 240 0 0 0 -306.256.3l1.305.651 8 24-16 32-8 32 24 40 16 64 32 24 48 24 32 16-8 40v40l48 24v48l4.1 14.354a239.847 239.847 0 0 0 167.567-99.349l-11.667-35.005z" fill="url(#New_Gradient_Swatch_18)"/><path d="m455.027 121.838-31.027 22.162-16 32-32 16 8 72 24 32 48 8 27.778 27.778a240.445 240.445 0 0 0 -28.751-209.94z" fill="url(#New_Gradient_Swatch_18-2)"/><path d="m176 375.1-24-24s-48-8-48-16-24-32-24-32l-32-8-31.949-35.1a239.951 239.951 0 0 0 127.349 207.983l8.6-52.883z" fill="url(#New_Gradient_Swatch_18-3)"/><path d="m20 116a72 72 0 0 1 144 0c0 48-72 104-72 104s-72-56-72-104z" fill="url(#New_Gradient_Swatch_13)"/><circle cx="92" cy="116" fill="url(#New_Gradient_Swatch_22)" r="28"/><path d="m340 92a72 72 0 0 1 144 0c0 48-72 104-72 104s-72-56-72-104z" fill="url(#New_Gradient_Swatch_13-2)"/><circle cx="412" cy="92" fill="url(#New_Gradient_Swatch_22-2)" r="28"/><path d="m254.977 301.977a72 72 0 0 1 144 0c0 48-72 104-72 104s-72-56-72-104z" fill="url(#New_Gradient_Swatch_13-3)"/><circle cx="326.977" cy="301.977" fill="url(#New_Gradient_Swatch_22-3)" r="28"/><path d="m495.3 335.2a252.747 252.747 0 0 0 -15.475-195.088c10.744-17.265 16.175-33.368 16.175-48.112a83.932 83.932 0 0 0 -136.236-65.71 252.394 252.394 0 0 0 -232.933 13.3 83.946 83.946 0 0 0 -118.831 76.41c0 13.922 4.843 29.057 14.429 45.236a250.325 250.325 0 0 0 -18.429 94.764c-2.82 135.325 116.551 254.86 252 252 106.334 1.25 206.871-71.311 239.3-172.8zm-11.3-79.2a228.693 228.693 0 0 1 -6.166 52.864l-13.349-13.349a12 12 0 0 0 -6.512-3.352l-43.26-7.21-8.813-11.741a83.882 83.882 0 0 0 -11.1-20.712l-5.948-53.507 5.046-2.524c6.213 5.473 10.376 8.726 10.735 9a12 12 0 0 0 14.734 0 323.227 323.227 0 0 0 37.553-35.445q3.607-4.008 6.885-7.951a228.611 228.611 0 0 1 20.195 93.927zm-28.935 111.25-3.681-11.045a12 12 0 0 0 -9.031-7.972l-41.753-8.349q8.432-16.434 10.019-31.281l39.613 6.6 19.73 19.73a226.8 226.8 0 0 1 -14.897 32.317zm-87.985-197.223c2.8 3.107 5.585 6.067 8.311 8.861l-4.757 2.379a12 12 0 0 0 -6.561 12.059l3.935 35.394a83.879 83.879 0 0 0 -115.424 34.317l-16.133-2.492-41.659-27.773-5.067-25.337 25.728-10.292 27.181 13.59a12 12 0 0 0 14.585-3.051l38.392-46.072 47.261-23.63a210.743 210.743 0 0 0 24.208 32.047zm-40.1 71.951a60.068 60.068 0 0 1 60 60c0 30.587-38.282 69.814-60 88.47-21.723-18.66-60-57.885-60-88.47a60.068 60.068 0 0 1 59.998-60zm85.02-209.978a60.068 60.068 0 0 1 60 60c0 30.588-38.281 69.814-60 88.47-24.708-21.645-59.407-57.755-60-88.47a60.068 60.068 0 0 1 60-60zm-156-4a225.948 225.948 0 0 1 86.442 16.96 83.516 83.516 0 0 0 -14.442 47.04 73.328 73.328 0 0 0 4.484 24.342l-49.85 24.925a11.984 11.984 0 0 0 -3.853 3.051l-33.915 40.7-23.5-11.75a12 12 0 0 0 -9.823-.409l-40 16a12 12 0 0 0 -7.31 13.5l8 40a12 12 0 0 0 5.111 7.631l48 32a11.988 11.988 0 0 0 4.824 1.874l14.339 2.215a84.123 84.123 0 0 0 -1.529 15.9 67.45 67.45 0 0 0 1.761 14.975l-78.4-39.2-27.726-20.794-12.813-51.229c3.6-3.6 7.355-7.52 11.12-11.7 25.932-28.817 39.08-55.069 39.08-78.031a83.77 83.77 0 0 0 -26.83-61.466 227.407 227.407 0 0 1 106.83-26.534zm-164 28a60.068 60.068 0 0 1 60 60c0 25.171-25.919 56.182-47.2 76.776a12.06 12.06 0 0 0 -1.291 1.245c-4.109 3.93-8.021 7.457-11.5 10.449-21.732-18.659-60.009-57.884-60.009-88.47a60.068 60.068 0 0 1 60-60zm-60.724 238.555 7.85 8.623a12 12 0 0 0 5.964 3.564l28.722 7.18c8.6 8.891 16.611 18.724 18.238 22.45.972 12.324 16.171 17.152 33.04 21.37 8.282 2.071 16.466 3.666 21.1 4.516l14.7 14.7-19.18 31.966a12 12 0 0 0 -1.555 4.249l-5.785 35.587a228.5 228.5 0 0 1 -103.094-154.205zm125.388 166.645 6.811-41.9 22.815-38.025a12 12 0 0 0 -1.8-14.659l-24-24a12 12 0 0 0 -6.51-3.351c-15.97-2.666-32.781-6.944-38.932-9.789-1.974-5.846-8.022-16.325-26.558-34.86a12 12 0 0 0 -5.575-3.157l-28.479-7.12-26.427-29.027a226.891 226.891 0 0 1 11.278-70.342q3.687 4.487 7.793 9.057a323.227 323.227 0 0 0 37.553 35.445c8.543 5.385 12.964 1.874 21.065-5.2l10.66 42.635a12.01 12.01 0 0 0 4.442 6.693l32 24a11.954 11.954 0 0 0 1.834 1.133l71.8 35.9-6.2 31.012a12.007 12.007 0 0 0 -.234 2.355v40a12 12 0 0 0 6.634 10.733l41.366 20.684v40.583a12.007 12.007 0 0 0 .463 3.3l.1.345c-4.172.228-8.367.353-12.562.353a226.638 226.638 0 0 1 -99.337-22.798zm136.11 19.825-.774-2.709v-46.316a12 12 0 0 0 -6.634-10.733l-41.366-20.684v-31.4l6.881-34.407q9.7 21.321 31.177 45.224a323.459 323.459 0 0 0 37.552 35.45 12 12 0 0 0 14.735 0 323.459 323.459 0 0 0 37.555-35.445q8.436-9.372 15.06-18.374l43.861 8.77 7.508 22.524a228.372 228.372 0 0 1 -145.555 88.096z"/><path d="m132 116a40 40 0 1 0 -40 40 40.045 40.045 0 0 0 40-40zm-56 0a16 16 0 1 1 16 16 16.019 16.019 0 0 1 -16-16z"/><path d="m412 132a40 40 0 1 0 -40-40 40.045 40.045 0 0 0 40 40zm0-56a16 16 0 1 1 -16 16 16.019 16.019 0 0 1 16-16z"/><path d="m366.978 301.978a40 40 0 1 0 -40 40 40.045 40.045 0 0 0 40-40zm-56 0a16 16 0 1 1 16 16 16.017 16.017 0 0 1 -16-16z"/></g></g></svg>