<svg id="_x33_0" enable-background="new 0 0 64 64" height="512" viewBox="0 0 64 64" width="512" xmlns="http://www.w3.org/2000/svg" xmlns:xlink="http://www.w3.org/1999/xlink"><linearGradient id="SVGID_1_" gradientUnits="userSpaceOnUse" x1="32" x2="32" y1="63" y2="1"><stop offset="0" stop-color="#9f2fff"/><stop offset="1" stop-color="#0bb1d3"/></linearGradient><path d="m63 11.744c0-4.822-3.922-8.744-8.744-8.744h-4.513c-2.161 0-4.179.796-5.743 2.164v-1.164c0-1.654-1.346-3-3-3h-12.117c-3.98 0-7.272 2.968-7.8 6.805-1.984-2.898-5.314-4.805-9.083-4.805-6.065 0-11 4.935-11 11v6.757c0 2.503.824 4.893 2.334 6.851-1.422 1.11-2.334 2.831-2.334 4.728v7.664c0 3.309 2.691 6 6 6h7v2.885l-1.095 1.095 1.825 1.824c.864.865 1.117 2.157.621 3.343-.467 1.126-1.555 1.853-2.774 1.853h-2.577v6h44v-6h-2.577c-1.219 0-2.307-.727-2.795-1.905-.475-1.135-.222-2.427.642-3.292l1.825-1.824-1.095-1.094v-2.885h7c3.309 0 6-2.691 6-6v-7.664c0-2.966-2.215-5.52-5.151-5.939l-2.042-.292-.269-1.075c1.202-.708 2.173-1.764 2.777-3.03h.685c2.206 0 4-1.794 4-4 0-.901-.31-1.724-.815-2.393l.366-1.098c.298-.894.449-1.824.449-2.765zm-13.256-6.744h4.513c3.718 0 6.743 3.025 6.743 6.744 0 .726-.117 1.443-.346 2.132l-.142.426c-.467-.192-.977-.302-1.512-.302h-.447c-.4-.654-1.04-1.153-1.826-1.349l-3.574-.894c-1.268-.317-2.153-1.45-2.153-2.757h-2c0 .64.125 1.256.354 1.821l-2.897 1.739c-.559.335-.964.852-1.207 1.44h-.25c-.722 0-1.39.207-1.975.543-.126-1.093-.686-2.045-1.513-2.689 1.083-.786 1.892-1.921 2.261-3.242 1.172-2.228 3.452-3.612 5.971-3.612zm5.256 33h-5v-.936c0-1.056-.176-2.083-.476-3.064h5.476zm-6.313-6c-.738-1.334-1.775-2.499-3.048-3.415.257-.093.521-.17.796-.209l1.993-.285 1.954 3.909zm-.494-5.895-2.041.292c-.937.134-1.813.493-2.581 1.029-.819-.343-1.677-.594-2.555-.72l-4.209-.602-.626-2.504c1.454-1.088 2.469-2.723 2.739-4.601h.151c.722 0 1.39-.207 1.975-.543.23 1.989 1.905 3.544 3.954 3.544h.685c.604 1.266 1.574 2.321 2.777 3.03zm-34.193 10.959v.936h-5v-4h5.476c-.3.982-.476 2.008-.476 3.064zm-2-13.064c-2.757 0-5-2.243-5-5v-3.438c0-.46.312-.859.758-.97l3.574-.894c.849-.212 1.598-.64 2.194-1.216l2.989 1.793c.299.18.485.508.485.857v3.868c0 2.757-2.243 5-5 5zm-1.667 1.791c.535.132 1.092.209 1.667.209s1.132-.077 1.667-.209l.273 1.093-1.94 3.88-1.94-3.88zm4.98 6.209h-1.695l1.954-3.908 1.994.285c.274.039.538.116.795.209-1.273.915-2.309 2.08-3.048 3.414zm5.627-4.775c1.33-1.884 2.06-4.125 2.06-6.468v-2.314c.591.345 1.268.557 2 .557h.08c.27 1.878 1.286 3.513 2.739 4.601l-.626 2.504-4.209.602c-.697.099-1.381.28-2.044.518zm4.06-14.102v3.877c-1.103 0-2-.897-2-2s.897-2 2-2h.01c-.001.042-.01.081-.01.123zm3.349-2.505c.623 1.4 2.022 2.382 3.651 2.382h5v5c0 2.757-2.243 5-5 5s-5-2.243-5-5v-4.877c0-1.031.524-1.961 1.349-2.505zm16.731 9.382h-.08c-1.103 0-2-.897-2-2s.897-2 2-2v3c0 .34.033.672.08 1zm-6.009-3h-.071v-4h.071c1.103 0 2 .897 2 2s-.897 2-2 2zm-4.179 9.693-2.892 2.893-2.892-2.892.528-2.113c.74.266 1.533.419 2.364.419s1.624-.153 2.364-.42zm-7.245 1.368 2.741 2.741-2.622 1.573-.642-4.239zm3.211 9.939h2.284l.308 2h-2.9zm2.352-2h-2.42l-.647-2.719 1.857-1.115 1.858 1.115zm.403-5.199 2.741-2.741.524.075-.642 4.239zm-4.73-27.801h12.117c.551 0 1 .449 1 1v3c0 2.206-1.794 4-4 4h-6c-1.103 0-2-.897-2-2s.897-2 2-2 2 .897 2 2h2c0-2.206-1.794-4-4-4-2.044 0-3.715 1.546-3.952 3.527-1.146.485-2.042 1.376-2.559 2.473h-.489c-.535 0-1.045.11-1.512.301l-.186-.558c-.2-.6-.302-1.226-.302-1.86 0-3.244 2.639-5.883 5.883-5.883zm-25.883 17.757v-6.757c0-4.962 4.038-9 9-9s9 4.038 9 9v6.757c0 2.169-.756 4.234-2.129 5.889-.332-.109-.672-.199-1.022-.249l-2.042-.292-.269-1.075c2.068-1.218 3.462-3.462 3.462-6.03v-3.868c0-1.048-.558-2.034-1.457-2.572l-2.897-1.739c.229-.565.354-1.181.354-1.821h-2c0 1.307-.885 2.44-2.153 2.757l-3.574.894c-1.338.334-2.273 1.531-2.273 2.911v3.438c0 2.568 1.394 4.812 3.462 6.03l-.269 1.075-2.042.292c-.354.051-.696.135-1.026.245-1.37-1.655-2.125-3.717-2.125-5.885zm4 23.243c-2.206 0-4-1.794-4-4v-7.664c0-1.978 1.477-3.68 3.435-3.96l1.993-.285 1.954 3.909h-3.382v6h-2v2h9v4zm9-6.936c0-2.836 1.409-5.468 3.769-7.042 1.044-.696 2.254-1.159 3.498-1.337l1.876-.268 1.092 7.207 2.109-1.265.638 2.681-.455 2.96h-1.527v2.577c0 1.219-.727 2.307-1.905 2.795-1.055.44-2.239.247-3.095-.473v-8.19h-2v6.216l-.02-.02-3.98 3.98zm15.996 13.098c.878.565 2.884 2.085 4.342 4.838h-8.696c1.452-2.761 3.459-4.271 4.354-4.838zm5.198 6.838c.397 1.168.672 2.497.76 4h-11.91c.087-1.505.357-2.834.749-4zm2.124 0h3.576c.57 1.236.937 2.582 1.055 4h-3.995c-.074-1.47-.292-2.811-.636-4zm-.741-2c-.845-1.904-1.943-3.375-2.986-4.45 2.497.785 4.636 2.372 6.136 4.45zm-13.154 0h-3.15c1.5-2.078 3.639-3.665 6.136-4.45-1.043 1.075-2.141 2.546-2.986 4.45zm-4.318 2h3.576c-.344 1.189-.561 2.53-.637 4h-3.995c.12-1.418.487-2.764 1.056-4zm30.318 2h.577v2h-6.051c-.516-7.253-6.567-13-13.949-13s-13.433 5.747-13.949 13h-6.051v-2h.577c2.03 0 3.844-1.212 4.641-3.133.788-1.887.367-4.037-1.074-5.477l-.41-.41 4.246-4.246.41.41c1.439 1.44 3.589 1.862 5.523 1.054 1.875-.777 3.087-2.591 3.087-4.621v-.577h6v.577c0 2.03 1.212 3.844 3.133 4.641 1.887.788 4.037.367 5.477-1.074l.41-.41 4.246 4.246-.41.41c-1.44 1.44-1.862 3.59-1.054 5.523.777 1.875 2.591 3.087 4.621 3.087zm-7.403-16.095-.02.02v-6.216h-2v8.19c-.857.721-2.045.913-3.147.452-1.126-.467-1.853-1.555-1.853-2.774v-2.577h-1.527l-.455-2.958.638-2.681 2.109 1.265 1.092-7.207 1.876.268c1.244.178 2.454.641 3.498 1.337 2.36 1.572 3.769 4.205 3.769 7.04v9.821zm16.98-10.569v7.664c0 2.206-1.794 4-4 4h-7v-4h9v-2h-2v-6h-3.382l1.954-3.908 1.993.285c1.958.279 3.435 1.982 3.435 3.959zm-7.06-5.452-1.94 3.88-1.94-3.88.273-1.093c.535.132 1.092.209 1.667.209s1.132-.077 1.667-.209zm3.06-7.884c0 2.757-2.243 5-5 5s-5-2.243-5-5v-3.868c0-.349.186-.678.486-.857l2.988-1.793c.596.576 1.345 1.004 2.194 1.216l3.574.894c.446.111.758.51.758.97zm2 1h-.08c.047-.328.08-.66.08-1v-3c1.103 0 2 .897 2 2s-.897 2-2 2z" fill="url(#SVGID_1_)"/></svg>