<?xml version="1.0" encoding="UTF-8" standalone="no"?>
<svg
   xmlns:dc="http://purl.org/dc/elements/1.1/"
   xmlns:cc="http://creativecommons.org/ns#"
   xmlns:rdf="http://www.w3.org/1999/02/22-rdf-syntax-ns#"
   xmlns:svg="http://www.w3.org/2000/svg"
   xmlns="http://www.w3.org/2000/svg"
   xmlns:sodipodi="http://sodipodi.sourceforge.net/DTD/sodipodi-0.dtd"
   xmlns:inkscape="http://www.inkscape.org/namespaces/inkscape"
   inkscape:version="1.0 (4035a4fb49, 2020-05-01)"
   height="30"
   width="27"
   sodipodi:docname="ubicacion.svg"
   xml:space="preserve"
   viewBox="0 0 27 30"
   y="0px"
   x="0px"
   id="Capa_1"
   version="1.1"><metadata
   id="metadata41"><rdf:RDF><cc:Work
       rdf:about=""><dc:format>image/svg+xml</dc:format><dc:type
         rdf:resource="http://purl.org/dc/dcmitype/StillImage" /><dc:title></dc:title></cc:Work></rdf:RDF></metadata><defs
   id="defs39" /><sodipodi:namedview
   inkscape:current-layer="Capa_1"
   inkscape:window-maximized="1"
   inkscape:window-y="-8"
   inkscape:window-x="-8"
   inkscape:cy="83.293313"
   inkscape:cx="187.05741"
   inkscape:zoom="2.1709736"
   showgrid="false"
   id="namedview37"
   inkscape:window-height="745"
   inkscape:window-width="1366"
   inkscape:pageshadow="2"
   inkscape:pageopacity="0"
   guidetolerance="10"
   gridtolerance="10"
   objecttolerance="10"
   borderopacity="1"
   bordercolor="#666666"
   pagecolor="#ffffff" />
<path
   id="path2"
   d="m 13.489725,0.92124572 c -6.4270477,0 -11.6500019,4.47632908 -11.6500019,9.98437528 0,1.86375 0.6020458,3.677641 1.747565,5.241859 l 9.1126899,12.78078 c 0.155464,0.216329 0.388464,0.349509 0.660361,0.382793 0.368792,0.04986 0.776739,-0.0832 0.99025,-0.399381 L 23.489364,16.0143 c 1.087208,-1.530885 1.650359,-3.311432 1.650359,-5.108679 0,-5.5080462 -5.22296,-9.98437528 -11.649998,-9.98437528 z m 0,14.97656428 c -3.261877,0 -5.8250026,-2.263125 -5.8250026,-4.992189 0,-2.7457593 2.6211856,-4.9921912 5.8250026,-4.9921912 3.20381,0 5.824999,2.2464319 5.824999,4.9921912 0,2.712428 -2.524236,4.992189 -5.824999,4.992189 z"
   style="fill:#fd003a;stroke-width:0.0599169" />

<g
   id="g6">
</g>
<g
   id="g8">
</g>
<g
   id="g10">
</g>
<g
   id="g12">
</g>
<g
   id="g14">
</g>
<g
   id="g16">
</g>
<g
   id="g18">
</g>
<g
   id="g20">
</g>
<g
   id="g22">
</g>
<g
   id="g24">
</g>
<g
   id="g26">
</g>
<g
   id="g28">
</g>
<g
   id="g30">
</g>
<g
   id="g32">
</g>
<g
   id="g34">
</g>
</svg>
