<svg id="Capa_1" enable-background="new 0 0 514.94 514.94" height="512" viewBox="0 0 514.94 514.94" width="512" xmlns="http://www.w3.org/2000/svg"><g><g><path d="m488.146 22.286c0-7.383-5.985-13.367-13.367-13.367h-434.617c-7.383 0-13.367 5.985-13.367 13.367v139.824h461.352z" fill="#fef0ae"/><g><path d="m26.794 88.403h461.352v73.708h-461.352z" fill="#fee97d"/><path d="m426.335 479.211v13.442c0 7.383-5.985 13.367-13.367 13.367h-310.995c-7.383 0-13.367-5.985-13.367-13.367v-13.442-71.992h337.729z" fill="#dff6fd"/><g><path d="m88.606 407.219h337.729v56.992h-337.729z" fill="#c8effe"/><circle cx="158.538" cy="461.191" fill="#99e6fc" r="19.593"/><path d="m178.131 461.191c0-5.185-2.021-9.89-5.31-13.39h-17.111c1.944-2.424 4.446-4.382 7.32-5.665-1.445-.339-2.943-.538-4.491-.538-11.488 0-20.666 9.887-19.492 21.615.89 8.885 7.918 16.159 16.763 17.382 3.847.532 7.523-.082 10.728-1.514-4.958-1.165-9.213-4.213-11.921-8.345-1.836-2.802.164-6.526 3.514-6.526h19.743c.154-.986.257-1.989.257-3.019z" fill="#62dbfb"/><path d="m459.859 435.844c0 7.383-5.985 13.367-13.367 13.367h-378.043c-7.383 0-13.367-5.985-13.367-13.367v-116.673h404.777z" fill="#f37c7c"/></g><path d="m55.082 319.171h404.777v71.144h-404.777z" fill="#ee6161"/><circle cx="138.897" cy="384.191" fill="#ee6161" r="39.234"/><path d="m138.897 344.957c-21.668 0-39.234 17.566-39.234 39.234 0 2.084.166 4.128.479 6.124h77.51c.313-1.996.479-4.041.479-6.124 0-21.668-17.566-39.234-39.234-39.234z" fill="#e94444"/><path d="m178.131 384.191c0-5.917-1.318-11.524-3.663-16.555h-49.854c3.532-9.815 10.85-17.822 20.209-22.233-2.174-.329-4.407-.482-6.683-.439-21.553.41-38.976 18.624-38.465 40.175.503 21.23 17.871 38.286 39.223 38.286 5.975 0 11.647-1.34 16.715-3.729-9.104-1.379-17.182-5.889-23.103-12.396-5.924-6.511-1.162-16.985 7.641-16.985h37.502c.312-1.995.478-4.04.478-6.124z" fill="#e94444"/><path d="m488.146 356.948c0 7.383-5.985 13.367-13.367 13.367h-434.618c-7.383 0-13.367-5.985-13.367-13.367v-163.933h461.352z" fill="#ade194"/><path d="m26.794 193.015h461.352v97.817h-461.352z" fill="#97da7b"/><circle cx="122.325" cy="293.443" fill="#97da7b" r="51.52"/><path d="m113.347 290.832h60.431c-.447-8.945-3.186-17.281-7.625-24.454h-60.322c5.748-10.629 15.127-19.007 26.472-23.48-3.229-.634-6.563-.974-9.978-.974-29.663 0-53.471 25.069-51.393 55.177 1.728 25.043 21.69 45.409 46.692 47.652 8.379.752 16.417-.54 23.627-3.383-18.607-3.653-33.67-17.31-39.248-35.147-2.388-7.634 3.346-15.391 11.344-15.391z" fill="#80d261"/><circle cx="122.325" cy="85.515" fill="#fee97d" r="51.52"/><path d="m173.76 88.403h-56.709c-9.047 0-15.484-9.007-12.324-17.484 6.177-16.569 20.661-29.104 38.372-32.564-7.33-3.23-15.572-4.814-24.221-4.247-25.48 1.671-46.142 22.193-47.941 47.665-2.129 30.145 21.696 55.262 51.388 55.262 3.399 0 6.718-.338 9.933-.966-11.508-5.071-20.804-14.23-26.061-25.634h61.21c3.653-6.595 5.912-14.069 6.353-22.032z" fill="#fedf30"/><path d="m494.073 270.831h-473.206c-7.383 0-13.367-5.985-13.367-13.367v-135.694c0-7.383 5.985-13.367 13.367-13.367h473.206c7.383 0 13.367 5.985 13.367 13.367v135.694c0 7.383-5.984 13.367-13.367 13.367z" fill="#dff6fd"/><path d="m85.402 257.464v-135.694c0-7.383 5.985-13.367 13.367-13.367h-77.902c-7.383 0-13.367 5.985-13.367 13.367v135.694c0 7.383 5.985 13.367 13.367 13.367h77.902c-7.382.001-13.367-5.984-13.367-13.367z" fill="#c8effe"/><circle cx="111.021" cy="189.617" fill="#99e6fc" r="53.574"/><path d="m92.292 189.617c0-23.486 15.12-43.428 36.151-50.661-5.464-1.879-11.321-2.913-17.423-2.913-29.588 0-53.574 23.986-53.574 53.574s23.986 53.574 53.574 53.574c6.102 0 11.958-1.034 17.423-2.913-21.031-7.232-36.151-27.174-36.151-50.661z" fill="#62dbfb"/></g></g><g><path d="m494.073 100.903h-61.628c-4.143 0-7.5 3.358-7.5 7.5s3.357 7.5 7.5 7.5h61.628c3.235 0 5.867 2.632 5.867 5.867v135.694c0 3.235-2.632 5.867-5.867 5.867h-473.205c-3.235 0-5.868-2.632-5.868-5.867v-135.694c0-3.235 2.632-5.867 5.868-5.867h379.615c4.143 0 7.5-3.358 7.5-7.5s-3.357-7.5-7.5-7.5h-379.615c-11.507 0-20.868 9.361-20.868 20.867v135.694c0 11.506 9.361 20.867 20.868 20.867h473.205c11.506 0 20.867-9.361 20.867-20.867v-135.694c0-11.506-9.361-20.867-20.867-20.867z"/><path d="m64.679 161.696c-3.808-1.625-8.216.142-9.843 3.952-3.245 7.598-4.89 15.662-4.89 23.969 0 33.676 27.398 61.074 61.074 61.074s61.073-27.397 61.073-61.074-27.397-61.074-61.073-61.074c-11.537 0-22.786 3.248-32.53 9.392-3.503 2.209-4.553 6.841-2.344 10.345 2.209 3.503 6.839 4.553 10.345 2.344 7.346-4.632 15.828-7.081 24.529-7.081 25.405 0 46.073 20.668 46.073 46.074s-20.668 46.074-46.073 46.074-46.074-20.668-46.074-46.074c0-6.271 1.24-12.353 3.685-18.078 1.627-3.809-.142-8.216-3.952-9.843z"/><path d="m26.794 85.903c4.142 0 7.5-3.358 7.5-7.5v-56.117c0-3.235 2.632-5.867 5.867-5.867h434.617c3.235 0 5.867 2.632 5.867 5.867v56.117c0 4.142 3.357 7.5 7.5 7.5s7.5-3.358 7.5-7.5v-56.117c0-11.506-9.361-20.867-20.867-20.867h-434.616c-11.506 0-20.867 9.361-20.867 20.867v56.117c-.001 4.142 3.357 7.5 7.499 7.5z"/><path d="m122.325 26.926c-29.084 0-53.411 21.778-56.587 50.657-.453 4.117 2.518 7.822 6.635 8.275 4.124.456 7.822-2.518 8.275-6.635 2.338-21.262 20.255-37.296 41.677-37.296s39.339 16.034 41.677 37.296c.422 3.839 3.671 6.681 7.446 6.681.274 0 .551-.015.829-.045 4.117-.453 7.088-4.158 6.635-8.275-3.176-28.88-27.503-50.658-56.587-50.658z"/><path d="m488.146 293.332c-4.143 0-7.5 3.358-7.5 7.5v56.117c0 3.235-2.632 5.867-5.867 5.867h-434.618c-3.235 0-5.867-2.632-5.867-5.867v-56.117c0-4.142-3.358-7.5-7.5-7.5s-7.5 3.358-7.5 7.5v56.117c0 11.506 9.361 20.867 20.867 20.867h434.618c11.506 0 20.867-9.361 20.867-20.867v-56.117c0-4.143-3.357-7.5-7.5-7.5z"/><path d="m122.325 352.309c29.084 0 53.411-21.778 56.587-50.657.453-4.117-2.518-7.822-6.635-8.275-4.118-.453-7.822 2.519-8.275 6.635-2.338 21.263-20.255 37.297-41.677 37.297s-39.339-16.034-41.677-37.297c-.453-4.117-4.162-7.089-8.275-6.635-4.117.453-7.088 4.158-6.635 8.275 3.176 28.879 27.503 50.657 56.587 50.657z"/><path d="m459.859 392.815c-4.143 0-7.5 3.358-7.5 7.5v35.528c0 3.235-2.632 5.867-5.867 5.867h-152.229c-4.143 0-7.5 3.358-7.5 7.5s3.357 7.5 7.5 7.5h152.229c11.506 0 20.867-9.361 20.867-20.867v-35.528c0-4.142-3.358-7.5-7.5-7.5z"/><path d="m269.8 449.211c0-4.142-3.357-7.5-7.5-7.5h-193.851c-3.235 0-5.867-2.632-5.867-5.867v-35.528c0-4.142-3.358-7.5-7.5-7.5s-7.5 3.358-7.5 7.5v35.528c0 11.506 9.361 20.867 20.867 20.867h193.851c4.143 0 7.5-3.358 7.5-7.5z"/><path d="m138.897 431.872c17.26 0 32.752-10.276 39.468-26.179 1.611-3.815-.176-8.215-3.992-9.827-3.815-1.611-8.215.176-9.827 3.992-4.365 10.335-14.433 17.014-25.65 17.014s-21.286-6.678-25.65-17.014c-1.612-3.816-6.011-5.604-9.827-3.992-3.816 1.611-5.603 6.011-3.992 9.827 6.717 15.903 22.209 26.179 39.47 26.179z"/><path d="m426.334 471.711c-4.143 0-7.5 3.358-7.5 7.5v13.442c0 3.235-2.632 5.868-5.867 5.868h-310.994c-3.235 0-5.868-2.632-5.868-5.868v-13.442c0-4.142-3.358-7.5-7.5-7.5s-7.5 3.358-7.5 7.5v13.442c0 11.506 9.361 20.868 20.868 20.868h310.994c11.506 0 20.867-9.361 20.867-20.868v-13.442c0-4.142-3.357-7.5-7.5-7.5z"/><path d="m167.15 472.268c-5.483 2.24-11.742 2.24-17.225 0-3.837-1.568-8.213.272-9.779 4.106s.272 8.213 4.106 9.779c4.552 1.859 9.358 2.802 14.286 2.802s9.734-.943 14.285-2.802c3.834-1.566 5.673-5.945 4.106-9.779s-5.945-5.674-9.779-4.106z"/><path d="m212.028 176.149h9.845c4.142 0 7.5-3.358 7.5-7.5s-3.358-7.5-7.5-7.5h-9.845c-4.142 0-7.5 3.358-7.5 7.5s3.358 7.5 7.5 7.5z"/><path d="m460.434 161.149h-202.964c-4.142 0-7.5 3.358-7.5 7.5s3.358 7.5 7.5 7.5h202.964c4.143 0 7.5-3.358 7.5-7.5s-3.357-7.5-7.5-7.5z"/><path d="m212.028 221.078h248.406c4.143 0 7.5-3.358 7.5-7.5s-3.357-7.5-7.5-7.5h-248.406c-4.142 0-7.5 3.358-7.5 7.5s3.358 7.5 7.5 7.5z"/><path d="m212.028 48.915c-4.142 0-7.5 3.358-7.5 7.5s3.358 7.5 7.5 7.5h236.229c4.143 0 7.5-3.358 7.5-7.5s-3.357-7.5-7.5-7.5z"/><path d="m448.257 330.32c4.143 0 7.5-3.358 7.5-7.5s-3.357-7.5-7.5-7.5h-236.229c-4.142 0-7.5 3.358-7.5 7.5s3.358 7.5 7.5 7.5z"/><path d="m419.548 420.141c4.143 0 7.5-3.358 7.5-7.5s-3.357-7.5-7.5-7.5h-207.52c-4.142 0-7.5 3.358-7.5 7.5s3.358 7.5 7.5 7.5z"/><path d="m204.528 477.586c0 4.142 3.358 7.5 7.5 7.5h172.488c4.143 0 7.5-3.358 7.5-7.5s-3.357-7.5-7.5-7.5h-172.488c-4.142 0-7.5 3.358-7.5 7.5z"/></g></g></svg>