<?xml version="1.0" encoding="UTF-8" standalone="no"?>
<svg
   xmlns:dc="http://purl.org/dc/elements/1.1/"
   xmlns:cc="http://creativecommons.org/ns#"
   xmlns:rdf="http://www.w3.org/1999/02/22-rdf-syntax-ns#"
   xmlns:svg="http://www.w3.org/2000/svg"
   xmlns="http://www.w3.org/2000/svg"
   xmlns:sodipodi="http://sodipodi.sourceforge.net/DTD/sodipodi-0.dtd"
   xmlns:inkscape="http://www.inkscape.org/namespaces/inkscape"
   inkscape:version="1.0 (4035a4fb49, 2020-05-01)"
   sodipodi:docname="youtube.svg"
   id="svg19"
   preserveAspectRatio="xMidYMid"
   version="1.1"
   viewBox="0 0 46.000011 29"
   height="29"
   width="46.000011">
  <metadata
     id="metadata23">
    <rdf:RDF>
      <cc:Work
         rdf:about="">
        <dc:format>image/svg+xml</dc:format>
        <dc:type
           rdf:resource="http://purl.org/dc/dcmitype/StillImage" />
        <dc:title></dc:title>
      </cc:Work>
    </rdf:RDF>
  </metadata>
  <sodipodi:namedview
     inkscape:current-layer="svg19"
     inkscape:window-maximized="1"
     inkscape:window-y="-8"
     inkscape:window-x="-8"
     inkscape:cy="38.179931"
     inkscape:cx="128"
     inkscape:zoom="3.0876068"
     showgrid="false"
     id="namedview21"
     inkscape:window-height="745"
     inkscape:window-width="1366"
     inkscape:pageshadow="2"
     inkscape:pageopacity="0"
     guidetolerance="10"
     gridtolerance="10"
     objecttolerance="10"
     borderopacity="1"
     bordercolor="#666666"
     pagecolor="#ffffff" />
  <defs
     id="defs7">
    <linearGradient
       gradientUnits="userSpaceOnUse"
       gradientTransform="matrix(6.9543902,0,0,5.6956424,-5.6659758,-6.5997259)"
       id="linearGradient-1"
       y2="214.72729"
       x2="107.28935"
       y1="1.8633864e-06"
       x1="107.28935">
      <stop
         id="stop2"
         offset="0%"
         stop-color="#E52D27" />
      <stop
         id="stop4"
         offset="100%"
         stop-color="#BF171D" />
    </linearGradient>
  </defs>
  <g
     transform="matrix(0.17148437,0,0,0.14722222,0.9716263,0.9716263)"
     id="g17">
    <g
       id="g15">
      <path
         id="path9"
         fill="#ffffff"
         d="M 101.6,123.2 170.8,87.4 101.6,51.3 Z" />
      <path
         id="path11"
         fill="#420000"
         opacity="0.12"
         d="m 101.6,51.3 60.7,40.5 8.5,-4.4 z" />
      <path
         style="fill:url(#linearGradient-1)"
         id="path13"
         fill="url(#linearGradient-1)"
         d="m 253.30105,38.8 c 0,0 -2.49902,-17.6 -10.19601,-25.4 C 233.40882,3.2 222.51308,3.2 217.41507,2.6 181.72901,0 128.04998,0 128.04998,0 h -0.1 c 0,0 -53.679032,0 -89.565014,2.6 C 33.386958,3.2 22.491214,3.2 12.695041,13.4 5.0980086,21.2 2.5989848,38.8 2.5989848,38.8 2.5989848,38.8 0,59.6 0,80.3 v 19.4 c 0,20.7 2.5989848,41.4 2.5989848,41.4 0,0 2.4990238,17.6 10.1960172,25.4 9.696212,10.2 22.491214,9.9 28.188989,10.9 20.491995,2 86.966029,2.6 86.966029,2.6 0,0 53.77899,-0.1 89.56501,-2.7 4.99805,-0.6 15.89379,-0.6 25.68997,-10.8 7.69699,-7.8 10.19601,-25.4 10.19601,-25.4 0,0 2.59899,-20.7 2.59899,-41.4 V 80.3 C 255.9,59.6 253.30105,38.8 253.30105,38.8 Z M 101.56033,123.2 V 51.3 l 69.17298,36.1 z" />
    </g>
  </g>
</svg>
