<?xml version="1.0" encoding="UTF-8" standalone="no"?>
<svg
   xmlns:dc="http://purl.org/dc/elements/1.1/"
   xmlns:cc="http://creativecommons.org/ns#"
   xmlns:rdf="http://www.w3.org/1999/02/22-rdf-syntax-ns#"
   xmlns:svg="http://www.w3.org/2000/svg"
   xmlns="http://www.w3.org/2000/svg"
   xmlns:xlink="http://www.w3.org/1999/xlink"
   xmlns:sodipodi="http://sodipodi.sourceforge.net/DTD/sodipodi-0.dtd"
   xmlns:inkscape="http://www.inkscape.org/namespaces/inkscape"
   sodipodi:docname="syne web.svg"
   inkscape:version="1.0 (4035a4fb49, 2020-05-01)"
   inkscape:export-ydpi="150"
   inkscape:export-xdpi="150"
   inkscape:export-filename="C:\Users\Personal\Pictures\prueba.png"
   id="svg8"
   version="1.1"
   viewBox="0 0 211.66666 264.5833"
   height="1000"
   width="800">
  <defs
     id="defs2">
    <rect
       id="rect9928"
       height="10.272525"
       width="5.552716"
       y="64.13387"
       x="70.519493" />
    <rect
       id="rect9708"
       height="56.360067"
       width="93.285629"
       y="114.66359"
       x="13.604154" />
    <rect
       id="rect9694"
       height="19.989778"
       width="129.93355"
       y="259.86711"
       x="30.262302" />
    <rect
       id="rect7012"
       height="70.784079"
       width="167.12718"
       y="60.524604"
       x="118.27285" />
    <linearGradient
       id="linearGradient841"
       inkscape:collect="always">
      <stop
         id="stop837"
         offset="0"
         style="stop-color:#4c4ca9;stop-opacity:1;" />
      <stop
         id="stop839"
         offset="1"
         style="stop-color:#4c4ca9;stop-opacity:0;" />
    </linearGradient>
    <linearGradient
       gradientUnits="userSpaceOnUse"
       y2="176.57637"
       x2="35.537384"
       y1="58.303516"
       x1="83.290741"
       id="linearGradient843"
       xlink:href="#linearGradient841"
       inkscape:collect="always" />
    <symbol
       id="Toilets">
      <title
         id="title1646">Toilets</title>
      <g
         style="stroke:none"
         id="g1658">
        <!-- Divider -->
        <rect
           style="stroke-width:0.264583"
           x="8.8635416"
           y="3.175"
           width="1.3229166"
           height="12.7"
           id="rect1648" />
        <!-- Woman -->
        <circle
           style="stroke-width:0.264583"
           cx="5.1593752"
           cy="3.96875"
           r="1.0583333"
           id="circle1650" />
        <path
           style="stroke-width:0.264583"
           d="m 5.0270833,11.773958 v 3.704167 a 0.52916667,0.52916667 0 0 1 -1.0583333,0 V 11.773958 H 2.6458333 L 4.1010417,6.8791667 H 3.8364583 l -0.79375,2.778125 A 0.48180625,0.48180625 0 0 1 2.1166667,9.3927083 l 0.9260416,-3.175 A 1.508125,1.2170833 0 0 1 4.4979167,5.2916667 h 1.3229166 a 1.508125,1.2170833 0 0 1 1.4552084,0.9260416 l 0.9260416,3.175 A 0.48180625,0.48180625 0 0 1 7.2760417,9.6572917 l -0.79375,-2.778125 H 6.2177083 L 7.6729167,11.773958 H 6.35 v 3.704167 a 0.52916667,0.52916667 0 0 1 -1.0583333,0 v -3.704167 z"
           id="path1652" />
        <!-- Man -->
        <circle
           style="stroke-width:0.264583"
           cx="13.890625"
           cy="3.96875"
           r="1.0583333"
           id="circle1654" />
        <path
           style="stroke-width:0.264583"
           d="m 11.377083,6.6145833 v 3.4395837 a 0.463021,0.463021 0 0 0 0.926042,0 V 7.0114583 h 0.264583 v 8.4005207 a 0.5953125,0.5953125 0 0 0 1.190625,0 v -4.960937 h 0.264584 v 4.960937 a 0.5953125,0.5953125 0 0 0 1.190625,0 V 7.0114583 h 0.264583 v 3.0427087 a 0.463021,0.463021 0 0 0 0.926042,0 V 6.6145833 A 1.3229167,1.3229167 0 0 0 15.08125,5.2916667 H 12.7 a 1.3229167,1.3229167 0 0 0 -1.322917,1.3229166 z"
           id="path1656" />
      </g>
    </symbol>
    <symbol
       id="Cashier">
      <title
         id="title1360">Cashier</title>
      <g
         style="fill:none;stroke-width:6"
         id="g1366">
        <circle
           style="stroke-width:1.5875"
           cx="9.5249996"
           cy="9.5249996"
           r="6.3499999"
           id="circle1362" />
        <path
           style="stroke-width:1.5875"
           d="M 11.90625,7.9375 C 11.90625,6.8791667 10.847917,6.35 9.525,6.35 c -1.3229167,0 -2.38125,0.5291667 -2.38125,1.5875 0,1.0583333 1.0583333,1.4552083 2.38125,1.5875 1.322917,0.1322917 2.645833,0.2645833 2.645833,1.5875 0,1.322917 -1.322916,1.5875 -2.645833,1.5875 -1.3229167,0 -2.38125,-0.79375 -2.38125,-1.852083 M 9.525,4.4979167 V 14.552083"
           id="path1364" />
      </g>
    </symbol>
    <symbol
       id="Cashier_Inv">
      <title
         id="title1369">Cashier</title>
      <rect
         x="0.13229166"
         y="0.13229166"
         width="18.785418"
         height="18.785418"
         ry="1.5875"
         style="stroke:#ffffff;stroke-width:0.264583"
         id="rect1371" />
      <g
         style="fill:none;stroke:#ffffff;stroke-width:6"
         id="g1377">
        <circle
           style="stroke-width:1.5875"
           cx="9.5249996"
           cy="9.5249996"
           r="6.3499999"
           id="circle1373" />
        <path
           style="stroke-width:1.5875"
           d="M 11.90625,7.9375 C 11.90625,6.8791667 10.847917,6.35 9.525,6.35 c -1.3229167,0 -2.38125,0.5291667 -2.38125,1.5875 0,1.0583333 1.0583333,1.4552083 2.38125,1.5875 1.322917,0.1322917 2.645833,0.2645833 2.645833,1.5875 0,1.322917 -1.322916,1.5875 -2.645833,1.5875 -1.3229167,0 -2.38125,-0.79375 -2.38125,-1.852083 M 9.525,4.4979167 V 14.552083"
           id="path1375" />
      </g>
    </symbol>
  </defs>
  <sodipodi:namedview
     showguides="false"
     inkscape:window-maximized="1"
     inkscape:window-y="-8"
     inkscape:window-x="1358"
     inkscape:window-height="745"
     inkscape:window-width="1360"
     units="px"
     objecttolerance="1"
     showgrid="false"
     inkscape:document-rotation="0"
     inkscape:current-layer="layer1"
     inkscape:document-units="mm"
     inkscape:cy="360.89458"
     inkscape:cx="751.36131"
     inkscape:zoom="0.67386364"
     inkscape:pageshadow="2"
     inkscape:pageopacity="0.0"
     borderopacity="1.0"
     bordercolor="#666666"
     pagecolor="#ffffff"
     id="base" />
  <metadata
     id="metadata5">
    <rdf:RDF>
      <cc:Work
         rdf:about="">
        <dc:format>image/svg+xml</dc:format>
        <dc:type
           rdf:resource="http://purl.org/dc/dcmitype/StillImage" />
        <dc:title></dc:title>
      </cc:Work>
    </rdf:RDF>
  </metadata>
  <g
     id="layer1"
     inkscape:groupmode="layer"
     inkscape:label="Capa 1">
    <g
       sodipodi:insensitive="true"
       id="g860">
      <rect
         style="fill:#5050af;fill-opacity:1;fill-rule:evenodd;stroke-width:0.27623"
         id="rect10"
         width="211.41989"
         height="264.37866"
         x="0.20800744"
         y="0.1388178"
         ry="0" />
      <path
         style="fill:url(#linearGradient843);fill-opacity:1;stroke:none;stroke-width:0.264583px;stroke-linecap:butt;stroke-linejoin:miter;stroke-opacity:1"
         d="M 0.55527159,1.1105432 211.6279,0.1388178 1.1105432,263.75401 Z"
         id="path835" />
    </g>
    <g
       transform="matrix(0.0631388,0,0,0.05732152,13.808804,56.284815)"
       id="g977">
      <path
         style="fill:#ecf0f1"
         d="M 483.31,512 H 28.69 C 12.844,512 0,499.156 0,483.31 V 105.931 H 512 V 483.31 C 512,499.156 499.156,512 483.31,512 Z"
         id="path862" />
      <path
         style="fill:#687492"
         d="M 512,105.931 H 0 V 28.69 C 0,12.844 12.844,0 28.69,0 H 483.31 C 499.156,0 512,12.844 512,28.69 Z"
         id="path864" />
      <rect
         x="35.310001"
         y="35.310001"
         style="fill:#e64c3c"
         width="35.310001"
         height="35.310001"
         id="rect866" />
      <rect
         x="105.931"
         y="35.310001"
         style="fill:#f0c419"
         width="35.310001"
         height="35.310001"
         id="rect868" />
      <rect
         x="176.552"
         y="35.310001"
         style="fill:#24ae5f"
         width="35.310001"
         height="35.310001"
         id="rect870" />
      <rect
         x="44.138"
         y="150.069"
         style="fill:#26b99a"
         width="423.724"
         height="167.724"
         id="rect872" />
      <g
         id="g884">
	<path
   style="fill:#ffffff"
   d="m 176.552,282.483 c -2.26,0 -4.52,-0.865 -6.241,-2.586 -3.452,-3.452 -3.452,-9.031 0,-12.482 l 35.31,-35.31 c 3.443,-3.452 9.039,-3.452 12.482,0 3.452,3.452 3.452,9.031 0,12.482 l -35.31,35.31 c -1.722,1.721 -3.981,2.586 -6.241,2.586 z"
   id="path874" />

	<path
   style="fill:#ffffff"
   d="m 247.172,282.483 c -2.26,0 -4.52,-0.865 -6.241,-2.586 l -35.31,-35.31 c -3.452,-3.452 -3.452,-9.031 0,-12.482 3.443,-3.452 9.039,-3.452 12.482,0 l 35.31,35.31 c 3.452,3.452 3.452,9.031 0,12.482 -1.721,1.721 -3.981,2.586 -6.241,2.586 z"
   id="path876" />

	<path
   style="fill:#ffffff"
   d="m 229.517,264.828 c -2.26,0 -4.52,-0.865 -6.241,-2.586 -3.452,-3.452 -3.452,-9.031 0,-12.482 l 35.31,-35.31 c 3.443,-3.452 9.039,-3.452 12.482,0 3.452,3.452 3.452,9.031 0,12.482 l -35.31,35.31 c -1.721,1.72 -3.981,2.586 -6.241,2.586 z"
   id="path878" />

	<path
   style="fill:#ffffff"
   d="m 300.138,264.828 c -2.26,0 -4.52,-0.865 -6.241,-2.586 l -35.31,-35.31 c -3.452,-3.452 -3.452,-9.031 0,-12.482 3.443,-3.452 9.039,-3.452 12.482,0 l 35.31,35.31 c 3.452,3.452 3.452,9.031 0,12.482 -1.721,1.72 -3.981,2.586 -6.241,2.586 z"
   id="path880" />

	<path
   style="fill:#ffffff"
   d="m 344.073,220.69 h -17.249 c -4.988,0 -9.031,-4.043 -9.031,-9.031 V 194.41 c 0,-4.988 4.043,-9.031 9.031,-9.031 h 17.249 c 4.988,0 9.031,4.043 9.031,9.031 v 17.249 c -10e-4,4.988 -4.044,9.031 -9.031,9.031 z"
   id="path882" />

</g>
      <g
         id="g902">
	<path
   style="fill:#bdc3c7"
   d="M 361.931,370.759 H 44.138 c -4.873,0 -8.828,-3.946 -8.828,-8.828 0,-4.882 3.955,-8.828 8.828,-8.828 h 317.793 c 4.873,0 8.828,3.946 8.828,8.828 0,4.882 -3.955,8.828 -8.828,8.828 z"
   id="path886" />

	<path
   style="fill:#bdc3c7"
   d="m 467.862,370.759 h -61.793 c -4.873,0 -8.828,-3.946 -8.828,-8.828 0,-4.882 3.955,-8.828 8.828,-8.828 h 61.793 c 4.873,0 8.828,3.946 8.828,8.828 0,4.882 -3.955,8.828 -8.828,8.828 z"
   id="path888" />

	<path
   style="fill:#bdc3c7"
   d="M 467.862,406.069 H 150.069 c -4.873,0 -8.828,-3.946 -8.828,-8.828 0,-4.882 3.955,-8.828 8.828,-8.828 h 317.793 c 4.873,0 8.828,3.946 8.828,8.828 0,4.882 -3.955,8.828 -8.828,8.828 z"
   id="path890" />

	<path
   style="fill:#bdc3c7"
   d="M 105.931,406.069 H 44.138 c -4.873,0 -8.828,-3.946 -8.828,-8.828 0,-4.882 3.955,-8.828 8.828,-8.828 h 61.793 c 4.873,0 8.828,3.946 8.828,8.828 0,4.882 -3.955,8.828 -8.828,8.828 z"
   id="path892" />

	<path
   style="fill:#bdc3c7"
   d="M 361.931,441.379 H 44.138 c -4.873,0 -8.828,-3.946 -8.828,-8.828 0,-4.882 3.955,-8.828 8.828,-8.828 h 317.793 c 4.873,0 8.828,3.946 8.828,8.828 0,4.882 -3.955,8.828 -8.828,8.828 z"
   id="path894" />

	<path
   style="fill:#bdc3c7"
   d="m 467.862,441.379 h -61.793 c -4.873,0 -8.828,-3.946 -8.828,-8.828 0,-4.882 3.955,-8.828 8.828,-8.828 h 61.793 c 4.873,0 8.828,3.946 8.828,8.828 0,4.882 -3.955,8.828 -8.828,8.828 z"
   id="path896" />

	<path
   style="fill:#bdc3c7"
   d="M 467.862,476.69 H 150.069 c -4.873,0 -8.828,-3.946 -8.828,-8.828 0,-4.882 3.955,-8.828 8.828,-8.828 h 317.793 c 4.873,0 8.828,3.946 8.828,8.828 0,4.882 -3.955,8.828 -8.828,8.828 z"
   id="path898" />

	<path
   style="fill:#bdc3c7"
   d="M 105.931,476.69 H 44.138 c -4.873,0 -8.828,-3.946 -8.828,-8.828 0,-4.882 3.955,-8.828 8.828,-8.828 h 61.793 c 4.873,0 8.828,3.946 8.828,8.828 0,4.882 -3.955,8.828 -8.828,8.828 z"
   id="path900" />

</g>
      <g
         id="g904">
</g>
      <g
         id="g906">
</g>
      <g
         id="g908">
</g>
      <g
         id="g910">
</g>
      <g
         id="g912">
</g>
      <g
         id="g914">
</g>
      <g
         id="g916">
</g>
      <g
         id="g918">
</g>
      <g
         id="g920">
</g>
      <g
         id="g922">
</g>
      <g
         id="g924">
</g>
      <g
         id="g926">
</g>
      <g
         id="g928">
</g>
      <g
         id="g930">
</g>
      <g
         id="g932">
</g>
    </g>
    <text
       transform="scale(1.0800526,0.92588083)"
       id="text981"
       y="29.197159"
       x="17.236006"
       style="font-style:normal;font-variant:normal;font-weight:normal;font-stretch:normal;font-size:35.2778px;line-height:1.25;font-family:'Britannic Bold';-inkscape-font-specification:'Britannic Bold, Normal';font-variant-ligatures:normal;font-variant-caps:normal;font-variant-numeric:normal;font-variant-east-asian:normal;letter-spacing:0px;word-spacing:0px;fill:#ffb300;fill-opacity:1;stroke-width:1.26384"
       xml:space="preserve"><tspan
         style="font-style:normal;font-variant:normal;font-weight:normal;font-stretch:normal;font-size:35.2778px;font-family:'Britannic Bold';-inkscape-font-specification:'Britannic Bold, Normal';font-variant-ligatures:normal;font-variant-caps:normal;font-variant-numeric:normal;font-variant-east-asian:normal;fill:#ffb300;fill-opacity:1;stroke-width:1.26384"
         y="29.197159"
         x="17.236006"
         id="tspan979"
         sodipodi:role="line">Seyne </tspan></text>
    <text
       id="text985"
       y="34.62373"
       x="132.33221"
       style="font-style:normal;font-variant:normal;font-weight:normal;font-stretch:normal;font-size:24.6944px;line-height:1.25;font-family:'Britannic Bold';-inkscape-font-specification:'Britannic Bold, Normal';font-variant-ligatures:normal;font-variant-caps:normal;font-variant-numeric:normal;font-variant-east-asian:normal;letter-spacing:0px;word-spacing:0px;fill:#ffb300;fill-opacity:1;stroke-width:0.264583"
       xml:space="preserve"><tspan
         style="font-style:normal;font-variant:normal;font-weight:normal;font-stretch:normal;font-size:24.6944px;font-family:'Britannic Bold';-inkscape-font-specification:'Britannic Bold, Normal';font-variant-ligatures:normal;font-variant-caps:normal;font-variant-numeric:normal;font-variant-east-asian:normal;fill:#ffb300;fill-opacity:1;stroke-width:0.264583"
         y="34.62373"
         x="132.33221"
         id="tspan983"
         sodipodi:role="line">Web</tspan></text>
    <text
       y="0"
       x="0.087905884"
       transform="matrix(1,0,0,0.97626625,-56.438991,-5.2961422)"
       style="font-style:normal;font-variant:normal;font-weight:normal;font-stretch:condensed;font-size:8.56896px;line-height:1.3;font-family:'Agency FB';-inkscape-font-specification:'Agency FB Condensed';font-variant-ligatures:normal;font-variant-caps:normal;font-variant-numeric:normal;font-variant-east-asian:normal;text-align:start;letter-spacing:-0.0053556px;word-spacing:0px;baseline-shift:baseline;white-space:pre;shape-inside:url(#rect7012);fill:#fcfcfc;fill-opacity:1;stroke:none;stroke-opacity:1;stroke-width:1.40477034;stroke-miterlimit:4;stroke-dasharray:none;opacity:1"
       id="text7010"
       xml:space="preserve"><tspan
         x="118.27344"
         y="68.744769"><tspan
           style="font-style:normal;font-variant:normal;font-weight:normal;font-stretch:condensed;font-size:8.56896px;font-family:'Agency FB';-inkscape-font-specification:'Agency FB Condensed';font-variant-ligatures:normal;font-variant-caps:normal;font-variant-numeric:normal;font-variant-east-asian:normal;text-align:start;baseline-shift:baseline;text-anchor:start;fill:#fcfcfc;fill-opacity:1;stroke:none;stroke-width:1.40477;stroke-miterlimit:4;stroke-dasharray:none;stroke-opacity:1">Si tienes un negocio, experiencia, y quieres compartir 
</tspan></tspan><tspan
         x="118.27344"
         y="79.884417"><tspan
           style="font-style:normal;font-variant:normal;font-weight:normal;font-stretch:condensed;font-size:8.56896px;font-family:'Agency FB';-inkscape-font-specification:'Agency FB Condensed';font-variant-ligatures:normal;font-variant-caps:normal;font-variant-numeric:normal;font-variant-east-asian:normal;text-align:start;baseline-shift:baseline;text-anchor:start;fill:#fcfcfc;fill-opacity:1;stroke:none;stroke-width:1.40477;stroke-miterlimit:4;stroke-dasharray:none;stroke-opacity:1">lo que vendes y que mas personas vean tu negocio, o 
</tspan></tspan><tspan
         x="118.27344"
         y="91.024066"><tspan
           style="font-style:normal;font-variant:normal;font-weight:normal;font-stretch:condensed;font-size:8.56896px;font-family:'Agency FB';-inkscape-font-specification:'Agency FB Condensed';font-variant-ligatures:normal;font-variant-caps:normal;font-variant-numeric:normal;font-variant-east-asian:normal;text-align:start;baseline-shift:baseline;text-anchor:start;fill:#fcfcfc;fill-opacity:1;stroke:none;stroke-width:1.40477;stroke-miterlimit:4;stroke-dasharray:none;stroke-opacity:1">quieres tener tu blog, seyne corporation te lo hace.
</tspan></tspan></text>
    <path
       sodipodi:nodetypes="cc"
       id="path7016"
       d="M 0.36359714,42.479483 211.62558,42.477583"
       style="fill:none;stroke:#727272;stroke-width:0.632169;stroke-linecap:butt;stroke-linejoin:miter;stroke-miterlimit:4;stroke-dasharray:none;stroke-opacity:1" />
    <text
       id="text7020"
       y="186.77988"
       x="59.605186"
       style="font-style:normal;font-variant:normal;font-weight:normal;font-stretch:normal;font-size:13.4056px;line-height:1.25;font-family:'Britannic Bold';-inkscape-font-specification:'Britannic Bold, Normal';font-variant-ligatures:normal;font-variant-caps:normal;font-variant-numeric:normal;font-variant-east-asian:normal;letter-spacing:0px;word-spacing:0px;fill:#ffbc1f;fill-opacity:1;stroke-width:0.264583;"
       xml:space="preserve"><tspan
         style="font-style:normal;font-variant:normal;font-weight:normal;font-stretch:normal;font-size:13.4056px;font-family:'Britannic Bold';-inkscape-font-specification:'Britannic Bold, Normal';font-variant-ligatures:normal;font-variant-caps:normal;font-variant-numeric:normal;font-variant-east-asian:normal;fill:#ffbc1f;fill-opacity:1;stroke-width:0.264583;"
         y="186.77988"
         x="59.605186"
         id="tspan7018"
         sodipodi:role="line">Tarifa - Precio</tspan></text>
    <path
       sodipodi:nodetypes="cc"
       id="path7070"
       d="m 55.0725,51.362623 2e-6,40.812462"
       style="fill:none;stroke:#b2b2b2;stroke-width:0.565;stroke-linecap:butt;stroke-linejoin:miter;stroke-miterlimit:4;stroke-dasharray:none;stroke-opacity:1" />
    <rect
       y="192.60912"
       x="101.4576"
       height="13.260145"
       width="106.09212"
       id="rect7074"
       style="fill:#e66642;fill-opacity:1;fill-rule:evenodd;stroke-width:0.189606" />
    <rect
       y="192.55345"
       x="178.20856"
       height="13.31581"
       width="29.341158"
       id="rect7106"
       style="fill:#878787;fill-opacity:1;fill-rule:evenodd;stroke-width:0.212192" />
    <rect
       style="fill:#e66642;fill-opacity:1;fill-rule:evenodd;stroke-width:0.186605"
       id="rect7074-1"
       width="85.824722"
       height="13.537779"
       x="3.0060837"
       y="192.51378" />
    <rect
       style="fill:#878787;fill-opacity:1;fill-rule:evenodd;stroke-width:0.213719"
       id="rect7106-5"
       width="29.341158"
       height="13.508141"
       x="59.489639"
       y="192.54341" />
    <rect
       style="fill:#e66642;fill-opacity:1;fill-rule:evenodd;stroke-width:0.186605"
       id="rect7074-9"
       width="106.64741"
       height="14.093052"
       x="101.63432"
       y="212.54919" />
    <rect
       style="fill:#878787;fill-opacity:1;fill-rule:evenodd;stroke-width:0.218886"
       id="rect7106-4"
       width="29.341158"
       height="14.169157"
       x="178.94055"
       y="212.47308" />
    <rect
       y="213.09489"
       x="2.8020003"
       height="13.537779"
       width="85.824722"
       id="rect7074-9-4"
       style="fill:#e66642;fill-opacity:1;fill-rule:evenodd;stroke:none;stroke-width:0.186605;stroke-opacity:1" />
    <rect
       y="213.12453"
       x="59.285553"
       height="13.508141"
       width="29.341158"
       id="rect7106-4-7"
       style="fill:#878787;fill-opacity:1;fill-rule:evenodd;stroke:none;stroke-width:0.213719;stroke-opacity:1" />
    <rect
       style="fill:#e66642;fill-opacity:1;fill-rule:evenodd;stroke-width:0.186605"
       id="rect7074-9-4-0"
       width="105.81451"
       height="14.093052"
       x="40.977001"
       y="234.57401" />
    <rect
       style="fill:#878787;fill-opacity:1;fill-rule:evenodd;stroke-width:0.292467"
       id="rect7106-4-7-1"
       width="52.940697"
       height="14.020161"
       x="117.45034"
       y="234.64688" />
    <text
       id="text7024-6-0"
       y="201.78305"
       x="5.7984004"
       style="font-size:6.35px;line-height:1.25;font-family:'Berlin Sans FB';-inkscape-font-specification:'Berlin Sans FB, Normal';letter-spacing:0px;word-spacing:0px;stroke-width:0.264583;font-weight:normal;font-style:normal;font-stretch:normal;font-variant:normal;font-variant-ligatures:normal;font-variant-caps:normal;font-variant-numeric:normal;font-variant-east-asian:normal;"
       xml:space="preserve"><tspan
         style="stroke-width:0.264583;-inkscape-font-specification:'Berlin Sans FB, Normal';font-family:'Berlin Sans FB';font-weight:normal;font-style:normal;font-stretch:normal;font-variant:normal;font-size:6.35px;font-variant-ligatures:normal;font-variant-caps:normal;font-variant-numeric:normal;font-variant-east-asian:normal;"
         y="201.78305"
         x="5.7984004"
         id="tspan7022-2-3"
         sodipodi:role="line">Pagina web corta</tspan></text>
    <text
       xml:space="preserve"
       style="font-size:6.35px;line-height:1.25;font-family:'Berlin Sans FB';-inkscape-font-specification:'Berlin Sans FB, Normal';letter-spacing:0px;word-spacing:0px;stroke-width:0.264583;font-weight:normal;font-style:normal;font-stretch:normal;font-variant:normal;font-variant-ligatures:normal;font-variant-caps:normal;font-variant-numeric:normal;font-variant-east-asian:normal;"
       x="6.1132426"
       y="222.05048"
       id="text7024-1-7-5"><tspan
         sodipodi:role="line"
         id="tspan7022-9-4-6"
         x="6.1132426"
         y="222.05048"
         style="stroke-width:0.264583;-inkscape-font-specification:'Berlin Sans FB, Normal';font-family:'Berlin Sans FB';font-weight:normal;font-style:normal;font-stretch:normal;font-variant:normal;font-size:6.35px;font-variant-ligatures:normal;font-variant-caps:normal;font-variant-numeric:normal;font-variant-east-asian:normal;">Pagina web larga</tspan></text>
    <text
       id="text7068-8-7"
       y="243.81599"
       x="48.191109"
       style="font-style:normal;font-variant:normal;font-weight:normal;font-stretch:normal;font-size:6.35px;line-height:1.25;font-family:'Berlin Sans FB';-inkscape-font-specification:'Berlin Sans FB, Normal';font-variant-ligatures:normal;font-variant-caps:normal;font-variant-numeric:normal;font-variant-east-asian:normal;letter-spacing:0px;word-spacing:0px;stroke-width:0.264583"
       xml:space="preserve"><tspan
         style="font-style:normal;font-variant:normal;font-weight:normal;font-stretch:normal;font-size:6.35px;font-family:'Berlin Sans FB';-inkscape-font-specification:'Berlin Sans FB, Normal';font-variant-ligatures:normal;font-variant-caps:normal;font-variant-numeric:normal;font-variant-east-asian:normal;stroke-width:0.264583"
         y="243.81599"
         x="48.191109"
         id="tspan7066-4-6"
         sodipodi:role="line">Sitio web personalizado</tspan></text>
    <text
       id="text7046-58-4"
       y="200.79118"
       x="105.7169"
       style="font-style:normal;font-variant:normal;font-weight:normal;font-stretch:normal;font-size:6.35px;line-height:1.25;font-family:'Berlin Sans FB';-inkscape-font-specification:'Berlin Sans FB, Normal';font-variant-ligatures:normal;font-variant-caps:normal;font-variant-numeric:normal;font-variant-east-asian:normal;letter-spacing:0px;word-spacing:0px;stroke-width:0.264583"
       xml:space="preserve"><tspan
         style="font-style:normal;font-variant:normal;font-weight:normal;font-stretch:normal;font-size:6.35px;font-family:'Berlin Sans FB';-inkscape-font-specification:'Berlin Sans FB, Normal';font-variant-ligatures:normal;font-variant-caps:normal;font-variant-numeric:normal;font-variant-east-asian:normal;stroke-width:0.264583"
         y="200.79118"
         x="105.7169"
         id="tspan7044-3-2"
         sodipodi:role="line">Sitio web corto (5 paginas)</tspan></text>
    <text
       xml:space="preserve"
       style="font-style:normal;font-variant:normal;font-weight:normal;font-stretch:normal;font-size:6.35px;line-height:1.25;font-family:'Berlin Sans FB';-inkscape-font-specification:'Berlin Sans FB, Normal';font-variant-ligatures:normal;font-variant-caps:normal;font-variant-numeric:normal;font-variant-east-asian:normal;letter-spacing:0px;word-spacing:0px;stroke-width:0.264583"
       x="104.27538"
       y="221.83965"
       id="text7046-5-9-0"><tspan
         sodipodi:role="line"
         id="tspan7044-5-7-7"
         x="104.27538"
         y="221.83965"
         style="font-style:normal;font-variant:normal;font-weight:normal;font-stretch:normal;font-size:6.35px;font-family:'Berlin Sans FB';-inkscape-font-specification:'Berlin Sans FB, Normal';font-variant-ligatures:normal;font-variant-caps:normal;font-variant-numeric:normal;font-variant-east-asian:normal;stroke-width:0.264583">Sitio web largo (10 paginas)</tspan></text>
    <use
       transform="matrix(0.59188203,-0.038798,0.03736807,0.57006777,93.538817,167.35149)"
       height="100%"
       width="100%"
       y="0"
       x="0"
       id="use8784"
       style="fill:#ffffff;fill-opacity:1;stroke:#ffffff;stroke-opacity:1"
       xlink:href="#Cashier" />
    <text
       id="text9604"
       y="222.66391"
       x="65.244415"
       style="font-style:normal;font-variant:normal;font-weight:normal;font-stretch:normal;font-size:8.46667px;line-height:1.25;font-family:'Berlin Sans FB';-inkscape-font-specification:'Berlin Sans FB, Normal';font-variant-ligatures:normal;font-variant-caps:normal;font-variant-numeric:normal;font-variant-east-asian:normal;letter-spacing:0px;word-spacing:0px;stroke-width:0.264583"
       xml:space="preserve"><tspan
         style="font-style:normal;font-variant:normal;font-weight:normal;font-stretch:normal;font-size:8.46667px;font-family:'Berlin Sans FB';-inkscape-font-specification:'Berlin Sans FB, Normal';font-variant-ligatures:normal;font-variant-caps:normal;font-variant-numeric:normal;font-variant-east-asian:normal;stroke-width:0.264583"
         y="222.66391"
         x="65.244415"
         id="tspan9602"
         sodipodi:role="line">$ 400</tspan></text>
    <text
       xml:space="preserve"
       style="font-style:normal;font-variant:normal;font-weight:normal;font-stretch:normal;font-size:8.46667px;line-height:1.25;font-family:'Berlin Sans FB';-inkscape-font-specification:'Berlin Sans FB, Normal';font-variant-ligatures:normal;font-variant-caps:normal;font-variant-numeric:normal;font-variant-east-asian:normal;letter-spacing:0px;word-spacing:0px;stroke-width:0.264583"
       x="134.56047"
       y="244.13211"
       id="text9604-9"><tspan
         sodipodi:role="line"
         id="tspan9602-7"
         x="134.56047"
         y="244.13211"
         style="font-style:normal;font-variant:normal;font-weight:normal;font-stretch:normal;font-size:8.46667px;font-family:'Berlin Sans FB';-inkscape-font-specification:'Berlin Sans FB, Normal';font-variant-ligatures:normal;font-variant-caps:normal;font-variant-numeric:normal;font-variant-east-asian:normal;stroke-width:0.264583">contactar</tspan></text>
    <text
       xml:space="preserve"
       style="font-style:normal;font-variant:normal;font-weight:normal;font-stretch:normal;font-size:8.46667px;line-height:1.25;font-family:'Berlin Sans FB';-inkscape-font-specification:'Berlin Sans FB, Normal';font-variant-ligatures:normal;font-variant-caps:normal;font-variant-numeric:normal;font-variant-east-asian:normal;letter-spacing:0px;word-spacing:0px;stroke-width:0.264583"
       x="182.87376"
       y="222.93362"
       id="text9604-92"><tspan
         sodipodi:role="line"
         id="tspan9602-3"
         x="182.87376"
         y="222.93362"
         style="font-style:normal;font-variant:normal;font-weight:normal;font-stretch:normal;font-size:8.46667px;font-family:'Berlin Sans FB';-inkscape-font-specification:'Berlin Sans FB, Normal';font-variant-ligatures:normal;font-variant-caps:normal;font-variant-numeric:normal;font-variant-east-asian:normal;stroke-width:0.264583">$ 800</tspan></text>
    <text
       xml:space="preserve"
       style="font-style:normal;font-variant:normal;font-weight:normal;font-stretch:normal;font-size:8.46667px;line-height:1.25;font-family:'Berlin Sans FB';-inkscape-font-specification:'Berlin Sans FB, Normal';font-variant-ligatures:normal;font-variant-caps:normal;font-variant-numeric:normal;font-variant-east-asian:normal;letter-spacing:0px;word-spacing:0px;stroke-width:0.264583"
       x="182.87378"
       y="201.55568"
       id="text9604-0"><tspan
         sodipodi:role="line"
         id="tspan9602-38"
         x="182.87378"
         y="201.55568"
         style="font-style:normal;font-variant:normal;font-weight:normal;font-stretch:normal;font-size:8.46667px;font-family:'Berlin Sans FB';-inkscape-font-specification:'Berlin Sans FB, Normal';font-variant-ligatures:normal;font-variant-caps:normal;font-variant-numeric:normal;font-variant-east-asian:normal;stroke-width:0.264583">$ 600</tspan></text>
    <text
       xml:space="preserve"
       style="font-style:normal;font-variant:normal;font-weight:normal;font-stretch:normal;font-size:8.46667px;line-height:1.25;font-family:'Berlin Sans FB';-inkscape-font-specification:'Berlin Sans FB, Normal';font-variant-ligatures:normal;font-variant-caps:normal;font-variant-numeric:normal;font-variant-east-asian:normal;letter-spacing:0px;word-spacing:0px;stroke-width:0.264583"
       x="64.878555"
       y="202.11093"
       id="text9604-8"><tspan
         sodipodi:role="line"
         id="tspan9602-4"
         x="64.878555"
         y="202.11093"
         style="font-style:normal;font-variant:normal;font-weight:normal;font-stretch:normal;font-size:8.46667px;font-family:'Berlin Sans FB';-inkscape-font-specification:'Berlin Sans FB, Normal';font-variant-ligatures:normal;font-variant-caps:normal;font-variant-numeric:normal;font-variant-east-asian:normal;stroke-width:0.264583">$ 200</tspan></text>
    <g
       id="g9909">
      <path
         id="path2"
         d="m 129.01341,243.30316 c -0.60427,0.001 -1.20485,-0.0873 -1.77895,-0.26193 -0.26842,-0.0869 -0.56676,-0.0284 -0.77411,0.15175 l -1.12645,0.78673 c -1.20974,-0.56229 -2.19131,-1.47083 -2.79891,-2.59069 l 0.82735,-1.01773 c 0.20888,-0.19352 0.28359,-0.47878 0.19366,-0.73937 -0.18928,-0.53221 -0.28532,-1.08903 -0.28449,-1.64934 0,-0.40033 -0.35056,-0.72487 -0.78299,-0.72487 h -1.82698 c -0.43243,0 -0.78299,0.32454 -0.78299,0.72487 0.006,4.66839 4.09219,8.45153 9.13486,8.45686 0.43243,0 0.78299,-0.32454 0.78299,-0.72488 v -1.68653 c 0,-0.40033 -0.35056,-0.72487 -0.78299,-0.72487 z"
         style="fill:#04ffe8;fill-opacity:1;stroke-width:0.0235428" />
      <g
         id="g8"
         transform="matrix(0.2057374,0,0,0.19357335,118.93159,236.95824)"
         style="fill:#000000;fill-opacity:1">
	<path
   id="path4"
   d="m 51.063498,21.518878 c -0.700619,0 -1.26863,-0.558895 -1.26863,-1.248271 -0.01118,-8.957433 -7.388185,-16.2160619 -16.491701,-16.227062 -0.700618,0 -1.268629,-0.558896 -1.268629,-1.2482715 0,-0.6893754 0.568011,-1.2481545 1.268629,-1.2481545 10.504752,0.011 19.017661,8.3873031 19.028841,18.723488 0,0.689376 -0.567892,1.248271 -1.26851,1.248271 z"
   style="fill:#000000;fill-opacity:1;stroke-width:0.117972" />

	<path
   id="path6"
   d="m 40.914703,21.518878 c -0.700618,0 -1.268629,-0.558895 -1.268629,-1.248271 0,-3.446877 -2.839817,-6.241124 -6.342907,-6.241124 -0.700618,0 -1.268629,-0.558896 -1.268629,-1.248272 0,-0.689375 0.568011,-1.24827 1.268629,-1.24827 4.904446,0 8.880165,3.912038 8.880165,8.737666 0,0.689376 -0.568011,1.248271 -1.268629,1.248271 z"
   style="fill:#000000;fill-opacity:1;stroke-width:0.117972" />

</g>
    </g>
    <g
       transform="matrix(0.2057374,0,0,0.19357335,118.44079,236.5656)"
       id="g10">
</g>
    <g
       transform="matrix(0.2057374,0,0,0.19357335,118.44079,236.5656)"
       id="g12">
</g>
    <g
       transform="matrix(0.2057374,0,0,0.19357335,118.44079,236.5656)"
       id="g14">
</g>
    <g
       transform="matrix(0.2057374,0,0,0.19357335,118.44079,236.5656)"
       id="g16">
</g>
    <g
       transform="matrix(0.2057374,0,0,0.19357335,118.44079,236.5656)"
       id="g18">
</g>
    <g
       transform="matrix(0.2057374,0,0,0.19357335,118.44079,236.5656)"
       id="g20">
</g>
    <g
       transform="matrix(0.2057374,0,0,0.19357335,118.44079,236.5656)"
       id="g22">
</g>
    <g
       transform="matrix(0.2057374,0,0,0.19357335,118.44079,236.5656)"
       id="g24">
</g>
    <g
       transform="matrix(0.2057374,0,0,0.19357335,118.44079,236.5656)"
       id="g26">
</g>
    <g
       transform="matrix(0.2057374,0,0,0.19357335,118.44079,236.5656)"
       id="g28">
</g>
    <g
       transform="matrix(0.2057374,0,0,0.19357335,118.44079,236.5656)"
       id="g30">
</g>
    <g
       transform="matrix(0.2057374,0,0,0.19357335,118.44079,236.5656)"
       id="g32">
</g>
    <g
       transform="matrix(0.2057374,0,0,0.19357335,118.44079,236.5656)"
       id="g34">
</g>
    <g
       transform="matrix(0.2057374,0,0,0.19357335,118.44079,236.5656)"
       id="g36">
</g>
    <g
       transform="matrix(0.2057374,0,0,0.19357335,118.44079,236.5656)"
       id="g38">
</g>
    <text
       transform="matrix(0.74588806,0,0,0.6430361,57.337595,90.826311)"
       style="font-size:6.35px;line-height:1.25;font-family:'Britannic Bold';-inkscape-font-specification:'Britannic Bold, Normal';letter-spacing:0px;word-spacing:0px;white-space:pre;shape-inside:url(#rect9694);fill:#ffffff;fill-opacity:1;"
       id="text9692"
       xml:space="preserve"><tspan
         x="30.261719"
         y="265.75712"><tspan
           style="fill:#ffffff;fill-opacity:1">© Derechos Reservados</tspan></tspan></text>
    <text
       transform="scale(0.90066105,1.1102956)"
       id="text9700"
       y="118.51987"
       x="5.6682477"
       style="font-style:normal;font-variant:normal;font-weight:normal;font-stretch:normal;font-size:9.87778px;line-height:1.25;font-family:'Britannic Bold';-inkscape-font-specification:'Britannic Bold, Normal';font-variant-ligatures:normal;font-variant-caps:normal;font-variant-numeric:normal;font-variant-east-asian:normal;letter-spacing:0px;word-spacing:0px;fill:#ffbd1a;fill-opacity:1;stroke-width:0.31502"
       xml:space="preserve"><tspan
         style="font-style:normal;font-variant:normal;font-weight:normal;font-stretch:normal;font-size:9.87778px;font-family:'Britannic Bold';-inkscape-font-specification:'Britannic Bold, Normal';font-variant-ligatures:normal;font-variant-caps:normal;font-variant-numeric:normal;font-variant-east-asian:normal;fill:#ffbd1a;fill-opacity:1;stroke-width:0.31502"
         y="118.51987"
         x="5.6682477"
         id="tspan9698"
         sodipodi:role="line">¿Qué tipo de pagina hacen?</tspan></text>
    <text
       id="text9704"
       y="79.681473"
       x="280.96741"
       style="font-size:6.35px;line-height:1.25;font-family:'Britannic Bold';-inkscape-font-specification:'Britannic Bold, Normal';letter-spacing:0px;word-spacing:0px;stroke-width:0.264583"
       xml:space="preserve"><tspan
         style="stroke-width:0.264583"
         y="79.681473"
         x="280.96741"
         id="tspan9702"
         sodipodi:role="line" /></text>
    <text
       transform="translate(122.18205,-6.4645473)"
       style="font-size:6.35px;line-height:1.05;font-family:'Britannic Bold';-inkscape-font-specification:'Britannic Bold, Normal';letter-spacing:0px;word-spacing:0px;white-space:pre;shape-inside:url(#rect9708);opacity:1;fill:#e5e5e5;fill-opacity:1;"
       id="text9706"
       xml:space="preserve"><tspan
         x="13.603516"
         y="119.91899"><tspan
           style="fill:#e5e5e5;fill-opacity:1">• Informativa
</tspan></tspan><tspan
         x="13.603516"
         y="126.58649"><tspan
           style="fill:#e5e5e5;fill-opacity:1">
</tspan></tspan><tspan
         x="13.603516"
         y="133.25398"><tspan
           style="fill:#e5e5e5;fill-opacity:1">• Blog 
</tspan></tspan><tspan
         x="13.603516"
         y="139.92148"><tspan
           style="fill:#e5e5e5;fill-opacity:1">
</tspan></tspan><tspan
         x="13.603516"
         y="146.58897"><tspan
           style="fill:#e5e5e5;fill-opacity:1">• Empleo
</tspan></tspan><tspan
         x="13.603516"
         y="153.25647"><tspan
           style="fill:#e5e5e5;fill-opacity:1">
</tspan></tspan><tspan
         x="13.603516"
         y="159.92396"><tspan
           style="fill:#e5e5e5;fill-opacity:1">• Negocio</tspan></tspan></text>
    <path
       style="fill:none;stroke:#b2b2b2;stroke-width:0.671775;stroke-linecap:butt;stroke-linejoin:miter;stroke-miterlimit:4;stroke-dasharray:none;stroke-opacity:1"
       d="m 118.57617,100.91838 v 57.69584"
       id="path7070-4"
       sodipodi:nodetypes="cc" />
    <text
       style="font-family:'Britannic Bold';font-size:6.35px;line-height:1.25;letter-spacing:0px;word-spacing:0px;-inkscape-font-specification:'Britannic Bold, Normal';white-space:pre;shape-inside:url(#rect9928);"
       id="text9926"
       xml:space="preserve" />
  </g>
</svg>
