<?xml version="1.0" encoding="UTF-8" standalone="no"?>
<svg
   xmlns:dc="http://purl.org/dc/elements/1.1/"
   xmlns:cc="http://creativecommons.org/ns#"
   xmlns:rdf="http://www.w3.org/1999/02/22-rdf-syntax-ns#"
   xmlns:svg="http://www.w3.org/2000/svg"
   xmlns="http://www.w3.org/2000/svg"
   xmlns:xlink="http://www.w3.org/1999/xlink"
   xmlns:sodipodi="http://sodipodi.sourceforge.net/DTD/sodipodi-0.dtd"
   xmlns:inkscape="http://www.inkscape.org/namespaces/inkscape"
   width="800"
   height="1000"
   viewBox="0 0 211.66666 264.5833"
   version="1.1"
   id="svg8"
   inkscape:export-filename="C:\Users\Personal\Pictures\prueba.png"
   inkscape:export-xdpi="150"
   inkscape:export-ydpi="150"
   inkscape:version="1.0 (4035a4fb49, 2020-05-01)"
   sodipodi:docname="video seyne.svg">
  <defs
     id="defs2">
    <linearGradient
       inkscape:collect="always"
       id="linearGradient10604">
      <stop
         style="stop-color:#00d4b0;stop-opacity:1;"
         offset="0"
         id="stop10600" />
      <stop
         style="stop-color:#00d4b0;stop-opacity:0;"
         offset="1"
         id="stop10602" />
    </linearGradient>
    <rect
       x="43.582631"
       y="190.82125"
       width="128.39207"
       height="32.588814"
       id="rect10409" />
    <rect
       x="190.03598"
       y="177.47161"
       width="87.557898"
       height="45.153176"
       id="rect10403" />
    <rect
       x="49.864812"
       y="180.6127"
       width="111.50871"
       height="47.116358"
       id="rect10397" />
    <rect
       x="44.699364"
       y="101.33707"
       width="149.36806"
       height="37.480833"
       id="rect10199" />
    <rect
       x="230.43771"
       y="44.421728"
       width="152.69969"
       height="124.38084"
       id="rect10191" />
    <rect
       x="70.519493"
       y="64.13387"
       width="5.552716"
       height="10.272525"
       id="rect9928" />
    <rect
       x="13.604154"
       y="114.66359"
       width="93.285629"
       height="56.360067"
       id="rect9708" />
    <rect
       x="30.262302"
       y="259.86711"
       width="129.93355"
       height="19.989778"
       id="rect9694" />
    <rect
       x="118.27285"
       y="60.524604"
       width="167.12718"
       height="70.784079"
       id="rect7012" />
    <symbol
       id="Toilets">
      <title
         id="title1646">Toilets</title>
      <g
         id="g1658"
         style="stroke:none">
        <!-- Divider -->
        <rect
           id="rect1648"
           height="12.7"
           width="1.3229166"
           y="3.175"
           x="8.8635416"
           style="stroke-width:0.264583" />
        <!-- Woman -->
        <circle
           id="circle1650"
           r="1.0583333"
           cy="3.96875"
           cx="5.1593752"
           style="stroke-width:0.264583" />
        <path
           id="path1652"
           d="m 5.0270833,11.773958 v 3.704167 a 0.52916667,0.52916667 0 0 1 -1.0583333,0 V 11.773958 H 2.6458333 L 4.1010417,6.8791667 H 3.8364583 l -0.79375,2.778125 A 0.48180625,0.48180625 0 0 1 2.1166667,9.3927083 l 0.9260416,-3.175 A 1.508125,1.2170833 0 0 1 4.4979167,5.2916667 h 1.3229166 a 1.508125,1.2170833 0 0 1 1.4552084,0.9260416 l 0.9260416,3.175 A 0.48180625,0.48180625 0 0 1 7.2760417,9.6572917 l -0.79375,-2.778125 H 6.2177083 L 7.6729167,11.773958 H 6.35 v 3.704167 a 0.52916667,0.52916667 0 0 1 -1.0583333,0 v -3.704167 z"
           style="stroke-width:0.264583" />
        <!-- Man -->
        <circle
           id="circle1654"
           r="1.0583333"
           cy="3.96875"
           cx="13.890625"
           style="stroke-width:0.264583" />
        <path
           id="path1656"
           d="m 11.377083,6.6145833 v 3.4395837 a 0.463021,0.463021 0 0 0 0.926042,0 V 7.0114583 h 0.264583 v 8.4005207 a 0.5953125,0.5953125 0 0 0 1.190625,0 v -4.960937 h 0.264584 v 4.960937 a 0.5953125,0.5953125 0 0 0 1.190625,0 V 7.0114583 h 0.264583 v 3.0427087 a 0.463021,0.463021 0 0 0 0.926042,0 V 6.6145833 A 1.3229167,1.3229167 0 0 0 15.08125,5.2916667 H 12.7 a 1.3229167,1.3229167 0 0 0 -1.322917,1.3229166 z"
           style="stroke-width:0.264583" />
      </g>
    </symbol>
    <symbol
       id="Cashier">
      <title
         id="title1360">Cashier</title>
      <g
         id="g1366"
         style="fill:none;stroke-width:6">
        <circle
           id="circle1362"
           r="6.3499999"
           cy="9.5249996"
           cx="9.5249996"
           style="stroke-width:1.5875" />
        <path
           id="path1364"
           d="M 11.90625,7.9375 C 11.90625,6.8791667 10.847917,6.35 9.525,6.35 c -1.3229167,0 -2.38125,0.5291667 -2.38125,1.5875 0,1.0583333 1.0583333,1.4552083 2.38125,1.5875 1.322917,0.1322917 2.645833,0.2645833 2.645833,1.5875 0,1.322917 -1.322916,1.5875 -2.645833,1.5875 -1.3229167,0 -2.38125,-0.79375 -2.38125,-1.852083 M 9.525,4.4979167 V 14.552083"
           style="stroke-width:1.5875" />
      </g>
    </symbol>
    <symbol
       id="Cashier_Inv">
      <title
         id="title1369">Cashier</title>
      <rect
         id="rect1371"
         style="stroke:#ffffff;stroke-width:0.264583"
         ry="1.5875"
         height="18.785418"
         width="18.785418"
         y="0.13229166"
         x="0.13229166" />
      <g
         id="g1377"
         style="fill:none;stroke:#ffffff;stroke-width:6">
        <circle
           id="circle1373"
           r="6.3499999"
           cy="9.5249996"
           cx="9.5249996"
           style="stroke-width:1.5875" />
        <path
           id="path1375"
           d="M 11.90625,7.9375 C 11.90625,6.8791667 10.847917,6.35 9.525,6.35 c -1.3229167,0 -2.38125,0.5291667 -2.38125,1.5875 0,1.0583333 1.0583333,1.4552083 2.38125,1.5875 1.322917,0.1322917 2.645833,0.2645833 2.645833,1.5875 0,1.322917 -1.322916,1.5875 -2.645833,1.5875 -1.3229167,0 -2.38125,-0.79375 -2.38125,-1.852083 M 9.525,4.4979167 V 14.552083"
           style="stroke-width:1.5875" />
      </g>
    </symbol>
    <linearGradient
       inkscape:collect="always"
       xlink:href="#linearGradient10604"
       id="linearGradient10606"
       x1="83.631538"
       y1="80.49044"
       x2="123.2878"
       y2="26.699268"
       gradientUnits="userSpaceOnUse" />
  </defs>
  <sodipodi:namedview
     id="base"
     pagecolor="#ffffff"
     bordercolor="#666666"
     borderopacity="1.0"
     inkscape:pageopacity="0.0"
     inkscape:pageshadow="2"
     inkscape:zoom="0.91740478"
     inkscape:cx="499.13688"
     inkscape:cy="209.99442"
     inkscape:document-units="mm"
     inkscape:current-layer="layer1"
     inkscape:document-rotation="0"
     showgrid="false"
     objecttolerance="1"
     units="px"
     inkscape:window-width="1366"
     inkscape:window-height="745"
     inkscape:window-x="-8"
     inkscape:window-y="-8"
     inkscape:window-maximized="1"
     showguides="false" />
  <metadata
     id="metadata5">
    <rdf:RDF>
      <cc:Work
         rdf:about="">
        <dc:format>image/svg+xml</dc:format>
        <dc:type
           rdf:resource="http://purl.org/dc/dcmitype/StillImage" />
        <dc:title />
      </cc:Work>
    </rdf:RDF>
  </metadata>
  <g
     inkscape:label="Capa 1"
     inkscape:groupmode="layer"
     id="layer1">
    <g
       id="g10182">
      <rect
         ry="0"
         y="-0.11499975"
         x="0.11272271"
         height="264.37866"
         width="211.41989"
         id="rect10"
         style="fill:#10b5a2;fill-opacity:1;fill-rule:evenodd;stroke-width:0.27623" />
    </g>
    <path
       style="fill:url(#linearGradient10606);fill-opacity:1;stroke:none;stroke-width:0.264583px;stroke-linecap:butt;stroke-linejoin:miter;stroke-opacity:1"
       d="M 1.4051444,4.7345032 212.47777,3.7627782 2.0585735,266.49454 Z"
       id="path835"
       sodipodi:nodetypes="cccc" />
    <g
       id="g10"
       transform="matrix(0.2057374,0,0,0.19357335,118.44079,236.5656)" />
    <g
       id="g12"
       transform="matrix(0.2057374,0,0,0.19357335,118.44079,236.5656)" />
    <g
       id="g14"
       transform="matrix(0.2057374,0,0,0.19357335,118.44079,236.5656)" />
    <g
       id="g16"
       transform="matrix(0.2057374,0,0,0.19357335,118.44079,236.5656)" />
    <g
       id="g18"
       transform="matrix(0.2057374,0,0,0.19357335,118.44079,236.5656)" />
    <g
       id="g20"
       transform="matrix(0.2057374,0,0,0.19357335,118.44079,236.5656)" />
    <g
       id="g22"
       transform="matrix(0.2057374,0,0,0.19357335,118.44079,236.5656)" />
    <g
       id="g24"
       transform="matrix(0.2057374,0,0,0.19357335,118.44079,236.5656)" />
    <g
       id="g26"
       transform="matrix(0.2057374,0,0,0.19357335,118.44079,236.5656)" />
    <g
       id="g28"
       transform="matrix(0.2057374,0,0,0.19357335,118.44079,236.5656)" />
    <g
       id="g30"
       transform="matrix(0.2057374,0,0,0.19357335,118.44079,236.5656)" />
    <g
       id="g32"
       transform="matrix(0.2057374,0,0,0.19357335,118.44079,236.5656)" />
    <g
       id="g34"
       transform="matrix(0.2057374,0,0,0.19357335,118.44079,236.5656)" />
    <g
       id="g36"
       transform="matrix(0.2057374,0,0,0.19357335,118.44079,236.5656)" />
    <g
       id="g38"
       transform="matrix(0.2057374,0,0,0.19357335,118.44079,236.5656)" />
    <text
       xml:space="preserve"
       style="font-size:6.35px;line-height:1.25;font-family:'Britannic Bold';-inkscape-font-specification:'Britannic Bold, Normal';letter-spacing:0px;word-spacing:0px;stroke-width:0.264583"
       x="280.96741"
       y="79.681473"
       id="text9704"><tspan
         sodipodi:role="line"
         id="tspan9702"
         x="280.96741"
         y="79.681473"
         style="stroke-width:0.264583" /></text>
    <text
       xml:space="preserve"
       id="text9926"
       style="font-family:'Britannic Bold';font-size:6.35px;line-height:1.25;letter-spacing:0px;word-spacing:0px;-inkscape-font-specification:'Britannic Bold, Normal';white-space:pre;shape-inside:url(#rect9928);" />
    <g
       id="g10078"
       fill-rule="evenodd"
       transform="matrix(0.07920228,0,0,0.06592362,89.295638,79.498556)">
      <path
         id="path10072"
         d="M 440.58984,206.67578 H 99.417969 L 427.11719,111.74609 c 2.54687,-0.73828 4.69531,-2.46093 5.97656,-4.78125 1.28125,-2.32421 1.58594,-5.05859 0.84766,-7.605465 L 416.79297,40.160156 C 409.94141,16.515625 387.92578,0 363.25391,0 358.05469,0 352.875,0.738281 347.85156,2.191406 L 40.175781,91.320312 C 25.945312,95.441406 14.152344,104.90234 6.960938,117.95313 c -7.1875,13.05078 -8.875,28.07812 -4.753907,42.30468 l 16.753907,57.83594 V 456.34766 C 18.960938,487.03516 43.925781,512 74.609375,512 H 194.77344 c 5.52344,0 10,-4.47656 10,-10 0,-5.52344 -4.47656,-10 -10,-10 H 74.613281 C 54.953125,492 38.960938,476.00781 38.960938,456.34766 V 320.26172 h 51.230468 0.02344 0.01953 78.312504 0.0234 0.0234 78.3125 0.0234 0.0234 78.3125 0.0234 0.0195 105.28125 V 456.34766 C 430.58984,476.00781 414.59766,492 394.9375,492 H 274.77344 c -5.51953,0 -10,4.47656 -10,10 0,5.52344 4.48047,10 10,10 H 394.9375 c 30.6875,0 55.65234,-24.96484 55.65234,-55.65234 V 216.67578 c 0,-5.52344 -4.47656,-10 -10,-10 z m -176.33203,93.58594 42.48828,-73.58594 h 55.26172 l -42.48437,73.58594 z m -78.35937,0 42.48828,-73.58594 h 55.26172 l -42.48438,73.58594 z m -78.35547,0 42.48437,-73.58594 h 55.26563 l -42.48828,73.58594 z M 144.72266,170.80469 73.574219,102.46875 126.88281,87.027344 c 0.375,0.546875 0.8125,1.0625 1.3125,1.542968 l 71.14844,68.335938 -53.30859,15.44141 c -0.375,-0.54688 -0.81641,-1.06641 -1.3125,-1.54297 z m 134,-125.839846 71.14843,68.335936 -53.30859,15.44141 c -0.375,-0.54688 -0.8125,-1.06641 -1.3125,-1.54297 l -71.14844,-68.335939 53.3086,-15.441406 c 0.375,0.546875 0.8125,1.0625 1.3125,1.542969 z m -75.26563,21.804687 71.14844,68.332029 -53.30859,15.44531 c -0.375,-0.54687 -0.8125,-1.0664 -1.3125,-1.54296 L 148.83594,80.667969 202.14453,65.226562 c 0.37891,0.542969 0.81641,1.0625 1.3125,1.542969 z M 353.41797,21.402344 C 356.62891,20.472656 359.9375,20 363.25391,20 c 15.82421,0 29.9375,10.578125 34.32812,25.726562 l 14.36719,49.589844 -40.1211,11.621094 c -0.3789,-0.54688 -0.8164,-1.0625 -1.3164,-1.54297 L 299.36719,37.0625 Z M 24.480469,127.60156 c 4.609375,-8.37109 12.160156,-14.43359 21.261719,-17.07031 l 5.875,-1.70313 c 0.378906,0.54688 0.816406,1.06641 1.3125,1.54297 l 71.148442,68.33594 -88.292974,25.57813 -14.367187,-49.58985 c -2.636719,-9.09765 -1.546875,-18.71875 3.0625,-27.09375 z m 14.480469,99.07422 H 126.93359 L 84.449219,300.26172 H 38.960938 Z m 303.656252,73.58594 42.48437,-73.58594 h 45.48828 v 73.58594 z m 0,0" />
      <path
         id="path10074"
         d="m 303.92187,405.11328 c 0,-3.57422 -1.90625,-6.875 -5,-8.66016 l -87.85546,-50.72265 c -3.09375,-1.78516 -6.90625,-1.78516 -10,0 -3.09375,1.78515 -5,5.08594 -5,8.66015 v 101.44532 c 0,3.57031 1.90625,6.87109 5,8.65625 1.54687,0.89453 3.27343,1.34375 5,1.34375 1.72656,0 3.45312,-0.44922 5,-1.34375 l 87.85546,-50.71875 c 3.09375,-1.78516 5,-5.08594 5,-8.66016 z m -87.85546,33.40234 v -66.80468 l 57.85546,33.40234 z m 0,0" />
      <path
         id="path10076"
         d="m 234.77344,492 c -5.50782,0 -10,4.49219 -10,10 0,5.50781 4.49218,10 10,10 5.51172,0 10,-4.49219 10,-10 0,-5.50781 -4.48828,-10 -10,-10 z m 0,0" />
    </g>
    <text
       xml:space="preserve"
       style="font-style:normal;font-variant:normal;font-weight:bold;font-stretch:normal;font-size:22.5778px;line-height:1.25;font-family:'Berlin Sans FB';-inkscape-font-specification:'Berlin Sans FB, Bold';font-variant-ligatures:normal;font-variant-caps:normal;font-variant-numeric:normal;font-variant-east-asian:normal;letter-spacing:0.322792px;word-spacing:0px;fill:#e45300;fill-opacity:1;stroke-width:0.264583"
       x="34.564487"
       y="23.321407"
       id="text10104"><tspan
         sodipodi:role="line"
         id="tspan10102"
         x="34.564487"
         y="23.321407"
         style="font-style:normal;font-variant:normal;font-weight:bold;font-stretch:normal;font-size:22.5778px;font-family:'Berlin Sans FB';-inkscape-font-specification:'Berlin Sans FB, Bold';font-variant-ligatures:normal;font-variant-caps:normal;font-variant-numeric:normal;font-variant-east-asian:normal;fill:#e45300;fill-opacity:1;stroke-width:0.264583">Video - Seyne</tspan></text>
    <g
       id="g10179"
       transform="matrix(0.07363325,0,0,0.06720293,28.924787,135.55435)">
      <path
         id="path10106"
         d="M 491.719,135.652 C 486.061,114.14 469.389,97.197 448.221,91.447 409.853,80.999 295.348,80.999 256,80.999 c -39.348,0 -153.853,0 -192.221,10.448 -21.168,5.75 -37.84,22.693 -43.498,44.205 C 10,174.644 10,255.999 10,255.999 c 0,0 0,81.354 10.281,120.347 5.658,21.512 22.33,38.455 43.498,44.205 38.368,10.448 134.221,10.448 192.221,10.448 58,0 153.853,0 192.221,-10.448 21.168,-5.75 37.84,-22.693 43.498,-44.205 C 502,337.353 502,255.999 502,255.999 c 0,0 0,-81.355 -10.281,-120.347 z"
         style="fill:#ff5a5a" />
      <path
         id="path10108"
         d="m 258.503,91.003 c -0.009,0 -0.018,0 -0.027,0 l -0.725,-0.002 c -5.515,-0.015 -9.975,-4.491 -9.973,-10.003 0,-0.008 0,-0.016 0,-0.024 0.015,-5.514 4.49,-9.973 10,-9.973 0.01,0 0.018,0 0.028,0 l 0.724,0.002 c 5.515,0.015 9.975,4.491 9.973,10.003 0,0.008 0,0.016 0,0.024 -0.015,5.514 -4.49,9.973 -10,9.973 z" />
      <path
         id="path10110"
         d="m 256,440.999 c -6.336,0 -155.641,-0.123 -194.849,-10.8 C 36.544,423.515 17.175,403.854 10.609,378.889 0.121,339.107 0,259.374 0,255.999 0,252.624 0.121,172.891 10.611,133.103 17.175,108.144 36.544,88.482 61.157,81.797 c 25.901,-7.053 98.771,-9.571 155.34,-10.44 5.508,-0.048 10.068,4.323 10.153,9.845 0.084,5.522 -4.323,10.068 -9.845,10.152 -78.34,1.205 -131.752,4.664 -150.399,9.742 -17.736,4.818 -31.703,19.033 -36.455,37.1 C 20.12,175.484 20,255.198 20,255.999 c 0,0.8 0.12,80.514 9.95,117.797 4.753,18.073 18.72,32.288 36.45,37.104 36.654,9.981 188.075,10.099 189.6,10.099 1.525,0 152.946,-0.117 189.594,-10.097 17.736,-4.818 31.703,-19.033 36.455,-37.1 C 491.88,336.513 492,256.799 492,255.998 c 0,-0.8 -0.12,-80.514 -9.95,-117.797 -4.753,-18.073 -18.72,-32.288 -36.45,-37.104 -18.247,-4.969 -70.125,-8.404 -146.085,-9.674 -5.522,-0.092 -9.924,-4.644 -9.832,-10.166 0.092,-5.522 4.676,-9.907 10.166,-9.832 54.88,0.917 125.625,3.462 151,10.373 24.607,6.684 43.976,26.345 50.542,51.31 10.488,39.783 10.609,119.516 10.609,122.891 0,3.375 -0.121,83.108 -10.611,122.896 -6.564,24.959 -25.933,44.621 -50.546,51.306 C 411.641,440.876 262.336,440.999 256,440.999 Z" />
      <polygon
         id="polygon10112"
         points="208.084,185.521 332.084,257.521 208.084,329.521 "
         style="fill:#ffffff" />
      <path
         id="path10114"
         d="m 58,331.021 c -5.523,0 -10,-4.477 -10,-10 v -81.5 c 0,-5.523 4.477,-10 10,-10 5.523,0 10,4.477 10,10 v 81.5 c 0,5.523 -4.477,10 -10,10 z" />
      <path
         id="path10116"
         d="m 58,204.139 c -5.523,0 -10,-4.477 -10,-10 v -0.118 c 0,-5.523 4.477,-10 10,-10 5.523,0 10,4.477 10,10 v 0.118 c 0,5.523 -4.477,10 -10,10 z" />
      <path
         id="path10118"
         d="m 208.084,339.521 c -1.723,0 -3.445,-0.444 -4.989,-1.333 -3.1,-1.785 -5.011,-5.089 -5.011,-8.667 v -144 c 0,-3.577 1.911,-6.882 5.011,-8.667 3.1,-1.785 6.917,-1.778 10.011,0.019 l 124,72 c 3.082,1.79 4.979,5.084 4.979,8.648 0,3.564 -1.896,6.858 -4.979,8.648 l -124,72 c -1.552,0.902 -3.287,1.352 -5.022,1.352 z m 10,-136.63 v 109.26 l 94.085,-54.63 z" />
      <g
         id="g10120" />
      <g
         id="g10122" />
      <g
         id="g10124" />
      <g
         id="g10126" />
      <g
         id="g10128" />
      <g
         id="g10130" />
      <g
         id="g10132" />
      <g
         id="g10134" />
      <g
         id="g10136" />
      <g
         id="g10138" />
      <g
         id="g10140" />
      <g
         id="g10142" />
      <g
         id="g10144" />
      <g
         id="g10146" />
      <g
         id="g10148" />
    </g>
    <text
       xml:space="preserve"
       id="text10189"
       style="font-style:normal;font-variant:normal;font-weight:normal;font-stretch:normal;font-size:7.76111px;line-height:1.15;font-family:'Berlin Sans FB';-inkscape-font-specification:'Berlin Sans FB, Normal';font-variant-ligatures:normal;font-variant-caps:normal;font-variant-numeric:normal;font-variant-east-asian:normal;text-align:center;letter-spacing:0px;word-spacing:0px;white-space:pre;shape-inside:url(#rect10191)"
       transform="translate(-194.56886,-20.075923)"
       x="73.741928"
       y="0"><tspan
         x="306.78711"
         y="51.330762"><tspan
           style="font-style:normal;font-variant:normal;font-weight:normal;font-stretch:normal;font-size:7.76111px;font-family:'Berlin Sans FB';-inkscape-font-specification:'Berlin Sans FB, Normal';font-variant-ligatures:normal;font-variant-caps:normal;font-variant-numeric:normal;font-variant-east-asian:normal;text-align:center;text-anchor:middle">
</tspan></tspan><tspan
         x="242.00761"
         y="60.25604"><tspan
           style="font-style:normal;font-variant:normal;font-weight:normal;font-stretch:normal;font-size:7.76111px;font-family:'Berlin Sans FB';-inkscape-font-specification:'Berlin Sans FB, Normal';font-variant-ligatures:normal;font-variant-caps:normal;font-variant-numeric:normal;font-variant-east-asian:normal;text-align:center;text-anchor:middle">Si tienes un trabajo sobre un video, para
</tspan></tspan><tspan
         x="244.88013"
         y="69.181318"><tspan
           style="font-style:normal;font-variant:normal;font-weight:normal;font-stretch:normal;font-size:7.76111px;font-family:'Berlin Sans FB';-inkscape-font-specification:'Berlin Sans FB, Normal';font-variant-ligatures:normal;font-variant-caps:normal;font-variant-numeric:normal;font-variant-east-asian:normal;text-align:center;text-anchor:middle">un trabajo escolar o de negocios, y a lo
</tspan></tspan><tspan
         x="232.85951"
         y="78.106596"><tspan
           style="font-style:normal;font-variant:normal;font-weight:normal;font-stretch:normal;font-size:7.76111px;font-family:'Berlin Sans FB';-inkscape-font-specification:'Berlin Sans FB, Normal';font-variant-ligatures:normal;font-variant-caps:normal;font-variant-numeric:normal;font-variant-east-asian:normal;text-align:center;text-anchor:middle">mejor es publicidad. Pero necesitas que editen
</tspan></tspan><tspan
         x="243.97821"
         y="87.031873"><tspan
           style="font-style:normal;font-variant:normal;font-weight:normal;font-stretch:normal;font-size:7.76111px;font-family:'Berlin Sans FB';-inkscape-font-specification:'Berlin Sans FB, Normal';font-variant-ligatures:normal;font-variant-caps:normal;font-variant-numeric:normal;font-variant-east-asian:normal;text-align:center;text-anchor:middle">el video para tenerlo bonito e intuitivo.
</tspan></tspan></text>
    <path
       style="fill:none;stroke:#444444;stroke-width:0.765;stroke-linecap:butt;stroke-linejoin:miter;stroke-miterlimit:4;stroke-dasharray:none;stroke-opacity:1"
       d="M 4.3469034,132.7545 H 208.40922"
       id="path10195" />
    <text
       xml:space="preserve"
       id="text10197"
       style="font-style:normal;font-variant:normal;font-weight:normal;font-stretch:normal;font-size:8.46667px;line-height:1.25;font-family:'Berlin Sans FB';-inkscape-font-specification:'Berlin Sans FB, Normal';font-variant-ligatures:normal;font-variant-caps:normal;font-variant-numeric:normal;font-variant-east-asian:normal;text-align:center;letter-spacing:0.0132292px;word-spacing:0px;white-space:pre;shape-inside:url(#rect10199);fill:#000000;fill-opacity:1;"
       x="56.801186"
       y="0"
       transform="translate(-12.560977,19.243968)"><tspan
         x="49.341938"
         y="109.2982"><tspan
           style="font-style:normal;font-variant:normal;font-weight:normal;font-stretch:normal;font-size:8.46667px;font-family:'Berlin Sans FB';-inkscape-font-specification:'Berlin Sans FB, Normal';font-variant-ligatures:normal;font-variant-caps:normal;font-variant-numeric:normal;font-variant-east-asian:normal;text-align:center;text-anchor:middle;fill:#000000;fill-opacity:1">SEYNE corporation te ofrece ese servicio</tspan></tspan></text>
    <g
       id="g10393"
       transform="matrix(0.06990116,0,0,0.06335721,146.56043,137.92242)">
      <g
         id="g10207">
        <path
           id="path10203"
           d="m 344,128 v 198.228 c 9.815,8.693 10.725,23.696 2.032,33.511 -0.636,0.718 -1.314,1.397 -2.032,2.032 v 9.605 c 14.569,6.351 23.992,20.73 24,36.623 v 8 h 3.377 c 8.805,-20.226 32.339,-29.485 52.566,-20.68 9.26,4.031 16.649,11.42 20.68,20.68 H 472 V 128 Z"
           style="fill:#dfdeed" />
        <path
           id="path10205"
           d="m 128,344 c 0.014,-6.793 2.924,-13.257 8,-17.772 V 128 H 8 v 288 h 27.377 c 8.805,-20.226 32.339,-29.485 52.566,-20.68 9.26,4.031 16.649,11.42 20.68,20.68 H 112 v -8 c 0.008,-15.893 9.431,-30.272 24,-36.623 v -9.605 c -5.076,-4.515 -7.986,-10.979 -8,-17.772 z"
           style="fill:#dfdeed" />
      </g>
      <path
         id="path10209"
         d="m 136,8 v 318.228 c 5.702,-5.215 13.582,-7.335 21.131,-5.683 12.952,2.828 21.158,15.62 18.33,28.572 -2.409,11.028 -12.174,18.888 -23.461,18.883 22.091,0 40,17.909 40,40 0,-26.51 21.49,-48 48,-48 26.51,0 48,21.49 48,48 0,-22.091 17.909,-40 40,-40 -13.257,0.005 -24.008,-10.737 -24.013,-23.994 -0.005,-11.287 7.855,-21.052 18.882,-23.46 7.549,-1.652 15.429,0.467 21.131,5.683 V 8 Z"
         style="fill:#92b1f9" />
      <circle
         id="circle10211"
         r="32"
         cy="328"
         cx="240"
         style="fill:#f73445" />
      <g
         id="g10217">
        <circle
           id="circle10213"
           r="24"
           cy="368"
           cx="72"
           style="fill:#fed966" />
        <circle
           id="circle10215"
           r="24"
           cy="368"
           cx="408"
           style="fill:#fed966" />
      </g>
      <path
         id="path10219"
         d="m 240,360 c 26.51,0 48,21.49 48,48 v 64 0 h -96 v 0 -64 c 0,-26.51 21.49,-48 48,-48 z"
         style="fill:#f73445" />
      <g
         id="g10235">
        <path
           id="path10221"
           d="m 72,392 c 22.091,0 40,17.909 40,40 v 40 0 H 32 v 0 -40 c 0,-22.091 17.909,-40 40,-40 z"
           style="fill:#fed966" />
        <path
           id="path10223"
           d="m 152,368 c 22.091,0 40,17.909 40,40 v 64 0 h -80 v 0 -64 c 0,-22.091 17.909,-40 40,-40 z"
           style="fill:#fed966" />
        <circle
           id="circle10225"
           r="24"
           cy="344"
           cx="152"
           style="fill:#fed966" />
        <path
           id="path10227"
           d="m 408,392 c 22.091,0 40,17.909 40,40 v 40 0 h -80 v 0 -40 c 0,-22.091 17.909,-40 40,-40 z"
           style="fill:#fed966" />
        <path
           id="path10229"
           d="m 328,368 c 22.091,0 40,17.909 40,40 v 64 0 h -80 v 0 -64 c 0,-22.091 17.909,-40 40,-40 z"
           style="fill:#fed966" />
        <circle
           id="circle10231"
           r="24"
           cy="344"
           cx="328"
           style="fill:#fed966" />
        <path
           id="path10233"
           d="m 192,40 h 96 v 64 h -96 z"
           style="fill:#fed966" />
      </g>
      <path
         id="path10237"
         d="m 168,160 h 16 v 16 h -16 z" />
      <path
         id="path10239"
         d="m 168,192 h 16 v 16 h -16 z" />
      <path
         id="path10241"
         d="m 168,224 h 16 v 16 h -16 z" />
      <path
         id="path10243"
         d="m 168,256 h 16 v 16 h -16 z" />
      <path
         id="path10245"
         d="m 200,160 h 16 v 16 h -16 z" />
      <path
         id="path10247"
         d="m 200,192 h 16 v 16 h -16 z" />
      <path
         id="path10249"
         d="m 200,224 h 16 v 16 h -16 z" />
      <path
         id="path10251"
         d="m 200,256 h 16 v 16 h -16 z" />
      <path
         id="path10253"
         d="m 232,160 h 16 v 16 h -16 z" />
      <path
         id="path10255"
         d="m 232,192 h 16 v 16 h -16 z" />
      <path
         id="path10257"
         d="m 232,224 h 16 v 16 h -16 z" />
      <path
         id="path10259"
         d="m 232,256 h 16 v 16 h -16 z" />
      <path
         id="path10261"
         d="m 264,160 h 16 v 16 h -16 z" />
      <path
         id="path10263"
         d="m 200,128 h 16 v 16 h -16 z" />
      <path
         id="path10265"
         d="m 232,128 h 16 v 16 h -16 z" />
      <path
         id="path10267"
         d="m 264,128 h 16 v 16 h -16 z" />
      <path
         id="path10269"
         d="m 264,192 h 16 v 16 h -16 z" />
      <path
         id="path10271"
         d="m 264,224 h 16 v 16 h -16 z" />
      <path
         id="path10273"
         d="m 264,256 h 16 v 16 h -16 z" />
      <path
         id="path10275"
         d="m 296,160 h 16 v 16 h -16 z" />
      <path
         id="path10277"
         d="m 296,192 h 16 v 16 h -16 z" />
      <path
         id="path10279"
         d="m 296,224 h 16 v 16 h -16 z" />
      <path
         id="path10281"
         d="m 296,256 h 16 v 16 h -16 z" />
      <path
         id="path10283"
         d="M 472,120 H 352 V 8 C 352.003,3.584 348.425,0.003 344.009,0 344.006,0 344.003,0 344,0 H 136 c -4.416,-0.003 -7.997,3.575 -8,7.991 0,0.003 0,0.006 0,0.009 V 120 H 8 c -4.416,-0.003 -7.997,3.575 -8,7.991 0,0.003 0,0.006 0,0.009 v 288 c -0.003,4.416 3.575,7.997 7.991,8 0.003,0 0.006,0 0.009,0 h 16.723 c -0.464,2.642 -0.706,5.318 -0.723,8 v 40 c -0.003,4.416 3.575,7.997 7.991,8 0.003,0 0.006,0 0.009,0 h 416 c 4.416,0.003 7.997,-3.575 8,-7.991 0,-0.003 0,-0.006 0,-0.009 v -40 c -0.017,-2.682 -0.258,-5.358 -0.723,-8 H 472 c 4.416,0.003 7.997,-3.575 8,-7.991 0,-0.003 0,-0.006 0,-0.009 V 128 c 0.003,-4.416 -3.575,-7.997 -7.991,-8 -0.003,0 -0.006,0 -0.009,0 z M 344,344 c 0,8.837 -7.163,16 -16,16 -8.837,0 -16,-7.163 -16,-16 0,-8.837 7.163,-16 16,-16 8.832,0.011 15.989,7.168 16,16 z M 152,328 c 8.837,0 16,7.163 16,16 0,8.837 -7.163,16 -16,16 -8.837,0 -16,-7.163 -16,-16 0.011,-8.832 7.168,-15.989 16,-16 z M 104,464 H 40 v -32 c 0,-17.673 14.327,-32 32,-32 17.673,0 32,14.327 32,32 z M 56,368 c 0,-8.837 7.163,-16 16,-16 8.837,0 16,7.163 16,16 0,8.837 -7.163,16 -16,16 -8.832,-0.011 -15.989,-7.168 -16,-16 z m 49.212,29.425 c -3.017,-2.91 -6.4,-5.414 -10.064,-7.449 12.202,-12.784 11.731,-33.04 -1.053,-45.243 -12.784,-12.202 -33.04,-11.731 -45.243,1.053 -11.803,12.365 -11.803,31.824 0,44.189 -7.636,4.238 -13.98,10.467 -18.358,18.024 H 16 V 136 h 112 v 187.056 c -10.986,12.327 -10.615,31.039 0.852,42.92 -12,6.637 -20.599,18.077 -23.64,31.449 z M 184,464 h -64 v -56 c 0,-17.673 14.327,-32 32,-32 17.673,0 32,14.327 32,32 z m 96,0 h -80 v -56 c 0,-22.091 17.909,-40 40,-40 22.091,0 40,17.909 40,40 z M 216,328 c 0,-13.255 10.745,-24 24,-24 13.255,0 24,10.745 24,24 0,13.255 -10.745,24 -24,24 -13.249,-0.014 -23.986,-10.751 -24,-24 z m 72.722,52.495 c -5.357,-9.444 -13.327,-17.139 -22.953,-22.16 16.897,-14.232 19.057,-39.467 4.826,-56.364 -14.232,-16.897 -39.467,-19.057 -56.364,-4.826 -16.897,14.231 -19.057,39.467 -4.826,56.364 1.468,1.743 3.082,3.357 4.826,4.826 -9.626,5.021 -17.597,12.716 -22.953,22.16 -4.206,-6 -9.722,-10.965 -16.13,-14.519 12.265,-12.547 12.037,-32.662 -0.511,-44.927 -8.079,-7.897 -19.744,-10.91 -30.637,-7.913 V 16 h 192 v 297.136 c -2.607,-0.719 -5.296,-1.101 -8,-1.136 -17.626,-0.047 -31.953,14.204 -32,31.831 -0.022,8.248 3.151,16.185 8.852,22.145 -6.408,3.554 -11.924,8.519 -16.13,14.519 z M 360,432 v 32 h -64 v -56 c 0,-17.673 14.327,-32 32,-32 17.673,0 32,14.327 32,32 z m 80,32 h -64 v -32 c 0,-17.673 14.327,-32 32,-32 17.673,0 32,14.327 32,32 z m -48,-96 c 0,-8.837 7.163,-16 16,-16 8.837,0 16,7.163 16,16 0,8.837 -7.163,16 -16,16 -8.832,-0.011 -15.989,-7.168 -16,-16 z m 72,40 h -14.494 c -4.377,-7.557 -10.722,-13.786 -18.358,-18.024 12.202,-12.784 11.731,-33.04 -1.053,-45.243 -12.784,-12.202 -33.04,-11.731 -45.243,1.053 -11.803,12.365 -11.803,31.824 0,44.189 -3.664,2.035 -7.048,4.539 -10.064,7.449 -3.04,-13.372 -11.64,-24.812 -23.64,-31.449 11.467,-11.881 11.839,-30.593 0.853,-42.92 V 136 h 112 z" />
      <path
         id="path10285"
         d="m 376,184 h 16 v 128 h -16 z" />
      <path
         id="path10287"
         d="m 424,184 h 16 v 128 h -16 z" />
      <path
         id="path10289"
         d="M 40,184 H 56 V 312 H 40 Z" />
      <path
         id="path10291"
         d="m 88,184 h 16 V 312 H 88 Z" />
      <path
         id="path10293"
         d="m 192,112 h 96 c 4.416,0.003 7.997,-3.575 8,-7.991 0,-0.003 0,-0.006 0,-0.009 V 40 c 0.003,-4.416 -3.575,-7.997 -7.991,-8 -0.003,0 -0.006,0 -0.009,0 h -96 c -4.416,-0.003 -7.997,3.575 -8,7.991 0,0.003 0,0.006 0,0.009 v 64 c -0.003,4.416 3.575,7.997 7.991,8 0.003,0 0.006,0 0.009,0 z m 8,-64 h 80 v 48 h -80 z" />
      <g
         id="g10295" />
      <g
         id="g10297" />
      <g
         id="g10299" />
      <g
         id="g10301" />
      <g
         id="g10303" />
      <g
         id="g10305" />
      <g
         id="g10307" />
      <g
         id="g10309" />
      <g
         id="g10311" />
      <g
         id="g10313" />
      <g
         id="g10315" />
      <g
         id="g10317" />
      <g
         id="g10319" />
      <g
         id="g10321" />
      <g
         id="g10323" />
    </g>
    <text
       xml:space="preserve"
       id="text10395"
       style="font-style:normal;font-variant:normal;font-weight:normal;font-stretch:normal;font-size:6.35px;line-height:1.25;font-family:'Berlin Sans FB';-inkscape-font-specification:'Berlin Sans FB, Normal';font-variant-ligatures:normal;font-variant-caps:normal;font-variant-numeric:normal;font-variant-east-asian:normal;letter-spacing:0px;word-spacing:0px;white-space:pre;shape-inside:url(#rect10397);"
       transform="translate(-20.417089,-12.657215)"><tspan
         x="49.865234"
         y="186.58351"><tspan
           style="font-style:normal;font-variant:normal;font-weight:normal;font-stretch:normal;font-size:6.35px;font-family:'Berlin Sans FB';-inkscape-font-specification:'Berlin Sans FB, Normal';font-variant-ligatures:normal;font-variant-caps:normal;font-variant-numeric:normal;font-variant-east-asian:normal">Video Publico</tspan></tspan></text>
    <text
       xml:space="preserve"
       id="text10401"
       style="font-size:6.35px;line-height:1.25;font-family:'Berlin Sans FB';-inkscape-font-specification:'Berlin Sans FB, Normal';letter-spacing:0px;word-spacing:0px;white-space:pre;shape-inside:url(#rect10403);font-weight:normal;font-style:normal;font-stretch:normal;font-variant:normal;font-variant-ligatures:normal;font-variant-caps:normal;font-variant-numeric:normal;font-variant-east-asian:normal;"
       transform="translate(-45.153176,-8.6379989)"><tspan
         x="190.03516"
         y="183.44093"><tspan
           style="font-style:normal;font-variant:normal;font-weight:normal;font-stretch:normal;font-size:6.35px;font-family:'Berlin Sans FB';-inkscape-font-specification:'Berlin Sans FB, Normal';font-variant-ligatures:normal;font-variant-caps:normal;font-variant-numeric:normal;font-variant-east-asian:normal">Video Privado</tspan></tspan></text>
    <text
       xml:space="preserve"
       id="text10407"
       style="font-style:normal;font-variant:normal;font-weight:normal;font-stretch:normal;font-size:12.7px;line-height:1.25;font-family:'Britannic Bold';-inkscape-font-specification:'Britannic Bold, Normal';font-variant-ligatures:normal;font-variant-caps:normal;font-variant-numeric:normal;font-variant-east-asian:normal;letter-spacing:0px;word-spacing:0px;white-space:pre;shape-inside:url(#rect10409);fill:#ff2804;fill-opacity:1;"
       transform="translate(18.846543,-7.46009)"><tspan
         x="43.582031"
         y="202.60017"><tspan
           style="font-style:normal;font-variant:normal;font-weight:normal;font-stretch:normal;font-size:12.7px;font-family:'Britannic Bold';-inkscape-font-specification:'Britannic Bold, Normal';font-variant-ligatures:normal;font-variant-caps:normal;font-variant-numeric:normal;font-variant-east-asian:normal;fill:#ff2804;fill-opacity:1">Rango - Precio</tspan></tspan></text>
    <rect
       ry="3.9589474"
       y="241.72049"
       x="7.5582519"
       height="14.421876"
       width="86.576302"
       id="rect10413-1"
       style="fill:#0000ff;fill-rule:evenodd;stroke-width:0.224539" />
    <rect
       style="fill:#3c3cff;fill-opacity:1;fill-rule:evenodd;stroke-width:0.514222"
       id="rect10475"
       width="33.963032"
       height="14.376564"
       x="60.367836"
       y="241.76581"
       ry="3.8967516" />
    <rect
       style="fill:#0000ff;fill-rule:evenodd;stroke-width:0.224539"
       id="rect10413-1-4"
       width="86.576302"
       height="14.421876"
       x="7.8527331"
       y="216.98439"
       ry="3.9589474" />
    <rect
       ry="3.8967514"
       y="217.02971"
       x="60.662315"
       height="14.376564"
       width="33.963032"
       id="rect10475-5"
       style="fill:#3c3cff;fill-opacity:1;fill-rule:evenodd;stroke-width:0.514223" />
    <rect
       style="fill:#0000ff;fill-rule:evenodd;stroke-width:0.224539"
       id="rect10413-1-42"
       width="86.576302"
       height="14.421876"
       x="110.91977"
       y="216.00282"
       ry="3.9589474" />
    <rect
       ry="3.8967514"
       y="216.04814"
       x="163.72935"
       height="14.376564"
       width="33.963032"
       id="rect10475-59"
       style="fill:#3c3cff;fill-opacity:1;fill-rule:evenodd;stroke-width:0.514223" />
    <rect
       ry="3.9589474"
       y="241.13153"
       x="111.11608"
       height="14.421876"
       width="86.576302"
       id="rect10413-1-42-7"
       style="fill:#0000ff;fill-rule:evenodd;stroke-width:0.224539" />
    <rect
       style="fill:#3c3cff;fill-opacity:1;fill-rule:evenodd;stroke-width:0.547339"
       id="rect10475-59-0"
       width="38.478348"
       height="14.376564"
       x="159.41034"
       y="241.17685"
       ry="3.8967514" />
    <text
       xml:space="preserve"
       style="font-style:normal;font-variant:normal;font-weight:normal;font-stretch:normal;font-size:7.05556px;line-height:1.25;font-family:'Berlin Sans FB';-inkscape-font-specification:'Berlin Sans FB, Normal';font-variant-ligatures:normal;font-variant-caps:normal;font-variant-numeric:normal;font-variant-east-asian:normal;letter-spacing:0px;word-spacing:0px;stroke-width:0.264583"
       x="10.7975"
       y="225.96219"
       id="text10523"><tspan
         sodipodi:role="line"
         id="tspan10521"
         x="10.7975"
         y="225.96219"
         style="font-style:normal;font-variant:normal;font-weight:normal;font-stretch:normal;font-size:7.05556px;font-family:'Berlin Sans FB';-inkscape-font-specification:'Berlin Sans FB, Normal';font-variant-ligatures:normal;font-variant-caps:normal;font-variant-numeric:normal;font-variant-east-asian:normal;stroke-width:0.264583">Menos de 10min.</tspan></text>
    <text
       id="text10523-1"
       y="250.93141"
       x="10.617125"
       style="font-style:normal;font-variant:normal;font-weight:normal;font-stretch:normal;font-size:7.05556px;line-height:1.25;font-family:'Berlin Sans FB';-inkscape-font-specification:'Berlin Sans FB, Normal';font-variant-ligatures:normal;font-variant-caps:normal;font-variant-numeric:normal;font-variant-east-asian:normal;letter-spacing:0px;word-spacing:0px;stroke-width:0.264583"
       xml:space="preserve"><tspan
         style="font-style:normal;font-variant:normal;font-weight:normal;font-stretch:normal;font-size:7.05556px;font-family:'Berlin Sans FB';-inkscape-font-specification:'Berlin Sans FB, Normal';font-variant-ligatures:normal;font-variant-caps:normal;font-variant-numeric:normal;font-variant-east-asian:normal;stroke-width:0.264583"
         y="250.93141"
         x="10.617125"
         id="tspan10521-4"
         sodipodi:role="line">Menos de 20min.</tspan></text>
    <text
       id="text10523-4"
       y="225.01741"
       x="114.46943"
       style="font-style:normal;font-variant:normal;font-weight:normal;font-stretch:normal;font-size:7.05556px;line-height:1.25;font-family:'Berlin Sans FB';-inkscape-font-specification:'Berlin Sans FB, Normal';font-variant-ligatures:normal;font-variant-caps:normal;font-variant-numeric:normal;font-variant-east-asian:normal;letter-spacing:0px;word-spacing:0px;stroke-width:0.264583"
       xml:space="preserve"><tspan
         style="font-style:normal;font-variant:normal;font-weight:normal;font-stretch:normal;font-size:7.05556px;font-family:'Berlin Sans FB';-inkscape-font-specification:'Berlin Sans FB, Normal';font-variant-ligatures:normal;font-variant-caps:normal;font-variant-numeric:normal;font-variant-east-asian:normal;stroke-width:0.264583"
         y="225.01741"
         x="114.46943"
         id="tspan10521-2"
         sodipodi:role="line">Menos de 30min.</tspan></text>
    <text
       id="text10523-2"
       y="250.34245"
       x="114.0768"
       style="font-style:normal;font-variant:normal;font-weight:normal;font-stretch:normal;font-size:7.05556px;line-height:1.25;font-family:'Berlin Sans FB';-inkscape-font-specification:'Berlin Sans FB, Normal';font-variant-ligatures:normal;font-variant-caps:normal;font-variant-numeric:normal;font-variant-east-asian:normal;letter-spacing:0px;word-spacing:0px;stroke-width:0.264583"
       xml:space="preserve"><tspan
         style="font-style:normal;font-variant:normal;font-weight:normal;font-stretch:normal;font-size:7.05556px;font-family:'Berlin Sans FB';-inkscape-font-specification:'Berlin Sans FB, Normal';font-variant-ligatures:normal;font-variant-caps:normal;font-variant-numeric:normal;font-variant-east-asian:normal;stroke-width:0.264583"
         y="250.34245"
         x="114.0768"
         id="tspan10521-0"
         sodipodi:role="line">Mas de 30min.</tspan></text>
    <text
       xml:space="preserve"
       style="font-style:normal;font-variant:normal;font-weight:normal;font-stretch:normal;font-size:9.87778px;line-height:1.25;font-family:'Berlin Sans FB';-inkscape-font-specification:'Berlin Sans FB, Normal';font-variant-ligatures:normal;font-variant-caps:normal;font-variant-numeric:normal;font-variant-east-asian:normal;letter-spacing:0px;word-spacing:0px;stroke-width:0.264583"
       x="67.140808"
       y="226.94379"
       id="text10561"><tspan
         sodipodi:role="line"
         id="tspan10559"
         x="67.140808"
         y="226.94379"
         style="font-style:normal;font-variant:normal;font-weight:normal;font-stretch:normal;font-size:9.87778px;font-family:'Berlin Sans FB';-inkscape-font-specification:'Berlin Sans FB, Normal';font-variant-ligatures:normal;font-variant-caps:normal;font-variant-numeric:normal;font-variant-east-asian:normal;stroke-width:0.264583">$ 100</tspan></text>
    <text
       id="text10561-6"
       y="251.83736"
       x="67.924789"
       style="font-style:normal;font-variant:normal;font-weight:normal;font-stretch:normal;font-size:9.87777px;line-height:1.25;font-family:'Berlin Sans FB';-inkscape-font-specification:'Berlin Sans FB, Normal';font-variant-ligatures:normal;font-variant-caps:normal;font-variant-numeric:normal;font-variant-east-asian:normal;letter-spacing:0px;word-spacing:0px;stroke-width:0.264583"
       xml:space="preserve"><tspan
         style="font-style:normal;font-variant:normal;font-weight:normal;font-stretch:normal;font-size:9.87777px;font-family:'Berlin Sans FB';-inkscape-font-specification:'Berlin Sans FB, Normal';font-variant-ligatures:normal;font-variant-caps:normal;font-variant-numeric:normal;font-variant-east-asian:normal;stroke-width:0.264583"
         y="251.83736"
         x="67.924789"
         id="tspan10559-9"
         sodipodi:role="line">$ 150</tspan></text>
    <text
       id="text10561-1"
       y="251.05209"
       x="162.55014"
       style="font-style:normal;font-variant:normal;font-weight:normal;font-stretch:normal;font-size:7.76111px;line-height:1.25;font-family:'Berlin Sans FB';-inkscape-font-specification:'Berlin Sans FB, Normal';font-variant-ligatures:normal;font-variant-caps:normal;font-variant-numeric:normal;font-variant-east-asian:normal;letter-spacing:0px;word-spacing:0px;stroke-width:0.264583"
       xml:space="preserve"><tspan
         style="font-style:normal;font-variant:normal;font-weight:normal;font-stretch:normal;font-size:7.76111px;font-family:'Berlin Sans FB';-inkscape-font-specification:'Berlin Sans FB, Normal';font-variant-ligatures:normal;font-variant-caps:normal;font-variant-numeric:normal;font-variant-east-asian:normal;stroke-width:0.264583"
         y="251.05209"
         x="162.55014"
         id="tspan10559-6"
         sodipodi:role="line">Contactar</tspan></text>
    <text
       id="text10561-5"
       y="225.92337"
       x="169.42128"
       style="font-style:normal;font-variant:normal;font-weight:normal;font-stretch:normal;font-size:9.87777px;line-height:1.25;font-family:'Berlin Sans FB';-inkscape-font-specification:'Berlin Sans FB, Normal';font-variant-ligatures:normal;font-variant-caps:normal;font-variant-numeric:normal;font-variant-east-asian:normal;letter-spacing:0px;word-spacing:0px;stroke-width:0.264583"
       xml:space="preserve"><tspan
         style="font-style:normal;font-variant:normal;font-weight:normal;font-stretch:normal;font-size:9.87777px;font-family:'Berlin Sans FB';-inkscape-font-specification:'Berlin Sans FB, Normal';font-variant-ligatures:normal;font-variant-caps:normal;font-variant-numeric:normal;font-variant-east-asian:normal;stroke-width:0.264583"
         y="225.92337"
         x="169.42128"
         id="tspan10559-63"
         sodipodi:role="line">$ 200</tspan></text>
  </g>
</svg>
