<?xml version="1.0" encoding="UTF-8" standalone="no"?>
<svg
   xmlns:dc="http://purl.org/dc/elements/1.1/"
   xmlns:cc="http://creativecommons.org/ns#"
   xmlns:rdf="http://www.w3.org/1999/02/22-rdf-syntax-ns#"
   xmlns:svg="http://www.w3.org/2000/svg"
   xmlns="http://www.w3.org/2000/svg"
   xmlns:sodipodi="http://sodipodi.sourceforge.net/DTD/sodipodi-0.dtd"
   xmlns:inkscape="http://www.inkscape.org/namespaces/inkscape"
   width="20cm"
   height="25cm"
   viewBox="0 0 200 249.99999"
   version="1.1"
   id="svg24211"
   inkscape:export-filename="C:\Users\Personal\Pictures\windows.png"
   inkscape:export-xdpi="150"
   inkscape:export-ydpi="150"
   inkscape:version="1.0 (4035a4fb49, 2020-05-01)"
   sodipodi:docname="windows.svg">
  <defs
     id="defs24205">
    <filter
       height="428.83252"
       y="-213.91626"
       width="1.1470505"
       x="-0.073525265"
       id="filter23796"
       style="color-interpolation-filters:sRGB"
       inkscape:collect="always">
      <feGaussianBlur
         id="feGaussianBlur23798"
         stdDeviation="6.1224616"
         inkscape:collect="always" />
    </filter>
  </defs>
  <sodipodi:namedview
     objecttolerance="3.3"
     id="base"
     pagecolor="#ffffff"
     bordercolor="#666666"
     borderopacity="1.0"
     inkscape:pageopacity="0.0"
     inkscape:pageshadow="2"
     inkscape:zoom="1.2943787"
     inkscape:cx="361.03152"
     inkscape:cy="728.2657"
     inkscape:document-units="mm"
     inkscape:current-layer="layer1"
     inkscape:document-rotation="0"
     showgrid="false"
     units="cm"
     inkscape:window-width="1366"
     inkscape:window-height="745"
     inkscape:window-x="-8"
     inkscape:window-y="-8"
     inkscape:window-maximized="1" />
  <metadata
     id="metadata24208">
    <rdf:RDF>
      <cc:Work
         rdf:about="">
        <dc:format>image/svg+xml</dc:format>
        <dc:type
           rdf:resource="http://purl.org/dc/dcmitype/StillImage" />
        <dc:title></dc:title>
      </cc:Work>
    </rdf:RDF>
  </metadata>
  <g
     inkscape:label="Capa 1"
     inkscape:groupmode="layer"
     id="layer1">
    <rect
       style="fill:#008080;fill-opacity:1;fill-rule:evenodd;stroke-width:1.39991"
       id="rect10"
       width="199.96953"
       height="249.97119"
       x="1.3732507"
       y="-0.76749325"
       ry="0" />
    <rect
       y="131.75497"
       x="1.3732507"
       height="117.44873"
       width="199.96953"
       id="rect22460"
       style="fill:#00a3a3;fill-opacity:1;fill-rule:evenodd;stroke-width:0.314595" />
    <path
       sodipodi:nodetypes="cc"
       id="path23382"
       d="m 1.4943635,131.44059 199.8484165,0.0687"
       style="mix-blend-mode:normal;fill:none;stroke:#000000;stroke-width:3.9;stroke-linecap:butt;stroke-linejoin:miter;stroke-miterlimit:4;stroke-dasharray:none;stroke-opacity:1;filter:url(#filter23796)" />
    <path
       style="stroke-width:0.426995"
       id="path23800"
       fill="#00adef"
       d="m 35.315013,21.344359 48.354494,-5.6205 0.02111,39.80795 -48.331458,0.23491 z m 48.331462,38.77411 0.03753,39.84265 -48.331462,-5.67127 -0.0028,-34.43863 z m 5.8617,-45.12987 64.114035,-7.98635 v 48.02328 l -64.114035,0.43441 z m 64.128935,45.50455 -0.0157,47.807021 -64.114045,-7.72313 -0.0898,-40.173401 z" />
    <g
       transform="matrix(0.13274405,0,0,0.12513857,135.14084,82.249199)"
       id="g23944">
      <g
         id="g23886">
        <g
           id="g23884">
          <path
             d="M 409.133,109.203 C 389.525,75.611 362.928,49.014 329.335,29.407 295.736,9.801 259.058,0 219.273,0 179.492,0 142.803,9.801 109.21,29.407 75.615,49.011 49.018,75.608 29.41,109.203 9.801,142.8 0,179.489 0,219.267 c 0,39.78 9.804,76.463 29.407,110.062 19.607,33.592 46.204,60.189 79.799,79.798 33.597,19.605 70.283,29.407 110.063,29.407 39.78,0 76.47,-9.802 110.065,-29.407 33.593,-19.602 60.189,-46.206 79.795,-79.798 19.603,-33.596 29.403,-70.284 29.403,-110.062 0.001,-39.782 -9.8,-76.472 -29.399,-110.064 z m -55.391,188.005 c -13.894,23.791 -32.736,42.64 -56.527,56.534 -23.791,13.894 -49.771,20.834 -77.945,20.834 -28.167,0 -54.149,-6.94 -77.943,-20.834 C 117.536,339.847 98.694,320.999 84.8,297.208 70.903,273.417 63.957,247.436 63.957,219.267 c 0,-28.171 6.949,-54.152 20.843,-77.943 13.891,-23.791 32.738,-42.637 56.527,-56.53 23.791,-13.895 49.772,-20.84 77.943,-20.84 28.173,0 54.154,6.945 77.945,20.84 23.791,13.894 42.634,32.739 56.527,56.53 13.895,23.791 20.838,49.772 20.838,77.943 0,28.169 -6.943,54.15 -20.838,77.941 z"
             id="path23880" />
          <path
             d="m 305.206,140.752 c -3.61,-3.616 -7.898,-5.424 -12.847,-5.424 -4.949,0 -9.227,1.809 -12.848,5.424 l -78.513,78.515 -41.971,-41.971 c -3.617,-3.616 -7.895,-5.424 -12.847,-5.424 -4.952,0 -9.234,1.809 -12.85,5.424 l -29.12,29.124 c -3.617,3.613 -5.424,7.898 -5.424,12.847 0,4.946 1.807,9.231 5.424,12.845 l 83.938,83.939 c 3.616,3.613 7.898,5.427 12.847,5.427 4.952,0 9.233,-1.813 12.851,-5.427 L 334.332,195.567 c 3.613,-3.612 5.428,-7.895 5.428,-12.842 0,-4.948 -1.808,-9.231 -5.428,-12.847 z"
             id="path23882" />
        </g>
      </g>
      <g
         id="g23888" />
      <g
         id="g23890" />
      <g
         id="g23892" />
      <g
         id="g23894" />
      <g
         id="g23896" />
      <g
         id="g23898" />
      <g
         id="g23900" />
      <g
         id="g23902" />
      <g
         id="g23904" />
      <g
         id="g23906" />
      <g
         id="g23908" />
      <g
         id="g23910" />
      <g
         id="g23912" />
      <g
         id="g23914" />
      <g
         id="g23916" />
    </g>
    <text
       id="text23948"
       y="153.74692"
       x="30.263258"
       style="font-style:normal;font-variant:normal;font-weight:normal;font-stretch:normal;font-size:16.9333px;line-height:0;font-family:'Berlin Sans FB';-inkscape-font-specification:'Berlin Sans FB, Normal';font-variant-ligatures:normal;font-variant-caps:normal;font-variant-numeric:normal;font-variant-east-asian:normal;letter-spacing:0px;word-spacing:0px;fill:#ffffff;fill-opacity:1;stroke-width:0.264583"
       xml:space="preserve"><tspan
         style="font-style:normal;font-variant:normal;font-weight:normal;font-stretch:normal;font-size:16.9333px;font-family:'Berlin Sans FB';-inkscape-font-specification:'Berlin Sans FB, Normal';font-variant-ligatures:normal;font-variant-caps:normal;font-variant-numeric:normal;font-variant-east-asian:normal;fill:#ffffff;fill-opacity:1;stroke-width:0.264583"
         y="153.74692"
         x="30.263258"
         id="tspan23946"
         sodipodi:role="line">WINDOWS OFICIAL</tspan></text>
    <text
       id="text23952"
       y="165.14328"
       x="72.235268"
       style="font-style:normal;font-variant:normal;font-weight:normal;font-stretch:normal;font-size:7.05556px;line-height:0;font-family:'Berlin Sans FB';-inkscape-font-specification:'Berlin Sans FB, Normal';font-variant-ligatures:normal;font-variant-caps:normal;font-variant-numeric:normal;font-variant-east-asian:normal;letter-spacing:0px;word-spacing:0px;stroke-width:0.264583"
       xml:space="preserve"><tspan
         style="font-style:normal;font-variant:normal;font-weight:normal;font-stretch:normal;font-size:7.05556px;font-family:'Berlin Sans FB';-inkscape-font-specification:'Berlin Sans FB, Normal';font-variant-ligatures:normal;font-variant-caps:normal;font-variant-numeric:normal;font-variant-east-asian:normal;stroke-width:0.264583"
         y="165.14328"
         x="72.235268"
         id="tspan23950"
         sodipodi:role="line">No crackees windows</tspan></text>
    <text
       id="text23956"
       y="172.64822"
       x="46.384956"
       style="font-style:normal;font-variant:normal;font-weight:normal;font-stretch:normal;font-size:7.05556px;line-height:0;font-family:'Berlin Sans FB';-inkscape-font-specification:'Berlin Sans FB, Normal';font-variant-ligatures:normal;font-variant-caps:normal;font-variant-numeric:normal;font-variant-east-asian:normal;letter-spacing:0px;word-spacing:0px;stroke-width:0.264583"
       xml:space="preserve"><tspan
         style="font-style:normal;font-variant:normal;font-weight:normal;font-stretch:normal;font-size:7.05556px;font-family:'Berlin Sans FB';-inkscape-font-specification:'Berlin Sans FB, Normal';font-variant-ligatures:normal;font-variant-caps:normal;font-variant-numeric:normal;font-variant-east-asian:normal;stroke-width:0.264583"
         y="172.64822"
         x="46.384956"
         id="tspan23954"
         sodipodi:role="line">Nosotros te lo instalamos oficialmente</tspan></text>
    <text
       id="text23960"
       y="180.15314"
       x="67.509933"
       style="font-style:normal;font-variant:normal;font-weight:normal;font-stretch:normal;font-size:7.05556px;line-height:0;font-family:'Berlin Sans FB';-inkscape-font-specification:'Berlin Sans FB, Normal';font-variant-ligatures:normal;font-variant-caps:normal;font-variant-numeric:normal;font-variant-east-asian:normal;letter-spacing:0px;word-spacing:0px;stroke-width:0.264583"
       xml:space="preserve"><tspan
         style="font-style:normal;font-variant:normal;font-weight:normal;font-stretch:normal;font-size:7.05556px;font-family:'Berlin Sans FB';-inkscape-font-specification:'Berlin Sans FB, Normal';font-variant-ligatures:normal;font-variant-caps:normal;font-variant-numeric:normal;font-variant-east-asian:normal;stroke-width:0.264583"
         y="180.15314"
         x="67.509933"
         id="tspan23958"
         sodipodi:role="line">sin ningún tipo de delito.</tspan></text>
    <text
       id="text23964"
       y="209.65103"
       x="50.832325"
       style="font-style:normal;font-variant:normal;font-weight:normal;font-stretch:normal;font-size:7.05556px;line-height:0;font-family:'Berlin Sans FB';-inkscape-font-specification:'Berlin Sans FB, Normal';font-variant-ligatures:normal;font-variant-caps:normal;font-variant-numeric:normal;font-variant-east-asian:normal;letter-spacing:0px;word-spacing:0px;stroke-width:0.264583"
       xml:space="preserve"><tspan
         style="font-style:normal;font-variant:normal;font-weight:normal;font-stretch:normal;font-size:7.05556px;font-family:'Berlin Sans FB';-inkscape-font-specification:'Berlin Sans FB, Normal';font-variant-ligatures:normal;font-variant-caps:normal;font-variant-numeric:normal;font-variant-east-asian:normal;stroke-width:0.264583"
         y="209.65103"
         x="50.832325"
         id="tspan23962"
         sodipodi:role="line">Si quieres activarlo o no, es opcional, </tspan></text>
    <text
       id="text23968"
       y="217.21146"
       x="38.880348"
       style="font-style:normal;font-variant:normal;font-weight:normal;font-stretch:normal;font-size:7.05556px;line-height:0;font-family:'Berlin Sans FB';-inkscape-font-specification:'Berlin Sans FB, Normal';font-variant-ligatures:normal;font-variant-caps:normal;font-variant-numeric:normal;font-variant-east-asian:normal;letter-spacing:0px;word-spacing:0px;stroke-width:0.264583"
       xml:space="preserve"><tspan
         style="font-style:normal;font-variant:normal;font-weight:normal;font-stretch:normal;font-size:7.05556px;font-family:'Berlin Sans FB';-inkscape-font-specification:'Berlin Sans FB, Normal';font-variant-ligatures:normal;font-variant-caps:normal;font-variant-numeric:normal;font-variant-east-asian:normal;stroke-width:0.264583"
         y="217.21146"
         x="38.880348"
         id="tspan23966"
         sodipodi:role="line">nosotros te decimos las ventajas y desventajas</tspan></text>
    <text
       id="text23972"
       y="225.22842"
       x="56.669491"
       style="font-style:normal;font-variant:normal;font-weight:normal;font-stretch:normal;font-size:7.05556px;line-height:0;font-family:'Berlin Sans FB';-inkscape-font-specification:'Berlin Sans FB, Normal';font-variant-ligatures:normal;font-variant-caps:normal;font-variant-numeric:normal;font-variant-east-asian:normal;letter-spacing:0px;word-spacing:0px;stroke-width:0.264583"
       xml:space="preserve"><tspan
         style="font-style:normal;font-variant:normal;font-weight:normal;font-stretch:normal;font-size:7.05556px;font-family:'Berlin Sans FB';-inkscape-font-specification:'Berlin Sans FB, Normal';font-variant-ligatures:normal;font-variant-caps:normal;font-variant-numeric:normal;font-variant-east-asian:normal;stroke-width:0.264583"
         y="225.22842"
         x="56.669491"
         id="tspan23970"
         sodipodi:role="line">de tener windows activado o no.</tspan></text>
    <text
       id="text23976"
       y="189.32587"
       x="47.774757"
       style="font-style:normal;font-variant:normal;font-weight:normal;font-stretch:normal;font-size:7.05556px;line-height:0;font-family:'Berlin Sans FB';-inkscape-font-specification:'Berlin Sans FB, Normal';font-variant-ligatures:normal;font-variant-caps:normal;font-variant-numeric:normal;font-variant-east-asian:normal;letter-spacing:0px;word-spacing:0px;stroke-width:0.264583"
       xml:space="preserve"><tspan
         style="font-style:normal;font-variant:normal;font-weight:normal;font-stretch:normal;font-size:7.05556px;font-family:'Berlin Sans FB';-inkscape-font-specification:'Berlin Sans FB, Normal';font-variant-ligatures:normal;font-variant-caps:normal;font-variant-numeric:normal;font-variant-east-asian:normal;stroke-width:0.264583"
         y="189.32587"
         x="47.774757"
         id="tspan23974"
         sodipodi:role="line">Y aseguras tu protección de cualquier</tspan></text>
    <text
       id="text23980"
       y="197.10876"
       x="88.634926"
       style="font-style:normal;font-variant:normal;font-weight:normal;font-stretch:normal;font-size:7.05556px;line-height:0;font-family:'Berlin Sans FB';-inkscape-font-specification:'Berlin Sans FB, Normal';font-variant-ligatures:normal;font-variant-caps:normal;font-variant-numeric:normal;font-variant-east-asian:normal;letter-spacing:0px;word-spacing:0px;stroke-width:0.264583"
       xml:space="preserve"><tspan
         style="font-style:normal;font-variant:normal;font-weight:normal;font-stretch:normal;font-size:7.05556px;font-family:'Berlin Sans FB';-inkscape-font-specification:'Berlin Sans FB, Normal';font-variant-ligatures:normal;font-variant-caps:normal;font-variant-numeric:normal;font-variant-east-asian:normal;stroke-width:0.264583"
         y="197.10876"
         x="88.634926"
         id="tspan23978"
         sodipodi:role="line">malware</tspan></text>
    <g
       transform="matrix(0.04577098,0,0,0.0375575,69.027078,228.0255)"
       id="g24133">
      <path
         style="fill:#0084ff"
         d="m 397.728,255.461 c 0,-68.528 -48.956,-125.612 -113.801,-138.213 -64.844,12.599 -113.801,69.684 -113.801,138.213 0,68.529 48.956,125.613 113.801,138.213 64.845,-12.6 113.801,-69.685 113.801,-138.213 z"
         id="path23982" />
      <g
         id="g23988">
        <path
           style="fill:#ffffff"
           d="m 310.791,71.29 -5.208,-4.357 H 215.91 c -9.126,0 -16.862,-5.871 -19.691,-14.035 -5.793,3.705 -9.644,10.18 -9.644,17.566 0,11.518 9.337,20.856 20.856,20.856 h 80.052 c -0.135,-4.99 1.602,-10.033 5.248,-13.982 4.76,-5.157 11.624,-7.196 18.06,-6.048 z"
           id="path23984" />
        <path
           style="fill:#ffffff"
           d="m 347.43,157.073 -53.902,-52.03 c -2.111,-2.038 -3.653,-4.439 -4.663,-7.007 -1.673,0.97 -3.235,2.195 -4.616,3.691 -7.307,7.917 -6.953,20.221 0.799,27.703 l 53.902,52.03 c 14.856,14.34 34.699,22.355 55.347,22.355 h 46.81 v -24.388 h -38.33 c -20.648,0.001 -40.491,-8.014 -55.347,-22.354 z"
           id="path23986" />
      </g>
      <g
         id="g23996">
        <path
           style="fill:#ffd41d"
           d="m 302.311,95.679 -5.208,-4.357 h -9.621 c 0.062,2.287 0.537,4.558 1.384,6.714 4.096,-2.373 8.876,-3.173 13.445,-2.357 z"
           id="path23990" />
        <path
           style="fill:#ffd41d"
           d="m 433.212,124.817 c -18.621,0 -36.278,-8.279 -48.187,-22.594 L 360.052,72.204 C 348.143,57.889 330.486,49.61 311.865,49.61 H 207.43 c -4.131,0 -7.972,1.217 -11.211,3.289 2.828,8.163 10.566,14.035 19.691,14.035 h 89.673 l 5.208,4.357 c -6.435,-1.149 -13.3,0.891 -18.061,6.049 -3.646,3.95 -5.383,8.992 -5.248,13.982 h 9.621 l 5.208,4.357 c -4.568,-0.815 -9.35,-0.016 -13.444,2.357 1.008,2.568 2.551,4.969 4.662,7.007 l 53.902,52.03 c 14.856,14.34 34.699,22.355 55.347,22.355 h 38.33 v -54.611 z"
           id="path23992" />
        <path
           style="fill:#ffd41d"
           d="m 305.552,420.725 h -89.673 l -5.209,-4.357 c 6.435,1.149 13.3,-0.891 18.061,-6.049 7.307,-7.917 6.953,-20.221 -0.799,-27.703 l -53.902,-52.03 c -14.856,-14.34 -34.699,-22.355 -55.347,-22.355 H 99.185 v 60.291 h 7.897 c 18.621,0 36.278,8.279 48.187,22.594 l 24.973,30.019 c 11.909,14.315 29.566,22.594 48.187,22.594 h 97.869 c 0.072,-0.706 0.11,-1.422 0.11,-2.147 0,-11.52 -9.337,-20.857 -20.856,-20.857 z"
           id="path23994" />
      </g>
      <g
         id="g24002">
        <path
           style="fill:#92e03f"
           d="M 501.981,218.984 V 109.28 h -23.817 c -5.166,0 -9.353,4.187 -9.353,9.353 v 90.998 c 0,5.166 4.187,9.353 9.353,9.353 z"
           id="path23998" />
        <path
           style="fill:#92e03f"
           d="m 38.261,292.677 v 109.704 l 25.578,0.387 c 4.438,0 8.035,-6.619 8.035,-14.784 v -80.135 c 0,-8.165 -3.597,-14.784 -8.035,-14.784 z"
           id="path24000" />
      </g>
      <circle
         cx="501.978"
         cy="109.276"
         r="10.023"
         id="circle24004" />
      <path
         d="m 305.548,410.679 h -38.796 c -5.535,0 -10.023,4.488 -10.023,10.023 0,5.535 4.487,10.023 10.023,10.023 h 38.796 c 5.973,0 10.833,4.861 10.833,10.834 0,5.973 -4.86,10.833 -10.833,10.833 H 201.115 c -15.691,0 -30.446,-6.919 -40.482,-18.981 L 135.66,403.392 C 122.259,387.284 102.759,377.849 81.893,377.244 v -59.012 h 36.788 c 18.147,0 35.331,6.941 48.387,19.544 l 53.902,52.03 c 3.801,3.668 3.978,9.811 0.395,13.694 -3.651,3.956 -9.851,4.213 -13.819,0.577 l -42.319,-38.793 c -4.081,-3.74 -10.42,-3.465 -14.161,0.615 -3.74,4.079 -3.465,10.419 0.615,14.16 l 42.32,38.794 c 5.712,5.236 12.94,7.821 20.15,7.821 8.049,0 16.076,-3.223 21.943,-9.579 10.915,-11.825 10.375,-30.537 -1.203,-41.713 L 180.99,323.353 C 164.178,307.125 142.049,298.186 118.682,298.186 H 80.087 C 76.406,289.091 67.486,282.654 57.086,282.654 H 10.023 C 4.487,282.655 0,287.143 0,292.677 v 73.11 c 0,5.534 4.487,10.023 10.023,10.023 5.536,0 10.023,-4.488 10.023,-10.023 V 302.7 h 37.041 c 2.626,0 4.762,2.136 4.762,4.762 v 80.135 c 0,2.626 -2.136,4.762 -4.762,4.762 H 46.703 c -5.535,0 -10.023,4.488 -10.023,10.023 0,5.534 4.487,10.023 10.023,10.023 h 10.383 c 10.262,0 19.089,-6.264 22.857,-15.169 15.625,0.052 30.308,6.96 40.306,18.977 l 24.973,30.02 c 13.856,16.654 34.228,26.206 55.892,26.206 h 104.434 c 17.026,0 30.878,-13.852 30.878,-30.879 0,-17.03 -13.852,-30.881 -30.878,-30.881 z"
         id="path24006" />
      <path
         d="m 368.38,341.251 c -4.114,-3.704 -10.452,-3.37 -14.155,0.745 -0.019,0.021 -0.104,0.116 -0.123,0.138 -3.66,4.138 -3.268,10.441 0.859,14.113 1.905,1.695 4.281,2.528 6.649,2.528 2.761,-10e-4 5.512,-1.133 7.496,-3.35 l -7.431,-6.725 7.45,6.704 c 3.703,-4.114 3.37,-10.451 -0.745,-14.153 z"
         id="path24008" />
      <path
         d="m 333.396,360.872 c -4.476,3.255 -5.466,9.523 -2.211,14 1.961,2.696 5.016,4.128 8.114,4.128 2.044,0 4.107,-0.623 5.887,-1.918 l 0.081,-0.059 c 4.476,-3.255 5.426,-9.494 2.17,-13.97 -3.255,-4.476 -9.562,-5.44 -14.041,-2.181 z"
         id="path24010" />
      <path
         d="m 313.205,394 c 1.274,0 2.569,-0.245 3.82,-0.761 0.101,-0.042 0.293,-0.125 0.393,-0.171 5.043,-2.277 7.279,-8.207 5.004,-13.253 -2.265,-5.019 -8.159,-7.261 -13.189,-5.044 -5.017,2.162 -7.388,7.959 -5.296,13.026 1.595,3.867 5.33,6.203 9.268,6.203 z"
         id="path24012" />
      <path
         d="m 282.606,383.205 c -5.378,1.033 -8.94,6.203 -7.972,11.609 0.869,4.852 5.092,8.258 9.854,8.258 0.586,0 1.182,-0.052 1.779,-0.158 0.126,-0.023 0.254,-0.048 0.381,-0.074 5.416,-1.133 8.882,-6.438 7.752,-11.855 -1.124,-5.397 -6.401,-8.857 -11.794,-7.78 z"
         id="path24014" />
      <path
         d="m 396.964,236.933 9.839,-1.909 c -1.054,-5.434 -6.314,-8.987 -11.748,-7.93 -5.434,1.054 -8.984,6.314 -7.93,11.748 l 0.048,0.24 c 0.988,4.732 5.167,8.003 9.818,8.003 0.676,0 1.361,-0.069 2.048,-0.212 5.418,-1.133 8.899,-6.412 7.767,-11.831 z"
         id="path24016" />
      <path
         d="m 397.65,257.012 c -5.517,-0.484 -10.377,3.59 -10.864,9.103 -0.004,0.049 -0.017,0.196 -0.02,0.246 -0.406,5.52 3.737,10.356 9.258,10.762 0.252,0.019 0.502,0.027 0.751,0.027 5.199,0 9.59,-3.988 9.977,-9.256 l -9.982,-0.898 9.983,0.881 c 0.486,-5.513 -3.589,-10.378 -9.103,-10.865 z"
         id="path24018" />
      <path
         d="m 384.115,315.541 c -4.811,-2.732 -10.95,-1.005 -13.685,3.803 -2.737,4.812 -1.056,10.93 3.754,13.668 1.565,0.891 3.267,1.314 4.947,1.314 3.486,0 6.873,-1.821 8.721,-5.068 0.003,-0.005 0.055,-0.097 0.058,-0.103 2.728,-4.813 1.015,-10.882 -3.795,-13.614 z"
         id="path24020" />
      <path
         d="m 393.987,286.969 c -5.297,-1.609 -10.896,1.394 -12.5,6.692 -1.651,5.283 1.294,10.905 6.577,12.555 0.995,0.312 2.002,0.459 2.993,0.459 4.268,0 8.223,-2.747 9.564,-7.037 l 0.055,-0.178 c 1.603,-5.297 -1.391,-10.886 -6.689,-12.491 z"
         id="path24022" />
      <path
         d="m 117.721,277.928 c -5.405,1.193 -8.821,6.541 -7.628,11.947 l 0.07,0.301 c 1.11,4.583 5.208,7.652 9.724,7.652 0.781,0 1.576,-0.092 2.369,-0.283 5.364,-1.298 8.665,-6.698 7.395,-12.062 -1.225,-5.363 -6.548,-8.733 -11.93,-7.555 z"
         id="path24024" />
      <path
         d="m 123.759,208.41 c 1.287,0.552 2.624,0.814 3.942,0.814 3.878,0 7.572,-2.267 9.212,-6.046 2.228,-5.03 -0.017,-10.924 -5.039,-13.193 -5.042,-2.277 -10.982,-0.036 -13.259,5.009 l -0.118,0.27 c -2.181,5.086 0.178,10.963 5.262,13.146 z"
         id="path24026" />
      <path
         d="m 116.836,237.816 c 0.647,0.125 1.293,0.186 1.928,0.186 4.699,0 8.887,-3.308 9.815,-8.095 1.132,-5.418 -2.342,-10.729 -7.76,-11.861 -5.415,-1.129 -10.729,2.341 -11.861,7.76 l -0.048,0.24 c -1.055,5.435 2.491,10.716 7.926,11.77 z"
         id="path24028" />
      <path
         d="m 136.715,181.158 c 1.78,1.295 3.843,1.917 5.887,1.917 3.098,0 6.153,-1.431 8.114,-4.128 l 0.108,-0.15 c 3.211,-4.495 2.167,-10.724 -2.319,-13.948 -4.486,-3.223 -10.747,-2.192 -13.983,2.285 l 8.088,5.918 -8.105,-5.895 c -3.256,4.476 -2.266,10.744 2.21,14.001 z"
         id="path24030" />
      <path
         d="m 162.757,160.627 c 2.408,0 4.827,-0.856 6.751,-2.588 4.114,-3.703 4.448,-10.041 0.746,-14.155 -3.703,-4.114 -10.041,-4.448 -14.155,-0.746 -0.003,0.002 -0.08,0.072 -0.083,0.074 -4.109,3.706 -4.4,10.006 -0.696,14.118 1.971,2.188 4.697,3.297 7.437,3.297 z"
         id="path24032" />
      <path
         d="m 187.123,143.069 c 1.694,0 3.411,-0.431 4.985,-1.338 4.831,-2.702 6.557,-8.809 3.855,-13.64 -2.702,-4.831 -8.809,-6.557 -13.64,-3.855 -0.038,0.021 -0.161,0.091 -0.198,0.113 -4.796,2.763 -6.456,8.899 -3.692,13.695 1.855,3.222 5.224,5.025 8.69,5.025 z"
         id="path24034" />
      <path
         d="m 205.149,123.964 c 1.326,4.309 5.291,7.078 9.576,7.078 0.976,0 1.969,-0.143 2.951,-0.446 0.044,-0.014 0.184,-0.057 0.23,-0.072 5.267,-1.702 8.185,-7.36 6.484,-12.627 -1.702,-5.267 -7.325,-8.168 -12.591,-6.465 l 2.931,9.585 -2.948,-9.58 c -5.291,1.628 -8.26,7.236 -6.633,12.527 z"
         id="path24036" />
      <path
         d="m 244.346,125.206 c 0.296,0 0.593,-0.013 0.894,-0.039 5.513,-0.486 9.59,-5.351 9.103,-10.864 -0.486,-5.513 -5.348,-9.585 -10.864,-9.103 l -0.1,0.009 c -5.513,0.486 -9.539,5.346 -9.053,10.86 0.46,5.213 4.879,9.137 10.02,9.137 z"
         id="path24038" />
      <path
         d="m 116.128,267.965 c 0.05,0 0.1,0 0.15,-10e-4 5.534,-0.081 9.955,-4.634 9.874,-10.169 -0.001,-0.049 -0.004,-0.197 -0.005,-0.247 -0.162,-5.532 -4.756,-9.914 -10.314,-9.756 -5.533,0.163 -9.887,4.748 -9.724,10.28 l 10.022,-0.13 -10.022,0.147 c 0.082,5.485 4.553,9.876 10.019,9.876 z"
         id="path24040" />
      <path
         d="m 210.404,217.997 v 11.998 c 0,19.455 15.828,35.282 35.281,35.282 h 12.841 c 0.007,0 0.013,-10e-4 0.019,-10e-4 h 7.768 c 8.402,0 15.237,6.835 15.237,15.237 v 11.998 c 0,8.402 -6.835,15.237 -15.237,15.237 h -22.855 c -7.174,0 -13.009,-5.836 -13.009,-13.01 0,-5.534 -4.487,-10.023 -10.023,-10.023 -5.535,0 -10.023,4.488 -10.023,10.023 0,18.228 14.828,33.055 33.054,33.055 h 2.519 v 14.921 c 0,5.534 4.487,10.023 10.023,10.023 5.535,0 10.023,-4.488 10.023,-10.023 v -14.921 h 0.292 c 19.455,0 35.282,-15.828 35.282,-35.282 v -11.998 c 0,-19.455 -15.828,-35.282 -35.282,-35.282 h -7.788 -5.052 -7.789 c -8.401,0 -15.236,-6.835 -15.236,-15.237 v -11.998 c 0,-8.402 6.835,-15.237 15.236,-15.237 h 22.855 c 7.174,0 13.01,5.836 13.01,13.01 0,5.535 4.487,10.023 10.023,10.023 5.536,0 10.023,-4.487 10.023,-10.023 0,-18.227 -14.828,-33.055 -33.055,-33.055 h -2.519 v -14.922 c 0,-5.535 -4.487,-10.023 -10.023,-10.023 -5.535,0 -10.023,4.487 -10.023,10.023 v 14.922 h -0.292 c -19.452,0 -35.28,15.828 -35.28,35.283 z"
         id="path24042" />
      <path
         d="m 501.977,131.944 c -5.535,0 -10.023,4.487 -10.023,10.023 v 66.994 h -37.041 c -2.626,0 -4.762,-2.136 -4.762,-4.762 v -80.135 c 0,-2.626 2.136,-4.762 4.762,-4.762 h 9.651 c 5.535,0 10.023,-4.487 10.023,-10.023 0,-5.536 -4.487,-10.023 -10.023,-10.023 h -9.651 c -10.39,0 -19.303,6.423 -22.991,15.506 -15.575,-0.091 -30.203,-6.99 -40.172,-18.973 L 366.777,65.77 C 352.922,49.116 332.551,39.564 310.885,39.564 H 206.451 c -17.026,0 -30.878,13.852 -30.878,30.878 0,17.026 13.852,30.878 30.878,30.878 h 42.704 c 5.535,0 10.023,-4.487 10.023,-10.023 0,-5.536 -4.487,-10.023 -10.023,-10.023 h -42.704 c -5.973,0 -10.833,-4.86 -10.833,-10.833 0,-5.973 4.86,-10.833 10.833,-10.833 h 104.434 c 15.691,0 30.446,6.919 40.482,18.981 l 24.974,30.019 c 13.4,16.108 32.901,25.543 53.766,26.148 v 59.012 h -36.788 c -18.147,0 -35.331,-6.941 -48.387,-19.544 l -53.902,-52.03 c -3.801,-3.669 -3.978,-9.812 -0.395,-13.695 3.651,-3.956 9.851,-4.214 13.819,-0.577 l 42.319,38.793 c 4.08,3.74 10.42,3.466 14.161,-0.615 3.74,-4.08 3.465,-10.42 -0.615,-14.161 L 318,93.147 c -12.089,-11.081 -30.972,-10.293 -42.094,1.757 -10.915,11.824 -10.375,30.537 1.203,41.713 l 53.901,52.03 c 16.812,16.228 38.941,25.167 62.308,25.167 h 38.728 c 3.763,8.917 12.595,15.191 22.866,15.191 h 47.064 c 5.535,0 10.023,-4.487 10.023,-10.023 v -77.016 c 10e-4,-5.535 -4.486,-10.022 -10.022,-10.022 z"
         id="path24044" />
      <circle
         cx="10.023"
         cy="402.38501"
         r="10.023"
         id="circle24046" />
      <g
         id="g24048" />
      <g
         id="g24050" />
      <g
         id="g24052" />
      <g
         id="g24054" />
      <g
         id="g24056" />
      <g
         id="g24058" />
      <g
         id="g24060" />
      <g
         id="g24062" />
      <g
         id="g24064" />
      <g
         id="g24066" />
      <g
         id="g24068" />
      <g
         id="g24070" />
      <g
         id="g24072" />
      <g
         id="g24074" />
      <g
         id="g24076" />
    </g>
    <rect
       ry="6.0684562"
       y="231.01849"
       x="96.19133"
       height="14.445771"
       width="35.846287"
       id="rect24173"
       style="opacity:0.467949;fill:#00ffff;fill-rule:evenodd;stroke-width:0.164898" />
    <text
       xml:space="preserve"
       style="font-style:normal;font-variant:normal;font-weight:normal;font-stretch:normal;font-size:7.7611px;line-height:0;font-family:'Berlin Sans FB Demi';-inkscape-font-specification:'Berlin Sans FB Demi, Normal';font-variant-ligatures:normal;font-variant-caps:normal;font-variant-numeric:normal;font-variant-east-asian:normal;letter-spacing:0px;word-spacing:0px;stroke-width:0.264583"
       x="103.12897"
       y="240.97717"
       id="text6467-4-0"><tspan
         sodipodi:role="line"
         id="tspan6465-1-2"
         x="103.12897"
         y="240.97717"
         style="font-style:normal;font-variant:normal;font-weight:normal;font-stretch:normal;font-size:7.7611px;font-family:'Berlin Sans FB Demi';-inkscape-font-specification:'Berlin Sans FB Demi, Normal';font-variant-ligatures:normal;font-variant-caps:normal;font-variant-numeric:normal;font-variant-east-asian:normal;stroke-width:0.264583">$ 350°</tspan></text>
  </g>
</svg>
