<?xml version="1.0" encoding="UTF-8" standalone="no"?>
<svg
   xmlns:dc="http://purl.org/dc/elements/1.1/"
   xmlns:cc="http://creativecommons.org/ns#"
   xmlns:rdf="http://www.w3.org/1999/02/22-rdf-syntax-ns#"
   xmlns:svg="http://www.w3.org/2000/svg"
   xmlns="http://www.w3.org/2000/svg"
   xmlns:sodipodi="http://sodipodi.sourceforge.net/DTD/sodipodi-0.dtd"
   xmlns:inkscape="http://www.inkscape.org/namespaces/inkscape"
   sodipodi:docname="discordia.svg"
   inkscape:version="1.0 (4035a4fb49, 2020-05-01)"
   id="svg8"
   version="1.1"
   viewBox="0 0 44 33"
   height="33mm"
   width="44mm">
  <defs
     id="defs2">
    <linearGradient
       gradientUnits="userSpaceOnUse"
       gradientTransform="matrix(1.1925696,0,0,0.83852549,410.12194,-26.870058)"
       id="linearGradient-1"
       y2="214.72729"
       x2="107.28935"
       y1="1.8633864e-06"
       x1="107.28935">
      <stop
         id="stop882"
         offset="0%"
         stop-color="#E52D27" />
      <stop
         id="stop884"
         offset="100%"
         stop-color="#BF171D" />
    </linearGradient>
    <linearGradient
       x1="107.28935"
       y1="1.8633864e-06"
       x2="107.28935"
       y2="214.72729"
       id="linearGradient-1-1"
       gradientTransform="matrix(9.2076466,0,0,7.3184088,-860.1963,-1529.5383)"
       gradientUnits="userSpaceOnUse">
      <stop
         stop-color="#E52D27"
         offset="0%"
         id="stop882-2" />
      <stop
         stop-color="#BF171D"
         offset="100%"
         id="stop884-9" />
    </linearGradient>
    <linearGradient
       gradientUnits="userSpaceOnUse"
       gradientTransform="matrix(9.2076466,0,0,7.3184088,-825.56168,-249.51896)"
       id="linearGradient-1-1-4"
       y2="214.72729"
       x2="107.28935"
       y1="1.8633864e-06"
       x1="107.28935">
      <stop
         id="stop882-2-2"
         offset="0%"
         stop-color="#E52D27" />
      <stop
         id="stop884-9-5"
         offset="100%"
         stop-color="#BF171D" />
    </linearGradient>
  </defs>
  <sodipodi:namedview
     height="1188mm"
     inkscape:window-maximized="1"
     inkscape:window-y="-8"
     inkscape:window-x="1358"
     inkscape:window-height="745"
     inkscape:window-width="1360"
     objecttolerance="1"
     showgrid="false"
     inkscape:document-rotation="0"
     inkscape:current-layer="layer1"
     inkscape:document-units="mm"
     inkscape:cy="51.533584"
     inkscape:cx="-14.171837"
     inkscape:zoom="1.9253247"
     inkscape:pageshadow="2"
     inkscape:pageopacity="0.0"
     borderopacity="1.0"
     bordercolor="#666666"
     pagecolor="#ffffff"
     id="base" />
  <metadata
     id="metadata5">
    <rdf:RDF>
      <cc:Work
         rdf:about="">
        <dc:format>image/svg+xml</dc:format>
        <dc:type
           rdf:resource="http://purl.org/dc/dcmitype/StillImage" />
        <dc:title></dc:title>
      </cc:Work>
    </rdf:RDF>
  </metadata>
  <g
     id="layer1"
     inkscape:groupmode="layer"
     inkscape:label="Capa 1">
    <text
       xml:space="preserve"
       style="font-style:normal;font-weight:normal;font-size:10.5833px;line-height:0;font-family:sans-serif;letter-spacing:0px;word-spacing:0px;fill:#000000;fill-opacity:1;stroke:none;stroke-width:0.264583"
       x="7.1437497"
       y="5.4239583"
       id="text2841"><tspan
         sodipodi:role="line"
         id="tspan2839"
         x="7.1437497"
         y="5.4239583"
         style="stroke-width:0.264583" /></text>
    <path
       style="opacity:1;fill:#efeef6;fill-opacity:1;stroke:none;stroke-width:0.1;stroke-linecap:round;stroke-linejoin:round;stroke-miterlimit:4;stroke-dasharray:none;stroke-opacity:1;paint-order:stroke fill markers"
       id="path2963"
       sodipodi:type="arc"
       sodipodi:cx="18.980452"
       sodipodi:cy="15.599652"
       sodipodi:rx="12.534636"
       sodipodi:ry="6.1184897"
       sodipodi:start="0.02653616"
       sodipodi:end="0.0073811894"
       sodipodi:open="true"
       sodipodi:arc-type="arc"
       d="M 31.510674,15.761994 A 12.534636,6.1184897 0 0 1 18.707877,21.716695 12.534636,6.1184897 0 0 1 6.4476185,15.495896 12.534636,6.1184897 0 0 1 19.132993,9.4816156 12.534636,6.1184897 0 0 1 31.514746,15.644814" />
    <path
       d="m 16.101571,15.382893 a 2.66237,2.1001303 0 0 1 -2.719327,2.043911 2.66237,2.1001303 0 0 1 -2.604092,-2.135247 2.66237,2.1001303 0 0 1 2.694387,-2.064361 2.66237,2.1001303 0 0 1 2.629897,2.115476"
       sodipodi:arc-type="arc"
       sodipodi:open="true"
       sodipodi:end="0.0073811894"
       sodipodi:start="0.02653616"
       sodipodi:ry="2.1001303"
       sodipodi:rx="2.66237"
       sodipodi:cy="15.32717"
       sodipodi:cx="13.440139"
       sodipodi:type="arc"
       id="path2963-3"
       style="opacity:1;fill:#9077f1;fill-opacity:1;stroke:none;stroke-width:0.395564;stroke-linecap:round;stroke-linejoin:round;stroke-miterlimit:4;stroke-dasharray:none;stroke-opacity:1;paint-order:stroke fill markers" />
    <path
       style="fill:#efeef6;fill-opacity:1;stroke:none;stroke-width:0.1;stroke-linecap:butt;stroke-linejoin:miter;stroke-miterlimit:4;stroke-dasharray:none;stroke-opacity:1"
       d="M 10.759016,8.5451215 C 9.5056989,9.0351455 8.2671219,9.6946935 7.1010761,11.188348 l -2.6466165,7.404361 c 1.3623774,1.833396 3.7214253,3.078123 5.7558144,3.934049 0.366439,-0.19571 1.057749,-1.026725 1.02615,-2.203479 -2.2581421,-1.075382 -4.3793089,-2.236373 -4.677217,-4.536901 0.3177427,-1.024648 0.1002675,-1.878027 1.8708869,-3.367596 0.392361,-1.383247 1.494417,-2.293364 2.8063301,-3.0635755 0.167799,-0.468525 -0.02831,-0.716108 -0.477408,-0.810085 z"
       id="path2986"
       sodipodi:nodetypes="ccccccccc" />
    <path
       sodipodi:nodetypes="ccccccccc"
       id="path2986-7"
       d="m 27.552702,8.4637495 c 1.13623,0.490024 2.259096,1.149572 3.316206,2.6432265 l 2.399364,7.404361 c -1.235102,1.833396 -3.373761,3.078123 -5.218093,3.934049 -0.332205,-0.19571 -0.958932,-1.026725 -0.930284,-2.203479 2.047181,-1.075382 3.970183,-2.236373 4.240259,-4.536901 -0.288058,-1.024648 -0.0909,-1.878027 -1.696103,-3.367596 -0.355706,-1.383247 -1.354805,-2.293364 -2.544156,-3.0635755 -0.152122,-0.468525 0.02566,-0.716108 0.432807,-0.810085 z"
       style="fill:#efeef6;fill-opacity:1;stroke:none;stroke-width:0.1;stroke-linecap:butt;stroke-linejoin:miter;stroke-miterlimit:4;stroke-dasharray:none;stroke-opacity:1" />
    <path
       style="fill:none;stroke:#917af0;stroke-width:0.264583px;stroke-linecap:butt;stroke-linejoin:miter;stroke-opacity:1"
       d="m 8.3452619,18.682241 c 5.9512411,3.613924 13.4368271,4.259463 21.2421311,0.204237"
       id="path3003"
       sodipodi:nodetypes="cc" />
    <path
       style="opacity:1;fill:#9077f1;fill-opacity:1;stroke:none;stroke-width:0.395565;stroke-linecap:round;stroke-linejoin:round;stroke-miterlimit:4;stroke-dasharray:none;stroke-opacity:1;paint-order:stroke fill markers"
       id="path2963-3-3"
       sodipodi:type="arc"
       sodipodi:cx="23.27993"
       sodipodi:cy="15.103559"
       sodipodi:rx="2.66237"
       sodipodi:ry="2.1001303"
       sodipodi:start="0.02653616"
       sodipodi:end="0.0073811894"
       sodipodi:open="true"
       sodipodi:arc-type="arc"
       d="m 25.941363,15.159281 a 2.66237,2.1001303 0 0 1 -2.719328,2.043911 2.66237,2.1001303 0 0 1 -2.604092,-2.135247 2.66237,2.1001303 0 0 1 2.694387,-2.064361 2.66237,2.1001303 0 0 1 2.629898,2.115476" />
    <path
       d="M 43.416035,17.206026 A 20.856743,14.775388 0 0 1 22.113091,31.585884 20.856743,14.775388 0 0 1 1.7128914,16.563431 20.856743,14.775388 0 0 1 22.820454,2.039696 20.856743,14.775388 0 0 1 43.42281,16.923049"
       sodipodi:arc-type="arc"
       sodipodi:open="true"
       sodipodi:end="0.0073811894"
       sodipodi:start="0.02653616"
       sodipodi:ry="14.775388"
       sodipodi:rx="20.856743"
       sodipodi:cy="16.81399"
       sodipodi:cx="22.566635"
       sodipodi:type="arc"
       id="path2963-3-3-3"
       style="opacity:1;fill:#9077f1;fill-opacity:1;stroke:none;stroke-width:2.93666;stroke-linecap:round;stroke-linejoin:round;stroke-miterlimit:4;stroke-dasharray:none;stroke-opacity:1;paint-order:stroke fill markers" />
    <path
       style="opacity:1;fill:#efeef6;fill-opacity:1;stroke:none;stroke-width:0.1;stroke-linecap:round;stroke-linejoin:round;stroke-miterlimit:4;stroke-dasharray:none;stroke-opacity:1;paint-order:stroke fill markers"
       id="path2963-7-0"
       sodipodi:type="arc"
       sodipodi:cx="22.77063"
       sodipodi:cy="16.266287"
       sodipodi:rx="12.534636"
       sodipodi:ry="6.1184897"
       sodipodi:start="0.02653616"
       sodipodi:end="0.0073811894"
       sodipodi:open="true"
       sodipodi:arc-type="arc"
       d="M 35.300852,16.428629 A 12.534636,6.1184897 0 0 1 22.498055,22.38333 12.534636,6.1184897 0 0 1 10.237797,16.16253 12.534636,6.1184897 0 0 1 22.923172,10.14825 12.534636,6.1184897 0 0 1 35.304924,16.311448" />
    <path
       d="m 19.891753,16.049531 a 2.66237,2.1001303 0 0 1 -2.719328,2.043911 2.66237,2.1001303 0 0 1 -2.604092,-2.135248 2.66237,2.1001303 0 0 1 2.694387,-2.064361 2.66237,2.1001303 0 0 1 2.629897,2.115476"
       sodipodi:arc-type="arc"
       sodipodi:open="true"
       sodipodi:end="0.0073811894"
       sodipodi:start="0.02653616"
       sodipodi:ry="2.1001303"
       sodipodi:rx="2.66237"
       sodipodi:cy="15.993808"
       sodipodi:cx="17.23032"
       sodipodi:type="arc"
       id="path2963-3-2-0"
       style="opacity:1;fill:#9077f1;fill-opacity:1;stroke:none;stroke-width:0.395565;stroke-linecap:round;stroke-linejoin:round;stroke-miterlimit:4;stroke-dasharray:none;stroke-opacity:1;paint-order:stroke fill markers" />
    <path
       style="fill:#efeef6;fill-opacity:1;stroke:none;stroke-width:0.1;stroke-linecap:butt;stroke-linejoin:miter;stroke-miterlimit:4;stroke-dasharray:none;stroke-opacity:1"
       d="m 14.549198,9.2117605 c -1.253318,0.490024 -2.491895,1.1495715 -3.65794,2.6432265 l -2.6466171,7.404361 c 1.362378,1.833396 3.7214261,3.078123 5.7558151,3.934049 0.366438,-0.19571 1.057749,-1.026725 1.026149,-2.203479 -2.258142,-1.075382 -4.379308,-2.236373 -4.677216,-4.536901 0.317742,-1.024648 0.100267,-1.878027 1.870887,-3.367596 0.392361,-1.383247 1.494417,-2.293364 2.806329,-3.063576 0.167799,-0.4685245 -0.02831,-0.7161075 -0.477407,-0.8100845 z"
       id="path2986-2-9"
       sodipodi:nodetypes="ccccccccc" />
    <path
       sodipodi:nodetypes="ccccccccc"
       id="path2986-7-6-9"
       d="m 31.342882,9.1303885 c 1.13623,0.490024 2.2591,1.1495715 3.31621,2.6432265 l 2.399359,7.404361 c -1.235099,1.833396 -3.373759,3.078123 -5.218089,3.934049 -0.33221,-0.19571 -0.95893,-1.026725 -0.93029,-2.203479 2.04719,-1.075382 3.970189,-2.236373 4.24026,-4.536901 -0.288049,-1.024648 -0.0909,-1.878027 -1.6961,-3.367596 -0.35571,-1.383247 -1.3548,-2.293364 -2.54416,-3.0635755 -0.15212,-0.468525 0.0257,-0.716108 0.43281,-0.810085 z"
       style="fill:#efeef6;fill-opacity:1;stroke:none;stroke-width:0.1;stroke-linecap:butt;stroke-linejoin:miter;stroke-miterlimit:4;stroke-dasharray:none;stroke-opacity:1" />
    <path
       style="fill:none;stroke:#917af0;stroke-width:0.264583px;stroke-linecap:butt;stroke-linejoin:miter;stroke-opacity:1"
       d="m 12.135444,19.34888 c 5.095065,4.042012 14.745191,4.128627 21.242128,0.204237"
       id="path3003-2-1"
       sodipodi:nodetypes="cc" />
    <path
       style="opacity:1;fill:#9077f1;fill-opacity:1;stroke:none;stroke-width:0.395565;stroke-linecap:round;stroke-linejoin:round;stroke-miterlimit:4;stroke-dasharray:none;stroke-opacity:1;paint-order:stroke fill markers"
       id="path2963-3-3-1-0"
       sodipodi:type="arc"
       sodipodi:cx="27.070116"
       sodipodi:cy="15.770194"
       sodipodi:rx="2.66237"
       sodipodi:ry="2.1001303"
       sodipodi:start="0.02653616"
       sodipodi:end="0.0073811894"
       sodipodi:open="true"
       sodipodi:arc-type="arc"
       d="m 29.731549,15.825917 a 2.66237,2.1001303 0 0 1 -2.719328,2.043911 2.66237,2.1001303 0 0 1 -2.604092,-2.135248 2.66237,2.1001303 0 0 1 2.694387,-2.064361 2.66237,2.1001303 0 0 1 2.629897,2.115476" />
  </g>
</svg>
