<?xml version="1.0" encoding="UTF-8" standalone="no"?>
<svg
   xmlns:dc="http://purl.org/dc/elements/1.1/"
   xmlns:cc="http://creativecommons.org/ns#"
   xmlns:rdf="http://www.w3.org/1999/02/22-rdf-syntax-ns#"
   xmlns:svg="http://www.w3.org/2000/svg"
   xmlns="http://www.w3.org/2000/svg"
   xmlns:sodipodi="http://sodipodi.sourceforge.net/DTD/sodipodi-0.dtd"
   xmlns:inkscape="http://www.inkscape.org/namespaces/inkscape"
   inkscape:version="1.0 (4035a4fb49, 2020-05-01)"
   sodipodi:docname="facebook.svg"
   id="svg8"
   preserveAspectRatio="xMidYMid"
   version="1.1"
   viewBox="0 0 30 30"
   height="30"
   width="30">
  <metadata
     id="metadata14">
    <rdf:RDF>
      <cc:Work
         rdf:about="">
        <dc:format>image/svg+xml</dc:format>
        <dc:type
           rdf:resource="http://purl.org/dc/dcmitype/StillImage" />
        <dc:title></dc:title>
      </cc:Work>
    </rdf:RDF>
  </metadata>
  <defs
     id="defs12" />
  <sodipodi:namedview
     inkscape:current-layer="svg8"
     inkscape:window-maximized="1"
     inkscape:window-y="-8"
     inkscape:window-x="-8"
     inkscape:cy="17.858111"
     inkscape:cx="-4.6147398"
     inkscape:zoom="8.6838942"
     showgrid="false"
     id="namedview10"
     inkscape:window-height="745"
     inkscape:window-width="1366"
     inkscape:pageshadow="2"
     inkscape:pageopacity="0"
     guidetolerance="10"
     gridtolerance="10"
     objecttolerance="10"
     borderopacity="1"
     bordercolor="#666666"
     pagecolor="#ffffff" />
  <g
     transform="matrix(0.11679687,0,0,0.11679642,0.086,0.017)"
     id="g6">
    <path
       id="path2"
       fill="#395185"
       d="m 241.871,256.001 c 7.802,0 14.129,-6.326 14.129,-14.129 V 14.129 C 256,6.325 249.673,0 241.871,0 H 14.129 C 6.324,0 0,6.325 0,14.129 v 227.743 c 0,7.803 6.324,14.129 14.129,14.129 h 227.742" />
    <path
       id="path4"
       fill="#ffffff"
       d="m 176.635,256.001 v -99.137 h 33.277 l 4.982,-38.635 H 176.635 V 93.561 c 0,-11.186 3.107,-18.809 19.148,-18.809 l 20.459,-0.009 V 40.188 c -3.54,-0.471 -15.684,-1.523 -29.812,-1.523 -29.498,0 -49.692,18.005 -49.692,51.071 v 28.493 h -33.362 v 38.635 h 33.362 v 99.137 h 39.897" />
  </g>
</svg>
