<?xml version="1.0" encoding="UTF-8" standalone="no"?>
<svg
   xmlns:dc="http://purl.org/dc/elements/1.1/"
   xmlns:cc="http://creativecommons.org/ns#"
   xmlns:rdf="http://www.w3.org/1999/02/22-rdf-syntax-ns#"
   xmlns:svg="http://www.w3.org/2000/svg"
   xmlns="http://www.w3.org/2000/svg"
   xmlns:sodipodi="http://sodipodi.sourceforge.net/DTD/sodipodi-0.dtd"
   xmlns:inkscape="http://www.inkscape.org/namespaces/inkscape"
   width="53mm"
   height="36mm"
   viewBox="0 0 53 36"
   version="1.1"
   id="svg8"
   inkscape:version="1.0 (4035a4fb49, 2020-05-01)"
   sodipodi:docname="images.svg">
  <defs
     id="defs2">
    <linearGradient
       x1="107.28935"
       y1="1.8633864e-06"
       x2="107.28935"
       y2="214.72729"
       id="linearGradient-1"
       gradientTransform="matrix(1.1925696,0,0,0.83852549,410.12194,-26.870058)"
       gradientUnits="userSpaceOnUse">
      <stop
         stop-color="#E52D27"
         offset="0%"
         id="stop882" />
      <stop
         stop-color="#BF171D"
         offset="100%"
         id="stop884" />
    </linearGradient>
    <linearGradient
       gradientUnits="userSpaceOnUse"
       gradientTransform="matrix(9.2076466,0,0,7.3184088,-860.1963,-1529.5383)"
       id="linearGradient-1-1"
       y2="214.72729"
       x2="107.28935"
       y1="1.8633864e-06"
       x1="107.28935">
      <stop
         id="stop882-2"
         offset="0%"
         stop-color="#E52D27" />
      <stop
         id="stop884-9"
         offset="100%"
         stop-color="#BF171D" />
    </linearGradient>
    <linearGradient
       x1="107.28935"
       y1="1.8633864e-06"
       x2="107.28935"
       y2="214.72729"
       id="linearGradient-1-1-4"
       gradientTransform="matrix(9.2076466,0,0,7.3184088,-825.56168,-249.51896)"
       gradientUnits="userSpaceOnUse">
      <stop
         stop-color="#E52D27"
         offset="0%"
         id="stop882-2-2" />
      <stop
         stop-color="#BF171D"
         offset="100%"
         id="stop884-9-5" />
    </linearGradient>
  </defs>
  <sodipodi:namedview
     id="base"
     pagecolor="#ffffff"
     bordercolor="#666666"
     borderopacity="1.0"
     inkscape:pageopacity="0.0"
     inkscape:pageshadow="2"
     inkscape:zoom="2.8284271"
     inkscape:cx="43.974718"
     inkscape:cy="41.219119"
     inkscape:document-units="mm"
     inkscape:current-layer="layer1"
     inkscape:document-rotation="0"
     showgrid="false"
     objecttolerance="1"
     inkscape:window-width="1360"
     inkscape:window-height="745"
     inkscape:window-x="1358"
     inkscape:window-y="-8"
     inkscape:window-maximized="1" />
  <metadata
     id="metadata5">
    <rdf:RDF>
      <cc:Work
         rdf:about="">
        <dc:format>image/svg+xml</dc:format>
        <dc:type
           rdf:resource="http://purl.org/dc/dcmitype/StillImage" />
        <dc:title></dc:title>
      </cc:Work>
    </rdf:RDF>
  </metadata>
  <g
     inkscape:label="Capa 1"
     inkscape:groupmode="layer"
     id="layer1">
    <rect
       ry="2.0195792"
       y="2.9395754"
       x="3.2929471"
       height="29.953199"
       width="46.886532"
       id="rect57"
       style="fill:#b56d00;fill-opacity:1;stroke:#000000;stroke-width:3.70972;stroke-linecap:round;stroke-linejoin:round;stroke-miterlimit:4;stroke-dasharray:none;paint-order:stroke fill markers" />
    <path
       sodipodi:nodetypes="ccccccc"
       id="path1473"
       d="M 49.467337,3.4050183 C 20.530923,26.797318 8.0708408,33.586161 3.9352737,32.353507 3.6690925,32.081314 3.3942213,31.843013 3.2793177,30.980838 L 3.2932803,5.0373353 c 0.1274995,-1.495941 0.9709325,-2.232559 2.6417296,-2.09167 l 42.2832361,-0.0055 c 0.452379,0.0181 0.874575,0.150884 1.249091,0.464855 z"
       style="fill:#a76a01;fill-opacity:1;stroke:none;stroke-width:0.264583px;stroke-linecap:butt;stroke-linejoin:miter;stroke-opacity:1" />
    <path
       sodipodi:nodetypes="cccccc"
       id="path2015"
       d="m 8.6122542,7.4651343 25.6108398,25.2987127 13.879037,0.02722 c 1.462271,-0.06869 2.024514,-1.118642 1.951429,-2.250006 l -0.0092,-8.259259 z"
       style="opacity:1;fill:#bebe68;fill-opacity:0.17;stroke:none;stroke-width:0.264583px;stroke-linecap:butt;stroke-linejoin:miter;stroke-opacity:1" />
    <g
       transform="matrix(0.03426869,0,0,0.03031532,40.35066,27.024615)"
       id="g895-4-1">
      <path
         id="path889-3-2"
         fill="#ffffff"
         d="M 101.6,123.2 170.8,87.4 101.6,51.3 Z" />
      <path
         id="path891-3-6"
         fill="#420000"
         opacity="0.12"
         d="m 101.6,51.3 60.7,40.5 8.5,-4.4 z" />
      <path
         style="fill:url(#linearGradient-1-1-4)"
         id="path893-1-8"
         fill="url(#linearGradient-1)"
         d="m 253.30105,38.8 c 0,0 -2.49902,-17.6 -10.19601,-25.4 C 233.40882,3.2 222.51308,3.2 217.41507,2.6 181.72901,0 128.04998,0 128.04998,0 h -0.1 c 0,0 -53.679032,0 -89.565014,2.6 C 33.386958,3.2 22.491214,3.2 12.695041,13.4 5.0980086,21.2 2.5989848,38.8 2.5989848,38.8 2.5989848,38.8 0,59.6 0,80.3 v 19.4 c 0,20.7 2.5989848,41.4 2.5989848,41.4 0,0 2.4990238,17.6 10.1960172,25.4 9.696212,10.2 22.491214,9.9 28.188989,10.9 20.491995,2 86.966029,2.6 86.966029,2.6 0,0 53.77899,-0.1 89.56501,-2.7 4.99805,-0.6 15.89379,-0.6 25.68997,-10.8 7.69699,-7.8 10.19601,-25.4 10.19601,-25.4 0,0 2.59899,-20.7 2.59899,-41.4 V 80.3 C 255.9,59.6 253.30105,38.8 253.30105,38.8 Z M 101.56033,123.2 V 51.3 l 69.17298,36.1 z" />
    </g>
    <g
       transform="matrix(0.01437306,0,0,0.01316727,24.412904,15.996186)"
       id="g1122-7-1">
      <path
         id="SVGCleanerId_0-4-5"
         style="fill:#818689"
         d="M 27.033,477.472 V 34.527 C 27.033,19.601 39.133,7.5 54.06,7.5 H 34.528 C 19.601,7.5 7.5,19.601 7.5,34.527 v 442.945 c 0,14.927 12.101,27.027 27.027,27.027 H 54.059 C 39.133,504.5 27.033,492.399 27.033,477.472 Z" />
      <path
         style="fill:#989da0"
         d="m 504.498,477.472 c 0,14.927 -12.101,27.027 -27.027,27.027 H 34.528 c -14.927,0 -27.027,-12.101 -27.027,-27.027 V 34.527 C 7.5,19.601 19.601,7.5 34.528,7.5 h 442.943 c 14.927,0 27.027,12.101 27.027,27.027 z"
         id="path917-0-5" />
      <g
         id="g927-9-3">
        <path
           style="fill:#f4f4f4"
           d="M 135.532,215.894 V 125.246 H 92.525 c -10.723,0 -11.962,5.311 -11.962,9.306 v 57.42 c 0,11.029 11.608,8.827 28.522,8.827 3.946,0 4.027,6.27 0,6.27 H 80.563 v 17.656 h 43.01 c 10.6,0 11.959,-4.72 11.959,-8.831 z m -23.947,-35.253 c 0,1.104 -0.896,2 -2,2 h -2.599 c -1.104,0 -2,-0.896 -2,-2 v -34.763 c 0,-1.104 0.896,-2 2,-2 h 2.599 c 1.104,0 2,0.896 2,2 z"
           id="path919-2-6" />
        <path
           style="fill:#f4f4f4"
           d="m 154.622,328.602 h -31.05 c -10.721,0 -11.961,5.313 -11.961,9.31 v 13.613 h 23.92 v -1.786 c 0,-1.657 1.344,-3 3,-3 h 1.599 c 1.657,0 3,1.343 3,3 v 5.533 c 0,1.657 -1.343,3 -3,3 h -16.559 c -7.936,0 -11.961,2.97 -11.961,8.827 v 29.666 c 0,3.996 1.24,9.311 11.961,9.311 h 43.01 V 337.91 c 0.001,-3.995 -1.239,-9.308 -11.959,-9.308 z m -11.99,56.835 c 0,1.104 -0.895,2 -2,2 h -2.599 c -1.105,0 -2,-0.896 -2,-2 v -6.533 c 0,-1.104 0.895,-2 2,-2 h 2.599 c 1.105,0 2,0.896 2,2 z"
           id="path921-6-5" />
        <path
           style="fill:#f4f4f4"
           d="m 264.903,330.388 v -1.786 h -23.45 v 1.786 c 0,1.657 -1.343,3 -3,3 h -6.303 c -1.657,0 -3,-1.343 -3,-3 v -1.786 h -23.449 v 56.335 c 0,1.657 -1.343,3 -3,3 h -1.598 c -1.656,0 -3,-1.343 -3,-3 v -56.335 h -23.45 v 68.162 c 0,4.334 1.306,9.311 11.49,9.311 h 31.52 c 7.73,0 11.489,-3.045 11.489,-9.311 v -42.24 c 0,-1.657 1.343,-3 3,-3 h 6.303 c 1.657,0 3,1.343 3,3 v 42.24 c 0,4.334 1.306,9.311 11.49,9.311 h 31.517 c 7.731,0 11.49,-3.045 11.49,-9.311 V 358.272 H 272.5 v 26.666 c 0,1.657 -1.343,3 -3,3 h -1.596 c -1.657,0 -3,-1.343 -3,-3 v -30.413 c 0,-1.657 1.343,-3 3,-3 h 28.046 v -18.136 h -28.046 c -1.658,-0.001 -3.001,-1.344 -3.001,-3.001 z"
           id="path923-0-2" />
        <path
           style="fill:#f4f4f4"
           d="m 184.927,301.067 v -38.492 h -23.45 v 26.666 c 0,1.657 -1.344,3 -3,3 h -1.597 c -1.656,0 -3,-1.343 -3,-3 v -29.936 c 0,-1.657 1.344,-3 3,-3 h 28.048 V 238.17 H 156.88 c -1.656,0 -3,-1.343 -3,-3 v -2.265 h -23.92 v 2.265 c 0,1.657 -1.344,3 -3,3 h -3.116 v 18.135 h 3.116 c 1.656,0 3,1.343 3,3 v 41.763 c 0,3.994 1.239,9.305 11.96,9.305 h 31.52 c 7.73,-10e-4 11.487,-3.044 11.487,-9.306 z"
           id="path925-0-9" />
      </g>
      <path
         style="fill:#eae8e8"
         d="m 141.649,301.067 v -41.763 c 0,-1.657 -1.344,-3 -3,-3 h -3.116 v -18.135 h 3.116 c 1.656,0 3,-1.343 3,-3 v -2.265 H 129.96 v 2.265 c 0,1.657 -1.344,3 -3,3 h -3.116 v 18.135 h 3.116 c 1.656,0 3,1.343 3,3 v 41.763 c 0,3.994 1.239,9.305 11.96,9.305 h 11.689 c -10.721,0 -11.96,-5.311 -11.96,-9.305 z"
         id="path929-6-7" />
      <g
         id="g935-7-7">
        <path
           style="fill:#f4f4f4"
           d="m 148.809,214.076 c 0,2.04 0.044,3.411 -0.28,5.556 h 12.754 c -0.435,-2.143 -0.379,-3.499 -0.379,-5.556 z"
           id="path931-5-6" />
        <path
           style="fill:#f4f4f4"
           d="m 291.717,146.378 c 0,-1.657 1.343,-3 3,-3 h 1.599 c 1.657,0 3,1.343 3,3 v 54.42 h 23.921 v -66.247 c 0,-5.917 -7.478,-9.306 -11.961,-9.306 -6.105,0 -11.217,1.035 -15.189,3.075 -1.988,1.023 -4.371,-0.42 -4.371,-2.668 v -0.407 h -23.45 v 75.553 h 23.449 v -54.42 z"
           id="path933-0-7" />
      </g>
      <rect
         x="268.26599"
         y="125.248"
         style="fill:#eae8e8"
         width="11.718"
         height="75.555"
         id="rect937-1-5" />
      <path
         style="fill:#f4f4f4"
         d="m 217.66,200.798 h 43.007 v -66.247 c 0,-3.994 -1.239,-9.306 -11.96,-9.306 -47.184,0 -43.008,-3.293 -43.008,22.918 h 23.919 v -1.786 c 0,-1.657 1.343,-3 3,-3 5.011,0 4.127,2.703 4.127,8.054 0,1.657 -1.343,3 -3,3 H 217.66 c -7.936,0 -11.961,2.97 -11.961,8.827 v 28.713 c 0,4.11 1.36,8.827 11.961,8.827 z m 16.586,-28.208 c 1.105,0 2,0.895 2,2 v 6.05 c 0,1.104 -0.895,2 -2,2 h -2.127 c -1.105,0 -2,-0.896 -2,-2 0,-8.387 -0.461,-8.05 4.127,-8.05 z"
         id="path939-7-1" />
      <g
         id="g945-5-1">
        <path
           style="fill:#eae8e8"
           d="m 217.95,134.551 c 0,-3.994 1.24,-9.306 11.961,-9.306 H 217.66 c -10.721,0 -11.961,5.311 -11.961,9.306 v 13.613 h 12.251 z"
           id="path941-8-7" />
        <path
           style="fill:#eae8e8"
           d="m 217.95,191.972 v -28.713 c 0,-5.856 4.024,-8.827 11.961,-8.827 -11.846,0 -24.211,-1.859 -24.211,8.827 v 28.713 c 0,4.109 1.359,8.827 11.961,8.827 h 12.251 c -10.603,-0.001 -11.962,-4.718 -11.962,-8.827 z"
           id="path943-9-4" />
      </g>
      <path
         style="fill:#f4f4f4"
         d="m 167.051,175.091 c 0,-1.657 1.343,-3 3,-3 h 1.129 c 1.656,0 3,1.343 3,3 v 40.803 c 0,2.337 1.484,4.587 4.293,6.507 3.701,2.5 4.801,2.323 11.524,2.323 1.656,0 3,1.343 3,3 v 82.647 h 23.448 v -55.852 c 0,-1.657 1.343,-3 3,-3 h 1.598 c 1.657,0 3,1.343 3,3 v 55.852 h 23.92 v -68.157 c 0,-3.996 -1.24,-9.31 -11.961,-9.31 h -16.558 c -1.657,0 -3,-1.343 -3,-3 V 207.068 H 201.1 c -1.656,0 -3,-1.343 -3,-3 v -32.672 c 0,-5.706 -3.912,-5.068 -3.957,-8.144 -0.048,-3.05 3.957,-2.795 3.957,-8.125 v -20.575 c 0,-3.994 -1.239,-9.306 -11.961,-9.306 h -43.01 v 75.553 h 23.92 z m 0.5,-29.213 c 0,-1.104 0.896,-2 2,-2 h 2.129 c 1.104,0 2,0.896 2,2 v 6.054 c 0,1.104 -0.896,2 -2,2 h -2.129 c -1.104,0 -2,-0.896 -2,-2 z"
         id="path947-6-3" />
      <rect
         x="143.129"
         y="125.248"
         style="fill:#eae8e8"
         width="11.775"
         height="75.555"
         id="rect949-6-2" />
      <path
         style="fill:#f4f4f4"
         d="m 342.793,200.798 h 43.01 v -94.694 h -23.92 v 16.141 c 0,1.657 -1.343,3 -3,3 -16.637,0 -28.046,-2.093 -28.046,9.306 v 57.42 c -10e-4,4.11 1.358,8.827 11.956,8.827 z m 11.989,-54.92 c 0,-1.104 0.895,-2 2,-2 h 2.599 c 1.104,0 2,0.896 2,2 v 34.763 c 0,1.104 -0.896,2 -2,2 h -2.599 c -1.105,0 -2,-0.896 -2,-2 z"
         id="path951-8-3" />
      <g
         id="g957-6-8">
        <path
           style="fill:#eae8e8"
           d="m 373.883,122.245 v -16.141 h -12.001 v 16.141 c 0,1.657 -1.343,3 -3,3 h 12.001 c 1.657,10e-4 3,-1.341 3,-3 z"
           id="path953-0-9" />
        <path
           style="fill:#eae8e8"
           d="m 342.837,191.972 v -57.42 c 0,-3.994 1.239,-9.306 11.957,-9.306 -11.794,0 -23.957,-2.127 -23.957,9.306 v 57.42 c 0,10.668 11.128,8.827 23.957,8.827 -10.598,-0.001 -11.957,-4.718 -11.957,-8.827 z"
           id="path955-3-2" />
      </g>
      <path
         style="fill:#f4f4f4"
         d="m 318.602,242.214 v 68.157 h 23.447 v -31.446 c 0,-1.657 1.343,-3 3,-3 h 19.113 V 257.787 H 345.05 c -1.657,0 -3,-1.343 -3,-3 0,-2.156 1.489,-3.267 3,-3.267 h 19.113 v -18.614 l -33.721,0.005 c -7.826,0.443 -11.84,3.575 -11.84,9.303 z"
         id="path959-0-2" />
      <path
         style="fill:#eae8e8"
         d="m 342.677,232.909 21.487,-0.003 v -0.002 l -33.721,0.005 c -7.827,0.444 -11.841,3.576 -11.841,9.305 v 68.157 h 12.234 v -68.157 c 0,-5.728 4.013,-8.86 11.841,-9.305 z"
         id="path961-4-8" />
      <path
         style="fill:#f4f4f4"
         d="m 315.509,328.602 c -7.732,0 -11.49,3.045 -11.49,9.31 v 58.854 c 0,6.266 3.758,9.311 11.49,9.311 h 31.52 c 10.721,0 11.961,-5.314 11.961,-9.311 v -58.854 c 0,-3.996 -1.24,-9.31 -11.961,-9.31 z m 19.058,56.835 c 0,1.104 -0.896,2 -2,2 h -2.598 c -1.104,0 -2,-0.896 -2,-2 v -36.199 c 0,-1.104 0.896,-2 2,-2 h 2.598 c 1.104,0 2,0.896 2,2 z"
         id="path963-7-2" />
      <path
         style="fill:#eae8e8"
         d="M 316.519,396.764 V 337.91 c 0,-6.264 3.758,-9.31 11.49,-9.31 -12.699,0 -23.99,-1.948 -23.99,9.31 v 58.854 c 0,11.266 11.312,9.311 23.99,9.311 -7.732,0.001 -11.49,-3.045 -11.49,-9.311 z"
         id="path965-5-7" />
      <g
         id="g971-6-3">
        <path
           style="fill:#f4f4f4"
           d="m 400.387,235.169 v -2.265 h -23.92 v 2.265 c 0,1.657 -1.343,3 -3,3 h -3.116 v 18.135 h 3.116 c 1.657,0 3,1.343 3,3 v 41.763 c 0,3.994 1.24,9.305 11.961,9.305 h 31.519 c 10.183,0 11.488,-4.972 11.488,-9.305 v -38.492 h -23.45 v 26.666 c 0,1.657 -1.343,3 -3,3 h -1.596 c -1.657,0 -3,-1.343 -3,-3 v -29.936 c 0,-1.657 1.343,-3 3,-3 h 28.047 V 238.17 h -28.047 c -1.659,-10e-4 -3.002,-1.343 -3.002,-3.001 z"
           id="path967-4-6" />
        <path
           style="fill:#f4f4f4"
           d="m 310.535,287.453 h -23.45 v 1.786 c 0,1.657 -1.343,3 -3,3 h -1.6 c -1.657,0 -3,-1.343 -3,-3 v -5.533 c 0,-1.657 1.343,-3 3,-3 h 28.051 v -38.492 c 0,-6.264 -3.759,-9.31 -11.491,-9.31 h -31.519 c -10.721,0 -11.961,5.313 -11.961,9.31 v 58.854 c 0,3.994 1.24,9.305 11.961,9.305 47.033,-10e-4 43.009,3.397 43.009,-22.92 z m -30.551,-33.434 c 0,-1.105 0.896,-2 2,-2 h 2.6 c 1.104,0 2,0.895 2,2 v 6.055 c 0,1.104 -0.896,2 -2,2 h -2.6 c -1.104,0 -2,-0.896 -2,-2 z"
           id="path969-6-0" />
      </g>
      <g
         id="g981-5-7">
        <path
           style="fill:#eae8e8"
           d="m 268.266,301.067 v -58.854 c 0,-3.996 1.24,-9.31 11.961,-9.31 -12.816,0 -24.663,-2.066 -24.663,9.31 v 58.854 c 0,3.994 1.24,9.305 11.961,9.305 h 12.702 c -10.72,0 -11.961,-5.311 -11.961,-9.305 z"
           id="path973-6-5" />
        <path
           style="fill:#eae8e8"
           d="m 109.085,207.069 h 12.269 c 1.656,0 3,-1.343 3,-3 0,-2.157 -1.488,-3.27 -3,-3.27 h -12.269 c 3.995,-0.001 4.011,6.27 0,6.27 z"
           id="path975-2-8" />
        <rect
           x="80.565002"
           y="207.073"
           style="fill:#eae8e8"
           width="12.268"
           height="17.656"
           id="rect977-6-1" />
        <path
           style="fill:#eae8e8"
           d="m 104.793,200.798 c -10.603,0 -11.962,-4.717 -11.962,-8.827 v -57.42 c 0,-3.994 1.239,-9.306 11.962,-9.306 H 92.525 c -10.723,0 -11.962,5.311 -11.962,9.306 v 57.42 c 0,10.755 11.423,8.827 24.23,8.827 z"
           id="path979-0-5" />
      </g>
      <g
         id="g984-4-5">
        <path
           id="SVGCleanerId_0_1_-0-7"
           style="fill:#818689"
           d="M 27.033,477.472 V 34.527 C 27.033,19.601 39.133,7.5 54.06,7.5 H 34.528 C 19.601,7.5 7.5,19.601 7.5,34.527 v 442.945 c 0,14.927 12.101,27.027 27.027,27.027 H 54.059 C 39.133,504.5 27.033,492.399 27.033,477.472 Z" />
      </g>
      <g
         id="g996-1-7">
        <path
           style="fill:#eae8e8"
           d="m 201.773,224.725 h -3.857 c -4.618,0 -6.123,-1.281 -7.666,-2.323 -2.808,-1.92 -4.293,-4.17 -4.293,-6.507 v -30.397 c 0,-7.066 -4.796,-10.407 -11.775,-10.407 0,14.41 0,25.978 0,40.803 0,3.366 2.767,5.269 4.477,6.644 5.859,4.703 14.34,-0.565 14.34,5.187 v 82.647 h 11.775 v -82.647 c -0.001,-1.657 -1.345,-3 -3.001,-3 z"
           id="path986-0-1" />
        <path
           style="fill:#eae8e8"
           d="m 388.155,301.067 v -41.763 c 0,-1.657 -1.344,-3 -3,-3 h -3.116 v -18.135 h 3.116 c 1.656,0 3,-1.343 3,-3 v -2.265 h -11.689 v 2.265 c 0,1.657 -1.344,3 -3,3 h -3.116 v 18.135 h 3.116 c 1.656,0 3,1.343 3,3 v 41.763 c 0,3.994 1.239,9.305 11.96,9.305 h 11.689 c -10.72,0 -11.96,-5.311 -11.96,-9.305 z"
           id="path988-3-1" />
        <path
           style="fill:#eae8e8"
           d="m 243.815,333.388 h 6.303 c 1.657,0 3,-1.343 3,-3 v -1.786 h -11.666 c 0,1.581 0.121,2.218 -0.319,3.107 0.491,0.992 1.502,1.679 2.682,1.679 z"
           id="path990-2-1" />
        <path
           style="fill:#eae8e8"
           d="M 186.316,396.764 V 328.602 H 174.65 v 68.162 c 0,11.372 11.079,9.311 23.155,9.311 -10.183,0.001 -11.489,-4.977 -11.489,-9.311 z"
           id="path992-4-6" />
        <path
           style="fill:#eae8e8"
           d="m 253.118,396.764 v -42.24 c 0,-1.657 -1.343,-3 -3,-3 h -6.303 c -1.181,0 -2.191,0.688 -2.681,1.679 0.198,0.4 0.319,0.845 0.319,1.321 v 42.24 c 0,4.334 1.306,9.311 11.49,9.311 h 11.666 c -10.185,0.001 -11.491,-4.977 -11.491,-9.311 z"
           id="path994-9-1" />
      </g>
      <path
         d="m 281.985,262.075 h 2.6 c 1.104,0 2,-0.896 2,-2 v -6.055 c 0,-1.105 -0.896,-2 -2,-2 h -2.6 c -1.104,0 -2,0.895 -2,2 v 6.055 c 0,1.104 0.895,2 2,2 z"
         id="path998-4-4" />
      <path
         d="m 234.246,172.59 h -2.127 c -1.105,0 -2,0.895 -2,2 v 6.05 c 0,1.104 0.895,2 2,2 h 2.127 c 1.105,0 2,-0.896 2,-2 v -6.05 c 0,-1.104 -0.895,-2 -2,-2 z"
         id="path1000-2-4" />
      <path
         d="m 109.585,143.878 h -2.599 c -1.104,0 -2,0.896 -2,2 v 34.763 c 0,1.104 0.896,2 2,2 h 2.599 c 1.104,0 2,-0.896 2,-2 v -34.763 c 0,-1.104 -0.895,-2 -2,-2 z"
         id="path1002-0-5" />
      <path
         d="m 171.681,143.878 h -2.129 c -1.104,0 -2,0.896 -2,2 v 6.054 c 0,1.104 0.896,2 2,2 4.996,0 4.129,-0.322 4.129,-8.054 10e-4,-1.104 -0.896,-2 -2,-2 z"
         id="path1004-2-3" />
      <path
         d="m 356.784,182.641 h 2.599 c 1.104,0 2,-0.896 2,-2 v -34.763 c 0,-1.104 -0.896,-2 -2,-2 h -2.599 c -1.105,0 -2,0.896 -2,2 v 34.763 c -10e-4,1.104 0.895,2 2,2 z"
         id="path1006-2-9" />
      <path
         d="m 333.784,214.076 c 0.681,0 1.335,-0.23 1.86,-0.646 4.457,0.862 2.092,0.646 60.436,0.646 1.657,0 3,-1.343 3,-3 V 95.829 c 0,-1.657 -1.343,-3 -3,-3 h -44.472 c -1.657,0 -3,1.343 -3,3 v 16.14 h -5.814 c -6.693,0 -12.256,1.576 -16.537,4.686 -7.348,-4.788 -13.753,-5.283 -22.372,-4.24 -0.471,-0.29 -1.015,-0.445 -1.573,-0.445 -47.875,0 -45.303,-0.291 -46.486,0.68 -4.381,-0.895 -4.777,-0.68 -38.163,-0.68 -6.287,0 -11.588,1.395 -15.76,4.146 -8.387,-5.527 -8.252,-4.146 -109.376,-4.146 -18.627,0 -25.237,12.165 -25.237,22.582 v 57.416 c 0,0.877 0.048,1.766 0.141,2.643 l 0.073,0.69 c -0.141,0.353 -0.214,0.729 -0.214,1.111 v 38.585 c 0,1.657 1.344,3 3,3 h 40.279 v 28.585 c 0,1.657 1.343,3 3,3 h 3.115 v 31.484 c 0,3.237 0.676,9.285 5.042,14.484 -17.105,0.782 -23.209,12.443 -23.209,22.359 0,25.405 -0.182,24.387 0.307,25.384 -0.426,2.952 -0.307,0.456 -0.307,33.47 0,10.337 6.562,22.405 25.057,22.405 57.434,0 54.112,0.309 55.314,-0.721 2.219,0.479 4.659,0.721 7.254,0.721 32.822,0 40.885,1.503 49.077,-5.818 4.296,3.861 10.257,5.818 17.725,5.818 33.598,0 39.285,1.088 47.043,-4.227 7.768,5.322 13.5,4.227 47.043,4.227 18.495,0 25.058,-12.069 25.058,-22.405 V 337.91 c 0,-8.373 -4.412,-18.354 -16.758,-21.452 V 289.2 h 7.861 v 11.866 c 0,10.418 6.609,22.582 25.238,22.582 h 31.517 c 18.261,0 24.767,-11.666 24.767,-22.582 v -73.174 c 0,-1.657 -1.343,-3 -3,-3 h -28.05 v -2.261 c 0,-0.796 -0.316,-1.559 -0.879,-2.121 -0.563,-0.562 -1.325,-0.879 -2.121,-0.879 l -80.248,0.002 -0.68,0.022 c -5.881,0.337 -10.87,1.813 -14.834,4.389 -4.153,-2.929 -9.486,-4.413 -15.856,-4.413 -33.515,0 -39.371,-1.072 -47.278,4.145 -4.168,-2.75 -9.469,-4.145 -15.761,-4.145 h -6.281 v -5.556 h 104.058 v 0.001 z m -2.948,-79.525 c 0,-3.994 1.239,-9.306 11.957,-9.306 h 16.089 c 1.657,0 3,-1.343 3,-3 v -16.141 h 23.92 v 94.694 h -43.01 c -10.598,0 -11.957,-4.717 -11.957,-8.827 z m 39.514,103.618 h 3.116 c 1.657,0 3,-1.343 3,-3 v -2.265 h 23.92 v 2.265 c 0,1.657 1.343,3 3,3 h 28.047 v 18.135 h -28.047 c -1.657,0 -3,1.343 -3,3 v 29.936 c 0,1.657 1.343,3 3,3 h 1.596 c 1.657,0 3,-1.343 3,-3 v -26.666 h 23.45 v 38.492 c 0,4.332 -1.306,9.305 -11.488,9.305 h -31.519 c -10.721,0 -11.961,-5.31 -11.961,-9.305 v -41.763 c 0,-1.657 -1.343,-3 -3,-3 h -3.116 z M 268.267,125.246 h 23.449 c 0,3.089 2.635,3.968 4.371,3.075 3.972,-2.04 9.083,-3.075 15.189,-3.075 2.657,0 5.365,0.923 8.05,2.742 2.631,1.785 3.91,3.932 3.91,6.562 v 66.247 h -23.921 v -54.42 c 0,-1.657 -1.343,-3 -3,-3 h -1.599 c -1.657,0 -3,1.343 -3,3 v 54.42 H 268.267 Z M 80.564,224.725 v -17.656 h 28.522 c 4.042,0 3.934,-6.27 0,-6.27 H 92.525 c -10.602,0 -11.962,-4.717 -11.962,-8.827 v -57.42 c 0,-3.994 1.239,-9.306 11.962,-9.306 h 43.008 v 90.648 c 0,4.111 -1.359,8.831 -11.96,8.831 H 80.564 Z m 86.018,181.351 h -43.01 c -10.721,0 -11.961,-5.314 -11.961,-9.311 v -29.666 c 0,-5.856 4.024,-8.827 11.961,-8.827 h 16.559 c 1.657,0 3,-1.343 3,-3 v -5.533 c 0,-1.657 -1.343,-3 -3,-3 h -1.599 c -1.656,0 -3,1.343 -3,3 v 1.786 h -23.92 c 0,-26.401 -3.871,-22.922 43.011,-22.922 10.72,0 11.96,5.313 11.96,9.31 v 68.163 z m -24.661,-95.704 c -10.721,0 -11.96,-5.31 -11.96,-9.305 v -41.763 c 0,-1.657 -1.344,-3 -3,-3 h -3.116 v -18.135 h 3.116 c 1.656,0 3,-1.343 3,-3 v -2.265 h 23.919 v 2.265 c 0,1.657 1.344,3 3,3 h 28.048 v 18.135 H 156.88 c -1.656,0 -3,1.343 -3,3 v 29.936 c 0,1.657 1.344,3 3,3 h 1.597 c 1.656,0 3,-1.343 3,-3 v -26.666 h 23.45 v 38.492 c 0,6.261 -3.758,9.305 -11.488,9.305 z m 19.362,-90.741 h -12.754 c 0.323,-2.138 0.28,-3.52 0.28,-5.556 h 12.095 v 1.818 c 0,1.241 0.127,2.496 0.379,3.738 z m 157.32,22.583 c 0,-5.728 4.013,-8.86 11.841,-9.305 l 33.721,-0.005 v 18.614 h -19.114 c -1.657,0 -3,1.343 -3,3 v 0.267 c 0,1.657 1.343,3 3,3 h 19.113 v 18.138 h -19.113 c -1.657,0 -3,1.343 -3,3 v 31.446 h -23.447 z m -3.094,86.388 h 31.52 c 10.721,0 11.961,5.313 11.961,9.31 v 58.854 c 0,3.996 -1.24,9.311 -11.961,9.311 h -31.52 c -7.731,0 -11.49,-3.045 -11.49,-9.311 v -58.854 c 0,-6.265 3.759,-9.31 11.49,-9.31 z m -59.944,-86.388 c 0,-3.996 1.24,-9.31 11.961,-9.31 h 31.519 c 7.731,0 11.491,3.045 11.491,9.31 v 38.492 h -28.051 c -1.657,0 -3,1.343 -3,3 v 5.533 c 0,1.657 1.343,3 3,3 h 1.6 c 1.657,0 3,-1.343 3,-3 v -1.786 h 23.45 c 0,26.628 3.654,22.917 -43.01,22.917 -10.721,0 -11.961,-5.31 -11.961,-9.305 v -58.851 z m 9.339,86.388 v 1.786 c 0,1.657 1.343,3 3,3 h 28.046 v 18.136 h -28.046 c -1.657,0 -3,1.343 -3,3 v 30.413 c 0,1.657 1.343,3 3,3 h 1.596 c 1.657,0 3,-1.343 3,-3 v -26.666 h 23.449 v 38.492 c 0,6.266 -3.758,9.311 -11.49,9.311 h -31.517 c -10.185,0 -11.49,-4.977 -11.49,-9.311 v -42.24 c 0,-1.657 -1.343,-3 -3,-3 h -6.303 c -1.657,0 -3,1.343 -3,3 v 42.24 c 0,6.266 -3.758,9.311 -11.489,9.311 h -31.52 c -10.185,0 -11.49,-4.977 -11.49,-9.311 v -68.162 h 23.45 v 56.335 c 0,1.657 1.344,3 3,3 h 1.598 c 1.657,0 3,-1.343 3,-3 v -56.335 h 23.449 v 1.786 c 0,1.657 1.343,3 3,3 h 6.303 c 1.657,0 3,-1.343 3,-3 v -1.786 h 23.454 z m -28.899,-95.697 c 10.721,0 11.961,5.313 11.961,9.31 v 68.157 h -23.92 V 254.52 c 0,-1.657 -1.343,-3 -3,-3 h -1.598 c -1.657,0 -3,1.343 -3,3 v 55.852 H 193 v -82.647 c 0,-1.657 -1.344,-3 -3,-3 h -3.857 c -2.214,0 -5.066,-0.248 -7.482,-2.187 -0.059,-0.048 -0.121,-0.094 -0.184,-0.137 -2.809,-1.92 -4.293,-4.17 -4.293,-6.507 v -40.803 c 0,-1.657 -1.344,-3 -3,-3 h -1.129 c -1.657,0 -3,1.343 -3,3 v 25.708 h -23.92 v -75.553 h 43.01 c 10.722,0 11.961,5.311 11.961,9.306 v 20.575 c 0,5.27 -4.004,5.109 -3.957,8.125 0.014,0.937 0.464,1.814 1.218,2.37 1.869,1.379 2.739,3.214 2.739,5.773 v 32.672 c 0,1.657 1.344,3 3,3 h 15.346 v 22.836 c 0,1.657 1.343,3 3,3 h 16.557 v 0.002 z M 217.66,200.798 c -10.602,0 -11.961,-4.717 -11.961,-8.827 v -28.713 c 0,-5.856 4.024,-8.827 11.961,-8.827 h 16.086 c 1.657,0 3,-1.343 3,-3 v -5.054 c 0,-1.657 -1.343,-3 -3,-3 h -1.127 c -1.657,0 -3,1.343 -3,3 v 1.786 H 205.7 c 0,-26.407 -3.858,-22.918 43.008,-22.918 10.721,0 11.96,5.311 11.96,9.306 v 66.247 z"
         id="path1008-3-5" />
      <path
         d="m 329.97,387.437 h 2.598 c 1.104,0 2,-0.896 2,-2 v -36.199 c 0,-1.104 -0.896,-2 -2,-2 h -2.598 c -1.105,0 -2,0.896 -2,2 v 36.199 c 0,1.104 0.896,2 2,2 z"
         id="path1010-3-1" />
      <path
         d="m 140.632,376.904 h -2.599 c -1.105,0 -2,0.896 -2,2 v 6.533 c 0,1.104 0.895,2 2,2 h 2.599 c 1.104,0 2,-0.896 2,-2 v -6.533 c 0,-1.105 -0.896,-2 -2,-2 z"
         id="path1012-3-4" />
      <path
         d="m 504.499,256.538 c -4.142,0 -7.5,3.357 -7.5,7.5 v 213.434 c 0,10.768 -8.76,19.526 -19.526,19.526 H 34.528 c -10.767,0 -19.526,-8.76 -19.526,-19.526 V 34.527 c 0,-10.767 8.76,-19.526 19.526,-19.526 h 203.97 c 4.142,0 7.5,-3.358 7.5,-7.5 0,-4.143 -3.358,-7.5 -7.5,-7.5 H 34.528 C 15.49,0 0.001,15.489 0.001,34.527 v 442.945 c 0,19.038 15.489,34.527 34.527,34.527 h 442.943 c 19.038,0 34.527,-15.489 34.527,-34.527 V 264.038 c 0.001,-4.142 -3.357,-7.5 -7.499,-7.5 z"
         id="path1014-7-3" />
      <path
         d="m 477.471,0 h -203.97 c -4.142,0 -7.5,3.357 -7.5,7.5 0,4.142 3.358,7.5 7.5,7.5 h 203.97 c 10.767,0 19.526,8.76 19.526,19.526 v 194.509 c 0,4.143 3.358,7.5 7.5,7.5 4.142,0 7.5,-3.357 7.5,-7.5 V 34.527 C 511.999,15.489 496.509,0 477.471,0 Z"
         id="path1016-4-1" />
      <g
         id="g1018-4-0" />
      <g
         id="g1020-5-8" />
      <g
         id="g1022-2-1" />
      <g
         id="g1024-1-7" />
      <g
         id="g1026-8-7" />
      <g
         id="g1028-6-2" />
      <g
         id="g1030-0-4" />
      <g
         id="g1032-1-3" />
      <g
         id="g1034-6-7" />
      <g
         id="g1036-9-5" />
      <g
         id="g1038-5-0" />
      <g
         id="g1040-4-4" />
      <g
         id="g1042-1-6" />
      <g
         id="g1044-7-6" />
      <g
         id="g1046-8-0" />
    </g>
    <g
       transform="matrix(0.01755063,0,0,0.01581602,7.0727725,3.9874583)"
       id="g1380-7-1">
      <g
         id="g1301-5-6">
        <path
           style="fill:#35495e"
           d="M 459.034,44.138 V 485.517 H 17.655 C 7.916,485.489 0.029,477.601 0,467.862 V 44.138 Z"
           id="path1253-6-8" />
        <path
           style="fill:#a5a5a4"
           d="M 459.034,17.655 V 70.621 H 0 V 17.655 C 0.028,7.916 7.916,0.028 17.655,0 h 423.724 c 9.739,0.028 17.627,7.916 17.655,17.655 z"
           id="path1255-8-1" />
        <path
           style="fill:#cc4b4c"
           d="m 35.31,44.138 c -2.337,-0.035 -4.575,-0.949 -6.268,-2.56 -3.414,-3.481 -3.414,-9.054 0,-12.535 3.54,-3.268 8.996,-3.268 12.535,0 3.414,3.481 3.414,9.054 0,12.535 -1.692,1.611 -3.93,2.525 -6.267,2.56 z"
           id="path1257-3-8" />
        <path
           style="fill:#f0c419"
           d="m 70.621,44.138 c -2.348,0.023 -4.607,-0.9 -6.267,-2.56 -1.66,-1.66 -2.583,-3.919 -2.56,-6.267 0.014,-0.593 0.073,-1.184 0.177,-1.767 0.095,-0.554 0.272,-1.09 0.526,-1.59 0.195,-0.562 0.463,-1.095 0.797,-1.586 0.353,-0.444 0.707,-0.884 1.06,-1.323 3.539,-3.268 8.995,-3.268 12.535,0 0.353,0.44 0.707,0.879 1.056,1.323 0.334,0.491 0.603,1.025 0.797,1.586 0.253,0.502 0.432,1.038 0.53,1.591 0.102,0.584 0.161,1.175 0.177,1.767 0.023,2.348 -0.9,4.607 -2.56,6.267 -1.662,1.659 -3.92,2.582 -6.268,2.559 z"
           id="path1259-2-8" />
        <path
           style="fill:#14a085"
           d="m 105.931,44.138 c -1.155,-0.014 -2.296,-0.254 -3.358,-0.707 -1.068,-0.449 -2.051,-1.076 -2.91,-1.853 -3.414,-3.481 -3.414,-9.054 0,-12.534 0.857,-0.78 1.841,-1.409 2.909,-1.858 2.151,-0.879 4.561,-0.879 6.711,0 1.07,0.449 2.056,1.077 2.915,1.857 3.414,3.481 3.414,9.054 0,12.534 -0.86,0.778 -1.845,1.405 -2.914,1.854 -1.06,0.453 -2.2,0.693 -3.353,0.707 z"
           id="path1261-9-5" />
        <g
           id="g1267-8-2">
          <path
             style="fill:#f29c1f"
             d="M 132.414,123.586 H 44.138 c -4.875,0 -8.828,-3.952 -8.828,-8.828 0,-4.876 3.952,-8.828 8.828,-8.828 h 88.276 c 4.875,0 8.828,3.952 8.828,8.828 0,4.876 -3.953,8.828 -8.828,8.828 z"
             id="path1263-7-1" />
          <path
             style="fill:#f29c1f"
             d="M 132.414,158.897 H 70.621 c -4.875,0 -8.828,-3.952 -8.828,-8.828 0,-4.876 3.952,-8.828 8.828,-8.828 h 61.793 c 4.875,0 8.828,3.952 8.828,8.828 0,4.876 -3.953,8.828 -8.828,8.828 z"
             id="path1265-4-6" />
        </g>
        <g
           id="g1273-2-8">
          <path
             style="fill:#14a085"
             d="M 335.448,194.207 H 44.138 c -4.875,0 -8.828,-3.952 -8.828,-8.828 0,-4.875 3.952,-8.828 8.828,-8.828 h 291.31 c 4.875,0 8.828,3.952 8.828,8.828 0,4.876 -3.952,8.828 -8.828,8.828 z"
             id="path1269-4-0" />
          <path
             style="fill:#14a085"
             d="M 308.966,229.517 H 44.138 c -4.875,0 -8.828,-3.952 -8.828,-8.828 0,-4.876 3.952,-8.828 8.828,-8.828 h 264.828 c 4.875,0 8.828,3.952 8.828,8.828 0,4.876 -3.953,8.828 -8.828,8.828 z"
             id="path1271-8-9" />
        </g>
        <g
           id="g1281-4-1">
          <path
             style="fill:#f29c1f"
             d="m 79.448,264.828 h -35.31 c -4.875,0 -8.828,-3.952 -8.828,-8.828 0,-4.876 3.952,-8.828 8.828,-8.828 h 35.31 c 4.875,0 8.828,3.952 8.828,8.828 0,4.876 -3.952,8.828 -8.828,8.828 z"
             id="path1275-7-0" />
          <path
             style="fill:#f29c1f"
             d="M 185.379,300.138 H 61.793 c -4.875,0 -8.828,-3.952 -8.828,-8.828 0,-4.876 3.952,-8.828 8.828,-8.828 h 123.586 c 4.875,0 8.828,3.952 8.828,8.828 0,4.876 -3.952,8.828 -8.828,8.828 z"
             id="path1277-0-4" />
          <path
             style="fill:#f29c1f"
             d="M 167.724,370.759 H 61.793 c -4.875,0 -8.828,-3.952 -8.828,-8.828 0,-4.876 3.952,-8.828 8.828,-8.828 h 105.931 c 4.875,0 8.828,3.952 8.828,8.828 0,4.876 -3.953,8.828 -8.828,8.828 z"
             id="path1279-7-7" />
        </g>
        <path
           style="fill:#14a085"
           d="M 176.552,406.069 H 79.448 c -4.875,0 -8.828,-3.952 -8.828,-8.828 0,-4.875 3.952,-8.828 8.828,-8.828 h 97.103 c 4.875,0 8.828,3.952 8.828,8.828 0,4.876 -3.952,8.828 -8.827,8.828 z"
           id="path1283-6-8" />
        <g
           id="g1289-5-4">
          <path
             style="fill:#f29c1f"
             d="M 123.586,335.448 H 44.138 c -4.875,0 -8.828,-3.952 -8.828,-8.828 0,-4.876 3.952,-8.828 8.828,-8.828 h 79.448 c 4.875,0 8.828,3.952 8.828,8.828 0,4.876 -3.952,8.828 -8.828,8.828 z"
             id="path1285-0-8" />
          <path
             style="fill:#f29c1f"
             d="M 176.552,450.207 H 44.138 c -4.875,0 -8.828,-3.952 -8.828,-8.828 0,-4.876 3.952,-8.828 8.828,-8.828 h 132.414 c 4.875,0 8.828,3.952 8.828,8.828 0,4.876 -3.953,8.828 -8.828,8.828 z"
             id="path1287-4-2" />
        </g>
        <path
           style="fill:#14a085"
           d="m 150.069,264.828 h -35.31 c -4.875,0 -8.828,-3.952 -8.828,-8.828 0,-4.876 3.952,-8.828 8.828,-8.828 h 35.31 c 4.875,0 8.828,3.952 8.828,8.828 0,4.876 -3.953,8.828 -8.828,8.828 z"
           id="path1291-0-8" />
        <path
           style="fill:#bdc3c7"
           d="m 264.828,441.379 56.492,-72.632 c 3.345,-4.301 8.488,-6.816 13.936,-6.816 h 106.316 c 5.448,0 10.591,2.515 13.936,6.816 L 512,441.379 v 26.483 H 264.828 Z"
           id="path1293-4-6" />
        <path
           style="fill:#a5a5a4"
           d="m 406.069,287.691 v 100.723 c 0,4.875 -3.952,8.828 -8.828,8.828 h -17.655 c -4.875,0 -8.828,-3.952 -8.828,-8.828 V 287.691 Z"
           id="path1295-4-3" />
        <circle
           style="fill:#cc4b4c"
           cx="388.414"
           cy="247.172"
           r="44.138"
           id="circle1297-0-1" />
        <path
           style="fill:#95a5a5"
           d="M 264.828,441.379 H 512 v 52.966 C 512,504.096 504.095,512 494.345,512 H 282.483 c -9.751,0 -17.655,-7.905 -17.655,-17.655 z"
           id="path1299-1-7" />
      </g>
      <g
         id="g1303-3-1" />
      <g
         id="g1305-2-8" />
      <g
         id="g1307-6-2" />
      <g
         id="g1309-6-8" />
      <g
         id="g1311-4-6" />
      <g
         id="g1313-7-3" />
      <g
         id="g1315-8-8" />
      <g
         id="g1317-3-4" />
      <g
         id="g1319-9-0" />
      <g
         id="g1321-4-4" />
      <g
         id="g1323-5-2" />
      <g
         id="g1325-4-9" />
      <g
         id="g1327-1-3" />
      <g
         id="g1329-8-5" />
      <g
         id="g1331-0-9" />
    </g>
    <g
       transform="matrix(0.01232793,-0.00648927,0.00776289,0.01250079,2.6667355,8.2853103)"
       id="filled_outline-9-0"
       data-name="filled outline">
      <path
         d="m 200,192 h -48 v -24 h 40 a 8,8 0 0 1 8,8 z"
         fill="#d8595a"
         id="path1382-0-3" />
      <path
         d="m 312,192 h 48 v -24 h -40 a 8,8 0 0 0 -8,8 z"
         fill="#d8595a"
         id="path1384-2-6" />
      <path
         d="M 408,328 V 192 H 104 v 136 l -16,56 h 52.145 a 48,48 0 0 0 41.675,-24.185 l 14.149,-24.761 A 14,14 0 0 1 208.125,328 h 95.75 a 14,14 0 0 1 12.156,7.054 l 14.149,24.76 A 48,48 0 0 0 371.855,384 H 424 Z"
         fill="#0292c9"
         id="path1386-8-1" />
      <path
         d="m 216,240 h -16 v -16 h -32 v 16 h -16 v 32 h 16 v 16 h 32 v -16 h 16 z"
         fill="#026ca2"
         id="path1388-1-5" />
      <circle
         cx="288"
         cy="256"
         fill="#fbb540"
         r="16"
         id="circle1390-5-9" />
      <circle
         cx="320"
         cy="224"
         fill="#2ad3b3"
         r="16"
         id="circle1392-5-2" />
      <circle
         cx="320"
         cy="288"
         fill="#faa6b2"
         r="16"
         id="circle1394-4-0" />
      <circle
         cx="352"
         cy="256"
         fill="#2cbff4"
         r="16"
         id="circle1396-2-3" />
      <path
         d="m 80,416 40,-56 a 43.593,43.593 0 0 0 28.961,-32.807 L 152,312 169.373,294.627 A 22.627,22.627 0 0 0 176,278.627 22.628,22.628 0 0 0 153.373,256 h -1.436 a 22.63,22.63 0 0 0 -14.135,4.958 L 104,288 v -64 l 24,-32 h 40 v -14 a 18,18 0 0 0 -18,-18 h -37.532 a 32,32 0 0 0 -26.04,13.4 L 61.961,207.655 A 32,32 0 0 0 56,226.255 V 312 l -32,48 z"
         fill="#fdc9a6"
         id="path1398-9-3" />
      <path
         d="M 432,416 392,360 A 43.593,43.593 0 0 1 363.039,327.193 L 360,312 342.627,294.627 A 22.627,22.627 0 0 1 336,278.627 22.628,22.628 0 0 1 358.627,256 h 1.436 a 22.63,22.63 0 0 1 14.135,4.958 L 408,288 v -64 l -24,-32 h -40 v -14 a 18,18 0 0 1 18,-18 h 37.532 a 32,32 0 0 1 26.04,13.4 l 24.467,34.255 a 32,32 0 0 1 5.961,18.6 V 312 l 32,48 z"
         fill="#fdc9a6"
         id="path1400-4-3" />
      <path
         d="m 240,304 h -16 a 8,8 0 0 1 0,-16 h 16 a 8,8 0 0 1 0,16 z"
         fill="#026ca2"
         id="path1402-2-1" />
      <path
         d="m 288,304 h -16 a 8,8 0 0 1 0,-16 h 16 a 8,8 0 0 1 0,16 z"
         fill="#026ca2"
         id="path1404-1-9" />
      <path
         d="m 280,192 h -48 l 8,-24 h 32 z"
         fill="#026ca2"
         id="path1406-7-3" />
      <g
         fill="#fbb540"
         id="g1416-6-7">
        <path
           d="M 63.994,152 A 8,8 0 0 1 56.845,140.42 36.744,36.744 0 0 1 89.889,120 H 96 a 8,8 0 0 1 0,16 H 89.889 A 20.833,20.833 0 0 0 71.155,147.578 8,8 0 0 1 63.994,152 Z"
           id="path1408-0-0" />
        <path
           d="M 47.994,128 A 8,8 0 0 1 40.845,116.42 36.744,36.744 0 0 1 73.889,96 H 80 a 8,8 0 0 1 0,16 H 73.889 A 20.833,20.833 0 0 0 55.155,123.578 8,8 0 0 1 47.994,128 Z"
           id="path1410-2-3" />
        <path
           d="M 448.006,152 A 8,8 0 0 1 440.845,147.576 20.833,20.833 0 0 0 422.111,136 H 416 a 8,8 0 0 1 0,-16 h 6.111 a 36.744,36.744 0 0 1 33.044,20.422 8,8 0 0 1 -7.149,11.578 z"
           id="path1412-2-5" />
        <path
           d="M 464.006,128 A 8,8 0 0 1 456.845,123.576 20.833,20.833 0 0 0 438.111,112 H 432 a 8,8 0 0 1 0,-16 h 6.111 a 36.744,36.744 0 0 1 33.044,20.422 8,8 0 0 1 -7.149,11.578 z"
           id="path1414-8-3" />
      </g>
      <circle
         cx="288"
         cy="256"
         r="16"
         id="circle1418-0-0" />
      <circle
         cx="320"
         cy="224"
         r="16"
         id="circle1420-4-9" />
      <path
         d="m 240,288 h -16 a 8,8 0 0 0 0,16 h 16 a 8,8 0 0 0 0,-16 z"
         id="path1422-3-0" />
      <path
         d="m 288,288 h -16 a 8,8 0 0 0 0,16 h 16 a 8,8 0 0 0 0,-16 z"
         id="path1424-9-9" />
      <path
         d="m 56.845,140.422 a 8,8 0 1 0 14.31,7.156 A 20.833,20.833 0 0 1 89.889,136 H 96 a 8,8 0 0 0 0,-16 h -6.111 a 36.744,36.744 0 0 0 -33.044,20.422 z"
         id="path1426-0-2" />
      <path
         d="m 80,96 h -6.111 a 36.744,36.744 0 0 0 -33.044,20.422 8,8 0 1 0 14.31,7.156 A 20.833,20.833 0 0 1 73.889,112 H 80 a 8,8 0 0 0 0,-16 z"
         id="path1428-6-1" />
      <path
         d="m 416,120 a 8,8 0 0 0 0,16 h 6.111 a 20.833,20.833 0 0 1 18.734,11.578 8,8 0 1 0 14.31,-7.156 A 36.744,36.744 0 0 0 422.111,120 Z"
         id="path1430-4-6" />
      <path
         d="m 438.111,112 a 20.833,20.833 0 0 1 18.734,11.578 8,8 0 1 0 14.31,-7.156 A 36.744,36.744 0 0 0 438.111,96 H 432 a 8,8 0 0 0 0,16 z"
         id="path1432-3-9" />
      <path
         d="m 18.343,365.657 56,56 A 8,8 0 0 0 80,424 q 0.328,0 0.66,-0.027 a 8,8 0 0 0 5.85,-3.323 L 106.974,392 h 33.171 a 56.125,56.125 0 0 0 48.622,-28.216 l 14.147,-24.76 A 6.016,6.016 0 0 1 208.125,336 h 95.75 a 6.014,6.014 0 0 1 5.21,3.023 l 14.148,24.761 A 56.125,56.125 0 0 0 371.855,392 h 33.171 l 20.464,28.65 a 8,8 0 0 0 5.85,3.323 Q 431.672,424 432,424 a 8,8 0 0 0 5.657,-2.343 l 56,-56 a 8,8 0 0 0 1,-10.095 L 464,309.578 v -83.323 a 39.774,39.774 0 0 0 -7.451,-23.25 L 432.081,168.75 A 40.077,40.077 0 0 0 399.532,152 H 362 a 25.921,25.921 0 0 0 -18.735,8 H 320 a 16.019,16.019 0 0 0 -16,16 v 8 H 285.766 L 279.59,165.47 A 8,8 0 0 0 272,160 h -32 a 8,8 0 0 0 -7.59,5.47 L 226.234,184 H 208 v -8 A 16.019,16.019 0 0 0 192,160 H 168.735 A 25.921,25.921 0 0 0 150,152 H 112.468 A 40.077,40.077 0 0 0 79.919,168.75 L 55.451,203.005 A 39.774,39.774 0 0 0 48,226.255 v 83.323 l -30.656,45.984 a 8,8 0 0 0 0.999,10.095 z M 371.855,376 A 40.085,40.085 0 0 1 337.126,355.845 L 322.977,331.084 A 22.052,22.052 0 0 0 303.875,320 h -95.75 a 22.054,22.054 0 0 0 -19.1,11.085 l -14.148,24.761 A 40.086,40.086 0 0 1 140.145,376 H 118.4 l 6.665,-9.332 a 51.715,51.715 0 0 0 31.738,-37.906 l 2.563,-12.818 15.661,-15.66 A 30.9,30.9 0 0 0 178.6,296 H 200 a 8,8 0 0 0 8,-8 v -8 h 8 a 8,8 0 0 0 8,-8 v -32 a 8,8 0 0 0 -8,-8 h -8 v -8 a 8,8 0 0 0 -8,-8 h -32 a 8,8 0 0 0 -8,8 v 8 h -8 a 8,8 0 0 0 -8,8 v 9.063 a 30.7,30.7 0 0 0 -11.195,5.648 L 112,271.355 V 226.667 L 132,200 h 248 l 20,26.667 v 44.688 L 379.2,254.711 A 30.722,30.722 0 0 0 366.209,248.653 15.994,15.994 0 0 0 336,256 a 16.255,16.255 0 0 0 0.12,1.883 30.536,30.536 0 0 0 -7.814,16.461 16,16 0 1 0 5.333,21.99 30.938,30.938 0 0 0 3.331,3.95 l 15.661,15.66 2.563,12.817 a 51.715,51.715 0 0 0 31.738,37.907 L 393.6,376 Z M 200,248 h 8 v 16 h -8 a 8,8 0 0 0 -8,8 v 8 h -8.033 c 0.02,-0.456 0.033,-0.913 0.033,-1.373 a 30.676,30.676 0 0 0 -24,-29.9 V 248 h 8 a 8,8 0 0 0 8,-8 v -8 h 16 v 8 a 8,8 0 0 0 8,8 z m 199.532,-80 a 24.049,24.049 0 0 1 19.53,10.05 l 24.467,34.256 A 23.86,23.86 0 0 1 448,226.255 V 312 a 8,8 0 0 0 1.344,4.438 l 28.362,42.542 -44.685,44.686 -34.511,-48.316 a 7.993,7.993 0 0 0 -3.981,-2.939 35.669,35.669 0 0 1 -23.645,-26.787 l -3.039,-15.193 a 8.008,8.008 0 0 0 -2.188,-4.088 L 348.284,288.971 A 14.628,14.628 0 0 1 358.627,264 h 1.435 a 14.679,14.679 0 0 1 9.139,3.206 L 403,294.247 A 8,8 0 0 0 416,288 v -64 a 8,8 0 0 0 -1.6,-4.8 l -24,-32 A 8,8 0 0 0 384,184 h -32 v -6 a 10.011,10.011 0 0 1 10,-10 z M 320,176 h 16.084 c -0.05,0.661 -0.084,1.326 -0.084,2 v 6 h -16 z m -74.234,0 h 20.468 l 2.666,8 H 243.1 Z M 192,176 v 8 h -16 v -6 c 0,-0.674 -0.034,-1.339 -0.084,-2 z M 62.656,316.438 A 8,8 0 0 0 64,312 v -85.745 a 23.865,23.865 0 0 1 4.471,-13.95 L 92.938,178.05 A 24.049,24.049 0 0 1 112.468,168 H 150 a 10.011,10.011 0 0 1 10,10 v 6 h -32 a 8,8 0 0 0 -6.4,3.2 l -24,32 A 8,8 0 0 0 96,224 v 64 a 8,8 0 0 0 13,6.247 l 33.8,-27.041 A 14.679,14.679 0 0 1 151.938,264 h 1.435 a 14.628,14.628 0 0 1 10.343,24.971 l -17.373,17.372 a 8.008,8.008 0 0 0 -2.188,4.088 l -3.039,15.193 a 35.669,35.669 0 0 1 -23.645,26.787 7.993,7.993 0 0 0 -3.981,2.939 L 78.979,403.666 34.294,358.98 Z"
         id="path1434-2-9" />
    </g>
  </g>
</svg>
