<?xml version="1.0" encoding="UTF-8" standalone="no"?>
<svg
   xmlns:dc="http://purl.org/dc/elements/1.1/"
   xmlns:cc="http://creativecommons.org/ns#"
   xmlns:rdf="http://www.w3.org/1999/02/22-rdf-syntax-ns#"
   xmlns:svg="http://www.w3.org/2000/svg"
   xmlns="http://www.w3.org/2000/svg"
   xmlns:sodipodi="http://sodipodi.sourceforge.net/DTD/sodipodi-0.dtd"
   xmlns:inkscape="http://www.inkscape.org/namespaces/inkscape"
   inkscape:version="1.0 (4035a4fb49, 2020-05-01)"
   height="50"
   width="59"
   sodipodi:docname="telefono.svg"
   xml:space="preserve"
   viewBox="0 0 58.999999 49.999999"
   y="0px"
   x="0px"
   id="Capa_1"
   version="1.1"><metadata
   id="metadata45"><rdf:RDF><cc:Work
       rdf:about=""><dc:format>image/svg+xml</dc:format><dc:type
         rdf:resource="http://purl.org/dc/dcmitype/StillImage" /><dc:title></dc:title></cc:Work></rdf:RDF></metadata><defs
   id="defs43" /><sodipodi:namedview
   inkscape:current-layer="g8"
   inkscape:window-maximized="1"
   inkscape:window-y="-8"
   inkscape:window-x="-8"
   inkscape:cy="44.778831"
   inkscape:cx="-1.2994562"
   inkscape:zoom="3.8781761"
   showgrid="false"
   id="namedview41"
   inkscape:window-height="745"
   inkscape:window-width="1366"
   inkscape:pageshadow="2"
   inkscape:pageopacity="0"
   guidetolerance="10"
   gridtolerance="10"
   objecttolerance="10"
   borderopacity="1"
   bordercolor="#666666"
   pagecolor="#ffffff" />
<path
   id="path2"
   d="m 48.52624,32.777897 c -2.937102,0.0056 -5.856245,-0.451236 -8.646706,-1.353123 -1.304664,-0.448896 -2.754781,-0.146746 -3.762596,0.783929 l -5.475192,4.064284 C 24.761715,33.368155 19.990709,28.674644 17.037433,22.889438 l 4.021389,-5.257555 c 1.015307,-0.999718 1.378401,-2.473373 0.941333,-3.819592 -0.920045,-2.749428 -1.386846,-5.6259402 -1.382803,-8.5204744 0,-2.0681262 -1.703913,-3.7446976 -3.805768,-3.7446976 H 7.9314189 c -2.1018543,0 -3.8057681,1.6765714 -3.8057681,3.7446976 C 4.1535994,29.408722 24.016022,48.952416 48.52624,48.979916 c 2.101854,0 3.805768,-1.676571 3.805768,-3.744697 v -8.712624 c 0,-2.068127 -1.703914,-3.744698 -3.805768,-3.744698 z"
   style="fill:#009688;stroke-width:0.117972" />
<g
   id="g8">
	<path
   id="path4"
   d="m 51.063498,21.518878 c -0.700619,0 -1.26863,-0.558895 -1.26863,-1.248271 -0.01118,-8.957433 -7.388185,-16.2160619 -16.491701,-16.227062 -0.700618,0 -1.268629,-0.558896 -1.268629,-1.2482715 0,-0.6893754 0.568011,-1.2481545 1.268629,-1.2481545 10.504752,0.011 19.017661,8.3873031 19.028841,18.723488 0,0.689376 -0.567892,1.248271 -1.26851,1.248271 z"
   style="fill:#455a64;stroke-width:0.117972" />
	<path
   id="path6"
   d="m 40.914703,21.518878 c -0.700618,0 -1.268629,-0.558895 -1.268629,-1.248271 0,-3.446877 -2.839817,-6.241124 -6.342907,-6.241124 -0.700618,0 -1.268629,-0.558896 -1.268629,-1.248272 0,-0.689375 0.568011,-1.24827 1.268629,-1.24827 4.904446,0 8.880165,3.912038 8.880165,8.737666 0,0.689376 -0.568011,1.248271 -1.268629,1.248271 z"
   style="fill:#455a64;stroke-width:0.117972" />
</g>
<g
   id="g10">
</g>
<g
   id="g12">
</g>
<g
   id="g14">
</g>
<g
   id="g16">
</g>
<g
   id="g18">
</g>
<g
   id="g20">
</g>
<g
   id="g22">
</g>
<g
   id="g24">
</g>
<g
   id="g26">
</g>
<g
   id="g28">
</g>
<g
   id="g30">
</g>
<g
   id="g32">
</g>
<g
   id="g34">
</g>
<g
   id="g36">
</g>
<g
   id="g38">
</g>
</svg>
