<?xml version="1.0" encoding="UTF-8" standalone="no"?>
<svg
   xmlns:dc="http://purl.org/dc/elements/1.1/"
   xmlns:cc="http://creativecommons.org/ns#"
   xmlns:rdf="http://www.w3.org/1999/02/22-rdf-syntax-ns#"
   xmlns:svg="http://www.w3.org/2000/svg"
   xmlns="http://www.w3.org/2000/svg"
   xmlns:sodipodi="http://sodipodi.sourceforge.net/DTD/sodipodi-0.dtd"
   xmlns:inkscape="http://www.inkscape.org/namespaces/inkscape"
   width="134pc"
   height="47pc"
   viewBox="0 0 567.26654 198.96668"
   version="1.1"
   id="svg8"
   inkscape:version="1.0 (4035a4fb49, 2020-05-01)"
   sodipodi:docname="header.svg">
  <defs
     id="defs2" />
  <sodipodi:namedview
     id="base"
     pagecolor="#ffffff"
     bordercolor="#666666"
     borderopacity="1.0"
     inkscape:pageopacity="0.0"
     inkscape:pageshadow="2"
     inkscape:zoom="0.32435157"
     inkscape:cx="1637.2664"
     inkscape:cy="299.16997"
     inkscape:document-units="mm"
     inkscape:current-layer="layer1"
     inkscape:document-rotation="0"
     showgrid="false"
     units="pc"
     objecttolerance="1"
     inkscape:window-width="1366"
     inkscape:window-height="745"
     inkscape:window-x="-8"
     inkscape:window-y="-8"
     inkscape:window-maximized="1" />
  <metadata
     id="metadata5">
    <rdf:RDF>
      <cc:Work
         rdf:about="">
        <dc:format>image/svg+xml</dc:format>
        <dc:type
           rdf:resource="http://purl.org/dc/dcmitype/StillImage" />
        <dc:title></dc:title>
      </cc:Work>
    </rdf:RDF>
  </metadata>
  <g
     inkscape:label="Capa 1"
     inkscape:groupmode="layer"
     id="layer1">
    <g
       id="g978"
       transform="matrix(2.0052716,0,0,1.7940161,282.50696,-42.326705)">
      <path
         d="M -38.524145,81.636042 A 49.196407,50.154774 0 0 1 -89.007796,130.44242 49.196407,50.154774 0 0 1 -136.88236,78.976086 49.196407,50.154774 0 0 1 -86.400199,30.168104 49.196407,50.154774 0 0 1 -38.524064,81.632918"
         sodipodi:arc-type="arc"
         sodipodi:open="true"
         sodipodi:end="0.026473852"
         sodipodi:start="0.02653616"
         sodipodi:ry="50.154774"
         sodipodi:rx="49.196407"
         sodipodi:cy="80.305283"
         sodipodi:cx="-87.703232"
         sodipodi:type="arc"
         id="path24"
         style="fill:#000000;fill-opacity:1;stroke:#000000;stroke-width:1.84171;stroke-linecap:round;stroke-linejoin:round;stroke-miterlimit:4;stroke-dasharray:none;stroke-opacity:1;paint-order:stroke fill markers" />
      <path
         sodipodi:nodetypes="cccccccccccccc"
         id="path853"
         d="m -103.07229,46.226361 c -10.99294,4.78959 -17.44864,13.021224 -20.85739,23.564337 -1.5575,0.643632 -2.78514,2.362083 -1.14525,4.862114 -1.08701,10.675723 0.11283,20.985548 8.22496,30.189408 0.24574,0.71008 0.5338,1.38018 1.59641,1.31877 3.99659,4.88496 8.80823,8.54736 16.206987,8.32907 1.603045,-0.7327 1.876964,0.11932 2.325201,0.7635 1.298179,0.22478 2.621844,0.41261 3.01929,1.94345 16.164311,4.86397 36.933415,-4.75817 43.033545,-28.041215 2.20504,-1.272214 2.03984,-3.056914 0.83291,-5.066853 0.91821,-14.567756 -4.44421,-24.136641 -12.563019,-31.511663 -0.321652,-3.019965 -2.022214,-2.799493 -3.609266,-2.845768 -9.040492,-6.559211 -19.866717,-8.173315 -32.309866,-5.309783 -1.854082,-0.898564 -3.544532,-0.885413 -4.754512,1.804633 z"
         style="fill:#ffffff;fill-opacity:1;stroke:#010400;stroke-width:0.264583px;stroke-linecap:butt;stroke-linejoin:miter;stroke-opacity:1" />
      <path
         style="fill:#0c8200;fill-opacity:1;stroke:#88f900;stroke-width:0.264583px;stroke-linecap:butt;stroke-linejoin:miter;stroke-opacity:1"
         d="m -103.39162,56.038878 c 15.53783,1.4421 24.034283,1.654133 30.956397,-1.943451 2.451407,4.229526 5.103016,8.419013 6.940894,12.771246 l -0.416454,0.832909 c -7.690292,0.299149 -16.880361,-1.317387 -17.144011,8.467892 -0.20792,8.243316 2.66091,15.915896 4.491255,24.039316 0.78908,2.63089 -0.308261,3.58496 -1.853713,4.14072 l -14.575881,6.38562 c -1.418798,0.40403 -2.025747,0.0639 -1.874041,-0.97172 1.355826,-10.587156 3.480629,-20.825256 4.123876,-31.887464 1.035571,-5.940333 -1.185527,-8.546962 -5.512055,-8.994413 l -10.341937,0.555271 c -1.10336,0.282077 -1.42291,-0.03421 -1.11054,-0.832906 1.43877,-3.825787 2.66463,-7.535994 6.31621,-12.56302 z"
         id="path849-1"
         sodipodi:nodetypes="cccccccccccccc" />
      <path
         sodipodi:nodetypes="ccccccccccccccccccccccccccccccccccccccccccccccccccccccccccc"
         style="fill:#0c0c0c;fill-opacity:1;stroke:#000000;stroke-width:0.264583px;stroke-linecap:butt;stroke-linejoin:miter;stroke-opacity:1"
         d="m -64.737782,56.239946 c -1.838052,-0.349845 -3.66612,-0.712447 -3.877286,-3.141091 -8.252394,-5.26785 -17.446967,-7.461223 -28.182698,-4.625552 -1.248059,1.40815 -2.748729,2.083729 -4.650394,1.596406 -7.79569,3.751924 -14.54134,9.498892 -18.43049,20.67324 0.86913,1.816864 0.70071,3.512681 -1.20244,5.006113 -0.74877,7.914301 0.53232,15.422628 4.36296,22.421048 l 1.46811,-5.351165 6.09746,0.80488 0.0347,1.214657 c -0.36581,0.436893 -0.72861,0.87476 -0.10411,1.631108 l -0.27764,3.366336 c -0.35951,0.545304 -0.57573,1.081064 0.0347,1.561704 l -0.0347,1.73522 c 0.48032,0.45704 0.75074,0.28522 0.97173,-0.0347 l 0.0347,-1.63111 c 0.50084,-0.68366 0.30577,-1.13535 0.13882,-1.596405 l -0.0347,-3.331628 c 0.3476,-0.616581 0.27443,-1.183659 0.0694,-1.735225 v -1.075838 c -0.008,-0.548903 0.0697,-0.773836 0.45115,0.138816 l 1.24936,12.87536 c 1.51543,0.71045 3.03086,2.17741 4.54629,4.12983 2.565378,-0.34528 3.125242,0.86209 3.713381,2.04757 6.358182,1.59855 12.511509,3.437 23.703155,-0.62468 l 5.27508,-17.213423 -1.00643,-2.568131 0.242932,-1.284065 1.179952,-1.839338 1.179952,-3.26222 -0.104114,-3.574561 c -3.632633,-7.647194 4.979224,-9.481183 5.795655,-1.526997 l 1.24936,8.814937 -0.58998,-0.104113 0.27764,3.192812 -7.392059,-0.06941 -0.971727,7.530869 -0.24293,1.31877 -0.31234,2.18638 0.902316,0.0347 0.242933,-2.08227 0.138816,-1.45758 0.937022,-6.732672 0.104113,4.858626 -0.03471,1.214657 -0.03471,4.407469 0.156173,1.09319 -0.0347,1.40553 0.989076,0.0174 v -1.47494 l -0.104114,-1.24936 -0.104113,-4.164543 -0.08676,-1.284063 -0.138819,-4.702458 6.003873,0.05206 1.50964,6.090635 c 1.85276,-3.316636 3.88095,-6.172768 5.03215,-11.331012 -1.77647,-3.169354 -0.26568,-3.687692 0.69409,-4.650401 0.71074,-16.861402 -5.50064,-21.507307 -10.834745,-27.701332 z"
         id="path851-3" />
      <path
         sodipodi:nodetypes="ccccccccccccccccccccccccccccccccc"
         id="path873"
         d="m -115.41559,91.927874 7.16562,0.539874 -0.2454,-1.423307 c -0.0492,-0.215274 0.32172,-0.204301 0.68711,-0.196318 l 3.92637,2.527596 c 0.36566,0.132625 0.78446,0.487401 0.90797,-0.392636 v -1.398765 c 0.20043,-0.992479 0.55183,-0.135759 0.83435,-0.122701 1.30329,0.425309 2.164821,0.04594 2.99385,-0.392636 0.220778,-0.262988 0.110691,-0.411445 -0.269936,-0.466254 -0.766624,-0.01253 -1.270684,-0.172761 -1.668704,-0.392636 -0.49247,-0.278125 -0.54694,-0.475139 -0.41718,-0.638035 0.36418,-0.153126 0.87079,-0.254458 1.00613,-0.490794 0.30033,-0.55507 0.13572,-0.669055 -0.46625,-0.368099 -0.45155,0.261498 -0.93265,0.518328 -1.81594,0.711655 -0.18361,-0.220858 -0.16698,-0.441717 -0.0982,-0.662575 l -5.22698,-0.760733 c -0.38045,-0.478343 0.13628,-0.798871 0.32918,-0.909205 0.28242,-0.0717 0.72087,0.02564 0.48063,-0.61226 l -1.47238,-3.852743 -1.49693,-1.742324 c -0.81053,-0.695778 -0.49115,-0.638271 0,-0.466256 0.83061,0.141916 0.71245,-0.08343 0.88097,-0.197807 0.24068,-0.744436 0.023,-1.761437 -0.11279,-2.904368 -0.16168,-1.283044 -0.23444,-2.315004 -0.91542,-2.959149 -2.0433,-0.05414 -4.08584,-0.09207 -6.06132,1.30061 1.56877,1.444636 2.90057,2.991144 1.03067,5.914083 l -0.95705,1.791403 c -0.32016,2.184039 -0.34356,4.368079 -0.51533,6.552118 -0.0472,0.977527 0.23272,0.459906 0.39263,0.490797 l 0.19632,-0.368096 c 0.49715,-0.369766 0.34815,0.006 0.46626,0.07362 0.14502,0.606066 -0.14026,1.358171 0.44171,1.815941 z"
         style="fill:#fefefe;fill-opacity:1;stroke:#ffffff;stroke-width:0.065;stroke-linecap:butt;stroke-linejoin:miter;stroke-miterlimit:4;stroke-dasharray:none;stroke-opacity:1" />
      <path
         sodipodi:nodetypes="csc"
         id="path875"
         d="m -109.13341,82.308284 c 8.06373,-13.76576 -14.18063,-14.185478 -6.9265,-0.61439 0.0651,0.12187 0.79205,1.424819 0.86199,1.548945"
         style="fill:none;stroke:#ffffff;stroke-width:0.665;stroke-linecap:butt;stroke-linejoin:miter;stroke-miterlimit:4;stroke-dasharray:none;stroke-opacity:1" />
      <path
         sodipodi:nodetypes="ccccccccccc"
         id="path877"
         d="m -69.722535,94.627249 -1.20245,-0.858894 c -0.642063,-0.653563 0.0039,-1.049514 0.269939,-1.521465 v -0.294476 l -0.515337,-0.515337 0.04908,-0.80981 0.466257,0.196318 0.02453,0.588955 0.368099,-0.245398 -0.245399,1.374227 z"
         style="fill:none;stroke:#ffffff;stroke-width:0.1;stroke-linecap:butt;stroke-linejoin:miter;stroke-miterlimit:4;stroke-dasharray:none;stroke-opacity:1" />
      <path
         id="path879"
         d="m -71.734797,93.989214 -1.447845,-2.282198 0.441714,0.932511 -1.251527,0.02455 -0.417177,-0.907971 0.319016,-0.564414 0.09816,-1.030671 -0.245399,-0.638035 1.423308,-1.177909 -0.07362,0.613494 h 1.742323 l 0.147238,-0.613494 0.932514,1.104291 1.030668,-0.269938 -1.226987,1.595085"
         style="fill:none;stroke:#ffffff;stroke-width:0.264583px;stroke-linecap:butt;stroke-linejoin:miter;stroke-opacity:1" />
      <path
         sodipodi:nodetypes="ccccccccccccccccc"
         id="path881"
         d="m -71.759338,87.976971 0.02453,-1.96318 0.809813,-0.220861 0.04908,-4.049061 -0.95705,-0.834351 -0.04908,-0.736195 c 0.775599,-1.366989 -1.492532,-0.811871 -0.588954,-0.07362 l -0.02455,0.539875 -1.325148,1.055211 0.220859,4.122679 1.030668,0.269939 0.147241,1.963182 -0.245399,0.147238 -0.122697,0.613494 1.570542,0.04908 0.07362,-0.736196 z"
         style="fill:none;stroke:#ffffff;stroke-width:0.264583px;stroke-linecap:butt;stroke-linejoin:miter;stroke-opacity:1" />
      <path
         style="fill:none;stroke:#ffffff;stroke-width:0.665;stroke-linecap:butt;stroke-linejoin:miter;stroke-miterlimit:4;stroke-dasharray:none;stroke-opacity:1"
         d="m -63.029845,81.837169 c 0.07095,-0.145777 1.126518,-1.15718 1.188698,-1.298984 3.91278,-8.923546 -9.289641,-9.978881 -9.03508,-3.102243 0.05164,1.394994 -0.01672,2.848694 1.710489,4.351836 0.321754,0.280014 1.625486,0.596447 2.084243,0.879832"
         id="path875-7"
         sodipodi:nodetypes="csssc" />
      <path
         sodipodi:nodetypes="cccccccccccccc"
         id="path849-1-5"
         d="m -103.08246,55.723361 c 15.537831,1.4421 24.034284,1.654133 30.956401,-1.943451 2.4514,4.229527 5.10301,8.419013 6.94089,12.771247 l -0.41645,0.832909 c -7.6903,0.299149 -16.880365,-1.317387 -17.144014,8.467892 -0.20792,8.243315 2.660909,15.915896 4.491254,24.039313 0.78908,2.630889 -0.30826,3.584969 -1.853713,4.140719 l -14.575881,6.38562 c -1.418798,0.40404 -2.025747,0.0639 -1.874041,-0.97172 1.355826,-10.587153 3.48063,-20.825253 4.123876,-31.88746 1.035572,-5.940333 -1.185527,-8.546962 -5.512055,-8.994413 l -10.341937,0.555271 c -1.10336,0.282077 -1.42291,-0.03421 -1.11054,-0.832906 1.43877,-3.825787 2.66463,-7.535994 6.31621,-12.563021 z"
         style="fill:#ffffff;fill-opacity:1;stroke:#000000;stroke-width:0.264583px;stroke-linecap:butt;stroke-linejoin:miter;stroke-opacity:1" />
      <path
         id="path934"
         d="m -54.409717,59.437218 2.50305,3.288329 2.94478,-1.423304 0.73619,1.570545 -3.53373,1.668703 1.99321,3.756914 6.90619,-5.518009 -2.88047,-5.309786 z"
         style="fill:#ffffff;fill-opacity:1;stroke:#000000;stroke-width:0.264583px;stroke-linecap:butt;stroke-linejoin:miter;stroke-opacity:1" />
      <path
         id="path936"
         d="m -47.614547,60.4899 0.58998,1.70052 1.11054,-0.7635 -0.52056,-1.041133 z"
         style="fill:#000000;fill-opacity:1;stroke:#000000;stroke-width:0.264583px;stroke-linecap:butt;stroke-linejoin:miter;stroke-opacity:1" />
      <path
         sodipodi:nodetypes="ccccccccccccc"
         id="path938"
         d="m -53.256347,50.431125 0.95705,1.104289 c 0.76216,-0.348623 1.31307,-0.855679 1.81594,-1.398768 -1.60308,-1.868258 -3.36607,-3.768497 -5.12881,-5.668687 -0.63573,0.588955 -1.32679,1.177909 -1.52147,1.766864 0.45464,0.397944 1.13191,0.746417 1.32515,1.202449 l -2.65029,2.920232 -1.07976,-0.95705 -1.75459,1.631894 c 1.67268,1.018644 3.0543,2.677645 4.40489,4.404889 l 1.66871,-1.263799 -1.00614,-1.361958 z"
         style="fill:#ffffff;fill-opacity:1;stroke:#000000;stroke-width:0.264583px;stroke-linecap:butt;stroke-linejoin:miter;stroke-opacity:1" />
      <path
         sodipodi:nodetypes="ccccscccccc"
         id="path940"
         d="m -67.538495,46.897397 2.552134,0.613495 c 1.386964,-2.18318 2.952194,-3.918065 4.638014,-5.34967 -0.33476,-0.686649 -2.305929,-1.432075 -3.754581,-1.840483 -0.103832,-0.242276 -1.221175,3.293713 -1.128829,3.411028 0.06071,0.07713 -1.32515,-5.717766 -1.32515,-5.717766 -0.948039,-0.791723 -2.146253,-1.388542 -3.656425,-1.742324 -1.029535,2.299565 -2.455591,4.655775 -3.067471,6.895675 l 3.018393,1.546005 c 0.605701,-0.936877 0.89151,-2.321603 1.177908,-3.705505 z"
         style="fill:#ffffff;fill-opacity:1;stroke:#000000;stroke-width:0.264583px;stroke-linecap:butt;stroke-linejoin:miter;stroke-opacity:1" />
      <path
         sodipodi:nodetypes="cccccccc"
         id="path942"
         d="m -84.05376,38.136699 3.877283,5.128812 4.073602,-0.552144 -4.049062,-4.073602 c 8.344014,-0.099 1.138418,-5.661294 -6.969296,-5.030653 l -0.110427,7.325121 3.190169,0.147239 z"
         style="fill:#ffffff;fill-opacity:1;stroke:#000000;stroke-width:0.264583px;stroke-linecap:butt;stroke-linejoin:miter;stroke-opacity:1" />
      <path
         sodipodi:nodetypes="ccccc"
         id="path944"
         d="m -84.066032,34.823831 c -0.03912,0.428291 -0.06271,0.864348 -0.03681,1.325147 1.002226,0.08403 2.061087,0.135698 2.846612,0.343557 1.642799,-0.109086 0.927794,-0.874822 0.110429,-1.153369 -0.782543,-0.256608 -1.849995,-0.38659 -2.920231,-0.515335 z"
         style="fill:#000000;fill-opacity:1;stroke:#000000;stroke-width:0.264583px;stroke-linecap:butt;stroke-linejoin:miter;stroke-opacity:1" />
      <path
         sodipodi:nodetypes="ccccccccccccc"
         id="path946"
         d="m -101.82293,36.214119 c 1.12664,1.821032 1.943446,3.883049 2.238438,6.350919 2.338468,-0.74321 5.124734,-0.712951 7.964678,-0.589976 l -0.433806,-2.863119 -4.494231,1.110543 c -0.27322,-0.217337 -0.454246,-0.59354 -0.503213,-1.197304 l 3.609266,-0.503215 c -0.02906,-0.726607 -0.191404,-1.436555 -0.589979,-2.116973 l -3.522504,0.989077 c -0.129038,-0.166368 -0.272061,-0.276799 -0.31234,-0.798203 l 4.719809,-0.989077 c 0.247575,-0.864949 -0.278105,-1.432492 -0.589976,-2.082269 z"
         style="fill:#ffffff;fill-opacity:1;stroke:#000000;stroke-width:0.264583px;stroke-linecap:butt;stroke-linejoin:miter;stroke-opacity:1" />
      <path
         sodipodi:nodetypes="cccccccc"
         id="path948"
         d="m -106.17834,36.439698 c -0.0894,3.22624 0.001,6.395273 0.91967,9.300798 -0.93976,-2.08e-4 -1.86536,0.240115 -2.75901,1.023784 -1.85463,-1.900627 -4.11312,-3.434108 -6.47238,-4.875979 l 2.67224,-2.464018 c 1.1898,1.450078 2.36544,2.886005 3.64397,4.424821 -0.55745,-2.006845 -1.48814,-3.973331 -2.30785,-5.951818 1.43445,-0.560781 2.86891,-1.035435 4.30336,-1.457588 z"
         style="fill:#ffffff;fill-opacity:1;stroke:#000000;stroke-width:0.264583px;stroke-linecap:butt;stroke-linejoin:miter;stroke-opacity:1" />
      <path
         sodipodi:nodetypes="ccccccc"
         id="path950"
         d="m -113.77862,50.321489 c -1.94493,1.671885 -3.20867,3.389183 -3.76544,5.153613 -2.20604,-2.023539 -4.8936,-3.458542 -7.49616,-4.997445 l 3.03664,-4.077774 c 1.20499,1.796185 1.87478,3.715878 4.18189,5.257728 l 2.06491,-3.17546 c 0.85414,0.499508 1.66951,1.021631 1.97816,1.839338 z"
         style="fill:#ffffff;fill-opacity:1;stroke:#000000;stroke-width:0.264583px;stroke-linecap:butt;stroke-linejoin:miter;stroke-opacity:1" />
      <path
         sodipodi:nodetypes="ccccccccc"
         id="path952"
         d="m -123.63469,64.064461 c -0.62889,1.019522 -1.09949,2.308137 -1.26671,4.112479 -2.20192,-1.864404 -3.98172,-4.096308 -6.87149,-5.361842 l 2.3599,-5.865055 c 3.33484,1.379309 5.75531,1.517692 8.5026,2.099622 -0.47323,0.968282 -0.92479,1.394613 -1.44024,3.41839 -1.14196,-0.45928 -2.37898,-1.207855 -3.38368,-1.249363 -0.25274,0.425951 -0.58348,0.175851 -0.71144,1.683168 0.43254,0.538604 1.83417,0.869545 2.84576,1.284066"
         style="fill:#ffffff;fill-opacity:1;stroke:#000000;stroke-width:0.264583px;stroke-linecap:butt;stroke-linejoin:miter;stroke-opacity:1" />
      <path
         id="path954"
         d="m -128.7536,60.17756 -0.38175,0.971724 1.00643,0.989079 0.85026,-1.544349 z"
         style="fill:#000000;fill-opacity:1;stroke:#000000;stroke-width:0.065;stroke-linecap:butt;stroke-linejoin:miter;stroke-miterlimit:4;stroke-dasharray:none;stroke-opacity:1" />
    </g>
    <text
       xml:space="preserve"
       style="font-style:normal;font-variant:normal;font-weight:normal;font-stretch:normal;font-size:75.611px;line-height:1.25;font-family:'Berlin Sans FB Demi';-inkscape-font-specification:'Berlin Sans FB Demi, Normal';font-variant-ligatures:normal;font-variant-caps:normal;font-variant-numeric:normal;font-variant-east-asian:normal;letter-spacing:0px;word-spacing:0px;fill:#ffffff;fill-opacity:1;stroke-width:0.841811"
       x="223.22369"
       y="104.82263"
       id="text114"
       transform="scale(1.066376,0.93775557)"><tspan
         sodipodi:role="line"
         id="tspan112"
         x="223.22369"
         y="104.82263"
         style="font-style:normal;font-variant:normal;font-weight:normal;font-stretch:normal;font-size:75.611px;font-family:'Berlin Sans FB Demi';-inkscape-font-specification:'Berlin Sans FB Demi, Normal';font-variant-ligatures:normal;font-variant-caps:normal;font-variant-numeric:normal;font-variant-east-asian:normal;fill:#ffffff;fill-opacity:1;stroke-width:0.841811">Alvernia</tspan></text>
    <text
       xml:space="preserve"
       style="font-style:normal;font-variant:normal;font-weight:normal;font-stretch:normal;font-size:26.6863px;line-height:1.25;font-family:'Berlin Sans FB';-inkscape-font-specification:'Berlin Sans FB, Normal';font-variant-ligatures:normal;font-variant-caps:normal;font-variant-numeric:normal;font-variant-east-asian:normal;letter-spacing:0px;word-spacing:0px;fill:#ffffff;fill-opacity:1;stroke-width:0.841811"
       x="307.59445"
       y="153.99588"
       id="text118"
       transform="scale(1.066376,0.93775557)"><tspan
         sodipodi:role="line"
         id="tspan116"
         x="307.59445"
         y="153.99588"
         style="font-style:normal;font-variant:normal;font-weight:normal;font-stretch:normal;font-size:26.6863px;font-family:'Berlin Sans FB';-inkscape-font-specification:'Berlin Sans FB, Normal';font-variant-ligatures:normal;font-variant-caps:normal;font-variant-numeric:normal;font-variant-east-asian:normal;fill:#ffffff;fill-opacity:1;stroke-width:0.841811">Ometepec</tspan></text>
  </g>
</svg>
