<svg width="769" height="1025" viewBox="0 0 769 1025" fill="none" xmlns="http://www.w3.org/2000/svg">
<g clip-path="url(#clip0)">
<rect width="768" height="1024" transform="translate(0.737305 0.0499878)" fill="#3C576A"/>
<path opacity="0.98" d="M195.112 95.107L182.838 103.868L196.212 110.836L181.178 109.657L186.945 123.591L176.185 113.025L171.646 127.406L170.196 112.395L157.475 120.494L166.012 108.063L151.062 106.09L165.592 102.055L155.408 90.9339L169.132 97.1832L168.479 82.1171L174.976 95.7262L184.16 83.7652L180.389 98.3663L195.112 95.107Z" fill="#063885"/>
<path opacity="0.93" d="M334.637 11.3717L340.008 -3.81136L324.04 -1.71433L337.914 -9.8927L324.334 -18.5503L340.219 -15.8972L335.381 -31.2585L345.844 -19.0154L352.012 -33.8926L352.158 -17.7882L366.446 -25.2201L356.206 -12.7898L371.928 -9.29898L356.093 -6.35902L365.893 6.42113L351.874 -1.50492L351.166 14.5846L345.521 -0.498771L334.637 11.3717Z" fill="#063885"/>
<path opacity="0.97" d="M456.923 12.0319L467.501 18.0125L468.035 5.87222L472.295 17.2533L480.507 8.29653L476.455 19.7528L488.503 18.1705L478.035 24.3415L488.281 30.874L476.295 28.8722L479.946 40.4629L472.051 31.225L467.397 42.4505L467.287 30.299L456.506 35.9067L464.233 26.5274L452.37 23.8935L464.318 21.6751L456.923 12.0319Z" fill="#063885"/>
<path opacity="0.82" d="M703.023 88.7644L710.96 94.0145L712.041 84.5594L714.746 93.6832L721.652 87.1346L717.86 95.8632L727.359 95.2852L718.843 99.5342L726.492 105.197L717.237 102.979L719.456 112.233L713.793 104.585L709.544 113.1L710.122 103.601L701.393 107.393L707.942 100.488L698.818 97.7822L708.273 96.7019L703.023 88.7644Z" fill="#063885"/>
<path opacity="0.79" d="M79.8149 403.741L73.1526 419.84L90.5221 418.479L75.0705 426.529L89.2514 436.651L72.2404 432.885L76.5973 449.754L65.9866 435.935L58.4809 451.658L59.2353 434.252L43.379 441.472L55.1455 428.623L38.3579 423.961L55.6309 421.682L45.7671 407.32L60.4643 416.677L62.1397 399.335L67.3842 415.949L79.8149 403.741Z" fill="#063885"/>
<path opacity="0.83" d="M261.754 357.334L274.41 358.772L269.953 346.839L278.724 356.076L282.98 344.07L283.761 356.784L294.738 350.322L287.165 360.564L299.727 362.67L287.343 365.648L295.612 375.336L284.211 369.657L284.318 382.394L279.235 370.714L271.13 380.54L274.744 368.326L262.218 370.643L272.838 363.609L261.754 357.334Z" fill="#063885"/>
<path opacity="0.98" d="M365.909 335.17L372.219 321.312L357.006 321.972L370.747 315.412L358.67 306.139L373.413 309.947L370.122 295.08L378.968 307.473L386.004 293.969L384.814 309.149L398.883 303.327L388.214 314.191L402.735 318.774L387.578 320.238L395.756 333.083L383.204 324.463L381.212 339.558L377.138 324.887L365.909 335.17Z" fill="#063885"/>
<path opacity="0.72" d="M638.998 407.515L626.923 406.143L631.175 417.527L622.808 408.715L618.748 420.169L618.002 408.04L607.529 414.204L614.755 404.433L602.77 402.424L614.585 399.583L606.696 390.34L617.573 395.759L617.471 383.607L622.32 394.75L630.053 385.375L626.605 397.028L638.554 394.817L628.423 401.528L638.998 407.515Z" fill="#063885"/>
<path opacity="0.98" d="M96.8263 391.239L110.576 391.835L104.873 379.31L115.022 388.604L118.705 375.344L120.505 388.988L131.85 381.196L124.459 392.806L138.158 394.129L125.033 398.272L134.677 408.091L121.96 402.829L123.035 416.549L116.677 404.344L108.681 415.545L111.656 402.108L98.3304 405.55L109.246 397.168L96.8263 391.239Z" fill="#063885"/>
<path opacity="0.95" d="M285.823 617.937L281.971 629.462L293.99 627.67L283.631 634.023L293.99 640.375L281.971 638.583L285.823 650.108L277.768 641.009L273.311 652.315L272.989 640.167L262.307 645.962L269.869 636.449L257.962 634.023L269.869 631.596L262.307 622.083L272.989 627.878L273.311 615.731L277.768 627.036L285.823 617.937Z" fill="#063885"/>
<path opacity="0.85" d="M439.549 594.64L453.54 601.011L452.874 585.652L459.497 599.526L468.859 587.332L465.015 602.217L480.024 598.894L467.512 607.825L481.146 614.928L465.82 613.727L471.698 627.932L460.73 617.16L456.102 631.82L454.624 616.518L441.656 624.774L450.359 612.102L435.118 610.091L449.931 605.978L439.549 594.64Z" fill="#063885"/>
<path opacity="0.99" d="M725.441 467.58L716.293 455.226L709.429 468.981L710.363 453.637L696.263 459.762L706.842 448.608L692.103 444.237L707.377 442.492L698.896 429.669L711.718 438.15L713.463 422.877L717.834 437.615L728.989 427.037L722.863 441.137L738.208 440.203L724.452 447.067L736.807 456.215L721.857 452.631L725.441 467.58Z" fill="#063885"/>
<path opacity="0.98" d="M69.2792 609.586L76.1352 594.529L59.6064 595.246L74.5368 588.118L61.4145 578.043L77.4332 582.18L73.8575 566.027L83.4691 579.493L91.1131 564.82L89.8203 581.314L105.107 574.987L93.515 586.791L109.292 591.771L92.8243 593.362L101.709 607.319L88.0716 597.952L85.9069 614.354L81.4805 598.413L69.2792 609.586Z" fill="#063885"/>
<path d="M316.356 723.297L304.628 730.774L316.61 737.838L302.819 736.026L307.458 749.139L298.058 738.887L293.183 751.914L292.572 738.018L280.464 744.864L288.928 733.826L275.252 731.287L288.831 728.272L279.987 717.537L292.326 723.956L292.452 710.047L297.779 722.896L306.815 712.322L302.637 725.589L316.356 723.297Z" fill="#063885"/>
<path opacity="0.96" d="M505.615 668.213L501.489 660.292L496.3 667.561L498.231 658.841L489.583 661.075L496.667 655.636L488.607 651.788L497.53 652.175L493.829 644.047L500.415 650.078L502.805 641.473L503.973 650.327L511.335 645.271L506.539 652.805L515.429 653.664L506.912 656.352L513.17 662.724L504.917 659.309L505.615 668.213Z" fill="#063885"/>
<path opacity="0.86" d="M694.335 662.019L701.063 651.032L688.219 650.017L700.436 645.925L691.249 636.891L703.238 641.609L702.008 628.784L708.159 640.105L715.46 629.489L712.895 642.115L725.312 638.676L715.231 646.7L726.954 652.047L714.074 651.714L719.617 663.344L709.965 654.81L706.735 667.283L704.826 654.541L694.335 662.019Z" fill="#063885"/>
<path opacity="0.78" d="M140.731 927.377L146.075 937.635L152.795 928.221L150.295 939.514L161.494 936.621L152.32 943.665L162.758 948.648L151.203 948.147L155.996 958.674L147.466 950.862L144.371 962.007L142.858 950.54L133.324 957.088L139.535 947.331L128.022 946.219L139.052 942.737L130.948 934.485L141.635 938.908L140.731 927.377Z" fill="#063885"/>
<path opacity="0.85" d="M231.729 926.249L225.282 917.541L220.444 927.236L221.102 916.422L211.165 920.739L218.62 912.877L208.233 909.797L218.997 908.567L213.021 899.53L222.057 905.507L223.287 894.743L226.367 905.13L234.229 897.675L229.912 907.612L240.726 906.954L231.032 911.791L239.739 918.239L229.203 915.713L231.729 926.249Z" fill="#063885"/>
<path opacity="0.9" d="M418.923 897.652L410.806 882.071L400.599 896.371L404.396 879.217L387.385 883.61L401.32 872.91L385.465 865.342L403.018 866.102L395.737 850.113L408.694 861.978L413.395 845.049L415.694 862.468L430.176 852.521L420.741 867.342L438.228 869.031L421.474 874.32L433.785 886.855L417.551 880.137L418.923 897.652Z" fill="#063885"/>
<path opacity="0.88" d="M778.561 948.571L785.028 955.148L787.958 946.402L788.685 955.597L796.551 950.78L791.197 958.291L800.319 959.658L791.39 961.97L797.499 968.88L789.173 964.912L789.411 974.132L785.583 965.74L779.839 972.957L782.301 964.068L773.262 965.904L780.862 960.677L772.757 956.273L781.939 957.155L778.561 948.571Z" fill="#063885"/>
<g opacity="0.78">
<path d="M471.004 241.295C471.004 289.633 431.819 328.818 383.481 328.818C335.143 328.818 295.957 289.633 295.957 241.295C295.957 192.957 335.143 153.771 383.481 153.771C431.819 153.771 471.004 192.957 471.004 241.295Z" fill="#4E4949"/>
<path fill-rule="evenodd" clip-rule="evenodd" d="M383.481 325.133C429.844 325.133 467.36 287.559 467.36 241.295C467.36 195.03 429.844 157.456 383.481 157.456C337.118 157.456 299.602 195.03 299.602 241.295C299.602 287.559 337.118 325.133 383.481 325.133ZM383.481 328.818C431.819 328.818 471.004 289.633 471.004 241.295C471.004 192.957 431.819 153.771 383.481 153.771C335.143 153.771 295.957 192.957 295.957 241.295C295.957 289.633 335.143 328.818 383.481 328.818Z" fill="black"/>
<path d="M453.5 241.295C453.5 279.965 422.151 311.314 383.481 311.314C344.81 311.314 313.462 279.965 313.462 241.295C313.462 202.624 344.81 171.276 383.481 171.276C422.151 171.276 453.5 202.624 453.5 241.295Z" fill="#525252"/>
<path fill-rule="evenodd" clip-rule="evenodd" d="M383.481 309.103C420.966 309.103 451.313 278.721 451.313 241.295C451.313 203.868 420.966 173.487 383.481 173.487C345.996 173.487 315.649 203.868 315.649 241.295C315.649 278.721 345.996 309.103 383.481 309.103ZM383.481 311.314C422.151 311.314 453.5 279.965 453.5 241.295C453.5 202.624 422.151 171.276 383.481 171.276C344.81 171.276 313.462 202.624 313.462 241.295C313.462 279.965 344.81 311.314 383.481 311.314Z" fill="black"/>
<path d="M415.476 211.202C420.706 202.101 422.399 197.947 428.278 190.038C421.029 184.181 417.416 181.049 407.394 177.788C402.466 185.913 397.984 189.859 392.403 197.902C385.1 198.855 381.305 200.992 375.355 209.171C373.135 213.602 373.084 215.782 375.339 219.049C368.301 223.71 368.149 228.399 375.436 232.914C377.27 237.988 379.268 239.526 384.327 240.239C389.154 244.016 391.125 244.241 395.139 242.22C401.342 246.665 404.144 244.457 408.356 235.053C412.522 223.7 415.392 216.534 414.247 213.133C415.077 212.405 415.271 211.977 415.476 211.202Z" fill="#0116D1"/>
<path fill-rule="evenodd" clip-rule="evenodd" d="M407.314 177.568L407.45 177.612C417.092 180.75 420.831 183.775 427.517 189.186C427.803 189.417 428.095 189.653 428.393 189.894L428.531 190.005L428.425 190.148C424.19 195.845 422.134 199.584 419.352 204.645C418.28 206.596 417.1 208.742 415.646 211.273C415.544 211.655 415.439 211.97 415.252 212.281C415.075 212.575 414.829 212.857 414.458 213.191C414.722 214.06 414.744 215.139 414.577 216.42C414.401 217.762 414.017 219.343 413.468 221.164C412.56 224.178 411.197 227.873 409.575 232.271C409.236 233.189 408.887 234.137 408.527 235.117L408.525 235.123L408.522 235.129C407.468 237.483 406.498 239.395 405.539 240.867C404.58 242.337 403.622 243.383 402.586 243.989C400.504 245.207 398.192 244.613 395.123 242.434C393.153 243.416 391.637 243.866 390.007 243.585C388.37 243.302 386.649 242.285 384.254 240.414C381.738 240.056 379.949 239.487 378.558 238.355C377.169 237.225 376.201 235.552 375.287 233.037C371.668 230.783 369.826 228.446 369.834 226.035C369.841 223.652 371.657 221.302 375.083 218.999C374.015 217.416 373.478 216.056 373.487 214.545C373.496 212.993 374.08 211.309 375.193 209.088L375.199 209.074L375.208 209.062C378.189 204.965 380.641 202.365 383.274 200.671C385.892 198.988 388.674 198.209 392.3 197.73C394.69 194.292 396.879 191.6 398.985 189.012C399.326 188.593 399.665 188.176 400.003 187.759C402.435 184.754 404.781 181.743 407.239 177.691L407.314 177.568ZM407.475 178.007C405.031 182.019 402.696 185.013 400.285 187.992C399.947 188.41 399.607 188.827 399.266 189.247C397.147 191.852 394.952 194.551 392.552 198.008L392.506 198.075L392.426 198.085C388.789 198.56 386.044 199.327 383.47 200.982C380.895 202.638 378.477 205.192 375.511 209.268C374.409 211.471 373.86 213.088 373.851 214.547C373.843 216.002 374.372 217.326 375.489 218.943L375.596 219.099L375.439 219.203C371.929 221.527 370.205 223.817 370.198 226.036C370.191 228.253 371.898 230.505 375.531 232.757L375.585 232.79L375.607 232.85C376.52 235.376 377.464 236.991 378.786 238.068C380.109 239.144 381.834 239.701 384.352 240.056L384.4 240.063L384.439 240.093C386.851 241.98 388.519 242.954 390.069 243.222C391.608 243.488 393.061 243.06 395.058 242.055L395.156 242.006L395.245 242.07C398.334 244.283 400.5 244.784 402.403 243.67C403.369 243.105 404.289 242.113 405.234 240.664C406.177 239.217 407.137 237.328 408.188 234.983C408.547 234.003 408.897 233.055 409.235 232.138C410.857 227.74 412.215 224.059 413.119 221.057C413.665 219.243 414.044 217.685 414.215 216.372C414.387 215.057 414.348 214.004 414.075 213.192L414.036 213.075L414.128 212.994C414.536 212.636 414.776 212.362 414.94 212.089C415.104 211.817 415.199 211.537 415.3 211.154L415.306 211.13L415.318 211.109C416.771 208.582 417.951 206.435 419.025 204.481C421.789 199.453 423.848 195.708 428.027 190.07C427.777 189.868 427.532 189.67 427.29 189.474C420.645 184.097 416.952 181.109 407.475 178.007Z" fill="black"/>
<path fill-rule="evenodd" clip-rule="evenodd" d="M404.635 201.571L411.852 191.585L412.146 191.802L404.929 201.789L404.635 201.571ZM405.831 201.933L409.634 196.835L409.925 197.057L406.122 202.155L405.831 201.933ZM400.938 201.355C398.776 200.271 397.441 199.729 394.869 198.847L394.986 198.498C397.57 199.384 398.92 199.933 401.1 201.025L400.938 201.355ZM411.592 210.18C409.743 208.031 408.57 206.903 406.332 204.964L406.569 204.684C408.817 206.632 410.003 207.772 411.867 209.938L411.592 210.18ZM393.966 214.947C391.382 215.528 388.939 215.394 385.951 214.573L386.047 214.218C388.99 215.026 391.372 215.152 393.887 214.587C396.409 214.02 399.075 212.755 402.586 210.759L402.765 211.08C399.249 213.08 396.543 214.367 393.966 214.947ZM383.395 212.787C383.431 212.548 383.432 212.338 383.394 212.131C383.349 211.889 383.253 211.662 383.117 211.404L382.796 211.577C382.924 211.821 383.001 212.01 383.035 212.199C383.07 212.383 383.066 212.579 383.016 212.836L382.75 213.729C382.605 213.694 382.458 213.667 382.308 213.649C381.549 213.558 380.732 213.689 379.817 213.999L379.933 214.349C380.817 214.049 381.578 213.933 382.265 214.015C382.949 214.097 383.575 214.377 384.189 214.89C385.428 215.926 386.608 217.902 388.091 221.086C388.322 221.731 388.205 222.505 387.841 223.284C387.477 224.064 386.876 224.826 386.184 225.426C385.491 226.027 384.722 226.452 384.028 226.578C383.342 226.702 382.744 226.536 382.333 225.97C381.398 224.686 379.583 222.807 378.011 221.258C377.223 220.482 376.493 219.785 375.96 219.282C375.694 219.03 375.476 218.828 375.326 218.687C375.25 218.617 375.191 218.563 375.152 218.526L375.106 218.484L375.091 218.47C375.091 218.47 375.09 218.47 374.968 218.606C374.845 218.743 374.845 218.743 374.845 218.743L374.846 218.743L374.861 218.757L374.906 218.798C374.945 218.835 375.004 218.889 375.079 218.959C375.229 219.098 375.446 219.301 375.711 219.551C376.243 220.053 376.971 220.748 377.756 221.522C379.331 223.074 381.125 224.932 382.039 226.188C382.551 226.893 383.304 227.084 384.092 226.941C384.871 226.8 385.698 226.333 386.422 225.706C387.147 225.077 387.782 224.275 388.171 223.441C388.559 222.611 388.712 221.726 388.43 220.951L388.427 220.943L388.424 220.936C387.913 219.839 387.435 218.877 386.973 218.041L387.022 218.088L387.432 217.649C389.071 217.983 390.17 218.39 390.969 219.055C391.74 219.697 392.251 220.597 392.68 221.965L392.663 222.001C389.153 229.534 386.819 234.02 383.775 238.698L384.08 238.9C387.116 234.233 389.449 229.757 392.922 222.31L392.933 222.31C394.605 222.183 395.774 222.312 396.715 222.792C397.645 223.265 398.379 224.095 399.153 225.432C399.119 228.144 398.915 230.331 398.234 232.717C397.55 235.119 396.379 237.733 394.401 241.294L394.718 241.475C396.703 237.903 397.889 235.261 398.585 232.819C399.267 230.424 399.477 228.231 399.516 225.554C400.924 225.451 402.083 225.566 403.009 225.929C403.966 226.303 404.685 226.945 405.179 227.908C405.676 228.876 405.949 230.177 405.992 231.87C406.036 233.563 405.85 235.636 405.439 238.141L405.799 238.201C406.212 235.684 406.401 233.586 406.357 231.861C406.312 230.137 406.034 228.774 405.502 227.738C404.968 226.696 404.181 225.992 403.141 225.585C402.133 225.191 400.897 225.078 399.435 225.19C398.657 223.858 397.886 222.976 396.879 222.463C395.879 221.953 394.673 221.821 393.051 221.932C392.607 220.487 392.063 219.488 391.201 218.77C390.329 218.045 389.154 217.623 387.492 217.286C386.961 216.206 386.468 215.398 385.836 214.698C385.208 214.004 384.45 213.424 383.395 212.787ZM387.149 217.416C386.631 216.368 386.161 215.604 385.566 214.947C384.989 214.308 384.289 213.764 383.3 213.16L383.099 213.833C383.559 213.995 383.996 214.251 384.421 214.606C385.23 215.282 386 216.323 386.82 217.768L387.149 217.416ZM391.499 217.859C396.944 220.077 401.077 221.43 406.574 220.501L406.634 220.865C401.032 221.811 396.819 220.423 391.363 218.2L391.499 217.859ZM378.032 227.342C378.796 226.149 379.477 225.259 380.558 224.477L380.77 224.777C379.743 225.519 379.092 226.364 378.339 227.542C378.117 227.889 377.886 228.266 377.634 228.677C377.031 229.659 376.308 230.837 375.304 232.275L375.006 232.063C376.004 230.634 376.716 229.473 377.317 228.493C377.571 228.079 377.805 227.698 378.032 227.342Z" fill="black"/>
<path d="M374.127 286.428C368.692 295.406 366.9 296.904 362.118 305.769C358.18 304.36 351.159 302.083 340.182 294.108C344.912 285.863 347.241 281.009 351.589 272.222C348.948 265.272 349.005 260.881 353.296 251.701C356.097 247.621 357.97 246.539 361.885 246.993C362.597 238.518 366.605 236.154 373.997 240.491C379.284 239.712 381.572 240.758 384.596 244.921C390.177 247.42 391.31 249.066 391.458 253.598C398.274 257.004 397.684 260.546 391.501 268.761C383.6 277.862 378.728 283.82 375.224 284.418C374.985 285.502 374.704 285.878 374.127 286.428Z" fill="#950000"/>
<path fill-rule="evenodd" clip-rule="evenodd" d="M339.942 294.16L340.076 294.258C350.527 301.85 357.403 304.29 361.446 305.725C361.657 305.8 361.861 305.873 362.057 305.943L362.204 305.995L362.278 305.857C364.666 301.431 366.307 298.845 368.029 296.243C368.333 295.784 368.64 295.325 368.954 294.854C370.417 292.661 372.036 290.234 374.27 286.545C374.554 286.273 374.778 286.031 374.96 285.716C375.132 285.419 375.26 285.066 375.375 284.577C376.257 284.399 377.206 283.906 378.241 283.148C379.326 282.355 380.519 281.262 381.843 279.908C384.035 277.668 386.603 274.7 389.659 271.167C390.297 270.43 390.957 269.668 391.638 268.883L391.643 268.878L391.646 268.873C393.194 266.816 394.397 265.045 395.222 263.492C396.046 261.94 396.501 260.591 396.537 259.381C396.608 256.951 394.992 255.176 391.637 253.481C391.555 251.263 391.227 249.699 390.208 248.383C389.184 247.061 387.481 246.014 384.715 244.772C383.208 242.704 381.862 241.382 380.216 240.683C378.573 239.985 376.657 239.918 374.034 240.299C370.353 238.152 367.443 237.624 365.349 238.775C363.279 239.914 362.096 242.646 361.72 246.789C359.835 246.591 358.396 246.76 357.086 247.485C355.739 248.23 354.551 249.551 353.147 251.596L353.138 251.608L353.131 251.622C350.982 256.22 349.884 259.637 349.662 262.784C349.44 265.913 350.085 268.758 351.391 272.212C350.992 273.017 350.611 273.789 350.243 274.533C346.616 281.875 344.304 286.556 340.025 294.016L339.942 294.16ZM340.423 294.056C344.655 286.669 346.966 281.993 350.569 274.699C350.948 273.931 351.341 273.135 351.753 272.304L351.789 272.231L351.76 272.155C350.444 268.693 349.807 265.887 350.025 262.811C350.243 259.733 351.317 256.369 353.455 251.793C354.848 249.766 355.994 248.509 357.261 247.808C358.522 247.11 359.926 246.951 361.864 247.176L362.051 247.198L362.066 247.009C362.422 242.782 363.595 240.16 365.523 239.099C367.449 238.04 370.22 238.488 373.906 240.65L373.961 240.683L374.024 240.673C376.655 240.286 378.51 240.358 380.075 241.023C381.64 241.688 382.944 242.958 384.45 245.029L384.479 245.069L384.523 245.089C387.311 246.338 388.952 247.359 389.921 248.611C390.884 249.854 391.203 251.349 391.276 253.604L391.28 253.714L391.378 253.763C394.773 255.459 396.237 257.148 396.172 259.37C396.139 260.499 395.713 261.788 394.901 263.318C394.09 264.844 392.902 266.595 391.36 268.644C390.679 269.43 390.02 270.191 389.382 270.928C386.326 274.461 383.767 277.418 381.584 279.648C380.265 280.996 379.089 282.074 378.028 282.85C376.965 283.627 376.03 284.094 375.194 284.236L375.073 284.257L375.046 284.378C374.929 284.91 374.804 285.254 374.645 285.53C374.486 285.805 374.287 286.022 374.002 286.294L373.984 286.311L373.972 286.332C371.736 290.025 370.118 292.45 368.652 294.647C368.338 295.118 368.031 295.578 367.727 296.038C366.017 298.619 364.387 301.188 362.032 305.543C361.881 305.489 361.726 305.434 361.566 305.377C357.555 303.954 350.757 301.541 340.423 294.056Z" fill="black"/>
<path fill-rule="evenodd" clip-rule="evenodd" d="M360.595 281.36L355.333 292.525L355.662 292.684L360.924 281.519L360.595 281.36ZM361.479 282.252L358.848 288.058L359.18 288.211L361.81 282.406L361.479 282.252ZM358.65 278.173C356.68 276.765 355.574 275.835 353.585 273.967L353.336 274.237C355.335 276.114 356.454 277.055 358.44 278.474L358.65 278.173ZM371.393 283.459C368.644 282.835 367.105 282.327 364.354 281.257L364.223 281.601C366.987 282.676 368.543 283.189 371.313 283.819L371.393 283.459ZM367.166 265.513C366.444 262.938 365.167 260.829 363.033 258.561L362.769 258.815C364.871 261.049 366.113 263.108 366.816 265.614C367.52 268.126 367.687 271.1 367.618 275.172L367.982 275.178C368.051 271.1 367.886 268.081 367.166 265.513ZM360.264 257.135C360.073 257.281 359.891 257.381 359.692 257.446C359.46 257.521 359.217 257.543 358.928 257.545L358.926 257.177C359.199 257.175 359.4 257.153 359.581 257.095C359.758 257.038 359.926 256.941 360.126 256.775L360.777 256.114C360.677 256.002 360.584 255.883 360.498 255.758C360.058 255.127 359.783 254.338 359.619 253.376L359.978 253.313C360.137 254.243 360.398 254.974 360.796 255.547C361.192 256.116 361.732 256.54 362.471 256.842C363.961 257.452 366.242 257.563 369.717 257.369C370.389 257.269 371.006 256.797 371.512 256.103C372.018 255.408 372.395 254.512 372.589 253.611C372.782 252.709 372.787 251.822 372.566 251.145C372.349 250.476 371.92 250.023 371.232 249.926C369.67 249.705 367.173 248.983 365.078 248.32C364.027 247.988 363.074 247.67 362.383 247.435C362.038 247.317 361.758 247.22 361.564 247.153C361.468 247.119 361.392 247.093 361.341 247.075L361.283 247.054L361.264 247.047C361.264 247.047 361.263 247.047 361.324 246.873C361.384 246.699 361.384 246.699 361.384 246.699L361.385 246.7L361.404 246.706L361.461 246.727C361.512 246.745 361.587 246.771 361.683 246.804C361.876 246.872 362.155 246.968 362.5 247.086C363.189 247.32 364.139 247.638 365.186 247.969C367.285 248.632 369.755 249.345 371.282 249.561C372.139 249.682 372.663 250.261 372.913 251.03C373.16 251.79 373.147 252.748 372.945 253.689C372.742 254.633 372.346 255.579 371.805 256.321C371.267 257.061 370.569 257.618 369.761 257.735L369.753 257.736L369.745 257.737C368.548 257.804 367.483 257.835 366.537 257.822L366.6 257.843L366.413 258.416C367.483 259.716 368.359 260.501 369.317 260.895C370.243 261.276 371.269 261.303 372.663 261.034L372.686 261.003C377.574 254.301 380.37 250.092 382.994 245.162L383.315 245.337C380.696 250.255 377.909 254.457 373.079 261.086L373.083 261.096C373.767 262.643 374.435 263.622 375.3 264.231C376.154 264.833 377.225 265.092 378.756 265.146C381.1 263.826 382.906 262.606 384.659 260.867C386.425 259.116 388.144 256.833 390.302 253.381L390.61 253.578C388.445 257.041 386.709 259.351 384.914 261.13C383.155 262.875 381.345 264.104 379.034 265.411C379.614 266.712 380.265 267.688 381.021 268.34C381.802 269.014 382.701 269.348 383.774 269.33C384.852 269.312 386.114 268.937 387.609 268.171C389.103 267.405 390.819 266.255 392.803 264.699L393.026 264.99C391.032 266.554 389.296 267.719 387.774 268.499C386.252 269.279 384.934 269.679 383.78 269.698C382.619 269.718 381.633 269.352 380.784 268.621C379.962 267.911 379.277 266.865 378.68 265.512C377.151 265.452 376.016 265.185 375.091 264.534C374.173 263.886 373.485 262.876 372.81 261.381C371.342 261.672 370.215 261.663 369.18 261.236C368.134 260.806 367.209 259.961 366.126 258.642C364.933 258.683 363.997 258.629 363.087 258.398C362.185 258.17 361.319 257.771 360.264 257.135ZM366.076 258.275C364.918 258.313 364.03 258.257 363.175 258.041C362.345 257.831 361.538 257.466 360.543 256.874L361.033 256.375C361.393 256.708 361.823 256.974 362.334 257.184C363.307 257.582 364.579 257.773 366.226 257.816L366.076 258.275ZM368.528 261.935C373.046 265.725 376.187 268.759 377.991 274.09L378.335 273.971C376.497 268.538 373.288 265.449 368.761 261.651L368.528 261.935ZM370.383 245.449C369.707 246.695 369.256 247.723 369.089 249.057L369.451 249.103C369.609 247.837 370.035 246.856 370.702 245.626C370.899 245.264 371.117 244.879 371.355 244.46C371.923 243.457 372.605 242.254 373.379 240.677L373.053 240.513C372.284 242.08 371.611 243.266 371.045 244.265C370.805 244.688 370.584 245.078 370.383 245.449Z" fill="black"/>
<path d="M363.738 168.084C362.642 168.019 361.81 167.823 361.243 167.496C360.679 167.164 360.325 166.678 360.183 166.038C360.021 165.313 360.173 164.65 360.639 164.048C361.108 163.441 361.801 163.033 362.718 162.824C363.343 162.682 363.927 162.678 364.469 162.811C365.015 162.943 365.469 163.194 365.831 163.563C366.198 163.931 366.438 164.37 366.551 164.88L365.345 165.155C365.221 164.599 364.949 164.202 364.529 163.966C364.107 163.725 363.578 163.678 362.94 163.823C362.349 163.958 361.916 164.196 361.641 164.537C361.37 164.873 361.287 165.275 361.391 165.743C361.475 166.118 361.702 166.4 362.072 166.59C362.446 166.775 363.034 166.889 363.836 166.932C364.643 166.975 365.287 167.078 365.771 167.242C366.257 167.402 366.641 167.631 366.922 167.93C367.207 168.228 367.402 168.611 367.506 169.078C367.672 169.824 367.518 170.488 367.043 171.07C366.568 171.647 365.848 172.045 364.886 172.264C364.261 172.407 363.651 172.419 363.055 172.303C362.459 172.182 361.966 171.944 361.577 171.59C361.191 171.235 360.939 170.79 360.82 170.255L362.026 169.981C362.15 170.537 362.45 170.931 362.926 171.163C363.406 171.391 363.986 171.427 364.665 171.272C365.298 171.128 365.755 170.887 366.034 170.549C366.313 170.211 366.403 169.816 366.302 169.366C366.202 168.915 365.968 168.603 365.601 168.43C365.234 168.252 364.612 168.137 363.738 168.084Z" fill="white"/>
<path d="M407.9 168.5L403.993 167.449L403.143 170.679L407.682 171.9L407.423 172.883L401.696 171.342L404.094 162.228L409.76 163.752L409.5 164.741L405.023 163.536L404.252 166.466L408.159 167.517L407.9 168.5Z" fill="white"/>
<path d="M383.622 164.553L386.056 159.817H387.453L384.237 165.732V169.249H383.007V165.732L379.79 159.817H381.2L383.622 164.553Z" fill="white"/>
<path d="M397.698 170.489L396.472 170.323L392.772 162.488L391.817 169.692L390.592 169.526L391.831 160.178L393.056 160.344L396.765 168.212L397.724 160.976L398.937 161.141L397.698 170.489Z" fill="white"/>
<path d="M376.422 165.423L372.413 165.957L372.845 169.271L377.501 168.651L377.632 169.66L371.756 170.441L370.539 161.09L376.352 160.317L376.484 161.332L371.891 161.943L372.282 164.948L376.29 164.415L376.422 165.423Z" fill="white"/>
<path d="M352.868 314.196C352.536 314.963 352.059 315.487 351.437 315.769C350.82 316.048 350.107 316.062 349.297 315.811C348.419 315.54 347.81 315.003 347.472 314.202C347.138 313.402 347.132 312.469 347.455 311.402L347.674 310.679C347.886 309.981 348.194 309.405 348.6 308.951C349.009 308.498 349.483 308.2 350.021 308.058C350.56 307.913 351.127 307.932 351.723 308.117C352.513 308.361 353.078 308.781 353.419 309.376C353.761 309.967 353.851 310.669 353.691 311.481L352.706 311.176C352.802 310.551 352.748 310.06 352.543 309.703C352.342 309.347 351.986 309.09 351.476 308.932C350.85 308.738 350.287 308.82 349.788 309.177C349.292 309.536 348.913 310.147 348.652 311.01L348.431 311.738C348.184 312.554 348.156 313.254 348.347 313.841C348.538 314.427 348.936 314.813 349.542 315.001C350.087 315.17 350.541 315.175 350.906 315.017C351.274 314.856 351.6 314.481 351.883 313.891L352.868 314.196Z" fill="white"/>
<path d="M403.801 313.562L401.383 314.197L403.124 320.979L402.137 321.238L400.396 314.456L397.982 315.089L397.77 314.264L403.589 312.736L403.801 313.562Z" fill="white"/>
<path d="M371.185 319.237L370.829 322.293L369.811 322.171L370.719 314.365L373.567 314.704C374.412 314.805 375.048 315.102 375.474 315.594C375.904 316.088 376.077 316.693 375.994 317.412C375.905 318.17 375.602 318.726 375.084 319.081C374.57 319.433 373.877 319.557 373.003 319.453L371.185 319.237ZM371.283 318.395L373.112 318.613C373.656 318.677 374.089 318.598 374.408 318.376C374.729 318.149 374.917 317.791 374.974 317.301C375.028 316.837 374.927 316.448 374.669 316.135C374.412 315.821 374.031 315.629 373.527 315.558L371.639 315.334L371.283 318.395Z" fill="white"/>
<path d="M365.353 317.701L363.562 317.339L362.945 320.457L361.935 320.252L363.46 312.545L365.984 313.056C366.842 313.229 367.463 313.561 367.845 314.049C368.231 314.538 368.35 315.16 368.2 315.915C368.105 316.395 367.893 316.787 367.564 317.092C367.239 317.396 366.83 317.591 366.338 317.675L367.481 321.308L367.469 321.372L366.39 321.154L365.353 317.701ZM363.727 316.508L365.271 316.82C365.77 316.921 366.192 316.871 366.537 316.669C366.886 316.468 367.103 316.149 367.19 315.711C367.284 315.235 367.215 314.841 366.982 314.53C366.753 314.219 366.374 314.008 365.844 313.897L364.305 313.586L363.727 316.508Z" fill="white"/>
<path d="M387.918 320.111H386.092V323.291H385.062V315.431H387.635C388.511 315.431 389.183 315.632 389.653 316.036C390.127 316.439 390.363 317.025 390.363 317.795C390.363 318.285 390.232 318.711 389.968 319.075C389.708 319.438 389.345 319.71 388.879 319.89L390.705 323.226V323.291H389.605L387.918 320.111ZM386.092 319.264H387.667C388.176 319.264 388.58 319.131 388.879 318.864C389.182 318.598 389.333 318.242 389.333 317.795C389.333 317.31 389.189 316.937 388.9 316.678C388.616 316.419 388.203 316.287 387.662 316.284H386.092V319.264Z" fill="white"/>
<path d="M360.86 315.716C360.695 316.468 360.426 317.097 360.052 317.603C359.679 318.105 359.231 318.452 358.707 318.644C358.184 318.836 357.616 318.864 357.005 318.726C356.407 318.592 355.909 318.326 355.512 317.927C355.116 317.524 354.849 317.02 354.712 316.414C354.58 315.806 354.59 315.139 354.742 314.414L354.863 313.86C355.026 313.123 355.296 312.499 355.674 311.991C356.051 311.482 356.504 311.13 357.032 310.935C357.564 310.738 358.129 310.706 358.727 310.841C359.335 310.977 359.837 311.247 360.234 311.649C360.634 312.049 360.898 312.56 361.024 313.181C361.15 313.8 361.131 314.483 360.967 315.231L360.86 315.716ZM359.974 314.997C360.174 314.087 360.146 313.349 359.891 312.783C359.637 312.214 359.185 311.856 358.536 311.71C357.903 311.568 357.351 311.7 356.879 312.107C356.411 312.51 356.077 313.143 355.876 314.005L355.752 314.569C355.559 315.451 355.589 316.185 355.842 316.773C356.1 317.358 356.551 317.723 357.193 317.867C357.84 318.013 358.392 317.888 358.851 317.493C359.31 317.095 359.643 316.453 359.849 315.566L359.974 314.997Z" fill="white"/>
<path d="M415.721 311.97C415.964 312.699 416.055 313.379 415.994 314.007C415.932 314.632 415.725 315.163 415.376 315.602C415.026 316.04 414.554 316.36 413.96 316.562C413.38 316.759 412.818 316.791 412.274 316.657C411.728 316.52 411.242 316.228 410.816 315.781C410.391 315.329 410.058 314.753 409.818 314.053L409.639 313.515C409.4 312.799 409.313 312.125 409.376 311.492C409.44 310.859 409.648 310.321 410 309.878C410.354 309.431 410.822 309.109 411.402 308.911C411.992 308.71 412.56 308.679 413.105 308.816C413.653 308.948 414.139 309.248 414.565 309.714C414.989 310.178 415.323 310.772 415.565 311.499L415.721 311.97ZM414.595 311.818C414.301 310.934 413.9 310.317 413.392 309.965C412.883 309.611 412.314 309.541 411.683 309.755C411.069 309.964 410.664 310.366 410.467 310.961C410.273 311.551 410.311 312.267 410.58 313.11L410.762 313.657C411.047 314.513 411.449 315.127 411.966 315.497C412.486 315.863 413.058 315.94 413.682 315.728C414.31 315.514 414.719 315.119 414.91 314.541C415.099 313.96 415.056 313.236 414.779 312.37L414.595 311.818Z" fill="white"/>
<path d="M383.392 319.614C383.392 320.385 383.264 321.058 383.008 321.633C382.752 322.206 382.389 322.643 381.919 322.945C381.449 323.248 380.901 323.399 380.274 323.399C379.662 323.399 379.119 323.248 378.646 322.945C378.172 322.639 377.804 322.206 377.54 321.644C377.281 321.079 377.147 320.426 377.14 319.685V319.118C377.14 318.362 377.27 317.695 377.53 317.115C377.79 316.536 378.156 316.093 378.63 315.787C379.107 315.478 379.651 315.323 380.263 315.323C380.886 315.323 381.435 315.476 381.908 315.782C382.385 316.084 382.752 316.525 383.008 317.104C383.264 317.68 383.392 318.351 383.392 319.118V319.614ZM382.372 319.107C382.372 318.175 382.187 317.461 381.817 316.964C381.447 316.464 380.929 316.214 380.263 316.214C379.616 316.214 379.105 316.464 378.731 316.964C378.361 317.461 378.17 318.152 378.16 319.037V319.614C378.16 320.518 378.347 321.229 378.72 321.747C379.098 322.261 379.616 322.519 380.274 322.519C380.936 322.519 381.449 322.276 381.812 321.79C382.175 321.301 382.362 320.601 382.372 319.69V319.107Z" fill="white"/>
<path d="M396.794 320.28L393.58 320.809L393.184 322.953L392.141 323.125L393.821 314.885L394.706 314.739L398.891 322.013L397.853 322.184L396.794 320.28ZM393.75 319.917L396.358 319.487L394.467 316.074L393.75 319.917Z" fill="white"/>
<path d="M424.562 311.653L423.651 312.141L417.389 308.641L420.193 313.993L419.282 314.481L415.644 307.535L416.554 307.047L422.839 310.566L420.022 305.19L420.923 304.708L424.562 311.653Z" fill="white"/>
<path d="M409.33 318.711L408.347 319.004L406.148 311.465L407.132 311.172L409.33 318.711Z" fill="white"/>
</g>
<g opacity="0.5">
<g filter="url(#filter0_b)">
<path d="M615.13 929.411C597.873 930.251 587.457 936.758 568.602 951.643M615.236 928.371C594.098 925.829 582.375 931.289 561.503 943.03M615.504 926.816C595.983 922.25 582.558 924.358 555.974 933.086" stroke="black" stroke-width="3" stroke-linecap="round"/>
</g>
<g filter="url(#filter1_b)">
<path d="M656.347 936.499C672.332 943.057 679.975 952.669 692.774 972.999M656.594 935.484C677.367 940.15 686.592 949.213 702.342 967.253M656.862 933.928C676.786 936.147 688.736 942.619 710.876 959.727" stroke="black" stroke-width="3" stroke-linecap="round"/>
</g>
<path fill-rule="evenodd" clip-rule="evenodd" d="M596.372 878.492C617.455 878.452 629.126 884.125 623.973 899.153C624.016 898.069 623.778 897.472 622.863 896.449C608.119 897.872 603.445 892.933 602.797 881.12C601.789 879.617 600.04 879.15 596.372 878.492ZM605.996 885.698C605.389 884.918 605.2 885.098 605.378 886.015C607.547 893.353 611.253 895.92 618.667 893.007C619.585 892.646 619.318 892.259 618.463 892.407C611.055 894.097 608.575 891.261 605.996 885.698Z" fill="#252324"/>
<ellipse cx="610.69" cy="886.233" rx="1.76615" ry="1.57134" transform="rotate(9.75878 610.69 886.233)" fill="#0594A7"/>
<path fill-rule="evenodd" clip-rule="evenodd" d="M716.726 897.81C718.218 916.273 712.766 926.562 694.589 944.828C698.723 935.223 696.875 931.531 688.477 927.022C682.467 924.131 678.83 922.715 671.706 920.672C655.003 914.248 649.992 909.096 652.984 895.655C654 872.782 645.654 860.223 619.618 856.538C609.261 853.504 607.039 849.906 605.948 841.966C604.308 821.955 601.823 812.919 589.64 804.243C585.247 801.643 581.556 802.12 579.094 806.772C572.27 816.946 571.574 828.241 575.71 846.98C571.78 859.797 571.685 866.183 575.157 876.16C570.442 884.506 570.59 890.96 573.518 904.164C568.426 893.215 567.338 886.892 571.274 874.994C568.025 863.917 568.171 857.851 571.067 847.221C568.009 822.015 569.297 811.434 578.258 800.441C581.959 797.264 584.354 797.11 588.82 797.809C600.826 805.196 606.776 813.572 613.781 823.433L613.781 823.433C615.976 826.523 618.275 829.76 620.897 833.157C644.527 828.014 657.957 829.974 682.237 842.399C697.231 829.991 705.794 825.101 721.362 820.213C728.956 819.835 731.326 821.257 733.377 825.681C738.349 845.99 735.163 858.776 720.657 883.65C717.842 888.866 717.058 891.985 716.726 897.81ZM720.008 876.449C714.157 881.426 710.289 878.981 709.037 870.459C708.177 867.772 706.232 867.009 700.299 866.904C689.885 871.721 680.792 855.409 691.421 845.5C703.043 834.15 709.842 829.492 722.727 825.75C726.139 825.154 727.508 825.777 728.853 828.813C731.517 845.828 729.465 855.84 720.008 876.449ZM684.772 895.995C685.724 895.098 686.127 895.317 685.687 896.657C678.417 907.224 671.967 910.432 660.158 903.926C658.929 903.05 659.271 902.674 660.595 903.182C671.931 908.27 677.681 906.12 684.772 895.995ZM678.793 898.476C679.267 897.671 679.149 897.438 678.317 897.971C674.027 902.352 670.742 904.197 664.324 900.129C663.568 899.703 663.187 899.98 663.931 900.626C669.946 905.848 674.297 904.667 678.793 898.476ZM688.302 895.125C667.98 889.934 660.992 891.683 657.747 904.591C657.598 905.458 657.184 905.424 657.116 904.483C657.384 889.807 668.719 885.284 688.939 894.449C690.359 895.093 690.042 895.679 688.302 895.125Z" fill="#252324"/>
<ellipse cx="666.739" cy="895.783" rx="1.66953" ry="1.5401" transform="rotate(9.75878 666.739 895.783)" fill="#0594A7"/>
<path d="M634.436 940.749C634.322 939.921 634.376 939.28 634.602 937.94C634.395 937.597 634.238 937.545 633.851 937.811C633.714 938.908 633.572 939.526 633.071 940.637C627.928 944.415 620.712 944.117 614.512 939.936C620.568 945.365 626.3 945.431 633.61 943.708C639.032 948.332 646.759 948.975 652.399 946.452C645.403 948.467 637.653 946.272 634.436 940.749Z" fill="#252324"/>
<path d="M646.011 930.041C648.422 929.068 647.019 924.18 649.205 911.475C648.822 907.443 647.324 922.408 645.53 928.057C643.524 926.421 642.006 926.086 638.755 926.296C636.786 926.452 635.589 926.238 633.302 925.358C630.783 924.14 629.296 924.07 626.543 924.791C628.056 918.524 629.841 905.262 628.874 907.739C627.684 918.16 623.351 924.243 625.553 927.048C628.904 929.866 632.02 931.586 631.112 934.049C632.023 935.437 632.526 936.191 634.455 937.153C636.188 936.95 637.022 936.411 638.435 935.216C637.883 932.649 642.768 932.693 646.011 930.041Z" fill="#252324"/>
</g>
<g opacity="0.5">
<g filter="url(#filter2_b)">
<path d="M213.762 501.659C203.133 505.112 197.687 511.278 188.331 524.554M213.661 500.934C200.063 502.734 193.633 508.406 182.51 519.879M213.576 499.831C200.661 499.984 192.626 503.66 177.454 514.037" stroke="black" stroke-width="3" stroke-linecap="round"/>
</g>
<g filter="url(#filter3_b)">
<path d="M240.62 499.601C251.652 501.393 257.974 506.657 269.244 518.352M240.61 498.869C254.323 498.575 261.543 503.201 274.284 512.845M240.526 497.765C253.313 495.948 261.814 498.357 278.391 506.3" stroke="black" stroke-width="3" stroke-linecap="round"/>
</g>
<path fill-rule="evenodd" clip-rule="evenodd" d="M193.83 470.148C206.976 466.6 215.173 468.512 214.388 479.596C214.24 478.852 213.995 478.486 213.259 477.942C204.291 481.372 200.577 478.792 198.263 470.863C197.391 470.009 196.225 469.983 193.83 470.148ZM200.999 473.444C200.494 473.014 200.405 473.168 200.664 473.763C203.203 478.393 205.931 479.52 210.085 476.3C210.599 475.902 210.37 475.683 209.861 475.926C205.512 478.314 203.507 476.798 200.999 473.444Z" fill="#252324"/>
<ellipse cx="204.013" cy="473.024" rx="1.13754" ry="1.10132" transform="rotate(-4.38329 204.013 473.024)" fill="#A70505"/>
<path fill-rule="evenodd" clip-rule="evenodd" d="M272.032 463.196C275.947 475.509 274.209 483.419 265.823 498.882C266.849 491.657 265.099 489.453 259.132 487.787C254.916 486.824 252.417 486.468 247.643 486.267C236.185 484.686 232.226 482.017 231.92 472.373C228.857 456.641 221.62 449.489 204.783 451.329C197.831 450.995 195.863 448.917 193.899 443.697C189.642 430.356 186.631 424.624 177.629 420.754C174.468 419.719 172.243 420.66 171.458 424.236C168.846 432.297 170.238 440.098 175.847 452.157C175.467 461.534 176.44 465.895 180.219 472.103C178.626 478.568 179.762 482.935 183.723 491.43C178.777 484.831 177.076 480.71 177.608 471.958C173.791 464.964 172.901 460.812 172.99 453.097C167.007 436.458 166.101 429.043 169.914 420.068C171.709 417.288 173.178 416.784 176.077 416.514C184.76 419.535 189.827 424.241 195.79 429.78C197.659 431.516 199.617 433.334 201.801 435.208C215.711 427.763 224.406 426.854 241.56 431.254C248.908 420.309 253.46 415.552 262.381 409.627C267.057 408.102 268.766 408.674 270.76 411.341C277.144 424.329 277.224 433.56 272.195 452.906C271.283 456.924 271.298 459.178 272.032 463.196ZM270.626 448.115C267.781 452.478 264.972 451.46 262.814 445.871C261.843 444.187 260.506 443.992 256.788 444.911C251.071 449.927 242.762 440.347 247.79 431.831C253.206 422.168 256.694 417.864 264.127 413.166C266.16 412.191 267.114 412.386 268.444 414.227C272.856 425.359 273.195 432.514 270.626 448.115ZM251.805 467.297C252.253 466.527 252.54 466.609 252.482 467.594C249.656 475.997 246.15 479.257 237.732 476.802C236.824 476.411 236.977 476.098 237.884 476.223C245.779 477.792 249.018 475.369 251.805 467.297ZM248.476 469.983C248.642 469.355 248.53 469.217 248.097 469.718C246.13 473.416 244.379 475.219 239.717 473.523C239.177 473.36 238.984 473.611 239.553 473.927C244.149 476.476 246.673 474.946 248.476 469.983ZM253.866 466.115C240.35 465.976 236.273 468.333 236.336 477.657C236.383 478.272 236.119 478.318 235.924 477.689C233.719 467.659 240.059 462.689 254.155 465.549C255.144 465.75 255.041 466.201 253.866 466.115Z" fill="#252324"/>
<ellipse cx="240.521" cy="470.163" rx="1.0753" ry="1.07943" transform="rotate(-4.38329 240.521 470.163)" fill="#A70505"/>
<path d="M227.639 506.15C227.434 505.606 227.363 505.161 227.288 504.211C227.104 504.012 226.997 504.003 226.799 504.249C226.891 505.018 226.902 505.462 226.769 506.302C224.172 509.731 219.621 510.733 215.078 508.924C219.734 511.606 223.32 510.694 227.602 508.301C231.731 510.542 236.655 509.689 239.766 507.031C235.728 509.57 230.538 509.37 227.639 506.15Z" fill="#252324"/>
<path d="M233.128 496.932C234.475 495.867 232.81 492.776 232.119 483.767C231.229 481.088 232.714 491.52 232.507 495.663C230.991 494.884 229.991 494.91 227.997 495.595C226.793 496.031 226.012 496.084 224.443 495.868C222.675 495.46 221.736 495.661 220.135 496.611C220.066 492.094 219.035 482.773 218.833 484.62C219.775 491.909 218.055 496.77 219.882 498.311C222.428 499.669 224.65 500.319 224.482 502.146C225.275 502.939 225.71 503.368 227.069 503.7C228.117 503.273 228.55 502.767 229.238 501.718C228.48 500.064 231.534 499.278 233.128 496.932Z" fill="#252324"/>
</g>
<path d="M404.429 877.67C332.181 866.746 234.527 824.507 101.146 844.898C236.115 908.257 302.012 924.278 388.551 1024.05L574.332 1024.05C564.01 979.626 495.06 917.064 404.429 877.67Z" fill="#53575A"/>
<path fill-rule="evenodd" clip-rule="evenodd" d="M155.315 649.319C162.492 649.319 168.31 654.656 168.31 661.239L168.31 898.703C168.31 905.286 162.492 910.623 155.315 910.623C148.138 910.623 142.32 905.286 142.32 898.703L142.32 661.239C142.32 654.656 148.138 649.319 155.315 649.319Z" fill="black"/>
<path d="M0.737305 826.367C0.737305 826.367 150.802 857.003 265.717 857.003C375.487 857.003 407.347 1024.04 407.347 1024.04H0.737305V826.367Z" fill="#53575A"/>
<path d="M395.242 1024.05H345.8C342.091 1005.36 338.549 993.402 328.631 968.416C313.156 943.743 299.693 931.763 269.222 912.896C224.716 888.912 195.682 877.658 132.459 863.733C122.974 858.943 118.802 855.141 113.501 846.26L126.652 848.042L233.701 857.305C274.525 854.63 295.481 860.659 328.631 887.875C365.646 931.199 383.249 969.75 395.242 1024.05Z" fill="#63686B"/>
<path d="M362.494 660.494C289.595 679.395 254.103 642.921 163.861 660.494L163.861 758.069C254.103 741.421 286.366 773.948 362.494 758.069V660.494Z" fill="#040332" fill-opacity="0.9"/>
<path d="M216.592 698.502C217.425 698.502 218.107 698.444 218.638 698.329C219.193 698.19 219.635 698.016 219.963 697.807C220.292 697.576 220.519 697.309 220.645 697.008C220.772 696.707 220.835 696.371 220.835 696.001C220.835 695.213 220.431 694.564 219.622 694.055C218.814 693.522 217.425 692.954 215.456 692.352C214.597 692.074 213.738 691.761 212.88 691.414C212.021 691.043 211.251 690.592 210.569 690.059C209.887 689.503 209.332 688.843 208.902 688.078C208.473 687.291 208.258 686.341 208.258 685.229C208.258 684.117 208.486 683.121 208.94 682.241C209.395 681.337 210.039 680.573 210.872 679.947C211.705 679.322 212.716 678.847 213.902 678.523C215.089 678.175 216.428 678.002 217.918 678.002C219.686 678.002 221.213 678.175 222.501 678.523C223.789 678.87 224.85 679.252 225.683 679.669L223.979 683.943C223.246 683.596 222.426 683.295 221.517 683.04C220.633 682.762 219.559 682.623 218.297 682.623C216.882 682.623 215.86 682.808 215.228 683.179C214.622 683.526 214.319 684.071 214.319 684.812C214.319 685.252 214.433 685.623 214.66 685.924C214.887 686.225 215.203 686.503 215.607 686.758C216.036 686.99 216.516 687.21 217.047 687.418C217.602 687.603 218.208 687.8 218.865 688.009C220.229 688.472 221.415 688.935 222.426 689.399C223.436 689.839 224.269 690.36 224.926 690.962C225.608 691.565 226.113 692.271 226.441 693.082C226.769 693.893 226.933 694.877 226.933 696.035C226.933 698.282 226.075 700.031 224.358 701.282C222.64 702.51 220.052 703.124 216.592 703.124C215.43 703.124 214.382 703.054 213.448 702.915C212.514 702.799 211.68 702.649 210.948 702.464C210.241 702.278 209.622 702.081 209.092 701.873C208.587 701.664 208.157 701.467 207.804 701.282L209.47 696.974C210.253 697.367 211.213 697.726 212.349 698.051C213.511 698.352 214.925 698.502 216.592 698.502Z" fill="#D9D9D9"/>
<path d="M230.154 693.638C230.154 692.016 230.42 690.603 230.95 689.399C231.506 688.171 232.225 687.152 233.109 686.341C233.993 685.53 235.003 684.916 236.14 684.499C237.301 684.082 238.488 683.874 239.7 683.874C242.529 683.874 244.764 684.673 246.405 686.271C248.047 687.847 248.868 690.175 248.868 693.256C248.868 693.557 248.855 693.893 248.83 694.263C248.804 694.611 248.779 694.923 248.754 695.201H235.95C236.076 696.267 236.619 697.112 237.579 697.738C238.539 698.363 239.827 698.676 241.443 698.676C242.478 698.676 243.488 698.595 244.473 698.433C245.484 698.248 246.304 698.028 246.936 697.773L247.693 701.977C247.39 702.116 246.986 702.255 246.481 702.394C245.976 702.533 245.408 702.649 244.776 702.742C244.17 702.857 243.514 702.95 242.807 703.02C242.1 703.089 241.392 703.124 240.685 703.124C238.892 703.124 237.327 702.881 235.988 702.394C234.675 701.908 233.576 701.247 232.692 700.413C231.834 699.556 231.19 698.549 230.761 697.39C230.357 696.232 230.154 694.981 230.154 693.638ZM243.413 691.657C243.387 691.217 243.299 690.789 243.148 690.372C243.021 689.955 242.807 689.584 242.504 689.26C242.226 688.935 241.86 688.669 241.405 688.46C240.976 688.252 240.433 688.148 239.776 688.148C239.145 688.148 238.602 688.252 238.147 688.46C237.693 688.646 237.314 688.901 237.011 689.225C236.708 689.549 236.468 689.931 236.291 690.372C236.14 690.789 236.026 691.217 235.95 691.657H243.413Z" fill="#D9D9D9"/>
<path d="M270.913 684.36C269.777 687.881 268.59 691.182 267.353 694.263C266.115 697.344 264.764 700.332 263.299 703.228C262.769 704.27 262.239 705.151 261.708 705.869C261.178 706.61 260.597 707.212 259.966 707.676C259.335 708.162 258.615 708.51 257.807 708.718C257.024 708.95 256.102 709.066 255.041 709.066C254.158 709.066 253.337 708.984 252.579 708.822C251.847 708.683 251.241 708.521 250.761 708.336L251.746 704.201C252.327 704.386 252.844 704.514 253.299 704.583C253.754 704.653 254.233 704.687 254.738 704.687C255.749 704.687 256.519 704.433 257.049 703.923C257.605 703.436 258.072 702.753 258.451 701.873C257.163 699.556 255.875 696.962 254.587 694.089C253.299 691.194 252.087 687.951 250.95 684.36H256.935C257.188 685.264 257.478 686.248 257.807 687.314C258.16 688.356 258.526 689.422 258.905 690.511C259.284 691.576 259.663 692.619 260.042 693.638C260.446 694.657 260.825 695.584 261.178 696.418C261.506 695.584 261.847 694.657 262.201 693.638C262.554 692.619 262.895 691.576 263.224 690.511C263.577 689.422 263.906 688.356 264.209 687.314C264.537 686.248 264.827 685.264 265.08 684.36H270.913Z" fill="#D9D9D9"/>
<path d="M273.939 684.986C274.899 684.731 276.136 684.499 277.651 684.291C279.167 684.059 280.758 683.943 282.424 683.943C284.116 683.943 285.518 684.152 286.629 684.569C287.766 684.963 288.662 685.53 289.319 686.271C289.975 687.013 290.442 687.893 290.72 688.912C290.998 689.931 291.137 691.067 291.137 692.317V702.637H285.493V692.943C285.493 691.275 285.253 690.094 284.773 689.399C284.293 688.704 283.397 688.356 282.084 688.356C281.679 688.356 281.25 688.379 280.796 688.426C280.341 688.449 279.937 688.484 279.583 688.53V702.637H273.939V684.986Z" fill="#D9D9D9"/>
<path d="M295.299 693.638C295.299 692.016 295.564 690.603 296.094 689.399C296.65 688.171 297.37 687.152 298.254 686.341C299.137 685.53 300.148 684.916 301.284 684.499C302.446 684.082 303.633 683.874 304.845 683.874C307.673 683.874 309.908 684.673 311.55 686.271C313.191 687.847 314.012 690.175 314.012 693.256C314.012 693.557 313.999 693.893 313.974 694.263C313.949 694.611 313.923 694.923 313.898 695.201H301.095C301.221 696.267 301.764 697.112 302.723 697.738C303.683 698.363 304.971 698.676 306.587 698.676C307.623 698.676 308.633 698.595 309.618 698.433C310.628 698.248 311.449 698.028 312.08 697.773L312.838 701.977C312.535 702.116 312.13 702.255 311.625 702.394C311.12 702.533 310.552 702.649 309.921 702.742C309.315 702.857 308.658 702.95 307.951 703.02C307.244 703.089 306.537 703.124 305.83 703.124C304.037 703.124 302.471 702.881 301.132 702.394C299.819 701.908 298.721 701.247 297.837 700.413C296.978 699.556 296.334 698.549 295.905 697.39C295.501 696.232 295.299 694.981 295.299 693.638ZM308.557 691.657C308.532 691.217 308.443 690.789 308.292 690.372C308.166 689.955 307.951 689.584 307.648 689.26C307.37 688.935 307.004 688.669 306.549 688.46C306.12 688.252 305.577 688.148 304.92 688.148C304.289 688.148 303.746 688.252 303.292 688.46C302.837 688.646 302.458 688.901 302.155 689.225C301.852 689.549 301.612 689.931 301.435 690.372C301.284 690.789 301.17 691.217 301.095 691.657H308.557Z" fill="#D9D9D9"/>
<path d="M574.332 1024.05H520.172L502.717 984.909L467.475 941.338L417.931 902.92C402.188 888.888 389.77 883.142 367.677 872.1L404.559 879.347C492.336 918.633 555.689 969.898 574.332 1024.05Z" fill="#63686B"/>
<path d="M250.184 725.421C250.184 725.949 250.058 726.457 249.805 726.944C249.552 727.432 249.223 727.905 248.818 728.364C248.413 728.809 247.958 729.241 247.452 729.658C246.946 730.076 246.448 730.473 245.959 730.848C245.706 731.043 245.428 731.266 245.124 731.516C244.838 731.753 244.559 731.997 244.289 732.247C244.02 732.498 243.775 732.734 243.556 732.957C243.353 733.166 243.227 733.34 243.176 733.479H250.716V736.088H239.027C238.993 735.935 238.976 735.74 238.976 735.504C238.976 735.267 238.976 735.1 238.976 735.003C238.976 734.335 239.103 733.722 239.356 733.166C239.626 732.609 239.972 732.094 240.393 731.621C240.815 731.134 241.287 730.681 241.81 730.264C242.35 729.846 242.881 729.429 243.404 729.011C243.809 728.691 244.188 728.392 244.542 728.114C244.897 727.821 245.209 727.543 245.479 727.279C245.748 727 245.959 726.729 246.111 726.464C246.263 726.186 246.339 725.908 246.339 725.629C246.339 725.017 246.128 724.585 245.706 724.335C245.285 724.084 244.762 723.959 244.138 723.959C243.682 723.959 243.252 724.022 242.847 724.147C242.459 724.258 242.097 724.398 241.759 724.565C241.439 724.718 241.161 724.878 240.925 725.045C240.688 725.198 240.511 725.323 240.393 725.421L238.521 723.249C239.263 722.679 240.123 722.213 241.102 721.851C242.097 721.475 243.159 721.287 244.289 721.287C245.318 721.287 246.204 721.384 246.946 721.579C247.688 721.774 248.295 722.052 248.768 722.414C249.257 722.762 249.611 723.194 249.83 723.709C250.066 724.21 250.184 724.78 250.184 725.421Z" fill="#D9D9D9"/>
<path d="M265.525 728.823C265.525 731.259 264.96 733.131 263.83 734.439C262.717 735.733 261.174 736.381 259.2 736.381C257.227 736.381 255.675 735.733 254.545 734.439C253.432 733.131 252.875 731.259 252.875 728.823C252.875 727.613 253.019 726.541 253.305 725.608C253.609 724.676 254.039 723.89 254.596 723.249C255.152 722.609 255.818 722.122 256.594 721.788C257.37 721.454 258.239 721.287 259.2 721.287C261.174 721.287 262.717 721.941 263.83 723.249C264.96 724.544 265.525 726.402 265.525 728.823ZM261.68 728.823C261.68 728.1 261.637 727.446 261.553 726.861C261.469 726.263 261.334 725.748 261.148 725.316C260.963 724.885 260.71 724.551 260.389 724.314C260.069 724.077 259.673 723.959 259.2 723.959C258.728 723.959 258.332 724.077 258.011 724.314C257.708 724.551 257.455 724.885 257.252 725.316C257.067 725.748 256.932 726.263 256.847 726.861C256.763 727.446 256.721 728.1 256.721 728.823C256.721 729.547 256.763 730.208 256.847 730.807C256.932 731.405 257.067 731.92 257.252 732.351C257.455 732.783 257.708 733.117 258.011 733.354C258.332 733.59 258.728 733.708 259.2 733.708C259.673 733.708 260.069 733.59 260.389 733.354C260.71 733.117 260.963 732.783 261.148 732.351C261.334 731.92 261.469 731.405 261.553 730.807C261.637 730.208 261.68 729.547 261.68 728.823Z" fill="#D9D9D9"/>
<path d="M278.943 725.421C278.943 725.949 278.817 726.457 278.564 726.944C278.311 727.432 277.982 727.905 277.577 728.364C277.172 728.809 276.717 729.241 276.211 729.658C275.705 730.076 275.207 730.473 274.718 730.848C274.465 731.043 274.187 731.266 273.883 731.516C273.597 731.753 273.318 731.997 273.048 732.247C272.779 732.498 272.534 732.734 272.315 732.957C272.112 733.166 271.986 733.34 271.935 733.479H279.475V736.088H267.786C267.752 735.935 267.735 735.74 267.735 735.504C267.735 735.267 267.735 735.1 267.735 735.003C267.735 734.335 267.862 733.722 268.115 733.166C268.385 732.609 268.731 732.094 269.152 731.621C269.574 731.134 270.046 730.681 270.569 730.264C271.109 729.846 271.64 729.429 272.163 729.011C272.568 728.691 272.947 728.392 273.301 728.114C273.656 727.821 273.968 727.543 274.238 727.279C274.507 727 274.718 726.729 274.87 726.464C275.022 726.186 275.098 725.908 275.098 725.629C275.098 725.017 274.887 724.585 274.465 724.335C274.044 724.084 273.521 723.959 272.897 723.959C272.441 723.959 272.011 724.022 271.606 724.147C271.218 724.258 270.856 724.398 270.518 724.565C270.198 724.718 269.92 724.878 269.684 725.045C269.447 725.198 269.27 725.323 269.152 725.421L267.28 723.249C268.022 722.679 268.882 722.213 269.861 721.851C270.856 721.475 271.918 721.287 273.048 721.287C274.077 721.287 274.963 721.384 275.705 721.579C276.447 721.774 277.054 722.052 277.527 722.414C278.016 722.762 278.37 723.194 278.589 723.709C278.825 724.21 278.943 724.78 278.943 725.421Z" fill="#D9D9D9"/>
<path d="M294.284 728.823C294.284 731.259 293.719 733.131 292.589 734.439C291.476 735.733 289.933 736.381 287.959 736.381C285.986 736.381 284.434 735.733 283.304 734.439C282.191 733.131 281.634 731.259 281.634 728.823C281.634 727.613 281.778 726.541 282.064 725.608C282.368 724.676 282.798 723.89 283.355 723.249C283.911 722.609 284.578 722.122 285.353 721.788C286.129 721.454 286.998 721.287 287.959 721.287C289.933 721.287 291.476 721.941 292.589 723.249C293.719 724.544 294.284 726.402 294.284 728.823ZM290.439 728.823C290.439 728.1 290.397 727.446 290.312 726.861C290.228 726.263 290.093 725.748 289.907 725.316C289.722 724.885 289.469 724.551 289.148 724.314C288.828 724.077 288.432 723.959 287.959 723.959C287.487 723.959 287.091 724.077 286.77 724.314C286.467 724.551 286.214 724.885 286.011 725.316C285.826 725.748 285.691 726.263 285.606 726.861C285.522 727.446 285.48 728.1 285.48 728.823C285.48 729.547 285.522 730.208 285.606 730.807C285.691 731.405 285.826 731.92 286.011 732.351C286.214 732.783 286.467 733.117 286.77 733.354C287.091 733.59 287.487 733.708 287.959 733.708C288.432 733.708 288.828 733.59 289.148 733.354C289.469 733.117 289.722 732.783 289.907 732.351C290.093 731.92 290.228 731.405 290.312 730.807C290.397 730.208 290.439 729.547 290.439 728.823Z" fill="#D9D9D9"/>
<g filter="url(#filter4_d)">
<path d="M166.186 50.8233C172.083 50.8233 176.61 51.8695 179.768 53.9619C182.926 56.0163 184.504 59.4022 184.504 64.1197C184.504 68.8752 182.906 72.3182 179.711 74.4487C176.515 76.5411 171.95 77.5873 166.015 77.5873H163.219V90.8267H154.316V51.8505C156.257 51.47 158.311 51.2037 160.479 51.0515C162.648 50.8994 164.55 50.8233 166.186 50.8233ZM166.757 58.4131C166.11 58.4131 165.463 58.4321 164.817 58.4701C164.208 58.5082 163.675 58.5462 163.219 58.5843V69.9975H166.015C169.096 69.9975 171.417 69.579 172.977 68.7421C174.537 67.9051 175.317 66.3453 175.317 64.0626C175.317 62.9593 175.107 62.0463 174.689 61.3234C174.309 60.6006 173.738 60.0299 172.977 59.6115C172.254 59.1549 171.36 58.8506 170.295 58.6984C169.23 58.5082 168.05 58.4131 166.757 58.4131ZM202.626 50.8233C208.561 50.8233 213.107 51.8885 216.265 54.019C219.422 56.1114 221.001 59.3832 221.001 63.8344C221.001 66.6116 220.355 68.8752 219.061 70.6252C217.806 72.3372 215.979 73.6878 213.583 74.6769C214.382 75.6661 215.219 76.8074 216.094 78.1009C216.969 79.3564 217.825 80.6879 218.662 82.0955C219.537 83.4651 220.374 84.9108 221.172 86.4326C221.971 87.9163 222.713 89.381 223.398 90.8267H213.411C212.689 89.5332 211.947 88.2206 211.186 86.8891C210.463 85.5576 209.702 84.2641 208.903 83.0086C208.142 81.7531 207.381 80.5738 206.621 79.4705C205.86 78.3292 205.099 77.302 204.338 76.3889H199.944V90.8267H191.042V51.8505C192.982 51.47 194.979 51.2037 197.033 51.0515C199.126 50.8994 200.99 50.8233 202.626 50.8233ZM203.14 58.4131C202.493 58.4131 201.903 58.4321 201.371 58.4701C200.876 58.5082 200.4 58.5462 199.944 58.5843V69.3127H202.455C205.803 69.3127 208.199 68.8942 209.645 68.0573C211.091 67.2203 211.814 65.7936 211.814 63.7773C211.814 61.837 211.072 60.4675 209.588 59.6685C208.142 58.8316 205.993 58.4131 203.14 58.4131ZM235.577 71.0247C235.577 72.9649 235.805 74.715 236.262 76.2748C236.756 77.8346 237.441 79.1852 238.316 80.3265C239.229 81.4298 240.332 82.2858 241.626 82.8945C242.919 83.5032 244.403 83.8075 246.077 83.8075C247.713 83.8075 249.178 83.5032 250.471 82.8945C251.803 82.2858 252.906 81.4298 253.781 80.3265C254.694 79.1852 255.379 77.8346 255.835 76.2748C256.33 74.715 256.577 72.9649 256.577 71.0247C256.577 69.0844 256.33 67.3344 255.835 65.7746C255.379 64.1768 254.694 62.8262 253.781 61.7229C252.906 60.5816 251.803 59.7066 250.471 59.0979C249.178 58.4892 247.713 58.1848 246.077 58.1848C244.403 58.1848 242.919 58.5082 241.626 59.1549C240.332 59.7636 239.229 60.6387 238.316 61.78C237.441 62.8833 236.756 64.2338 236.262 65.8317C235.805 67.3915 235.577 69.1225 235.577 71.0247ZM265.765 71.0247C265.765 74.4106 265.251 77.3971 264.224 79.9841C263.235 82.533 261.865 84.6825 260.115 86.4326C258.365 88.1445 256.273 89.438 253.838 90.3131C251.441 91.1881 248.854 91.6256 246.077 91.6256C243.376 91.6256 240.827 91.1881 238.43 90.3131C236.033 89.438 233.941 88.1445 232.153 86.4326C230.365 84.6825 228.957 82.533 227.93 79.9841C226.903 77.3971 226.389 74.4106 226.389 71.0247C226.389 67.6388 226.922 64.6713 227.987 62.1224C229.052 59.5354 230.479 57.3669 232.267 55.6168C234.093 53.8668 236.185 52.5543 238.544 51.6793C240.941 50.8043 243.452 50.3667 246.077 50.3667C248.778 50.3667 251.327 50.8043 253.724 51.6793C256.121 52.5543 258.213 53.8668 260.001 55.6168C261.789 57.3669 263.197 59.5354 264.224 62.1224C265.251 64.6713 265.765 67.6388 265.765 71.0247ZM293.725 90.8267C292.621 88.6201 291.404 86.3945 290.072 84.1499C288.779 81.8673 287.276 79.5466 285.564 77.1878C285.031 77.8726 284.347 78.8237 283.51 80.0412C282.711 81.2586 281.893 82.5521 281.056 83.9217C280.257 85.2912 279.496 86.6038 278.773 87.8592C278.05 89.1147 277.518 90.1038 277.175 90.8267H267.018C268.692 87.7451 270.632 84.5113 272.838 81.1254C275.083 77.7395 277.575 74.1443 280.314 70.3399L267.588 51.2798H278.374L286.078 63.6061L293.61 51.2798H303.768L291.214 70.454C294.409 74.6008 297.091 78.4433 299.26 81.9814C301.428 85.4815 303.14 88.4299 304.396 90.8267H293.725ZM309.521 51.2798H318.423V90.8267H309.521V51.2798ZM338.077 51.2798C338.762 52.5353 339.542 54.0951 340.417 55.9592C341.33 57.7853 342.262 59.7827 343.213 61.9512C344.202 64.0816 345.172 66.2692 346.123 68.5138C347.074 70.7584 347.968 72.8698 348.805 74.8481C349.642 72.8698 350.536 70.7584 351.488 68.5138C352.439 66.2692 353.39 64.0816 354.341 61.9512C355.33 59.7827 356.262 57.7853 357.137 55.9592C358.05 54.0951 358.849 52.5353 359.534 51.2798H367.637C368.018 53.9048 368.36 56.8533 368.664 60.1251C369.007 63.3588 369.292 66.7447 369.52 70.2828C369.787 73.7829 370.015 77.302 370.205 80.8401C370.433 84.3782 370.624 87.707 370.776 90.8267H362.102C361.988 86.9842 361.836 82.7994 361.645 78.2721C361.455 73.7449 361.17 69.1796 360.789 64.5762C360.105 66.1741 359.344 67.9431 358.507 69.8834C357.67 71.8236 356.833 73.7639 355.996 75.7041C355.197 77.6444 354.417 79.5085 353.656 81.2966C352.895 83.0466 352.248 84.5494 351.716 85.8048H345.496C344.963 84.5494 344.316 83.0466 343.555 81.2966C342.794 79.5085 341.996 77.6444 341.159 75.7041C340.36 73.7639 339.542 71.8236 338.705 69.8834C337.868 67.9431 337.107 66.1741 336.422 64.5762C336.042 69.1796 335.756 73.7449 335.566 78.2721C335.376 82.7994 335.224 86.9842 335.11 90.8267H326.435C326.588 87.707 326.759 84.3782 326.949 80.8401C327.177 77.302 327.406 73.7829 327.634 70.2828C327.9 66.7447 328.186 63.3588 328.49 60.1251C328.832 56.8533 329.194 53.9048 329.574 51.2798H338.077ZM405.27 90.8267C404.852 89.4571 404.376 88.0494 403.844 86.6038C403.349 85.1581 402.854 83.7124 402.36 82.2667H386.952C386.457 83.7124 385.944 85.1581 385.411 86.6038C384.917 88.0494 384.46 89.4571 384.042 90.8267H374.797C376.281 86.5657 377.688 82.6282 379.02 79.014C380.351 75.3998 381.645 71.9948 382.9 68.7991C384.194 65.6034 385.449 62.5789 386.667 59.7256C387.922 56.8342 389.216 54.019 390.547 51.2798H399.05C400.343 54.019 401.618 56.8342 402.873 59.7256C404.129 62.5789 405.384 65.6034 406.64 68.7991C407.933 71.9948 409.246 75.3998 410.577 79.014C411.909 82.6282 413.316 86.5657 414.8 90.8267H405.27ZM394.599 60.2392C394.409 60.8099 394.123 61.5898 393.743 62.5789C393.362 63.5681 392.925 64.7094 392.43 66.0029C391.936 67.2964 391.384 68.723 390.775 70.2828C390.205 71.8426 389.615 73.4785 389.006 75.1905H400.248C399.64 73.4785 399.05 71.8426 398.479 70.2828C397.909 68.723 397.357 67.2964 396.824 66.0029C396.33 64.7094 395.892 63.5681 395.512 62.5789C395.131 61.5898 394.827 60.8099 394.599 60.2392ZM430.419 51.2798C431.104 52.5353 431.884 54.0951 432.759 55.9592C433.672 57.7853 434.604 59.7827 435.555 61.9512C436.545 64.0816 437.515 66.2692 438.466 68.5138C439.417 70.7584 440.311 72.8698 441.148 74.8481C441.985 72.8698 442.879 70.7584 443.83 68.5138C444.781 66.2692 445.732 64.0816 446.683 61.9512C447.672 59.7827 448.605 57.7853 449.48 55.9592C450.393 54.0951 451.191 52.5353 451.876 51.2798H459.98C460.36 53.9048 460.703 56.8533 461.007 60.1251C461.349 63.3588 461.635 66.7447 461.863 70.2828C462.129 73.7829 462.357 77.302 462.548 80.8401C462.776 84.3782 462.966 87.707 463.118 90.8267H454.444C454.33 86.9842 454.178 82.7994 453.988 78.2721C453.798 73.7449 453.512 69.1796 453.132 64.5762C452.447 66.1741 451.686 67.9431 450.849 69.8834C450.012 71.8236 449.175 73.7639 448.338 75.7041C447.539 77.6444 446.759 79.5085 445.998 81.2966C445.238 83.0466 444.591 84.5494 444.058 85.8048H437.838C437.305 84.5494 436.659 83.0466 435.898 81.2966C435.137 79.5085 434.338 77.6444 433.501 75.7041C432.702 73.7639 431.884 71.8236 431.047 69.8834C430.21 67.9431 429.449 66.1741 428.764 64.5762C428.384 69.1796 428.099 73.7449 427.909 78.2721C427.718 82.7994 427.566 86.9842 427.452 90.8267H418.778C418.93 87.707 419.101 84.3782 419.292 80.8401C419.52 77.302 419.748 73.7829 419.976 70.2828C420.243 66.7447 420.528 63.3588 420.832 60.1251C421.175 56.8533 421.536 53.9048 421.917 51.2798H430.419ZM471.134 90.8267V51.2798H497.841V58.7555H480.036V66.5165H495.844V73.8209H480.036V83.351H499.153V90.8267H471.134ZM532.277 90.8267C529.728 86.2994 526.97 81.8292 524.003 77.4161C521.035 73.003 517.877 68.8372 514.53 64.9186V90.8267H505.741V51.2798H512.989C514.244 52.5353 515.633 54.076 517.155 55.9022C518.676 57.7283 520.217 59.6876 521.777 61.78C523.375 63.8344 524.954 65.9839 526.513 68.2285C528.073 70.435 529.538 72.5655 530.908 74.6199V51.2798H539.753V90.8267H532.277ZM578.207 51.2798V58.8696H566.281V90.8267H557.378V58.8696H545.451V51.2798H578.207ZM583.929 90.8267V51.2798H610.636V58.7555H592.831V66.5165H608.638V73.8209H592.831V83.351H611.948V90.8267H583.929Z" fill="#F5F5F5"/>
</g>
</g>
<defs>
<filter id="filter0_b" x="547.504" y="911.134" width="73.8348" height="53.3754" filterUnits="userSpaceOnUse" color-interpolation-filters="sRGB">
<feFlood flood-opacity="0" result="BackgroundImageFix"/>
<feGaussianBlur in="BackgroundImage" stdDeviation="2"/>
<feComposite in2="SourceAlpha" operator="in" result="effect1_backgroundBlur"/>
<feBlend mode="normal" in="SourceGraphic" in2="effect1_backgroundBlur" result="shape"/>
</filter>
<filter id="filter1_b" x="645.564" y="927.999" width="73.8348" height="53.3754" filterUnits="userSpaceOnUse" color-interpolation-filters="sRGB">
<feFlood flood-opacity="0" result="BackgroundImageFix"/>
<feGaussianBlur in="BackgroundImage" stdDeviation="2"/>
<feComposite in2="SourceAlpha" operator="in" result="effect1_backgroundBlur"/>
<feBlend mode="normal" in="SourceGraphic" in2="effect1_backgroundBlur" result="shape"/>
</filter>
<filter id="filter2_b" x="170.961" y="494.086" width="50.0075" height="36.8458" filterUnits="userSpaceOnUse" color-interpolation-filters="sRGB">
<feFlood flood-opacity="0" result="BackgroundImageFix"/>
<feGaussianBlur in="BackgroundImage" stdDeviation="2"/>
<feComposite in2="SourceAlpha" operator="in" result="effect1_backgroundBlur"/>
<feBlend mode="normal" in="SourceGraphic" in2="effect1_backgroundBlur" result="shape"/>
</filter>
<filter id="filter3_b" x="234.859" y="489.188" width="50.0075" height="36.8458" filterUnits="userSpaceOnUse" color-interpolation-filters="sRGB">
<feFlood flood-opacity="0" result="BackgroundImageFix"/>
<feGaussianBlur in="BackgroundImage" stdDeviation="2"/>
<feComposite in2="SourceAlpha" operator="in" result="effect1_backgroundBlur"/>
<feBlend mode="normal" in="SourceGraphic" in2="effect1_backgroundBlur" result="shape"/>
</filter>
<filter id="filter4_d" x="154.316" y="50.3668" width="465.709" height="50.3457" filterUnits="userSpaceOnUse" color-interpolation-filters="sRGB">
<feFlood flood-opacity="0" result="BackgroundImageFix"/>
<feColorMatrix in="SourceAlpha" type="matrix" values="0 0 0 0 0 0 0 0 0 0 0 0 0 0 0 0 0 0 127 0"/>
<feOffset dx="4.03862" dy="5.04828"/>
<feGaussianBlur stdDeviation="2.01931"/>
<feColorMatrix type="matrix" values="0 0 0 0 1 0 0 0 0 1 0 0 0 0 1 0 0 0 0.4 0"/>
<feBlend mode="normal" in2="BackgroundImageFix" result="effect1_dropShadow"/>
<feBlend mode="normal" in="SourceGraphic" in2="effect1_dropShadow" result="shape"/>
</filter>
<clipPath id="clip0">
<rect width="768" height="1024" fill="white" transform="translate(0.737305 0.0499878)"/>
</clipPath>
</defs>
</svg>
