<svg width="361" height="640" viewBox="0 0 361 640" fill="none" xmlns="http://www.w3.org/2000/svg">
<g clip-path="url(#clip0)">
<rect width="360" height="640" transform="translate(0.262939)" fill="#3C576A"/>
<g filter="url(#filter0_d)">
<path opacity="0.91" d="M17.829 100.892L26.5797 104.16L25.5252 94.8789L30.1276 103.008L35.2858 95.2197L33.5864 104.405L42.5438 101.755L35.3378 107.699L43.903 111.426L34.5622 111.348L38.7275 119.709L31.6225 113.645L29.439 122.727L27.8943 113.514L20.3835 119.068L25.122 111.018L15.7984 110.445L24.6028 107.324L17.829 100.892Z" fill="#063885"/>
<path opacity="0.91" d="M191.61 64.3405L186.483 71.0265L194.766 72.5645L186.541 74.3907L191.899 80.8937L184.424 77.0056L184.348 85.4307L181.121 77.6477L175.647 84.0526L178.178 76.0164L169.868 77.4043L176.972 72.8751L169.714 68.5966L178.068 69.6937L175.258 61.7507L180.952 67.9607L183.905 60.0698L184.275 68.4871L191.61 64.3405Z" fill="#063885"/>
<path opacity="0.9" d="M84.4046 290.789L75.2746 290.073L78.7765 298.535L72.2425 292.118L69.4859 300.852L68.6052 291.736L60.8799 296.654L66.0646 289.105L56.9853 287.907L65.8095 285.457L59.6246 278.703L67.9592 282.498L67.5627 273.349L71.5079 281.613L77.0853 274.349L74.7951 283.216L83.7367 281.237L76.2827 286.558L84.4046 290.789Z" fill="#063885"/>
<path opacity="0.84" d="M134.968 339.322L132.859 332.21L127.476 337.314L130.432 330.51L123.028 330.961L129.665 327.649L123.704 323.235L130.917 324.964L129.188 317.75L133.602 323.712L136.914 317.075L136.464 324.479L143.267 321.523L138.163 326.906L145.275 329.015L137.905 329.857L141.997 336.044L135.81 331.951L134.968 339.322Z" fill="#063885"/>
<path opacity="0.96" d="M349.796 374.79L346.143 384.57L356.516 383.391L347.431 388.535L356.135 394.3L345.869 392.401L348.831 402.412L342.188 394.358L338.022 403.931L338.11 393.491L328.765 398.147L335.543 390.206L325.392 387.765L335.688 386.039L329.481 377.645L338.478 382.94L339.119 372.52L342.607 382.36L349.796 374.79Z" fill="#063885"/>
<path opacity="0.9" d="M100.041 487.376L109.565 487.29L105.169 478.841L112.521 484.896L114.585 475.599L116.324 484.963L123.882 479.167L119.194 487.458L128.709 487.877L119.789 491.215L126.809 497.652L117.83 494.475L119.07 503.919L114.234 495.714L109.114 503.745L110.683 494.351L101.598 497.212L108.839 491.024L100.041 487.376Z" fill="#063885"/>
<path opacity="0.72" d="M198.303 545.771L206.077 548.219L204.734 540.18L209.116 547.053L213.255 540.031L212.193 548.112L219.877 545.394L213.87 550.902L221.503 553.759L213.361 554.117L217.372 561.213L210.904 556.253L209.416 564.267L207.65 556.31L201.359 561.492L205.12 554.261L196.97 554.188L204.499 551.066L198.303 545.771Z" fill="#063885"/>
<path opacity="0.7" d="M312.894 435.221L320.943 430.663L313.232 425.556L322.327 427.239L319.703 418.369L325.588 425.504L329.279 417.023L329.202 426.272L337.481 422.148L331.476 429.183L340.469 431.345L331.347 432.875L336.846 440.312L328.875 435.62L328.308 444.852L325.217 436.134L318.848 442.841L322.085 434.177L312.894 435.221Z" fill="#063885"/>
<path opacity="0.86" d="M16.5791 30.8728L23.7345 32.9899L22.377 25.6524L26.4975 31.8735L30.174 25.3802L29.3316 32.7944L36.3219 30.1834L30.9108 35.3216L37.9439 37.8147L30.4961 38.2726L34.2812 44.7032L28.2815 40.2666L27.0476 47.6258L25.3033 40.3706L19.6276 45.215L22.955 38.536L15.4933 38.5987L22.3354 35.6211L16.5791 30.8728Z" fill="#063885"/>
<path opacity="0.74" d="M360.656 77.7594L366.488 85.9297L371.126 77.0273L370.342 87.0347L379.617 83.1963L372.583 90.3582L382.156 93.3797L372.164 94.345L377.555 102.813L369.281 97.1298L367.967 107.082L365.282 97.4094L357.879 104.189L362.038 95.0531L352.01 95.4878L361.069 91.1634L353.107 85.05L362.826 87.5603L360.656 77.7594Z" fill="#063885"/>
<path opacity="0.92" d="M99.0422 282.258L97.3211 277.12L93.5218 280.984L95.5062 275.941L90.1122 276.459L94.8735 273.872L90.4087 270.801L95.719 271.88L94.2726 266.658L97.6472 270.897L99.8959 265.967L99.7558 271.384L104.647 269.053L101.058 273.112L106.304 274.471L100.945 275.273L104.09 279.686L99.469 276.856L99.0422 282.258Z" fill="#063885"/>
<path opacity="0.77" d="M148.236 231.782L143.848 225.857L140.556 232.454L141.004 225.095L134.242 228.033L139.315 222.683L132.246 220.586L139.572 219.749L135.504 213.6L141.654 217.667L142.491 210.342L144.587 217.411L149.937 212.337L146.999 219.1L154.359 218.652L147.761 221.944L153.687 226.331L146.517 224.612L148.236 231.782Z" fill="#063885"/>
<path opacity="0.7" d="M343.623 276.026L348.488 269.682L340.627 268.222L348.432 266.489L343.349 260.319L350.441 264.008L350.514 256.013L353.576 263.399L358.77 257.321L356.368 264.947L364.254 263.63L357.512 267.928L364.4 271.987L356.473 270.946L359.139 278.484L353.736 272.591L350.934 280.079L350.582 272.091L343.623 276.026Z" fill="#063885"/>
<path opacity="0.88" d="M0.254992 362.871L6.02141 356.349L-2.40619 354.166L6.20337 352.877L1.15026 345.788L8.57446 350.334L9.26026 341.656L12.0252 349.91L18.129 343.703L14.941 351.804L23.6068 350.972L15.9575 355.129L23.1304 360.062L14.599 358.329L16.9228 366.719L11.5013 359.907L7.88862 367.828L8.11373 359.125L0.254992 362.871Z" fill="#063885"/>
<path opacity="0.75" d="M219.979 518.894L212.558 523.096L219.668 527.805L211.283 526.254L213.702 534.431L208.276 527.853L204.873 535.672L204.944 527.145L197.311 530.947L202.847 524.461L194.556 522.467L202.966 521.057L197.896 514.2L205.245 518.526L205.768 510.014L208.618 518.052L214.49 511.868L211.506 519.857L219.979 518.894Z" fill="#063885"/>
<path opacity="0.89" d="M270.592 433.605L268.749 441.293L276.437 439.45L270.083 444.154L277.158 447.684L269.266 447.204L272.416 454.456L266.68 449.015L264.432 456.595L263.534 448.74L256.94 453.102L261.302 446.507L253.447 445.61L261.026 443.362L255.586 437.625L262.837 440.776L262.357 432.884L265.887 439.958L270.592 433.605Z" fill="#063885"/>
<path opacity="0.76" d="M31.6532 201.589L26.7427 193.886L22.104 201.755L23.2934 192.698L14.6817 195.745L21.4145 189.571L12.8594 186.37L21.9852 185.968L17.4896 178.016L24.7384 183.575L26.406 174.594L28.3859 183.511L35.4363 177.703L31.221 185.807L40.3552 185.89L31.917 189.388L38.8612 195.323L30.1484 192.579L31.6532 201.589Z" fill="#063885"/>
<path opacity="0.83" d="M257.924 114.468L248.665 119.71L257.536 125.586L247.073 123.65L250.092 133.853L243.321 125.645L239.075 135.402L239.165 124.762L229.641 129.506L236.549 121.413L226.203 118.926L236.697 117.166L230.371 108.611L239.54 114.008L240.193 103.388L243.748 113.417L251.075 105.701L247.352 115.669L257.924 114.468Z" fill="#063885"/>
<path opacity="0.98" d="M329.205 66.2643L333.654 56.9308L323.318 57.1982L332.725 52.9076L324.635 46.4687L334.599 49.2285L332.541 39.0962L338.4 47.6152L343.337 38.5305L342.349 48.8224L351.97 45.0361L344.598 52.2854L354.402 55.5692L344.095 56.3837L349.494 65.201L341.075 59.1997L339.543 69.4249L336.951 59.4158L329.205 66.2643Z" fill="#063885"/>
<path opacity="0.81" d="M90.2257 346.424L98.1638 342.11L90.72 336.991L99.5735 338.789L97.162 330.083L102.788 337.151L106.537 328.932L106.304 337.963L114.459 334.076L108.475 340.844L117.221 343.109L108.286 344.447L113.53 351.804L105.826 347.086L105.114 356.092L102.245 347.526L95.9102 353.967L99.2186 345.561L90.2257 346.424Z" fill="#063885"/>
<path opacity="0.81" d="M262.973 201.798L270.253 200.966L266.211 194.854L272.323 198.897L273.154 191.616L275.238 198.642L280.555 193.599L277.635 200.32L284.949 199.875L278.392 203.147L284.282 207.508L277.156 205.799L278.864 212.925L274.503 207.036L271.232 213.593L271.677 206.279L264.956 209.198L269.998 203.881L262.973 201.798Z" fill="#063885"/>
<path opacity="0.73" d="M192.529 397.124L194.547 405.518L201.113 399.913L197.264 407.64L205.896 407.568L197.98 411.013L204.64 416.506L196.362 414.057L197.932 422.545L193.165 415.348L188.912 422.86L189.886 414.283L181.799 417.303L188.059 411.359L179.923 408.475L188.539 407.945L184.16 400.505L191.101 405.638L192.529 397.124Z" fill="#063885"/>
<path opacity="0.82" d="M75.553 441.46L79.9734 447.429L83.2899 440.783L82.8388 448.197L89.6518 445.237L84.5403 450.627L91.662 452.739L84.2818 453.583L88.3797 459.778L82.1841 455.68L81.3409 463.06L79.2289 455.939L73.839 461.05L76.7989 454.237L69.3844 454.688L76.0311 451.372L70.0613 446.951L77.2848 448.683L75.553 441.46Z" fill="#063885"/>
<path opacity="0.99" d="M233.962 496.365L225.792 489.392L223.282 499.836L221.506 489.243L212.869 495.629L218.318 486.373L207.597 485.713L217.721 482.125L209.932 474.729L219.994 478.487L218.781 467.815L224.073 477.162L230.004 468.207L228.051 478.768L238.35 475.721L230.064 482.556L239.913 486.842L229.172 486.752L233.962 496.365Z" fill="#063885"/>
<path opacity="0.8" d="M375 449.657L370.199 453.617L375.906 456.101L369.683 456.049L372.458 461.619L367.724 457.579L366.269 463.63L365.24 457.492L360.236 461.192L363.393 455.829L357.181 455.447L363.047 453.368L358.534 449.082L364.364 451.26L363.662 445.076L366.728 450.492L370.165 445.303L369.032 451.423L375 449.657Z" fill="#063885"/>
</g>
<g opacity="0.78">
<path d="M161.462 124C161.462 152.784 138.128 176.118 109.345 176.118C80.5607 176.118 57.2268 152.784 57.2268 124C57.2268 95.2161 80.5607 71.8822 109.345 71.8822C138.128 71.8822 161.462 95.2161 161.462 124Z" fill="#4E4949"/>
<path fill-rule="evenodd" clip-rule="evenodd" d="M109.345 173.923C136.952 173.923 159.292 151.549 159.292 124C159.292 96.4508 136.952 74.0766 109.345 74.0766C81.7369 74.0766 59.3973 96.4508 59.3973 124C59.3973 151.549 81.7369 173.923 109.345 173.923ZM109.345 176.118C138.128 176.118 161.462 152.784 161.462 124C161.462 95.2161 138.128 71.8822 109.345 71.8822C80.5607 71.8822 57.2268 95.2161 57.2268 124C57.2268 152.784 80.5607 176.118 109.345 176.118Z" fill="black"/>
<path d="M151.039 124C151.039 147.027 132.372 165.694 109.345 165.694C86.3175 165.694 67.6504 147.027 67.6504 124C67.6504 100.973 86.3175 82.3058 109.345 82.3058C132.372 82.3058 151.039 100.973 151.039 124Z" fill="#525252"/>
<path fill-rule="evenodd" clip-rule="evenodd" d="M109.345 164.378C131.666 164.378 149.737 146.286 149.737 124C149.737 101.714 131.666 83.6224 109.345 83.6224C87.0232 83.6224 68.9527 101.714 68.9527 124C68.9527 146.286 87.0232 164.378 109.345 164.378ZM109.345 165.694C132.372 165.694 151.039 147.027 151.039 124C151.039 100.973 132.372 82.3058 109.345 82.3058C86.3175 82.3058 67.6504 100.973 67.6504 124C67.6504 147.027 86.3175 165.694 109.345 165.694Z" fill="black"/>
<path d="M128.397 106.08C131.511 100.661 132.519 98.1875 136.02 93.4779C131.704 89.9902 129.552 88.1256 123.584 86.1834C120.649 91.0219 117.981 93.3713 114.657 98.1611C110.309 98.7283 108.049 100.001 104.506 104.871C103.184 107.51 103.154 108.808 104.496 110.753C100.306 113.529 100.215 116.321 104.554 119.009C105.646 122.031 106.836 122.947 109.848 123.371C112.723 125.62 113.896 125.754 116.287 124.551C119.98 127.198 121.649 125.883 124.157 120.283C126.638 113.523 128.347 109.256 127.665 107.23C128.159 106.797 128.275 106.542 128.397 106.08Z" fill="#0116D1"/>
<path fill-rule="evenodd" clip-rule="evenodd" d="M123.536 86.0526L123.618 86.079C129.359 87.9476 131.586 89.749 135.567 92.9707C135.737 93.1086 135.911 93.2491 136.088 93.3923L136.171 93.4588L136.107 93.5439C133.586 96.936 132.362 99.1622 130.705 102.176C130.066 103.338 129.364 104.616 128.498 106.123C128.437 106.35 128.375 106.538 128.263 106.723C128.158 106.898 128.012 107.066 127.791 107.265C127.948 107.783 127.961 108.425 127.861 109.188C127.757 109.987 127.528 110.928 127.201 112.013C126.66 113.808 125.849 116.008 124.883 118.627C124.681 119.173 124.473 119.738 124.259 120.321L124.258 120.325L124.256 120.328C123.628 121.73 123.051 122.868 122.479 123.745C121.908 124.621 121.338 125.243 120.721 125.604C119.482 126.33 118.105 125.976 116.277 124.678C115.104 125.263 114.201 125.531 113.231 125.364C112.256 125.196 111.231 124.59 109.805 123.476C108.307 123.262 107.241 122.924 106.413 122.249C105.586 121.576 105.01 120.58 104.465 119.083C102.311 117.741 101.214 116.349 101.218 114.913C101.222 113.494 102.304 112.095 104.344 110.723C103.708 109.781 103.389 108.971 103.394 108.071C103.399 107.147 103.747 106.144 104.409 104.822L104.413 104.814L104.419 104.806C106.193 102.367 107.653 100.818 109.222 99.8099C110.78 98.8074 112.437 98.3437 114.596 98.0586C116.019 96.0112 117.323 94.4084 118.577 92.8672C118.78 92.6174 118.982 92.3692 119.183 92.1211C120.631 90.3314 122.028 88.539 123.492 86.1261L123.536 86.0526ZM123.632 86.3143C122.177 88.7029 120.787 90.486 119.351 92.26C119.15 92.5088 118.947 92.7573 118.744 93.0073C117.482 94.5585 116.175 96.1652 114.746 98.2242L114.719 98.2638L114.672 98.27C112.505 98.5525 110.871 99.0092 109.338 99.995C107.805 100.981 106.365 102.502 104.599 104.929C103.942 106.241 103.616 107.204 103.611 108.073C103.606 108.939 103.921 109.727 104.585 110.69L104.649 110.783L104.556 110.845C102.466 112.229 101.439 113.593 101.435 114.914C101.431 116.234 102.447 117.575 104.611 118.916L104.643 118.936L104.656 118.972C105.2 120.475 105.762 121.437 106.549 122.079C107.337 122.72 108.364 123.051 109.864 123.262L109.892 123.266L109.915 123.284C111.351 124.408 112.345 124.988 113.268 125.148C114.184 125.306 115.049 125.051 116.238 124.453L116.297 124.423L116.35 124.461C118.189 125.78 119.479 126.078 120.612 125.415C121.188 125.078 121.735 124.487 122.298 123.624C122.86 122.763 123.431 121.638 124.057 120.241C124.271 119.658 124.479 119.094 124.68 118.548C125.646 115.929 126.455 113.737 126.993 111.949C127.319 110.869 127.544 109.941 127.646 109.159C127.748 108.376 127.725 107.749 127.563 107.266L127.539 107.196L127.594 107.147C127.837 106.935 127.98 106.771 128.078 106.609C128.176 106.447 128.232 106.28 128.292 106.052L128.296 106.038L128.303 106.025C129.168 104.52 129.871 103.242 130.51 102.079C132.156 99.0844 133.382 96.8545 135.871 93.4972C135.722 93.3771 135.576 93.2589 135.432 93.1425C131.475 89.9404 129.276 88.1611 123.632 86.3143Z" fill="black"/>
<path fill-rule="evenodd" clip-rule="evenodd" d="M121.941 100.346L126.239 94.3992L126.414 94.5286L122.117 100.475L121.941 100.346ZM122.654 100.561L124.918 97.5254L125.091 97.6575L122.827 100.694L122.654 100.561ZM119.74 100.217C118.452 99.5717 117.657 99.2488 116.126 98.7238L116.196 98.516C117.734 99.0435 118.538 99.37 119.836 100.021L119.74 100.217ZM126.084 105.472C124.983 104.192 124.284 103.521 122.952 102.366L123.093 102.199C124.432 103.359 125.138 104.038 126.248 105.328L126.084 105.472ZM115.588 108.311C114.05 108.656 112.595 108.577 110.816 108.088L110.873 107.876C112.625 108.358 114.044 108.433 115.541 108.096C117.043 107.759 118.631 107.006 120.721 105.817L120.828 106.008C118.734 107.199 117.123 107.966 115.588 108.311ZM109.293 107.025C109.315 106.882 109.316 106.757 109.293 106.634C109.266 106.49 109.209 106.354 109.128 106.201L108.937 106.304C109.013 106.449 109.059 106.562 109.079 106.674C109.1 106.784 109.097 106.9 109.068 107.054L108.909 107.585C108.823 107.564 108.735 107.549 108.646 107.538C108.194 107.484 107.708 107.562 107.163 107.746L107.232 107.954C107.759 107.776 108.211 107.707 108.621 107.756C109.028 107.804 109.4 107.971 109.766 108.277C110.504 108.894 111.207 110.07 112.09 111.966C112.227 112.35 112.158 112.811 111.941 113.275C111.724 113.74 111.366 114.193 110.955 114.551C110.542 114.909 110.084 115.162 109.67 115.237C109.262 115.311 108.906 115.211 108.661 114.875C108.105 114.11 107.024 112.991 106.087 112.069C105.618 111.606 105.184 111.191 104.866 110.892C104.708 110.742 104.578 110.621 104.488 110.538C104.444 110.496 104.409 110.464 104.385 110.442L104.358 110.417L104.349 110.408C104.349 110.408 104.348 110.408 104.275 110.49C104.202 110.571 104.202 110.571 104.202 110.571L104.203 110.571L104.212 110.579L104.238 110.604C104.262 110.626 104.297 110.658 104.341 110.699C104.431 110.783 104.56 110.903 104.718 111.052C105.035 111.351 105.468 111.765 105.936 112.226C106.874 113.15 107.942 114.257 108.486 115.005C108.791 115.424 109.239 115.538 109.709 115.453C110.173 115.368 110.665 115.091 111.096 114.717C111.527 114.343 111.906 113.865 112.137 113.369C112.368 112.874 112.459 112.347 112.292 111.886L112.29 111.881L112.288 111.877C111.984 111.224 111.699 110.651 111.424 110.153L111.453 110.181L111.697 109.92C112.673 110.119 113.328 110.361 113.804 110.757C114.263 111.139 114.567 111.675 114.822 112.49L114.813 112.511C112.722 116.997 111.332 119.668 109.52 122.454L109.701 122.574C111.509 119.795 112.898 117.13 114.967 112.695L114.973 112.695C115.969 112.619 116.665 112.696 117.225 112.982C117.779 113.264 118.216 113.758 118.677 114.554C118.657 116.169 118.535 117.471 118.13 118.892C117.722 120.323 117.025 121.879 115.847 124L116.036 124.107C117.218 121.98 117.924 120.407 118.339 118.953C118.745 117.527 118.87 116.221 118.893 114.627C119.731 114.565 120.421 114.634 120.973 114.85C121.543 115.073 121.971 115.455 122.265 116.028C122.561 116.605 122.724 117.379 122.75 118.388C122.775 119.396 122.665 120.63 122.42 122.122L122.634 122.158C122.88 120.659 122.993 119.409 122.966 118.382C122.94 117.356 122.774 116.544 122.458 115.927C122.14 115.307 121.671 114.888 121.052 114.645C120.452 114.41 119.715 114.343 118.845 114.41C118.382 113.617 117.922 113.091 117.323 112.786C116.728 112.482 116.009 112.404 115.044 112.47C114.779 111.609 114.455 111.015 113.942 110.587C113.423 110.155 112.723 109.904 111.733 109.703C111.417 109.06 111.124 108.579 110.747 108.163C110.373 107.749 109.922 107.404 109.293 107.025ZM111.529 109.781C111.221 109.157 110.94 108.702 110.587 108.311C110.243 107.93 109.826 107.606 109.237 107.246L109.117 107.647C109.391 107.744 109.651 107.896 109.904 108.108C110.386 108.51 110.845 109.13 111.333 109.99L111.529 109.781ZM114.119 110.044C117.362 111.365 119.823 112.171 123.096 111.618L123.131 111.834C119.796 112.398 117.287 111.571 114.038 110.248L114.119 110.044ZM106.1 115.692C106.555 114.981 106.96 114.451 107.604 113.985L107.731 114.164C107.119 114.606 106.731 115.109 106.283 115.811C106.151 116.017 106.013 116.242 105.863 116.486C105.504 117.071 105.074 117.773 104.475 118.629L104.298 118.503C104.892 117.652 105.317 116.96 105.674 116.377C105.826 116.13 105.965 115.903 106.1 115.692Z" fill="black"/>
<path d="M103.775 150.876C100.539 156.221 99.4716 157.113 96.6236 162.392C94.2785 161.554 90.0981 160.197 83.5617 155.449C86.3781 150.539 87.7651 147.648 90.3544 142.416C88.7817 138.278 88.8152 135.663 91.3706 130.196C93.0387 127.767 94.1537 127.123 96.4848 127.393C96.9091 122.346 99.2957 120.939 103.697 123.521C106.846 123.057 108.208 123.681 110.009 126.159C113.332 127.647 114.007 128.628 114.095 131.326C118.154 133.354 117.802 135.463 114.121 140.355C109.416 145.775 106.514 149.322 104.428 149.679C104.286 150.324 104.118 150.548 103.775 150.876Z" fill="#950000"/>
<path fill-rule="evenodd" clip-rule="evenodd" d="M83.4184 155.48L83.4984 155.538C89.7216 160.059 93.816 161.512 96.2235 162.366C96.3494 162.411 96.4707 162.454 96.5875 162.496L96.6747 162.527L96.719 162.445C98.1411 159.809 99.118 158.269 100.144 156.72C100.325 156.447 100.507 156.173 100.694 155.893C101.566 154.587 102.53 153.142 103.86 150.945C104.029 150.783 104.162 150.639 104.271 150.451C104.373 150.274 104.45 150.065 104.518 149.773C105.043 149.667 105.608 149.374 106.225 148.923C106.871 148.45 107.581 147.799 108.37 146.993C109.674 145.659 111.204 143.892 113.024 141.788C113.404 141.349 113.796 140.895 114.202 140.428L114.205 140.425L114.207 140.422C115.129 139.197 115.845 138.143 116.336 137.218C116.827 136.294 117.098 135.49 117.119 134.77C117.161 133.323 116.199 132.266 114.201 131.257C114.153 129.936 113.957 129.005 113.351 128.221C112.741 127.434 111.727 126.81 110.079 126.07C109.182 124.839 108.381 124.052 107.401 123.636C106.422 123.22 105.281 123.18 103.719 123.407C101.528 122.128 99.7949 121.814 98.5478 122.5C97.3148 123.178 96.6105 124.805 96.3865 127.272C95.264 127.154 94.4075 127.254 93.627 127.686C92.8253 128.13 92.1176 128.916 91.2815 130.134L91.2763 130.141L91.2725 130.149C89.9927 132.887 89.3389 134.922 89.2063 136.796C89.0744 138.659 89.4582 140.354 90.236 142.41C89.9988 142.889 89.7716 143.349 89.5526 143.793C87.3929 148.164 86.016 150.951 83.4678 155.394L83.4184 155.48ZM83.705 155.418C86.2252 151.019 87.6009 148.234 89.7466 143.891C89.9723 143.434 90.2065 142.96 90.4515 142.465L90.4729 142.422L90.4557 142.376C89.6723 140.315 89.2931 138.644 89.4228 136.812C89.5524 134.98 90.1919 132.976 91.4649 130.251C92.2945 129.044 92.9772 128.296 93.7312 127.879C94.4826 127.463 95.3186 127.368 96.4725 127.502L96.5835 127.515L96.593 127.402C96.8046 124.885 97.5033 123.324 98.6515 122.693C99.798 122.062 101.448 122.329 103.643 123.616L103.676 123.635L103.713 123.63C105.28 123.399 106.384 123.442 107.317 123.838C108.249 124.234 109.025 124.99 109.922 126.224L109.939 126.247L109.965 126.259C111.626 127.003 112.603 127.611 113.18 128.356C113.753 129.097 113.943 129.987 113.987 131.33L113.989 131.395L114.047 131.424C116.069 132.435 116.941 133.44 116.902 134.763C116.882 135.435 116.629 136.203 116.145 137.114C115.662 138.023 114.955 139.066 114.037 140.286C113.631 140.754 113.238 141.207 112.859 141.646C111.039 143.749 109.515 145.51 108.215 146.838C107.43 147.641 106.729 148.283 106.097 148.745C105.465 149.208 104.908 149.485 104.41 149.57L104.338 149.583L104.322 149.655C104.252 149.972 104.178 150.177 104.083 150.341C103.989 150.505 103.87 150.634 103.7 150.796L103.69 150.806L103.682 150.818C102.351 153.017 101.387 154.462 100.515 155.77C100.328 156.05 100.145 156.324 99.9635 156.598C98.9455 158.135 97.9747 159.665 96.5727 162.258C96.4828 162.226 96.3904 162.193 96.2952 162.159C93.9065 161.312 89.8585 159.875 83.705 155.418Z" fill="black"/>
<path fill-rule="evenodd" clip-rule="evenodd" d="M95.7169 147.858L92.5836 154.506L92.7796 154.601L95.9129 147.952L95.7169 147.858ZM96.2431 148.389L94.6768 151.846L94.8741 151.937L96.4404 148.48L96.2431 148.389ZM94.5589 145.96C93.3855 145.121 92.7267 144.568 91.5423 143.455L91.3946 143.616C92.5846 144.734 93.2508 145.294 94.4337 146.139L94.5589 145.96ZM102.147 149.108C100.51 148.736 99.5935 148.434 97.9552 147.796L97.8773 148.001C99.523 148.641 100.45 148.947 102.099 149.322L102.147 149.108ZM99.6298 138.421C99.1998 136.888 98.4393 135.632 97.1686 134.281L97.0114 134.432C98.2631 135.763 99.0025 136.989 99.421 138.481C99.8407 139.977 99.9399 141.748 99.8987 144.173L100.116 144.177C100.157 141.748 100.059 139.95 99.6298 138.421ZM95.5195 133.432C95.4059 133.519 95.2976 133.579 95.1792 133.617C95.0412 133.662 94.8961 133.676 94.7244 133.677L94.723 133.457C94.8856 133.456 95.0054 133.443 95.113 133.408C95.2182 133.374 95.3184 133.317 95.4378 133.218L95.8251 132.824C95.7659 132.757 95.7105 132.687 95.6588 132.613C95.3971 132.236 95.2335 131.767 95.1354 131.194L95.3492 131.157C95.4441 131.71 95.5993 132.146 95.8363 132.486C96.0723 132.826 96.3941 133.078 96.8339 133.258C97.7214 133.621 99.0796 133.687 101.149 133.572C101.549 133.512 101.916 133.231 102.217 132.818C102.519 132.404 102.744 131.87 102.859 131.334C102.974 130.797 102.977 130.269 102.845 129.866C102.716 129.467 102.46 129.198 102.051 129.14C101.121 129.008 99.6339 128.578 98.3861 128.183C97.7607 127.986 97.193 127.796 96.7817 127.656C96.576 127.586 96.4094 127.528 96.2941 127.488C96.2365 127.468 96.1917 127.452 96.1613 127.442L96.1267 127.43L96.115 127.425C96.115 127.425 96.1148 127.425 96.1508 127.322C96.1868 127.218 96.1868 127.218 96.1868 127.218L96.1875 127.219L96.1984 127.222L96.2327 127.235C96.2629 127.245 96.3075 127.261 96.3649 127.281C96.4797 127.321 96.6458 127.378 96.851 127.448C97.2613 127.588 97.8274 127.777 98.4509 127.974C99.7007 128.369 101.171 128.794 102.081 128.922C102.591 128.994 102.903 129.339 103.052 129.797C103.199 130.25 103.191 130.82 103.071 131.381C102.95 131.942 102.714 132.506 102.392 132.948C102.072 133.388 101.656 133.72 101.175 133.79L101.17 133.79L101.166 133.791C100.453 133.831 99.8184 133.849 99.2549 133.841L99.2929 133.854L99.1816 134.195C99.8183 134.969 100.34 135.436 100.911 135.671C101.462 135.898 102.073 135.914 102.903 135.754L102.917 135.735C105.827 131.745 107.492 129.238 109.055 126.303L109.246 126.407C107.687 129.336 106.027 131.838 103.15 135.785L103.153 135.791C103.56 136.712 103.958 137.295 104.473 137.658C104.982 138.016 105.619 138.171 106.531 138.203C107.927 137.417 109.002 136.69 110.046 135.655C111.098 134.612 112.121 133.252 113.407 131.197L113.59 131.314C112.301 133.376 111.267 134.752 110.198 135.811C109.151 136.85 108.073 137.582 106.697 138.36C107.042 139.135 107.43 139.716 107.88 140.105C108.345 140.506 108.881 140.705 109.519 140.694C110.161 140.683 110.913 140.46 111.803 140.004C112.692 139.548 113.714 138.863 114.896 137.937L115.029 138.11C113.841 139.041 112.807 139.735 111.901 140.199C110.995 140.664 110.21 140.902 109.523 140.913C108.832 140.925 108.244 140.707 107.739 140.272C107.249 139.849 106.841 139.226 106.486 138.42C105.575 138.385 104.9 138.226 104.349 137.838C103.802 137.453 103.392 136.851 102.991 135.961C102.116 136.134 101.445 136.128 100.829 135.875C100.206 135.618 99.6554 135.115 99.0101 134.33C98.3002 134.354 97.7424 134.322 97.2006 134.185C96.6634 134.049 96.1481 133.811 95.5195 133.432ZM98.9803 134.111C98.2912 134.134 97.762 134.1 97.2533 133.972C96.7591 133.847 96.2785 133.63 95.6859 133.277L95.9778 132.98C96.1919 133.178 96.4481 133.337 96.7525 133.461C97.3318 133.698 98.089 133.812 99.0697 133.838L98.9803 134.111ZM100.441 136.29C103.131 138.547 105.001 140.354 106.075 143.529L106.281 143.458C105.186 140.222 103.275 138.383 100.579 136.122L100.441 136.29ZM101.545 126.473C101.143 127.215 100.874 127.828 100.775 128.622L100.99 128.65C101.084 127.896 101.338 127.311 101.735 126.579C101.853 126.363 101.982 126.134 102.124 125.884C102.462 125.287 102.869 124.571 103.33 123.632L103.135 123.534C102.677 124.467 102.277 125.174 101.939 125.769C101.797 126.021 101.665 126.253 101.545 126.473Z" fill="black"/>
<path d="M97.5883 80.4048C96.9358 80.3662 96.4405 80.2496 96.1026 80.055C95.7666 79.8574 95.5561 79.5679 95.4712 79.1865C95.3751 78.755 95.4657 78.3601 95.7431 78.0017C96.0224 77.6403 96.435 77.3974 96.9809 77.2731C97.3531 77.1884 97.7006 77.1858 98.0233 77.2652C98.3485 77.3441 98.619 77.4934 98.8348 77.7131C99.0531 77.9323 99.196 78.1937 99.2636 78.4972L98.5453 78.6608C98.4715 78.3296 98.3095 78.0937 98.0592 77.9529C97.8083 77.8097 97.493 77.7813 97.1133 77.8677C96.761 77.9479 96.5031 78.0897 96.3398 78.2929C96.1784 78.4931 96.1287 78.7324 96.1907 79.0109C96.2405 79.2342 96.3757 79.4024 96.5964 79.5156C96.8191 79.6257 97.1692 79.6936 97.6469 79.7193C98.127 79.7445 98.5109 79.806 98.7986 79.9039C99.0883 79.9988 99.3168 80.1352 99.4842 80.3133C99.6541 80.4908 99.77 80.7188 99.8321 80.9972C99.9309 81.4413 99.839 81.8365 99.5564 82.1829C99.2732 82.5268 98.845 82.764 98.2718 82.8944C97.8996 82.9792 97.5362 82.9867 97.1818 82.9172C96.8268 82.8451 96.5333 82.7036 96.3013 82.4929C96.0717 82.2815 95.9215 82.0165 95.8505 81.6979L96.5689 81.5344C96.6426 81.8656 96.8213 82.1003 97.1051 82.2387C97.3907 82.3741 97.7357 82.3957 98.1402 82.3036C98.5174 82.2178 98.7891 82.0742 98.9555 81.8729C99.1219 81.6716 99.1751 81.4367 99.1154 81.1683C99.0556 80.8998 98.9165 80.714 98.6979 80.6109C98.4789 80.5052 98.109 80.4365 97.5883 80.4048Z" fill="white"/>
<path d="M123.886 80.6528L121.559 80.027L121.053 81.9504L123.755 82.6775L123.601 83.2628L120.191 82.3452L121.619 76.9177L124.993 77.8253L124.838 78.4143L122.172 77.6971L121.713 79.4417L124.04 80.0676L123.886 80.6528Z" fill="white"/>
<path d="M109.428 78.3022L110.878 75.4825H111.71L109.795 79.0043V81.0989H109.062V79.0043L107.147 75.4825H107.986L109.428 78.3022Z" fill="white"/>
<path d="M117.81 81.837L117.08 81.7382L114.877 77.0729L114.309 81.3626L113.579 81.2637L114.317 75.6971L115.046 75.796L117.255 80.4813L117.826 76.1726L118.548 76.2704L117.81 81.837Z" fill="white"/>
<path d="M105.141 78.8208L102.754 79.1384L103.011 81.1118L105.784 80.7429L105.862 81.3433L102.363 81.8088L101.638 76.2405L105.099 75.78L105.178 76.3842L102.443 76.7481L102.676 78.5379L105.063 78.2204L105.141 78.8208Z" fill="white"/>
<path d="M91.1159 167.411C90.9177 167.867 90.6336 168.179 90.2636 168.347C89.8962 168.513 89.4713 168.522 88.989 168.372C88.4661 168.21 88.104 167.891 87.9027 167.414C87.7034 166.938 87.7 166.382 87.8925 165.747L88.0228 165.316C88.1489 164.9 88.3326 164.557 88.5742 164.287C88.8177 164.017 89.0997 163.84 89.4202 163.756C89.7412 163.669 90.0791 163.681 90.4337 163.79C90.9039 163.936 91.2405 164.186 91.4435 164.54C91.6472 164.892 91.7012 165.31 91.6057 165.794L91.019 165.612C91.0763 165.24 91.0441 164.948 90.9223 164.735C90.8025 164.523 90.5906 164.37 90.2866 164.276C89.9137 164.161 89.5787 164.209 89.2814 164.422C88.9862 164.635 88.7607 164.999 88.6049 165.513L88.4736 165.947C88.3265 166.432 88.3098 166.85 88.4235 167.199C88.5372 167.548 88.7744 167.778 89.1352 167.89C89.4594 167.99 89.73 167.993 89.947 167.899C90.1666 167.804 90.3607 167.58 90.5292 167.229L91.1159 167.411Z" fill="white"/>
<path d="M121.445 167.033L120.005 167.411L121.042 171.449L120.454 171.604L119.417 167.565L117.98 167.942L117.854 167.451L121.319 166.541L121.445 167.033Z" fill="white"/>
<path d="M102.023 170.412L101.811 172.232L101.204 172.16L101.746 167.511L103.441 167.713C103.944 167.773 104.323 167.95 104.577 168.243C104.833 168.537 104.936 168.898 104.886 169.325C104.834 169.777 104.653 170.108 104.345 170.319C104.039 170.529 103.626 170.603 103.106 170.541L102.023 170.412ZM102.081 169.911L103.17 170.04C103.494 170.079 103.752 170.032 103.942 169.899C104.133 169.764 104.245 169.551 104.279 169.26C104.311 168.983 104.251 168.751 104.098 168.565C103.944 168.378 103.718 168.264 103.417 168.222L102.293 168.088L102.081 169.911Z" fill="white"/>
<path d="M98.5499 169.498L97.4837 169.282L97.1163 171.139L96.5146 171.017L97.4229 166.428L98.9255 166.732C99.4368 166.835 99.8063 167.032 100.034 167.323C100.264 167.614 100.334 167.985 100.245 168.434C100.189 168.72 100.063 168.954 99.8669 169.135C99.6731 169.316 99.4297 169.432 99.1367 169.482L99.8174 171.646L99.8099 171.684L99.1677 171.554L98.5499 169.498ZM97.5817 168.787L98.5013 168.973C98.7986 169.033 99.0498 169.003 99.2552 168.883C99.4626 168.763 99.5921 168.573 99.6437 168.313C99.6998 168.029 99.6587 167.795 99.5203 167.609C99.384 167.424 99.1581 167.299 98.8426 167.233L97.926 167.047L97.5817 168.787Z" fill="white"/>
<path d="M111.987 170.933H110.9V172.826H110.286V168.146H111.819C112.34 168.146 112.741 168.266 113.02 168.506C113.302 168.746 113.443 169.095 113.443 169.554C113.443 169.845 113.365 170.099 113.208 170.316C113.053 170.532 112.837 170.694 112.559 170.801L113.647 172.788V172.826H112.992L111.987 170.933ZM110.9 170.428H111.838C112.141 170.428 112.381 170.349 112.559 170.19C112.74 170.032 112.83 169.819 112.83 169.554C112.83 169.264 112.744 169.043 112.572 168.888C112.403 168.734 112.157 168.656 111.834 168.654H110.9V170.428Z" fill="white"/>
<path d="M95.8748 168.316C95.7764 168.763 95.616 169.138 95.3934 169.439C95.1714 169.738 94.9044 169.945 94.5927 170.059C94.281 170.174 93.943 170.19 93.5788 170.108C93.223 170.028 92.9267 169.87 92.6901 169.632C92.454 169.392 92.2953 169.092 92.2139 168.731C92.135 168.369 92.1408 167.972 92.2314 167.54L92.3038 167.211C92.4003 166.771 92.5611 166.4 92.7862 166.097C93.0113 165.794 93.2809 165.585 93.5952 165.469C93.912 165.351 94.2483 165.332 94.6042 165.412C94.9663 165.494 95.2654 165.654 95.5016 165.894C95.7402 166.132 95.897 166.436 95.972 166.806C96.0474 167.175 96.0361 167.581 95.9382 168.027L95.8748 168.316ZM95.3468 167.888C95.4659 167.346 95.4495 166.906 95.2978 166.569C95.1465 166.23 94.8774 166.017 94.4905 165.93C94.1139 165.846 93.785 165.924 93.5038 166.166C93.2252 166.407 93.0263 166.783 92.907 167.297L92.8332 167.632C92.7178 168.158 92.7356 168.595 92.8867 168.945C93.0403 169.294 93.3085 169.511 93.6912 169.597C94.0761 169.683 94.4051 169.609 94.6782 169.374C94.9518 169.137 95.1498 168.754 95.2723 168.226L95.3468 167.888Z" fill="white"/>
<path d="M128.543 166.085C128.688 166.519 128.742 166.924 128.705 167.298C128.668 167.67 128.545 167.987 128.337 168.247C128.129 168.508 127.848 168.699 127.494 168.819C127.149 168.937 126.814 168.956 126.49 168.876C126.165 168.794 125.876 168.62 125.622 168.354C125.369 168.085 125.171 167.742 125.028 167.325L124.921 167.005C124.779 166.579 124.727 166.177 124.765 165.8C124.802 165.423 124.926 165.103 125.136 164.839C125.347 164.573 125.625 164.381 125.971 164.264C126.322 164.144 126.66 164.125 126.985 164.207C127.311 164.286 127.601 164.464 127.854 164.742C128.107 165.018 128.306 165.372 128.45 165.804L128.543 166.085ZM127.872 165.994C127.697 165.468 127.458 165.1 127.156 164.891C126.853 164.68 126.514 164.638 126.138 164.766C125.773 164.891 125.531 165.13 125.414 165.484C125.299 165.835 125.321 166.262 125.481 166.764L125.59 167.09C125.76 167.599 125.999 167.965 126.307 168.185C126.617 168.403 126.957 168.449 127.329 168.323C127.702 168.195 127.946 167.96 128.06 167.616C128.173 167.27 128.147 166.839 127.982 166.323L127.872 165.994Z" fill="white"/>
<path d="M109.292 170.637C109.292 171.096 109.216 171.496 109.063 171.839C108.91 172.18 108.694 172.44 108.414 172.62C108.135 172.8 107.808 172.89 107.435 172.89C107.071 172.89 106.747 172.8 106.465 172.62C106.184 172.438 105.964 172.18 105.807 171.846C105.653 171.509 105.573 171.12 105.569 170.679V170.341C105.569 169.891 105.646 169.494 105.801 169.149C105.956 168.804 106.174 168.54 106.456 168.358C106.74 168.174 107.064 168.082 107.429 168.082C107.8 168.082 108.126 168.173 108.408 168.355C108.692 168.535 108.91 168.797 109.063 169.142C109.216 169.485 109.292 169.885 109.292 170.341V170.637ZM108.685 170.335C108.685 169.78 108.574 169.354 108.354 169.059C108.134 168.761 107.825 168.612 107.429 168.612C107.043 168.612 106.739 168.761 106.516 169.059C106.296 169.354 106.182 169.766 106.176 170.293V170.637C106.176 171.175 106.287 171.598 106.51 171.907C106.735 172.213 107.043 172.366 107.435 172.366C107.829 172.366 108.135 172.222 108.351 171.933C108.567 171.641 108.678 171.224 108.685 170.682V170.335Z" fill="white"/>
<path d="M117.273 171.033L115.358 171.349L115.123 172.625L114.501 172.727L115.502 167.82L116.029 167.734L118.521 172.065L117.903 172.167L117.273 171.033ZM115.46 170.817L117.013 170.561L115.887 168.529L115.46 170.817Z" fill="white"/>
<path d="M133.807 165.896L133.265 166.187L129.536 164.103L131.206 167.29L130.663 167.58L128.497 163.444L129.039 163.154L132.781 165.249L131.104 162.048L131.64 161.76L133.807 165.896Z" fill="white"/>
<path d="M124.737 170.099L124.152 170.274L122.843 165.784L123.428 165.61L124.737 170.099Z" fill="white"/>
</g>
<g opacity="0.5">
<g filter="url(#filter1_b)">
<path d="M285.379 578.66C279.103 578.966 275.315 581.332 268.458 586.746M285.418 578.282C277.73 577.358 273.467 579.344 265.877 583.613M285.515 577.717C278.416 576.056 273.534 576.823 263.866 579.997" stroke="black" stroke-width="3" stroke-linecap="round"/>
</g>
<g filter="url(#filter2_b)">
<path d="M300.369 581.238C306.182 583.623 308.962 587.119 313.617 594.513M300.459 580.869C308.014 582.566 311.369 585.862 317.097 592.423M300.556 580.304C307.802 581.11 312.148 583.464 320.2 589.686" stroke="black" stroke-width="3" stroke-linecap="round"/>
</g>
<path fill-rule="evenodd" clip-rule="evenodd" d="M278.558 560.143C286.225 560.128 290.469 562.191 288.595 567.656C288.611 567.262 288.524 567.045 288.192 566.673C282.83 567.191 281.13 565.394 280.894 561.098C280.528 560.552 279.891 560.382 278.558 560.143ZM282.058 562.763C281.837 562.48 281.768 562.545 281.833 562.879C282.622 565.547 283.97 566.481 286.666 565.421C286.999 565.29 286.903 565.149 286.592 565.203C283.897 565.818 282.996 564.786 282.058 562.763Z" fill="#252324"/>
<ellipse cx="283.765" cy="562.958" rx="0.642308" ry="0.571461" transform="rotate(9.75878 283.765 562.958)" fill="#0594A7"/>
<path fill-rule="evenodd" clip-rule="evenodd" d="M322.328 567.168C322.87 573.883 320.887 577.624 314.277 584.267C315.78 580.774 315.108 579.432 312.054 577.792C309.869 576.74 308.546 576.225 305.955 575.482C299.88 573.146 298.058 571.273 299.146 566.384C299.516 558.066 296.48 553.498 287.012 552.158C283.245 551.055 282.437 549.746 282.04 546.859C281.444 539.581 280.54 536.295 276.109 533.14C274.512 532.194 273.169 532.368 272.274 534.06C269.792 537.759 269.539 541.867 271.043 548.682C269.614 553.344 269.58 555.666 270.842 559.294C269.127 562.33 269.181 564.677 270.246 569.479C268.394 565.497 267.999 563.197 269.43 558.87C268.248 554.842 268.301 552.636 269.355 548.77C268.243 539.603 268.711 535.755 271.97 531.757C273.316 530.602 274.187 530.546 275.811 530.8C280.177 533.486 282.341 536.533 284.889 540.119L284.889 540.119L284.889 540.119L284.889 540.119C285.687 541.243 286.523 542.42 287.477 543.655C296.071 541.785 300.955 542.498 309.785 547.016C315.238 542.504 318.352 540.725 324.013 538.948C326.775 538.81 327.637 539.327 328.383 540.936C330.191 548.322 329.033 552.972 323.757 562.018C322.734 563.915 322.448 565.05 322.328 567.168ZM323.521 559.4C321.393 561.21 319.986 560.32 319.531 557.221C319.218 556.244 318.511 555.966 316.353 555.928C312.566 557.68 309.259 551.748 313.125 548.144C317.351 544.016 319.824 542.322 324.51 540.961C325.751 540.745 326.249 540.971 326.738 542.075C327.707 548.263 326.96 551.905 323.521 559.4ZM310.706 566.508C311.053 566.182 311.199 566.261 311.039 566.749C308.395 570.592 306.05 571.758 301.755 569.392C301.308 569.074 301.433 568.937 301.914 569.122C306.037 570.972 308.128 570.19 310.706 566.508ZM308.532 567.41C308.705 567.117 308.662 567.033 308.359 567.226C306.799 568.82 305.604 569.491 303.27 568.011C302.995 567.856 302.857 567.957 303.127 568.192C305.315 570.091 306.897 569.662 308.532 567.41ZM311.99 566.191C304.6 564.304 302.058 564.94 300.878 569.634C300.824 569.949 300.674 569.937 300.649 569.595C300.746 564.257 304.868 562.613 312.222 565.946C312.738 566.18 312.623 566.393 311.99 566.191Z" fill="#252324"/>
<ellipse cx="304.148" cy="566.431" rx="0.607168" ry="0.560099" transform="rotate(9.75878 304.148 566.431)" fill="#0594A7"/>
<path d="M292.401 582.784C292.359 582.483 292.379 582.25 292.461 581.762C292.386 581.638 292.329 581.619 292.188 581.715C292.138 582.114 292.086 582.339 291.904 582.743C290.034 584.117 287.409 584.009 285.155 582.488C287.357 584.463 289.442 584.487 292.1 583.86C294.072 585.541 296.882 585.775 298.933 584.858C296.389 585.591 293.571 584.792 292.401 582.784Z" fill="#252324"/>
<path d="M296.61 578.89C297.487 578.536 296.977 576.758 297.772 572.138C297.633 570.671 297.088 576.114 296.435 578.168C295.706 577.573 295.154 577.451 293.971 577.528C293.255 577.585 292.82 577.506 291.988 577.187C291.072 576.744 290.531 576.718 289.53 576.981C290.08 574.701 290.729 569.878 290.378 570.779C289.945 574.569 288.369 576.781 289.17 577.801C290.389 578.826 291.522 579.452 291.192 580.347C291.523 580.852 291.706 581.126 292.407 581.476C293.038 581.402 293.341 581.206 293.855 580.772C293.654 579.838 295.431 579.854 296.61 578.89Z" fill="#252324"/>
</g>
<g opacity="0.5">
<g filter="url(#filter3_b)">
<path d="M222.923 318.919C216.747 320.925 213.582 324.508 208.146 332.221M222.864 318.498C214.963 319.543 211.227 322.839 204.764 329.505M222.814 317.857C215.31 317.945 210.642 320.081 201.826 326.11" stroke="black" stroke-width="3" stroke-linecap="round"/>
</g>
<g filter="url(#filter4_b)">
<path d="M238.528 317.723C244.937 318.764 248.61 321.823 255.159 328.618M238.522 317.297C246.489 317.127 250.684 319.815 258.087 325.418M238.473 316.656C245.903 315.6 250.842 317 260.473 321.615" stroke="black" stroke-width="3" stroke-linecap="round"/>
</g>
<path fill-rule="evenodd" clip-rule="evenodd" d="M211.341 300.61C218.979 298.549 223.742 299.659 223.286 306.1C223.2 305.667 223.057 305.454 222.63 305.139C217.419 307.132 215.261 305.632 213.917 301.025C213.41 300.529 212.733 300.514 211.341 300.61ZM215.506 302.525C215.213 302.275 215.162 302.365 215.312 302.71C216.788 305.401 218.372 306.056 220.786 304.185C221.084 303.953 220.951 303.826 220.655 303.968C218.129 305.355 216.964 304.474 215.506 302.525Z" fill="#252324"/>
<ellipse cx="217.258" cy="302.281" rx="0.660934" ry="0.639893" transform="rotate(-4.38329 217.258 302.281)" fill="#A70505"/>
<path fill-rule="evenodd" clip-rule="evenodd" d="M256.779 296.571C259.053 303.725 258.044 308.321 253.171 317.305C253.767 313.107 252.75 311.827 249.283 310.859C246.833 310.299 245.382 310.092 242.608 309.976C235.951 309.057 233.651 307.506 233.473 301.903C231.693 292.762 227.488 288.607 217.705 289.676C213.666 289.481 212.523 288.274 211.382 285.242C208.908 277.49 207.159 274.159 201.928 271.911C200.092 271.31 198.799 271.856 198.343 273.934C196.825 278.618 197.634 283.151 200.893 290.157C200.672 295.605 201.238 298.139 203.433 301.746C202.508 305.503 203.168 308.04 205.469 312.975C202.595 309.141 201.607 306.747 201.916 301.662C199.698 297.598 199.181 295.186 199.233 290.703C195.757 281.035 195.23 276.727 197.446 271.513C198.488 269.897 199.342 269.604 201.027 269.448C206.072 271.203 209.015 273.937 212.48 277.155C213.566 278.164 214.704 279.22 215.973 280.309C224.055 275.983 229.106 275.455 239.074 278.012C243.343 271.652 245.988 268.888 251.171 265.446C253.888 264.56 254.881 264.892 256.04 266.442C259.749 273.988 259.795 279.351 256.873 290.592C256.343 292.927 256.352 294.236 256.779 296.571ZM255.962 287.808C254.309 290.343 252.677 289.752 251.423 286.505C250.859 285.526 250.082 285.413 247.922 285.947C244.6 288.861 239.772 283.295 242.694 278.347C245.84 272.733 247.867 270.232 252.186 267.502C253.367 266.936 253.921 267.049 254.694 268.119C257.258 274.587 257.454 278.744 255.962 287.808ZM245.026 298.953C245.287 298.506 245.453 298.554 245.42 299.126C243.777 304.009 241.741 305.902 236.85 304.476C236.322 304.249 236.411 304.067 236.938 304.14C241.525 305.052 243.407 303.644 245.026 298.953ZM243.092 300.514C243.188 300.15 243.124 300.069 242.872 300.36C241.729 302.509 240.712 303.557 238.003 302.571C237.689 302.476 237.577 302.622 237.907 302.806C240.578 304.287 242.044 303.398 243.092 300.514ZM246.224 298.267C238.371 298.186 236.002 299.556 236.038 304.973C236.066 305.33 235.912 305.357 235.799 304.991C234.518 299.164 238.202 296.276 246.391 297.938C246.966 298.055 246.907 298.317 246.224 298.267Z" fill="#252324"/>
<ellipse cx="238.47" cy="300.619" rx="0.624775" ry="0.62717" transform="rotate(-4.38329 238.47 300.619)" fill="#A70505"/>
<path d="M230.985 321.528C230.866 321.212 230.825 320.953 230.781 320.402C230.674 320.286 230.612 320.281 230.497 320.423C230.55 320.87 230.557 321.128 230.48 321.616C228.971 323.609 226.327 324.191 223.687 323.14C226.392 324.698 228.476 324.168 230.963 322.778C233.363 324.08 236.224 323.584 238.032 322.04C235.685 323.515 232.67 323.399 230.985 321.528Z" fill="#252324"/>
<path d="M234.175 316.172C234.957 315.554 233.99 313.758 233.588 308.523C233.071 306.966 233.934 313.027 233.814 315.435C232.933 314.982 232.352 314.997 231.193 315.396C230.494 315.649 230.04 315.68 229.128 315.554C228.101 315.317 227.556 315.433 226.625 315.986C226.585 313.361 225.986 307.945 225.869 309.018C226.416 313.254 225.417 316.078 226.478 316.974C227.958 317.762 229.249 318.14 229.151 319.202C229.611 319.662 229.865 319.912 230.654 320.105C231.263 319.856 231.515 319.562 231.915 318.953C231.474 317.992 233.248 317.535 234.175 316.172Z" fill="#252324"/>
</g>
<path d="M177.608 569.895C145.869 564.663 102.969 544.434 44.3733 554.2C103.666 584.544 132.615 592.217 170.632 640L252.247 640C247.713 618.724 217.423 588.762 177.608 569.895Z" fill="#53575A"/>
<path fill-rule="evenodd" clip-rule="evenodd" d="M68.1701 460.532C71.323 460.532 73.8789 463.088 73.8789 466.241L73.8789 579.968C73.8789 583.121 71.323 585.677 68.1701 585.677C65.0173 585.677 62.4614 583.121 62.4614 579.968L62.4614 466.241C62.4614 463.088 65.0173 460.532 68.1701 460.532Z" fill="black"/>
<path d="M0.262939 545.325C0.262939 545.325 66.1873 559.997 116.67 559.997C164.893 559.997 178.89 639.993 178.89 639.993H0.262939V545.325Z" fill="#53575A"/>
<path d="M173.572 640H151.852C150.222 631.05 148.666 625.322 144.309 613.356C137.511 601.539 131.597 595.802 118.21 586.766C98.6587 575.279 85.904 569.889 58.1293 563.22C53.9626 560.926 52.1297 559.105 49.8013 554.852L55.5784 555.705L102.606 560.142C120.54 558.861 129.746 561.748 144.309 574.783C160.57 595.532 168.304 613.994 173.572 640Z" fill="#63686B"/>
<path d="M159.185 465.884C127.16 474.937 111.568 457.468 71.9243 465.884L71.9243 512.615C111.568 504.642 125.741 520.22 159.185 512.615V465.884Z" fill="#040332" fill-opacity="0.9"/>
<path d="M95.0898 484.087C95.4559 484.087 95.7554 484.059 95.9884 484.004C96.2325 483.937 96.4266 483.854 96.5708 483.754C96.7151 483.643 96.8149 483.516 96.8704 483.372C96.9259 483.227 96.9536 483.067 96.9536 482.889C96.9536 482.512 96.7761 482.201 96.4211 481.957C96.0661 481.702 95.4559 481.43 94.5905 481.142C94.2133 481.009 93.8361 480.859 93.4589 480.692C93.0817 480.515 92.7434 480.299 92.4438 480.043C92.1443 479.777 91.9002 479.461 91.7116 479.095C91.523 478.718 91.4287 478.263 91.4287 477.73C91.4287 477.198 91.5285 476.721 91.7282 476.299C91.9279 475.866 92.2108 475.5 92.5769 475.201C92.9431 474.901 93.3868 474.674 93.9082 474.518C94.4297 474.352 95.0177 474.269 95.6722 474.269C96.4488 474.269 97.12 474.352 97.6858 474.518C98.2516 474.685 98.7176 474.868 99.0837 475.068L98.3348 477.114C98.0131 476.948 97.6525 476.804 97.2531 476.682C96.8648 476.549 96.3933 476.482 95.8386 476.482C95.2174 476.482 94.768 476.571 94.4907 476.748C94.2244 476.915 94.0913 477.176 94.0913 477.531C94.0913 477.741 94.1412 477.919 94.2411 478.063C94.3409 478.207 94.4796 478.34 94.6571 478.462C94.8457 478.573 95.0565 478.679 95.2895 478.779C95.5335 478.867 95.7998 478.962 96.0882 479.062C96.6873 479.283 97.2088 479.505 97.6525 479.727C98.0963 479.938 98.4624 480.188 98.7508 480.476C99.0504 480.764 99.2723 481.103 99.4165 481.491C99.5607 481.879 99.6328 482.351 99.6328 482.906C99.6328 483.982 99.2556 484.819 98.5012 485.418C97.7468 486.006 96.6097 486.3 95.0898 486.3C94.5794 486.3 94.119 486.267 93.7085 486.201C93.2981 486.145 92.932 486.073 92.6102 485.984C92.2996 485.896 92.0278 485.801 91.7948 485.701C91.5729 485.602 91.3843 485.507 91.229 485.418L91.9612 483.355C92.3051 483.544 92.7267 483.716 93.226 483.871C93.7363 484.015 94.3576 484.087 95.0898 484.087Z" fill="#D9D9D9"/>
<path d="M101.048 481.757C101.048 480.981 101.164 480.304 101.397 479.727C101.641 479.139 101.958 478.651 102.346 478.263C102.734 477.874 103.178 477.58 103.677 477.381C104.188 477.181 104.709 477.081 105.241 477.081C106.484 477.081 107.466 477.464 108.187 478.229C108.908 478.984 109.269 480.099 109.269 481.574C109.269 481.719 109.263 481.879 109.252 482.057C109.241 482.223 109.23 482.373 109.219 482.506H103.594C103.649 483.017 103.888 483.422 104.31 483.721C104.731 484.021 105.297 484.17 106.007 484.17C106.462 484.17 106.906 484.132 107.338 484.054C107.782 483.965 108.143 483.86 108.42 483.738L108.753 485.751C108.62 485.818 108.442 485.884 108.22 485.951C107.998 486.018 107.749 486.073 107.471 486.117C107.205 486.173 106.917 486.217 106.606 486.251C106.295 486.284 105.985 486.3 105.674 486.3C104.886 486.3 104.199 486.184 103.611 485.951C103.034 485.718 102.551 485.402 102.163 485.002C101.786 484.592 101.503 484.109 101.314 483.555C101.137 483 101.048 482.401 101.048 481.757ZM106.872 480.809C106.861 480.598 106.822 480.393 106.756 480.193C106.7 479.993 106.606 479.816 106.473 479.661C106.351 479.505 106.19 479.378 105.99 479.278C105.802 479.178 105.563 479.128 105.275 479.128C104.997 479.128 104.759 479.178 104.559 479.278C104.359 479.367 104.193 479.489 104.06 479.644C103.927 479.799 103.821 479.982 103.744 480.193C103.677 480.393 103.627 480.598 103.594 480.809H106.872Z" fill="#D9D9D9"/>
<path d="M118.954 477.314C118.454 479 117.933 480.581 117.389 482.057C116.846 483.532 116.252 484.964 115.609 486.35C115.376 486.85 115.143 487.271 114.91 487.615C114.677 487.97 114.422 488.259 114.144 488.48C113.867 488.713 113.551 488.88 113.196 488.98C112.852 489.091 112.447 489.146 111.981 489.146C111.593 489.146 111.232 489.107 110.899 489.03C110.577 488.963 110.311 488.885 110.1 488.797L110.533 486.816C110.788 486.905 111.016 486.966 111.215 486.999C111.415 487.033 111.626 487.049 111.848 487.049C112.292 487.049 112.63 486.927 112.863 486.683C113.107 486.45 113.312 486.123 113.479 485.701C112.913 484.592 112.347 483.349 111.781 481.974C111.215 480.587 110.683 479.034 110.184 477.314H112.813C112.924 477.747 113.051 478.218 113.196 478.729C113.351 479.228 113.512 479.738 113.678 480.26C113.845 480.77 114.011 481.269 114.178 481.757C114.355 482.246 114.521 482.689 114.677 483.089C114.821 482.689 114.971 482.246 115.126 481.757C115.281 481.269 115.431 480.77 115.575 480.26C115.731 479.738 115.875 479.228 116.008 478.729C116.152 478.218 116.28 477.747 116.391 477.314H118.954Z" fill="#D9D9D9"/>
<path d="M120.283 477.614C120.704 477.492 121.248 477.381 121.914 477.281C122.579 477.17 123.278 477.114 124.01 477.114C124.754 477.114 125.369 477.214 125.858 477.414C126.357 477.603 126.751 477.874 127.039 478.229C127.328 478.584 127.533 479.006 127.655 479.494C127.777 479.982 127.838 480.526 127.838 481.125V486.067H125.358V481.425C125.358 480.626 125.253 480.06 125.042 479.727C124.831 479.394 124.438 479.228 123.861 479.228C123.683 479.228 123.495 479.239 123.295 479.261C123.095 479.272 122.918 479.289 122.762 479.311V486.067H120.283V477.614Z" fill="#D9D9D9"/>
<path d="M129.666 481.757C129.666 480.981 129.783 480.304 130.016 479.727C130.26 479.139 130.576 478.651 130.964 478.263C131.353 477.874 131.796 477.58 132.296 477.381C132.806 477.181 133.327 477.081 133.86 477.081C135.102 477.081 136.084 477.464 136.805 478.229C137.526 478.984 137.887 480.099 137.887 481.574C137.887 481.719 137.881 481.879 137.87 482.057C137.859 482.223 137.848 482.373 137.837 482.506H132.212C132.268 483.017 132.506 483.422 132.928 483.721C133.35 484.021 133.915 484.17 134.625 484.17C135.08 484.17 135.524 484.132 135.957 484.054C136.4 483.965 136.761 483.86 137.038 483.738L137.371 485.751C137.238 485.818 137.061 485.884 136.839 485.951C136.617 486.018 136.367 486.073 136.09 486.117C135.824 486.173 135.535 486.217 135.224 486.251C134.914 486.284 134.603 486.3 134.293 486.3C133.505 486.3 132.817 486.184 132.229 485.951C131.652 485.718 131.17 485.402 130.781 485.002C130.404 484.592 130.121 484.109 129.933 483.555C129.755 483 129.666 482.401 129.666 481.757ZM135.491 480.809C135.48 480.598 135.441 480.393 135.374 480.193C135.319 479.993 135.224 479.816 135.091 479.661C134.969 479.505 134.808 479.378 134.609 479.278C134.42 479.178 134.182 479.128 133.893 479.128C133.616 479.128 133.377 479.178 133.178 479.278C132.978 479.367 132.811 479.489 132.678 479.644C132.545 479.799 132.44 479.982 132.362 480.193C132.296 480.393 132.246 480.598 132.212 480.809H135.491Z" fill="#D9D9D9"/>
<path d="M252.247 640H228.454L220.786 621.254L205.304 600.387L183.539 581.988C176.623 575.267 171.168 572.516 161.462 567.228L177.665 570.698C216.226 589.513 244.057 614.065 252.247 640Z" fill="#63686B"/>
<path d="M109.847 496.979C109.847 497.232 109.791 497.476 109.68 497.709C109.569 497.942 109.425 498.169 109.247 498.389C109.069 498.602 108.869 498.809 108.647 499.009C108.424 499.209 108.206 499.399 107.991 499.579C107.88 499.672 107.757 499.779 107.624 499.899C107.498 500.012 107.376 500.128 107.257 500.248C107.139 500.368 107.031 500.482 106.935 500.588C106.846 500.688 106.79 500.772 106.768 500.838H110.08V502.088H104.945C104.931 502.015 104.923 501.922 104.923 501.808C104.923 501.695 104.923 501.615 104.923 501.568C104.923 501.248 104.979 500.955 105.09 500.688C105.208 500.422 105.36 500.175 105.546 499.949C105.731 499.715 105.938 499.499 106.168 499.299C106.405 499.099 106.639 498.899 106.868 498.699C107.046 498.545 107.213 498.402 107.368 498.269C107.524 498.129 107.661 497.996 107.78 497.869C107.898 497.736 107.991 497.606 108.057 497.479C108.124 497.346 108.158 497.212 108.158 497.079C108.158 496.786 108.065 496.579 107.88 496.459C107.694 496.339 107.465 496.279 107.191 496.279C106.991 496.279 106.802 496.309 106.624 496.369C106.453 496.422 106.294 496.489 106.146 496.569C106.005 496.642 105.883 496.719 105.779 496.799C105.675 496.872 105.597 496.932 105.546 496.979L104.723 495.939C105.049 495.666 105.427 495.443 105.857 495.269C106.294 495.089 106.761 494.999 107.257 494.999C107.709 494.999 108.098 495.046 108.424 495.139C108.75 495.233 109.017 495.366 109.225 495.539C109.439 495.706 109.595 495.913 109.691 496.159C109.795 496.399 109.847 496.672 109.847 496.979Z" fill="#D9D9D9"/>
<path d="M116.586 498.609C116.586 499.775 116.338 500.672 115.842 501.298C115.353 501.918 114.675 502.228 113.808 502.228C112.941 502.228 112.259 501.918 111.763 501.298C111.274 500.672 111.029 499.775 111.029 498.609C111.029 498.029 111.092 497.516 111.218 497.069C111.351 496.622 111.54 496.246 111.785 495.939C112.029 495.633 112.322 495.399 112.663 495.239C113.004 495.079 113.385 494.999 113.808 494.999C114.675 494.999 115.353 495.313 115.842 495.939C116.338 496.559 116.586 497.449 116.586 498.609ZM114.897 498.609C114.897 498.262 114.878 497.949 114.841 497.669C114.804 497.382 114.745 497.136 114.664 496.929C114.582 496.722 114.471 496.562 114.33 496.449C114.189 496.336 114.015 496.279 113.808 496.279C113.6 496.279 113.426 496.336 113.285 496.449C113.152 496.562 113.041 496.722 112.952 496.929C112.87 497.136 112.811 497.382 112.774 497.669C112.737 497.949 112.718 498.262 112.718 498.609C112.718 498.955 112.737 499.272 112.774 499.559C112.811 499.845 112.87 500.092 112.952 500.298C113.041 500.505 113.152 500.665 113.285 500.778C113.426 500.892 113.6 500.948 113.808 500.948C114.015 500.948 114.189 500.892 114.33 500.778C114.471 500.665 114.582 500.505 114.664 500.298C114.745 500.092 114.804 499.845 114.841 499.559C114.878 499.272 114.897 498.955 114.897 498.609Z" fill="#D9D9D9"/>
<path d="M122.481 496.979C122.481 497.232 122.425 497.476 122.314 497.709C122.203 497.942 122.059 498.169 121.881 498.389C121.703 498.602 121.503 498.809 121.281 499.009C121.058 499.209 120.84 499.399 120.625 499.579C120.514 499.672 120.391 499.779 120.258 499.899C120.132 500.012 120.01 500.128 119.891 500.248C119.773 500.368 119.665 500.482 119.569 500.588C119.48 500.688 119.425 500.772 119.402 500.838H122.714V502.088H117.58C117.565 502.015 117.557 501.922 117.557 501.808C117.557 501.695 117.557 501.615 117.557 501.568C117.557 501.248 117.613 500.955 117.724 500.688C117.843 500.422 117.994 500.175 118.18 499.949C118.365 499.715 118.572 499.499 118.802 499.299C119.039 499.099 119.273 498.899 119.502 498.699C119.68 498.545 119.847 498.402 120.002 498.269C120.158 498.129 120.295 497.996 120.414 497.869C120.532 497.736 120.625 497.606 120.692 497.479C120.758 497.346 120.792 497.212 120.792 497.079C120.792 496.786 120.699 496.579 120.514 496.459C120.328 496.339 120.099 496.279 119.825 496.279C119.625 496.279 119.436 496.309 119.258 496.369C119.087 496.422 118.928 496.489 118.78 496.569C118.639 496.642 118.517 496.719 118.413 496.799C118.309 496.872 118.232 496.932 118.18 496.979L117.357 495.939C117.683 495.666 118.061 495.443 118.491 495.269C118.928 495.089 119.395 494.999 119.891 494.999C120.343 494.999 120.732 495.046 121.058 495.139C121.384 495.233 121.651 495.366 121.859 495.539C122.073 495.706 122.229 495.913 122.325 496.159C122.429 496.399 122.481 496.672 122.481 496.979Z" fill="#D9D9D9"/>
<path d="M129.22 498.609C129.22 499.775 128.972 500.672 128.476 501.298C127.987 501.918 127.309 502.228 126.442 502.228C125.575 502.228 124.893 501.918 124.397 501.298C123.908 500.672 123.663 499.775 123.663 498.609C123.663 498.029 123.726 497.516 123.852 497.069C123.985 496.622 124.174 496.246 124.419 495.939C124.663 495.633 124.956 495.399 125.297 495.239C125.638 495.079 126.019 494.999 126.442 494.999C127.309 494.999 127.987 495.313 128.476 495.939C128.972 496.559 129.22 497.449 129.22 498.609ZM127.531 498.609C127.531 498.262 127.512 497.949 127.475 497.669C127.438 497.382 127.379 497.136 127.298 496.929C127.216 496.722 127.105 496.562 126.964 496.449C126.823 496.336 126.649 496.279 126.442 496.279C126.234 496.279 126.06 496.336 125.919 496.449C125.786 496.562 125.675 496.722 125.586 496.929C125.504 497.136 125.445 497.382 125.408 497.669C125.371 497.949 125.353 498.262 125.353 498.609C125.353 498.955 125.371 499.272 125.408 499.559C125.445 499.845 125.504 500.092 125.586 500.298C125.675 500.505 125.786 500.665 125.919 500.778C126.06 500.892 126.234 500.948 126.442 500.948C126.649 500.948 126.823 500.892 126.964 500.778C127.105 500.665 127.216 500.505 127.298 500.298C127.379 500.092 127.438 499.845 127.475 499.559C127.512 499.272 127.531 498.955 127.531 498.609Z" fill="#D9D9D9"/>
<g filter="url(#filter5_d)">
<path d="M46.2147 20.0011C49.8798 20.0011 52.6936 20.6514 54.6562 21.9519C56.6188 23.2287 57.6 25.3332 57.6 28.2652C57.6 31.2209 56.6069 33.3608 54.6207 34.685C52.6345 35.9855 49.797 36.6357 46.1083 36.6357H44.3704V44.8644H38.8373V20.6395C40.0432 20.4031 41.3201 20.2376 42.6679 20.143C44.0157 20.0484 45.198 20.0011 46.2147 20.0011ZM46.5694 24.7184C46.1674 24.7184 45.7655 24.7302 45.3635 24.7539C44.9852 24.7775 44.6541 24.8011 44.3704 24.8248V31.9185H46.1083C48.0236 31.9185 49.466 31.6583 50.4354 31.1381C51.4049 30.6179 51.8896 29.6485 51.8896 28.2297C51.8896 27.544 51.7596 26.9765 51.4995 26.5273C51.263 26.078 50.9084 25.7233 50.4354 25.4632C49.9862 25.1795 49.4305 24.9903 48.7684 24.8957C48.1064 24.7775 47.3733 24.7184 46.5694 24.7184ZM68.8632 20.0011C72.5519 20.0011 75.3775 20.6632 77.3401 21.9873C79.3027 23.2878 80.284 25.3213 80.284 28.0879C80.284 29.814 79.882 31.2209 79.078 32.3086C78.2977 33.3727 77.1628 34.2121 75.6731 34.8269C76.1696 35.4416 76.6898 36.151 77.2337 36.9549C77.7775 37.7353 78.3096 38.5628 78.8298 39.4377C79.3736 40.289 79.8938 41.1875 80.3904 42.1333C80.8869 43.0555 81.348 43.9658 81.7736 44.8644H75.5667C75.1174 44.0604 74.6563 43.2447 74.1834 42.4171C73.7341 41.5895 73.2612 40.7855 72.7647 40.0052C72.2918 39.2249 71.8189 38.4919 71.3459 37.8062C70.873 37.0968 70.4001 36.4584 69.9272 35.8909H67.1962V44.8644H61.6631V20.6395C62.869 20.4031 64.1104 20.2376 65.3873 20.143C66.6878 20.0484 67.8464 20.0011 68.8632 20.0011ZM69.1824 24.7184C68.7804 24.7184 68.4139 24.7302 68.0829 24.7539C67.7755 24.7775 67.4799 24.8011 67.1962 24.8248V31.4928H68.7568C70.8376 31.4928 72.3272 31.2327 73.2258 30.7125C74.1243 30.1923 74.5736 29.3056 74.5736 28.0524C74.5736 26.8465 74.1125 25.9952 73.1903 25.4987C72.2918 24.9785 70.9558 24.7184 69.1824 24.7184ZM89.3431 32.5569C89.3431 33.7628 89.4849 34.8505 89.7687 35.82C90.0761 36.7894 90.5017 37.6288 91.0455 38.3382C91.613 39.0239 92.2988 39.556 93.1027 39.9343C93.9067 40.3126 94.8288 40.5018 95.8692 40.5018C96.886 40.5018 97.7963 40.3126 98.6003 39.9343C99.4279 39.556 100.114 39.0239 100.657 38.3382C101.225 37.6288 101.651 36.7894 101.934 35.82C102.242 34.8505 102.395 33.7628 102.395 32.5569C102.395 31.351 102.242 30.2633 101.934 29.2938C101.651 28.3007 101.225 27.4613 100.657 26.7755C100.114 26.0662 99.4279 25.5223 98.6003 25.144C97.7963 24.7657 96.886 24.5765 95.8692 24.5765C94.8288 24.5765 93.9067 24.7775 93.1027 25.1795C92.2988 25.5578 91.613 26.1016 91.0455 26.811C90.5017 27.4967 90.0761 28.3362 89.7687 29.3293C89.4849 30.2987 89.3431 31.3746 89.3431 32.5569ZM108.106 32.5569C108.106 34.6613 107.787 36.5175 107.148 38.1254C106.533 39.7097 105.682 41.0456 104.594 42.1333C103.507 43.1974 102.206 44.0013 100.693 44.5452C99.2033 45.089 97.5954 45.3609 95.8692 45.3609C94.1904 45.3609 92.6061 45.089 91.1165 44.5452C89.6268 44.0013 88.3263 43.1974 87.215 42.1333C86.1036 41.0456 85.2287 39.7097 84.5903 38.1254C83.9519 36.5175 83.6327 34.6613 83.6327 32.5569C83.6327 30.4524 83.9637 28.6081 84.6258 27.0238C85.2879 25.4159 86.1746 24.0681 87.2859 22.9804C88.4209 21.8927 89.7214 21.077 91.1874 20.5331C92.6771 19.9893 94.2377 19.7174 95.8692 19.7174C97.5481 19.7174 99.1323 19.9893 100.622 20.5331C102.112 21.077 103.412 21.8927 104.523 22.9804C105.635 24.0681 106.51 25.4159 107.148 27.0238C107.787 28.6081 108.106 30.4524 108.106 32.5569ZM125.484 44.8644C124.798 43.4929 124.041 42.1097 123.214 40.7146C122.41 39.2959 121.476 37.8535 120.412 36.3875C120.081 36.8131 119.655 37.4042 119.135 38.1609C118.638 38.9175 118.13 39.7215 117.61 40.5727C117.113 41.424 116.64 42.2397 116.191 43.02C115.742 43.8003 115.411 44.4151 115.198 44.8644H108.884C109.925 42.9491 111.131 40.9392 112.502 38.8348C113.897 36.7303 115.446 34.4958 117.149 32.1313L109.239 20.2848H115.943L120.731 27.946L125.413 20.2848H131.726L123.923 32.2022C125.909 34.7796 127.576 37.1678 128.924 39.3668C130.272 41.5422 131.336 43.3747 132.116 44.8644H125.484ZM135.301 20.2848H140.834V44.8644H135.301V20.2848ZM153.05 20.2848C153.476 21.0651 153.96 22.0346 154.504 23.1932C155.072 24.3282 155.651 25.5696 156.242 26.9174C156.857 28.2416 157.46 29.6012 158.051 30.9963C158.642 32.3914 159.198 33.7037 159.718 34.9333C160.238 33.7037 160.794 32.3914 161.385 30.9963C161.976 29.6012 162.567 28.2416 163.158 26.9174C163.773 25.5696 164.353 24.3282 164.896 23.1932C165.464 22.0346 165.96 21.0651 166.386 20.2848H171.423C171.659 21.9164 171.872 23.7489 172.061 25.7824C172.274 27.7923 172.451 29.8968 172.593 32.0958C172.759 34.2712 172.9 36.4584 173.019 38.6574C173.16 40.8565 173.279 42.9254 173.373 44.8644H167.982C167.911 42.4762 167.817 39.8752 167.698 37.0614C167.58 34.2475 167.403 31.4101 167.166 28.549C166.741 29.5421 166.268 30.6416 165.748 31.8475C165.227 33.0534 164.707 34.2594 164.187 35.4653C163.69 36.6712 163.206 37.8298 162.733 38.9412C162.26 40.0289 161.858 40.9629 161.527 41.7432H157.661C157.33 40.9629 156.928 40.0289 156.455 38.9412C155.982 37.8298 155.485 36.6712 154.965 35.4653C154.469 34.2594 153.96 33.0534 153.44 31.8475C152.92 30.6416 152.447 29.5421 152.021 28.549C151.785 31.4101 151.608 34.2475 151.489 37.0614C151.371 39.8752 151.277 42.4762 151.206 44.8644H145.814C145.909 42.9254 146.015 40.8565 146.134 38.6574C146.276 36.4584 146.417 34.2712 146.559 32.0958C146.725 29.8968 146.902 27.7923 147.091 25.7824C147.304 23.7489 147.529 21.9164 147.765 20.2848H153.05ZM194.812 44.8644C194.552 44.0131 194.257 43.1383 193.926 42.2397C193.618 41.3412 193.311 40.4427 193.004 39.5441H183.427C183.12 40.4427 182.801 41.3412 182.47 42.2397C182.162 43.1383 181.878 44.0131 181.618 44.8644H175.872C176.795 42.2161 177.669 39.7688 178.497 37.5224C179.325 35.2761 180.129 33.1598 180.909 31.1736C181.713 29.1874 182.493 27.3076 183.25 25.5342C184.03 23.7371 184.834 21.9873 185.662 20.2848H190.946C191.75 21.9873 192.543 23.7371 193.323 25.5342C194.103 27.3076 194.883 29.1874 195.664 31.1736C196.468 33.1598 197.283 35.2761 198.111 37.5224C198.939 39.7688 199.814 42.2161 200.736 44.8644H194.812ZM188.18 25.8534C188.062 26.2081 187.884 26.6928 187.648 27.3076C187.411 27.9224 187.14 28.6317 186.832 29.4357C186.525 30.2396 186.182 31.1263 185.804 32.0958C185.449 33.0653 185.082 34.082 184.704 35.1461H191.691C191.313 34.082 190.946 33.0653 190.592 32.0958C190.237 31.1263 189.894 30.2396 189.563 29.4357C189.256 28.6317 188.984 27.9224 188.747 27.3076C188.511 26.6928 188.322 26.2081 188.18 25.8534ZM210.443 20.2848C210.869 21.0651 211.354 22.0346 211.898 23.1932C212.465 24.3282 213.044 25.5696 213.636 26.9174C214.25 28.2416 214.853 29.6012 215.445 30.9963C216.036 32.3914 216.591 33.7037 217.112 34.9333C217.632 33.7037 218.187 32.3914 218.779 30.9963C219.37 29.6012 219.961 28.2416 220.552 26.9174C221.167 25.5696 221.746 24.3282 222.29 23.1932C222.857 22.0346 223.354 21.0651 223.78 20.2848H228.816C229.053 21.9164 229.265 23.7489 229.454 25.7824C229.667 27.7923 229.845 29.8968 229.987 32.0958C230.152 34.2712 230.294 36.4584 230.412 38.6574C230.554 40.8565 230.672 42.9254 230.767 44.8644H225.376C225.305 42.4762 225.21 39.8752 225.092 37.0614C224.974 34.2475 224.796 31.4101 224.56 28.549C224.134 29.5421 223.661 30.6416 223.141 31.8475C222.621 33.0534 222.101 34.2594 221.581 35.4653C221.084 36.6712 220.599 37.8298 220.126 38.9412C219.653 40.0289 219.251 40.9629 218.92 41.7432H215.054C214.723 40.9629 214.321 40.0289 213.848 38.9412C213.376 37.8298 212.879 36.6712 212.359 35.4653C211.862 34.2594 211.354 33.0534 210.834 31.8475C210.313 30.6416 209.841 29.5421 209.415 28.549C209.178 31.4101 209.001 34.2475 208.883 37.0614C208.765 39.8752 208.67 42.4762 208.599 44.8644H203.208C203.303 42.9254 203.409 40.8565 203.527 38.6574C203.669 36.4584 203.811 34.2712 203.953 32.0958C204.118 29.8968 204.296 27.7923 204.485 25.7824C204.698 23.7489 204.922 21.9164 205.159 20.2848H210.443ZM235.749 44.8644V20.2848H252.348V24.9312H241.282V29.7549H251.106V34.2948H241.282V40.218H253.164V44.8644H235.749ZM273.751 44.8644C272.167 42.0506 270.453 39.2722 268.608 36.5293C266.764 33.7864 264.801 31.1973 262.72 28.7618V44.8644H257.258V20.2848H261.763C262.543 21.0651 263.406 22.0228 264.352 23.1578C265.298 24.2928 266.255 25.5105 267.225 26.811C268.218 28.0879 269.199 29.4238 270.169 30.8189C271.138 32.1904 272.049 33.5145 272.9 34.7914V20.2848H278.397V44.8644H273.751ZM302.298 20.2848V25.0021H294.885V44.8644H289.352V25.0021H281.939V20.2848H302.298ZM305.854 44.8644V20.2848H322.453V24.9312H311.387V29.7549H321.212V34.2948H311.387V40.218H323.269V44.8644H305.854Z" fill="#F5F5F5"/>
</g>
</g>
<defs>
<filter id="filter0_d" x="-11.6313" y="20.9554" width="402.196" height="555.261" filterUnits="userSpaceOnUse" color-interpolation-filters="sRGB">
<feFlood flood-opacity="0" result="BackgroundImageFix"/>
<feColorMatrix in="SourceAlpha" type="matrix" values="0 0 0 0 0 0 0 0 0 0 0 0 0 0 0 0 0 0 127 0"/>
<feOffset dy="4"/>
<feGaussianBlur stdDeviation="2"/>
<feColorMatrix type="matrix" values="0 0 0 0 0 0 0 0 0 0 0 0 0 0 0 0 0 0 0.25 0"/>
<feBlend mode="normal" in2="BackgroundImageFix" result="effect1_dropShadow"/>
<feBlend mode="normal" in="SourceGraphic" in2="effect1_dropShadow" result="shape"/>
</filter>
<filter id="filter1_b" x="257.137" y="568.366" width="34.1479" height="26.7068" filterUnits="userSpaceOnUse" color-interpolation-filters="sRGB">
<feFlood flood-opacity="0" result="BackgroundImageFix"/>
<feGaussianBlur in="BackgroundImage" stdDeviation="2"/>
<feComposite in2="SourceAlpha" operator="in" result="effect1_backgroundBlur"/>
<feBlend mode="normal" in="SourceGraphic" in2="effect1_backgroundBlur" result="shape"/>
</filter>
<filter id="filter2_b" x="292.8" y="574.499" width="34.1479" height="26.7068" filterUnits="userSpaceOnUse" color-interpolation-filters="sRGB">
<feFlood flood-opacity="0" result="BackgroundImageFix"/>
<feGaussianBlur in="BackgroundImage" stdDeviation="2"/>
<feComposite in2="SourceAlpha" operator="in" result="effect1_backgroundBlur"/>
<feBlend mode="normal" in="SourceGraphic" in2="effect1_backgroundBlur" result="shape"/>
</filter>
<filter id="filter3_b" x="195.704" y="312.168" width="33.7569" height="26.1094" filterUnits="userSpaceOnUse" color-interpolation-filters="sRGB">
<feFlood flood-opacity="0" result="BackgroundImageFix"/>
<feGaussianBlur in="BackgroundImage" stdDeviation="2"/>
<feComposite in2="SourceAlpha" operator="in" result="effect1_backgroundBlur"/>
<feBlend mode="normal" in="SourceGraphic" in2="effect1_backgroundBlur" result="shape"/>
</filter>
<filter id="filter4_b" x="232.83" y="309.322" width="33.7569" height="26.1094" filterUnits="userSpaceOnUse" color-interpolation-filters="sRGB">
<feFlood flood-opacity="0" result="BackgroundImageFix"/>
<feGaussianBlur in="BackgroundImage" stdDeviation="2"/>
<feComposite in2="SourceAlpha" operator="in" result="effect1_backgroundBlur"/>
<feBlend mode="normal" in="SourceGraphic" in2="effect1_backgroundBlur" result="shape"/>
</filter>
<filter id="filter5_d" x="38.8374" y="19.7173" width="289.452" height="31.2914" filterUnits="userSpaceOnUse" color-interpolation-filters="sRGB">
<feFlood flood-opacity="0" result="BackgroundImageFix"/>
<feColorMatrix in="SourceAlpha" type="matrix" values="0 0 0 0 0 0 0 0 0 0 0 0 0 0 0 0 0 0 127 0"/>
<feOffset dx="2.51012" dy="3.13765"/>
<feGaussianBlur stdDeviation="1.25506"/>
<feColorMatrix type="matrix" values="0 0 0 0 1 0 0 0 0 1 0 0 0 0 1 0 0 0 0.4 0"/>
<feBlend mode="normal" in2="BackgroundImageFix" result="effect1_dropShadow"/>
<feBlend mode="normal" in="SourceGraphic" in2="effect1_dropShadow" result="shape"/>
</filter>
<clipPath id="clip0">
<rect width="360" height="640" fill="white" transform="translate(0.262939)"/>
</clipPath>
</defs>
</svg>
