<svg width="1400" height="666" viewBox="0 0 1400 666" fill="none" xmlns="http://www.w3.org/2000/svg">
<g clip-path="url(#clip0)">
<rect width="1400" height="666" fill="#3C576A"/>
<g opacity="0.81" filter="url(#filter0_d)">
<ellipse cx="98.7103" cy="119.197" rx="9.91835" ry="8.95144" transform="rotate(81 98.7103 119.197)" fill="#053885"/>
</g>
<g opacity="0.95" filter="url(#filter1_d)">
<ellipse cx="747.901" cy="68.5071" rx="10.728" ry="9.68217" transform="rotate(-52 747.901 68.5071)" fill="#053885"/>
</g>
<g opacity="0.99" filter="url(#filter2_d)">
<ellipse cx="966.625" cy="167.734" rx="11.8413" ry="10.6869" transform="rotate(-87 966.625 167.734)" fill="#053885"/>
</g>
<g opacity="0.84" filter="url(#filter3_d)">
<ellipse cx="276.475" cy="282.258" rx="6.47729" ry="5.84584" transform="rotate(58 276.475 282.258)" fill="#053885"/>
</g>
<g opacity="0.99" filter="url(#filter4_d)">
<ellipse cx="527.459" cy="387.39" rx="8.80507" ry="7.94669" transform="rotate(13 527.459 387.39)" fill="#053885"/>
</g>
<g opacity="0.99" filter="url(#filter5_d)">
<ellipse cx="1310.79" cy="213.589" rx="11.9425" ry="10.7783" transform="rotate(-134 1310.79 213.589)" fill="#053885"/>
</g>
<g opacity="0.99" filter="url(#filter6_d)">
<ellipse cx="377.304" cy="453.283" rx="7.59058" ry="6.85059" transform="rotate(-94 377.304 453.283)" fill="#053885"/>
</g>
<g filter="url(#filter7_d)">
<ellipse cx="927.678" cy="453.341" rx="8.40024" ry="7.58132" transform="rotate(-87 927.678 453.341)" fill="#053885"/>
</g>
<g opacity="0.97" filter="url(#filter8_d)">
<ellipse cx="1291.33" cy="464.898" rx="9.10869" ry="8.22071" transform="rotate(-30 1291.33 464.898)" fill="#053885"/>
</g>
<path d="M355.713 525.385C292.052 514.892 206.004 474.317 88.4753 493.905C207.403 554.768 265.468 570.158 341.721 666L505.422 666C496.328 623.326 435.572 563.228 355.713 525.385Z" fill="#53575A"/>
<path d="M136.206 317.48L136.206 545.59" stroke="black" stroke-width="21" stroke-linecap="round"/>
<path d="M0 476.104C0 476.104 132.229 505.533 233.486 505.533C330.21 505.533 358.284 665.987 358.284 665.987H0V476.104Z" fill="#53575A"/>
<path d="M347.618 666H304.052C300.784 648.048 297.663 636.559 288.924 612.558C275.288 588.857 263.425 577.348 236.575 559.224C197.359 536.185 171.776 525.375 116.066 511.998C107.709 507.397 104.033 503.744 99.3623 495.213L110.95 496.925L205.276 505.823C241.248 503.253 259.713 509.045 288.924 535.189C321.54 576.807 337.05 613.839 347.618 666Z" fill="#63686B"/>
<path d="M318.761 316.764C254.527 334.921 223.253 299.883 143.737 316.764L143.737 410.495C223.253 394.503 251.681 425.749 318.761 410.495V316.764Z" fill="#040332" fill-opacity="0.9"/>
<path d="M190.2 353.275C190.935 353.275 191.535 353.22 192.003 353.108C192.492 352.975 192.882 352.808 193.171 352.608C193.46 352.385 193.661 352.129 193.772 351.84C193.883 351.551 193.939 351.228 193.939 350.872C193.939 350.115 193.583 349.492 192.871 349.003C192.159 348.491 190.935 347.946 189.199 347.367C188.442 347.1 187.686 346.8 186.929 346.466C186.173 346.11 185.494 345.676 184.893 345.164C184.292 344.63 183.803 343.996 183.425 343.262C183.046 342.505 182.857 341.593 182.857 340.525C182.857 339.456 183.057 338.5 183.458 337.654C183.858 336.786 184.426 336.052 185.16 335.451C185.895 334.85 186.785 334.394 187.83 334.083C188.876 333.749 190.056 333.582 191.369 333.582C192.926 333.582 194.273 333.749 195.407 334.083C196.542 334.416 197.477 334.783 198.211 335.184L196.709 339.29C196.064 338.956 195.341 338.667 194.54 338.422C193.761 338.155 192.815 338.021 191.702 338.021C190.456 338.021 189.555 338.199 188.999 338.555C188.465 338.889 188.198 339.412 188.198 340.124C188.198 340.547 188.298 340.903 188.498 341.192C188.698 341.481 188.976 341.748 189.333 341.993C189.711 342.216 190.134 342.427 190.601 342.627C191.09 342.805 191.624 342.995 192.203 343.195C193.405 343.64 194.451 344.085 195.341 344.53C196.231 344.953 196.965 345.453 197.544 346.032C198.144 346.611 198.589 347.289 198.879 348.068C199.168 348.847 199.313 349.793 199.313 350.905C199.313 353.064 198.556 354.744 197.043 355.945C195.53 357.125 193.249 357.714 190.2 357.714C189.177 357.714 188.253 357.648 187.43 357.514C186.607 357.403 185.872 357.258 185.227 357.08C184.604 356.902 184.059 356.713 183.591 356.513C183.146 356.313 182.768 356.123 182.457 355.945L183.925 351.806C184.615 352.185 185.461 352.53 186.462 352.841C187.486 353.131 188.732 353.275 190.2 353.275Z" fill="#D9D9D9"/>
<path d="M202.151 348.602C202.151 347.045 202.385 345.687 202.852 344.53C203.341 343.351 203.976 342.372 204.754 341.593C205.533 340.814 206.423 340.224 207.425 339.824C208.448 339.423 209.494 339.223 210.562 339.223C213.055 339.223 215.024 339.991 216.47 341.526C217.917 343.039 218.64 345.275 218.64 348.235C218.64 348.524 218.629 348.847 218.606 349.203C218.584 349.537 218.562 349.837 218.54 350.104H207.258C207.369 351.128 207.847 351.94 208.693 352.541C209.539 353.142 210.674 353.442 212.098 353.442C213.01 353.442 213.9 353.364 214.768 353.208C215.658 353.03 216.381 352.819 216.938 352.574L217.605 356.613C217.338 356.747 216.982 356.88 216.537 357.014C216.092 357.147 215.591 357.258 215.035 357.347C214.501 357.459 213.922 357.548 213.299 357.614C212.676 357.681 212.053 357.714 211.43 357.714C209.85 357.714 208.471 357.481 207.291 357.014C206.134 356.546 205.166 355.912 204.387 355.111C203.631 354.288 203.063 353.32 202.685 352.207C202.329 351.094 202.151 349.893 202.151 348.602ZM213.833 346.7C213.811 346.277 213.733 345.865 213.6 345.465C213.488 345.064 213.299 344.708 213.032 344.396C212.788 344.085 212.465 343.829 212.064 343.629C211.686 343.429 211.208 343.328 210.629 343.328C210.073 343.328 209.594 343.429 209.194 343.629C208.793 343.807 208.459 344.052 208.192 344.363C207.925 344.675 207.714 345.042 207.558 345.465C207.425 345.865 207.325 346.277 207.258 346.7H213.833Z" fill="#D9D9D9"/>
<path d="M238.066 339.69C237.064 343.072 236.018 346.243 234.928 349.203C233.838 352.163 232.647 355.033 231.357 357.815C230.889 358.816 230.422 359.662 229.955 360.351C229.487 361.063 228.976 361.642 228.419 362.087C227.863 362.554 227.229 362.888 226.517 363.088C225.827 363.311 225.015 363.422 224.08 363.422C223.301 363.422 222.578 363.344 221.91 363.189C221.265 363.055 220.731 362.899 220.308 362.721L221.176 358.749C221.688 358.927 222.144 359.05 222.545 359.116C222.945 359.183 223.368 359.217 223.813 359.217C224.703 359.217 225.382 358.972 225.849 358.482C226.339 358.015 226.75 357.358 227.084 356.513C225.949 354.288 224.814 351.795 223.679 349.036C222.545 346.255 221.477 343.139 220.475 339.69H225.749C225.971 340.558 226.227 341.504 226.517 342.527C226.828 343.529 227.151 344.552 227.485 345.598C227.818 346.622 228.152 347.623 228.486 348.602C228.842 349.581 229.176 350.471 229.487 351.272C229.777 350.471 230.077 349.581 230.389 348.602C230.7 347.623 231.001 346.622 231.29 345.598C231.601 344.552 231.891 343.529 232.158 342.527C232.447 341.504 232.703 340.558 232.925 339.69H238.066Z" fill="#D9D9D9"/>
<path d="M240.732 340.291C241.577 340.046 242.668 339.824 244.003 339.623C245.338 339.401 246.74 339.29 248.208 339.29C249.699 339.29 250.934 339.49 251.914 339.89C252.915 340.269 253.705 340.814 254.283 341.526C254.862 342.238 255.274 343.084 255.518 344.063C255.763 345.042 255.886 346.132 255.886 347.334V357.247H250.912V347.935C250.912 346.332 250.701 345.198 250.278 344.53C249.855 343.862 249.065 343.529 247.908 343.529C247.552 343.529 247.174 343.551 246.773 343.595C246.373 343.618 246.017 343.651 245.705 343.696V357.247H240.732V340.291Z" fill="#D9D9D9"/>
<path d="M259.553 348.602C259.553 347.045 259.786 345.687 260.254 344.53C260.743 343.351 261.377 342.372 262.156 341.593C262.935 340.814 263.825 340.224 264.827 339.824C265.85 339.423 266.896 339.223 267.964 339.223C270.456 339.223 272.426 339.991 273.872 341.526C275.319 343.039 276.042 345.275 276.042 348.235C276.042 348.524 276.031 348.847 276.008 349.203C275.986 349.537 275.964 349.837 275.942 350.104H264.66C264.771 351.128 265.249 351.94 266.095 352.541C266.941 353.142 268.075 353.442 269.5 353.442C270.412 353.442 271.302 353.364 272.17 353.208C273.06 353.03 273.783 352.819 274.339 352.574L275.007 356.613C274.74 356.747 274.384 356.88 273.939 357.014C273.494 357.147 272.993 357.258 272.437 357.347C271.903 357.459 271.324 357.548 270.701 357.614C270.078 357.681 269.455 357.714 268.832 357.714C267.252 357.714 265.872 357.481 264.693 357.014C263.536 356.546 262.568 355.912 261.789 355.111C261.033 354.288 260.465 353.32 260.087 352.207C259.731 351.094 259.553 349.893 259.553 348.602ZM271.235 346.7C271.213 346.277 271.135 345.865 271.002 345.465C270.89 345.064 270.701 344.708 270.434 344.396C270.189 344.085 269.867 343.829 269.466 343.629C269.088 343.429 268.609 343.328 268.031 343.328C267.475 343.328 266.996 343.429 266.596 343.629C266.195 343.807 265.861 344.052 265.594 344.363C265.327 344.675 265.116 345.042 264.96 345.465C264.827 345.865 264.726 346.277 264.66 346.7H271.235Z" fill="#D9D9D9"/>
<path d="M505.422 666H457.699L442.319 628.401L411.265 586.546L367.61 549.641C353.737 536.162 342.795 530.643 323.329 520.036L355.827 526.997C433.172 564.735 488.995 613.981 505.422 666Z" fill="#63686B"/>
<g opacity="0.5">
<g filter="url(#filter9_b)">
<path d="M798.386 353.829C785.479 354.698 777.622 360.079 763.366 372.334M798.477 352.986C782.706 351.161 773.884 355.709 758.155 365.441M798.694 351.724C784.154 348.243 774.097 350.097 754.132 357.453" stroke="black" stroke-width="3" stroke-linecap="round"/>
</g>
<g filter="url(#filter10_b)">
<path d="M829.114 359.114C840.989 364.246 846.596 371.942 855.939 388.256M829.31 358.289C844.785 361.838 851.58 369.072 863.153 383.5M829.527 357.027C844.394 358.604 853.254 363.711 869.614 377.315" stroke="black" stroke-width="3" stroke-linecap="round"/>
</g>
<path fill-rule="evenodd" clip-rule="evenodd" d="M784.926 312.823C800.683 312.559 809.344 317.022 805.327 329.242C805.372 328.364 805.2 327.884 804.528 327.066C793.492 328.38 790.053 324.433 789.699 314.879C788.962 313.674 787.66 313.315 784.926 312.823ZM792.039 318.55C791.595 317.925 791.451 318.072 791.574 318.813C793.115 324.728 795.857 326.765 801.43 324.326C802.119 324.024 801.925 323.713 801.284 323.843C795.728 325.292 793.906 323.024 792.039 318.55Z" fill="#252324"/>
<ellipse cx="795.542" cy="318.931" rx="1.31669" ry="1.27478" transform="rotate(9.75878 795.542 318.931)" fill="#0594A7"/>
<path fill-rule="evenodd" clip-rule="evenodd" d="M874.667 327.136C875.579 342.063 871.391 350.451 857.605 365.435C860.8 357.615 859.459 354.647 853.232 351.09C848.773 348.816 846.069 347.71 840.767 346.134C828.354 341.119 824.665 337.004 827.049 326.092C828.06 307.568 821.96 297.495 802.541 294.798C794.833 292.457 793.212 289.568 792.484 283.154C791.478 266.975 789.72 259.69 780.71 252.801C777.455 250.745 774.691 251.172 772.8 254.964C767.588 263.273 766.944 272.423 769.829 287.544C766.751 297.961 766.61 303.131 769.095 311.168C765.479 317.975 765.519 323.197 767.562 333.852C763.877 325.046 763.134 319.94 766.205 310.267C763.899 301.337 764.075 296.426 766.356 287.791C764.347 267.423 765.426 258.845 772.245 249.849C775.045 247.237 776.838 247.086 780.167 247.603C789.059 253.45 793.415 260.164 798.542 268.068C800.149 270.545 801.832 273.139 803.754 275.86C821.472 271.438 831.488 272.877 849.498 282.666C860.841 272.46 867.295 268.407 878.984 264.28C884.664 263.891 886.42 265.016 887.904 268.574C891.397 284.957 888.875 295.34 877.76 315.633C875.599 319.885 874.979 322.418 874.667 327.136ZM877.354 309.812C872.926 313.904 870.062 311.967 869.22 305.083C868.607 302.919 867.161 302.322 862.728 302.302C854.892 306.315 848.275 293.213 856.328 285.076C865.139 275.761 870.272 271.917 879.943 268.747C882.5 268.227 883.516 268.716 884.488 271.158C886.292 284.901 884.649 293.027 877.354 309.812ZM850.804 326.019C851.525 325.282 851.824 325.455 851.48 326.544C845.931 335.176 841.075 337.844 832.32 332.708C831.411 332.012 831.671 331.704 832.655 332.101C841.071 336.095 845.393 334.291 850.804 326.019ZM846.308 328.092C846.671 327.435 846.585 327.248 845.958 327.688C842.703 331.282 840.228 332.811 835.476 329.588C834.915 329.252 834.628 329.48 835.177 329.995C839.615 334.156 842.88 333.153 846.308 328.092ZM853.452 325.275C838.32 321.297 833.078 322.79 830.511 333.273C830.39 333.976 830.081 333.953 830.04 333.192C830.402 321.31 838.923 317.525 853.936 324.721C854.989 325.227 854.746 325.704 853.452 325.275Z" fill="#252324"/>
<ellipse cx="837.328" cy="326.045" rx="1.24466" ry="1.24943" transform="rotate(9.75878 837.328 326.045)" fill="#0594A7"/>
<path d="M812.691 362.793C812.615 362.125 812.662 361.605 812.846 360.518C812.695 360.243 812.578 360.203 812.286 360.422C812.172 361.311 812.059 361.813 811.672 362.718C807.787 365.832 802.396 365.67 797.809 362.355C802.276 366.682 806.559 366.673 812.041 365.198C816.043 368.88 821.811 369.316 826.054 367.212C820.803 368.92 815.035 367.228 812.691 362.793Z" fill="#252324"/>
<path d="M821.46 354C823.273 353.186 822.278 349.245 824.051 338.938C823.809 335.679 822.525 347.808 821.122 352.399C819.64 351.097 818.51 350.843 816.078 351.048C814.604 351.197 813.712 351.036 812.012 350.349C810.143 349.391 809.033 349.351 806.967 349.965C808.167 344.876 809.646 334.122 808.896 336.137C807.892 344.585 804.587 349.556 806.202 351.802C808.676 354.046 810.986 355.404 810.28 357.407C810.946 358.521 811.314 359.126 812.744 359.883C814.042 359.7 814.671 359.254 815.74 358.272C815.356 356.2 819.007 356.182 821.46 354Z" fill="#252324"/>
</g>
<g opacity="0.5">
<g filter="url(#filter11_b)">
<path d="M369.637 177.74C354.057 182.801 346.075 191.839 332.362 211.297M369.489 176.677C349.558 179.315 340.133 187.629 323.831 204.445M369.365 175.06C350.434 175.284 338.658 180.672 316.419 195.881" stroke="black" stroke-width="3" stroke-linecap="round"/>
</g>
<g filter="url(#filter12_b)">
<path d="M409.004 174.722C425.173 177.35 434.439 185.065 450.958 202.206M408.989 173.649C429.089 173.219 439.671 179.999 458.346 194.134M408.865 172.032C427.609 169.369 440.068 172.899 464.366 184.541" stroke="black" stroke-width="3" stroke-linecap="round"/>
</g>
<path fill-rule="evenodd" clip-rule="evenodd" d="M340.422 131.552C359.69 126.353 371.705 129.154 370.554 145.401C370.337 144.31 369.978 143.773 368.899 142.977C355.754 148.005 350.311 144.223 346.92 132.601C345.641 131.349 343.932 131.311 340.422 131.552ZM350.929 136.383C350.19 135.754 350.059 135.979 350.439 136.851C354.161 143.638 358.158 145.29 364.247 140.571C365 139.987 364.665 139.666 363.918 140.023C357.545 143.521 354.606 141.3 350.929 136.383Z" fill="#252324"/>
<ellipse cx="355.348" cy="135.768" rx="1.66732" ry="1.61424" transform="rotate(-4.38329 355.348 135.768)" fill="#A70505"/>
<path fill-rule="evenodd" clip-rule="evenodd" d="M455.045 121.363C460.783 139.41 458.236 151.005 445.943 173.669C447.448 163.078 444.883 159.849 436.136 157.407C429.957 155.996 426.295 155.474 419.297 155.179C402.503 152.861 396.701 148.95 396.252 134.814C391.762 111.755 381.155 101.273 356.476 103.97C346.287 103.479 343.402 100.434 340.524 92.7835C334.283 73.2284 329.87 64.8265 316.676 59.1551C312.043 57.638 308.781 59.0166 307.631 64.2583C303.802 76.0738 305.843 87.5083 314.064 105.183C313.507 118.927 314.934 125.318 320.472 134.418C318.138 143.895 319.803 150.295 325.608 162.746C318.359 153.074 315.866 147.034 316.645 134.206C311.05 123.955 309.746 117.869 309.876 106.561C301.107 82.172 299.779 71.3047 305.368 58.1497C307.998 54.075 310.152 53.3352 314.401 52.9403C327.129 57.3683 334.554 64.2654 343.295 72.3844L343.295 72.3844C346.035 74.9291 348.904 77.5939 352.105 80.3403C372.493 69.4283 385.237 68.0962 410.381 74.5448C421.151 58.5024 427.823 51.5295 440.899 42.8454C447.753 40.6099 450.257 41.4484 453.181 45.3581C462.538 64.3941 462.654 77.9243 455.284 106.281C453.947 112.171 453.968 115.473 455.045 121.363ZM452.985 99.2584C448.814 105.653 444.698 104.161 441.534 95.9692C440.111 93.5007 438.152 93.2151 432.702 94.5628C424.322 101.915 412.143 87.873 419.513 75.3906C427.451 61.2271 432.564 54.9183 443.459 48.0332C446.438 46.6038 447.837 46.8901 449.786 49.5887C456.253 65.9051 456.749 76.3919 452.985 99.2584ZM425.397 127.374C426.055 126.245 426.475 126.366 426.391 127.81C422.247 140.126 417.11 144.904 404.771 141.306C403.439 140.733 403.663 140.274 404.994 140.457C416.564 142.757 421.313 139.206 425.397 127.374ZM420.519 131.31C420.762 130.391 420.598 130.188 419.963 130.923C417.079 136.342 414.513 138.986 407.681 136.499C406.888 136.26 406.606 136.629 407.439 137.091C414.176 140.828 417.875 138.585 420.519 131.31ZM428.419 125.641C408.608 125.438 402.633 128.893 402.724 142.559C402.793 143.46 402.407 143.527 402.121 142.605C398.889 127.905 408.182 120.62 428.842 124.812C430.292 125.106 430.141 125.768 428.419 125.641Z" fill="#252324"/>
<ellipse cx="408.859" cy="131.575" rx="1.5761" ry="1.58214" transform="rotate(-4.38329 408.859 131.575)" fill="#A70505"/>
<path d="M389.976 184.322C389.676 183.525 389.573 182.872 389.462 181.48C389.192 181.189 389.036 181.176 388.745 181.535C388.88 182.663 388.897 183.314 388.701 184.545C384.894 189.571 378.225 191.039 371.566 188.387C378.39 192.319 383.646 190.983 389.922 187.475C395.975 190.759 403.192 189.509 407.752 185.614C401.832 189.335 394.226 189.042 389.976 184.322Z" fill="#252324"/>
<path d="M398.023 170.811C399.997 169.251 397.556 164.72 396.544 151.514C395.239 147.588 397.415 162.878 397.113 168.95C394.891 167.809 393.424 167.847 390.501 168.852C388.737 169.49 387.592 169.569 385.292 169.251C382.701 168.653 381.325 168.947 378.978 170.34C378.877 163.72 377.366 150.058 377.069 152.764C378.45 163.448 375.93 170.574 378.607 172.833C382.34 174.823 385.596 175.776 385.349 178.454C386.511 179.615 387.15 180.244 389.141 180.731C390.678 180.105 391.313 179.363 392.321 177.826C391.209 175.401 395.686 174.25 398.023 170.811Z" fill="#252324"/>
</g>
<g opacity="0.78">
<path d="M1288.66 149.717C1288.66 218.173 1233.16 273.667 1164.71 273.667C1096.25 273.667 1040.76 218.173 1040.76 149.717C1040.76 81.2622 1096.25 25.7682 1164.71 25.7682C1233.16 25.7682 1288.66 81.2622 1288.66 149.717Z" fill="#4E4949"/>
<path fill-rule="evenodd" clip-rule="evenodd" d="M1164.71 268.448C1230.37 268.448 1283.5 215.236 1283.5 149.717C1283.5 84.1984 1230.37 30.9872 1164.71 30.9872C1099.05 30.9872 1045.92 84.1984 1045.92 149.717C1045.92 215.236 1099.05 268.448 1164.71 268.448ZM1164.71 273.667C1233.16 273.667 1288.66 218.173 1288.66 149.717C1288.66 81.2622 1233.16 25.7682 1164.71 25.7682C1096.25 25.7682 1040.76 81.2622 1040.76 149.717C1040.76 218.173 1096.25 273.667 1164.71 273.667Z" fill="black"/>
<path d="M1263.87 149.717C1263.87 204.482 1219.47 248.877 1164.71 248.877C1109.94 248.877 1065.55 204.482 1065.55 149.717C1065.55 94.9532 1109.94 50.558 1164.71 50.558C1219.47 50.558 1263.87 94.9532 1263.87 149.717Z" fill="#525252"/>
<path fill-rule="evenodd" clip-rule="evenodd" d="M1164.71 245.745C1217.79 245.745 1260.77 202.72 1260.77 149.717C1260.77 96.7149 1217.79 53.6894 1164.71 53.6894C1111.62 53.6894 1068.65 96.7149 1068.65 149.717C1068.65 202.72 1111.62 245.745 1164.71 245.745ZM1164.71 248.877C1219.47 248.877 1263.87 204.482 1263.87 149.717C1263.87 94.9532 1219.47 50.558 1164.71 50.558C1109.94 50.558 1065.55 94.9532 1065.55 149.717C1065.55 204.482 1109.94 248.877 1164.71 248.877Z" fill="black"/>
<path d="M1210.02 107.1C1217.43 94.2121 1219.82 88.3288 1228.15 77.1283C1217.88 68.8335 1212.77 64.399 1198.57 59.78C1191.59 71.2871 1185.25 76.8747 1177.34 88.266C1167 89.615 1161.63 92.6408 1153.2 104.225C1150.06 110.499 1149.99 113.586 1153.18 118.213C1143.21 124.814 1143 131.454 1153.32 137.848C1155.91 145.034 1158.74 147.212 1165.91 148.221C1172.74 153.571 1175.53 153.89 1181.22 151.028C1190 157.322 1193.97 154.196 1199.94 140.878C1205.84 124.8 1209.9 114.651 1208.28 109.835C1209.46 108.805 1209.73 108.198 1210.02 107.1Z" fill="#0116D1"/>
<path fill-rule="evenodd" clip-rule="evenodd" d="M1198.46 59.4688L1198.65 59.5316C1212.31 63.9758 1217.6 68.2598 1227.07 75.9219C1227.48 76.2498 1227.89 76.5839 1228.31 76.9244L1228.51 77.0826L1228.36 77.2851C1222.36 85.3523 1219.45 90.6469 1215.51 97.8153C1213.99 100.577 1212.32 103.617 1210.26 107.201C1210.12 107.742 1209.97 108.188 1209.7 108.629C1209.45 109.045 1209.1 109.444 1208.58 109.918C1208.95 111.149 1208.98 112.676 1208.75 114.49C1208.5 116.391 1207.95 118.629 1207.18 121.209C1205.89 125.477 1203.96 130.709 1201.66 136.938C1201.18 138.238 1200.69 139.581 1200.18 140.968L1200.18 140.977L1200.17 140.985C1198.68 144.319 1197.31 147.026 1195.95 149.111C1194.59 151.194 1193.23 152.674 1191.76 153.533C1188.82 155.258 1185.54 154.416 1181.2 151.33C1178.41 152.721 1176.26 153.359 1173.95 152.961C1171.63 152.561 1169.2 151.12 1165.8 148.47C1162.24 147.963 1159.71 147.157 1157.74 145.554C1155.77 143.954 1154.4 141.585 1153.1 138.023C1147.98 134.832 1145.37 131.521 1145.38 128.107C1145.39 124.732 1147.96 121.404 1152.82 118.142C1151.3 115.9 1150.54 113.975 1150.56 111.835C1150.57 109.638 1151.4 107.252 1152.97 104.107L1152.98 104.087L1152.99 104.07C1157.21 98.2684 1160.69 94.5857 1164.42 92.1871C1168.12 89.8029 1172.06 88.7003 1177.2 88.0221C1180.58 83.1529 1183.68 79.3412 1186.67 75.6756C1187.15 75.0816 1187.63 74.4914 1188.11 73.9012C1191.55 69.6451 1194.87 65.3821 1198.35 59.6436L1198.46 59.4688ZM1198.69 60.0913C1195.23 65.7719 1191.92 70.0126 1188.51 74.2317C1188.03 74.8233 1187.55 75.4143 1187.06 76.0088C1184.06 79.6979 1180.95 83.5192 1177.56 88.4159L1177.49 88.5101L1177.38 88.5248C1172.23 89.1968 1168.34 90.283 1164.69 92.6274C1161.05 94.9725 1157.62 98.5898 1153.42 104.362C1151.86 107.481 1151.08 109.771 1151.07 111.838C1151.06 113.898 1151.81 115.773 1153.39 118.064L1153.54 118.284L1153.32 118.431C1148.35 121.723 1145.91 124.966 1145.9 128.109C1145.89 131.247 1148.31 134.438 1153.45 137.626L1153.53 137.673L1153.56 137.759C1154.85 141.335 1156.19 143.623 1158.06 145.148C1159.93 146.672 1162.38 147.46 1165.94 147.963L1166.01 147.973L1166.07 148.015C1169.48 150.688 1171.84 152.068 1174.04 152.446C1176.22 152.823 1178.28 152.218 1181.1 150.794L1181.24 150.724L1181.37 150.815C1185.74 153.95 1188.81 154.659 1191.51 153.081C1192.87 152.281 1194.18 150.876 1195.52 148.824C1196.85 146.775 1198.21 144.1 1199.7 140.778C1200.21 139.391 1200.7 138.048 1201.18 136.75C1203.48 130.522 1205.4 125.308 1206.68 121.057C1207.46 118.489 1207.99 116.282 1208.23 114.422C1208.48 112.56 1208.42 111.069 1208.04 109.919L1207.98 109.753L1208.11 109.638C1208.69 109.132 1209.03 108.743 1209.26 108.357C1209.49 107.972 1209.63 107.575 1209.77 107.033L1209.78 106.999L1209.8 106.969C1211.85 103.39 1213.53 100.349 1215.05 97.5829C1218.96 90.4617 1221.88 85.1584 1227.79 77.1741C1227.44 76.8883 1227.09 76.6072 1226.75 76.3305C1217.34 68.715 1212.11 64.4834 1198.69 60.0913Z" fill="black"/>
<path fill-rule="evenodd" clip-rule="evenodd" d="M1194.67 93.4616L1204.89 79.3192L1205.3 79.6271L1195.08 93.7695L1194.67 93.4616ZM1196.36 93.9746L1201.75 86.7541L1202.16 87.0683L1196.77 94.2888L1196.36 93.9746ZM1189.43 93.1559C1186.37 91.6209 1184.48 90.8529 1180.84 89.6043L1181 89.1101C1184.66 90.3645 1186.57 91.141 1189.66 92.6884L1189.43 93.1559ZM1204.52 105.653C1201.9 102.61 1200.24 101.013 1197.07 98.2665L1197.41 97.8702C1200.59 100.629 1202.27 102.244 1204.91 105.31L1204.52 105.653ZM1179.56 112.404C1175.9 113.227 1172.44 113.037 1168.21 111.875L1168.34 111.372C1172.51 112.516 1175.88 112.695 1179.45 111.894C1183.02 111.092 1186.79 109.301 1191.77 106.473L1192.02 106.928C1187.04 109.76 1183.21 111.583 1179.56 112.404ZM1164.59 109.345C1164.64 109.007 1164.64 108.71 1164.59 108.416C1164.52 108.074 1164.39 107.751 1164.19 107.387L1163.74 107.632C1163.92 107.977 1164.03 108.245 1164.08 108.512C1164.13 108.773 1164.12 109.05 1164.05 109.415L1163.67 110.679C1163.47 110.629 1163.26 110.592 1163.05 110.566C1161.97 110.438 1160.82 110.623 1159.52 111.062L1159.68 111.557C1160.94 111.132 1162.01 110.968 1162.99 111.085C1163.96 111.2 1164.84 111.596 1165.71 112.323C1167.47 113.791 1169.14 116.59 1171.24 121.098C1171.56 122.011 1171.4 123.107 1170.88 124.211C1170.37 125.315 1169.52 126.395 1168.54 127.244C1167.56 128.096 1166.47 128.698 1165.48 128.876C1164.51 129.052 1163.67 128.816 1163.08 128.015C1161.76 126.196 1159.19 123.536 1156.96 121.342C1155.85 120.242 1154.81 119.255 1154.06 118.543C1153.68 118.187 1153.37 117.9 1153.16 117.701C1153.05 117.602 1152.97 117.525 1152.91 117.473L1152.85 117.413L1152.83 117.393C1152.83 117.393 1152.83 117.393 1152.65 117.586C1152.48 117.779 1152.48 117.779 1152.48 117.779L1152.48 117.781L1152.5 117.799L1152.56 117.858C1152.62 117.91 1152.7 117.987 1152.81 118.085C1153.02 118.283 1153.33 118.57 1153.71 118.925C1154.46 119.635 1155.49 120.619 1156.6 121.715C1158.83 123.913 1161.37 126.545 1162.67 128.324C1163.39 129.322 1164.46 129.592 1165.57 129.39C1166.68 129.189 1167.85 128.529 1168.87 127.64C1169.9 126.75 1170.8 125.614 1171.35 124.434C1171.9 123.257 1172.12 122.004 1171.72 120.907L1171.71 120.896L1171.71 120.886C1170.99 119.333 1170.31 117.969 1169.65 116.786L1169.72 116.852L1170.3 116.231C1172.63 116.704 1174.18 117.28 1175.31 118.221C1176.41 119.131 1177.13 120.405 1177.74 122.344L1177.71 122.394C1172.74 133.061 1169.44 139.416 1165.13 146.04L1165.56 146.326C1169.86 139.717 1173.16 133.378 1178.08 122.832L1178.1 122.831C1180.46 122.651 1182.12 122.834 1183.45 123.514C1184.77 124.185 1185.81 125.359 1186.9 127.252C1186.85 131.094 1186.57 134.19 1185.6 137.569C1184.63 140.972 1182.98 144.673 1180.17 149.716L1180.62 149.972C1183.43 144.913 1185.11 141.172 1186.1 137.713C1187.07 134.323 1187.36 131.216 1187.42 127.425C1189.41 127.279 1191.05 127.443 1192.36 127.956C1193.72 128.487 1194.74 129.396 1195.44 130.759C1196.14 132.13 1196.53 133.972 1196.59 136.371C1196.65 138.768 1196.39 141.704 1195.81 145.25L1196.31 145.336C1196.9 141.772 1197.17 138.8 1197.11 136.357C1197.04 133.916 1196.65 131.986 1195.9 130.518C1195.14 129.043 1194.02 128.046 1192.55 127.47C1191.12 126.911 1189.37 126.752 1187.3 126.91C1186.2 125.024 1185.11 123.774 1183.68 123.048C1182.27 122.326 1180.56 122.139 1178.26 122.296C1177.63 120.249 1176.86 118.836 1175.64 117.818C1174.41 116.791 1172.74 116.194 1170.39 115.716C1169.64 114.187 1168.94 113.043 1168.04 112.052C1167.15 111.069 1166.08 110.247 1164.59 109.345ZM1169.9 115.9C1169.17 114.417 1168.5 113.335 1167.66 112.404C1166.84 111.5 1165.85 110.728 1164.45 109.873L1164.17 110.826C1164.82 111.055 1165.44 111.418 1166.04 111.921C1167.19 112.879 1168.28 114.352 1169.44 116.399L1169.9 115.9ZM1176.06 116.527C1183.78 119.669 1189.63 121.585 1197.41 120.27L1197.5 120.784C1189.56 122.125 1183.6 120.159 1175.87 117.012L1176.06 116.527ZM1156.99 129.958C1158.07 128.268 1159.04 127.008 1160.57 125.9L1160.87 126.325C1159.42 127.376 1158.49 128.573 1157.43 130.241C1157.11 130.733 1156.79 131.266 1156.43 131.848C1155.57 133.239 1154.55 134.908 1153.13 136.944L1152.71 136.643C1154.12 134.62 1155.13 132.975 1155.98 131.588C1156.34 131.002 1156.67 130.461 1156.99 129.958Z" fill="black"/>
<path d="M1151.46 213.634C1143.77 226.348 1141.23 228.47 1134.46 241.024C1128.88 239.029 1118.94 235.804 1103.39 224.51C1110.09 212.834 1113.39 205.959 1119.55 193.515C1115.81 183.673 1115.88 177.455 1121.96 164.454C1125.93 158.676 1128.58 157.145 1134.13 157.787C1135.13 145.784 1140.81 142.437 1151.28 148.579C1158.77 147.476 1162.01 148.958 1166.29 154.852C1174.19 158.392 1175.8 160.723 1176.01 167.14C1185.66 171.964 1184.82 176.98 1176.07 188.615C1164.88 201.503 1157.98 209.941 1153.02 210.788C1152.68 212.322 1152.28 212.854 1151.46 213.634Z" fill="#950000"/>
<path fill-rule="evenodd" clip-rule="evenodd" d="M1103.05 224.584L1103.24 224.722C1118.04 235.474 1127.78 238.93 1133.5 240.962C1133.8 241.069 1134.09 241.171 1134.37 241.27L1134.58 241.345L1134.68 241.149C1138.06 234.88 1140.39 231.218 1142.83 227.534C1143.26 226.884 1143.69 226.233 1144.14 225.567C1146.21 222.461 1148.5 219.024 1151.66 213.8C1152.07 213.415 1152.38 213.071 1152.64 212.626C1152.89 212.204 1153.07 211.705 1153.23 211.013C1154.48 210.76 1155.82 210.062 1157.29 208.99C1158.82 207.866 1160.51 206.318 1162.39 204.4C1165.49 201.229 1169.13 197.025 1173.46 192.022C1174.36 190.978 1175.3 189.899 1176.26 188.787L1176.27 188.78L1176.27 188.773C1178.46 185.86 1180.17 183.352 1181.34 181.153C1182.5 178.955 1183.15 177.045 1183.2 175.331C1183.3 171.889 1181.01 169.376 1176.26 166.976C1176.14 163.834 1175.68 161.619 1174.24 159.756C1172.79 157.883 1170.37 156.4 1166.46 154.641C1164.32 151.713 1162.42 149.841 1160.09 148.851C1157.76 147.862 1155.05 147.768 1151.33 148.308C1146.12 145.266 1142 144.518 1139.03 146.149C1136.1 147.762 1134.42 151.632 1133.89 157.499C1131.22 157.218 1129.18 157.457 1127.33 158.484C1125.42 159.539 1123.74 161.409 1121.75 164.305L1121.74 164.323L1121.73 164.342C1118.69 170.854 1117.13 175.693 1116.81 180.15C1116.5 184.581 1117.41 188.61 1119.26 193.501C1118.7 194.641 1118.16 195.735 1117.64 196.789C1112.5 207.186 1109.23 213.815 1103.17 224.379L1103.05 224.584ZM1103.73 224.436C1109.73 213.976 1113 207.353 1118.1 197.023C1118.64 195.937 1119.19 194.809 1119.78 193.632L1119.83 193.529L1119.79 193.421C1117.92 188.519 1117.02 184.544 1117.33 180.188C1117.64 175.83 1119.16 171.064 1122.19 164.585C1124.16 161.714 1125.78 159.934 1127.58 158.942C1129.36 157.953 1131.35 157.728 1134.1 158.046L1134.36 158.077L1134.38 157.809C1134.89 151.823 1136.55 148.11 1139.28 146.608C1142 145.108 1145.93 145.742 1151.15 148.805L1151.23 148.85L1151.32 148.837C1155.04 148.288 1157.67 148.39 1159.89 149.332C1162.1 150.274 1163.95 152.072 1166.08 155.006L1166.12 155.062L1166.18 155.09C1170.13 156.859 1172.46 158.305 1173.83 160.078C1175.19 161.839 1175.64 163.956 1175.75 167.149L1175.75 167.305L1175.89 167.374C1180.7 169.777 1182.77 172.168 1182.68 175.316C1182.64 176.913 1182.03 178.74 1180.88 180.906C1179.73 183.068 1178.05 185.548 1175.87 188.449C1174.9 189.561 1173.97 190.64 1173.07 191.683C1168.74 196.686 1165.11 200.874 1162.02 204.033C1160.16 205.942 1158.49 207.467 1156.99 208.567C1155.48 209.668 1154.16 210.328 1152.97 210.53L1152.8 210.559L1152.76 210.731C1152.6 211.484 1152.42 211.972 1152.2 212.362C1151.97 212.752 1151.69 213.06 1151.29 213.444L1151.26 213.468L1151.24 213.498C1148.08 218.728 1145.78 222.163 1143.71 225.274C1143.26 225.94 1142.83 226.592 1142.4 227.244C1139.98 230.899 1137.67 234.537 1134.33 240.704C1134.12 240.628 1133.9 240.55 1133.67 240.47C1127.99 238.454 1118.37 235.037 1103.73 224.436Z" fill="black"/>
<path fill-rule="evenodd" clip-rule="evenodd" d="M1132.3 206.457L1124.85 222.269L1125.31 222.493L1132.76 206.682L1132.3 206.457ZM1133.55 207.72L1129.82 215.942L1130.29 216.159L1134.02 207.938L1133.55 207.72ZM1129.54 201.944C1126.75 199.95 1125.19 198.633 1122.37 195.987L1122.02 196.369C1124.85 199.028 1126.43 200.36 1129.25 202.37L1129.54 201.944ZM1147.59 209.43C1143.7 208.545 1141.52 207.827 1137.62 206.311L1137.44 206.799C1141.35 208.32 1143.55 209.048 1147.48 209.939L1147.59 209.43ZM1141.6 184.015C1140.58 180.369 1138.77 177.381 1135.75 174.169L1135.38 174.529C1138.35 177.693 1140.11 180.609 1141.11 184.157C1142.11 187.716 1142.34 191.927 1142.24 197.694L1142.76 197.703C1142.86 191.927 1142.62 187.651 1141.6 184.015ZM1131.83 172.15C1131.56 172.357 1131.3 172.499 1131.02 172.59C1130.69 172.697 1130.35 172.728 1129.94 172.731L1129.93 172.209C1130.32 172.207 1130.61 172.176 1130.86 172.093C1131.11 172.012 1131.35 171.876 1131.63 171.64L1132.56 170.703C1132.41 170.545 1132.28 170.377 1132.16 170.201C1131.54 169.306 1131.15 168.189 1130.92 166.827L1131.42 166.737C1131.65 168.054 1132.02 169.09 1132.58 169.9C1133.14 170.707 1133.91 171.307 1134.96 171.735C1137.07 172.599 1140.3 172.756 1145.22 172.482C1146.17 172.339 1147.04 171.671 1147.76 170.688C1148.47 169.705 1149.01 168.435 1149.28 167.16C1149.56 165.882 1149.56 164.626 1149.25 163.667C1148.94 162.72 1148.34 162.079 1147.36 161.941C1145.15 161.628 1141.61 160.605 1138.65 159.667C1137.16 159.197 1135.81 158.746 1134.83 158.413C1134.34 158.246 1133.95 158.109 1133.67 158.013C1133.53 157.966 1133.43 157.928 1133.36 157.903L1133.27 157.874L1133.25 157.864C1133.25 157.864 1133.24 157.864 1133.33 157.617C1133.42 157.371 1133.42 157.371 1133.42 157.371L1133.42 157.372L1133.44 157.381L1133.53 157.41C1133.6 157.435 1133.7 157.472 1133.84 157.52C1134.11 157.615 1134.51 157.752 1135 157.918C1135.97 158.251 1137.32 158.7 1138.8 159.169C1141.77 160.108 1145.27 161.118 1147.43 161.424C1148.65 161.596 1149.39 162.415 1149.74 163.504C1150.09 164.581 1150.07 165.937 1149.79 167.27C1149.5 168.607 1148.94 169.947 1148.17 170.998C1147.41 172.045 1146.42 172.834 1145.28 173L1145.27 173.002L1145.26 173.002C1143.56 173.097 1142.05 173.142 1140.71 173.123L1140.8 173.153L1140.54 173.964C1142.05 175.805 1143.29 176.916 1144.65 177.475C1145.96 178.015 1147.41 178.053 1149.39 177.672L1149.42 177.627C1156.34 168.136 1160.3 162.175 1164.02 155.194L1164.47 155.441C1160.77 162.407 1156.82 168.357 1149.98 177.745L1149.98 177.759C1150.95 179.951 1151.9 181.337 1153.12 182.2C1154.33 183.052 1155.85 183.419 1158.02 183.495C1161.34 181.626 1163.89 179.897 1166.38 177.435C1168.88 174.955 1171.31 171.722 1174.37 166.833L1174.81 167.112C1171.74 172.016 1169.28 175.288 1166.74 177.808C1164.25 180.279 1161.68 182.019 1158.41 183.87C1159.23 185.712 1160.15 187.095 1161.23 188.019C1162.33 188.972 1163.61 189.446 1165.12 189.42C1166.65 189.394 1168.44 188.863 1170.55 187.778C1172.67 186.694 1175.1 185.065 1177.91 182.862L1178.23 183.275C1175.4 185.488 1172.94 187.139 1170.79 188.244C1168.63 189.348 1166.77 189.914 1165.13 189.942C1163.49 189.97 1162.09 189.452 1160.89 188.416C1159.73 187.411 1158.75 185.929 1157.91 184.013C1155.74 183.929 1154.14 183.551 1152.83 182.628C1151.53 181.711 1150.55 180.28 1149.6 178.163C1147.52 178.576 1145.92 178.562 1144.46 177.958C1142.98 177.349 1141.67 176.152 1140.13 174.285C1138.44 174.342 1137.12 174.265 1135.83 173.939C1134.55 173.615 1133.32 173.05 1131.83 172.15ZM1140.06 173.765C1138.42 173.818 1137.16 173.739 1135.95 173.433C1134.78 173.135 1133.63 172.619 1132.22 171.78L1132.92 171.074C1133.43 171.545 1134.04 171.923 1134.76 172.219C1136.14 172.783 1137.94 173.054 1140.27 173.114L1140.06 173.765ZM1143.53 178.947C1149.93 184.315 1154.38 188.611 1156.93 196.161L1157.42 195.992C1154.82 188.298 1150.27 183.924 1143.86 178.546L1143.53 178.947ZM1146.16 155.6C1145.2 157.364 1144.56 158.821 1144.33 160.71L1144.84 160.776C1145.06 158.982 1145.67 157.593 1146.61 155.851C1146.89 155.338 1147.2 154.793 1147.54 154.199C1148.34 152.779 1149.31 151.076 1150.4 148.842L1149.94 148.61C1148.85 150.829 1147.9 152.508 1147.1 153.924C1146.76 154.523 1146.44 155.075 1146.16 155.6Z" fill="black"/>
<path d="M1136.75 46.0371C1135.2 45.9453 1134.02 45.668 1133.22 45.2052C1132.42 44.7351 1131.92 44.0466 1131.71 43.1397C1131.49 42.1135 1131.7 41.1742 1132.36 40.3219C1133.03 39.4623 1134.01 38.8848 1135.3 38.5892C1136.19 38.3877 1137.02 38.3814 1137.78 38.5703C1138.56 38.7579 1139.2 39.113 1139.71 39.6356C1140.23 40.1569 1140.57 40.7785 1140.73 41.5004L1139.02 41.8893C1138.85 41.1017 1138.46 40.5406 1137.87 40.206C1137.27 39.8653 1136.52 39.7978 1135.62 40.0033C1134.78 40.1941 1134.17 40.5311 1133.78 41.0145C1133.4 41.4905 1133.28 42.0597 1133.43 42.722C1133.54 43.253 1133.87 43.6531 1134.39 43.9223C1134.92 44.1841 1135.75 44.3457 1136.89 44.4068C1138.03 44.4666 1138.94 44.613 1139.63 44.8459C1140.32 45.0715 1140.86 45.396 1141.26 45.8195C1141.66 46.2416 1141.94 46.7837 1142.09 47.446C1142.32 48.5021 1142.1 49.4421 1141.43 50.2659C1140.76 51.0837 1139.74 51.6478 1138.37 51.9581C1137.49 52.1596 1136.63 52.1776 1135.78 52.0121C1134.94 51.8407 1134.24 51.5043 1133.69 51.003C1133.14 50.5004 1132.78 49.8702 1132.62 49.1125L1134.32 48.7236C1134.5 49.5112 1134.93 50.0695 1135.6 50.3986C1136.28 50.7205 1137.1 50.7719 1138.06 50.5529C1138.96 50.3488 1139.6 50.0073 1140 49.5286C1140.4 49.0498 1140.52 48.4912 1140.38 47.8528C1140.24 47.2144 1139.91 46.7725 1139.39 46.5272C1138.87 46.2759 1137.99 46.1126 1136.75 46.0371Z" fill="white"/>
<path d="M1199.29 46.627L1193.76 45.1385L1192.55 49.713L1198.98 51.4422L1198.61 52.834L1190.5 50.652L1193.9 37.744L1201.92 39.9024L1201.56 41.3032L1195.22 39.5976L1194.12 43.7466L1199.66 45.2351L1199.29 46.627Z" fill="white"/>
<path d="M1164.91 41.0366L1168.36 34.3305H1170.33L1165.78 42.7062V47.6877H1164.04V42.7062L1159.48 34.3305H1161.48L1164.91 41.0366Z" fill="white"/>
<path d="M1184.84 49.4433L1183.11 49.2081L1177.87 38.113L1176.51 48.3149L1174.78 48.0797L1176.53 34.8409L1178.27 35.0761L1183.52 46.2191L1184.88 35.9718L1186.6 36.2045L1184.84 49.4433Z" fill="white"/>
<path d="M1154.71 42.2699L1149.04 43.0252L1149.65 47.7185L1156.24 46.8411L1156.43 48.2691L1148.1 49.3763L1146.38 36.1333L1154.61 35.0381L1154.8 36.4752L1148.3 37.3406L1148.85 41.5972L1154.53 40.842L1154.71 42.2699Z" fill="white"/>
<path d="M1121.36 252.959C1120.88 254.044 1120.21 254.786 1119.33 255.186C1118.46 255.581 1117.44 255.601 1116.3 255.246C1115.05 254.861 1114.19 254.101 1113.71 252.967C1113.24 251.834 1113.23 250.512 1113.69 249.002L1114 247.978C1114.3 246.989 1114.74 246.173 1115.31 245.53C1115.89 244.888 1116.56 244.467 1117.32 244.266C1118.09 244.06 1118.89 244.088 1119.73 244.349C1120.85 244.695 1121.65 245.29 1122.14 246.132C1122.62 246.97 1122.75 247.964 1122.52 249.114L1121.13 248.682C1121.26 247.797 1121.19 247.101 1120.9 246.596C1120.61 246.092 1120.11 245.728 1119.38 245.504C1118.5 245.229 1117.7 245.345 1116.99 245.851C1116.29 246.358 1115.75 247.224 1115.38 248.447L1115.07 249.478C1114.72 250.632 1114.68 251.625 1114.95 252.455C1115.22 253.285 1115.79 253.833 1116.65 254.099C1117.42 254.337 1118.06 254.345 1118.58 254.121C1119.1 253.893 1119.56 253.362 1119.96 252.527L1121.36 252.959Z" fill="white"/>
<path d="M1193.49 252.061L1190.06 252.959L1192.53 262.564L1191.13 262.931L1188.66 253.326L1185.25 254.223L1184.95 253.054L1193.19 250.891L1193.49 252.061Z" fill="white"/>
<path d="M1147.3 260.097L1146.79 264.425L1145.35 264.253L1146.64 253.198L1150.67 253.678C1151.87 253.821 1152.77 254.241 1153.37 254.939C1153.98 255.637 1154.22 256.495 1154.11 257.513C1153.98 258.586 1153.55 259.374 1152.82 259.877C1152.09 260.375 1151.11 260.551 1149.87 260.404L1147.3 260.097ZM1147.43 258.905L1150.02 259.213C1150.8 259.305 1151.41 259.193 1151.86 258.878C1152.31 258.557 1152.58 258.05 1152.66 257.356C1152.74 256.698 1152.59 256.148 1152.23 255.704C1151.87 255.26 1151.33 254.988 1150.61 254.888L1147.94 254.57L1147.43 258.905Z" fill="white"/>
<path d="M1139.04 257.923L1136.5 257.41L1135.63 261.825L1134.2 261.536L1136.36 250.621L1139.93 251.344C1141.15 251.59 1142.02 252.059 1142.57 252.75C1143.11 253.443 1143.28 254.324 1143.07 255.394C1142.93 256.073 1142.63 256.629 1142.17 257.059C1141.71 257.491 1141.13 257.766 1140.43 257.885L1142.05 263.031L1142.03 263.121L1140.51 262.812L1139.04 257.923ZM1136.73 256.233L1138.92 256.675C1139.63 256.818 1140.23 256.747 1140.71 256.461C1141.21 256.176 1141.52 255.724 1141.64 255.104C1141.77 254.43 1141.67 253.872 1141.34 253.431C1141.02 252.991 1140.48 252.693 1139.73 252.536L1137.55 252.095L1136.73 256.233Z" fill="white"/>
<path d="M1170.99 261.335H1168.41V265.838H1166.95V254.707H1170.59C1171.83 254.707 1172.79 254.993 1173.45 255.564C1174.12 256.134 1174.46 256.965 1174.46 258.056C1174.46 258.749 1174.27 259.353 1173.9 259.868C1173.53 260.382 1173.01 260.767 1172.35 261.022L1174.94 265.746V265.838H1173.38L1170.99 261.335ZM1168.41 260.135H1170.64C1171.36 260.135 1171.93 259.947 1172.35 259.569C1172.78 259.192 1173 258.688 1173 258.056C1173 257.368 1172.79 256.84 1172.38 256.473C1171.98 256.106 1171.4 255.92 1170.63 255.915H1168.41V260.135Z" fill="white"/>
<path d="M1132.67 255.111C1132.44 256.176 1132.06 257.067 1131.53 257.783C1131 258.495 1130.37 258.986 1129.62 259.258C1128.88 259.53 1128.08 259.569 1127.21 259.375C1126.37 259.184 1125.66 258.807 1125.1 258.242C1124.54 257.672 1124.16 256.958 1123.97 256.1C1123.78 255.238 1123.79 254.294 1124.01 253.267L1124.18 252.483C1124.41 251.438 1124.79 250.556 1125.33 249.835C1125.86 249.115 1126.5 248.617 1127.25 248.341C1128.01 248.061 1128.81 248.017 1129.65 248.207C1130.51 248.4 1131.22 248.782 1131.79 249.352C1132.35 249.918 1132.73 250.641 1132.9 251.522C1133.08 252.397 1133.06 253.365 1132.82 254.425L1132.67 255.111ZM1131.42 254.093C1131.7 252.805 1131.66 251.759 1131.3 250.958C1130.94 250.151 1130.3 249.645 1129.38 249.438C1128.49 249.237 1127.7 249.424 1127.04 250C1126.37 250.571 1125.9 251.467 1125.62 252.688L1125.44 253.486C1125.17 254.735 1125.21 255.776 1125.57 256.608C1125.93 257.437 1126.57 257.954 1127.48 258.158C1128.4 258.364 1129.18 258.187 1129.83 257.628C1130.48 257.064 1130.95 256.155 1131.24 254.899L1131.42 254.093Z" fill="white"/>
<path d="M1210.37 249.805C1210.71 250.839 1210.84 251.801 1210.75 252.691C1210.67 253.576 1210.37 254.328 1209.88 254.949C1209.38 255.569 1208.71 256.022 1207.87 256.309C1207.05 256.588 1206.26 256.633 1205.48 256.444C1204.71 256.249 1204.02 255.836 1203.42 255.202C1202.82 254.563 1202.35 253.747 1202.01 252.755L1201.75 251.994C1201.42 250.98 1201.29 250.025 1201.38 249.128C1201.47 248.232 1201.77 247.47 1202.26 246.844C1202.77 246.21 1203.43 245.754 1204.25 245.474C1205.09 245.19 1205.89 245.145 1206.66 245.339C1207.44 245.527 1208.13 245.951 1208.73 246.612C1209.33 247.267 1209.8 248.11 1210.15 249.139L1210.37 249.805ZM1208.77 249.59C1208.36 248.339 1207.79 247.465 1207.07 246.967C1206.35 246.465 1205.54 246.366 1204.65 246.67C1203.78 246.966 1203.2 247.535 1202.93 248.377C1202.65 249.212 1202.7 250.227 1203.09 251.42L1203.34 252.195C1203.75 253.408 1204.32 254.276 1205.05 254.801C1205.79 255.319 1206.6 255.428 1207.48 255.128C1208.37 254.825 1208.95 254.265 1209.22 253.447C1209.49 252.624 1209.42 251.599 1209.03 250.372L1208.77 249.59Z" fill="white"/>
<path d="M1164.58 260.632C1164.58 261.723 1164.4 262.676 1164.04 263.491C1163.68 264.302 1163.16 264.921 1162.5 265.349C1161.83 265.777 1161.05 265.991 1160.17 265.991C1159.3 265.991 1158.53 265.777 1157.86 265.349C1157.19 264.916 1156.67 264.302 1156.3 263.507C1155.93 262.706 1155.74 261.781 1155.73 260.731V259.929C1155.73 258.858 1155.91 257.913 1156.28 257.092C1156.65 256.272 1157.17 255.645 1157.84 255.212C1158.51 254.774 1159.29 254.554 1160.15 254.554C1161.03 254.554 1161.81 254.771 1162.48 255.204C1163.16 255.632 1163.68 256.257 1164.04 257.077C1164.4 257.893 1164.58 258.843 1164.58 259.929V260.632ZM1163.14 259.913C1163.14 258.593 1162.88 257.582 1162.35 256.878C1161.83 256.17 1161.1 255.816 1160.15 255.816C1159.23 255.816 1158.51 256.17 1157.98 256.878C1157.46 257.582 1157.19 258.56 1157.17 259.814V260.632C1157.17 261.911 1157.44 262.918 1157.97 263.652C1158.5 264.381 1159.23 264.745 1160.17 264.745C1161.11 264.745 1161.83 264.401 1162.35 263.713C1162.86 263.02 1163.12 262.029 1163.14 260.739V259.913Z" fill="white"/>
<path d="M1183.56 261.574L1179.01 262.324L1178.45 265.36L1176.97 265.603L1179.35 253.934L1180.61 253.727L1186.53 264.029L1185.06 264.271L1183.56 261.574ZM1179.25 261.061L1182.95 260.452L1180.27 255.619L1179.25 261.061Z" fill="white"/>
<path d="M1222.89 249.358L1221.6 250.048L1212.73 245.091L1216.7 252.671L1215.41 253.362L1210.26 243.526L1211.55 242.835L1220.45 247.818L1216.46 240.205L1217.73 239.521L1222.89 249.358Z" fill="white"/>
<path d="M1201.32 259.352L1199.92 259.768L1196.81 249.091L1198.2 248.676L1201.32 259.352Z" fill="white"/>
</g>
<g filter="url(#filter13_d)">
<path d="M674.39 564.424C680.23 564.424 684.714 565.461 687.842 567.533C690.969 569.568 692.533 572.921 692.533 577.594C692.533 582.304 690.95 585.714 687.785 587.824C684.62 589.896 680.098 590.932 674.22 590.932H671.451V604.045H662.634V565.442C664.555 565.065 666.59 564.801 668.738 564.65C670.886 564.5 672.77 564.424 674.39 564.424ZM674.955 571.942C674.315 571.942 673.674 571.96 673.033 571.998C672.431 572.036 671.903 572.073 671.451 572.111V583.415H674.22C677.272 583.415 679.571 583.001 681.116 582.172C682.661 581.343 683.433 579.798 683.433 577.537C683.433 576.444 683.226 575.54 682.811 574.824C682.435 574.108 681.869 573.543 681.116 573.128C680.4 572.676 679.514 572.375 678.459 572.224C677.404 572.036 676.236 571.942 674.955 571.942ZM710.481 564.424C716.359 564.424 720.862 565.479 723.99 567.589C727.117 569.662 728.681 572.902 728.681 577.311C728.681 580.062 728.04 582.304 726.759 584.037C725.516 585.733 723.707 587.07 721.333 588.05C722.125 589.03 722.953 590.16 723.82 591.441C724.687 592.685 725.535 594.003 726.364 595.398C727.23 596.754 728.059 598.186 728.85 599.693C729.642 601.163 730.376 602.613 731.055 604.045H721.164C720.448 602.764 719.713 601.464 718.959 600.145C718.243 598.826 717.49 597.545 716.699 596.302C715.945 595.058 715.191 593.89 714.438 592.798C713.684 591.667 712.931 590.65 712.177 589.745H707.825V604.045H699.008V565.442C700.929 565.065 702.908 564.801 704.942 564.65C707.015 564.5 708.861 564.424 710.481 564.424ZM710.99 571.942C710.349 571.942 709.765 571.96 709.238 571.998C708.748 572.036 708.277 572.073 707.825 572.111V582.737H710.312C713.628 582.737 716.001 582.322 717.433 581.494C718.865 580.665 719.581 579.252 719.581 577.254C719.581 575.333 718.846 573.976 717.377 573.185C715.945 572.356 713.816 571.942 710.99 571.942ZM743.117 584.433C743.117 586.354 743.343 588.088 743.795 589.632C744.285 591.177 744.963 592.515 745.83 593.645C746.734 594.738 747.827 595.586 749.108 596.189C750.389 596.792 751.859 597.093 753.517 597.093C755.137 597.093 756.588 596.792 757.869 596.189C759.188 595.586 760.28 594.738 761.147 593.645C762.051 592.515 762.73 591.177 763.182 589.632C763.672 588.088 763.917 586.354 763.917 584.433C763.917 582.511 763.672 580.778 763.182 579.233C762.73 577.65 762.051 576.312 761.147 575.22C760.28 574.089 759.188 573.223 757.869 572.62C756.588 572.017 755.137 571.715 753.517 571.715C751.859 571.715 750.389 572.036 749.108 572.676C747.827 573.279 746.734 574.146 745.83 575.276C744.963 576.369 744.285 577.707 743.795 579.289C743.343 580.834 743.117 582.549 743.117 584.433ZM773.016 584.433C773.016 587.786 772.508 590.744 771.49 593.306C770.511 595.831 769.154 597.96 767.421 599.693C765.687 601.389 763.615 602.67 761.204 603.536C758.83 604.403 756.267 604.836 753.517 604.836C750.841 604.836 748.317 604.403 745.943 603.536C743.569 602.67 741.497 601.389 739.726 599.693C737.955 597.96 736.561 595.831 735.543 593.306C734.526 590.744 734.017 587.786 734.017 584.433C734.017 581.079 734.545 578.14 735.6 575.615C736.655 573.053 738.068 570.905 739.839 569.172C741.647 567.439 743.72 566.139 746.056 565.272C748.43 564.405 750.917 563.972 753.517 563.972C756.192 563.972 758.717 564.405 761.09 565.272C763.464 566.139 765.537 567.439 767.308 569.172C769.079 570.905 770.473 573.053 771.49 575.615C772.508 578.14 773.016 581.079 773.016 584.433ZM800.709 604.045C799.616 601.86 798.41 599.655 797.091 597.432C795.81 595.171 794.322 592.873 792.626 590.537C792.099 591.215 791.42 592.157 790.592 593.363C789.8 594.569 788.99 595.85 788.161 597.206C787.37 598.563 786.616 599.863 785.9 601.106C785.184 602.35 784.657 603.329 784.318 604.045H774.257C775.915 600.993 777.837 597.79 780.022 594.437C782.245 591.083 784.713 587.522 787.426 583.754L774.822 564.876H785.505L793.135 577.085L800.596 564.876H810.656L798.222 583.867C801.387 587.975 804.043 591.78 806.191 595.284C808.339 598.751 810.035 601.671 811.278 604.045H800.709ZM816.354 564.876H825.171V604.045H816.354V564.876ZM844.637 564.876C845.315 566.12 846.088 567.665 846.954 569.511C847.859 571.32 848.782 573.298 849.724 575.446C850.704 577.556 851.664 579.723 852.606 581.946C853.548 584.169 854.434 586.26 855.263 588.219C856.092 586.26 856.977 584.169 857.919 581.946C858.861 579.723 859.803 577.556 860.745 575.446C861.725 573.298 862.648 571.32 863.515 569.511C864.419 567.665 865.21 566.12 865.889 564.876H873.915C874.291 567.476 874.631 570.397 874.932 573.637C875.271 576.84 875.554 580.194 875.78 583.698C876.044 587.164 876.27 590.65 876.458 594.154C876.684 597.658 876.872 600.955 877.023 604.045H868.432C868.319 600.239 868.168 596.095 867.98 591.611C867.792 587.127 867.509 582.605 867.132 578.046C866.454 579.628 865.7 581.38 864.871 583.302C864.042 585.224 863.213 587.146 862.384 589.067C861.593 590.989 860.821 592.835 860.067 594.606C859.313 596.34 858.673 597.828 858.145 599.071H851.985C851.457 597.828 850.817 596.34 850.063 594.606C849.309 592.835 848.518 590.989 847.689 589.067C846.898 587.146 846.088 585.224 845.259 583.302C844.43 581.38 843.676 579.628 842.998 578.046C842.621 582.605 842.338 587.127 842.15 591.611C841.962 596.095 841.811 600.239 841.698 604.045H833.107C833.258 600.955 833.427 597.658 833.616 594.154C833.842 590.65 834.068 587.164 834.294 583.698C834.558 580.194 834.84 576.84 835.142 573.637C835.481 570.397 835.839 567.476 836.215 564.876H844.637ZM911.188 604.045C910.773 602.689 910.302 601.295 909.775 599.863C909.285 598.431 908.795 596.999 908.305 595.567H893.045C892.555 596.999 892.046 598.431 891.518 599.863C891.029 601.295 890.576 602.689 890.162 604.045H881.006C882.475 599.825 883.869 595.925 885.188 592.345C886.507 588.766 887.788 585.393 889.032 582.228C890.313 579.063 891.556 576.068 892.762 573.242C894.005 570.378 895.287 567.589 896.605 564.876H905.027C906.308 567.589 907.57 570.378 908.814 573.242C910.057 576.068 911.301 579.063 912.544 582.228C913.825 585.393 915.125 588.766 916.444 592.345C917.763 595.925 919.157 599.825 920.627 604.045H911.188ZM900.618 573.75C900.43 574.315 900.147 575.088 899.77 576.068C899.394 577.047 898.96 578.178 898.47 579.459C897.981 580.74 897.434 582.153 896.831 583.698C896.266 585.243 895.682 586.863 895.079 588.559H906.214C905.611 586.863 905.027 585.243 904.462 583.698C903.896 582.153 903.35 580.74 902.823 579.459C902.333 578.178 901.899 577.047 901.523 576.068C901.146 575.088 900.844 574.315 900.618 573.75ZM936.096 564.876C936.775 566.12 937.547 567.665 938.414 569.511C939.318 571.32 940.241 573.298 941.183 575.446C942.163 577.556 943.124 579.723 944.066 581.946C945.008 584.169 945.893 586.26 946.722 588.219C947.551 586.26 948.437 584.169 949.379 581.946C950.321 579.723 951.263 577.556 952.205 575.446C953.184 573.298 954.108 571.32 954.974 569.511C955.878 567.665 956.67 566.12 957.348 564.876H965.374C965.751 567.476 966.09 570.397 966.391 573.637C966.73 576.84 967.013 580.194 967.239 583.698C967.503 587.164 967.729 590.65 967.917 594.154C968.143 597.658 968.332 600.955 968.483 604.045H959.891C959.778 600.239 959.628 596.095 959.439 591.611C959.251 587.127 958.968 582.605 958.591 578.046C957.913 579.628 957.16 581.38 956.331 583.302C955.502 585.224 954.673 587.146 953.844 589.067C953.052 590.989 952.28 592.835 951.526 594.606C950.773 596.34 950.132 597.828 949.605 599.071H943.444C942.916 597.828 942.276 596.34 941.522 594.606C940.769 592.835 939.977 590.989 939.148 589.067C938.357 587.146 937.547 585.224 936.718 583.302C935.889 581.38 935.135 579.628 934.457 578.046C934.08 582.605 933.798 587.127 933.609 591.611C933.421 596.095 933.27 600.239 933.157 604.045H924.566C924.717 600.955 924.886 597.658 925.075 594.154C925.301 590.65 925.527 587.164 925.753 583.698C926.017 580.194 926.299 576.84 926.601 573.637C926.94 570.397 927.298 567.476 927.675 564.876H936.096ZM976.421 604.045V564.876H1002.87V572.281H985.239V579.967H1000.89V587.202H985.239V596.641H1004.17V604.045H976.421ZM1036.98 604.045C1034.46 599.561 1031.72 595.134 1028.78 590.763C1025.85 586.392 1022.72 582.266 1019.4 578.385V604.045H1010.7V564.876H1017.88C1019.12 566.12 1020.49 567.646 1022 569.455C1023.51 571.263 1025.04 573.204 1026.58 575.276C1028.16 577.311 1029.73 579.44 1031.27 581.663C1032.82 583.849 1034.27 585.959 1035.62 587.993V564.876H1044.38V604.045H1036.98ZM1082.47 564.876V572.394H1070.66V604.045H1061.84V572.394H1050.03V564.876H1082.47ZM1088.14 604.045V564.876H1114.59V572.281H1096.95V579.967H1112.61V587.202H1096.95V596.641H1115.89V604.045H1088.14Z" fill="#F5F5F5"/>
</g>
<path d="M219.8 379.133C219.8 379.641 219.689 380.129 219.466 380.597C219.243 381.065 218.953 381.52 218.596 381.961C218.24 382.389 217.838 382.803 217.392 383.204C216.947 383.605 216.508 383.986 216.077 384.347C215.854 384.535 215.609 384.748 215.341 384.989C215.089 385.216 214.844 385.45 214.606 385.691C214.368 385.932 214.152 386.159 213.959 386.373C213.781 386.573 213.669 386.74 213.625 386.874H220.268V389.381H209.969C209.939 389.234 209.924 389.047 209.924 388.819C209.924 388.592 209.924 388.432 209.924 388.338C209.924 387.696 210.036 387.108 210.259 386.573C210.496 386.039 210.801 385.544 211.173 385.089C211.544 384.621 211.96 384.187 212.421 383.786C212.897 383.385 213.365 382.984 213.826 382.583C214.182 382.275 214.517 381.988 214.829 381.72C215.141 381.44 215.416 381.172 215.654 380.918C215.891 380.651 216.077 380.39 216.211 380.136C216.345 379.869 216.412 379.601 216.412 379.334C216.412 378.746 216.226 378.331 215.854 378.09C215.483 377.85 215.022 377.73 214.472 377.73C214.071 377.73 213.692 377.79 213.335 377.91C212.993 378.017 212.674 378.151 212.376 378.311C212.094 378.458 211.849 378.612 211.641 378.772C211.433 378.919 211.277 379.04 211.173 379.133L209.523 377.048C210.177 376.5 210.935 376.052 211.797 375.704C212.674 375.343 213.61 375.163 214.606 375.163C215.512 375.163 216.293 375.256 216.947 375.443C217.6 375.631 218.136 375.898 218.552 376.246C218.983 376.58 219.295 376.994 219.488 377.489C219.696 377.97 219.8 378.518 219.8 379.133Z" fill="#D9D9D9"/>
<path d="M233.318 382.402C233.318 384.742 232.82 386.54 231.824 387.797C230.843 389.04 229.483 389.662 227.744 389.662C226.006 389.662 224.638 389.04 223.643 387.797C222.662 386.54 222.171 384.742 222.171 382.402C222.171 381.239 222.297 380.21 222.55 379.314C222.818 378.418 223.197 377.663 223.687 377.048C224.178 376.433 224.765 375.965 225.448 375.644C226.132 375.323 226.897 375.163 227.744 375.163C229.483 375.163 230.843 375.791 231.824 377.048C232.82 378.291 233.318 380.076 233.318 382.402ZM229.929 382.402C229.929 381.707 229.892 381.079 229.818 380.517C229.743 379.942 229.625 379.447 229.461 379.033C229.298 378.619 229.075 378.298 228.792 378.07C228.51 377.843 228.161 377.73 227.744 377.73C227.328 377.73 226.979 377.843 226.697 378.07C226.429 378.298 226.206 378.619 226.028 379.033C225.864 379.447 225.745 379.942 225.671 380.517C225.597 381.079 225.56 381.707 225.56 382.402C225.56 383.097 225.597 383.732 225.671 384.307C225.745 384.882 225.864 385.377 226.028 385.791C226.206 386.206 226.429 386.527 226.697 386.754C226.979 386.981 227.328 387.095 227.744 387.095C228.161 387.095 228.51 386.981 228.792 386.754C229.075 386.527 229.298 386.206 229.461 385.791C229.625 385.377 229.743 384.882 229.818 384.307C229.892 383.732 229.929 383.097 229.929 382.402Z" fill="#D9D9D9"/>
<path d="M245.141 379.133C245.141 379.641 245.03 380.129 244.807 380.597C244.584 381.065 244.294 381.52 243.937 381.961C243.581 382.389 243.179 382.803 242.733 383.204C242.288 383.605 241.849 383.986 241.418 384.347C241.195 384.535 240.95 384.748 240.682 384.989C240.43 385.216 240.185 385.45 239.947 385.691C239.709 385.932 239.494 386.159 239.3 386.373C239.122 386.573 239.01 386.74 238.966 386.874H245.609V389.381H235.31C235.28 389.234 235.265 389.047 235.265 388.819C235.265 388.592 235.265 388.432 235.265 388.338C235.265 387.696 235.377 387.108 235.6 386.573C235.837 386.039 236.142 385.544 236.514 385.089C236.885 384.621 237.301 384.187 237.762 383.786C238.238 383.385 238.706 382.984 239.167 382.583C239.523 382.275 239.858 381.988 240.17 381.72C240.482 381.44 240.757 381.172 240.995 380.918C241.232 380.651 241.418 380.39 241.552 380.136C241.686 379.869 241.753 379.601 241.753 379.334C241.753 378.746 241.567 378.331 241.195 378.09C240.824 377.85 240.363 377.73 239.813 377.73C239.412 377.73 239.033 377.79 238.676 377.91C238.334 378.017 238.015 378.151 237.717 378.311C237.435 378.458 237.19 378.612 236.982 378.772C236.774 378.919 236.618 379.04 236.514 379.133L234.864 377.048C235.518 376.5 236.276 376.052 237.138 375.704C238.015 375.343 238.951 375.163 239.947 375.163C240.853 375.163 241.634 375.256 242.288 375.443C242.942 375.631 243.477 375.898 243.893 376.246C244.324 376.58 244.636 376.994 244.829 377.489C245.037 377.97 245.141 378.518 245.141 379.133Z" fill="#D9D9D9"/>
<path d="M258.659 382.402C258.659 384.742 258.161 386.54 257.165 387.797C256.184 389.04 254.824 389.662 253.085 389.662C251.347 389.662 249.979 389.04 248.984 387.797C248.003 386.54 247.512 384.742 247.512 382.402C247.512 381.239 247.639 380.21 247.891 379.314C248.159 378.418 248.538 377.663 249.028 377.048C249.519 376.433 250.106 375.965 250.789 375.644C251.473 375.323 252.238 375.163 253.085 375.163C254.824 375.163 256.184 375.791 257.165 377.048C258.161 378.291 258.659 380.076 258.659 382.402ZM255.27 382.402C255.27 381.707 255.233 381.079 255.159 380.517C255.084 379.942 254.966 379.447 254.802 379.033C254.639 378.619 254.416 378.298 254.133 378.07C253.851 377.843 253.502 377.73 253.085 377.73C252.669 377.73 252.32 377.843 252.038 378.07C251.77 378.298 251.547 378.619 251.369 379.033C251.205 379.447 251.087 379.942 251.012 380.517C250.938 381.079 250.901 381.707 250.901 382.402C250.901 383.097 250.938 383.732 251.012 384.307C251.087 384.882 251.205 385.377 251.369 385.791C251.547 386.206 251.77 386.527 252.038 386.754C252.32 386.981 252.669 387.095 253.085 387.095C253.502 387.095 253.851 386.981 254.133 386.754C254.416 386.527 254.639 386.206 254.802 385.791C254.966 385.377 255.084 384.882 255.159 384.307C255.233 383.732 255.27 383.097 255.27 382.402Z" fill="#D9D9D9"/>
</g>
<defs>
<filter id="filter0_d" x="84.3176" y="108" width="28.7856" height="30.3931" filterUnits="userSpaceOnUse" color-interpolation-filters="sRGB">
<feFlood flood-opacity="0" result="BackgroundImageFix"/>
<feColorMatrix in="SourceAlpha" type="matrix" values="0 0 0 0 0 0 0 0 0 0 0 0 0 0 0 0 0 0 127 0"/>
<feOffset dy="4"/>
<feGaussianBlur stdDeviation="2"/>
<feColorMatrix type="matrix" values="0 0 0 0 0 0 0 0 0 0 0 0 0 0 0 0 0 0 0.3 0"/>
<feBlend mode="normal" in2="BackgroundImageFix" result="effect1_dropShadow"/>
<feBlend mode="normal" in="SourceGraphic" in2="effect1_dropShadow" result="shape"/>
</filter>
<filter id="filter1_d" x="729.667" y="54.0924" width="36.469" height="36.8295" filterUnits="userSpaceOnUse" color-interpolation-filters="sRGB">
<feFlood flood-opacity="0" result="BackgroundImageFix"/>
<feColorMatrix in="SourceAlpha" type="matrix" values="0 0 0 0 0 0 0 0 0 0 0 0 0 0 0 0 0 0 127 0"/>
<feOffset dy="4"/>
<feGaussianBlur stdDeviation="2"/>
<feColorMatrix type="matrix" values="0 0 0 0 0 0 0 0 0 0 0 0 0 0 0 0 0 0 0.3 0"/>
<feBlend mode="normal" in2="BackgroundImageFix" result="effect1_dropShadow"/>
<feBlend mode="normal" in="SourceGraphic" in2="effect1_dropShadow" result="shape"/>
</filter>
<filter id="filter2_d" x="951.333" y="155.35" width="30.584" height="32.7688" filterUnits="userSpaceOnUse" color-interpolation-filters="sRGB">
<feFlood flood-opacity="0" result="BackgroundImageFix"/>
<feColorMatrix in="SourceAlpha" type="matrix" values="0 0 0 0 0 0 0 0 0 0 0 0 0 0 0 0 0 0 127 0"/>
<feOffset dy="4"/>
<feGaussianBlur stdDeviation="2"/>
<feColorMatrix type="matrix" values="0 0 0 0 0 0 0 0 0 0 0 0 0 0 0 0 0 0 0.3 0"/>
<feBlend mode="normal" in2="BackgroundImageFix" result="effect1_dropShadow"/>
<feBlend mode="normal" in="SourceGraphic" in2="effect1_dropShadow" result="shape"/>
</filter>
<filter id="filter3_d" x="264.085" y="273.667" width="24.78" height="25.1818" filterUnits="userSpaceOnUse" color-interpolation-filters="sRGB">
<feFlood flood-opacity="0" result="BackgroundImageFix"/>
<feColorMatrix in="SourceAlpha" type="matrix" values="0 0 0 0 0 0 0 0 0 0 0 0 0 0 0 0 0 0 127 0"/>
<feOffset dy="4"/>
<feGaussianBlur stdDeviation="2"/>
<feColorMatrix type="matrix" values="0 0 0 0 0 0 0 0 0 0 0 0 0 0 0 0 0 0 0.3 0"/>
<feBlend mode="normal" in2="BackgroundImageFix" result="effect1_dropShadow"/>
<feBlend mode="normal" in="SourceGraphic" in2="effect1_dropShadow" result="shape"/>
</filter>
<filter id="filter4_d" x="513.092" y="377.667" width="28.734" height="27.4475" filterUnits="userSpaceOnUse" color-interpolation-filters="sRGB">
<feFlood flood-opacity="0" result="BackgroundImageFix"/>
<feColorMatrix in="SourceAlpha" type="matrix" values="0 0 0 0 0 0 0 0 0 0 0 0 0 0 0 0 0 0 127 0"/>
<feOffset dy="4"/>
<feGaussianBlur stdDeviation="2"/>
<feColorMatrix type="matrix" values="0 0 0 0 0 0 0 0 0 0 0 0 0 0 0 0 0 0 0.3 0"/>
<feBlend mode="normal" in2="BackgroundImageFix" result="effect1_dropShadow"/>
<feBlend mode="normal" in="SourceGraphic" in2="effect1_dropShadow" result="shape"/>
</filter>
<filter id="filter5_d" x="1290.74" y="197.511" width="40.0984" height="40.1559" filterUnits="userSpaceOnUse" color-interpolation-filters="sRGB">
<feFlood flood-opacity="0" result="BackgroundImageFix"/>
<feColorMatrix in="SourceAlpha" type="matrix" values="0 0 0 0 0 0 0 0 0 0 0 0 0 0 0 0 0 0 127 0"/>
<feOffset dy="4"/>
<feGaussianBlur stdDeviation="2"/>
<feColorMatrix type="matrix" values="0 0 0 0 0 0 0 0 0 0 0 0 0 0 0 0 0 0 0.3 0"/>
<feBlend mode="normal" in2="BackgroundImageFix" result="effect1_dropShadow"/>
<feBlend mode="normal" in="SourceGraphic" in2="effect1_dropShadow" result="shape"/>
</filter>
<filter id="filter6_d" x="365.941" y="445.233" width="22.7268" height="24.0999" filterUnits="userSpaceOnUse" color-interpolation-filters="sRGB">
<feFlood flood-opacity="0" result="BackgroundImageFix"/>
<feColorMatrix in="SourceAlpha" type="matrix" values="0 0 0 0 0 0 0 0 0 0 0 0 0 0 0 0 0 0 127 0"/>
<feOffset dy="4"/>
<feGaussianBlur stdDeviation="2"/>
<feColorMatrix type="matrix" values="0 0 0 0 0 0 0 0 0 0 0 0 0 0 0 0 0 0 0.3 0"/>
<feBlend mode="normal" in2="BackgroundImageFix" result="effect1_dropShadow"/>
<feBlend mode="normal" in="SourceGraphic" in2="effect1_dropShadow" result="shape"/>
</filter>
<filter id="filter7_d" x="915.667" y="444.556" width="24.0211" height="25.571" filterUnits="userSpaceOnUse" color-interpolation-filters="sRGB">
<feFlood flood-opacity="0" result="BackgroundImageFix"/>
<feColorMatrix in="SourceAlpha" type="matrix" values="0 0 0 0 0 0 0 0 0 0 0 0 0 0 0 0 0 0 127 0"/>
<feOffset dy="4"/>
<feGaussianBlur stdDeviation="2"/>
<feColorMatrix type="matrix" values="0 0 0 0 0 0 0 0 0 0 0 0 0 0 0 0 0 0 0.3 0"/>
<feBlend mode="normal" in2="BackgroundImageFix" result="effect1_dropShadow"/>
<feBlend mode="normal" in="SourceGraphic" in2="effect1_dropShadow" result="shape"/>
</filter>
<filter id="filter8_d" x="1275.33" y="453.225" width="31.9974" height="31.3474" filterUnits="userSpaceOnUse" color-interpolation-filters="sRGB">
<feFlood flood-opacity="0" result="BackgroundImageFix"/>
<feColorMatrix in="SourceAlpha" type="matrix" values="0 0 0 0 0 0 0 0 0 0 0 0 0 0 0 0 0 0 127 0"/>
<feOffset dy="4"/>
<feGaussianBlur stdDeviation="2"/>
<feColorMatrix type="matrix" values="0 0 0 0 0 0 0 0 0 0 0 0 0 0 0 0 0 0 0.3 0"/>
<feBlend mode="normal" in2="BackgroundImageFix" result="effect1_dropShadow"/>
<feBlend mode="normal" in="SourceGraphic" in2="effect1_dropShadow" result="shape"/>
</filter>
<filter id="filter9_b" x="746.179" y="338.562" width="58.3263" height="44.823" filterUnits="userSpaceOnUse" color-interpolation-filters="sRGB">
<feFlood flood-opacity="0" result="BackgroundImageFix"/>
<feGaussianBlur in="BackgroundImage" stdDeviation="2"/>
<feComposite in2="SourceAlpha" operator="in" result="effect1_backgroundBlur"/>
<feBlend mode="normal" in="SourceGraphic" in2="effect1_backgroundBlur" result="shape"/>
</filter>
<filter id="filter10_b" x="819.284" y="351.135" width="58.3263" height="44.823" filterUnits="userSpaceOnUse" color-interpolation-filters="sRGB">
<feFlood flood-opacity="0" result="BackgroundImageFix"/>
<feGaussianBlur in="BackgroundImage" stdDeviation="2"/>
<feComposite in2="SourceAlpha" operator="in" result="effect1_backgroundBlur"/>
<feBlend mode="normal" in="SourceGraphic" in2="effect1_backgroundBlur" result="shape"/>
</filter>
<filter id="filter11_b" x="309.516" y="169.252" width="68.0713" height="48.7802" filterUnits="userSpaceOnUse" color-interpolation-filters="sRGB">
<feFlood flood-opacity="0" result="BackgroundImageFix"/>
<feGaussianBlur in="BackgroundImage" stdDeviation="2"/>
<feComposite in2="SourceAlpha" operator="in" result="effect1_backgroundBlur"/>
<feBlend mode="normal" in="SourceGraphic" in2="effect1_backgroundBlur" result="shape"/>
</filter>
<filter id="filter12_b" x="403.173" y="162.073" width="68.0713" height="48.7802" filterUnits="userSpaceOnUse" color-interpolation-filters="sRGB">
<feFlood flood-opacity="0" result="BackgroundImageFix"/>
<feGaussianBlur in="BackgroundImage" stdDeviation="2"/>
<feComposite in2="SourceAlpha" operator="in" result="effect1_backgroundBlur"/>
<feBlend mode="normal" in="SourceGraphic" in2="effect1_backgroundBlur" result="shape"/>
</filter>
<filter id="filter13_d" x="662.634" y="563.972" width="461.256" height="49.8643" filterUnits="userSpaceOnUse" color-interpolation-filters="sRGB">
<feFlood flood-opacity="0" result="BackgroundImageFix"/>
<feColorMatrix in="SourceAlpha" type="matrix" values="0 0 0 0 0 0 0 0 0 0 0 0 0 0 0 0 0 0 127 0"/>
<feOffset dx="4" dy="5"/>
<feGaussianBlur stdDeviation="2"/>
<feColorMatrix type="matrix" values="0 0 0 0 1 0 0 0 0 1 0 0 0 0 1 0 0 0 0.4 0"/>
<feBlend mode="normal" in2="BackgroundImageFix" result="effect1_dropShadow"/>
<feBlend mode="normal" in="SourceGraphic" in2="effect1_dropShadow" result="shape"/>
</filter>
<clipPath id="clip0">
<rect width="1400" height="666" fill="white"/>
</clipPath>
</defs>
</svg>
