<svg width="376" height="812" viewBox="0 0 376 812" fill="none" xmlns="http://www.w3.org/2000/svg">
<g clip-path="url(#clip0)">
<rect width="375" height="812" transform="translate(0.262939)" fill="#3C576A"/>
<g opacity="0.78">
<path d="M171.362 146.857C171.362 180.426 144.15 207.638 110.581 207.638C77.0134 207.638 49.8011 180.426 49.8011 146.857C49.8011 113.289 77.0134 86.0771 110.581 86.0771C144.15 86.0771 171.362 113.289 171.362 146.857Z" fill="#4E4949"/>
<path fill-rule="evenodd" clip-rule="evenodd" d="M110.581 205.079C142.778 205.079 168.831 178.986 168.831 146.857C168.831 114.729 142.778 88.6363 110.581 88.6363C78.3851 88.6363 52.3324 114.729 52.3324 146.857C52.3324 178.986 78.3851 205.079 110.581 205.079ZM110.581 207.638C144.15 207.638 171.362 180.426 171.362 146.857C171.362 113.289 144.15 86.0771 110.581 86.0771C77.0134 86.0771 49.8011 113.289 49.8011 146.857C49.8011 180.426 77.0134 207.638 110.581 207.638Z" fill="black"/>
<path d="M159.206 146.858C159.206 173.712 137.436 195.482 110.582 195.482C83.7271 195.482 61.9573 173.712 61.9573 146.858C61.9573 120.003 83.7271 98.2333 110.582 98.2333C137.436 98.2333 159.206 120.003 159.206 146.858Z" fill="#525252"/>
<path fill-rule="evenodd" clip-rule="evenodd" d="M110.582 193.946C136.613 193.946 157.687 172.848 157.687 146.858C157.687 120.867 136.613 99.7688 110.582 99.7688C84.5501 99.7688 63.476 120.867 63.476 146.858C63.476 172.848 84.5501 193.946 110.582 193.946ZM110.582 195.482C137.436 195.482 159.206 173.712 159.206 146.858C159.206 120.003 137.436 98.2333 110.582 98.2333C83.7271 98.2333 61.9573 120.003 61.9573 146.858C61.9573 173.712 83.7271 195.482 110.582 195.482Z" fill="black"/>
<path d="M132.8 125.959C136.433 119.64 137.608 116.755 141.691 111.262C136.657 107.195 134.148 105.02 127.188 102.755C123.766 108.398 120.654 111.138 116.778 116.724C111.706 117.385 109.071 118.869 104.939 124.549C103.397 127.626 103.362 129.14 104.927 131.409C100.04 134.646 99.9344 137.902 104.995 141.037C106.269 144.561 107.656 145.629 111.169 146.124C114.521 148.747 115.89 148.903 118.678 147.5C122.985 150.587 124.931 149.054 127.856 142.523C130.749 134.639 132.742 129.662 131.947 127.301C132.524 126.795 132.658 126.498 132.8 125.959Z" fill="#0116D1"/>
<path fill-rule="evenodd" clip-rule="evenodd" d="M127.132 102.603L127.227 102.634C133.923 104.813 136.519 106.914 141.163 110.671C141.361 110.832 141.564 110.995 141.77 111.162L141.866 111.24L141.793 111.339C138.852 115.295 137.425 117.891 135.492 121.407C134.748 122.761 133.928 124.252 132.918 126.009C132.848 126.274 132.775 126.493 132.645 126.709C132.522 126.913 132.351 127.109 132.094 127.341C132.277 127.945 132.292 128.694 132.176 129.583C132.054 130.515 131.787 131.613 131.406 132.878C130.776 134.971 129.829 137.537 128.703 140.591C128.468 141.228 128.225 141.887 127.975 142.567L127.973 142.572L127.972 142.576C127.239 144.21 126.566 145.538 125.9 146.56C125.234 147.582 124.569 148.308 123.849 148.729C122.404 149.574 120.798 149.162 118.666 147.648C117.299 148.33 116.245 148.643 115.114 148.448C113.977 148.252 112.782 147.545 111.119 146.246C109.372 145.997 108.129 145.602 107.163 144.816C106.199 144.031 105.527 142.869 104.891 141.123C102.379 139.558 101.1 137.935 101.105 136.261C101.11 134.606 102.371 132.973 104.75 131.374C104.008 130.275 103.636 129.331 103.642 128.281C103.648 127.204 104.053 126.034 104.826 124.492L104.831 124.482L104.837 124.474C106.907 121.629 108.609 119.823 110.438 118.647C112.256 117.478 114.188 116.937 116.706 116.604C118.366 114.217 119.886 112.347 121.349 110.55C121.585 110.259 121.821 109.969 122.055 109.68C123.744 107.593 125.374 105.502 127.08 102.688L127.132 102.603ZM127.244 102.908C125.547 105.694 123.925 107.773 122.251 109.842C122.016 110.132 121.781 110.422 121.543 110.713C120.072 112.522 118.548 114.396 116.881 116.797L116.849 116.844L116.794 116.851C114.268 117.18 112.361 117.713 110.574 118.863C108.786 120.013 107.107 121.786 105.047 124.617C104.282 126.147 103.9 127.269 103.895 128.283C103.889 129.293 104.256 130.213 105.032 131.336L105.106 131.444L104.997 131.516C102.56 133.13 101.362 134.72 101.358 136.261C101.353 137.8 102.538 139.365 105.061 140.928L105.099 140.951L105.114 140.993C105.748 142.747 106.403 143.869 107.322 144.617C108.24 145.364 109.438 145.751 111.187 145.997L111.22 146.002L111.247 146.023C112.922 147.333 114.08 148.01 115.157 148.196C116.226 148.38 117.235 148.084 118.621 147.385L118.689 147.351L118.751 147.396C120.897 148.933 122.4 149.281 123.722 148.507C124.393 148.114 125.032 147.426 125.688 146.419C126.343 145.415 127.01 144.103 127.739 142.474C127.989 141.794 128.232 141.135 128.467 140.499C129.593 137.445 130.536 134.888 131.164 132.804C131.543 131.544 131.806 130.462 131.925 129.55C132.044 128.637 132.018 127.905 131.828 127.342L131.8 127.26L131.865 127.204C132.148 126.956 132.315 126.765 132.429 126.576C132.543 126.387 132.608 126.192 132.678 125.926L132.683 125.91L132.691 125.895C133.7 124.14 134.519 122.649 135.265 121.293C137.185 117.801 138.614 115.2 141.517 111.285C141.343 111.145 141.173 111.007 141.005 110.871C136.39 107.137 133.826 105.062 127.244 102.908Z" fill="black"/>
<path fill-rule="evenodd" clip-rule="evenodd" d="M125.272 119.272L130.283 112.337L130.488 112.488L125.476 119.423L125.272 119.272ZM126.103 119.523L128.743 115.982L128.945 116.137L126.305 119.677L126.103 119.523ZM122.704 119.122C121.203 118.369 120.276 117.992 118.49 117.38L118.572 117.138C120.366 117.753 121.303 118.134 122.817 118.892L122.704 119.122ZM130.103 125.25C128.819 123.758 128.004 122.974 126.45 121.628L126.615 121.433C128.176 122.786 129 123.578 130.294 125.082L130.103 125.25ZM117.863 128.56C116.068 128.964 114.372 128.871 112.297 128.301L112.364 128.054C114.407 128.615 116.062 128.703 117.808 128.31C119.559 127.917 121.411 127.038 123.849 125.652L123.973 125.875C121.532 127.264 119.652 128.158 117.863 128.56ZM110.522 127.061C110.547 126.894 110.548 126.749 110.521 126.605C110.49 126.437 110.423 126.279 110.329 126.1L110.106 126.22C110.195 126.39 110.248 126.521 110.272 126.652C110.296 126.78 110.293 126.916 110.259 127.095L110.074 127.714C109.973 127.69 109.871 127.672 109.767 127.659C109.24 127.596 108.673 127.687 108.037 127.902L108.118 128.145C108.732 127.937 109.26 127.856 109.737 127.913C110.212 127.97 110.647 128.164 111.073 128.521C111.933 129.24 112.753 130.613 113.783 132.823C113.944 133.271 113.862 133.809 113.61 134.35C113.357 134.892 112.939 135.421 112.459 135.837C111.978 136.255 111.443 136.55 110.961 136.638C110.485 136.724 110.07 136.608 109.784 136.215C109.135 135.323 107.875 134.019 106.783 132.943C106.236 132.404 105.729 131.92 105.359 131.571C105.174 131.396 105.023 131.255 104.918 131.158C104.866 131.109 104.825 131.071 104.797 131.046L104.766 131.017L104.755 131.007C104.755 131.007 104.755 131.007 104.67 131.101C104.585 131.196 104.585 131.196 104.585 131.196L104.585 131.197L104.595 131.206L104.627 131.235C104.654 131.26 104.695 131.298 104.747 131.346C104.851 131.443 105.002 131.584 105.186 131.758C105.555 132.106 106.061 132.589 106.606 133.126C107.7 134.204 108.946 135.495 109.58 136.367C109.936 136.856 110.459 136.989 111.006 136.889C111.547 136.791 112.122 136.467 112.624 136.032C113.127 135.595 113.568 135.038 113.838 134.459C114.108 133.882 114.214 133.268 114.018 132.73L114.017 132.725L114.014 132.72C113.66 131.958 113.327 131.289 113.007 130.709L113.041 130.742L113.325 130.437C114.464 130.669 115.227 130.951 115.782 131.413C116.317 131.859 116.672 132.484 116.97 133.434L116.958 133.459C114.521 138.69 112.899 141.806 110.786 145.054L110.998 145.195C113.106 141.954 114.726 138.845 117.138 133.674L117.146 133.673C118.307 133.585 119.118 133.675 119.772 134.008C120.418 134.337 120.928 134.913 121.465 135.841C121.441 137.725 121.299 139.244 120.827 140.9C120.351 142.569 119.539 144.384 118.165 146.857L118.385 146.982C119.764 144.502 120.587 142.667 121.07 140.971C121.544 139.308 121.69 137.785 121.717 135.926C122.695 135.855 123.499 135.935 124.143 136.187C124.808 136.447 125.307 136.892 125.65 137.561C125.995 138.233 126.184 139.136 126.214 140.313C126.245 141.488 126.116 142.928 125.83 144.667L126.08 144.709C126.367 142.961 126.498 141.504 126.467 140.306C126.437 139.109 126.244 138.163 125.874 137.443C125.503 136.719 124.957 136.231 124.234 135.948C123.535 135.674 122.676 135.596 121.661 135.674C121.121 134.749 120.585 134.136 119.886 133.78C119.192 133.426 118.354 133.334 117.228 133.411C116.92 132.407 116.542 131.714 115.943 131.215C115.337 130.712 114.521 130.419 113.367 130.185C112.998 129.435 112.656 128.874 112.217 128.388C111.781 127.906 111.254 127.503 110.522 127.061ZM113.129 130.275C112.769 129.547 112.442 129.017 112.03 128.56C111.629 128.117 111.143 127.739 110.456 127.319L110.317 127.787C110.636 127.899 110.939 128.077 111.234 128.324C111.796 128.793 112.331 129.516 112.9 130.519L113.129 130.275ZM116.15 130.582C119.931 132.123 122.801 133.062 126.618 132.417L126.66 132.67C122.77 133.327 119.844 132.363 116.055 130.82L116.15 130.582ZM106.798 137.168C107.328 136.339 107.801 135.721 108.552 135.178L108.699 135.387C107.986 135.902 107.534 136.489 107.011 137.307C106.857 137.548 106.696 137.81 106.521 138.095C106.103 138.777 105.601 139.595 104.903 140.594L104.696 140.446C105.389 139.454 105.884 138.648 106.301 137.968C106.478 137.68 106.64 137.415 106.798 137.168Z" fill="black"/>
<path d="M104.086 178.2C100.312 184.434 99.0677 185.475 95.7463 191.631C93.0114 190.653 88.1362 189.071 80.5133 183.533C83.7978 177.808 85.4154 174.437 88.435 168.334C86.6009 163.508 86.6401 160.459 89.6201 154.084C91.5655 151.251 92.8659 150.5 95.5844 150.815C96.0792 144.929 98.8625 143.287 103.996 146.299C107.668 145.758 109.256 146.485 111.357 149.375C115.232 151.111 116.019 152.254 116.122 155.401C120.855 157.767 120.445 160.226 116.151 165.931C110.665 172.251 107.281 176.389 104.848 176.804C104.682 177.557 104.487 177.818 104.086 178.2Z" fill="#950000"/>
<path fill-rule="evenodd" clip-rule="evenodd" d="M80.3461 183.57L80.4393 183.637C87.6969 188.91 92.4719 190.604 95.2796 191.601C95.4264 191.653 95.5679 191.703 95.704 191.752L95.8057 191.788L95.8573 191.693C97.5158 188.618 98.6551 186.823 99.8514 185.016C100.063 184.697 100.275 184.378 100.493 184.052C101.509 182.529 102.634 180.843 104.185 178.281C104.382 178.093 104.538 177.924 104.664 177.705C104.784 177.499 104.873 177.254 104.952 176.915C105.565 176.791 106.224 176.449 106.943 175.923C107.696 175.372 108.524 174.612 109.444 173.672C110.966 172.117 112.749 170.056 114.872 167.602C115.315 167.09 115.773 166.561 116.246 166.016L116.249 166.012L116.252 166.009C117.327 164.581 118.162 163.351 118.735 162.272C119.308 161.194 119.623 160.258 119.648 159.418C119.697 157.73 118.575 156.497 116.245 155.32C116.189 153.78 115.961 152.694 115.253 151.78C114.542 150.862 113.359 150.135 111.438 149.272C110.392 147.836 109.457 146.918 108.314 146.433C107.173 145.948 105.843 145.902 104.021 146.166C101.465 144.675 99.4445 144.308 97.9901 145.108C96.5522 145.899 95.7308 147.796 95.4696 150.673C94.1606 150.536 93.1617 150.653 92.2515 151.156C91.3165 151.674 90.4912 152.591 89.5161 154.011L89.5101 154.02L89.5056 154.029C88.0131 157.222 87.2506 159.595 87.0959 161.781C86.9422 163.953 87.3897 165.929 88.2968 168.327C88.0202 168.887 87.7553 169.423 87.4998 169.94C84.9812 175.038 83.3755 178.289 80.4037 183.469L80.3461 183.57ZM80.6803 183.497C83.6194 178.368 85.2238 175.12 87.7261 170.055C87.9893 169.522 88.2624 168.969 88.5481 168.392L88.5731 168.341L88.5531 168.288C87.6395 165.884 87.1972 163.935 87.3484 161.799C87.4996 159.662 88.2454 157.325 89.73 154.148C90.6975 152.74 91.4937 151.867 92.373 151.381C93.2492 150.896 94.2243 150.786 95.5699 150.942L95.6994 150.957L95.7104 150.825C95.9572 147.89 96.772 146.069 98.1111 145.333C99.4482 144.597 101.373 144.908 103.932 146.41L103.97 146.432L104.014 146.426C105.842 146.157 107.129 146.207 108.216 146.669C109.303 147.13 110.209 148.012 111.254 149.451L111.274 149.478L111.305 149.492C113.242 150.36 114.381 151.069 115.054 151.938C115.723 152.801 115.944 153.84 115.995 155.405L115.998 155.482L116.066 155.516C118.423 156.694 119.44 157.867 119.395 159.41C119.372 160.193 119.076 161.089 118.512 162.151C117.949 163.211 117.124 164.427 116.053 165.85C115.58 166.396 115.122 166.925 114.68 167.436C112.557 169.889 110.78 171.943 109.264 173.492C108.349 174.428 107.532 175.176 106.795 175.715C106.057 176.255 105.407 176.579 104.827 176.678L104.743 176.692L104.724 176.776C104.643 177.146 104.556 177.385 104.446 177.576C104.335 177.768 104.197 177.918 103.999 178.107L103.987 178.119L103.978 178.133C102.425 180.698 101.302 182.382 100.284 183.908C100.066 184.235 99.8527 184.554 99.6411 184.874C98.454 186.666 97.3218 188.45 95.6868 191.474C95.582 191.437 95.4741 191.399 95.3632 191.359C92.5774 190.371 87.8565 188.695 80.6803 183.497Z" fill="black"/>
<path fill-rule="evenodd" clip-rule="evenodd" d="M94.6888 174.681L91.0347 182.434L91.2632 182.544L94.9173 174.791L94.6888 174.681ZM95.3024 175.3L93.4758 179.332L93.7059 179.438L95.5325 175.407L95.3024 175.3ZM93.3383 172.468C91.9698 171.49 91.2016 170.844 89.8203 169.546L89.648 169.734C91.0358 171.037 91.8128 171.691 93.1922 172.677L93.3383 172.468ZM102.187 176.138C100.278 175.705 99.2097 175.352 97.2992 174.609L97.2083 174.848C99.1274 175.594 100.208 175.951 102.132 176.388L102.187 176.138ZM99.2521 163.676C98.7505 161.888 97.8636 160.423 96.3818 158.848L96.1984 159.024C97.6582 160.576 98.5204 162.005 99.0085 163.746C99.498 165.491 99.6137 167.555 99.5656 170.383L99.8187 170.388C99.8668 167.556 99.7522 165.459 99.2521 163.676ZM94.4586 157.857C94.3261 157.959 94.1998 158.029 94.0617 158.073C93.9007 158.126 93.7316 158.141 93.5313 158.143L93.5297 157.887C93.7193 157.885 93.859 157.87 93.9845 157.83C94.1072 157.79 94.224 157.723 94.3633 157.607L94.8149 157.148C94.7459 157.071 94.6813 156.988 94.621 156.902C94.3158 156.463 94.1251 155.915 94.0106 155.247L94.26 155.204C94.3707 155.849 94.5516 156.357 94.8281 156.754C95.1033 157.15 95.4785 157.444 95.9915 157.654C97.0265 158.078 98.6104 158.155 101.023 158.02C101.49 157.95 101.919 157.623 102.27 157.141C102.621 156.659 102.883 156.036 103.018 155.411C103.152 154.784 103.155 154.168 103.002 153.698C102.851 153.233 102.553 152.919 102.075 152.851C100.991 152.698 99.2568 152.196 97.8016 151.736C97.0723 151.506 96.4103 151.285 95.9305 151.121C95.6907 151.04 95.4963 150.972 95.3619 150.926C95.2947 150.902 95.2425 150.884 95.207 150.871L95.1667 150.857L95.153 150.852C95.153 150.852 95.1528 150.852 95.1948 150.731C95.2368 150.611 95.2368 150.611 95.2368 150.611L95.2376 150.611L95.2503 150.615L95.2903 150.63C95.3255 150.642 95.3775 150.66 95.4445 150.684C95.5784 150.73 95.7721 150.797 96.0113 150.879C96.4898 151.042 97.1501 151.262 97.8772 151.492C99.3348 151.953 101.05 152.448 102.11 152.598C102.705 152.682 103.069 153.084 103.243 153.618C103.414 154.146 103.405 154.811 103.265 155.465C103.124 156.12 102.849 156.777 102.474 157.293C102.1 157.806 101.615 158.193 101.054 158.274L101.049 158.275L101.043 158.276C100.212 158.322 99.472 158.344 98.8148 158.335L98.8592 158.349L98.7293 158.747C99.4719 159.65 100.08 160.195 100.746 160.469C101.388 160.733 102.101 160.752 103.07 160.565L103.086 160.543C106.48 155.889 108.421 152.966 110.244 149.543L110.467 149.664C108.648 153.08 106.712 155.998 103.358 160.601L103.361 160.608C103.836 161.683 104.3 162.362 104.9 162.786C105.493 163.204 106.237 163.383 107.3 163.421C108.928 162.504 110.182 161.657 111.4 160.449C112.626 159.233 113.82 157.648 115.319 155.25L115.533 155.387C114.029 157.792 112.823 159.396 111.577 160.632C110.355 161.844 109.099 162.697 107.494 163.605C107.896 164.508 108.348 165.186 108.873 165.639C109.415 166.107 110.04 166.339 110.785 166.326C111.534 166.314 112.41 166.053 113.448 165.521C114.486 164.99 115.677 164.191 117.055 163.111L117.21 163.313C115.826 164.398 114.62 165.208 113.563 165.749C112.506 166.291 111.591 166.569 110.789 166.582C109.983 166.596 109.298 166.342 108.709 165.834C108.138 165.341 107.662 164.614 107.247 163.675C106.186 163.633 105.398 163.448 104.756 162.996C104.118 162.546 103.64 161.844 103.172 160.806C102.152 161.009 101.369 161.002 100.65 160.706C99.9244 160.407 99.2819 159.82 98.5294 158.904C97.7014 158.932 97.0509 158.895 96.4191 158.735C95.7926 158.576 95.1917 158.299 94.4586 157.857ZM98.4946 158.649C97.691 158.675 97.0738 158.637 96.4806 158.487C95.9042 158.341 95.3437 158.088 94.6526 157.676L94.9931 157.33C95.2427 157.561 95.5415 157.746 95.8965 157.891C96.5721 158.168 97.4551 158.301 98.5989 158.33L98.4946 158.649ZM100.198 161.191C103.335 163.823 105.517 165.93 106.769 169.632L107.008 169.549C105.732 165.776 103.503 163.631 100.359 160.994L100.198 161.191ZM101.486 149.742C101.016 150.607 100.703 151.322 100.588 152.248L100.839 152.28C100.948 151.4 101.244 150.719 101.708 149.865C101.844 149.614 101.996 149.347 102.161 149.055C102.556 148.359 103.029 147.523 103.567 146.428L103.34 146.315C102.806 147.403 102.339 148.226 101.945 148.92C101.779 149.214 101.626 149.484 101.486 149.742Z" fill="black"/>
<path d="M96.8713 96.0163C96.1102 95.9713 95.5327 95.8353 95.1386 95.6084C94.7467 95.3779 94.5013 95.0403 94.4022 94.5955C94.2902 94.0923 94.3959 93.6317 94.7194 93.2138C95.0451 92.7923 95.5263 92.5091 96.1629 92.3641C96.597 92.2653 97.0022 92.2622 97.3786 92.3549C97.7578 92.4468 98.0733 92.621 98.3249 92.8772C98.5795 93.1328 98.7462 93.4377 98.825 93.7917L97.9873 93.9824C97.9013 93.5962 97.7123 93.321 97.4203 93.1569C97.1277 92.9899 96.7601 92.9568 96.3173 93.0576C95.9064 93.1511 95.6057 93.3164 95.4152 93.5534C95.227 93.7868 95.1691 94.0659 95.2414 94.3907C95.2994 94.6511 95.4571 94.8473 95.7145 94.9793C95.9742 95.1077 96.3825 95.1869 96.9395 95.2169C97.4994 95.2462 97.9472 95.318 98.2827 95.4322C98.6205 95.5428 98.8871 95.702 99.0823 95.9096C99.2804 96.1166 99.4156 96.3824 99.4879 96.7072C99.6032 97.2251 99.4961 97.686 99.1664 98.0899C98.8362 98.491 98.3368 98.7676 97.6683 98.9197C97.2342 99.0186 96.8105 99.0274 96.3972 98.9462C95.9832 98.8622 95.6409 98.6972 95.3703 98.4514C95.1026 98.205 94.9274 97.8959 94.8446 97.5244L95.6824 97.3337C95.7684 97.7199 95.9768 97.9937 96.3077 98.1551C96.6408 98.3129 97.0432 98.3381 97.5149 98.2307C97.9547 98.1306 98.2717 97.9632 98.4657 97.7284C98.6597 97.4936 98.7218 97.2197 98.6521 96.9067C98.5824 96.5936 98.4201 96.3769 98.1653 96.2566C97.9098 96.1334 97.4785 96.0533 96.8713 96.0163Z" fill="white"/>
<path d="M127.539 96.3056L124.826 95.5757L124.236 97.8189L127.388 98.6668L127.208 99.3493L123.231 98.2793L124.896 91.9496L128.831 93.0081L128.65 93.695L125.541 92.8586L125.006 94.8931L127.719 95.6231L127.539 96.3056Z" fill="white"/>
<path d="M110.68 93.5643L112.37 90.2758H113.34L111.107 94.383V96.8257H110.252V94.383L108.019 90.2758H108.998L110.68 93.5643Z" fill="white"/>
<path d="M120.454 97.6866L119.603 97.5713L117.034 92.1306L116.371 97.1333L115.52 97.018L116.38 90.5261L117.231 90.6415L119.806 96.1056L120.473 91.0807L121.315 91.1948L120.454 97.6866Z" fill="white"/>
<path d="M105.679 94.169L102.896 94.5393L103.195 96.8408L106.429 96.4105L106.52 97.1108L102.439 97.6537L101.594 91.1598L105.631 90.6227L105.722 91.3274L102.533 91.7518L102.805 93.8391L105.588 93.4687L105.679 94.169Z" fill="white"/>
<path d="M89.3228 197.484C89.0918 198.016 88.7604 198.38 88.3289 198.575C87.9004 198.769 87.4049 198.779 86.8424 198.605C86.2326 198.416 85.8104 198.044 85.5756 197.487C85.3432 196.932 85.3392 196.284 85.5637 195.543L85.7157 195.041C85.8627 194.556 86.077 194.156 86.3587 193.841C86.6427 193.526 86.9716 193.32 87.3453 193.221C87.7197 193.12 88.1137 193.133 88.5273 193.262C89.0756 193.431 89.4682 193.723 89.705 194.136C89.9425 194.547 90.0055 195.034 89.894 195.598L89.2098 195.386C89.2767 194.952 89.2391 194.611 89.0971 194.363C88.9574 194.116 88.7103 193.938 88.3557 193.828C87.9209 193.693 87.5301 193.75 87.1835 193.998C86.8392 194.247 86.5762 194.671 86.3945 195.271L86.2414 195.776C86.0698 196.343 86.0503 196.829 86.1829 197.236C86.3156 197.643 86.5922 197.912 87.0129 198.042C87.3911 198.16 87.7067 198.163 87.9597 198.053C88.2158 197.942 88.4421 197.681 88.6386 197.272L89.3228 197.484Z" fill="white"/>
<path d="M124.693 197.043L123.013 197.484L124.223 202.194L123.537 202.374L122.328 197.664L120.652 198.104L120.505 197.53L124.546 196.47L124.693 197.043Z" fill="white"/>
<path d="M102.042 200.984L101.795 203.106L101.088 203.022L101.719 197.601L103.697 197.836C104.284 197.906 104.725 198.112 105.021 198.454C105.32 198.797 105.44 199.218 105.382 199.717C105.321 200.243 105.11 200.629 104.751 200.876C104.394 201.12 103.912 201.206 103.306 201.134L102.042 200.984ZM102.111 200.399L103.381 200.55C103.759 200.595 104.059 200.541 104.281 200.386C104.504 200.229 104.635 199.98 104.674 199.64C104.712 199.317 104.641 199.047 104.462 198.83C104.284 198.612 104.019 198.479 103.669 198.429L102.358 198.273L102.111 200.399Z" fill="white"/>
<path d="M97.9926 199.918L96.7492 199.666L96.3207 201.831L95.619 201.689L96.6782 196.337L98.4307 196.692C99.0269 196.812 99.4579 197.042 99.7235 197.381C99.9915 197.721 100.074 198.153 99.9699 198.677C99.9039 199.011 99.7568 199.283 99.5284 199.494C99.3025 199.706 99.0187 199.841 98.6769 199.899L99.4708 202.422L99.462 202.467L98.7131 202.315L97.9926 199.918ZM96.8634 199.089L97.936 199.306C98.2826 199.376 98.5756 199.341 98.8151 199.201C99.057 199.061 99.2081 198.839 99.2682 198.535C99.3337 198.205 99.2857 197.931 99.1243 197.715C98.9653 197.499 98.7018 197.353 98.3339 197.276L97.265 197.06L96.8634 199.089Z" fill="white"/>
<path d="M113.663 201.591H112.395V203.799H111.679V198.341H113.467C114.075 198.341 114.542 198.481 114.868 198.761C115.197 199.041 115.361 199.448 115.361 199.983C115.361 200.323 115.27 200.619 115.087 200.871C114.906 201.124 114.654 201.312 114.331 201.437L115.599 203.754V203.799H114.835L113.663 201.591ZM112.395 201.002H113.489C113.842 201.002 114.123 200.91 114.331 200.725C114.541 200.54 114.646 200.293 114.646 199.983C114.646 199.645 114.546 199.387 114.345 199.207C114.148 199.027 113.861 198.936 113.485 198.933H112.395V201.002Z" fill="white"/>
<path d="M94.8727 198.539C94.758 199.061 94.5709 199.498 94.3114 199.849C94.0524 200.198 93.7411 200.439 93.3776 200.572C93.014 200.706 92.6199 200.725 92.1952 200.629C91.7801 200.536 91.4347 200.351 91.1588 200.074C90.8834 199.795 90.6983 199.445 90.6033 199.024C90.5113 198.601 90.5182 198.138 90.6238 197.634L90.7082 197.25C90.8208 196.738 91.0083 196.305 91.2708 195.952C91.5333 195.599 91.8478 195.354 92.2143 195.219C92.5837 195.082 92.976 195.06 93.391 195.153C93.8133 195.248 94.1621 195.435 94.4375 195.715C94.7158 195.992 94.8987 196.347 94.9861 196.779C95.074 197.208 95.0609 197.683 94.9467 198.202L94.8727 198.539ZM94.257 198.04C94.3959 197.408 94.3768 196.895 94.1998 196.502C94.0234 196.107 93.7095 195.858 93.2583 195.757C92.8191 195.658 92.4356 195.75 92.1077 196.032C91.7828 196.313 91.5507 196.752 91.4116 197.351L91.3256 197.742C91.191 198.354 91.2118 198.865 91.388 199.273C91.5671 199.679 91.8799 199.933 92.3263 200.033C92.7751 200.134 93.1588 200.047 93.4773 199.773C93.7963 199.497 94.0273 199.05 94.1701 198.435L94.257 198.04Z" fill="white"/>
<path d="M132.971 195.937C133.139 196.444 133.203 196.916 133.16 197.352C133.117 197.786 132.974 198.155 132.731 198.459C132.488 198.763 132.16 198.986 131.748 199.126C131.345 199.263 130.954 199.285 130.577 199.192C130.198 199.097 129.86 198.894 129.564 198.584C129.269 198.27 129.038 197.87 128.871 197.384L128.747 197.011C128.581 196.513 128.521 196.045 128.565 195.605C128.609 195.166 128.753 194.792 128.998 194.485C129.244 194.174 129.568 193.95 129.971 193.813C130.381 193.674 130.775 193.652 131.154 193.747C131.534 193.839 131.872 194.047 132.168 194.371C132.463 194.693 132.694 195.106 132.862 195.61L132.971 195.937ZM132.188 195.832C131.984 195.218 131.706 194.789 131.353 194.545C131 194.299 130.604 194.25 130.166 194.4C129.74 194.545 129.459 194.824 129.322 195.237C129.187 195.646 129.213 196.144 129.4 196.729L129.527 197.109C129.725 197.704 130.004 198.13 130.363 198.387C130.724 198.641 131.121 198.694 131.555 198.547C131.991 198.399 132.275 198.124 132.407 197.723C132.539 197.319 132.509 196.817 132.316 196.215L132.188 195.832Z" fill="white"/>
<path d="M110.52 201.246C110.52 201.781 110.431 202.248 110.253 202.648C110.075 203.046 109.823 203.349 109.497 203.559C109.17 203.769 108.79 203.874 108.355 203.874C107.93 203.874 107.553 203.769 107.224 203.559C106.895 203.347 106.639 203.046 106.456 202.656C106.276 202.263 106.183 201.81 106.178 201.295V200.901C106.178 200.376 106.268 199.913 106.449 199.51C106.629 199.108 106.884 198.801 107.213 198.588C107.544 198.373 107.922 198.266 108.347 198.266C108.78 198.266 109.161 198.372 109.489 198.585C109.821 198.794 110.075 199.101 110.253 199.503C110.431 199.903 110.52 200.369 110.52 200.901V201.246ZM109.812 200.894C109.812 200.246 109.683 199.75 109.426 199.406C109.169 199.058 108.81 198.884 108.347 198.884C107.897 198.884 107.543 199.058 107.283 199.406C107.026 199.75 106.894 200.23 106.886 200.845V201.246C106.886 201.873 107.016 202.367 107.276 202.727C107.538 203.084 107.897 203.263 108.355 203.263C108.814 203.263 109.17 203.094 109.423 202.757C109.675 202.417 109.804 201.931 109.812 201.299V200.894Z" fill="white"/>
<path d="M119.827 201.708L117.595 202.076L117.32 203.564L116.596 203.684L117.762 197.961L118.377 197.86L121.283 202.912L120.562 203.03L119.827 201.708ZM117.713 201.456L119.524 201.158L118.211 198.788L117.713 201.456Z" fill="white"/>
<path d="M139.11 195.718L138.478 196.056L134.129 193.626L136.076 197.342L135.444 197.681L132.917 192.858L133.549 192.519L137.913 194.963L135.957 191.229L136.583 190.894L139.11 195.718Z" fill="white"/>
<path d="M128.533 200.619L127.85 200.822L126.323 195.587L127.006 195.383L128.533 200.619Z" fill="white"/>
</g>
<g opacity="0.5">
<g filter="url(#filter0_b)">
<path d="M285.379 578.66C279.103 578.966 275.315 581.332 268.458 586.746M285.418 578.282C277.731 577.358 273.467 579.344 265.877 583.613M285.515 577.717C278.416 576.056 273.534 576.823 263.866 579.997" stroke="black" stroke-width="3" stroke-linecap="round"/>
</g>
<g filter="url(#filter1_b)">
<path d="M300.369 581.238C306.183 583.623 308.962 587.119 313.617 594.513M300.459 580.869C308.014 582.566 311.369 585.862 317.097 592.423M300.556 580.304C307.802 581.11 312.148 583.464 320.2 589.686" stroke="black" stroke-width="3" stroke-linecap="round"/>
</g>
<path fill-rule="evenodd" clip-rule="evenodd" d="M278.558 560.143C286.225 560.128 290.469 562.191 288.595 567.656C288.611 567.262 288.525 567.045 288.192 566.673C282.83 567.191 281.13 565.394 280.894 561.098C280.528 560.552 279.892 560.382 278.558 560.143ZM282.058 562.763C281.837 562.48 281.768 562.545 281.833 562.879C282.622 565.547 283.97 566.481 286.666 565.421C287 565.29 286.903 565.149 286.592 565.203C283.897 565.818 282.996 564.786 282.058 562.763Z" fill="#252324"/>
<ellipse cx="283.765" cy="562.958" rx="0.642308" ry="0.571461" transform="rotate(9.75878 283.765 562.958)" fill="#0594A7"/>
<path fill-rule="evenodd" clip-rule="evenodd" d="M322.328 567.168C322.87 573.883 320.888 577.624 314.277 584.267C315.78 580.774 315.108 579.432 312.054 577.792C309.869 576.74 308.546 576.225 305.955 575.482C299.88 573.146 298.058 571.273 299.146 566.384C299.516 558.066 296.481 553.498 287.012 552.158C283.245 551.055 282.437 549.746 282.04 546.859C281.444 539.581 280.54 536.295 276.11 533.14C274.512 532.194 273.169 532.368 272.274 534.06C269.792 537.759 269.539 541.867 271.043 548.682C269.614 553.344 269.58 555.666 270.842 559.294C269.127 562.33 269.181 564.677 270.246 569.479C268.394 565.497 267.999 563.197 269.43 558.87C268.249 554.842 268.301 552.636 269.355 548.77C268.243 539.603 268.711 535.755 271.97 531.757C273.316 530.602 274.187 530.546 275.811 530.8C280.177 533.486 282.341 536.533 284.889 540.119L284.889 540.119L284.889 540.119L284.889 540.119C285.687 541.243 286.523 542.42 287.477 543.655C296.071 541.785 300.955 542.498 309.785 547.016C315.238 542.504 318.352 540.725 324.013 538.948C326.775 538.81 327.637 539.327 328.383 540.936C330.191 548.322 329.033 552.972 323.757 562.018C322.734 563.915 322.448 565.05 322.328 567.168ZM323.521 559.4C321.393 561.21 319.987 560.32 319.531 557.221C319.218 556.244 318.511 555.966 316.353 555.928C312.566 557.68 309.259 551.748 313.125 548.144C317.351 544.016 319.824 542.322 324.51 540.961C325.751 540.745 326.249 540.971 326.738 542.075C327.707 548.263 326.961 551.905 323.521 559.4ZM310.707 566.508C311.053 566.182 311.199 566.261 311.039 566.749C308.395 570.592 306.05 571.758 301.755 569.392C301.308 569.074 301.433 568.937 301.914 569.122C306.037 570.972 308.128 570.19 310.707 566.508ZM308.532 567.41C308.705 567.117 308.662 567.033 308.359 567.226C306.799 568.82 305.604 569.491 303.27 568.011C302.995 567.856 302.857 567.957 303.127 568.192C305.315 570.091 306.897 569.662 308.532 567.41ZM311.99 566.191C304.6 564.304 302.058 564.94 300.878 569.634C300.824 569.949 300.674 569.937 300.649 569.595C300.746 564.257 304.869 562.613 312.222 565.946C312.738 566.18 312.623 566.393 311.99 566.191Z" fill="#252324"/>
<ellipse cx="304.148" cy="566.431" rx="0.607168" ry="0.560099" transform="rotate(9.75878 304.148 566.431)" fill="#0594A7"/>
<path d="M292.401 582.784C292.359 582.483 292.379 582.25 292.461 581.762C292.386 581.638 292.329 581.619 292.188 581.715C292.138 582.114 292.086 582.339 291.904 582.743C290.034 584.117 287.409 584.009 285.155 582.488C287.357 584.463 289.442 584.487 292.1 583.86C294.072 585.541 296.882 585.775 298.933 584.858C296.389 585.591 293.571 584.792 292.401 582.784Z" fill="#252324"/>
<path d="M296.61 578.89C297.487 578.536 296.977 576.758 297.772 572.138C297.633 570.671 297.088 576.114 296.435 578.168C295.706 577.573 295.154 577.451 293.971 577.528C293.255 577.585 292.82 577.506 291.988 577.187C291.072 576.744 290.531 576.718 289.53 576.981C290.08 574.701 290.729 569.878 290.378 570.779C289.945 574.569 288.369 576.781 289.17 577.801C290.389 578.826 291.522 579.452 291.192 580.347C291.523 580.852 291.706 581.126 292.407 581.476C293.038 581.402 293.341 581.206 293.855 580.772C293.654 579.838 295.431 579.854 296.61 578.89Z" fill="#252324"/>
</g>
<g opacity="0.5">
<g filter="url(#filter2_b)">
<path d="M202.19 378.999C193.379 381.861 188.865 386.972 181.109 397.977M202.106 378.398C190.834 379.889 185.504 384.592 176.284 394.102M202.036 377.483C191.33 377.61 184.67 380.657 172.093 389.259" stroke="black" stroke-width="3" stroke-linecap="round"/>
</g>
<g filter="url(#filter3_b)">
<path d="M224.454 377.292C233.598 378.778 238.838 383.142 248.181 392.836M224.445 376.685C235.812 376.442 241.797 380.277 252.359 388.271M224.375 375.771C234.975 374.264 242.022 376.261 255.763 382.845" stroke="black" stroke-width="3" stroke-linecap="round"/>
</g>
<path fill-rule="evenodd" clip-rule="evenodd" d="M185.668 352.878C196.564 349.937 203.359 351.522 202.708 360.71C202.586 360.093 202.382 359.789 201.772 359.339C194.339 362.182 191.26 360.043 189.342 353.47C188.619 352.762 187.652 352.741 185.668 352.878ZM191.61 355.61C191.192 355.254 191.118 355.381 191.333 355.874C193.437 359.712 195.698 360.647 199.142 357.978C199.568 357.648 199.378 357.466 198.956 357.668C195.351 359.647 193.689 358.39 191.61 355.61Z" fill="#252324"/>
<ellipse cx="194.109" cy="355.262" rx="0.94294" ry="0.912921" transform="rotate(-4.38329 194.109 355.262)" fill="#A70505"/>
<path fill-rule="evenodd" clip-rule="evenodd" d="M250.492 347.115C253.737 357.322 252.297 363.879 245.344 376.697C246.195 370.707 244.745 368.881 239.798 367.5C236.303 366.701 234.232 366.406 230.275 366.24C220.777 364.929 217.496 362.717 217.242 354.722C214.702 341.681 208.704 335.753 194.747 337.279C188.984 337.001 187.353 335.279 185.725 330.952C182.196 319.893 179.7 315.141 172.238 311.934C169.618 311.076 167.773 311.856 167.123 314.82C164.958 321.502 166.111 327.969 170.761 337.965C170.446 345.738 171.253 349.352 174.385 354.498C173.065 359.858 174.006 363.478 177.289 370.519C173.19 365.049 171.78 361.633 172.22 354.379C169.056 348.581 168.319 345.139 168.392 338.744C163.433 324.951 162.682 318.805 165.843 311.365C167.33 309.061 168.549 308.643 170.951 308.419C178.149 310.923 182.349 314.824 187.292 319.416C188.842 320.855 190.464 322.362 192.275 323.915C203.805 317.744 211.013 316.991 225.233 320.637C231.323 311.565 235.096 307.621 242.491 302.71C246.368 301.446 247.784 301.92 249.437 304.131C254.729 314.897 254.795 322.549 250.627 338.585C249.871 341.916 249.883 343.784 250.492 347.115ZM249.327 334.614C246.968 338.231 244.64 337.387 242.851 332.754C242.046 331.358 240.938 331.196 237.856 331.959C233.116 336.116 226.229 328.175 230.397 321.116C234.886 313.106 237.778 309.538 243.939 305.644C245.624 304.836 246.415 304.998 247.517 306.524C251.175 315.751 251.456 321.682 249.327 334.614ZM233.725 350.515C234.097 349.876 234.334 349.944 234.286 350.761C231.943 357.727 229.038 360.429 222.059 358.394C221.307 358.07 221.433 357.81 222.186 357.914C228.729 359.215 231.415 357.206 233.725 350.515ZM230.966 352.741C231.103 352.221 231.011 352.106 230.652 352.522C229.021 355.587 227.569 357.082 223.705 355.675C223.257 355.54 223.097 355.749 223.569 356.01C227.379 358.123 229.471 356.855 230.966 352.741ZM235.434 349.535C224.229 349.42 220.85 351.374 220.902 359.103C220.941 359.612 220.722 359.65 220.561 359.129C218.733 350.815 223.989 346.695 235.673 349.066C236.493 349.232 236.408 349.606 235.434 349.535Z" fill="#252324"/>
<ellipse cx="224.371" cy="352.891" rx="0.891353" ry="0.89477" transform="rotate(-4.38329 224.371 352.891)" fill="#A70505"/>
<path d="M213.692 382.721C213.523 382.27 213.464 381.901 213.402 381.114C213.249 380.949 213.161 380.942 212.996 381.145C213.072 381.783 213.082 382.151 212.971 382.847C210.818 385.69 207.047 386.52 203.281 385.02C207.14 387.244 210.113 386.488 213.662 384.504C217.085 386.362 221.167 385.655 223.746 383.452C220.398 385.556 216.096 385.391 213.692 382.721Z" fill="#252324"/>
<path d="M218.243 375.08C219.36 374.198 217.979 371.635 217.407 364.167C216.669 361.946 217.899 370.594 217.728 374.028C216.472 373.383 215.642 373.404 213.989 373.972C212.992 374.333 212.344 374.378 211.043 374.198C209.578 373.86 208.8 374.026 207.473 374.814C207.415 371.07 206.561 363.343 206.393 364.874C207.174 370.916 205.749 374.946 207.263 376.223C209.374 377.349 211.215 377.888 211.076 379.403C211.733 380.059 212.094 380.415 213.22 380.691C214.089 380.336 214.448 379.917 215.019 379.048C214.39 377.676 216.921 377.025 218.243 375.08Z" fill="#252324"/>
</g>
<path d="M177.608 741.895C145.869 736.663 102.969 716.434 44.3733 726.2C103.666 756.544 132.615 764.217 170.632 812L252.247 812C247.713 790.724 217.423 760.762 177.608 741.895Z" fill="#53575A"/>
<path fill-rule="evenodd" clip-rule="evenodd" d="M68.1701 632.532C71.323 632.532 73.8789 635.088 73.8789 638.241L73.8789 751.968C73.8789 755.121 71.323 757.677 68.1701 757.677C65.0173 757.677 62.4614 755.121 62.4614 751.968L62.4614 638.241C62.4614 635.088 65.0173 632.532 68.1701 632.532Z" fill="black"/>
<path d="M0.262939 717.325C0.262939 717.325 66.1873 731.997 116.67 731.997C164.893 731.997 178.89 811.993 178.89 811.993H0.262939V717.325Z" fill="#53575A"/>
<path d="M173.572 812H151.851C150.222 803.05 148.666 797.322 144.309 785.356C137.511 773.539 131.597 767.802 118.21 758.766C98.6586 747.279 85.9038 741.89 58.1292 735.22C53.9625 732.926 52.1296 731.105 49.8011 726.852L55.5782 727.705L102.606 732.142C120.54 730.861 129.746 733.748 144.309 746.783C160.57 767.532 168.303 785.994 173.572 812Z" fill="#63686B"/>
<path d="M159.185 637.884C127.16 646.937 111.568 629.468 71.9244 637.884L71.9244 684.615C111.568 676.642 125.742 692.22 159.185 684.615V637.884Z" fill="#040332" fill-opacity="0.9"/>
<path d="M95.0897 656.087C95.4558 656.087 95.7553 656.059 95.9883 656.004C96.2324 655.937 96.4265 655.854 96.5707 655.754C96.7149 655.643 96.8148 655.516 96.8703 655.372C96.9257 655.227 96.9535 655.067 96.9535 654.889C96.9535 654.512 96.776 654.201 96.421 653.957C96.0659 653.702 95.4558 653.43 94.5904 653.142C94.2132 653.009 93.836 652.859 93.4588 652.692C93.0816 652.515 92.7432 652.299 92.4437 652.043C92.1442 651.777 91.9001 651.461 91.7115 651.095C91.5229 650.718 91.4286 650.263 91.4286 649.73C91.4286 649.198 91.5284 648.721 91.7281 648.299C91.9278 647.866 92.2107 647.5 92.5768 647.201C92.9429 646.901 93.3867 646.674 93.9081 646.518C94.4295 646.352 95.0175 646.269 95.6721 646.269C96.4487 646.269 97.1199 646.352 97.6857 646.518C98.2515 646.685 98.7174 646.868 99.0836 647.068L98.3347 649.115C98.013 648.948 97.6524 648.804 97.253 648.682C96.8647 648.549 96.3932 648.482 95.8385 648.482C95.2172 648.482 94.7679 648.571 94.4906 648.748C94.2243 648.915 94.0912 649.176 94.0912 649.531C94.0912 649.741 94.1411 649.919 94.2409 650.063C94.3408 650.207 94.4795 650.34 94.657 650.462C94.8456 650.573 95.0564 650.679 95.2893 650.779C95.5334 650.867 95.7997 650.962 96.0881 651.062C96.6872 651.283 97.2086 651.505 97.6524 651.727C98.0962 651.938 98.4623 652.188 98.7507 652.476C99.0503 652.764 99.2722 653.103 99.4164 653.491C99.5606 653.879 99.6327 654.351 99.6327 654.906C99.6327 655.982 99.2555 656.819 98.5011 657.418C97.7467 658.006 96.6096 658.3 95.0897 658.3C94.5793 658.3 94.1189 658.267 93.7084 658.201C93.2979 658.145 92.9318 658.073 92.6101 657.984C92.2995 657.896 92.0277 657.801 91.7947 657.701C91.5728 657.602 91.3842 657.507 91.2289 657.418L91.9611 655.355C92.305 655.544 92.7266 655.716 93.2258 655.871C93.7362 656.015 94.3574 656.087 95.0897 656.087Z" fill="#D9D9D9"/>
<path d="M101.048 653.757C101.048 652.981 101.164 652.304 101.397 651.727C101.641 651.139 101.957 650.651 102.346 650.263C102.734 649.874 103.178 649.58 103.677 649.381C104.187 649.181 104.709 649.081 105.241 649.081C106.484 649.081 107.466 649.464 108.187 650.229C108.908 650.984 109.269 652.099 109.269 653.574C109.269 653.719 109.263 653.879 109.252 654.057C109.241 654.223 109.23 654.373 109.219 654.506H103.594C103.649 655.017 103.888 655.422 104.309 655.721C104.731 656.021 105.297 656.17 106.007 656.17C106.462 656.17 106.905 656.132 107.338 656.054C107.782 655.965 108.142 655.86 108.42 655.738L108.753 657.751C108.62 657.818 108.442 657.884 108.22 657.951C107.998 658.018 107.749 658.073 107.471 658.117C107.205 658.173 106.917 658.217 106.606 658.251C106.295 658.284 105.985 658.3 105.674 658.3C104.886 658.3 104.198 658.184 103.61 657.951C103.034 657.718 102.551 657.402 102.163 657.002C101.785 656.592 101.503 656.109 101.314 655.555C101.136 655 101.048 654.401 101.048 653.757ZM106.872 652.809C106.861 652.598 106.822 652.393 106.756 652.193C106.7 651.993 106.606 651.816 106.473 651.661C106.351 651.505 106.19 651.378 105.99 651.278C105.802 651.178 105.563 651.128 105.275 651.128C104.997 651.128 104.759 651.178 104.559 651.278C104.359 651.367 104.193 651.489 104.06 651.644C103.927 651.799 103.821 651.982 103.744 652.193C103.677 652.393 103.627 652.598 103.594 652.809H106.872Z" fill="#D9D9D9"/>
<path d="M118.953 649.314C118.454 651.001 117.933 652.581 117.389 654.057C116.846 655.532 116.252 656.964 115.609 658.35C115.376 658.85 115.143 659.271 114.91 659.615C114.677 659.97 114.421 660.259 114.144 660.48C113.867 660.713 113.551 660.88 113.196 660.98C112.852 661.091 112.447 661.146 111.981 661.146C111.592 661.146 111.232 661.107 110.899 661.03C110.577 660.963 110.311 660.885 110.1 660.797L110.533 658.816C110.788 658.905 111.016 658.966 111.215 658.999C111.415 659.033 111.626 659.049 111.848 659.049C112.291 659.049 112.63 658.927 112.863 658.683C113.107 658.45 113.312 658.123 113.478 657.701C112.913 656.592 112.347 655.349 111.781 653.974C111.215 652.587 110.683 651.034 110.184 649.314H112.813C112.924 649.747 113.051 650.218 113.196 650.729C113.351 651.228 113.512 651.738 113.678 652.26C113.845 652.77 114.011 653.269 114.177 653.757C114.355 654.246 114.521 654.689 114.677 655.089C114.821 654.689 114.971 654.246 115.126 653.757C115.281 653.269 115.431 652.77 115.575 652.26C115.731 651.738 115.875 651.228 116.008 650.729C116.152 650.218 116.28 649.747 116.391 649.314H118.953Z" fill="#D9D9D9"/>
<path d="M120.283 649.614C120.704 649.492 121.248 649.381 121.914 649.281C122.579 649.17 123.278 649.115 124.01 649.115C124.754 649.115 125.369 649.214 125.858 649.414C126.357 649.603 126.751 649.874 127.039 650.229C127.327 650.584 127.533 651.006 127.655 651.494C127.777 651.982 127.838 652.526 127.838 653.125V658.068H125.358V653.425C125.358 652.626 125.253 652.06 125.042 651.727C124.831 651.394 124.437 651.228 123.861 651.228C123.683 651.228 123.494 651.239 123.295 651.261C123.095 651.272 122.918 651.289 122.762 651.311V658.068H120.283V649.614Z" fill="#D9D9D9"/>
<path d="M129.666 653.757C129.666 652.981 129.783 652.304 130.016 651.727C130.26 651.139 130.576 650.651 130.964 650.263C131.352 649.874 131.796 649.58 132.295 649.381C132.806 649.181 133.327 649.081 133.86 649.081C135.102 649.081 136.084 649.464 136.805 650.229C137.526 650.984 137.887 652.099 137.887 653.574C137.887 653.719 137.881 653.879 137.87 654.057C137.859 654.223 137.848 654.373 137.837 654.506H132.212C132.268 655.017 132.506 655.422 132.928 655.721C133.349 656.021 133.915 656.17 134.625 656.17C135.08 656.17 135.524 656.132 135.957 656.054C136.4 655.965 136.761 655.86 137.038 655.738L137.371 657.751C137.238 657.818 137.06 657.884 136.839 657.951C136.617 658.018 136.367 658.073 136.09 658.117C135.823 658.173 135.535 658.217 135.224 658.251C134.914 658.284 134.603 658.3 134.292 658.3C133.505 658.3 132.817 658.184 132.229 657.951C131.652 657.718 131.169 657.402 130.781 657.002C130.404 656.592 130.121 656.109 129.932 655.555C129.755 655 129.666 654.401 129.666 653.757ZM135.491 652.809C135.479 652.598 135.441 652.393 135.374 652.193C135.319 651.993 135.224 651.816 135.091 651.661C134.969 651.505 134.808 651.378 134.609 651.278C134.42 651.178 134.181 651.128 133.893 651.128C133.616 651.128 133.377 651.178 133.177 651.278C132.978 651.367 132.811 651.489 132.678 651.644C132.545 651.799 132.44 651.982 132.362 652.193C132.295 652.393 132.246 652.598 132.212 652.809H135.491Z" fill="#D9D9D9"/>
<path d="M252.247 812H228.454L220.786 793.254L205.304 772.387L183.539 753.988C176.623 747.268 171.168 744.516 161.462 739.228L177.665 742.698C216.226 761.513 244.057 786.065 252.247 812Z" fill="#63686B"/>
<path d="M109.847 668.979C109.847 669.232 109.791 669.476 109.68 669.709C109.569 669.942 109.425 670.169 109.247 670.389C109.069 670.602 108.869 670.809 108.647 671.009C108.424 671.209 108.206 671.399 107.991 671.579C107.88 671.672 107.757 671.779 107.624 671.899C107.498 672.012 107.376 672.129 107.257 672.249C107.139 672.368 107.031 672.482 106.935 672.588C106.846 672.688 106.79 672.772 106.768 672.838H110.08V674.088H104.945C104.931 674.015 104.923 673.922 104.923 673.808C104.923 673.695 104.923 673.615 104.923 673.568C104.923 673.248 104.979 672.955 105.09 672.688C105.208 672.422 105.36 672.175 105.546 671.949C105.731 671.715 105.938 671.499 106.168 671.299C106.405 671.099 106.639 670.899 106.868 670.699C107.046 670.545 107.213 670.402 107.368 670.269C107.524 670.129 107.661 669.996 107.78 669.869C107.898 669.736 107.991 669.606 108.057 669.479C108.124 669.346 108.158 669.212 108.158 669.079C108.158 668.786 108.065 668.579 107.88 668.459C107.694 668.339 107.465 668.279 107.191 668.279C106.991 668.279 106.802 668.309 106.624 668.369C106.453 668.423 106.294 668.489 106.146 668.569C106.005 668.642 105.883 668.719 105.779 668.799C105.675 668.872 105.597 668.932 105.546 668.979L104.723 667.939C105.049 667.666 105.427 667.443 105.857 667.269C106.294 667.089 106.761 666.999 107.257 666.999C107.709 666.999 108.098 667.046 108.424 667.139C108.75 667.233 109.017 667.366 109.225 667.539C109.439 667.706 109.595 667.913 109.691 668.159C109.795 668.399 109.847 668.672 109.847 668.979Z" fill="#D9D9D9"/>
<path d="M116.586 670.609C116.586 671.775 116.338 672.672 115.842 673.298C115.353 673.918 114.675 674.228 113.808 674.228C112.941 674.228 112.259 673.918 111.763 673.298C111.274 672.672 111.029 671.775 111.029 670.609C111.029 670.029 111.092 669.516 111.218 669.069C111.351 668.622 111.54 668.246 111.785 667.939C112.029 667.633 112.322 667.399 112.663 667.239C113.004 667.079 113.385 666.999 113.808 666.999C114.675 666.999 115.353 667.313 115.842 667.939C116.338 668.559 116.586 669.449 116.586 670.609ZM114.897 670.609C114.897 670.262 114.878 669.949 114.841 669.669C114.804 669.382 114.745 669.136 114.664 668.929C114.582 668.722 114.471 668.563 114.33 668.449C114.189 668.336 114.015 668.279 113.808 668.279C113.6 668.279 113.426 668.336 113.285 668.449C113.152 668.563 113.041 668.722 112.952 668.929C112.87 669.136 112.811 669.382 112.774 669.669C112.737 669.949 112.718 670.262 112.718 670.609C112.718 670.955 112.737 671.272 112.774 671.559C112.811 671.845 112.87 672.092 112.952 672.298C113.041 672.505 113.152 672.665 113.285 672.778C113.426 672.892 113.6 672.948 113.808 672.948C114.015 672.948 114.189 672.892 114.33 672.778C114.471 672.665 114.582 672.505 114.664 672.298C114.745 672.092 114.804 671.845 114.841 671.559C114.878 671.272 114.897 670.955 114.897 670.609Z" fill="#D9D9D9"/>
<path d="M122.481 668.979C122.481 669.232 122.425 669.476 122.314 669.709C122.203 669.942 122.059 670.169 121.881 670.389C121.703 670.602 121.503 670.809 121.281 671.009C121.058 671.209 120.84 671.399 120.625 671.579C120.514 671.672 120.391 671.779 120.258 671.899C120.132 672.012 120.01 672.129 119.891 672.249C119.773 672.368 119.665 672.482 119.569 672.588C119.48 672.688 119.425 672.772 119.402 672.838H122.714V674.088H117.58C117.565 674.015 117.557 673.922 117.557 673.808C117.557 673.695 117.557 673.615 117.557 673.568C117.557 673.248 117.613 672.955 117.724 672.688C117.843 672.422 117.994 672.175 118.18 671.949C118.365 671.715 118.572 671.499 118.802 671.299C119.039 671.099 119.273 670.899 119.502 670.699C119.68 670.545 119.847 670.402 120.002 670.269C120.158 670.129 120.295 669.996 120.414 669.869C120.532 669.736 120.625 669.606 120.692 669.479C120.758 669.346 120.792 669.212 120.792 669.079C120.792 668.786 120.699 668.579 120.514 668.459C120.328 668.339 120.099 668.279 119.825 668.279C119.625 668.279 119.436 668.309 119.258 668.369C119.087 668.423 118.928 668.489 118.78 668.569C118.639 668.642 118.517 668.719 118.413 668.799C118.309 668.872 118.232 668.932 118.18 668.979L117.357 667.939C117.683 667.666 118.061 667.443 118.491 667.269C118.928 667.089 119.395 666.999 119.891 666.999C120.343 666.999 120.732 667.046 121.058 667.139C121.384 667.233 121.651 667.366 121.859 667.539C122.073 667.706 122.229 667.913 122.325 668.159C122.429 668.399 122.481 668.672 122.481 668.979Z" fill="#D9D9D9"/>
<path d="M129.22 670.609C129.22 671.775 128.972 672.672 128.476 673.298C127.987 673.918 127.309 674.228 126.442 674.228C125.575 674.228 124.893 673.918 124.397 673.298C123.908 672.672 123.663 671.775 123.663 670.609C123.663 670.029 123.726 669.516 123.852 669.069C123.985 668.622 124.174 668.246 124.419 667.939C124.663 667.633 124.956 667.399 125.297 667.239C125.638 667.079 126.019 666.999 126.442 666.999C127.309 666.999 127.987 667.313 128.476 667.939C128.972 668.559 129.22 669.449 129.22 670.609ZM127.531 670.609C127.531 670.262 127.512 669.949 127.475 669.669C127.438 669.382 127.379 669.136 127.298 668.929C127.216 668.722 127.105 668.563 126.964 668.449C126.823 668.336 126.649 668.279 126.442 668.279C126.234 668.279 126.06 668.336 125.919 668.449C125.786 668.563 125.675 668.722 125.586 668.929C125.504 669.136 125.445 669.382 125.408 669.669C125.371 669.949 125.353 670.262 125.353 670.609C125.353 670.955 125.371 671.272 125.408 671.559C125.445 671.845 125.504 672.092 125.586 672.298C125.675 672.505 125.786 672.665 125.919 672.778C126.06 672.892 126.234 672.948 126.442 672.948C126.649 672.948 126.823 672.892 126.964 672.778C127.105 672.665 127.216 672.505 127.298 672.298C127.379 672.092 127.438 671.845 127.475 671.559C127.512 671.272 127.531 670.955 127.531 670.609Z" fill="#D9D9D9"/>
<g filter="url(#filter4_d)">
<path d="M46.2147 20.0011C49.8798 20.0011 52.6936 20.6514 54.6562 21.9519C56.6188 23.2287 57.6 25.3332 57.6 28.2652C57.6 31.2209 56.6069 33.3608 54.6207 34.685C52.6345 35.9855 49.797 36.6357 46.1083 36.6357H44.3704V44.8644H38.8373V20.6395C40.0432 20.4031 41.3201 20.2376 42.6679 20.143C44.0157 20.0484 45.198 20.0011 46.2147 20.0011ZM46.5694 24.7184C46.1674 24.7184 45.7655 24.7302 45.3635 24.7539C44.9852 24.7775 44.6541 24.8011 44.3704 24.8248V31.9185H46.1083C48.0236 31.9185 49.466 31.6583 50.4354 31.1381C51.4049 30.6179 51.8896 29.6485 51.8896 28.2297C51.8896 27.544 51.7596 26.9765 51.4995 26.5273C51.263 26.078 50.9084 25.7233 50.4354 25.4632C49.9862 25.1795 49.4305 24.9903 48.7684 24.8957C48.1064 24.7775 47.3733 24.7184 46.5694 24.7184ZM68.8632 20.0011C72.5519 20.0011 75.3775 20.6632 77.3401 21.9873C79.3027 23.2878 80.284 25.3213 80.284 28.0879C80.284 29.814 79.882 31.2209 79.078 32.3086C78.2977 33.3727 77.1628 34.2121 75.6731 34.8269C76.1696 35.4416 76.6898 36.151 77.2337 36.9549C77.7775 37.7353 78.3096 38.5628 78.8298 39.4377C79.3736 40.289 79.8938 41.1875 80.3904 42.1333C80.8869 43.0555 81.348 43.9658 81.7736 44.8644H75.5667C75.1174 44.0604 74.6563 43.2447 74.1834 42.4171C73.7341 41.5895 73.2612 40.7855 72.7647 40.0052C72.2918 39.2249 71.8189 38.4919 71.3459 37.8062C70.873 37.0968 70.4001 36.4584 69.9272 35.8909H67.1962V44.8644H61.6631V20.6395C62.869 20.4031 64.1104 20.2376 65.3873 20.143C66.6878 20.0484 67.8464 20.0011 68.8632 20.0011ZM69.1824 24.7184C68.7804 24.7184 68.4139 24.7302 68.0829 24.7539C67.7755 24.7775 67.4799 24.8011 67.1962 24.8248V31.4928H68.7568C70.8376 31.4928 72.3272 31.2327 73.2258 30.7125C74.1243 30.1923 74.5736 29.3056 74.5736 28.0524C74.5736 26.8465 74.1125 25.9952 73.1903 25.4987C72.2918 24.9785 70.9558 24.7184 69.1824 24.7184ZM89.3431 32.5569C89.3431 33.7628 89.4849 34.8505 89.7687 35.82C90.0761 36.7894 90.5017 37.6288 91.0455 38.3382C91.613 39.0239 92.2988 39.556 93.1027 39.9343C93.9067 40.3126 94.8288 40.5018 95.8692 40.5018C96.886 40.5018 97.7963 40.3126 98.6003 39.9343C99.4279 39.556 100.114 39.0239 100.657 38.3382C101.225 37.6288 101.651 36.7894 101.934 35.82C102.242 34.8505 102.395 33.7628 102.395 32.5569C102.395 31.351 102.242 30.2633 101.934 29.2938C101.651 28.3007 101.225 27.4613 100.657 26.7755C100.114 26.0662 99.4279 25.5223 98.6003 25.144C97.7963 24.7657 96.886 24.5765 95.8692 24.5765C94.8288 24.5765 93.9067 24.7775 93.1027 25.1795C92.2988 25.5578 91.613 26.1016 91.0455 26.811C90.5017 27.4967 90.0761 28.3362 89.7687 29.3293C89.4849 30.2987 89.3431 31.3746 89.3431 32.5569ZM108.106 32.5569C108.106 34.6613 107.787 36.5175 107.148 38.1254C106.533 39.7097 105.682 41.0456 104.594 42.1333C103.507 43.1974 102.206 44.0013 100.693 44.5452C99.2033 45.089 97.5954 45.3609 95.8692 45.3609C94.1904 45.3609 92.6061 45.089 91.1165 44.5452C89.6268 44.0013 88.3263 43.1974 87.215 42.1333C86.1036 41.0456 85.2287 39.7097 84.5903 38.1254C83.9519 36.5175 83.6327 34.6613 83.6327 32.5569C83.6327 30.4524 83.9637 28.6081 84.6258 27.0238C85.2879 25.4159 86.1746 24.0681 87.2859 22.9804C88.4209 21.8927 89.7214 21.077 91.1874 20.5331C92.6771 19.9893 94.2377 19.7174 95.8692 19.7174C97.5481 19.7174 99.1323 19.9893 100.622 20.5331C102.112 21.077 103.412 21.8927 104.523 22.9804C105.635 24.0681 106.51 25.4159 107.148 27.0238C107.787 28.6081 108.106 30.4524 108.106 32.5569ZM125.484 44.8644C124.798 43.4929 124.041 42.1097 123.214 40.7146C122.41 39.2959 121.476 37.8535 120.412 36.3875C120.081 36.8131 119.655 37.4042 119.135 38.1609C118.638 38.9175 118.13 39.7215 117.61 40.5727C117.113 41.424 116.64 42.2397 116.191 43.02C115.742 43.8003 115.411 44.4151 115.198 44.8644H108.884C109.925 42.9491 111.131 40.9392 112.502 38.8348C113.897 36.7303 115.446 34.4958 117.149 32.1313L109.239 20.2848H115.943L120.731 27.946L125.413 20.2848H131.726L123.923 32.2022C125.909 34.7796 127.576 37.1678 128.924 39.3668C130.272 41.5422 131.336 43.3747 132.116 44.8644H125.484ZM135.301 20.2848H140.834V44.8644H135.301V20.2848ZM153.05 20.2848C153.476 21.0651 153.96 22.0346 154.504 23.1932C155.072 24.3282 155.651 25.5696 156.242 26.9174C156.857 28.2416 157.46 29.6012 158.051 30.9963C158.642 32.3914 159.198 33.7037 159.718 34.9333C160.238 33.7037 160.794 32.3914 161.385 30.9963C161.976 29.6012 162.567 28.2416 163.158 26.9174C163.773 25.5696 164.353 24.3282 164.896 23.1932C165.464 22.0346 165.96 21.0651 166.386 20.2848H171.423C171.659 21.9164 171.872 23.7489 172.061 25.7824C172.274 27.7923 172.451 29.8968 172.593 32.0958C172.759 34.2712 172.9 36.4584 173.019 38.6574C173.16 40.8565 173.279 42.9254 173.373 44.8644H167.982C167.911 42.4762 167.817 39.8752 167.698 37.0614C167.58 34.2475 167.403 31.4101 167.166 28.549C166.741 29.5421 166.268 30.6416 165.748 31.8475C165.227 33.0534 164.707 34.2594 164.187 35.4653C163.69 36.6712 163.206 37.8298 162.733 38.9412C162.26 40.0289 161.858 40.9629 161.527 41.7432H157.661C157.33 40.9629 156.928 40.0289 156.455 38.9412C155.982 37.8298 155.485 36.6712 154.965 35.4653C154.469 34.2594 153.96 33.0534 153.44 31.8475C152.92 30.6416 152.447 29.5421 152.021 28.549C151.785 31.4101 151.608 34.2475 151.489 37.0614C151.371 39.8752 151.277 42.4762 151.206 44.8644H145.814C145.909 42.9254 146.015 40.8565 146.134 38.6574C146.276 36.4584 146.417 34.2712 146.559 32.0958C146.725 29.8968 146.902 27.7923 147.091 25.7824C147.304 23.7489 147.529 21.9164 147.765 20.2848H153.05ZM194.812 44.8644C194.552 44.0131 194.257 43.1383 193.926 42.2397C193.618 41.3412 193.311 40.4427 193.004 39.5441H183.427C183.12 40.4427 182.801 41.3412 182.47 42.2397C182.162 43.1383 181.878 44.0131 181.618 44.8644H175.872C176.795 42.2161 177.669 39.7688 178.497 37.5224C179.325 35.2761 180.129 33.1598 180.909 31.1736C181.713 29.1874 182.493 27.3076 183.25 25.5342C184.03 23.7371 184.834 21.9873 185.662 20.2848H190.946C191.75 21.9873 192.543 23.7371 193.323 25.5342C194.103 27.3076 194.883 29.1874 195.664 31.1736C196.468 33.1598 197.283 35.2761 198.111 37.5224C198.939 39.7688 199.814 42.2161 200.736 44.8644H194.812ZM188.18 25.8534C188.062 26.2081 187.884 26.6928 187.648 27.3076C187.411 27.9224 187.14 28.6317 186.832 29.4357C186.525 30.2396 186.182 31.1263 185.804 32.0958C185.449 33.0653 185.082 34.082 184.704 35.1461H191.691C191.313 34.082 190.946 33.0653 190.592 32.0958C190.237 31.1263 189.894 30.2396 189.563 29.4357C189.256 28.6317 188.984 27.9224 188.747 27.3076C188.511 26.6928 188.322 26.2081 188.18 25.8534ZM210.443 20.2848C210.869 21.0651 211.354 22.0346 211.898 23.1932C212.465 24.3282 213.044 25.5696 213.636 26.9174C214.25 28.2416 214.853 29.6012 215.445 30.9963C216.036 32.3914 216.591 33.7037 217.112 34.9333C217.632 33.7037 218.187 32.3914 218.779 30.9963C219.37 29.6012 219.961 28.2416 220.552 26.9174C221.167 25.5696 221.746 24.3282 222.29 23.1932C222.857 22.0346 223.354 21.0651 223.78 20.2848H228.816C229.053 21.9164 229.265 23.7489 229.454 25.7824C229.667 27.7923 229.845 29.8968 229.987 32.0958C230.152 34.2712 230.294 36.4584 230.412 38.6574C230.554 40.8565 230.672 42.9254 230.767 44.8644H225.376C225.305 42.4762 225.21 39.8752 225.092 37.0614C224.974 34.2475 224.796 31.4101 224.56 28.549C224.134 29.5421 223.661 30.6416 223.141 31.8475C222.621 33.0534 222.101 34.2594 221.581 35.4653C221.084 36.6712 220.599 37.8298 220.126 38.9412C219.653 40.0289 219.251 40.9629 218.92 41.7432H215.054C214.723 40.9629 214.321 40.0289 213.848 38.9412C213.376 37.8298 212.879 36.6712 212.359 35.4653C211.862 34.2594 211.354 33.0534 210.834 31.8475C210.313 30.6416 209.841 29.5421 209.415 28.549C209.178 31.4101 209.001 34.2475 208.883 37.0614C208.765 39.8752 208.67 42.4762 208.599 44.8644H203.208C203.303 42.9254 203.409 40.8565 203.527 38.6574C203.669 36.4584 203.811 34.2712 203.953 32.0958C204.118 29.8968 204.296 27.7923 204.485 25.7824C204.698 23.7489 204.922 21.9164 205.159 20.2848H210.443ZM235.749 44.8644V20.2848H252.348V24.9312H241.282V29.7549H251.106V34.2948H241.282V40.218H253.164V44.8644H235.749ZM273.751 44.8644C272.167 42.0506 270.453 39.2722 268.608 36.5293C266.764 33.7864 264.801 31.1973 262.72 28.7618V44.8644H257.258V20.2848H261.763C262.543 21.0651 263.406 22.0228 264.352 23.1578C265.298 24.2928 266.255 25.5105 267.225 26.811C268.218 28.0879 269.199 29.4238 270.169 30.8189C271.138 32.1904 272.049 33.5145 272.9 34.7914V20.2848H278.397V44.8644H273.751ZM302.298 20.2848V25.0021H294.885V44.8644H289.352V25.0021H281.939V20.2848H302.298ZM305.854 44.8644V20.2848H322.453V24.9312H311.387V29.7549H321.212V34.2948H311.387V40.218H323.269V44.8644H305.854Z" fill="#F5F5F5"/>
</g>
<path opacity="0.87" d="M31.6147 156.227L33.0705 160.839L36.5211 157.451L34.6717 161.919L39.4933 161.541L35.2041 163.776L39.1406 166.586L34.4185 165.54L35.628 170.223L32.6826 166.387L30.5991 170.752L30.8085 165.92L26.4069 167.924L29.6732 164.357L25.0132 163.063L29.8079 162.431L27.0699 158.444L31.1496 161.041L31.6147 156.227Z" fill="#063885"/>
<path opacity="0.89" d="M138.022 59.2318L140.415 52.0734L132.95 53.1867L139.384 49.241L132.95 45.2953L140.415 46.4085L138.022 39.2502L143.025 44.9014L145.794 37.8798L145.994 45.4248L152.628 41.8255L147.931 47.7339L155.327 49.241L147.931 50.7481L152.628 56.6564L145.994 53.0571L145.794 60.6021L143.025 53.5805L138.022 59.2318Z" fill="#063885"/>
<path opacity="0.77" d="M242.07 176.952L238.96 184.468L247.069 183.832L239.855 187.59L246.475 192.316L238.534 190.558L240.568 198.433L235.614 191.982L232.11 199.322L232.462 191.196L225.06 194.567L230.553 188.568L222.716 186.392L230.78 185.328L226.175 178.623L233.036 182.991L233.818 174.895L236.267 182.651L242.07 176.952Z" fill="#063885"/>
<path opacity="0.96" d="M292.754 188.317L293.068 181.07L286.466 184.076L291.365 178.726L284.375 176.785L291.567 175.836L287.46 169.856L293.58 173.752L294.277 166.531L296.461 173.449L301.637 168.366L298.863 175.069L306.095 174.502L299.662 177.854L305.566 182.069L298.483 180.501L300.297 187.525L295.879 181.771L292.754 188.317Z" fill="#063885"/>
<path opacity="0.9" d="M65.4097 387.93L61.2114 380.203L56.2285 387.448L57.9789 378.831L49.5046 381.178L56.3846 375.702L48.3841 372.053L57.1746 372.28L53.3915 364.342L59.9792 370.167L62.1836 361.654L63.4861 370.351L70.6465 365.247L66.0544 372.746L74.8204 373.438L66.4824 376.231L72.7523 382.397L64.5697 379.176L65.4097 387.93Z" fill="#063885"/>
<path opacity="0.91" d="M92.1109 284.467L90.2687 280.234L87.3311 283.795L88.6408 279.368L84.1014 280.208L87.9502 277.659L83.9329 275.385L88.5199 275.906L86.9046 271.581L90.0834 274.929L91.6258 270.577L91.9092 275.185L95.8876 272.843L93.1428 276.555L97.6958 277.319L93.2071 278.398L96.2042 281.909L92.0721 279.851L92.1109 284.467Z" fill="#063885"/>
<path opacity="0.93" d="M197.976 336.716L204.976 334.096L199.467 329.045L206.513 331.538L205.54 324.127L209.336 330.566L213.354 324.263L212.122 331.636L219.252 329.39L213.57 334.246L220.474 337.109L213 337.177L216.449 343.808L210.68 339.055L209.06 346.352L207.696 339.003L201.764 343.551L205.443 337.045L197.976 336.716Z" fill="#063885"/>
<path opacity="0.8" d="M331.619 354.005L325.99 355.89L330.223 360.051L324.699 357.878L325.266 363.786L322.433 358.571L319.069 363.461L320.251 357.645L314.53 359.229L319.174 355.533L313.774 353.07L319.708 353.223L317.154 347.865L321.601 351.796L323.089 346.05L323.968 351.92L328.801 348.475L325.702 353.537L331.619 354.005Z" fill="#063885"/>
<path opacity="0.97" d="M1.06458 425.308L-0.216225 416.757L-7.25733 421.776L-2.74174 414.402L-11.3617 413.721L-3.16258 410.974L-9.32798 404.912L-1.28183 408.078L-2.10784 399.471L2.02048 407.069L6.92036 399.944L5.19917 408.418L13.5322 406.11L6.76689 411.495L14.634 415.083L5.99009 414.859L9.71015 422.665L3.23224 416.938L1.06458 425.308Z" fill="#063885"/>
<path opacity="0.8" d="M130.314 583.335L127.8 575.368L121.84 581.222L125.034 573.503L116.706 574.156L124.115 570.296L117.315 565.443L125.471 567.248L123.382 559.16L128.47 565.786L132.069 558.247L131.707 566.593L139.31 563.131L133.668 569.292L141.717 571.527L133.435 572.62L138.165 579.506L131.118 575.02L130.314 583.335Z" fill="#063885"/>
<path opacity="0.77" d="M278.089 555.277L282.715 559.225L284.136 553.312L285.142 559.31L290.032 555.694L286.947 560.935L293.018 561.308L287.285 563.34L291.696 567.529L285.998 565.4L286.685 571.444L283.688 566.151L280.329 571.222L281.436 565.241L275.604 566.967L280.296 563.096L274.719 560.669L280.801 560.721L278.089 555.277Z" fill="#063885"/>
<path opacity="0.85" d="M335.162 493.006L327.93 493.577L331.718 499.764L325.811 495.553L324.736 502.728L322.918 495.705L317.483 500.51L320.604 493.961L313.352 494.149L319.952 491.138L314.276 486.62L321.267 488.557L319.823 481.447L323.934 487.425L327.398 481.051L326.705 488.272L333.455 485.615L328.283 490.702L335.162 493.006Z" fill="#063885"/>
<path opacity="0.84" d="M27.4664 612.713L31.9154 613.945L30.9965 609.421L33.6125 613.225L35.8166 609.168L35.3756 613.764L39.6714 612.073L36.3797 615.31L40.7572 616.776L36.1551 617.14L38.5659 621.077L34.8067 618.397L34.1229 622.963L32.9656 618.494L29.507 621.552L31.4931 617.384L26.8782 617.504L31.0784 615.588L27.4664 612.713Z" fill="#063885"/>
<path opacity="0.94" d="M158.033 725.499L165.788 722.597L159.685 717.001L167.491 719.762L166.413 711.553L170.618 718.686L175.069 711.704L173.705 719.871L181.603 717.383L175.308 722.763L182.958 725.934L174.677 726.009L178.499 733.355L172.108 728.09L170.313 736.174L168.801 728.033L162.23 733.071L166.305 725.863L158.033 725.499Z" fill="#063885"/>
<path opacity="0.78" d="M270.772 735.441L276.795 740.228L278.331 732.689L279.868 740.228L285.891 735.441L282.222 742.204L289.913 742.407L282.755 745.23L288.516 750.33L281.219 747.891L282.354 755.501L278.331 748.942L274.309 755.501L275.444 747.891L268.147 750.33L273.908 745.23L266.75 742.407L274.441 742.204L270.772 735.441Z" fill="#063885"/>
<path opacity="0.99" d="M292.244 734.917L288.914 731.41L287.298 735.969L287.001 731.141L282.833 733.595L285.709 729.706L280.939 728.906L285.641 727.776L282.501 724.097L286.83 726.254L286.79 721.418L288.72 725.852L291.797 722.121L290.425 726.759L295.181 725.879L291.149 728.55L295.357 730.933L290.552 730.387L292.244 734.917Z" fill="#063885"/>
</g>
<defs>
<filter id="filter0_b" x="257.138" y="568.366" width="34.1479" height="26.7068" filterUnits="userSpaceOnUse" color-interpolation-filters="sRGB">
<feFlood flood-opacity="0" result="BackgroundImageFix"/>
<feGaussianBlur in="BackgroundImage" stdDeviation="2"/>
<feComposite in2="SourceAlpha" operator="in" result="effect1_backgroundBlur"/>
<feBlend mode="normal" in="SourceGraphic" in2="effect1_backgroundBlur" result="shape"/>
</filter>
<filter id="filter1_b" x="292.8" y="574.499" width="34.1479" height="26.7068" filterUnits="userSpaceOnUse" color-interpolation-filters="sRGB">
<feFlood flood-opacity="0" result="BackgroundImageFix"/>
<feGaussianBlur in="BackgroundImage" stdDeviation="2"/>
<feComposite in2="SourceAlpha" operator="in" result="effect1_backgroundBlur"/>
<feBlend mode="normal" in="SourceGraphic" in2="effect1_backgroundBlur" result="shape"/>
</filter>
<filter id="filter2_b" x="165.751" y="371.761" width="43.3724" height="32.4622" filterUnits="userSpaceOnUse" color-interpolation-filters="sRGB">
<feFlood flood-opacity="0" result="BackgroundImageFix"/>
<feGaussianBlur in="BackgroundImage" stdDeviation="2"/>
<feComposite in2="SourceAlpha" operator="in" result="effect1_backgroundBlur"/>
<feBlend mode="normal" in="SourceGraphic" in2="effect1_backgroundBlur" result="shape"/>
</filter>
<filter id="filter3_b" x="218.718" y="367.701" width="43.3724" height="32.4622" filterUnits="userSpaceOnUse" color-interpolation-filters="sRGB">
<feFlood flood-opacity="0" result="BackgroundImageFix"/>
<feGaussianBlur in="BackgroundImage" stdDeviation="2"/>
<feComposite in2="SourceAlpha" operator="in" result="effect1_backgroundBlur"/>
<feBlend mode="normal" in="SourceGraphic" in2="effect1_backgroundBlur" result="shape"/>
</filter>
<filter id="filter4_d" x="38.8373" y="19.7173" width="289.452" height="31.2914" filterUnits="userSpaceOnUse" color-interpolation-filters="sRGB">
<feFlood flood-opacity="0" result="BackgroundImageFix"/>
<feColorMatrix in="SourceAlpha" type="matrix" values="0 0 0 0 0 0 0 0 0 0 0 0 0 0 0 0 0 0 127 0"/>
<feOffset dx="2.51012" dy="3.13765"/>
<feGaussianBlur stdDeviation="1.25506"/>
<feColorMatrix type="matrix" values="0 0 0 0 1 0 0 0 0 1 0 0 0 0 1 0 0 0 0.4 0"/>
<feBlend mode="normal" in2="BackgroundImageFix" result="effect1_dropShadow"/>
<feBlend mode="normal" in="SourceGraphic" in2="effect1_dropShadow" result="shape"/>
</filter>
<clipPath id="clip0">
<rect width="375" height="812" fill="white" transform="translate(0.262939)"/>
</clipPath>
</defs>
</svg>
