<svg width="412" height="732" viewBox="0 0 412 732" fill="none" xmlns="http://www.w3.org/2000/svg">
<g clip-path="url(#clip0)">
<rect width="411" height="731" transform="translate(0.263 0.5)" fill="#3C576A"/>
<path opacity="0.82" d="M25.3543 13.6688L24.854 8.49013L20.4651 11.2842L23.4106 6.99551L18.2526 6.31477L23.2657 4.92279L19.752 1.08581L24.487 3.24184L24.2617 -1.95602L26.503 2.73918L29.6716 -1.38742L28.3705 3.65002L33.4503 2.52556L29.2156 5.54816L33.8297 7.95199L28.6429 7.54544L30.6324 12.3528L26.9204 8.70732L25.3543 13.6688Z" fill="#063885"/>
<path opacity="0.85" d="M156.127 166.828L152.849 174.75L161.396 174.08L153.792 178.041L160.771 183.022L152.4 181.169L154.544 189.47L149.322 182.67L145.629 190.407L146 181.842L138.197 185.395L143.988 179.072L135.727 176.778L144.226 175.656L139.373 168.589L146.605 173.193L147.429 164.659L150.01 172.835L156.127 166.828Z" fill="#063885"/>
<path opacity="0.86" d="M343.577 50.759L341.672 55.3632L346.639 54.9738L342.22 57.2761L346.276 60.171L341.411 59.094L342.657 63.9186L339.622 59.9664L337.476 64.4632L337.691 59.4849L333.156 61.5499L336.522 57.875L331.72 56.5419L336.661 55.8899L333.839 51.7824L338.043 54.4584L338.522 49.4986L340.022 54.2504L343.577 50.759Z" fill="#063885"/>
<path opacity="0.74" d="M29.2197 219.315L36.3545 218.5L32.3928 212.511L38.3824 216.472L39.1976 209.337L41.2394 216.222L46.4501 211.281L43.5887 217.867L50.7567 217.431L44.3309 220.637L50.1023 224.911L43.1189 223.237L44.7931 230.22L40.5197 224.449L37.3134 230.874L37.7495 223.706L31.1629 226.568L36.1045 221.357L29.2197 219.315Z" fill="#063885"/>
<path opacity="0.88" d="M212.673 292.32L215.483 286.679L209.181 286.732L214.959 284.217L210.098 280.207L216.141 281.995L214.994 275.798L218.474 281.052L221.579 275.568L220.868 281.83L226.771 279.625L222.202 283.964L228.141 286.07L221.851 286.457L225.048 291.888L219.981 288.141L218.939 294.356L217.466 288.229L212.673 292.32Z" fill="#063885"/>
<path opacity="0.83" d="M337.449 314.591L329.55 312.987L331.701 320.755L326.681 314.448L323.336 321.782L323.545 313.724L316.268 317.192L321.608 311.153L313.804 309.132L321.776 307.938L317.097 301.375L323.971 305.584L324.606 297.548L327.167 305.192L332.818 299.444L329.866 306.945L337.89 306.175L330.807 310.023L337.449 314.591Z" fill="#063885"/>
<path opacity="0.78" d="M110.046 435.834L106.432 443.77L115.144 443.393L107.275 447.149L114.191 452.46L105.748 450.279L107.633 458.793L102.567 451.696L98.5379 459.429L99.2193 450.736L91.1619 454.07L97.2719 447.849L88.9562 445.224L97.6359 444.385L92.9529 437.03L100.141 441.966L101.282 433.321L103.615 441.723L110.046 435.834Z" fill="#063885"/>
<path opacity="0.79" d="M185.507 487.092L192.009 483.259L185.645 479.202L193.089 480.445L190.822 473.246L195.726 478.984L198.616 472.012L198.684 479.559L205.38 476.076L200.581 481.902L207.95 483.538L200.529 484.915L205.122 490.905L198.551 487.19L198.22 494.731L195.574 487.662L190.473 493.225L192.99 486.109L185.507 487.092Z" fill="#063885"/>
<path opacity="0.72" d="M399.36 396.683L394.851 403.008L402.533 404.159L395.014 406.106L400.159 411.925L393.147 408.583L393.348 416.348L390.124 409.281L385.287 415.358L387.36 407.873L379.748 409.419L386.148 405.017L379.323 401.309L387.055 402.051L384.211 394.823L389.657 400.361L392.124 392.996L392.736 400.739L399.36 396.683Z" fill="#063885"/>
<path opacity="0.89" d="M12.9601 569.517L18.2106 571.583L17.6716 565.967L20.3655 570.925L23.5629 566.275L22.4397 571.805L27.8774 570.299L23.4627 573.813L28.5963 576.154L22.9558 576.008L25.3833 581.102L21.1562 577.364L19.7417 582.827L18.9059 577.247L14.3113 580.522L17.2579 575.71L11.6331 575.265L16.9833 573.473L12.9601 569.517Z" fill="#063885"/>
<path opacity="0.79" d="M133.453 663.433L131.994 658.516L128.272 662.045L130.316 657.341L125.196 657.652L129.786 655.362L125.664 652.309L130.652 653.505L129.456 648.517L132.508 652.64L134.798 648.05L134.487 653.17L139.192 651.126L135.662 654.848L140.58 656.306L135.483 656.889L138.313 661.167L134.035 658.337L133.453 663.433Z" fill="#063885"/>
<path opacity="0.82" d="M294.833 570.935L292.973 565.686L289.138 569.724L291.087 564.507L285.553 565.136L290.399 562.392L285.756 559.316L291.233 560.33L289.653 554.989L293.196 559.285L295.419 554.179L295.372 559.748L300.357 557.265L296.741 561.5L302.156 562.802L296.663 563.723L299.975 568.201L295.175 565.376L294.833 570.935Z" fill="#063885"/>
<g opacity="0.78">
<path d="M261.825 139.265C261.825 175.933 232.099 205.658 195.431 205.658C158.763 205.658 129.038 175.933 129.038 139.265C129.038 102.597 158.763 72.8715 195.431 72.8715C232.099 72.8715 261.825 102.597 261.825 139.265Z" fill="#4E4949"/>
<path fill-rule="evenodd" clip-rule="evenodd" d="M195.431 202.862C230.601 202.862 259.06 174.36 259.06 139.265C259.06 104.169 230.601 75.667 195.431 75.667C160.262 75.667 131.803 104.169 131.803 139.265C131.803 174.36 160.262 202.862 195.431 202.862ZM195.431 205.658C232.099 205.658 261.825 175.933 261.825 139.265C261.825 102.597 232.099 72.8715 195.431 72.8715C158.763 72.8715 129.038 102.597 129.038 139.265C129.038 175.933 158.763 205.658 195.431 205.658Z" fill="black"/>
<path d="M248.546 139.265C248.546 168.599 224.766 192.379 195.431 192.379C166.097 192.379 142.317 168.599 142.317 139.265C142.317 109.93 166.097 86.1501 195.431 86.1501C224.766 86.1501 248.546 109.93 248.546 139.265Z" fill="#525252"/>
<path fill-rule="evenodd" clip-rule="evenodd" d="M195.431 190.702C223.867 190.702 246.887 167.655 246.887 139.265C246.887 110.874 223.867 87.8274 195.431 87.8274C166.996 87.8274 143.976 110.874 143.976 139.265C143.976 167.655 166.996 190.702 195.431 190.702ZM195.431 192.379C224.766 192.379 248.546 168.599 248.546 139.265C248.546 109.93 224.766 86.1501 195.431 86.1501C166.097 86.1501 142.317 109.93 142.317 139.265C142.317 168.599 166.097 192.379 195.431 192.379Z" fill="black"/>
<path d="M219.702 116.437C223.67 109.533 224.954 106.382 229.414 100.382C223.915 95.9394 221.174 93.564 213.571 91.0899C209.833 97.2536 206.433 100.247 202.199 106.348C196.66 107.071 193.781 108.692 189.267 114.897C187.584 118.258 187.545 119.911 189.255 122.389C183.917 125.925 183.801 129.482 189.329 132.907C190.72 136.756 192.235 137.923 196.073 138.463C199.735 141.329 201.23 141.5 204.275 139.966C208.98 143.338 211.106 141.663 214.301 134.53C217.461 125.917 219.638 120.482 218.77 117.902C219.4 117.35 219.546 117.025 219.702 116.437Z" fill="#0116D1"/>
<path fill-rule="evenodd" clip-rule="evenodd" d="M213.511 90.9232L213.614 90.9568C220.929 93.3373 223.764 95.6321 228.836 99.7362C229.054 99.9119 229.275 100.091 229.5 100.273L229.605 100.358L229.525 100.466C226.312 104.788 224.753 107.624 222.643 111.463C221.829 112.943 220.934 114.571 219.831 116.491C219.754 116.781 219.674 117.019 219.532 117.256C219.398 117.479 219.211 117.692 218.93 117.946C219.13 118.605 219.147 119.423 219.02 120.395C218.887 121.413 218.595 122.612 218.179 123.994C217.49 126.28 216.456 129.083 215.226 132.419C214.969 133.116 214.704 133.835 214.431 134.578L214.429 134.583L214.427 134.587C213.627 136.373 212.892 137.823 212.164 138.94C211.437 140.056 210.71 140.849 209.924 141.309C208.345 142.233 206.591 141.782 204.263 140.129C202.769 140.873 201.618 141.215 200.382 141.002C199.14 140.788 197.835 140.016 196.018 138.597C194.11 138.325 192.752 137.893 191.697 137.035C190.644 136.177 189.91 134.908 189.216 133.001C186.471 131.291 185.074 129.518 185.079 127.689C185.085 125.881 186.462 124.098 189.062 122.351C188.251 121.151 187.844 120.119 187.851 118.973C187.857 117.796 188.3 116.518 189.144 114.833L189.15 114.823L189.156 114.814C191.417 111.706 193.277 109.734 195.275 108.449C197.26 107.172 199.371 106.581 202.122 106.218C203.935 103.61 205.595 101.568 207.193 99.6043C207.451 99.2861 207.709 98.97 207.965 98.6539C209.81 96.3741 211.589 94.0906 213.454 91.0168L213.511 90.9232ZM213.633 91.2566C211.779 94.2994 210.008 96.571 208.179 98.8309C207.922 99.1478 207.665 99.4644 207.405 99.7828C205.798 101.759 204.133 103.806 202.313 106.429L202.278 106.479L202.218 106.487C199.458 106.847 197.376 107.429 195.423 108.685C193.47 109.941 191.636 111.878 189.386 114.97C188.55 116.641 188.133 117.868 188.127 118.975C188.121 120.078 188.522 121.083 189.369 122.309L189.45 122.427L189.331 122.506C186.669 124.27 185.361 126.007 185.356 127.69C185.351 129.371 186.645 131.08 189.401 132.788L189.442 132.813L189.459 132.859C190.151 134.775 190.867 136 191.871 136.817C192.874 137.633 194.182 138.056 196.093 138.325L196.129 138.33L196.158 138.353C197.988 139.784 199.253 140.524 200.429 140.727C201.597 140.928 202.699 140.604 204.214 139.841L204.288 139.804L204.355 139.852C206.699 141.532 208.342 141.912 209.785 141.067C210.518 140.638 211.216 139.885 211.933 138.786C212.649 137.689 213.376 136.256 214.173 134.476C214.446 133.733 214.711 133.014 214.968 132.319C216.198 128.982 217.228 126.19 217.914 123.913C218.329 122.537 218.616 121.355 218.746 120.359C218.876 119.361 218.847 118.562 218.64 117.947L218.61 117.858L218.68 117.796C218.989 117.525 219.171 117.317 219.296 117.11C219.42 116.904 219.492 116.691 219.569 116.401L219.573 116.383L219.583 116.367C220.684 114.45 221.58 112.821 222.394 111.339C224.491 107.524 226.053 104.684 229.223 100.407C229.034 100.254 228.848 100.103 228.664 99.9551C223.623 95.8759 220.822 93.6092 213.633 91.2566Z" fill="black"/>
<path fill-rule="evenodd" clip-rule="evenodd" d="M211.478 109.131L216.953 101.556L217.176 101.721L211.702 109.296L211.478 109.131ZM212.386 109.406L215.27 105.538L215.491 105.707L212.607 109.574L212.386 109.406ZM208.674 108.968C207.034 108.145 206.021 107.734 204.071 107.065L204.159 106.8C206.119 107.472 207.143 107.888 208.797 108.717L208.674 108.968ZM216.756 115.661C215.353 114.032 214.463 113.176 212.765 111.705L212.945 111.493C214.651 112.97 215.551 113.835 216.965 115.478L216.756 115.661ZM203.385 119.278C201.425 119.718 199.572 119.617 197.305 118.995L197.378 118.725C199.611 119.338 201.417 119.434 203.325 119.005C205.238 118.575 207.261 117.615 209.924 116.101L210.06 116.345C207.393 117.861 205.34 118.838 203.385 119.278ZM195.366 117.639C195.394 117.458 195.395 117.299 195.365 117.142C195.331 116.958 195.258 116.786 195.156 116.59L194.912 116.722C195.009 116.907 195.067 117.05 195.094 117.193C195.119 117.333 195.117 117.481 195.079 117.677L194.877 118.354C194.767 118.327 194.655 118.307 194.542 118.293C193.966 118.225 193.346 118.324 192.652 118.559L192.74 118.824C193.411 118.596 193.988 118.509 194.509 118.571C195.028 118.633 195.503 118.845 195.968 119.235C196.908 120.021 197.804 121.52 198.928 123.934C199.104 124.424 199.015 125.011 198.739 125.602C198.463 126.194 198.007 126.772 197.482 127.227C196.956 127.683 196.373 128.005 195.846 128.101C195.326 128.195 194.873 128.069 194.56 127.64C193.852 126.665 192.475 125.241 191.282 124.065C190.684 123.476 190.131 122.948 189.726 122.566C189.524 122.375 189.359 122.222 189.245 122.115C189.188 122.062 189.143 122.021 189.113 121.993L189.079 121.961L189.067 121.95C189.067 121.95 189.067 121.95 188.974 122.054C188.881 122.157 188.881 122.157 188.881 122.157L188.881 122.158L188.892 122.168L188.927 122.199C188.957 122.227 189.001 122.268 189.058 122.321C189.172 122.427 189.336 122.58 189.538 122.771C189.941 123.151 190.493 123.678 191.089 124.265C192.284 125.443 193.644 126.852 194.338 127.805C194.726 128.34 195.297 128.484 195.895 128.376C196.486 128.269 197.114 127.915 197.662 127.439C198.212 126.962 198.694 126.354 198.989 125.721C199.283 125.091 199.399 124.42 199.186 123.832L199.184 123.827L199.181 123.821C198.794 122.989 198.431 122.259 198.081 121.625L198.118 121.661L198.428 121.328C199.672 121.581 200.506 121.889 201.112 122.394C201.697 122.881 202.084 123.564 202.41 124.602L202.397 124.629C199.734 130.343 197.963 133.746 195.655 137.295L195.886 137.448C198.189 133.908 199.958 130.513 202.593 124.864L202.602 124.863C203.87 124.767 204.757 124.865 205.471 125.229C206.176 125.588 206.733 126.217 207.32 127.231C207.294 129.289 207.139 130.948 206.623 132.757C206.104 134.58 205.216 136.563 203.715 139.264L203.956 139.401C205.462 136.691 206.361 134.687 206.889 132.835C207.407 131.019 207.566 129.354 207.595 127.324C208.663 127.246 209.542 127.333 210.245 127.608C210.971 127.893 211.516 128.379 211.891 129.109C212.268 129.844 212.475 130.831 212.508 132.115C212.541 133.399 212.4 134.972 212.088 136.872L212.361 136.918C212.675 135.009 212.818 133.417 212.784 132.108C212.751 130.801 212.54 129.767 212.136 128.981C211.731 128.19 211.134 127.657 210.345 127.348C209.581 127.048 208.643 126.963 207.534 127.048C206.944 126.038 206.359 125.368 205.595 124.979C204.837 124.592 203.922 124.492 202.691 124.576C202.355 123.48 201.942 122.723 201.288 122.178C200.627 121.628 199.735 121.308 198.474 121.052C198.071 120.233 197.698 119.62 197.218 119.089C196.742 118.563 196.166 118.123 195.366 117.639ZM198.214 121.151C197.821 120.356 197.464 119.776 197.014 119.278C196.576 118.794 196.044 118.38 195.294 117.922L195.142 118.433C195.491 118.555 195.822 118.75 196.145 119.019C196.758 119.532 197.343 120.321 197.964 121.418L198.214 121.151ZM201.514 121.487C205.644 123.169 208.779 124.196 212.949 123.491L212.995 123.767C208.745 124.485 205.549 123.432 201.41 121.746L201.514 121.487ZM191.298 128.681C191.877 127.775 192.394 127.1 193.215 126.507L193.375 126.734C192.596 127.298 192.102 127.939 191.531 128.832C191.362 129.096 191.187 129.381 190.996 129.693C190.539 130.438 189.99 131.332 189.228 132.423L189.003 132.262C189.76 131.178 190.3 130.297 190.756 129.554C190.949 129.24 191.126 128.95 191.298 128.681Z" fill="black"/>
<path d="M188.336 173.502C184.213 180.312 182.854 181.448 179.226 188.173C176.239 187.104 170.913 185.377 162.586 179.327C166.174 173.073 167.941 169.391 171.24 162.725C169.236 157.453 169.279 154.122 172.534 147.158C174.659 144.063 176.08 143.243 179.049 143.587C179.59 137.158 182.63 135.365 188.238 138.655C192.248 138.064 193.984 138.858 196.278 142.015C200.511 143.911 201.37 145.16 201.483 148.597C206.653 151.181 206.206 153.868 201.516 160.1C195.522 167.003 191.826 171.523 189.168 171.977C188.987 172.799 188.774 173.084 188.336 173.502Z" fill="#950000"/>
<path fill-rule="evenodd" clip-rule="evenodd" d="M162.404 179.367L162.506 179.441C170.434 185.2 175.65 187.051 178.716 188.14C178.877 188.197 179.031 188.252 179.18 188.305L179.291 188.345L179.348 188.24C181.159 184.882 182.404 182.92 183.711 180.947C183.941 180.599 184.174 180.25 184.412 179.893C185.522 178.23 186.75 176.389 188.444 173.59C188.66 173.384 188.83 173.2 188.968 172.961C189.098 172.736 189.196 172.468 189.283 172.098C189.951 171.962 190.671 171.588 191.457 171.014C192.28 170.412 193.184 169.582 194.189 168.555C195.852 166.857 197.8 164.605 200.118 161.925C200.602 161.366 201.103 160.788 201.62 160.192L201.623 160.188L201.626 160.185C202.8 158.624 203.712 157.281 204.338 156.103C204.963 154.926 205.308 153.902 205.335 152.985C205.389 151.141 204.163 149.795 201.618 148.509C201.557 146.826 201.308 145.64 200.535 144.642C199.758 143.639 198.466 142.844 196.368 141.902C195.224 140.334 194.204 139.331 192.955 138.801C191.708 138.271 190.255 138.221 188.265 138.51C185.473 136.88 183.266 136.48 181.677 137.354C180.107 138.217 179.209 140.29 178.924 143.433C177.494 143.282 176.403 143.41 175.409 143.96C174.387 144.526 173.486 145.527 172.421 147.079L172.414 147.088L172.409 147.099C170.779 150.586 169.946 153.178 169.777 155.566C169.609 157.939 170.098 160.098 171.089 162.717C170.787 163.328 170.497 163.914 170.218 164.479C167.467 170.048 165.713 173.598 162.467 179.257L162.404 179.367ZM162.769 179.288C165.979 173.685 167.732 170.137 170.465 164.604C170.753 164.022 171.051 163.418 171.363 162.787L171.391 162.732L171.369 162.675C170.371 160.049 169.888 157.92 170.053 155.586C170.218 153.252 171.033 150.699 172.654 147.228C173.711 145.69 174.581 144.737 175.541 144.206C176.499 143.676 177.564 143.556 179.034 143.726L179.175 143.742L179.187 143.599C179.457 140.392 180.347 138.404 181.809 137.599C183.27 136.796 185.372 137.135 188.168 138.776L188.21 138.8L188.257 138.793C190.254 138.499 191.66 138.554 192.848 139.058C194.035 139.563 195.025 140.526 196.167 142.098L196.188 142.128L196.222 142.143C198.337 143.09 199.582 143.865 200.317 144.814C201.047 145.757 201.289 146.892 201.345 148.602L201.348 148.685L201.422 148.722C203.997 150.01 205.108 151.29 205.059 152.976C205.034 153.832 204.711 154.811 204.095 155.971C203.479 157.129 202.578 158.457 201.409 160.011C200.891 160.607 200.392 161.185 199.908 161.743C197.589 164.423 195.649 166.667 193.993 168.359C192.992 169.381 192.1 170.198 191.295 170.787C190.489 171.377 189.78 171.731 189.145 171.839L189.053 171.855L189.033 171.946C188.944 172.35 188.85 172.611 188.729 172.82C188.608 173.029 188.457 173.194 188.241 173.4L188.228 173.413L188.218 173.429C186.522 176.23 185.295 178.07 184.183 179.736C183.945 180.093 183.712 180.443 183.481 180.792C182.184 182.75 180.947 184.698 179.161 188.002C179.047 187.961 178.929 187.919 178.808 187.876C175.765 186.796 170.608 184.966 162.769 179.288Z" fill="black"/>
<path fill-rule="evenodd" clip-rule="evenodd" d="M178.071 169.657L174.08 178.127L174.329 178.247L178.321 169.777L178.071 169.657ZM178.741 170.334L176.746 174.738L176.997 174.854L178.993 170.45L178.741 170.334ZM176.596 167.24C175.101 166.171 174.262 165.466 172.753 164.049L172.565 164.253C174.081 165.678 174.929 166.391 176.436 167.468L176.596 167.24ZM186.262 171.249C184.177 170.776 183.009 170.391 180.923 169.579L180.823 169.84C182.92 170.655 184.1 171.045 186.201 171.522L186.262 171.249ZM183.056 157.636C182.508 155.683 181.539 154.083 179.92 152.362L179.72 152.555C181.315 154.25 182.257 155.811 182.79 157.712C183.324 159.618 183.451 161.874 183.398 164.963L183.675 164.968C183.727 161.874 183.602 159.584 183.056 157.636ZM177.82 151.28C177.675 151.391 177.537 151.468 177.386 151.516C177.21 151.573 177.025 151.59 176.807 151.592L176.805 151.312C177.012 151.311 177.165 151.295 177.302 151.25C177.436 151.207 177.563 151.134 177.716 151.007L178.209 150.506C178.133 150.421 178.063 150.331 177.997 150.236C177.664 149.757 177.455 149.159 177.33 148.429L177.603 148.381C177.724 149.087 177.921 149.641 178.223 150.076C178.524 150.508 178.934 150.829 179.494 151.058C180.625 151.521 182.355 151.605 184.991 151.458C185.5 151.382 185.969 151.024 186.352 150.498C186.736 149.971 187.022 149.291 187.169 148.608C187.316 147.923 187.319 147.251 187.152 146.737C186.987 146.229 186.662 145.886 186.14 145.812C184.955 145.644 183.061 145.097 181.471 144.594C180.675 144.342 179.952 144.101 179.428 143.922C179.165 143.833 178.953 143.76 178.806 143.708C178.733 143.683 178.676 143.663 178.637 143.649L178.593 143.634L178.578 143.628C178.578 143.628 178.578 143.628 178.624 143.496C178.67 143.364 178.67 143.364 178.67 143.364L178.671 143.365L178.684 143.37L178.728 143.385C178.767 143.399 178.823 143.419 178.897 143.444C179.043 143.495 179.254 143.568 179.516 143.657C180.038 143.835 180.76 144.076 181.554 144.327C183.146 144.831 185.019 145.371 186.178 145.535C186.828 145.627 187.225 146.066 187.415 146.649C187.602 147.226 187.593 147.953 187.439 148.667C187.286 149.383 186.985 150.101 186.575 150.663C186.166 151.224 185.637 151.647 185.024 151.736L185.018 151.737L185.012 151.737C184.104 151.788 183.296 151.812 182.578 151.802L182.627 151.818L182.485 152.252C183.296 153.238 183.961 153.834 184.687 154.133C185.389 154.422 186.168 154.442 187.226 154.238L187.243 154.214C190.951 149.131 193.071 145.938 195.062 142.198L195.306 142.331C193.319 146.062 191.205 149.249 187.541 154.277L187.544 154.285C188.063 155.459 188.569 156.201 189.226 156.664C189.874 157.12 190.686 157.317 191.847 157.357C193.626 156.356 194.996 155.431 196.325 154.112C197.665 152.783 198.969 151.051 200.606 148.433L200.84 148.582C199.197 151.209 197.88 152.961 196.519 154.311C195.184 155.635 193.812 156.567 192.058 157.558C192.498 158.545 192.992 159.286 193.566 159.781C194.158 160.291 194.84 160.545 195.654 160.531C196.472 160.518 197.429 160.233 198.563 159.652C199.696 159.071 200.998 158.199 202.503 157.019L202.673 157.24C201.16 158.425 199.843 159.31 198.688 159.901C197.534 160.493 196.534 160.796 195.658 160.811C194.778 160.826 194.03 160.548 193.386 159.993C192.762 159.455 192.242 158.661 191.789 157.635C190.63 157.59 189.769 157.387 189.068 156.893C188.371 156.402 187.849 155.636 187.337 154.501C186.223 154.723 185.368 154.715 184.583 154.392C183.79 154.065 183.088 153.424 182.266 152.424C181.362 152.455 180.651 152.414 179.961 152.239C179.277 152.066 178.62 151.763 177.82 151.28ZM182.228 152.146C181.351 152.174 180.676 152.132 180.028 151.968C179.399 151.808 178.786 151.532 178.032 151.083L178.403 150.704C178.676 150.956 179.003 151.159 179.39 151.317C180.128 151.619 181.093 151.765 182.342 151.797L182.228 152.146ZM184.089 154.922C187.516 157.797 189.899 160.098 191.267 164.142L191.528 164.052C190.134 159.93 187.699 157.587 184.265 154.706L184.089 154.922ZM185.496 142.416C184.983 143.361 184.641 144.141 184.515 145.153L184.789 145.188C184.909 144.227 185.232 143.483 185.738 142.55C185.887 142.275 186.053 141.984 186.233 141.665C186.664 140.905 187.182 139.992 187.769 138.796L187.521 138.672C186.938 139.86 186.428 140.76 185.998 141.518C185.816 141.839 185.648 142.134 185.496 142.416Z" fill="black"/>
<path d="M180.455 83.7285C179.624 83.6793 178.993 83.5307 178.562 83.2829C178.134 83.0311 177.866 82.6623 177.758 82.1765C177.635 81.6268 177.751 81.1237 178.104 80.6671C178.46 80.2067 178.986 79.8973 179.681 79.739C180.155 79.6311 180.598 79.6277 181.009 79.7289C181.423 79.8294 181.768 80.0196 182.043 80.2995C182.321 80.5787 182.503 80.9117 182.589 81.2984L181.674 81.5067C181.58 81.0848 181.373 80.7843 181.055 80.605C180.735 80.4226 180.333 80.3864 179.85 80.4965C179.401 80.5987 179.072 80.7792 178.864 81.0381C178.659 81.2931 178.595 81.598 178.674 81.9527C178.738 82.2372 178.91 82.4515 179.191 82.5957C179.475 82.7359 179.921 82.8225 180.529 82.8552C181.141 82.8873 181.63 82.9657 181.997 83.0904C182.366 83.2113 182.657 83.3851 182.87 83.6119C183.086 83.838 183.234 84.1284 183.313 84.4832C183.439 85.0489 183.322 85.5523 182.962 85.9936C182.601 86.4317 182.056 86.7338 181.325 86.9C180.851 87.008 180.388 87.0176 179.937 86.929C179.485 86.8371 179.111 86.657 178.815 86.3885C178.523 86.1192 178.331 85.7817 178.241 85.3758L179.156 85.1675C179.25 85.5893 179.478 85.8884 179.839 86.0647C180.203 86.2371 180.643 86.2647 181.158 86.1474C181.638 86.038 181.985 85.8551 182.196 85.5987C182.408 85.3422 182.476 85.043 182.4 84.7011C182.324 84.3591 182.147 84.1224 181.868 83.991C181.589 83.8564 181.118 83.7689 180.455 83.7285Z" fill="white"/>
<path d="M213.955 84.0444L210.991 83.2471L210.347 85.6975L213.789 86.6237L213.593 87.3692L209.249 86.2004L211.068 79.2863L215.366 80.4424L215.168 81.1927L211.773 80.2792L211.188 82.5016L214.151 83.2989L213.955 84.0444Z" fill="white"/>
<path d="M195.538 81.05L197.385 77.4579H198.445L196.005 81.9443V84.6126H195.072V81.9443L192.632 77.4579H193.701L195.538 81.05Z" fill="white"/>
<path d="M206.216 85.553L205.286 85.427L202.479 79.484L201.755 84.9486L200.825 84.8226L201.765 77.7313L202.695 77.8572L205.508 83.826L206.236 78.337L207.156 78.4617L206.216 85.553Z" fill="white"/>
<path d="M190.076 81.7106L187.036 82.1152L187.363 84.6291L190.895 84.1591L190.995 84.924L186.537 85.5171L185.614 78.4235L190.023 77.8369L190.123 78.6066L186.639 79.0702L186.936 81.3503L189.977 80.9457L190.076 81.7106Z" fill="white"/>
<path d="M172.21 194.566C171.957 195.147 171.595 195.545 171.124 195.759C170.656 195.97 170.115 195.981 169.5 195.791C168.834 195.585 168.373 195.178 168.116 194.57C167.862 193.963 167.858 193.255 168.103 192.446L168.269 191.898C168.43 191.368 168.664 190.931 168.972 190.586C169.282 190.243 169.641 190.017 170.049 189.91C170.458 189.799 170.889 189.814 171.341 189.954C171.94 190.139 172.368 190.458 172.627 190.909C172.886 191.358 172.955 191.89 172.834 192.506L172.086 192.275C172.159 191.801 172.118 191.428 171.963 191.157C171.81 190.887 171.54 190.693 171.153 190.573C170.678 190.425 170.251 190.487 169.873 190.758C169.497 191.03 169.209 191.494 169.011 192.149L168.844 192.701C168.656 193.32 168.635 193.851 168.78 194.296C168.925 194.74 169.227 195.034 169.686 195.176C170.099 195.304 170.444 195.308 170.721 195.188C171 195.066 171.248 194.782 171.462 194.334L172.21 194.566Z" fill="white"/>
<path d="M210.846 194.085L209.011 194.566L210.332 199.711L209.583 199.907L208.263 194.763L206.432 195.243L206.271 194.617L210.685 193.458L210.846 194.085Z" fill="white"/>
<path d="M186.104 198.389L185.834 200.707L185.062 200.615L185.751 194.694L187.911 194.951C188.552 195.027 189.034 195.252 189.358 195.626C189.684 196 189.815 196.46 189.752 197.005C189.685 197.58 189.455 198.002 189.062 198.271C188.672 198.538 188.146 198.632 187.484 198.553L186.104 198.389ZM186.178 197.751L187.566 197.916C187.979 197.965 188.307 197.905 188.549 197.736C188.792 197.564 188.935 197.293 188.979 196.921C189.02 196.569 188.942 196.274 188.747 196.036C188.552 195.798 188.263 195.653 187.88 195.599L186.448 195.429L186.178 197.751Z" fill="white"/>
<path d="M181.68 197.225L180.322 196.95L179.854 199.315L179.087 199.16L180.244 193.313L182.159 193.701C182.81 193.832 183.281 194.084 183.571 194.454C183.864 194.825 183.953 195.297 183.84 195.87C183.768 196.234 183.607 196.531 183.358 196.762C183.111 196.993 182.801 197.141 182.428 197.205L183.295 199.961L183.285 200.009L182.467 199.844L181.68 197.225ZM180.447 196.319L181.618 196.556C181.997 196.633 182.317 196.595 182.578 196.442C182.843 196.289 183.008 196.047 183.073 195.715C183.145 195.354 183.093 195.055 182.916 194.819C182.743 194.583 182.455 194.423 182.053 194.339L180.885 194.103L180.447 196.319Z" fill="white"/>
<path d="M198.797 199.053H197.412V201.465H196.631V195.502H198.583C199.247 195.502 199.757 195.655 200.114 195.961C200.473 196.267 200.652 196.712 200.652 197.296C200.652 197.667 200.553 197.991 200.353 198.266C200.156 198.542 199.88 198.748 199.527 198.885L200.912 201.415V201.465H200.077L198.797 199.053ZM197.412 198.41H198.607C198.993 198.41 199.3 198.309 199.527 198.107C199.756 197.905 199.871 197.634 199.871 197.296C199.871 196.927 199.761 196.645 199.543 196.448C199.327 196.252 199.013 196.152 198.603 196.149H197.412V198.41Z" fill="white"/>
<path d="M178.272 195.719C178.147 196.289 177.942 196.766 177.659 197.15C177.376 197.531 177.036 197.794 176.639 197.94C176.242 198.086 175.811 198.106 175.347 198.002C174.894 197.9 174.516 197.698 174.215 197.396C173.914 197.09 173.712 196.708 173.608 196.248C173.508 195.787 173.515 195.281 173.631 194.731L173.723 194.311C173.846 193.751 174.051 193.279 174.337 192.893C174.624 192.507 174.968 192.24 175.368 192.092C175.772 191.942 176.2 191.918 176.653 192.02C177.115 192.124 177.496 192.328 177.797 192.634C178.101 192.937 178.3 193.324 178.396 193.796C178.492 194.265 178.478 194.783 178.353 195.351L178.272 195.719ZM177.599 195.173C177.751 194.483 177.73 193.923 177.537 193.494C177.344 193.062 177.001 192.791 176.508 192.68C176.029 192.572 175.61 192.672 175.252 192.981C174.897 193.287 174.643 193.767 174.491 194.421L174.397 194.848C174.25 195.517 174.273 196.075 174.465 196.521C174.661 196.964 175.003 197.241 175.49 197.351C175.981 197.461 176.4 197.366 176.748 197.067C177.096 196.765 177.348 196.278 177.505 195.605L177.599 195.173Z" fill="white"/>
<path d="M219.888 192.876C220.072 193.43 220.141 193.945 220.095 194.422C220.048 194.896 219.891 195.299 219.626 195.632C219.36 195.964 219.003 196.207 218.552 196.36C218.112 196.51 217.686 196.534 217.273 196.432C216.859 196.328 216.491 196.107 216.167 195.767C215.845 195.425 215.593 194.988 215.41 194.457L215.274 194.049C215.093 193.506 215.027 192.994 215.075 192.514C215.123 192.034 215.281 191.626 215.548 191.29C215.817 190.951 216.171 190.706 216.612 190.557C217.059 190.404 217.49 190.38 217.904 190.484C218.319 190.585 218.688 190.812 219.011 191.166C219.333 191.517 219.586 191.968 219.769 192.519L219.888 192.876ZM219.034 192.761C218.81 192.091 218.506 191.623 218.121 191.356C217.735 191.087 217.303 191.034 216.825 191.197C216.359 191.355 216.052 191.66 215.903 192.111C215.755 192.559 215.784 193.102 215.988 193.741L216.126 194.157C216.343 194.806 216.647 195.271 217.04 195.553C217.434 195.83 217.868 195.888 218.342 195.727C218.818 195.565 219.128 195.265 219.273 194.827C219.417 194.387 219.383 193.838 219.173 193.18L219.034 192.761Z" fill="white"/>
<path d="M195.364 198.676C195.364 199.26 195.267 199.771 195.073 200.207C194.878 200.641 194.603 200.973 194.246 201.202C193.89 201.432 193.474 201.546 192.999 201.546C192.535 201.546 192.123 201.432 191.764 201.202C191.405 200.97 191.125 200.641 190.925 200.216C190.728 199.787 190.627 199.291 190.621 198.729V198.299C190.621 197.726 190.72 197.219 190.917 196.78C191.114 196.34 191.392 196.005 191.751 195.773C192.113 195.538 192.526 195.42 192.991 195.42C193.463 195.42 193.879 195.536 194.238 195.768C194.6 195.998 194.878 196.332 195.073 196.772C195.267 197.208 195.364 197.718 195.364 198.299V198.676ZM194.591 198.291C194.591 197.584 194.45 197.042 194.169 196.665C193.889 196.286 193.496 196.096 192.991 196.096C192.499 196.096 192.112 196.286 191.828 196.665C191.548 197.042 191.403 197.566 191.395 198.238V198.676C191.395 199.361 191.537 199.9 191.82 200.293C192.107 200.684 192.499 200.879 192.999 200.879C193.501 200.879 193.89 200.695 194.165 200.326C194.441 199.955 194.583 199.424 194.591 198.733V198.291Z" fill="white"/>
<path d="M205.531 199.181L203.092 199.582L202.792 201.208L202.001 201.339L203.275 195.088L203.947 194.977L207.122 200.495L206.334 200.625L205.531 199.181ZM203.221 198.905L205.2 198.58L203.765 195.99L203.221 198.905Z" fill="white"/>
<path d="M226.594 192.637L225.904 193.007L221.153 190.352L223.28 194.412L222.589 194.782L219.829 189.513L220.52 189.143L225.287 191.812L223.151 187.734L223.834 187.368L226.594 192.637Z" fill="white"/>
<path d="M215.04 197.99L214.294 198.213L212.627 192.494L213.372 192.272L215.04 197.99Z" fill="white"/>
</g>
<g opacity="0.5">
<g filter="url(#filter0_b)">
<path d="M320.721 661.336C313.254 661.7 308.747 664.515 300.588 670.957M320.767 660.886C311.62 659.786 306.547 662.149 297.516 667.23M320.883 660.213C312.436 658.238 306.627 659.15 295.123 662.926" stroke="black" stroke-width="3" stroke-linecap="round"/>
</g>
<g filter="url(#filter1_b)">
<path d="M338.557 664.404C345.474 667.241 348.781 671.401 354.319 680.198M338.663 663.964C347.652 665.983 351.644 669.905 358.46 677.711M338.779 663.291C347.401 664.251 352.572 667.052 362.152 674.455" stroke="black" stroke-width="3" stroke-linecap="round"/>
</g>
<path fill-rule="evenodd" clip-rule="evenodd" d="M312.604 639.303C321.727 639.286 326.777 641.741 324.548 648.243C324.566 647.774 324.463 647.516 324.068 647.073C317.687 647.689 315.665 645.552 315.385 640.44C314.948 639.79 314.191 639.588 312.604 639.303ZM316.769 642.421C316.506 642.084 316.424 642.161 316.501 642.558C317.44 645.734 319.044 646.844 322.252 645.584C322.649 645.428 322.534 645.26 322.164 645.324C318.958 646.056 317.885 644.828 316.769 642.421Z" fill="#252324"/>
<ellipse cx="318.8" cy="642.653" rx="0.764244" ry="0.679948" transform="rotate(9.75878 318.8 642.653)" fill="#0594A7"/>
<path fill-rule="evenodd" clip-rule="evenodd" d="M364.684 647.662C365.329 655.651 362.97 660.103 355.104 668.008C356.893 663.851 356.094 662.254 352.46 660.303C349.859 659.052 348.285 658.439 345.202 657.555C337.975 654.775 335.807 652.546 337.101 646.73C337.541 636.832 333.93 631.398 322.663 629.803C318.181 628.49 317.22 626.933 316.748 623.497C316.038 614.838 314.963 610.928 309.691 607.174C307.79 606.049 306.193 606.255 305.128 608.268C302.175 612.671 301.874 617.558 303.663 625.667C301.963 631.213 301.922 633.977 303.424 638.294C301.384 641.905 301.448 644.698 302.715 650.412C300.512 645.674 300.041 642.938 301.744 637.789C300.338 632.996 300.401 630.371 301.654 625.772C300.331 614.864 300.889 610.286 304.766 605.529C306.367 604.154 307.404 604.087 309.336 604.39C314.531 607.586 317.106 611.211 320.137 615.478C321.087 616.815 322.082 618.215 323.217 619.686C333.442 617.46 339.253 618.308 349.76 623.685C356.248 618.316 359.953 616.199 366.69 614.084C369.976 613.921 371.001 614.536 371.889 616.451C374.04 625.238 372.662 630.771 366.384 641.535C365.167 643.792 364.827 645.142 364.684 647.662ZM366.104 638.419C363.572 640.572 361.898 639.514 361.357 635.827C360.984 634.664 360.143 634.334 357.575 634.289C353.069 636.373 349.135 629.314 353.734 625.027C358.763 620.115 361.705 618.1 367.28 616.48C368.757 616.222 369.349 616.492 369.931 617.806C371.084 625.169 370.196 629.501 366.104 638.419ZM350.856 646.877C351.268 646.488 351.443 646.583 351.252 647.163C348.107 651.736 345.316 653.124 340.206 650.309C339.674 649.93 339.822 649.767 340.395 649.987C345.3 652.188 347.788 651.258 350.856 646.877ZM348.269 647.95C348.474 647.602 348.423 647.501 348.063 647.732C346.207 649.628 344.786 650.426 342.008 648.665C341.681 648.481 341.516 648.601 341.838 648.88C344.441 651.14 346.324 650.629 348.269 647.95ZM352.384 646.5C343.59 644.254 340.566 645.011 339.162 650.596C339.098 650.971 338.919 650.957 338.889 650.549C339.005 644.199 343.91 642.242 352.66 646.208C353.274 646.486 353.137 646.74 352.384 646.5Z" fill="#252324"/>
<ellipse cx="343.053" cy="646.785" rx="0.722433" ry="0.666429" transform="rotate(9.75878 343.053 646.785)" fill="#0594A7"/>
<path d="M329.075 666.242C329.026 665.884 329.049 665.607 329.147 665.027C329.058 664.879 328.99 664.856 328.822 664.971C328.763 665.446 328.702 665.713 328.484 666.194C326.259 667.829 323.136 667.7 320.454 665.891C323.074 668.24 325.555 668.269 328.718 667.523C331.064 669.524 334.408 669.802 336.848 668.71C333.821 669.582 330.467 668.632 329.075 666.242Z" fill="#252324"/>
<path d="M334.084 661.609C335.127 661.188 334.52 659.073 335.466 653.575C335.3 651.831 334.652 658.306 333.876 660.751C333.008 660.042 332.351 659.898 330.944 659.988C330.092 660.056 329.574 659.963 328.584 659.583C327.494 659.056 326.851 659.025 325.66 659.337C326.314 656.625 327.087 650.887 326.668 651.959C326.153 656.468 324.279 659.1 325.231 660.314C326.682 661.533 328.03 662.278 327.637 663.343C328.031 663.944 328.249 664.27 329.083 664.686C329.833 664.599 330.194 664.365 330.805 663.848C330.567 662.738 332.681 662.757 334.084 661.609Z" fill="#252324"/>
</g>
<g opacity="0.5">
<g filter="url(#filter2_b)">
<path d="M184.743 370.529C178.567 372.536 175.402 376.118 169.966 383.832M184.684 370.108C176.783 371.154 173.047 374.45 166.584 381.116M184.634 369.467C177.13 369.556 172.462 371.692 163.646 377.721" stroke="black" stroke-width="3" stroke-linecap="round"/>
</g>
<g filter="url(#filter3_b)">
<path d="M200.348 369.333C206.757 370.375 210.43 373.433 216.979 380.228M200.342 368.908C208.309 368.737 212.504 371.425 219.907 377.028M200.293 368.267C207.723 367.211 212.662 368.61 222.293 373.225" stroke="black" stroke-width="3" stroke-linecap="round"/>
</g>
<path fill-rule="evenodd" clip-rule="evenodd" d="M173.161 352.22C180.799 350.159 185.562 351.27 185.106 357.71C185.02 357.278 184.877 357.065 184.45 356.749C179.239 358.742 177.081 357.243 175.737 352.636C175.23 352.14 174.553 352.125 173.161 352.22ZM177.326 354.136C177.033 353.886 176.982 353.975 177.132 354.321C178.608 357.011 180.192 357.666 182.606 355.795C182.904 355.564 182.771 355.437 182.475 355.578C179.949 356.965 178.784 356.084 177.326 354.136Z" fill="#252324"/>
<ellipse cx="179.078" cy="353.892" rx="0.660934" ry="0.639893" transform="rotate(-4.38329 179.078 353.892)" fill="#A70505"/>
<path fill-rule="evenodd" clip-rule="evenodd" d="M218.599 348.181C220.873 355.335 219.864 359.931 214.991 368.916C215.587 364.718 214.57 363.437 211.103 362.47C208.653 361.91 207.202 361.703 204.428 361.586C197.771 360.667 195.471 359.117 195.293 353.513C193.513 344.373 189.308 340.217 179.525 341.286C175.486 341.092 174.343 339.885 173.202 336.852C170.728 329.101 168.979 325.77 163.748 323.522C161.912 322.92 160.619 323.467 160.163 325.545C158.645 330.228 159.454 334.761 162.713 341.768C162.492 347.216 163.058 349.749 165.253 353.356C164.328 357.113 164.988 359.65 167.289 364.586C164.415 360.752 163.427 358.357 163.736 353.272C161.518 349.209 161.001 346.796 161.053 342.314C157.577 332.646 157.05 328.338 159.266 323.123C160.308 321.508 161.162 321.215 162.847 321.058C167.892 322.813 170.835 325.548 174.3 328.766C175.386 329.775 176.524 330.831 177.793 331.92C185.875 327.594 190.927 327.066 200.894 329.622C205.163 323.263 207.808 320.499 212.991 317.056C215.708 316.17 216.701 316.503 217.86 318.053C221.569 325.599 221.615 330.962 218.693 342.203C218.163 344.537 218.172 345.847 218.599 348.181ZM217.782 339.419C216.129 341.954 214.497 341.362 213.243 338.115C212.679 337.137 211.902 337.023 209.742 337.558C206.42 340.472 201.592 334.906 204.514 329.958C207.66 324.343 209.687 321.842 214.006 319.113C215.187 318.546 215.741 318.66 216.514 319.73C219.078 326.197 219.274 330.355 217.782 339.419ZM206.846 350.564C207.107 350.117 207.273 350.164 207.24 350.737C205.597 355.619 203.561 357.513 198.67 356.087C198.142 355.86 198.231 355.678 198.758 355.75C203.345 356.662 205.227 355.254 206.846 350.564ZM204.912 352.125C205.008 351.76 204.944 351.68 204.692 351.971C203.549 354.119 202.532 355.167 199.823 354.182C199.509 354.087 199.397 354.233 199.727 354.416C202.398 355.897 203.864 355.008 204.912 352.125ZM208.044 349.877C200.191 349.797 197.822 351.166 197.858 356.584C197.886 356.941 197.732 356.967 197.619 356.602C196.338 350.774 200.022 347.887 208.211 349.548C208.786 349.665 208.727 349.927 208.044 349.877Z" fill="#252324"/>
<ellipse cx="200.29" cy="352.23" rx="0.624775" ry="0.62717" transform="rotate(-4.38329 200.29 352.23)" fill="#A70505"/>
<path d="M192.805 373.139C192.686 372.823 192.645 372.564 192.601 372.012C192.494 371.897 192.432 371.891 192.317 372.034C192.37 372.481 192.377 372.739 192.3 373.227C190.79 375.219 188.147 375.801 185.507 374.75C188.212 376.309 190.296 375.779 192.783 374.389C195.183 375.69 198.044 375.195 199.851 373.651C197.505 375.126 194.49 375.01 192.805 373.139Z" fill="#252324"/>
<path d="M195.995 367.783C196.777 367.164 195.81 365.368 195.408 360.134C194.891 358.577 195.754 364.638 195.634 367.045C194.753 366.593 194.172 366.608 193.013 367.006C192.314 367.259 191.86 367.29 190.948 367.164C189.921 366.927 189.376 367.044 188.445 367.596C188.405 364.972 187.806 359.556 187.688 360.629C188.236 364.864 187.237 367.689 188.298 368.584C189.778 369.373 191.069 369.751 190.971 370.812C191.431 371.273 191.685 371.522 192.474 371.715C193.083 371.467 193.335 371.173 193.734 370.564C193.294 369.602 195.068 369.146 195.995 367.783Z" fill="#252324"/>
</g>
<path d="M186.769 657.774C153.39 652.272 108.274 630.997 46.6519 641.268C109.007 673.179 139.452 681.249 179.433 731.5L265.263 731.5C260.495 709.125 228.64 677.615 186.769 657.774Z" fill="#53575A"/>
<path fill-rule="evenodd" clip-rule="evenodd" d="M71.6779 542.762C74.9936 542.762 77.6815 545.45 77.6815 548.766L77.6815 668.367C77.6815 671.683 74.9936 674.371 71.6779 674.371C68.3622 674.371 65.6743 671.683 65.6743 668.367L65.6743 548.766C65.6743 545.45 68.3622 542.762 71.6779 542.762Z" fill="black"/>
<path d="M0.263 631.934C0.263 631.934 69.5926 647.365 122.683 647.365C173.397 647.365 188.117 731.493 188.117 731.493H0.263V631.934Z" fill="#53575A"/>
<path d="M182.524 731.5H159.682C157.968 722.088 156.332 716.064 151.75 703.479C144.6 691.053 138.381 685.019 124.303 675.516C103.741 663.436 90.3277 657.768 61.1184 650.754C56.7364 648.342 54.8088 646.427 52.3601 641.954L58.4356 642.851L107.892 647.517C126.753 646.169 136.435 649.206 151.75 662.914C168.851 684.735 176.984 704.151 182.524 731.5Z" fill="#63686B"/>
<path d="M167.394 548.39C133.715 557.91 117.318 539.539 75.6262 548.39L75.6262 597.535C117.318 589.15 132.223 605.533 167.394 597.535V548.39Z" fill="#040332" fill-opacity="0.9"/>
<path d="M99.9879 567.534C100.373 567.534 100.688 567.504 100.933 567.446C101.19 567.376 101.394 567.289 101.546 567.184C101.697 567.067 101.802 566.933 101.861 566.781C101.919 566.629 101.948 566.46 101.948 566.274C101.948 565.877 101.761 565.55 101.388 565.293C101.015 565.025 100.373 564.739 99.4629 564.436C99.0662 564.296 98.6695 564.138 98.2728 563.963C97.8762 563.777 97.5203 563.549 97.2053 563.281C96.8903 563.001 96.6336 562.668 96.4353 562.283C96.2369 561.887 96.1377 561.408 96.1377 560.848C96.1377 560.288 96.2427 559.787 96.4528 559.343C96.6628 558.888 96.9603 558.503 97.3453 558.188C97.7303 557.873 98.197 557.634 98.7454 557.471C99.2937 557.296 99.9121 557.208 100.6 557.208C101.417 557.208 102.123 557.296 102.718 557.471C103.313 557.646 103.803 557.838 104.188 558.048L103.401 560.201C103.062 560.026 102.683 559.874 102.263 559.746C101.855 559.606 101.359 559.536 100.775 559.536C100.122 559.536 99.6496 559.629 99.3579 559.816C99.0779 559.991 98.9379 560.265 98.9379 560.638C98.9379 560.86 98.9904 561.047 99.0954 561.198C99.2004 561.35 99.3462 561.49 99.5329 561.618C99.7313 561.735 99.9529 561.846 100.198 561.951C100.455 562.044 100.735 562.143 101.038 562.248C101.668 562.482 102.216 562.715 102.683 562.948C103.15 563.17 103.535 563.433 103.838 563.736C104.153 564.039 104.386 564.395 104.538 564.803C104.69 565.212 104.766 565.708 104.766 566.291C104.766 567.423 104.369 568.304 103.576 568.934C102.782 569.552 101.586 569.861 99.9879 569.861C99.4512 569.861 98.967 569.826 98.5354 569.756C98.1037 569.698 97.7187 569.622 97.3803 569.529C97.0536 569.435 96.7678 569.336 96.5228 569.231C96.2894 569.126 96.0911 569.027 95.9277 568.934L96.6978 566.764C97.0595 566.962 97.5028 567.143 98.0278 567.306C98.5645 567.458 99.2179 567.534 99.9879 567.534Z" fill="#D9D9D9"/>
<path d="M106.254 565.083C106.254 564.267 106.376 563.555 106.621 562.948C106.878 562.33 107.21 561.817 107.619 561.408C108.027 561 108.494 560.691 109.019 560.481C109.556 560.271 110.104 560.166 110.664 560.166C111.971 560.166 113.003 560.568 113.762 561.373C114.52 562.167 114.899 563.339 114.899 564.891C114.899 565.043 114.893 565.212 114.882 565.398C114.87 565.573 114.858 565.731 114.847 565.871H108.931C108.99 566.408 109.241 566.834 109.684 567.149C110.127 567.464 110.722 567.621 111.469 567.621C111.947 567.621 112.414 567.58 112.869 567.499C113.336 567.405 113.715 567.294 114.007 567.166L114.357 569.284C114.217 569.354 114.03 569.424 113.797 569.494C113.563 569.564 113.301 569.622 113.009 569.669C112.729 569.727 112.426 569.774 112.099 569.809C111.772 569.844 111.446 569.861 111.119 569.861C110.291 569.861 109.567 569.739 108.949 569.494C108.342 569.249 107.835 568.916 107.426 568.496C107.03 568.064 106.732 567.557 106.534 566.974C106.347 566.39 106.254 565.76 106.254 565.083ZM112.379 564.086C112.367 563.864 112.327 563.648 112.257 563.438C112.198 563.228 112.099 563.042 111.959 562.878C111.831 562.715 111.662 562.581 111.452 562.476C111.253 562.371 111.002 562.318 110.699 562.318C110.407 562.318 110.156 562.371 109.946 562.476C109.736 562.569 109.561 562.698 109.421 562.861C109.281 563.024 109.171 563.217 109.089 563.438C109.019 563.648 108.966 563.864 108.931 564.086H112.379Z" fill="#D9D9D9"/>
<path d="M125.084 560.411C124.559 562.184 124.011 563.847 123.439 565.398C122.868 566.95 122.243 568.455 121.567 569.914C121.322 570.439 121.077 570.882 120.832 571.244C120.587 571.617 120.318 571.92 120.027 572.154C119.735 572.399 119.402 572.574 119.029 572.679C118.667 572.795 118.242 572.854 117.752 572.854C117.343 572.854 116.964 572.813 116.614 572.731C116.276 572.661 115.996 572.58 115.774 572.486L116.229 570.404C116.497 570.497 116.737 570.561 116.947 570.596C117.157 570.631 117.378 570.649 117.612 570.649C118.078 570.649 118.434 570.52 118.679 570.264C118.936 570.019 119.152 569.675 119.327 569.231C118.732 568.064 118.137 566.758 117.542 565.311C116.947 563.853 116.386 562.219 115.861 560.411H118.627C118.743 560.866 118.877 561.362 119.029 561.898C119.192 562.423 119.362 562.96 119.537 563.508C119.712 564.045 119.887 564.57 120.062 565.083C120.248 565.597 120.423 566.063 120.587 566.484C120.738 566.063 120.896 565.597 121.059 565.083C121.223 564.57 121.38 564.045 121.532 563.508C121.695 562.96 121.847 562.423 121.987 561.898C122.138 561.362 122.273 560.866 122.389 560.411H125.084Z" fill="#D9D9D9"/>
<path d="M126.482 560.726C126.926 560.597 127.497 560.481 128.197 560.376C128.897 560.259 129.632 560.201 130.402 560.201C131.184 560.201 131.832 560.306 132.345 560.516C132.87 560.714 133.284 561 133.588 561.373C133.891 561.747 134.107 562.19 134.235 562.703C134.364 563.217 134.428 563.788 134.428 564.418V569.616H131.82V564.733C131.82 563.893 131.709 563.298 131.488 562.948C131.266 562.598 130.852 562.423 130.245 562.423C130.058 562.423 129.86 562.435 129.65 562.458C129.44 562.47 129.253 562.487 129.09 562.511V569.616H126.482V560.726Z" fill="#D9D9D9"/>
<path d="M136.35 565.083C136.35 564.267 136.473 563.555 136.718 562.948C136.975 562.33 137.307 561.817 137.716 561.408C138.124 561 138.591 560.691 139.116 560.481C139.652 560.271 140.201 560.166 140.761 560.166C142.067 560.166 143.1 560.568 143.858 561.373C144.617 562.167 144.996 563.339 144.996 564.891C144.996 565.043 144.99 565.212 144.978 565.398C144.967 565.573 144.955 565.731 144.943 565.871H139.028C139.086 566.408 139.337 566.834 139.781 567.149C140.224 567.464 140.819 567.621 141.566 567.621C142.044 567.621 142.511 567.58 142.966 567.499C143.432 567.405 143.812 567.294 144.103 567.166L144.453 569.284C144.313 569.354 144.127 569.424 143.893 569.494C143.66 569.564 143.397 569.622 143.106 569.669C142.826 569.727 142.522 569.774 142.196 569.809C141.869 569.844 141.542 569.861 141.216 569.861C140.387 569.861 139.664 569.739 139.046 569.494C138.439 569.249 137.931 568.916 137.523 568.496C137.126 568.064 136.829 567.557 136.63 566.974C136.444 566.39 136.35 565.76 136.35 565.083ZM142.476 564.086C142.464 563.864 142.423 563.648 142.353 563.438C142.295 563.228 142.196 563.042 142.056 562.878C141.927 562.715 141.758 562.581 141.548 562.476C141.35 562.371 141.099 562.318 140.796 562.318C140.504 562.318 140.253 562.371 140.043 562.476C139.833 562.569 139.658 562.698 139.518 562.861C139.378 563.024 139.267 563.217 139.186 563.438C139.116 563.648 139.063 563.864 139.028 564.086H142.476Z" fill="#D9D9D9"/>
<path d="M265.263 731.5H240.242L232.177 711.786L215.895 689.841L193.006 670.491C185.733 663.424 179.996 660.53 169.789 654.969L186.828 658.618C227.381 678.405 256.65 704.225 265.263 731.5Z" fill="#63686B"/>
<path d="M115.508 581.091C115.508 581.358 115.449 581.614 115.332 581.859C115.215 582.104 115.063 582.343 114.876 582.574C114.689 582.798 114.479 583.016 114.245 583.226C114.011 583.436 113.782 583.636 113.556 583.825C113.439 583.923 113.31 584.035 113.17 584.162C113.037 584.281 112.909 584.404 112.784 584.53C112.659 584.656 112.546 584.775 112.445 584.887C112.352 584.992 112.293 585.08 112.27 585.15H115.753V586.464H110.353C110.337 586.387 110.329 586.289 110.329 586.17C110.329 586.051 110.329 585.967 110.329 585.918C110.329 585.581 110.388 585.273 110.505 584.992C110.629 584.712 110.789 584.453 110.984 584.214C111.179 583.969 111.397 583.741 111.639 583.531C111.888 583.321 112.133 583.11 112.375 582.9C112.562 582.739 112.737 582.588 112.901 582.448C113.065 582.301 113.209 582.16 113.333 582.027C113.458 581.887 113.556 581.75 113.626 581.617C113.696 581.477 113.731 581.337 113.731 581.197C113.731 580.888 113.633 580.671 113.439 580.545C113.244 580.418 113.002 580.355 112.714 580.355C112.504 580.355 112.305 580.387 112.118 580.45C111.939 580.506 111.771 580.576 111.615 580.66C111.467 580.737 111.339 580.818 111.229 580.902C111.12 580.979 111.039 581.042 110.984 581.091L110.119 579.998C110.462 579.71 110.859 579.476 111.311 579.293C111.771 579.104 112.262 579.009 112.784 579.009C113.259 579.009 113.669 579.059 114.011 579.157C114.354 579.255 114.635 579.395 114.853 579.577C115.079 579.753 115.243 579.97 115.344 580.229C115.453 580.482 115.508 580.769 115.508 581.091Z" fill="#D9D9D9"/>
<path d="M122.595 582.805C122.595 584.032 122.334 584.975 121.812 585.634C121.298 586.286 120.585 586.612 119.673 586.612C118.761 586.612 118.044 586.286 117.522 585.634C117.008 584.975 116.751 584.032 116.751 582.805C116.751 582.195 116.817 581.656 116.949 581.186C117.09 580.716 117.288 580.32 117.546 579.998C117.803 579.675 118.111 579.43 118.469 579.262C118.827 579.094 119.229 579.009 119.673 579.009C120.585 579.009 121.298 579.339 121.812 579.998C122.334 580.65 122.595 581.586 122.595 582.805ZM120.818 582.805C120.818 582.441 120.799 582.111 120.76 581.817C120.721 581.515 120.659 581.256 120.573 581.039C120.487 580.822 120.37 580.653 120.222 580.534C120.074 580.415 119.891 580.355 119.673 580.355C119.455 580.355 119.272 580.415 119.124 580.534C118.983 580.653 118.866 580.822 118.773 581.039C118.687 581.256 118.625 581.515 118.586 581.817C118.547 582.111 118.527 582.441 118.527 582.805C118.527 583.17 118.547 583.503 118.586 583.804C118.625 584.106 118.687 584.365 118.773 584.582C118.866 584.8 118.983 584.968 119.124 585.087C119.272 585.206 119.455 585.266 119.673 585.266C119.891 585.266 120.074 585.206 120.222 585.087C120.37 584.968 120.487 584.8 120.573 584.582C120.659 584.365 120.721 584.106 120.76 583.804C120.799 583.503 120.818 583.17 120.818 582.805Z" fill="#D9D9D9"/>
<path d="M128.794 581.091C128.794 581.358 128.736 581.614 128.619 581.859C128.502 582.104 128.35 582.343 128.163 582.574C127.976 582.798 127.766 583.016 127.532 583.226C127.298 583.436 127.068 583.636 126.842 583.825C126.725 583.923 126.597 584.035 126.456 584.162C126.324 584.281 126.195 584.404 126.071 584.53C125.946 584.656 125.833 584.775 125.732 584.887C125.638 584.992 125.58 585.08 125.556 585.15H129.04V586.464H123.64C123.624 586.387 123.616 586.289 123.616 586.17C123.616 586.051 123.616 585.967 123.616 585.918C123.616 585.581 123.675 585.273 123.791 584.992C123.916 584.712 124.076 584.453 124.271 584.214C124.466 583.969 124.684 583.741 124.925 583.531C125.175 583.321 125.42 583.11 125.662 582.9C125.849 582.739 126.024 582.588 126.188 582.448C126.351 582.301 126.495 582.16 126.62 582.027C126.745 581.887 126.842 581.75 126.912 581.617C126.982 581.477 127.018 581.337 127.018 581.197C127.018 580.888 126.92 580.671 126.725 580.545C126.531 580.418 126.289 580.355 126.001 580.355C125.79 580.355 125.592 580.387 125.405 580.45C125.225 580.506 125.058 580.576 124.902 580.66C124.754 580.737 124.625 580.818 124.516 580.902C124.407 580.979 124.325 581.042 124.271 581.091L123.406 579.998C123.749 579.71 124.146 579.476 124.598 579.293C125.058 579.104 125.549 579.009 126.071 579.009C126.546 579.009 126.955 579.059 127.298 579.157C127.641 579.255 127.921 579.395 128.14 579.577C128.366 579.753 128.529 579.97 128.631 580.229C128.74 580.482 128.794 580.769 128.794 581.091Z" fill="#D9D9D9"/>
<path d="M135.882 582.805C135.882 584.032 135.621 584.975 135.099 585.634C134.584 586.286 133.871 586.612 132.96 586.612C132.048 586.612 131.331 586.286 130.809 585.634C130.295 584.975 130.037 584.032 130.037 582.805C130.037 582.195 130.104 581.656 130.236 581.186C130.376 580.716 130.575 580.32 130.832 579.998C131.089 579.675 131.397 579.43 131.756 579.262C132.114 579.094 132.515 579.009 132.96 579.009C133.871 579.009 134.584 579.339 135.099 579.998C135.621 580.65 135.882 581.586 135.882 582.805ZM134.105 582.805C134.105 582.441 134.086 582.111 134.047 581.817C134.008 581.515 133.945 581.256 133.86 581.039C133.774 580.822 133.657 580.653 133.509 580.534C133.361 580.415 133.178 580.355 132.96 580.355C132.741 580.355 132.558 580.415 132.41 580.534C132.27 580.653 132.153 580.822 132.06 581.039C131.974 581.256 131.911 581.515 131.873 581.817C131.834 582.111 131.814 582.441 131.814 582.805C131.814 583.17 131.834 583.503 131.873 583.804C131.911 584.106 131.974 584.365 132.06 584.582C132.153 584.8 132.27 584.968 132.41 585.087C132.558 585.206 132.741 585.266 132.96 585.266C133.178 585.266 133.361 585.206 133.509 585.087C133.657 584.968 133.774 584.8 133.86 584.582C133.945 584.365 134.008 584.106 134.047 583.804C134.086 583.503 134.105 583.17 134.105 582.805Z" fill="#D9D9D9"/>
<g filter="url(#filter4_d)">
<path d="M67.266 24.0185C70.9311 24.0185 73.7449 24.6687 75.7075 25.9693C77.6701 27.2461 78.6514 29.3506 78.6514 32.2826C78.6514 35.2383 77.6583 37.3782 75.672 38.7024C73.6858 40.0029 70.8483 40.6531 67.1596 40.6531H65.4217V48.8818H59.8886V24.6569C61.0946 24.4205 62.3714 24.255 63.7192 24.1604C65.067 24.0658 66.2493 24.0185 67.266 24.0185ZM67.6207 28.7358C67.2188 28.7358 66.8168 28.7476 66.4148 28.7712C66.0365 28.7949 65.7054 28.8185 65.4217 28.8422V35.9358H67.1596C69.0749 35.9358 70.5173 35.6757 71.4868 35.1555C72.4562 34.6353 72.941 33.6659 72.941 32.2471C72.941 31.5614 72.8109 30.9939 72.5508 30.5447C72.3144 30.0954 71.9597 29.7407 71.4868 29.4806C71.0375 29.1969 70.4818 29.0077 69.8198 28.9131C69.1577 28.7949 68.4247 28.7358 67.6207 28.7358ZM89.9145 24.0185C93.6032 24.0185 96.4288 24.6806 98.3914 26.0047C100.354 27.3052 101.335 29.3387 101.335 32.1053C101.335 33.8314 100.933 35.2383 100.129 36.326C99.3491 37.39 98.2141 38.2295 96.7244 38.8442C97.221 39.459 97.7412 40.1684 98.285 40.9723C98.8289 41.7526 99.3609 42.5802 99.8811 43.4551C100.425 44.3064 100.945 45.2049 101.442 46.1507C101.938 47.0729 102.399 47.9832 102.825 48.8818H96.618C96.1687 48.0778 95.7077 47.2621 95.2347 46.4345C94.7855 45.6069 94.3126 44.8029 93.816 44.0226C93.3431 43.2423 92.8702 42.5093 92.3973 41.8236C91.9244 41.1142 91.4515 40.4758 90.9785 39.9083H88.2475V48.8818H82.7144V24.6569C83.9204 24.4205 85.1617 24.255 86.4386 24.1604C87.7391 24.0658 88.8977 24.0185 89.9145 24.0185ZM90.2337 28.7358C89.8317 28.7358 89.4652 28.7476 89.1342 28.7712C88.8268 28.7949 88.5312 28.8185 88.2475 28.8422V35.5102H89.8081C91.8889 35.5102 93.3786 35.2501 94.2771 34.7299C95.1756 34.2097 95.6249 33.323 95.6249 32.0698C95.6249 30.8639 95.1638 30.0126 94.2416 29.5161C93.3431 28.9959 92.0071 28.7358 90.2337 28.7358ZM110.394 36.5743C110.394 37.7802 110.536 38.8679 110.82 39.8374C111.127 40.8068 111.553 41.6462 112.097 42.3556C112.664 43.0413 113.35 43.5734 114.154 43.9517C114.958 44.33 115.88 44.5192 116.921 44.5192C117.937 44.5192 118.848 44.33 119.652 43.9517C120.479 43.5734 121.165 43.0413 121.709 42.3556C122.276 41.6462 122.702 40.8068 122.986 39.8374C123.293 38.8679 123.447 37.7802 123.447 36.5743C123.447 35.3684 123.293 34.2807 122.986 33.3112C122.702 32.3181 122.276 31.4787 121.709 30.7929C121.165 30.0836 120.479 29.5397 119.652 29.1614C118.848 28.7831 117.937 28.5939 116.921 28.5939C115.88 28.5939 114.958 28.7949 114.154 29.1969C113.35 29.5752 112.664 30.119 112.097 30.8284C111.553 31.5141 111.127 32.3535 110.82 33.3467C110.536 34.3161 110.394 35.392 110.394 36.5743ZM129.157 36.5743C129.157 38.6787 128.838 40.5349 128.199 42.1428C127.585 43.727 126.733 45.063 125.646 46.1507C124.558 47.2148 123.258 48.0187 121.744 48.5626C120.255 49.1064 118.647 49.3783 116.921 49.3783C115.242 49.3783 113.657 49.1064 112.168 48.5626C110.678 48.0187 109.378 47.2148 108.266 46.1507C107.155 45.063 106.28 43.727 105.642 42.1428C105.003 40.5349 104.684 38.6787 104.684 36.5743C104.684 34.4698 105.015 32.6255 105.677 31.0412C106.339 29.4333 107.226 28.0855 108.337 26.9978C109.472 25.9101 110.773 25.0944 112.239 24.5505C113.728 24.0067 115.289 23.7347 116.921 23.7347C118.599 23.7347 120.184 24.0067 121.673 24.5505C123.163 25.0944 124.463 25.9101 125.575 26.9978C126.686 28.0855 127.561 29.4333 128.199 31.0412C128.838 32.6255 129.157 34.4698 129.157 36.5743ZM146.535 48.8818C145.849 47.5103 145.093 46.1271 144.265 44.732C143.461 43.3133 142.527 41.8709 141.463 40.4049C141.132 40.8305 140.706 41.4216 140.186 42.1783C139.69 42.9349 139.181 43.7389 138.661 44.5901C138.164 45.4413 137.692 46.2571 137.242 47.0374C136.793 47.8177 136.462 48.4325 136.249 48.8818H129.936C130.976 46.9665 132.182 44.9566 133.554 42.8522C134.949 40.7477 136.497 38.5132 138.2 36.1487L130.29 24.3022H136.994L141.782 31.9634L146.464 24.3022H152.777L144.974 36.2196C146.961 38.797 148.628 41.1852 149.975 43.3842C151.323 45.5596 152.387 47.3921 153.168 48.8818H146.535ZM156.353 24.3022H161.886V48.8818H156.353V24.3022ZM174.101 24.3022C174.527 25.0825 175.012 26.052 175.555 27.2106C176.123 28.3456 176.702 29.587 177.293 30.9348C177.908 32.259 178.511 33.6186 179.102 35.0137C179.693 36.4088 180.249 37.7211 180.769 38.9507C181.29 37.7211 181.845 36.4088 182.436 35.0137C183.027 33.6186 183.619 32.259 184.21 30.9348C184.825 29.587 185.404 28.3456 185.948 27.2106C186.515 26.052 187.012 25.0825 187.437 24.3022H192.474C192.71 25.9338 192.923 27.7663 193.112 29.7998C193.325 31.8097 193.502 33.9142 193.644 36.1132C193.81 38.2886 193.952 40.4758 194.07 42.6748C194.212 44.8739 194.33 46.9428 194.425 48.8818H189.033C188.962 46.4936 188.868 43.8926 188.75 41.0787C188.631 38.2649 188.454 35.4275 188.218 32.5664C187.792 33.5595 187.319 34.659 186.799 35.8649C186.279 37.0708 185.759 38.2768 185.238 39.4827C184.742 40.6886 184.257 41.8472 183.784 42.9586C183.311 44.0463 182.909 44.9803 182.578 45.7606H178.712C178.381 44.9803 177.979 44.0463 177.506 42.9586C177.033 41.8472 176.537 40.6886 176.017 39.4827C175.52 38.2768 175.012 37.0708 174.491 35.8649C173.971 34.659 173.498 33.5595 173.073 32.5664C172.836 35.4275 172.659 38.2649 172.541 41.0787C172.422 43.8926 172.328 46.4936 172.257 48.8818H166.866C166.96 46.9428 167.067 44.8739 167.185 42.6748C167.327 40.4758 167.469 38.2886 167.611 36.1132C167.776 33.9142 167.953 31.8097 168.143 29.7998C168.355 27.7663 168.58 25.9338 168.817 24.3022H174.101ZM215.864 48.8818C215.604 48.0305 215.308 47.1557 214.977 46.2571C214.67 45.3586 214.362 44.4601 214.055 43.5615H204.478C204.171 44.4601 203.852 45.3586 203.521 46.2571C203.213 47.1557 202.93 48.0305 202.67 48.8818H196.924C197.846 46.2335 198.721 43.7862 199.548 41.5398C200.376 39.2935 201.18 37.1772 201.96 35.191C202.764 33.2048 203.544 31.325 204.301 29.5516C205.081 27.7545 205.885 26.0047 206.713 24.3022H211.998C212.802 26.0047 213.594 27.7545 214.374 29.5516C215.154 31.325 215.935 33.2048 216.715 35.191C217.519 37.1772 218.335 39.2935 219.162 41.5398C219.99 43.7862 220.865 46.2335 221.787 48.8818H215.864ZM209.231 29.8708C209.113 30.2254 208.936 30.7102 208.699 31.325C208.463 31.9397 208.191 32.6491 207.883 33.4531C207.576 34.257 207.233 35.1437 206.855 36.1132C206.5 37.0827 206.134 38.0994 205.755 39.1635H212.743C212.364 38.0994 211.998 37.0827 211.643 36.1132C211.288 35.1437 210.946 34.257 210.615 33.4531C210.307 32.6491 210.035 31.9397 209.799 31.325C209.562 30.7102 209.373 30.2254 209.231 29.8708ZM231.495 24.3022C231.92 25.0825 232.405 26.052 232.949 27.2106C233.517 28.3456 234.096 29.587 234.687 30.9348C235.302 32.259 235.905 33.6186 236.496 35.0137C237.087 36.4088 237.643 37.7211 238.163 38.9507C238.683 37.7211 239.239 36.4088 239.83 35.0137C240.421 33.6186 241.012 32.259 241.603 30.9348C242.218 29.587 242.797 28.3456 243.341 27.2106C243.909 26.052 244.405 25.0825 244.831 24.3022H249.867C250.104 25.9338 250.317 27.7663 250.506 29.7998C250.719 31.8097 250.896 33.9142 251.038 36.1132C251.203 38.2886 251.345 40.4758 251.463 42.6748C251.605 44.8739 251.724 46.9428 251.818 48.8818H246.427C246.356 46.4936 246.261 43.8926 246.143 41.0787C246.025 38.2649 245.848 35.4275 245.611 32.5664C245.186 33.5595 244.713 34.659 244.192 35.8649C243.672 37.0708 243.152 38.2768 242.632 39.4827C242.135 40.6886 241.651 41.8472 241.178 42.9586C240.705 44.0463 240.303 44.9803 239.972 45.7606H236.106C235.775 44.9803 235.373 44.0463 234.9 42.9586C234.427 41.8472 233.93 40.6886 233.41 39.4827C232.914 38.2768 232.405 37.0708 231.885 35.8649C231.365 34.659 230.892 33.5595 230.466 32.5664C230.23 35.4275 230.052 38.2649 229.934 41.0787C229.816 43.8926 229.721 46.4936 229.65 48.8818H224.259C224.354 46.9428 224.46 44.8739 224.578 42.6748C224.72 40.4758 224.862 38.2886 225.004 36.1132C225.17 33.9142 225.347 31.8097 225.536 29.7998C225.749 27.7663 225.974 25.9338 226.21 24.3022H231.495ZM256.8 48.8818V24.3022H273.399V28.9486H262.333V33.7723H272.158V38.3122H262.333V44.2354H274.215V48.8818H256.8ZM294.802 48.8818C293.218 46.068 291.504 43.2896 289.659 40.5467C287.815 37.8038 285.853 35.2147 283.772 32.7792V48.8818H278.31V24.3022H282.814C283.594 25.0825 284.457 26.0402 285.403 27.1752C286.349 28.3102 287.307 29.5279 288.276 30.8284C289.269 32.1053 290.251 33.4412 291.22 34.8363C292.19 36.2078 293.1 37.5319 293.951 38.8088V24.3022H299.449V48.8818H294.802ZM323.349 24.3022V29.0195H315.937V48.8818H310.403V29.0195H302.991V24.3022H323.349ZM326.905 48.8818V24.3022H343.505V28.9486H332.438V33.7723H342.263V38.3122H332.438V44.2354H344.32V48.8818H326.905Z" fill="#F5F5F5"/>
</g>
</g>
<defs>
<filter id="filter0_b" x="288.206" y="650.176" width="38.4539" height="29.6003" filterUnits="userSpaceOnUse" color-interpolation-filters="sRGB">
<feFlood flood-opacity="0" result="BackgroundImageFix"/>
<feGaussianBlur in="BackgroundImage" stdDeviation="2"/>
<feComposite in2="SourceAlpha" operator="in" result="effect1_backgroundBlur"/>
<feBlend mode="normal" in="SourceGraphic" in2="effect1_backgroundBlur" result="shape"/>
</filter>
<filter id="filter1_b" x="330.638" y="657.474" width="38.4539" height="29.6003" filterUnits="userSpaceOnUse" color-interpolation-filters="sRGB">
<feFlood flood-opacity="0" result="BackgroundImageFix"/>
<feGaussianBlur in="BackgroundImage" stdDeviation="2"/>
<feComposite in2="SourceAlpha" operator="in" result="effect1_backgroundBlur"/>
<feBlend mode="normal" in="SourceGraphic" in2="effect1_backgroundBlur" result="shape"/>
</filter>
<filter id="filter2_b" x="157.524" y="363.779" width="33.7569" height="26.1094" filterUnits="userSpaceOnUse" color-interpolation-filters="sRGB">
<feFlood flood-opacity="0" result="BackgroundImageFix"/>
<feGaussianBlur in="BackgroundImage" stdDeviation="2"/>
<feComposite in2="SourceAlpha" operator="in" result="effect1_backgroundBlur"/>
<feBlend mode="normal" in="SourceGraphic" in2="effect1_backgroundBlur" result="shape"/>
</filter>
<filter id="filter3_b" x="194.65" y="360.933" width="33.7569" height="26.1094" filterUnits="userSpaceOnUse" color-interpolation-filters="sRGB">
<feFlood flood-opacity="0" result="BackgroundImageFix"/>
<feGaussianBlur in="BackgroundImage" stdDeviation="2"/>
<feComposite in2="SourceAlpha" operator="in" result="effect1_backgroundBlur"/>
<feBlend mode="normal" in="SourceGraphic" in2="effect1_backgroundBlur" result="shape"/>
</filter>
<filter id="filter4_d" x="59.8887" y="23.7347" width="289.452" height="31.2914" filterUnits="userSpaceOnUse" color-interpolation-filters="sRGB">
<feFlood flood-opacity="0" result="BackgroundImageFix"/>
<feColorMatrix in="SourceAlpha" type="matrix" values="0 0 0 0 0 0 0 0 0 0 0 0 0 0 0 0 0 0 127 0"/>
<feOffset dx="2.51012" dy="3.13765"/>
<feGaussianBlur stdDeviation="1.25506"/>
<feColorMatrix type="matrix" values="0 0 0 0 1 0 0 0 0 1 0 0 0 0 1 0 0 0 0.4 0"/>
<feBlend mode="normal" in2="BackgroundImageFix" result="effect1_dropShadow"/>
<feBlend mode="normal" in="SourceGraphic" in2="effect1_dropShadow" result="shape"/>
</filter>
<clipPath id="clip0">
<rect width="411" height="731" fill="white" transform="translate(0.263 0.5)"/>
</clipPath>
</defs>
</svg>
