<svg width="1441" height="991" viewBox="0 0 1441 991" fill="none" xmlns="http://www.w3.org/2000/svg">
<g clip-path="url(#clip0)">
<rect width="1440" height="990" transform="translate(0.737305 0.0499878)" fill="#3C576A"/>
<g opacity="0.78">
<path opacity="0.72" d="M99.2289 69.6791L100.36 51.0813L83.2713 58.5054L96.0925 44.9861L78.2293 39.6886L96.741 37.5735L86.4622 22.0331L102.003 32.3119L104.118 13.8002L109.415 31.6634L122.935 18.8422L115.51 35.9313L134.108 34.7998L117.436 43.1187L132.41 54.2063L114.292 49.8625L118.635 67.9812L107.548 53.0072L99.2289 69.6791Z" fill="#063885"/>
<path opacity="0.86" d="M268.036 76.5878L279.637 69.7492L268.282 62.5099L281.564 64.7283L277.519 51.8835L286.268 62.1209L291.426 49.6809L291.548 63.1471L303.495 56.9327L294.932 67.3267L308.079 70.2456L294.838 72.704L303.033 83.3905L291.31 76.7629L290.718 90.2167L285.998 77.6042L276.897 87.5301L281.388 74.8343L268.036 76.5878Z" fill="#063885"/>
<path opacity="0.9" d="M463.257 177.864L470.946 159.284L450.9 160.855L468.733 151.565L452.366 139.883L471.999 144.228L466.971 124.759L479.217 140.708L487.879 122.562L487.008 142.651L505.309 134.318L491.729 149.148L511.103 154.527L491.168 157.158L502.552 173.733L485.59 162.935L483.656 182.95L477.604 163.774L463.257 177.864Z" fill="#063885"/>
<path opacity="0.7" d="M833.867 70.1704L842.949 79.0893L846.78 66.9507L848.004 79.6206L858.742 72.7848L851.535 83.2773L864.155 84.9428L851.89 88.3484L860.487 97.7358L848.902 92.4609L849.453 105.178L843.97 93.6907L836.218 103.787L839.401 91.4623L826.973 94.2134L837.333 86.8184L826.044 80.9372L838.734 81.9319L833.867 70.1704Z" fill="#063885"/>
<path opacity="0.73" d="M1104.5 143.318L1116.11 145.466L1112.76 134.145L1120.27 143.252L1124.98 132.427L1124.88 144.233L1135.45 138.968L1127.78 147.948L1139.26 150.708L1127.62 152.66L1134.64 162.153L1124.47 156.164L1123.74 167.949L1119.8 156.821L1111.67 165.382L1115.8 154.322L1104.07 155.655L1114.34 149.838L1104.5 143.318Z" fill="#063885"/>
<path opacity="0.71" d="M1265.44 -12.8188L1280.38 -1.36872L1283.81 -19.8691L1287.89 -1.49987L1302.41 -13.4641L1293.73 3.22923L1312.54 3.39943L1295.16 10.6058L1309.47 22.8307L1291.52 17.1782L1294.62 35.7377L1284.5 19.8712L1274.95 36.0811L1277.4 17.4247L1259.66 23.7001L1273.53 10.9834L1255.91 4.38808L1274.7 3.56131L1265.44 -12.8188Z" fill="#063885"/>
<path opacity="0.72" d="M206.568 368.237L206.76 389.451L225.581 379.661L212.092 396.035L232.802 400.634L211.944 404.507L224.853 421.341L206.385 410.901L205.453 432.095L198.017 412.226L183.68 427.863L190.755 407.862L169.721 410.625L187.997 399.852L170.108 388.447L191.033 391.942L184.66 371.707L198.443 387.835L206.568 368.237Z" fill="#063885"/>
<path d="M485.063 355.469L473.963 364.625L487.156 370.367L472.768 370.246L479.184 383.126L468.239 373.784L464.876 387.775L462.497 373.584L450.927 382.139L458.226 369.738L443.864 368.855L457.426 364.048L446.992 354.14L460.471 359.175L458.847 344.877L465.937 357.399L473.882 345.402L471.265 359.552L485.063 355.469Z" fill="#063885"/>
<path opacity="0.96" d="M599.471 283.579L598.003 265.005L582.113 274.735L592.928 259.563L574.502 256.803L592.539 252.132L580.197 238.174L597.017 246.19L596.535 227.564L604.267 244.516L615.871 229.938L610.897 247.894L629.156 244.185L613.805 254.744L630.176 263.639L611.629 261.859L618.452 279.197L605.388 265.912L599.471 283.579Z" fill="#063885"/>
<path opacity="0.81" d="M898.884 244.717L904.568 261.684L917.114 248.925L910.561 265.577L928.373 263.867L912.65 272.411L927.394 282.551L909.858 278.989L914.635 296.234L903.491 282.233L896.065 298.514L896.528 280.626L880.374 288.324L892.227 274.918L874.904 270.432L892.601 267.782L882.214 253.211L897.475 262.555L898.884 244.717Z" fill="#063885"/>
<path d="M1098.21 298.772L1106.85 314.023L1116.53 299.412L1113.34 316.645L1130.14 311.673L1116.62 322.824L1132.69 329.818L1115.17 329.67L1122.98 345.357L1109.65 333.979L1105.56 351.019L1102.66 333.735L1088.57 344.155L1097.46 329.052L1079.96 327.976L1096.48 322.121L1083.77 310.053L1100.19 316.186L1098.21 298.772Z" fill="#063885"/>
<path opacity="0.89" d="M1385.65 337.936L1370.09 346.392L1384.68 356.427L1367.33 352.902L1372.05 369.969L1361.03 356.113L1353.68 372.226L1354.13 354.522L1338.15 362.141L1349.88 348.873L1332.73 344.434L1350.25 341.81L1339.97 327.389L1355.07 336.638L1356.47 318.983L1362.09 335.776L1374.51 323.148L1368.02 339.628L1385.65 337.936Z" fill="#063885"/>
<path opacity="0.78" d="M184.754 548.284L194.578 538.281L181.208 534.061L195.163 532.713L187.634 520.886L199.191 528.823L201.025 514.923L204.776 528.433L215.116 518.964L209.306 531.724L223.313 531.117L210.66 537.156L221.781 545.695L208.206 542.189L211.236 555.878L203.091 544.466L196.613 556.9L197.709 542.923L184.754 548.284Z" fill="#063885"/>
<path opacity="0.79" d="M263.344 452.65L255.371 461.357L266.747 464.516L255.042 466.06L261.726 475.792L251.767 469.452L250.631 481.204L247.077 469.945L238.654 478.217L243.168 467.308L231.398 468.231L241.869 462.776L232.259 455.917L243.787 458.468L240.834 447.037L248.024 456.402L253.111 445.747L252.599 457.542L263.344 452.65Z" fill="#063885"/>
<path opacity="0.96" d="M690.709 595.081L678.101 592.29L681.33 604.794L673.466 594.551L667.903 606.205L668.462 593.304L656.71 598.655L665.431 589.131L652.988 585.676L665.791 583.987L658.48 573.342L669.373 580.277L670.615 567.424L674.502 579.738L683.715 570.69L678.777 582.622L691.651 581.613L680.199 587.579L690.709 595.081Z" fill="#063885"/>
<path opacity="0.9" d="M793.381 473.652L807.669 463.826L792.432 455.546L809.694 457.203L803.343 441.067L815.502 453.431L821.009 436.988L822.375 454.275L837.164 445.219L827.098 459.34L844.248 461.909L827.461 466.256L838.947 479.247L823.293 471.786L823.741 489.121L816.545 473.344L805.746 486.912L810.375 470.2L793.381 473.652Z" fill="#063885"/>
<path opacity="0.96" d="M1165.13 528.05L1162.7 516.12L1153.17 523.696L1158.97 512.994L1146.8 512.672L1158.13 508.206L1149.01 500.135L1160.56 503.995L1158.76 491.953L1165.13 502.332L1171.49 491.953L1169.7 503.995L1181.24 500.135L1172.13 508.206L1183.45 512.672L1171.28 512.994L1177.09 523.696L1167.56 516.12L1165.13 528.05Z" fill="#063885"/>
<path opacity="0.87" d="M1325.82 593.85L1323.72 612.363L1341.17 605.844L1327.66 618.674L1345.22 624.899L1326.63 626.042L1336.08 642.099L1321.1 631.021L1318.02 649.397L1313.66 631.281L1299.49 643.377L1307.8 626.7L1289.17 626.856L1306.25 619.422L1291.88 607.565L1309.74 612.852L1306.35 594.53L1316.64 610.064L1325.82 593.85Z" fill="#063885"/>
<path opacity="0.96" d="M-7.01405 599.231L-11.1232 586.213L-20.863 595.778L-15.6429 583.164L-29.2525 584.231L-17.1457 577.924L-28.2568 569.993L-14.9282 572.943L-18.342 559.726L-10.0282 570.553L-4.14724 558.234L-4.73835 571.872L7.68557 566.215L-1.53387 576.283L11.6197 579.935L-1.91417 581.721L5.8144 592.974L-5.70129 585.643L-7.01405 599.231Z" fill="#063885"/>
<path opacity="0.78" d="M407.204 707.105L425.478 715.043L424.268 695.157L433.163 712.984L445.019 696.972L440.374 716.347L459.749 711.702L443.737 723.558L461.564 732.453L441.678 731.243L449.616 749.517L435.16 735.807L429.495 754.908L427.234 735.114L410.616 746.105L421.607 729.487L401.813 727.226L420.914 721.561L407.204 707.105Z" fill="#063885"/>
<path opacity="0.83" d="M556.06 769.343L539.128 775.679L552.453 787.897L535.41 781.868L537.764 799.793L528.583 784.219L518.865 799.463L521.843 781.631L504.599 787.062L518.342 775.317L501.642 768.393L519.72 768.229L511.377 752.191L525.331 763.686L529.25 746.037L532.55 763.812L546.896 752.811L537.999 768.548L556.06 769.343Z" fill="#063885"/>
<path opacity="0.92" d="M894.149 778.692L898.076 757.468L877.379 763.592L894.029 749.857L874.238 741.245L895.821 741.426L886.197 722.107L902.614 736.119L907.659 715.133L911.228 736.42L928.582 723.587L917.634 742.188L939.177 743.512L918.833 750.724L934.485 765.586L914.266 758.033L916.702 779.479L906.068 760.697L894.149 778.692Z" fill="#063885"/>
<path opacity="0.96" d="M1130.28 616.338L1138.54 625.033L1142.54 613.731L1143.28 625.699L1153.61 619.617L1146.48 629.258L1158.31 631.241L1146.65 634.044L1154.44 643.164L1143.7 637.818L1143.8 649.808L1139.02 638.813L1131.39 648.063L1134.79 636.565L1123 638.746L1133 632.125L1122.56 626.217L1134.48 627.571L1130.28 616.338Z" fill="#063885"/>
<path opacity="0.74" d="M1271.68 749.772L1256.83 748.085L1262.06 762.083L1251.77 751.247L1246.78 765.331L1245.86 750.417L1232.98 757.996L1241.87 745.982L1227.13 743.511L1241.66 740.018L1231.96 728.653L1245.33 735.316L1245.21 720.374L1251.17 734.075L1260.68 722.548L1256.44 736.876L1271.13 734.158L1258.68 742.409L1271.68 749.772Z" fill="#063885"/>
<path opacity="0.97" d="M37.6571 913.649L52.1017 901.304L34.5493 894.027L53.5496 893.855L44.7813 876.998L59.4468 889.08L63.5653 870.53L67.0339 889.212L82.1122 877.65L72.7609 894.19L91.7436 895.025L73.948 901.685L87.9529 914.527L70.0397 908.19L72.5138 927.029L62.8648 910.66L52.6505 926.682L55.7806 907.941L37.6571 913.649Z" fill="#063885"/>
<path opacity="0.98" d="M330.992 836.963L314.626 828.45L314.46 846.897L307.395 829.856L295.409 843.88L300.951 826.284L282.755 829.323L298.311 819.406L282.419 810.038L300.709 812.44L294.557 795.049L307.024 808.646L313.49 791.369L314.301 809.798L330.36 800.719L319.134 815.359L337.272 818.726L319.263 822.725L330.992 836.963Z" fill="#063885"/>
<path d="M525.089 968.833L530.853 950.534L511.929 953.694L528.107 943.381L511.579 933.638L530.601 936.136L524.203 918.049L537.169 932.19L543.894 914.222L544.737 933.389L561.438 923.946L549.763 939.171L568.626 942.673L549.897 946.832L562.096 961.64L545.075 952.786L544.902 971.971L537.554 954.248L525.089 968.833Z" fill="#063885"/>
<path opacity="0.78" d="M781.68 886.552L776.435 875.564L769.02 885.222L772.065 873.433L760.177 876.064L770.087 868.991L759.289 863.365L771.427 864.317L766.772 853.067L775.458 861.598L779.123 849.987L780.294 862.106L790.565 855.568L783.672 865.604L795.743 867.197L784.011 870.454L792.234 879.434L781.153 874.388L781.68 886.552Z" fill="#063885"/>
<path opacity="0.92" d="M1063.21 814.53L1051.7 821.868L1063.46 828.801L1049.93 827.023L1054.48 839.893L1045.26 829.831L1040.47 842.616L1039.87 828.978L1027.99 835.696L1036.29 824.864L1022.87 822.372L1036.2 819.413L1027.52 808.876L1039.63 815.176L1039.75 801.525L1044.98 814.136L1053.85 803.758L1049.75 816.779L1063.21 814.53Z" fill="#063885"/>
<path opacity="0.78" d="M1203.38 881.393L1185.52 876.78L1189.5 894.792L1178.78 879.777L1170.26 896.137L1171.7 877.746L1154.66 884.8L1167.58 871.638L1149.99 866.085L1168.35 864.311L1158.45 848.749L1173.65 859.193L1176.07 840.904L1181 858.68L1194.61 846.221L1186.96 863.01L1205.39 862.211L1188.74 870.158L1203.38 881.393Z" fill="#063885"/>
<path d="M1316.3 153.753C1316.3 210.114 1270.61 255.804 1214.25 255.804C1157.89 255.804 1112.2 210.114 1112.2 153.753C1112.2 97.392 1157.89 51.7023 1214.25 51.7023C1270.61 51.7023 1316.3 97.392 1316.3 153.753Z" fill="#4E4949"/>
<path fill-rule="evenodd" clip-rule="evenodd" d="M1214.25 251.507C1268.31 251.507 1312.05 207.697 1312.05 153.753C1312.05 99.8095 1268.31 55.9991 1214.25 55.9991C1160.19 55.9991 1116.45 99.8095 1116.45 153.753C1116.45 207.697 1160.19 251.507 1214.25 251.507ZM1214.25 255.804C1270.61 255.804 1316.3 210.114 1316.3 153.753C1316.3 97.392 1270.61 51.7023 1214.25 51.7023C1157.89 51.7023 1112.2 97.392 1112.2 153.753C1112.2 210.114 1157.89 255.804 1214.25 255.804Z" fill="black"/>
<path d="M1295.89 153.753C1295.89 198.842 1259.34 235.394 1214.25 235.394C1169.16 235.394 1132.61 198.842 1132.61 153.753C1132.61 108.664 1169.16 72.1124 1214.25 72.1124C1259.34 72.1124 1295.89 108.664 1295.89 153.753Z" fill="#525252"/>
<path fill-rule="evenodd" clip-rule="evenodd" d="M1214.25 232.816C1257.96 232.816 1293.34 197.391 1293.34 153.753C1293.34 110.115 1257.96 74.6906 1214.25 74.6906C1170.54 74.6906 1135.16 110.115 1135.16 153.753C1135.16 197.391 1170.54 232.816 1214.25 232.816ZM1214.25 235.394C1259.34 235.394 1295.89 198.842 1295.89 153.753C1295.89 108.664 1259.34 72.1124 1214.25 72.1124C1169.16 72.1124 1132.61 108.664 1132.61 153.753C1132.61 198.842 1169.16 235.394 1214.25 235.394Z" fill="black"/>
<path d="M1251.55 118.665C1257.65 108.054 1259.63 103.21 1266.48 93.9881C1258.03 87.1588 1253.82 83.5078 1242.13 79.7048C1236.38 89.1789 1231.16 93.7794 1224.65 103.158C1216.14 104.269 1211.71 106.76 1204.77 116.297C1202.19 121.463 1202.13 124.005 1204.76 127.814C1196.55 133.249 1196.37 138.716 1204.87 143.981C1207.01 149.896 1209.34 151.69 1215.24 152.521C1220.86 156.925 1223.16 157.188 1227.84 154.831C1235.07 160.014 1238.34 157.44 1243.25 146.475C1248.11 133.237 1251.46 124.882 1250.12 120.916C1251.09 120.068 1251.32 119.569 1251.55 118.665Z" fill="#0116D1"/>
<path fill-rule="evenodd" clip-rule="evenodd" d="M1242.04 79.4488L1242.2 79.5005C1253.44 83.1595 1257.8 86.6867 1265.59 92.9951C1265.93 93.265 1266.27 93.5401 1266.62 93.8205L1266.78 93.9507L1266.65 94.1174C1261.71 100.759 1259.32 105.119 1256.07 111.02C1254.82 113.294 1253.45 115.797 1251.75 118.748C1251.63 119.193 1251.51 119.56 1251.29 119.923C1251.09 120.266 1250.8 120.595 1250.37 120.985C1250.68 121.998 1250.7 123.256 1250.51 124.75C1250.3 126.314 1249.85 128.157 1249.21 130.281C1248.15 133.795 1246.57 138.103 1244.67 143.231C1244.28 144.302 1243.87 145.408 1243.45 146.55L1243.45 146.557L1243.45 146.564C1242.22 149.308 1241.09 151.537 1239.97 153.254C1238.85 154.969 1237.73 156.188 1236.52 156.895C1234.1 158.315 1231.4 157.622 1227.82 155.081C1225.53 156.226 1223.76 156.751 1221.86 156.423C1219.95 156.094 1217.94 154.907 1215.15 152.726C1212.22 152.308 1210.13 151.645 1208.51 150.325C1206.89 149.007 1205.76 147.057 1204.69 144.125C1200.48 141.497 1198.33 138.771 1198.34 135.961C1198.35 133.182 1200.46 130.441 1204.46 127.756C1203.21 125.91 1202.59 124.325 1202.6 122.564C1202.61 120.754 1203.29 118.79 1204.59 116.2L1204.59 116.185L1204.6 116.17C1208.08 111.394 1210.94 108.362 1214.01 106.387C1217.06 104.424 1220.3 103.516 1224.53 102.957C1227.32 98.9485 1229.87 95.8103 1232.33 92.7923C1232.72 92.3032 1233.12 91.8173 1233.51 91.3314C1236.35 87.8272 1239.08 84.3174 1241.95 79.5927L1242.04 79.4488ZM1242.23 79.9613C1239.38 84.6383 1236.65 88.1298 1233.84 91.6035C1233.45 92.0905 1233.05 92.5772 1232.65 93.0666C1230.18 96.104 1227.62 99.2501 1224.83 103.282L1224.77 103.359L1224.68 103.371C1220.44 103.925 1217.24 104.819 1214.24 106.749C1211.23 108.68 1208.41 111.658 1204.96 116.41C1203.67 118.979 1203.03 120.864 1203.02 122.566C1203.01 124.262 1203.63 125.806 1204.93 127.692L1205.06 127.873L1204.87 127.994C1200.78 130.705 1198.77 133.374 1198.76 135.962C1198.75 138.546 1200.74 141.173 1204.98 143.798L1205.04 143.837L1205.07 143.907C1206.13 146.852 1207.23 148.735 1208.78 149.99C1210.32 151.246 1212.33 151.895 1215.27 152.309L1215.32 152.316L1215.37 152.351C1218.18 154.552 1220.12 155.688 1221.93 156C1223.73 156.31 1225.42 155.812 1227.75 154.639L1227.86 154.582L1227.97 154.656C1231.57 157.238 1234.09 157.821 1236.31 156.523C1237.44 155.863 1238.51 154.707 1239.61 153.017C1240.71 151.33 1241.83 149.128 1243.06 146.393C1243.48 145.251 1243.88 144.146 1244.28 143.077C1246.17 137.948 1247.75 133.656 1248.81 130.156C1249.44 128.041 1249.88 126.224 1250.08 124.693C1250.28 123.16 1250.24 121.932 1249.92 120.986L1249.88 120.849L1249.98 120.754C1250.46 120.338 1250.74 120.018 1250.93 119.7C1251.12 119.383 1251.23 119.056 1251.35 118.609L1251.36 118.582L1251.37 118.557C1253.06 115.61 1254.44 113.107 1255.69 110.829C1258.92 104.966 1261.32 100.6 1266.19 94.026C1265.9 93.7908 1265.61 93.5593 1265.33 93.3315C1257.58 87.0614 1253.28 83.5775 1242.23 79.9613Z" fill="black"/>
<path fill-rule="evenodd" clip-rule="evenodd" d="M1238.91 107.436L1247.33 95.7921L1247.67 96.0456L1239.26 107.689L1238.91 107.436ZM1240.31 107.858L1244.74 101.914L1245.08 102.172L1240.65 108.117L1240.31 107.858ZM1234.6 107.184C1232.08 105.92 1230.53 105.288 1227.53 104.26L1227.66 103.853C1230.68 104.886 1232.25 105.525 1234.79 106.799L1234.6 107.184ZM1247.03 117.473C1244.87 114.968 1243.5 113.653 1240.89 111.392L1241.17 111.066C1243.79 113.337 1245.17 114.667 1247.35 117.191L1247.03 117.473ZM1226.47 123.032C1223.46 123.709 1220.61 123.553 1217.13 122.596L1217.24 122.182C1220.67 123.124 1223.45 123.271 1226.38 122.612C1229.32 121.951 1232.43 120.477 1236.53 118.149L1236.73 118.523C1232.63 120.855 1229.48 122.356 1226.47 123.032ZM1214.15 120.514C1214.19 120.235 1214.19 119.99 1214.15 119.748C1214.1 119.466 1213.98 119.201 1213.83 118.901L1213.45 119.103C1213.6 119.387 1213.69 119.608 1213.73 119.828C1213.77 120.043 1213.77 120.27 1213.71 120.571L1213.4 121.612C1213.23 121.571 1213.06 121.54 1212.88 121.519C1212 121.413 1211.04 121.565 1209.98 121.927L1210.11 122.334C1211.14 121.985 1212.03 121.85 1212.83 121.945C1213.63 122.041 1214.36 122.367 1215.07 122.965C1216.52 124.174 1217.9 126.478 1219.62 130.189C1219.89 130.942 1219.76 131.844 1219.33 132.753C1218.91 133.662 1218.21 134.551 1217.4 135.25C1216.59 135.951 1215.7 136.447 1214.89 136.594C1214.09 136.738 1213.39 136.544 1212.91 135.885C1211.82 134.387 1209.7 132.197 1207.87 130.39C1206.95 129.485 1206.1 128.672 1205.48 128.086C1205.17 127.793 1204.92 127.557 1204.74 127.393C1204.65 127.311 1204.58 127.248 1204.54 127.205L1204.48 127.156L1204.47 127.14C1204.47 127.14 1204.47 127.139 1204.32 127.298C1204.18 127.457 1204.18 127.457 1204.18 127.457L1204.18 127.458L1204.2 127.474L1204.25 127.522C1204.3 127.565 1204.37 127.628 1204.45 127.709C1204.63 127.872 1204.88 128.108 1205.19 128.4C1205.81 128.985 1206.66 129.796 1207.57 130.698C1209.41 132.508 1211.5 134.674 1212.57 136.139C1213.17 136.961 1214.04 137.183 1214.96 137.016C1215.87 136.852 1216.83 136.308 1217.68 135.576C1218.52 134.843 1219.26 133.908 1219.72 132.936C1220.17 131.968 1220.35 130.936 1220.02 130.033L1220.02 130.024L1220.01 130.015C1219.42 128.736 1218.86 127.614 1218.32 126.64L1218.38 126.694L1218.86 126.183C1220.77 126.572 1222.05 127.046 1222.98 127.821C1223.88 128.57 1224.48 129.619 1224.98 131.215L1224.96 131.257C1220.86 140.04 1218.14 145.271 1214.59 150.725L1214.95 150.961C1218.49 145.519 1221.21 140.301 1225.26 131.618L1225.27 131.617C1227.22 131.469 1228.58 131.619 1229.68 132.179C1230.76 132.731 1231.62 133.698 1232.52 135.257C1232.48 138.42 1232.24 140.969 1231.45 143.751C1230.65 146.553 1229.29 149.6 1226.98 153.752L1227.35 153.963C1229.67 149.798 1231.05 146.717 1231.86 143.87C1232.66 141.078 1232.9 138.52 1232.95 135.399C1234.59 135.279 1235.94 135.414 1237.02 135.837C1238.13 136.273 1238.97 137.022 1239.55 138.144C1240.13 139.273 1240.45 140.789 1240.5 142.764C1240.55 144.738 1240.33 147.155 1239.85 150.075L1240.27 150.145C1240.75 147.211 1240.97 144.764 1240.92 142.753C1240.87 140.743 1240.55 139.154 1239.93 137.946C1239.3 136.731 1238.39 135.911 1237.17 135.436C1236 134.976 1234.56 134.845 1232.85 134.975C1231.94 133.422 1231.05 132.393 1229.87 131.795C1228.71 131.201 1227.3 131.047 1225.41 131.176C1224.89 129.491 1224.26 128.327 1223.25 127.49C1222.23 126.644 1220.86 126.152 1218.93 125.759C1218.31 124.5 1217.73 123.558 1216.99 122.742C1216.26 121.933 1215.38 121.256 1214.15 120.514ZM1218.53 125.91C1217.92 124.689 1217.37 123.798 1216.68 123.032C1216.01 122.287 1215.19 121.652 1214.04 120.948L1213.8 121.733C1214.34 121.921 1214.85 122.22 1215.35 122.634C1216.29 123.423 1217.19 124.636 1218.14 126.321L1218.53 125.91ZM1223.6 126.427C1229.95 129.013 1234.77 130.591 1241.17 129.508L1241.24 129.932C1234.71 131.035 1229.8 129.417 1223.44 126.825L1223.6 126.427ZM1207.9 137.484C1208.79 136.093 1209.58 135.055 1210.84 134.144L1211.09 134.493C1209.89 135.359 1209.13 136.344 1208.25 137.718C1207.99 138.122 1207.73 138.561 1207.43 139.041C1206.73 140.186 1205.89 141.56 1204.71 143.237L1204.37 142.989C1205.53 141.323 1206.36 139.968 1207.06 138.827C1207.36 138.344 1207.63 137.899 1207.9 137.484Z" fill="black"/>
<path d="M1203.34 206.378C1197.01 216.845 1194.92 218.592 1189.34 228.929C1184.75 227.286 1176.56 224.63 1163.76 215.332C1169.28 205.718 1171.99 200.059 1177.06 189.813C1173.98 181.71 1174.05 176.59 1179.05 165.886C1182.32 161.129 1184.5 159.868 1189.07 160.397C1189.9 150.515 1194.57 147.759 1203.19 152.816C1209.36 151.908 1212.02 153.128 1215.55 157.98C1222.06 160.895 1223.38 162.814 1223.55 168.098C1231.5 172.07 1230.81 176.199 1223.6 185.778C1214.39 196.39 1208.71 203.336 1204.62 204.034C1204.34 205.297 1204.02 205.735 1203.34 206.378Z" fill="#950000"/>
<path fill-rule="evenodd" clip-rule="evenodd" d="M1163.48 215.393L1163.64 215.506C1175.83 224.359 1183.84 227.204 1188.56 228.877C1188.8 228.965 1189.04 229.049 1189.27 229.131L1189.44 229.192L1189.53 229.031C1192.31 223.87 1194.22 220.855 1196.23 217.822C1196.59 217.286 1196.94 216.75 1197.31 216.202C1199.02 213.645 1200.9 210.815 1203.51 206.514C1203.84 206.197 1204.1 205.914 1204.31 205.547C1204.51 205.2 1204.66 204.789 1204.8 204.219C1205.83 204.011 1206.93 203.437 1208.14 202.553C1209.4 201.628 1210.79 200.353 1212.34 198.775C1214.89 196.163 1217.89 192.703 1221.45 188.584C1222.2 187.724 1222.97 186.835 1223.76 185.92L1223.77 185.914L1223.77 185.908C1225.57 183.51 1226.98 181.445 1227.94 179.634C1228.9 177.825 1229.43 176.252 1229.47 174.841C1229.55 172.008 1227.67 169.938 1223.76 167.962C1223.66 165.375 1223.28 163.552 1222.09 162.018C1220.9 160.476 1218.91 159.255 1215.69 157.807C1213.93 155.396 1212.36 153.855 1210.44 153.039C1208.53 152.225 1206.29 152.148 1203.23 152.592C1198.94 150.088 1195.55 149.472 1193.11 150.815C1190.69 152.143 1189.31 155.329 1188.88 160.159C1186.68 159.928 1185 160.125 1183.47 160.971C1181.9 161.839 1180.52 163.379 1178.88 165.763L1178.87 165.778L1178.86 165.794C1176.36 171.155 1175.08 175.139 1174.82 178.809C1174.56 182.457 1175.31 185.774 1176.83 189.801C1176.37 190.74 1175.92 191.64 1175.49 192.508C1171.27 201.068 1168.57 206.526 1163.58 215.224L1163.48 215.393ZM1164.04 215.271C1168.98 206.659 1171.67 201.206 1175.87 192.701C1176.32 191.807 1176.77 190.878 1177.25 189.909L1177.3 189.824L1177.26 189.736C1175.73 185.699 1174.99 182.427 1175.24 178.84C1175.49 175.252 1176.75 171.329 1179.24 165.994C1180.86 163.63 1182.2 162.165 1183.68 161.348C1185.15 160.533 1186.78 160.348 1189.04 160.61L1189.26 160.635L1189.28 160.415C1189.69 155.486 1191.06 152.429 1193.31 151.193C1195.56 149.958 1198.79 150.48 1203.08 153.001L1203.15 153.039L1203.22 153.028C1206.29 152.576 1208.45 152.66 1210.28 153.436C1212.1 154.211 1213.62 155.692 1215.38 158.107L1215.41 158.153L1215.46 158.177C1218.72 159.633 1220.63 160.824 1221.76 162.283C1222.88 163.733 1223.25 165.476 1223.34 168.105L1223.34 168.233L1223.46 168.29C1227.41 170.268 1229.12 172.237 1229.05 174.829C1229.01 176.144 1228.51 177.648 1227.56 179.431C1226.62 181.211 1225.23 183.253 1223.44 185.642C1222.64 186.558 1221.87 187.446 1221.13 188.304C1217.57 192.424 1214.58 195.872 1212.04 198.472C1210.5 200.044 1209.13 201.3 1207.89 202.205C1206.65 203.112 1205.56 203.655 1204.59 203.822L1204.45 203.846L1204.41 203.987C1204.28 204.607 1204.13 205.009 1203.95 205.33C1203.76 205.651 1203.53 205.904 1203.2 206.221L1203.18 206.241L1203.16 206.265C1200.55 210.571 1198.67 213.399 1196.96 215.96C1196.59 216.509 1196.23 217.046 1195.88 217.582C1193.89 220.592 1191.99 223.587 1189.24 228.665C1189.06 228.602 1188.88 228.538 1188.7 228.472C1184.02 226.812 1176.09 223.999 1164.04 215.271Z" fill="black"/>
<path fill-rule="evenodd" clip-rule="evenodd" d="M1187.56 200.468L1181.43 213.487L1181.81 213.671L1187.95 200.653L1187.56 200.468ZM1188.6 201.508L1185.53 208.277L1185.91 208.456L1188.98 201.687L1188.6 201.508ZM1185.3 196.753C1183 195.11 1181.71 194.026 1179.39 191.848L1179.1 192.162C1181.43 194.351 1182.74 195.448 1185.05 197.103L1185.3 196.753ZM1200.15 202.916C1196.95 202.188 1195.16 201.596 1191.95 200.348L1191.79 200.749C1195.02 202.002 1196.83 202.601 1200.06 203.335L1200.15 202.916ZM1195.23 181.991C1194.38 178.989 1192.9 176.529 1190.41 173.884L1190.1 174.181C1192.55 176.786 1194 179.186 1194.82 182.108C1195.64 185.038 1195.83 188.505 1195.75 193.253L1196.18 193.26C1196.26 188.505 1196.07 184.985 1195.23 181.991ZM1187.18 172.222C1186.96 172.393 1186.74 172.51 1186.51 172.585C1186.24 172.672 1185.96 172.698 1185.62 172.701L1185.62 172.271C1185.94 172.269 1186.17 172.244 1186.38 172.175C1186.59 172.109 1186.78 171.997 1187.02 171.802L1187.78 171.031C1187.66 170.901 1187.55 170.763 1187.45 170.617C1186.94 169.88 1186.62 168.961 1186.43 167.839L1186.84 167.766C1187.03 168.85 1187.33 169.703 1187.8 170.37C1188.26 171.034 1188.89 171.528 1189.75 171.881C1191.49 172.592 1194.15 172.721 1198.2 172.495C1198.98 172.378 1199.7 171.828 1200.29 171.019C1200.88 170.209 1201.32 169.163 1201.55 168.114C1201.77 167.061 1201.78 166.028 1201.52 165.238C1201.27 164.458 1200.77 163.93 1199.97 163.817C1198.15 163.559 1195.23 162.717 1192.79 161.945C1191.57 161.557 1190.46 161.186 1189.65 160.912C1189.25 160.775 1188.92 160.662 1188.69 160.583C1188.58 160.544 1188.49 160.513 1188.43 160.492L1188.37 160.468L1188.34 160.46C1188.34 160.46 1188.34 160.46 1188.41 160.257C1188.48 160.055 1188.48 160.055 1188.48 160.055L1188.49 160.055L1188.51 160.063L1188.57 160.086C1188.63 160.107 1188.72 160.138 1188.83 160.177C1189.06 160.255 1189.38 160.368 1189.79 160.505C1190.59 160.778 1191.7 161.149 1192.92 161.534C1195.37 162.308 1198.24 163.139 1200.03 163.391C1201.02 163.532 1201.64 164.207 1201.93 165.104C1202.22 165.99 1202.2 167.107 1201.96 168.205C1201.73 169.305 1201.27 170.408 1200.64 171.274C1200.01 172.136 1199.19 172.785 1198.25 172.922L1198.24 172.923L1198.23 172.924C1196.84 173.002 1195.6 173.039 1194.49 173.023L1194.57 173.048L1194.35 173.716C1195.6 175.231 1196.62 176.146 1197.73 176.606C1198.81 177.051 1200.01 177.082 1201.64 176.768L1201.66 176.732C1207.36 168.917 1210.62 164.01 1213.68 158.262L1214.06 158.465C1211 164.201 1207.75 169.1 1202.12 176.829L1202.13 176.841C1202.92 178.645 1203.7 179.786 1204.71 180.497C1205.71 181.198 1206.95 181.5 1208.74 181.563C1211.47 180.024 1213.58 178.601 1215.62 176.574C1217.68 174.532 1219.69 171.87 1222.2 167.845L1222.56 168.074C1220.04 172.112 1218.01 174.805 1215.92 176.88C1213.87 178.915 1211.76 180.348 1209.06 181.871C1209.74 183.389 1210.5 184.527 1211.38 185.287C1212.29 186.072 1213.34 186.462 1214.59 186.441C1215.85 186.42 1217.32 185.983 1219.06 185.089C1220.8 184.197 1222.8 182.856 1225.12 181.042L1225.38 181.381C1223.05 183.204 1221.03 184.563 1219.25 185.473C1217.48 186.382 1215.94 186.848 1214.6 186.871C1213.24 186.894 1212.09 186.467 1211.1 185.614C1210.15 184.787 1209.35 183.567 1208.65 181.989C1206.87 181.92 1205.55 181.609 1204.47 180.849C1203.4 180.094 1202.59 178.916 1201.81 177.173C1200.1 177.513 1198.78 177.501 1197.57 177.004C1196.36 176.502 1195.28 175.517 1194.01 173.98C1192.62 174.027 1191.53 173.964 1190.47 173.695C1189.42 173.429 1188.41 172.964 1187.18 172.222ZM1193.95 173.552C1192.61 173.595 1191.57 173.53 1190.57 173.278C1189.61 173.033 1188.66 172.609 1187.5 171.918L1188.08 171.337C1188.49 171.724 1189 172.035 1189.59 172.279C1190.73 172.743 1192.21 172.966 1194.13 173.016L1193.95 173.552ZM1196.81 177.819C1202.08 182.238 1205.74 185.775 1207.85 191.991L1208.25 191.852C1206.11 185.517 1202.36 181.916 1197.09 177.488L1196.81 177.819ZM1198.98 158.596C1198.19 160.049 1197.66 161.248 1197.47 162.804L1197.89 162.857C1198.07 161.381 1198.57 160.237 1199.35 158.803C1199.58 158.38 1199.83 157.932 1200.11 157.443C1200.77 156.274 1201.57 154.871 1202.47 153.032L1202.09 152.841C1201.19 154.668 1200.41 156.051 1199.75 157.216C1199.47 157.709 1199.21 158.164 1198.98 158.596Z" fill="black"/>
<path d="M1191.23 68.3901C1189.95 68.3144 1188.98 68.0861 1188.32 67.7051C1187.66 67.3181 1187.25 66.7513 1187.08 66.0046C1186.9 65.1596 1187.07 64.3863 1187.62 63.6846C1188.16 62.9769 1188.97 62.5013 1190.04 62.258C1190.77 62.0921 1191.45 62.0869 1192.08 62.2425C1192.72 62.3969 1193.25 62.6892 1193.67 63.1195C1194.1 63.5487 1194.38 64.0605 1194.51 64.6549L1193.1 64.9751C1192.96 64.3266 1192.64 63.8646 1192.15 63.5891C1191.66 63.3087 1191.04 63.253 1190.3 63.4223C1189.61 63.5793 1189.1 63.8568 1188.78 64.2548C1188.47 64.6467 1188.37 65.1153 1188.49 65.6606C1188.59 66.0978 1188.85 66.4272 1189.29 66.6489C1189.72 66.8645 1190.41 66.9974 1191.34 67.0478C1192.28 67.097 1193.04 67.2175 1193.6 67.4093C1194.17 67.5951 1194.61 67.8622 1194.94 68.2109C1195.27 68.5584 1195.5 69.0048 1195.62 69.5501C1195.82 70.4196 1195.64 71.1934 1195.08 71.8717C1194.53 72.545 1193.69 73.0095 1192.57 73.2649C1191.84 73.4308 1191.13 73.4457 1190.43 73.3094C1189.74 73.1683 1189.16 72.8914 1188.71 72.4786C1188.26 72.0648 1187.97 71.546 1187.83 70.9221L1189.23 70.6019C1189.38 71.2503 1189.73 71.7101 1190.28 71.981C1190.84 72.246 1191.52 72.2883 1192.31 72.1081C1193.05 71.94 1193.58 71.6588 1193.91 71.2647C1194.23 70.8705 1194.34 70.4106 1194.22 69.885C1194.1 69.3594 1193.83 68.9956 1193.4 68.7936C1192.97 68.5867 1192.25 68.4522 1191.23 68.3901Z" fill="white"/>
<path d="M1242.72 68.8759L1238.17 67.6503L1237.17 71.4167L1242.47 72.8403L1242.17 73.9863L1235.49 72.1897L1238.28 61.5622L1244.89 63.3393L1244.59 64.4926L1239.37 63.0884L1238.47 66.5043L1243.02 67.7299L1242.72 68.8759Z" fill="white"/>
<path d="M1214.41 64.273L1217.25 58.7517H1218.88L1215.13 65.6477V69.749H1213.7V65.6477L1209.95 58.7517H1211.59L1214.41 64.273Z" fill="white"/>
<path d="M1230.83 71.1945L1229.4 71.0008L1225.08 61.866L1223.97 70.2654L1222.54 70.0718L1223.98 59.1719L1225.41 59.3656L1229.74 68.5399L1230.86 60.103L1232.27 60.2946L1230.83 71.1945Z" fill="white"/>
<path d="M1206.02 65.2885L1201.34 65.9104L1201.85 69.7745L1207.28 69.0521L1207.43 70.2278L1200.58 71.1394L1199.16 60.2361L1205.94 59.3344L1206.09 60.5176L1200.74 61.2301L1201.19 64.7347L1205.87 64.1128L1206.02 65.2885Z" fill="white"/>
<path d="M1178.56 238.755C1178.17 239.648 1177.61 240.259 1176.89 240.588C1176.17 240.914 1175.34 240.93 1174.39 240.638C1173.37 240.321 1172.66 239.695 1172.26 238.761C1171.87 237.828 1171.87 236.74 1172.24 235.496L1172.5 234.654C1172.75 233.839 1173.11 233.167 1173.58 232.638C1174.06 232.11 1174.61 231.763 1175.24 231.597C1175.86 231.428 1176.53 231.451 1177.22 231.666C1178.14 231.951 1178.8 232.44 1179.2 233.134C1179.6 233.824 1179.7 234.642 1179.51 235.589L1178.37 235.233C1178.48 234.504 1178.42 233.932 1178.18 233.516C1177.94 233.101 1177.53 232.801 1176.93 232.617C1176.2 232.391 1175.55 232.486 1174.96 232.902C1174.39 233.32 1173.94 234.033 1173.64 235.04L1173.38 235.888C1173.09 236.839 1173.06 237.656 1173.28 238.34C1173.51 239.023 1173.97 239.474 1174.68 239.693C1175.31 239.889 1175.84 239.896 1176.27 239.711C1176.7 239.524 1177.08 239.086 1177.41 238.399L1178.56 238.755Z" fill="white"/>
<path d="M1237.94 238.015L1235.12 238.755L1237.15 246.663L1236 246.965L1233.97 239.057L1231.16 239.796L1230.91 238.833L1237.7 237.052L1237.94 238.015Z" fill="white"/>
<path d="M1199.91 244.632L1199.5 248.195L1198.31 248.054L1199.37 238.952L1202.69 239.347C1203.67 239.464 1204.42 239.81 1204.91 240.385C1205.41 240.96 1205.62 241.666 1205.52 242.504C1205.42 243.388 1205.06 244.036 1204.46 244.45C1203.86 244.861 1203.05 245.005 1202.03 244.884L1199.91 244.632ZM1200.03 243.65L1202.16 243.904C1202.79 243.98 1203.3 243.888 1203.67 243.628C1204.04 243.364 1204.26 242.946 1204.33 242.375C1204.39 241.834 1204.28 241.38 1203.97 241.015C1203.67 240.649 1203.23 240.426 1202.64 240.343L1200.44 240.081L1200.03 243.65Z" fill="white"/>
<path d="M1193.11 242.841L1191.02 242.419L1190.31 246.054L1189.13 245.816L1190.91 236.83L1193.85 237.425C1194.85 237.627 1195.57 238.013 1196.02 238.583C1196.47 239.153 1196.61 239.879 1196.43 240.759C1196.32 241.319 1196.07 241.776 1195.69 242.131C1195.31 242.486 1194.83 242.713 1194.26 242.811L1195.59 247.047L1195.58 247.121L1194.32 246.867L1193.11 242.841ZM1191.22 241.45L1193.02 241.814C1193.6 241.932 1194.09 241.873 1194.49 241.638C1194.9 241.404 1195.15 241.031 1195.25 240.521C1195.36 239.965 1195.28 239.506 1195.01 239.143C1194.75 238.781 1194.3 238.536 1193.69 238.406L1191.89 238.043L1191.22 241.45Z" fill="white"/>
<path d="M1219.42 245.651H1217.29V249.359H1216.09V240.194H1219.09C1220.11 240.194 1220.9 240.429 1221.45 240.899C1222 241.369 1222.27 242.053 1222.27 242.951C1222.27 243.522 1222.12 244.019 1221.81 244.443C1221.51 244.867 1221.09 245.183 1220.54 245.393L1222.67 249.283V249.359H1221.39L1219.42 245.651ZM1217.29 244.663H1219.13C1219.72 244.663 1220.19 244.508 1220.54 244.197C1220.9 243.887 1221.07 243.471 1221.07 242.951C1221.07 242.385 1220.9 241.95 1220.57 241.648C1220.24 241.346 1219.75 241.193 1219.12 241.189H1217.29V244.663Z" fill="white"/>
<path d="M1187.87 240.527C1187.68 241.403 1187.37 242.137 1186.93 242.727C1186.5 243.312 1185.97 243.717 1185.36 243.941C1184.75 244.165 1184.09 244.197 1183.38 244.037C1182.68 243.88 1182.1 243.569 1181.64 243.104C1181.18 242.635 1180.87 242.047 1180.71 241.341C1180.55 240.631 1180.56 239.854 1180.74 239.008L1180.88 238.363C1181.07 237.503 1181.39 236.776 1181.83 236.183C1182.27 235.59 1182.8 235.18 1183.41 234.953C1184.03 234.722 1184.69 234.686 1185.39 234.842C1186.1 235.001 1186.68 235.316 1187.14 235.785C1187.61 236.251 1187.92 236.846 1188.06 237.571C1188.21 238.292 1188.19 239.089 1188 239.962L1187.87 240.527ZM1186.84 239.689C1187.07 238.628 1187.04 237.767 1186.74 237.107C1186.45 236.443 1185.92 236.026 1185.16 235.856C1184.43 235.69 1183.78 235.844 1183.23 236.318C1182.69 236.789 1182.3 237.527 1182.06 238.532L1181.92 239.189C1181.69 240.217 1181.73 241.074 1182.02 241.759C1182.32 242.442 1182.85 242.867 1183.6 243.035C1184.35 243.205 1185 243.059 1185.53 242.599C1186.07 242.135 1186.45 241.386 1186.69 240.352L1186.84 239.689Z" fill="white"/>
<path d="M1251.84 236.158C1252.12 237.009 1252.23 237.801 1252.16 238.534C1252.09 239.262 1251.85 239.882 1251.44 240.393C1251.03 240.904 1250.48 241.277 1249.79 241.512C1249.11 241.743 1248.45 241.78 1247.82 241.624C1247.18 241.464 1246.62 241.123 1246.12 240.602C1245.63 240.075 1245.24 239.403 1244.96 238.587L1244.75 237.961C1244.47 237.125 1244.37 236.339 1244.44 235.601C1244.52 234.863 1244.76 234.236 1245.17 233.72C1245.58 233.198 1246.13 232.822 1246.8 232.592C1247.49 232.358 1248.15 232.321 1248.79 232.481C1249.43 232.636 1250 232.985 1250.49 233.529C1250.99 234.069 1251.38 234.762 1251.66 235.609L1251.84 236.158ZM1250.53 235.981C1250.18 234.951 1249.72 234.231 1249.12 233.821C1248.53 233.408 1247.87 233.326 1247.13 233.577C1246.42 233.82 1245.94 234.289 1245.71 234.982C1245.49 235.67 1245.53 236.505 1245.85 237.488L1246.06 238.126C1246.39 239.124 1246.86 239.839 1247.46 240.271C1248.07 240.698 1248.74 240.788 1249.46 240.54C1250.19 240.291 1250.67 239.83 1250.89 239.156C1251.12 238.479 1251.06 237.635 1250.74 236.625L1250.53 235.981Z" fill="white"/>
<path d="M1214.15 245.072C1214.15 245.97 1214 246.755 1213.7 247.426C1213.4 248.093 1212.98 248.603 1212.43 248.956C1211.88 249.308 1211.24 249.484 1210.51 249.484C1209.8 249.484 1209.16 249.308 1208.61 248.956C1208.06 248.599 1207.63 248.093 1207.32 247.439C1207.02 246.78 1206.86 246.018 1206.86 245.154V244.493C1206.86 243.612 1207.01 242.834 1207.31 242.158C1207.61 241.482 1208.04 240.966 1208.59 240.61C1209.15 240.249 1209.78 240.068 1210.5 240.068C1211.22 240.068 1211.86 240.247 1212.42 240.603C1212.97 240.956 1213.4 241.47 1213.7 242.145C1214 242.817 1214.15 243.599 1214.15 244.493V245.072ZM1212.96 244.481C1212.96 243.394 1212.74 242.561 1212.31 241.982C1211.88 241.398 1211.27 241.107 1210.5 241.107C1209.74 241.107 1209.15 241.398 1208.71 241.982C1208.28 242.561 1208.06 243.366 1208.04 244.399V245.072C1208.04 246.125 1208.26 246.954 1208.7 247.558C1209.14 248.158 1209.74 248.458 1210.51 248.458C1211.28 248.458 1211.88 248.175 1212.3 247.609C1212.73 247.038 1212.94 246.222 1212.96 245.16V244.481Z" fill="white"/>
<path d="M1229.77 245.848L1226.02 246.465L1225.56 248.964L1224.35 249.165L1226.31 239.557L1227.34 239.387L1232.22 247.869L1231.01 248.068L1229.77 245.848ZM1226.22 245.425L1229.26 244.924L1227.06 240.944L1226.22 245.425Z" fill="white"/>
<path d="M1262.15 235.789L1261.09 236.358L1253.79 232.277L1257.05 238.518L1255.99 239.086L1251.75 230.988L1252.81 230.419L1260.14 234.522L1256.86 228.254L1257.91 227.691L1262.15 235.789Z" fill="white"/>
<path d="M1244.39 244.019L1243.24 244.36L1240.68 235.57L1241.83 235.228L1244.39 244.019Z" fill="white"/>
</g>
<g opacity="0.5">
<g filter="url(#filter0_b)">
<path d="M1006.44 572.202C987.818 573.108 976.579 580.13 956.234 596.191M1006.55 571.08C983.745 568.337 971.095 574.229 948.574 586.898M1006.84 569.402C985.779 564.475 971.293 566.75 942.608 576.167" stroke="black" stroke-width="8.90109" stroke-linecap="round"/>
</g>
<g filter="url(#filter1_b)">
<path d="M1050.91 579.851C1068.16 586.927 1076.41 597.299 1090.22 619.235M1051.18 578.755C1073.6 583.79 1083.55 593.57 1100.55 613.035M1051.47 577.077C1072.97 579.47 1085.86 586.455 1109.75 604.914" stroke="black" stroke-width="8.90109" stroke-linecap="round"/>
</g>
<path fill-rule="evenodd" clip-rule="evenodd" d="M986.199 517.259C1008.95 517.215 1021.54 523.337 1015.98 539.552C1016.03 538.383 1015.77 537.739 1014.78 536.635C998.874 538.171 993.831 532.841 993.132 520.094C992.044 518.473 990.156 517.969 986.199 517.259ZM996.583 525.034C995.929 524.193 995.725 524.387 995.917 525.377C998.257 533.294 1002.26 536.064 1010.26 532.921C1011.25 532.532 1010.96 532.114 1010.04 532.274C1002.04 534.098 999.366 531.037 996.583 525.034Z" fill="#252324"/>
<ellipse cx="1001.65" cy="525.612" rx="1.90575" ry="1.69554" transform="rotate(9.75878 1001.65 525.612)" fill="#0594A7"/>
<path fill-rule="evenodd" clip-rule="evenodd" d="M1116.07 538.104C1117.68 558.026 1111.79 569.128 1092.18 588.838C1096.64 578.474 1094.65 574.49 1085.58 569.624C1079.1 566.505 1075.17 564.977 1067.49 562.772C1049.46 555.841 1044.06 550.282 1047.29 535.779C1048.38 511.098 1039.38 497.546 1011.28 493.569C1000.11 490.296 997.708 486.413 996.531 477.846C994.762 456.253 992.08 446.503 978.935 437.141C974.195 434.336 970.212 434.85 967.555 439.87C960.192 450.848 959.441 463.036 963.904 483.256C959.663 497.086 959.561 503.977 963.307 514.742C958.219 523.748 958.379 530.712 961.538 544.96C956.044 533.146 954.87 526.323 959.117 513.484C955.611 501.532 955.768 494.986 958.894 483.517C955.594 456.318 956.984 444.9 966.654 433.039C970.646 429.61 973.231 429.444 978.05 430.199C991.004 438.169 997.425 447.208 1004.98 457.848C1007.35 461.182 1009.83 464.675 1012.66 468.34C1038.16 462.791 1052.65 464.906 1078.85 478.312C1095.03 464.924 1104.27 459.647 1121.07 454.373C1129.26 453.965 1131.82 455.5 1134.03 460.274C1139.4 482.187 1135.96 495.984 1120.31 522.825C1117.27 528.453 1116.42 531.819 1116.07 538.104ZM1119.61 515.055C1113.29 520.425 1109.12 517.786 1107.77 508.591C1106.84 505.692 1104.74 504.868 1098.34 504.755C1087.1 509.953 1077.29 492.351 1088.76 481.659C1101.3 469.412 1108.64 464.386 1122.54 460.348C1126.22 459.705 1127.7 460.377 1129.15 463.653C1132.03 482.013 1129.81 492.817 1119.61 515.055ZM1081.59 536.146C1082.61 535.177 1083.05 535.414 1082.57 536.86C1074.73 548.262 1067.77 551.723 1055.03 544.703C1053.7 543.758 1054.07 543.352 1055.5 543.9C1067.73 549.391 1073.93 547.071 1081.59 536.146ZM1075.13 538.822C1075.65 537.953 1075.52 537.702 1074.62 538.277C1069.99 543.005 1066.45 544.996 1059.52 540.606C1058.71 540.147 1058.3 540.445 1059.1 541.142C1065.59 546.777 1070.28 545.503 1075.13 538.822ZM1085.39 535.206C1063.47 529.605 1055.93 531.493 1052.42 545.421C1052.26 546.356 1051.82 546.319 1051.74 545.304C1052.03 529.468 1064.26 524.588 1086.08 534.477C1087.61 535.172 1087.27 535.804 1085.39 535.206Z" fill="#252324"/>
<ellipse cx="1062.13" cy="535.917" rx="1.80149" ry="1.66183" transform="rotate(9.75878 1062.13 535.917)" fill="#0594A7"/>
<path d="M1027.27 584.436C1027.15 583.544 1027.21 582.851 1027.45 581.405C1027.23 581.036 1027.06 580.979 1026.64 581.266C1026.49 582.45 1026.34 583.117 1025.8 584.316C1020.25 588.392 1012.46 588.07 1005.77 583.559C1012.31 589.418 1018.49 589.489 1026.38 587.629C1032.23 592.619 1040.57 593.312 1046.65 590.591C1039.11 592.765 1030.74 590.396 1027.27 584.436Z" fill="#252324"/>
<path d="M1039.76 572.883C1042.36 571.832 1040.85 566.558 1043.21 552.848C1042.79 548.498 1041.18 564.646 1039.24 570.741C1037.08 568.976 1035.44 568.615 1031.93 568.841C1029.81 569.01 1028.52 568.778 1026.05 567.829C1023.33 566.515 1021.73 566.44 1018.75 567.218C1020.39 560.455 1022.31 546.145 1021.27 548.817C1019.99 560.062 1015.31 566.625 1017.69 569.652C1021.3 572.693 1024.66 574.549 1023.68 577.207C1024.67 578.704 1025.21 579.518 1027.29 580.556C1029.16 580.337 1030.06 579.756 1031.59 578.466C1030.99 575.697 1036.26 575.744 1039.76 572.883Z" fill="#252324"/>
</g>
<g opacity="0.5">
<g filter="url(#filter2_b)">
<path d="M160.577 188.653C149.908 192.118 144.442 198.307 135.051 211.632M160.475 187.925C146.827 189.731 140.373 195.425 129.209 206.94M160.39 186.818C147.427 186.971 139.363 190.661 124.134 201.076" stroke="black" stroke-width="5.18236" stroke-linecap="round"/>
</g>
<g filter="url(#filter3_b)">
<path d="M187.534 186.586C198.606 188.385 204.951 193.669 216.263 205.407M187.524 185.851C201.287 185.556 208.534 190.2 221.322 199.879M187.439 184.744C200.274 182.92 208.806 185.338 225.444 193.31" stroke="black" stroke-width="5.18236" stroke-linecap="round"/>
</g>
<path fill-rule="evenodd" clip-rule="evenodd" d="M140.571 157.025C153.765 153.464 161.993 155.383 161.204 166.508C161.056 165.761 160.81 165.393 160.071 164.848C151.07 168.291 147.342 165.701 145.02 157.742C144.145 156.885 142.974 156.86 140.571 157.025ZM147.766 160.333C147.259 159.902 147.17 160.056 147.43 160.653C149.979 165.3 152.716 166.432 156.885 163.2C157.401 162.8 157.172 162.58 156.66 162.825C152.296 165.221 150.283 163.699 147.766 160.333Z" fill="#252324"/>
<ellipse cx="150.792" cy="159.911" rx="1.14173" ry="1.10538" transform="rotate(-4.38329 150.792 159.911)" fill="#A70505"/>
<path fill-rule="evenodd" clip-rule="evenodd" d="M219.062 150.047C222.991 162.405 221.247 170.345 212.829 185.865C213.859 178.613 212.103 176.402 206.113 174.729C201.882 173.763 199.374 173.405 194.582 173.204C183.082 171.616 179.109 168.938 178.801 159.258C175.727 143.468 168.464 136.29 151.564 138.137C144.587 137.801 142.612 135.716 140.641 130.477C136.367 117.086 133.345 111.333 124.31 107.449C121.138 106.41 118.904 107.354 118.117 110.943C115.495 119.034 116.892 126.864 122.521 138.968C122.14 148.379 123.117 152.756 126.909 158.987C125.311 165.476 126.451 169.859 130.426 178.385C125.462 171.762 123.755 167.626 124.289 158.842C120.458 151.822 119.565 147.655 119.654 139.911C113.649 123.21 112.739 115.769 116.567 106.76C118.368 103.97 119.843 103.464 122.752 103.193C131.468 106.225 136.553 110.948 142.538 116.508C144.414 118.251 146.379 120.075 148.571 121.956C162.532 114.484 171.259 113.572 188.477 117.987C195.852 107.002 200.42 102.227 209.374 96.2805C214.068 94.7497 215.783 95.3239 217.785 98.0012C224.192 111.036 224.272 120.302 219.225 139.719C218.309 143.752 218.324 146.014 219.062 150.047ZM217.651 134.911C214.795 139.29 211.976 138.268 209.81 132.658C208.835 130.968 207.493 130.772 203.762 131.695C198.023 136.73 189.683 127.114 194.73 118.567C200.166 108.868 203.667 104.548 211.128 99.833C213.167 98.8542 214.126 99.0503 215.46 100.898C219.889 112.071 220.228 119.252 217.651 134.911ZM198.759 154.163C199.21 153.391 199.498 153.473 199.44 154.462C196.602 162.896 193.084 166.167 184.635 163.704C183.723 163.312 183.877 162.997 184.787 163.122C192.711 164.697 195.962 162.266 198.759 154.163ZM195.419 156.859C195.585 156.23 195.473 156.091 195.039 156.594C193.064 160.305 191.306 162.115 186.628 160.412C186.085 160.248 185.892 160.501 186.462 160.818C191.076 163.376 193.608 161.84 195.419 156.859ZM200.829 152.977C187.263 152.838 183.171 155.203 183.234 164.562C183.281 165.179 183.016 165.225 182.821 164.593C180.607 154.527 186.971 149.539 201.118 152.409C202.111 152.61 202.008 153.064 200.829 152.977Z" fill="#252324"/>
<ellipse cx="187.435" cy="157.04" rx="1.07927" ry="1.08341" transform="rotate(-4.38329 187.435 157.04)" fill="#A70505"/>
<path d="M174.504 193.159C174.298 192.614 174.228 192.167 174.152 191.214C173.967 191.014 173.86 191.005 173.661 191.251C173.753 192.023 173.765 192.469 173.631 193.312C171.024 196.754 166.457 197.759 161.898 195.943C166.57 198.636 170.17 197.721 174.467 195.319C178.612 197.568 183.554 196.712 186.677 194.044C182.623 196.592 177.415 196.392 174.504 193.159Z" fill="#252324"/>
<path d="M180.014 183.908C181.366 182.839 179.695 179.737 179.001 170.694C178.108 168.005 179.598 178.475 179.391 182.634C177.869 181.852 176.865 181.878 174.864 182.566C173.656 183.003 172.871 183.057 171.297 182.84C169.522 182.43 168.58 182.632 166.973 183.585C166.904 179.052 165.869 169.696 165.666 171.55C166.611 178.866 164.886 183.745 166.719 185.292C169.275 186.655 171.505 187.307 171.336 189.141C172.131 189.936 172.569 190.367 173.932 190.701C174.984 190.272 175.419 189.764 176.11 188.711C175.348 187.051 178.414 186.262 180.014 183.908Z" fill="#252324"/>
</g>
<path d="M487.16 797.766C400.105 783.416 282.439 727.931 121.723 754.717C284.352 837.944 363.753 858.99 468.027 990.05L691.88 990.05C679.444 931.695 596.364 849.514 487.16 797.766Z" fill="#53575A"/>
<path fill-rule="evenodd" clip-rule="evenodd" d="M186.993 497.805C195.641 497.805 202.651 504.816 202.651 513.463L202.651 825.395C202.651 834.042 195.641 841.052 186.993 841.052C178.346 841.052 171.336 834.042 171.336 825.395L171.336 513.463C171.336 504.816 178.346 497.805 186.993 497.805Z" fill="black"/>
<path d="M0.737305 730.375C0.737305 730.375 181.555 770.618 320.02 770.618C452.286 770.618 490.676 990.032 490.676 990.032H0.737305V730.375Z" fill="#53575A"/>
<path d="M476.09 990.05H416.515C412.046 965.501 407.778 949.791 395.828 916.97C377.181 884.56 360.96 868.822 324.244 844.039C270.617 812.533 235.633 797.751 159.453 779.459C148.025 773.167 142.997 768.171 136.611 756.506L152.456 758.846L281.443 771.015C330.634 767.5 355.884 775.42 395.828 811.171C440.429 868.082 461.639 918.721 476.09 990.05Z" fill="#63686B"/>
<path d="M436.63 512.484C348.792 537.313 306.026 489.4 197.291 512.484L197.291 640.658C306.026 618.789 344.9 661.517 436.63 640.658V512.484Z" fill="#040332" fill-opacity="0.9"/>
<path d="M260.828 562.412C261.833 562.412 262.654 562.336 263.293 562.184C263.963 562.001 264.495 561.773 264.891 561.499C265.286 561.195 265.56 560.845 265.712 560.449C265.864 560.054 265.94 559.612 265.94 559.125C265.94 558.091 265.454 557.239 264.48 556.569C263.506 555.87 261.833 555.124 259.459 554.333C258.424 553.968 257.39 553.557 256.355 553.101C255.321 552.614 254.393 552.02 253.571 551.32C252.749 550.59 252.08 549.723 251.563 548.719C251.045 547.684 250.787 546.437 250.787 544.976C250.787 543.515 251.061 542.207 251.608 541.051C252.156 539.864 252.932 538.86 253.936 538.038C254.94 537.217 256.157 536.593 257.588 536.167C259.018 535.71 260.631 535.482 262.426 535.482C264.556 535.482 266.397 535.71 267.949 536.167C269.501 536.623 270.779 537.125 271.783 537.673L269.729 543.287C268.846 542.831 267.857 542.435 266.762 542.1C265.697 541.735 264.404 541.553 262.882 541.553C261.178 541.553 259.946 541.796 259.185 542.283C258.455 542.739 258.09 543.454 258.09 544.428C258.09 545.006 258.227 545.493 258.501 545.889C258.774 546.284 259.155 546.65 259.642 546.984C260.159 547.289 260.737 547.578 261.376 547.851C262.046 548.095 262.776 548.354 263.567 548.627C265.21 549.236 266.64 549.845 267.857 550.453C269.075 551.031 270.079 551.716 270.87 552.507C271.692 553.298 272.3 554.226 272.696 555.291C273.091 556.356 273.289 557.65 273.289 559.171C273.289 562.123 272.254 564.42 270.185 566.063C268.116 567.676 264.997 568.482 260.828 568.482C259.429 568.482 258.166 568.391 257.04 568.209C255.914 568.056 254.91 567.859 254.027 567.615C253.175 567.372 252.43 567.113 251.791 566.839C251.182 566.565 250.665 566.307 250.239 566.063L252.247 560.403C253.191 560.921 254.347 561.392 255.716 561.818C257.116 562.214 258.82 562.412 260.828 562.412Z" fill="#D9D9D9"/>
<path d="M277.17 556.022C277.17 553.892 277.49 552.035 278.129 550.453C278.798 548.84 279.665 547.502 280.73 546.437C281.795 545.372 283.013 544.565 284.382 544.017C285.782 543.47 287.212 543.196 288.672 543.196C292.08 543.196 294.773 544.246 296.751 546.345C298.729 548.414 299.718 551.473 299.718 555.52C299.718 555.915 299.703 556.356 299.673 556.843C299.642 557.3 299.612 557.711 299.581 558.076H284.154C284.306 559.475 284.96 560.586 286.116 561.408C287.273 562.229 288.825 562.64 290.772 562.64C292.02 562.64 293.237 562.534 294.424 562.321C295.641 562.077 296.63 561.788 297.39 561.453L298.303 566.976C297.938 567.159 297.451 567.341 296.843 567.524C296.234 567.706 295.549 567.859 294.789 567.98C294.058 568.132 293.267 568.254 292.415 568.346C291.563 568.437 290.711 568.482 289.859 568.482C287.699 568.482 285.812 568.163 284.199 567.524C282.617 566.885 281.293 566.018 280.228 564.922C279.194 563.796 278.418 562.473 277.901 560.951C277.414 559.43 277.17 557.787 277.17 556.022ZM293.145 553.42C293.115 552.842 293.009 552.279 292.826 551.731C292.674 551.183 292.415 550.697 292.05 550.271C291.715 549.845 291.274 549.495 290.726 549.221C290.209 548.947 289.555 548.81 288.764 548.81C288.003 548.81 287.349 548.947 286.801 549.221C286.253 549.464 285.797 549.799 285.432 550.225C285.067 550.651 284.777 551.153 284.564 551.731C284.382 552.279 284.245 552.842 284.154 553.42H293.145Z" fill="#D9D9D9"/>
<path d="M326.282 543.835C324.913 548.46 323.483 552.796 321.992 556.843C320.501 560.89 318.873 564.816 317.108 568.619C316.469 569.989 315.83 571.145 315.191 572.088C314.552 573.062 313.852 573.853 313.091 574.462C312.33 575.101 311.463 575.557 310.489 575.831C309.546 576.135 308.435 576.287 307.157 576.287C306.092 576.287 305.103 576.181 304.191 575.968C303.308 575.785 302.578 575.572 302 575.329L303.186 569.897C303.886 570.141 304.51 570.308 305.058 570.399C305.605 570.491 306.184 570.536 306.792 570.536C308.009 570.536 308.937 570.202 309.577 569.532C310.246 568.893 310.809 567.996 311.265 566.839C309.713 563.796 308.162 560.388 306.61 556.615C305.058 552.811 303.597 548.551 302.228 543.835H309.44C309.744 545.022 310.094 546.315 310.489 547.715C310.915 549.084 311.357 550.484 311.813 551.914C312.269 553.314 312.726 554.683 313.182 556.022C313.669 557.361 314.126 558.578 314.552 559.673C314.947 558.578 315.358 557.361 315.784 556.022C316.21 554.683 316.621 553.314 317.016 551.914C317.442 550.484 317.838 549.084 318.203 547.715C318.599 546.315 318.949 545.022 319.253 543.835H326.282Z" fill="#D9D9D9"/>
<path d="M329.928 544.656C331.084 544.322 332.575 544.017 334.401 543.744C336.227 543.439 338.144 543.287 340.152 543.287C342.191 543.287 343.88 543.561 345.219 544.109C346.588 544.626 347.668 545.372 348.459 546.345C349.25 547.319 349.813 548.475 350.148 549.814C350.483 551.153 350.65 552.644 350.65 554.287V567.843H343.849V555.109C343.849 552.918 343.56 551.366 342.982 550.453C342.404 549.54 341.324 549.084 339.741 549.084C339.254 549.084 338.737 549.114 338.189 549.175C337.642 549.206 337.155 549.251 336.729 549.312V567.843H329.928V544.656Z" fill="#D9D9D9"/>
<path d="M355.665 556.022C355.665 553.892 355.984 552.035 356.623 550.453C357.293 548.84 358.16 547.502 359.225 546.437C360.29 545.372 361.507 544.565 362.877 544.017C364.276 543.47 365.706 543.196 367.167 543.196C370.575 543.196 373.268 544.246 375.246 546.345C377.224 548.414 378.213 551.473 378.213 555.52C378.213 555.915 378.198 556.356 378.167 556.843C378.137 557.3 378.106 557.711 378.076 558.076H362.648C362.8 559.475 363.455 560.586 364.611 561.408C365.767 562.229 367.319 562.64 369.267 562.64C370.514 562.64 371.731 562.534 372.918 562.321C374.135 562.077 375.124 561.788 375.885 561.453L376.798 566.976C376.433 567.159 375.946 567.341 375.337 567.524C374.729 567.706 374.044 567.859 373.283 567.98C372.553 568.132 371.762 568.254 370.91 568.346C370.058 568.437 369.206 568.482 368.354 568.482C366.193 568.482 364.307 568.163 362.694 567.524C361.112 566.885 359.788 566.018 358.723 564.922C357.688 563.796 356.912 562.473 356.395 560.951C355.908 559.43 355.665 557.787 355.665 556.022ZM371.64 553.42C371.61 552.842 371.503 552.279 371.321 551.731C371.168 551.183 370.91 550.697 370.545 550.271C370.21 549.845 369.769 549.495 369.221 549.221C368.704 548.947 368.049 548.81 367.258 548.81C366.498 548.81 365.843 548.947 365.296 549.221C364.748 549.464 364.292 549.799 363.926 550.225C363.561 550.651 363.272 551.153 363.059 551.731C362.877 552.279 362.74 552.842 362.648 553.42H371.64Z" fill="#D9D9D9"/>
<path d="M691.881 990.05H626.622L605.59 938.634L563.125 881.399L503.428 830.934C484.459 812.502 469.496 804.954 442.876 790.45L487.315 799.969C593.081 851.575 669.417 918.916 691.881 990.05Z" fill="#63686B"/>
<path d="M301.305 597.771C301.305 598.466 301.152 599.133 300.847 599.773C300.543 600.413 300.146 601.035 299.658 601.638C299.171 602.223 298.622 602.79 298.012 603.338C297.403 603.887 296.803 604.408 296.214 604.901C295.909 605.157 295.573 605.45 295.208 605.779C294.862 606.09 294.527 606.41 294.202 606.739C293.876 607.068 293.582 607.379 293.318 607.671C293.074 607.945 292.921 608.174 292.86 608.357H301.945V611.785H287.861C287.82 611.584 287.8 611.328 287.8 611.017C287.8 610.706 287.8 610.487 287.8 610.359C287.8 609.481 287.952 608.677 288.257 607.945C288.582 607.214 288.999 606.538 289.507 605.916C290.015 605.276 290.584 604.682 291.214 604.134C291.864 603.585 292.505 603.037 293.135 602.488C293.622 602.068 294.08 601.675 294.507 601.309C294.933 600.925 295.309 600.559 295.634 600.212C295.96 599.846 296.214 599.49 296.397 599.143C296.579 598.777 296.671 598.411 296.671 598.046C296.671 597.241 296.417 596.675 295.909 596.345C295.401 596.016 294.771 595.852 294.019 595.852C293.47 595.852 292.952 595.934 292.464 596.099C291.997 596.245 291.56 596.428 291.153 596.647C290.767 596.848 290.432 597.058 290.147 597.278C289.863 597.479 289.649 597.643 289.507 597.771L287.251 594.919C288.145 594.17 289.182 593.557 290.361 593.082C291.56 592.588 292.84 592.342 294.202 592.342C295.441 592.342 296.508 592.47 297.403 592.726C298.297 592.982 299.028 593.347 299.597 593.823C300.187 594.28 300.614 594.846 300.878 595.523C301.162 596.181 301.305 596.93 301.305 597.771Z" fill="#D9D9D9"/>
<path d="M319.789 602.241C319.789 605.441 319.109 607.9 317.747 609.618C316.406 611.318 314.546 612.169 312.168 612.169C309.79 612.169 307.921 611.318 306.559 609.618C305.218 607.9 304.547 605.441 304.547 602.241C304.547 600.651 304.72 599.243 305.065 598.018C305.431 596.793 305.949 595.76 306.62 594.919C307.291 594.078 308.093 593.439 309.028 593C309.963 592.561 311.01 592.342 312.168 592.342C314.546 592.342 316.406 593.201 317.747 594.919C319.109 596.62 319.789 599.06 319.789 602.241ZM315.156 602.241C315.156 601.291 315.105 600.431 315.003 599.664C314.902 598.878 314.739 598.201 314.516 597.634C314.292 597.068 313.987 596.629 313.601 596.318C313.215 596.007 312.737 595.852 312.168 595.852C311.599 595.852 311.122 596.007 310.735 596.318C310.37 596.629 310.065 597.068 309.821 597.634C309.597 598.201 309.435 598.878 309.333 599.664C309.232 600.431 309.181 601.291 309.181 602.241C309.181 603.192 309.232 604.06 309.333 604.847C309.435 605.633 309.597 606.309 309.821 606.876C310.065 607.443 310.37 607.881 310.735 608.192C311.122 608.503 311.599 608.658 312.168 608.658C312.737 608.658 313.215 608.503 313.601 608.192C313.987 607.881 314.292 607.443 314.516 606.876C314.739 606.309 314.902 605.633 315.003 604.847C315.105 604.06 315.156 603.192 315.156 602.241Z" fill="#D9D9D9"/>
<path d="M335.957 597.771C335.957 598.466 335.805 599.133 335.5 599.773C335.195 600.413 334.799 601.035 334.311 601.638C333.823 602.223 333.275 602.79 332.665 603.338C332.055 603.887 331.456 604.408 330.866 604.901C330.562 605.157 330.226 605.45 329.86 605.779C329.515 606.09 329.18 606.41 328.854 606.739C328.529 607.068 328.235 607.379 327.97 607.671C327.727 607.945 327.574 608.174 327.513 608.357H336.598V611.785H322.514C322.473 611.584 322.453 611.328 322.453 611.017C322.453 610.706 322.453 610.487 322.453 610.359C322.453 609.481 322.605 608.677 322.91 607.945C323.235 607.214 323.652 606.538 324.16 605.916C324.668 605.276 325.237 604.682 325.867 604.134C326.517 603.585 327.157 603.037 327.787 602.488C328.275 602.068 328.733 601.675 329.159 601.309C329.586 600.925 329.962 600.559 330.287 600.212C330.612 599.846 330.866 599.49 331.049 599.143C331.232 598.777 331.324 598.411 331.324 598.046C331.324 597.241 331.07 596.675 330.562 596.345C330.054 596.016 329.423 595.852 328.672 595.852C328.123 595.852 327.605 595.934 327.117 596.099C326.649 596.245 326.212 596.428 325.806 596.647C325.42 596.848 325.084 597.058 324.8 597.278C324.515 597.479 324.302 597.643 324.16 597.771L321.904 594.919C322.798 594.17 323.835 593.557 325.013 593.082C326.212 592.588 327.493 592.342 328.854 592.342C330.094 592.342 331.161 592.47 332.055 592.726C332.95 592.982 333.681 593.347 334.25 593.823C334.84 594.28 335.266 594.846 335.531 595.523C335.815 596.181 335.957 596.93 335.957 597.771Z" fill="#D9D9D9"/>
<path d="M354.442 602.241C354.442 605.441 353.761 607.9 352.4 609.618C351.058 611.318 349.199 612.169 346.821 612.169C344.443 612.169 342.573 611.318 341.212 609.618C339.87 607.9 339.2 605.441 339.2 602.241C339.2 600.651 339.373 599.243 339.718 598.018C340.084 596.793 340.602 595.76 341.273 594.919C341.943 594.078 342.746 593.439 343.681 593C344.616 592.561 345.663 592.342 346.821 592.342C349.199 592.342 351.058 593.201 352.4 594.919C353.761 596.62 354.442 599.06 354.442 602.241ZM349.809 602.241C349.809 601.291 349.758 600.431 349.656 599.664C349.554 598.878 349.392 598.201 349.168 597.634C348.945 597.068 348.64 596.629 348.254 596.318C347.868 596.007 347.39 595.852 346.821 595.852C346.252 595.852 345.774 596.007 345.388 596.318C345.022 596.629 344.718 597.068 344.474 597.634C344.25 598.201 344.088 598.878 343.986 599.664C343.884 600.431 343.833 601.291 343.833 602.241C343.833 603.192 343.884 604.06 343.986 604.847C344.088 605.633 344.25 606.309 344.474 606.876C344.718 607.443 345.022 607.881 345.388 608.192C345.774 608.503 346.252 608.658 346.821 608.658C347.39 608.658 347.868 608.503 348.254 608.192C348.64 607.881 348.945 607.443 349.168 606.876C349.392 606.309 349.554 605.633 349.656 604.847C349.758 604.06 349.809 603.192 349.809 602.241Z" fill="#D9D9D9"/>
<g filter="url(#filter4_d)">
<path d="M845.151 904.005C851.084 904.005 855.638 905.058 858.815 907.163C861.992 909.229 863.58 912.636 863.58 917.382C863.58 922.166 861.972 925.63 858.757 927.773C855.542 929.878 850.95 930.931 844.979 930.931H842.166V944.25H833.21V905.038C835.162 904.656 837.229 904.388 839.41 904.235C841.592 904.082 843.505 904.005 845.151 904.005ZM845.725 911.641C845.075 911.641 844.424 911.66 843.773 911.698C843.161 911.736 842.625 911.775 842.166 911.813V923.295H844.979C848.079 923.295 850.414 922.874 851.983 922.032C853.552 921.19 854.337 919.621 854.337 917.324C854.337 916.214 854.126 915.296 853.705 914.569C853.323 913.841 852.749 913.267 851.983 912.846C851.256 912.387 850.356 912.081 849.285 911.928C848.213 911.736 847.027 911.641 845.725 911.641ZM881.811 904.005C887.782 904.005 892.355 905.077 895.532 907.22C898.709 909.325 900.297 912.617 900.297 917.095C900.297 919.889 899.646 922.166 898.345 923.926C897.082 925.649 895.245 927.007 892.834 928.003C893.637 928.998 894.479 930.146 895.36 931.447C896.24 932.71 897.101 934.05 897.943 935.466C898.824 936.844 899.666 938.298 900.469 939.829C901.273 941.322 902.019 942.795 902.708 944.25H892.661C891.934 942.948 891.188 941.628 890.422 940.288C889.695 938.949 888.93 937.648 888.126 936.385C887.361 935.121 886.595 933.935 885.83 932.825C885.064 931.677 884.299 930.643 883.533 929.725H879.113V944.25H870.157V905.038C872.109 904.656 874.118 904.388 876.185 904.235C878.29 904.082 880.165 904.005 881.811 904.005ZM882.328 911.641C881.677 911.641 881.084 911.66 880.548 911.698C880.05 911.736 879.572 911.775 879.113 911.813V922.606H881.639C885.007 922.606 887.418 922.185 888.872 921.343C890.327 920.501 891.054 919.066 891.054 917.037C891.054 915.085 890.308 913.707 888.815 912.904C887.361 912.062 885.198 911.641 882.328 911.641ZM914.96 924.328C914.96 926.28 915.19 928.041 915.649 929.61C916.147 931.179 916.836 932.538 917.716 933.686C918.635 934.796 919.745 935.657 921.046 936.27C922.347 936.882 923.84 937.188 925.524 937.188C927.17 937.188 928.643 936.882 929.945 936.27C931.284 935.657 932.394 934.796 933.274 933.686C934.193 932.538 934.882 931.179 935.341 929.61C935.839 928.041 936.088 926.28 936.088 924.328C936.088 922.376 935.839 920.616 935.341 919.047C934.882 917.439 934.193 916.08 933.274 914.97C932.394 913.822 931.284 912.942 929.945 912.33C928.643 911.717 927.17 911.411 925.524 911.411C923.84 911.411 922.347 911.736 921.046 912.387C919.745 912.999 918.635 913.88 917.716 915.028C916.836 916.138 916.147 917.496 915.649 919.104C915.19 920.673 914.96 922.415 914.96 924.328ZM945.331 924.328C945.331 927.735 944.814 930.739 943.781 933.342C942.785 935.906 941.408 938.069 939.647 939.829C937.886 941.551 935.781 942.853 933.332 943.733C930.921 944.613 928.318 945.054 925.524 945.054C922.807 945.054 920.242 944.613 917.831 943.733C915.42 942.853 913.315 941.551 911.516 939.829C909.717 938.069 908.301 935.906 907.267 933.342C906.234 930.739 905.717 927.735 905.717 924.328C905.717 920.922 906.253 917.937 907.325 915.372C908.397 912.77 909.832 910.588 911.631 908.828C913.468 907.067 915.573 905.746 917.946 904.866C920.357 903.986 922.883 903.546 925.524 903.546C928.241 903.546 930.806 903.986 933.217 904.866C935.628 905.746 937.733 907.067 939.532 908.828C941.331 910.588 942.747 912.77 943.781 915.372C944.814 917.937 945.331 920.922 945.331 924.328ZM973.459 944.25C972.349 942.03 971.124 939.791 969.785 937.533C968.483 935.236 966.972 932.902 965.249 930.529C964.713 931.218 964.025 932.174 963.183 933.399C962.379 934.624 961.556 935.925 960.714 937.303C959.91 938.681 959.145 940.001 958.417 941.264C957.69 942.527 957.154 943.523 956.81 944.25H946.591C948.275 941.15 950.227 937.896 952.447 934.49C954.705 931.084 957.212 927.467 959.968 923.639L947.165 904.464H958.016L965.766 916.865L973.344 904.464H983.563L970.933 923.754C974.148 927.926 976.846 931.792 979.028 935.351C981.209 938.872 982.932 941.839 984.195 944.25H973.459ZM989.35 904.464H998.307V944.25H989.35V904.464ZM1018.08 904.464C1018.77 905.727 1019.55 907.297 1020.43 909.172C1021.35 911.009 1022.29 913.018 1023.25 915.2C1024.24 917.343 1025.22 919.544 1026.17 921.802C1027.13 924.06 1028.03 926.185 1028.87 928.175C1029.71 926.185 1030.61 924.06 1031.57 921.802C1032.53 919.544 1033.48 917.343 1034.44 915.2C1035.44 913.018 1036.37 911.009 1037.25 909.172C1038.17 907.297 1038.98 905.727 1039.67 904.464H1047.82C1048.2 907.105 1048.54 910.071 1048.85 913.363C1049.2 916.616 1049.48 920.023 1049.71 923.582C1049.98 927.103 1050.21 930.643 1050.4 934.203C1050.63 937.762 1050.82 941.111 1050.98 944.25H1042.25C1042.13 940.384 1041.98 936.174 1041.79 931.619C1041.6 927.065 1041.31 922.472 1040.93 917.841C1040.24 919.448 1039.47 921.228 1038.63 923.18C1037.79 925.132 1036.95 927.084 1036.11 929.036C1035.3 930.988 1034.52 932.863 1033.75 934.662C1032.99 936.423 1032.34 937.935 1031.8 939.198H1025.54C1025.01 937.935 1024.36 936.423 1023.59 934.662C1022.82 932.863 1022.02 930.988 1021.18 929.036C1020.38 927.084 1019.55 925.132 1018.71 923.18C1017.87 921.228 1017.1 919.448 1016.41 917.841C1016.03 922.472 1015.74 927.065 1015.55 931.619C1015.36 936.174 1015.21 940.384 1015.09 944.25H1006.37C1006.52 941.111 1006.69 937.762 1006.88 934.203C1007.11 930.643 1007.34 927.103 1007.57 923.582C1007.84 920.023 1008.13 916.616 1008.43 913.363C1008.78 910.071 1009.14 907.105 1009.52 904.464H1018.08ZM1085.68 944.25C1085.26 942.872 1084.78 941.456 1084.24 940.001C1083.74 938.547 1083.25 937.093 1082.75 935.638H1067.25C1066.75 937.093 1066.23 938.547 1065.7 940.001C1065.2 941.456 1064.74 942.872 1064.32 944.25H1055.02C1056.51 939.963 1057.93 936.002 1059.27 932.366C1060.61 928.73 1061.91 925.304 1063.17 922.089C1064.47 918.874 1065.74 915.832 1066.96 912.961C1068.22 910.052 1069.53 907.22 1070.87 904.464H1079.42C1080.72 907.22 1082 910.052 1083.27 912.961C1084.53 915.832 1085.79 918.874 1087.06 922.089C1088.36 925.304 1089.68 928.73 1091.02 932.366C1092.36 936.002 1093.77 939.963 1095.27 944.25H1085.68ZM1074.94 913.478C1074.75 914.052 1074.46 914.836 1074.08 915.832C1073.7 916.827 1073.26 917.975 1072.76 919.276C1072.26 920.578 1071.71 922.013 1071.1 923.582C1070.52 925.151 1069.93 926.797 1069.32 928.519H1080.63C1080.01 926.797 1079.42 925.151 1078.85 923.582C1078.27 922.013 1077.72 920.578 1077.18 919.276C1076.68 917.975 1076.24 916.827 1075.86 915.832C1075.48 914.836 1075.17 914.052 1074.94 913.478ZM1110.98 904.464C1111.67 905.727 1112.45 907.297 1113.33 909.172C1114.25 911.009 1115.19 913.018 1116.15 915.2C1117.14 917.343 1118.12 919.544 1119.07 921.802C1120.03 924.06 1120.93 926.185 1121.77 928.175C1122.61 926.185 1123.51 924.06 1124.47 921.802C1125.43 919.544 1126.38 917.343 1127.34 915.2C1128.34 913.018 1129.27 911.009 1130.15 909.172C1131.07 907.297 1131.88 905.727 1132.56 904.464H1140.72C1141.1 907.105 1141.44 910.071 1141.75 913.363C1142.09 916.616 1142.38 920.023 1142.61 923.582C1142.88 927.103 1143.11 930.643 1143.3 934.203C1143.53 937.762 1143.72 941.111 1143.87 944.25H1135.15C1135.03 940.384 1134.88 936.174 1134.69 931.619C1134.5 927.065 1134.21 922.472 1133.83 917.841C1133.14 919.448 1132.37 921.228 1131.53 923.18C1130.69 925.132 1129.85 927.084 1129.01 929.036C1128.2 930.988 1127.42 932.863 1126.65 934.662C1125.89 936.423 1125.24 937.935 1124.7 939.198H1118.44C1117.91 937.935 1117.26 936.423 1116.49 934.662C1115.72 932.863 1114.92 930.988 1114.08 929.036C1113.27 927.084 1112.45 925.132 1111.61 923.18C1110.77 921.228 1110 919.448 1109.31 917.841C1108.93 922.472 1108.64 927.065 1108.45 931.619C1108.26 936.174 1108.11 940.384 1107.99 944.25H1099.27C1099.42 941.111 1099.59 937.762 1099.78 934.203C1100.01 930.643 1100.24 927.103 1100.47 923.582C1100.74 920.023 1101.03 916.616 1101.33 913.363C1101.68 910.071 1102.04 907.105 1102.42 904.464H1110.98ZM1151.94 944.25V904.464H1178.81V911.985H1160.89V919.793H1176.8V927.141H1160.89V936.729H1180.13V944.25H1151.94ZM1213.45 944.25C1210.89 939.695 1208.11 935.198 1205.13 930.758C1202.14 926.319 1198.96 922.128 1195.6 918.185V944.25H1186.75V904.464H1194.05C1195.31 905.727 1196.71 907.277 1198.24 909.115C1199.77 910.952 1201.32 912.923 1202.89 915.028C1204.49 917.095 1206.08 919.257 1207.65 921.515C1209.22 923.735 1210.7 925.878 1212.07 927.945V904.464H1220.97V944.25H1213.45ZM1259.66 904.464V912.1H1247.66V944.25H1238.7V912.1H1226.7V904.464H1259.66ZM1265.41 944.25V904.464H1292.28V911.985H1274.37V919.793H1290.27V927.141H1274.37V936.729H1293.6V944.25H1265.41Z" fill="#F5F5F5"/>
</g>
</g>
<defs>
<filter id="filter0_b" x="922.645" y="541.658" width="101.318" height="79.2398" filterUnits="userSpaceOnUse" color-interpolation-filters="sRGB">
<feFlood flood-opacity="0" result="BackgroundImageFix"/>
<feGaussianBlur in="BackgroundImage" stdDeviation="5.93406"/>
<feComposite in2="SourceAlpha" operator="in" result="effect1_backgroundBlur"/>
<feBlend mode="normal" in="SourceGraphic" in2="effect1_backgroundBlur" result="shape"/>
</filter>
<filter id="filter1_b" x="1028.46" y="559.856" width="101.318" height="79.2398" filterUnits="userSpaceOnUse" color-interpolation-filters="sRGB">
<feFlood flood-opacity="0" result="BackgroundImageFix"/>
<feGaussianBlur in="BackgroundImage" stdDeviation="5.93406"/>
<feComposite in2="SourceAlpha" operator="in" result="effect1_backgroundBlur"/>
<feBlend mode="normal" in="SourceGraphic" in2="effect1_backgroundBlur" result="shape"/>
</filter>
<filter id="filter2_b" x="113.557" y="176.991" width="58.3134" height="45.1028" filterUnits="userSpaceOnUse" color-interpolation-filters="sRGB">
<feFlood flood-opacity="0" result="BackgroundImageFix"/>
<feGaussianBlur in="BackgroundImage" stdDeviation="3.4549"/>
<feComposite in2="SourceAlpha" operator="in" result="effect1_backgroundBlur"/>
<feBlend mode="normal" in="SourceGraphic" in2="effect1_backgroundBlur" result="shape"/>
</filter>
<filter id="filter3_b" x="177.691" y="172.075" width="58.3134" height="45.1028" filterUnits="userSpaceOnUse" color-interpolation-filters="sRGB">
<feFlood flood-opacity="0" result="BackgroundImageFix"/>
<feGaussianBlur in="BackgroundImage" stdDeviation="3.4549"/>
<feComposite in2="SourceAlpha" operator="in" result="effect1_backgroundBlur"/>
<feBlend mode="normal" in="SourceGraphic" in2="effect1_backgroundBlur" result="shape"/>
</filter>
<filter id="filter4_d" x="833.21" y="903.546" width="468.519" height="50.6495" filterUnits="userSpaceOnUse" color-interpolation-filters="sRGB">
<feFlood flood-opacity="0" result="BackgroundImageFix"/>
<feColorMatrix in="SourceAlpha" type="matrix" values="0 0 0 0 0 0 0 0 0 0 0 0 0 0 0 0 0 0 127 0"/>
<feOffset dx="4.06298" dy="5.07873"/>
<feGaussianBlur stdDeviation="2.03149"/>
<feColorMatrix type="matrix" values="0 0 0 0 1 0 0 0 0 1 0 0 0 0 1 0 0 0 0.4 0"/>
<feBlend mode="normal" in2="BackgroundImageFix" result="effect1_dropShadow"/>
<feBlend mode="normal" in="SourceGraphic" in2="effect1_dropShadow" result="shape"/>
</filter>
<clipPath id="clip0">
<rect width="1440" height="990" fill="white" transform="translate(0.737305 0.0499878)"/>
</clipPath>
</defs>
</svg>
