<svg width="321" height="568" viewBox="0 0 321 568" fill="none" xmlns="http://www.w3.org/2000/svg">
<g clip-path="url(#clip0)">
<rect width="320" height="568" transform="translate(0.263)" fill="#3C576A"/>
<path opacity="0.82" d="M40.404 160.181L46.5863 158.348L42.149 153.669L48.0634 156.238L47.6718 149.802L50.5509 155.572L54.3883 150.389L52.8849 156.66L59.1557 155.157L53.9733 158.994L59.7433 161.873L53.3067 161.482L55.8762 167.396L51.1972 162.959L49.3638 169.141L48.6317 162.734L43.2533 166.292L46.8107 160.913L40.404 160.181Z" fill="#063885"/>
<path d="M153.98 96.6329L154.757 102.517L159.649 99.157L156.462 104.164L162.37 104.735L156.709 106.521L160.868 110.756L155.384 108.487L155.848 114.404L153.105 109.14L149.657 113.971L150.94 108.176L145.193 109.66L149.901 106.045L144.544 103.488L150.474 103.745L148.014 98.3434L152.392 102.352L153.98 96.6329Z" fill="#063885"/>
<path opacity="0.81" d="M227.533 58.217L222.506 57.196L223.875 62.1393L220.681 58.126L218.552 62.7929L218.685 57.6652L214.054 59.872L217.452 56.0291L212.486 54.7432L217.559 53.9834L214.582 49.8065L218.956 52.4853L219.36 47.3717L220.99 52.2356L224.586 48.5782L222.708 53.3513L227.814 52.8613L223.306 55.3103L227.533 58.217Z" fill="#063885"/>
<path opacity="0.76" d="M75.112 268.067L70.7514 262.178L67.4796 268.735L67.9246 261.42L61.2037 264.34L66.2461 259.023L59.2207 256.94L66.5012 256.108L62.4586 249.996L68.5705 254.039L69.4023 246.758L71.4858 253.783L76.8028 248.741L73.883 255.462L81.1973 255.017L74.6404 258.289L80.5295 262.649L73.4036 260.941L75.112 268.067Z" fill="#063885"/>
<path opacity="0.79" d="M154.637 279.6L162.394 282.497L161.459 274.27L165.539 281.476L170.111 274.572L168.605 282.714L176.545 280.365L170.157 285.634L177.75 288.938L169.47 288.869L173.162 296.28L166.864 290.905L164.928 298.956L163.559 290.789L156.901 295.713L161.101 288.577L152.837 288.068L160.641 285.302L154.637 279.6Z" fill="#063885"/>
<path opacity="0.71" d="M215.742 323.938L211.789 326.176L215.576 328.685L211.109 327.858L212.398 332.215L209.507 328.71L207.694 332.876L207.732 328.333L203.666 330.359L206.615 326.903L202.198 325.841L206.679 325.09L203.977 321.437L207.893 323.742L208.171 319.207L209.689 323.489L212.818 320.195L211.228 324.451L215.742 323.938Z" fill="#063885"/>
<path opacity="0.96" d="M63.5964 431.362L67.3262 438.837L72.2973 432.123L70.3497 440.247L78.4732 438.299L71.7597 443.27L79.2345 447L70.8962 446.493L74.2248 454.155L68.1634 448.406L65.7883 456.415L64.8399 448.115L57.8724 452.724L62.4809 445.756L54.1812 444.808L62.1902 442.433L56.4418 436.372L64.1037 439.7L63.5964 431.362Z" fill="#063885"/>
<path opacity="0.99" d="M218.247 484.532L222.234 487.27L222.867 482.475L224.161 487.135L227.727 483.869L225.723 488.27L230.555 488.061L226.19 490.144L230.026 493.09L225.344 491.88L226.389 496.602L223.579 492.666L221.345 496.955L221.723 492.133L217.254 493.983L220.643 490.532L216.031 489.076L220.845 488.611L218.247 484.532Z" fill="#063885"/>
<path opacity="0.84" d="M311.564 514.119L307.66 509.551L305.358 515.102L305.304 509.094L299.973 511.866L303.794 507.229L297.928 505.926L303.836 504.829L300.179 500.061L305.41 503.018L305.674 497.015L307.78 502.643L311.841 498.214L309.837 503.879L315.795 503.096L310.618 506.148L315.685 509.378L309.758 508.388L311.564 514.119Z" fill="#063885"/>
<g opacity="0.78">
<path d="M138.628 125.162C138.628 153.945 115.294 177.279 86.5103 177.279C57.7264 177.279 34.3925 153.945 34.3925 125.162C34.3925 96.3777 57.7264 73.0438 86.5103 73.0438C115.294 73.0438 138.628 96.3777 138.628 125.162Z" fill="#4E4949"/>
<path fill-rule="evenodd" clip-rule="evenodd" d="M86.5103 175.085C114.118 175.085 136.458 152.711 136.458 125.162C136.458 97.6124 114.118 75.2383 86.5103 75.2383C58.9026 75.2383 36.563 97.6124 36.563 125.162C36.563 152.711 58.9026 175.085 86.5103 175.085ZM86.5103 177.279C115.294 177.279 138.628 153.945 138.628 125.162C138.628 96.3777 115.294 73.0438 86.5103 73.0438C57.7264 73.0438 34.3925 96.3777 34.3925 125.162C34.3925 153.945 57.7264 177.279 86.5103 177.279Z" fill="black"/>
<path d="M128.204 125.162C128.204 148.189 109.537 166.856 86.5103 166.856C63.4832 166.856 44.8161 148.189 44.8161 125.162C44.8161 102.135 63.4832 83.4674 86.5103 83.4674C109.537 83.4674 128.204 102.135 128.204 125.162Z" fill="#525252"/>
<path fill-rule="evenodd" clip-rule="evenodd" d="M86.5103 165.539C108.832 165.539 126.902 147.448 126.902 125.162C126.902 102.875 108.832 84.7841 86.5103 84.7841C64.1889 84.7841 46.1183 102.875 46.1183 125.162C46.1183 147.448 64.1889 165.539 86.5103 165.539ZM86.5103 166.856C109.537 166.856 128.204 148.189 128.204 125.162C128.204 102.135 109.537 83.4674 86.5103 83.4674C63.4832 83.4674 44.8161 102.135 44.8161 125.162C44.8161 148.189 63.4832 166.856 86.5103 166.856Z" fill="black"/>
<path d="M105.562 107.242C108.677 101.823 109.685 99.3491 113.186 94.6396C108.869 91.1518 106.718 89.2872 100.75 87.345C97.8153 92.1835 95.1467 94.5329 91.8232 99.3227C87.4745 99.8899 85.2149 101.162 81.6717 106.033C80.35 108.671 80.3193 109.969 81.662 111.915C77.4715 114.69 77.3806 117.482 81.7197 120.171C82.812 123.192 84.0016 124.108 87.0142 124.533C89.8886 126.782 91.062 126.916 93.4524 125.713C97.1462 128.359 98.8145 127.045 101.323 121.445C103.804 114.684 105.512 110.417 104.831 108.392C105.325 107.959 105.44 107.704 105.562 107.242Z" fill="#0116D1"/>
<path fill-rule="evenodd" clip-rule="evenodd" d="M100.702 87.2142L100.783 87.2406C106.525 89.1093 108.751 90.9106 112.733 94.1323C112.903 94.2702 113.077 94.4107 113.254 94.5539L113.336 94.6204L113.273 94.7055C110.751 98.0976 109.528 100.324 107.871 103.338C107.232 104.499 106.53 105.778 105.664 107.285C105.603 107.512 105.541 107.699 105.429 107.885C105.324 108.06 105.177 108.228 104.956 108.427C105.114 108.944 105.127 109.587 105.027 110.35C104.923 111.149 104.694 112.09 104.367 113.175C103.826 114.969 103.015 117.169 102.049 119.788C101.847 120.335 101.639 120.9 101.425 121.483L101.423 121.487L101.422 121.49C100.794 122.892 100.217 124.03 99.6452 124.907C99.0741 125.782 98.5038 126.405 97.8868 126.766C96.6474 127.491 95.2704 127.137 93.4429 125.84C92.2701 126.424 91.367 126.693 90.3968 126.525C89.4218 126.357 88.3971 125.751 86.9708 124.637C85.4729 124.424 84.4072 124.085 83.579 123.411C82.7522 122.738 82.1758 121.742 81.631 120.244C79.4765 118.902 78.3796 117.51 78.384 116.075C78.3883 114.656 79.4695 113.256 81.51 111.885C80.874 110.942 80.5544 110.133 80.5594 109.233C80.5646 108.309 80.9126 107.306 81.5751 105.983L81.5791 105.975L81.5845 105.968C83.3591 103.529 84.8192 101.98 86.3874 100.971C87.946 99.969 89.6028 99.5054 91.7621 99.2202C93.1852 97.1728 94.4889 95.5701 95.7427 94.0288C95.9459 93.779 96.1478 93.5309 96.3486 93.2827C97.797 91.4931 99.1942 89.7006 100.658 87.2877L100.702 87.2142ZM100.798 87.4759C99.343 89.8645 97.9524 91.6476 96.5166 93.4216C96.3153 93.6704 96.1131 93.9189 95.9098 94.1689C94.648 95.7201 93.341 97.3268 91.9123 99.3858L91.8848 99.4254L91.8373 99.4316C89.6711 99.7141 88.0365 100.171 86.5038 101.157C84.9707 102.143 83.5308 103.664 81.7646 106.091C81.1082 107.402 80.7813 108.365 80.7765 109.234C80.7716 110.1 81.0867 110.889 81.7513 111.852L81.8152 111.945L81.7218 112.007C79.6318 113.391 78.605 114.754 78.601 116.076C78.597 117.395 79.6133 118.737 81.7767 120.077L81.8089 120.097L81.8219 120.133C82.3656 121.637 82.9275 122.599 83.7151 123.24C84.5027 123.881 85.5298 124.213 87.0294 124.424L87.058 124.428L87.0808 124.446C88.517 125.57 89.5106 126.15 90.4333 126.309C91.3501 126.467 92.2151 126.213 93.4043 125.614L93.4624 125.585L93.5154 125.623C95.3552 126.941 96.6447 127.239 97.778 126.576C98.3534 126.239 98.9013 125.649 99.4639 124.786C100.026 123.924 100.597 122.8 101.223 121.403C101.437 120.82 101.645 120.255 101.846 119.709C102.812 117.09 103.621 114.898 104.159 113.111C104.484 112.031 104.71 111.103 104.812 110.321C104.914 109.538 104.891 108.911 104.729 108.427L104.705 108.357L104.76 108.309C105.003 108.096 105.146 107.933 105.244 107.771C105.341 107.609 105.398 107.442 105.458 107.214L105.461 107.2L105.469 107.187C106.334 105.682 107.036 104.404 107.676 103.24C109.322 100.246 110.548 98.0161 113.036 94.6589C112.888 94.5387 112.742 94.4205 112.598 94.3041C108.64 91.102 106.442 89.3227 100.798 87.4759Z" fill="black"/>
<path fill-rule="evenodd" clip-rule="evenodd" d="M99.1071 101.507L103.404 95.5608L103.58 95.6902L99.2823 101.637L99.1071 101.507ZM99.8193 101.723L102.084 98.687L102.257 98.8191L99.9926 101.855L99.8193 101.723ZM96.9054 101.379C95.6179 100.733 94.823 100.41 93.2919 99.8855L93.3616 99.6776C94.8999 100.205 95.704 100.532 97.0018 101.182L96.9054 101.379ZM103.25 106.633C102.149 105.354 101.45 104.682 100.117 103.528L100.259 103.361C101.597 104.521 102.304 105.2 103.414 106.489L103.25 106.633ZM92.7539 109.472C91.2152 109.818 89.7606 109.738 87.9815 109.25L88.0384 109.038C89.791 109.519 91.2093 109.595 92.7068 109.258C94.2084 108.92 95.7965 108.167 97.8872 106.978L97.9936 107.17C95.8998 108.36 94.2884 109.127 92.7539 109.472ZM86.459 108.186C86.4808 108.044 86.4814 107.919 86.4585 107.795C86.4318 107.651 86.3746 107.516 86.2939 107.363L86.1023 107.466C86.1786 107.611 86.2243 107.723 86.2451 107.836C86.2655 107.946 86.2632 108.062 86.2336 108.215L86.0749 108.747C85.9888 108.726 85.9012 108.71 85.8119 108.699C85.3601 108.645 84.8736 108.723 84.3286 108.908L84.3976 109.116C84.9244 108.937 85.3771 108.868 85.7864 108.917C86.1938 108.966 86.5662 109.133 86.9318 109.438C87.6696 110.055 88.3725 111.232 89.2553 113.128C89.3932 113.512 89.3235 113.973 89.1068 114.437C88.89 114.901 88.5321 115.355 88.1203 115.712C87.7074 116.07 87.2493 116.323 86.8359 116.398C86.4278 116.472 86.0716 116.373 85.8266 116.036C85.2702 115.271 84.1893 114.153 83.2532 113.23C82.784 112.768 82.3493 112.353 82.032 112.054C81.8733 111.904 81.7439 111.783 81.6541 111.7C81.6092 111.658 81.5743 111.625 81.5505 111.604L81.5234 111.579L81.5142 111.57C81.5142 111.57 81.5141 111.57 81.4411 111.651C81.3681 111.732 81.3681 111.732 81.3682 111.732L81.3687 111.733L81.3772 111.741L81.4041 111.766C81.4277 111.787 81.4625 111.82 81.5072 111.861C81.5966 111.944 81.7256 112.065 81.8839 112.214C82.2004 112.513 82.6339 112.926 83.1017 113.387C84.0394 114.312 85.1075 115.418 85.6517 116.166C85.957 116.586 86.4049 116.699 86.8742 116.614C87.3383 116.53 87.8309 116.252 88.2616 115.879C88.6932 115.504 89.0715 115.027 89.3031 114.53C89.534 114.036 89.6252 113.509 89.4574 113.048L89.4558 113.043L89.4537 113.039C89.1496 112.385 88.8647 111.812 88.5899 111.315L88.6191 111.343L88.863 111.081C89.8391 111.28 90.4937 111.522 90.9693 111.918C91.4286 112.301 91.7328 112.837 91.9881 113.652L91.9783 113.673C89.8881 118.158 88.4978 120.83 86.6858 123.615L86.8671 123.736C88.6752 120.957 90.0639 118.291 92.1323 113.857L92.1389 113.856C93.1344 113.781 93.8305 113.858 94.3911 114.143C94.9445 114.426 95.3818 114.92 95.8427 115.716C95.8222 117.331 95.7007 118.633 95.2957 120.053C94.8878 121.484 94.191 123.041 93.0127 125.161L93.2019 125.269C94.3839 123.142 95.0898 121.568 95.5043 120.114C95.9107 118.689 96.0356 117.382 96.0588 115.788C96.897 115.727 97.5872 115.796 98.1391 116.012C98.7089 116.235 99.1369 116.617 99.4309 117.19C99.7266 117.766 99.8892 118.541 99.9152 119.55C99.9412 120.558 99.8306 121.792 99.5859 123.283L99.8 123.319C100.046 121.821 100.159 120.571 100.132 119.544C100.106 118.517 99.9402 117.706 99.6236 117.089C99.3052 116.468 98.8367 116.049 98.2174 115.807C97.6173 115.572 96.8809 115.505 96.0108 115.572C95.5473 114.779 95.088 114.253 94.4888 113.948C93.8933 113.644 93.175 113.565 92.2093 113.631C91.945 112.771 91.621 112.177 91.1073 111.749C90.5885 111.317 89.8887 111.066 88.8988 110.865C88.5824 110.222 88.2893 109.741 87.9125 109.324C87.5389 108.911 87.0873 108.565 86.459 108.186ZM88.6945 110.942C88.3864 110.319 88.1061 109.864 87.7523 109.472C87.4085 109.092 86.9914 108.768 86.4028 108.408L86.2832 108.809C86.5571 108.905 86.8171 109.058 87.0701 109.269C87.5517 109.672 88.0106 110.291 88.4987 111.152L88.6945 110.942ZM91.2848 111.206C94.5274 112.527 96.9883 113.333 100.261 112.78L100.297 112.996C96.9615 113.56 94.4527 112.733 91.2037 111.41L91.2848 111.206ZM83.266 116.853C83.7204 116.143 84.1259 115.613 84.7701 115.147L84.8964 115.326C84.2847 115.768 83.8968 116.271 83.4483 116.972C83.3162 117.179 83.1786 117.403 83.0285 117.648C82.6697 118.233 82.2392 118.934 81.6411 119.791L81.4638 119.664C82.0581 118.813 82.4824 118.122 82.8401 117.539C82.9914 117.292 83.1307 117.065 83.266 116.853Z" fill="black"/>
<path d="M80.9405 152.037C77.7043 157.383 76.6374 158.275 73.7894 163.554C71.4443 162.715 67.264 161.359 60.7275 156.61C63.5439 151.701 64.9309 148.81 67.5202 143.577C65.9475 139.439 65.981 136.825 68.5364 131.358C70.2045 128.929 71.3195 128.285 73.6506 128.555C74.0749 123.508 76.4615 122.1 80.8632 124.683C84.0116 124.219 85.374 124.842 87.1748 127.321C90.4981 128.809 91.1724 129.789 91.2609 132.487C95.3194 134.516 94.9681 136.625 91.2864 141.517C86.5816 146.936 83.6801 150.484 81.5938 150.84C81.4516 151.485 81.2843 151.709 80.9405 152.037Z" fill="#950000"/>
<path fill-rule="evenodd" clip-rule="evenodd" d="M60.5842 156.641L60.6641 156.699C66.8873 161.22 70.9818 162.674 73.3893 163.528C73.5152 163.573 73.6365 163.616 73.7532 163.658L73.8404 163.689L73.8847 163.607C75.3068 160.971 76.2837 159.431 77.3096 157.882C77.4906 157.608 77.6732 157.335 77.86 157.055C78.7313 155.749 79.6954 154.304 81.0255 152.107C81.1946 151.945 81.3282 151.8 81.4364 151.613C81.5387 151.436 81.6153 151.226 81.6836 150.935C82.2086 150.829 82.7737 150.535 83.3904 150.084C84.0363 149.612 84.7464 148.961 85.5353 148.154C86.8402 146.821 88.3693 145.054 90.1895 142.95C90.5695 142.511 90.9621 142.057 91.3679 141.589L91.3705 141.587L91.3728 141.583C92.2944 140.359 93.0107 139.304 93.502 138.379C93.9928 137.455 94.2636 136.652 94.2847 135.932C94.327 134.484 93.3647 133.428 91.3671 132.418C91.3186 131.097 91.1231 130.166 90.5163 129.383C89.9066 128.595 88.8924 127.972 87.2452 127.232C86.3477 126.001 85.5465 125.214 84.5664 124.797C83.5879 124.381 82.447 124.342 80.8849 124.569C78.6933 123.29 76.9606 122.976 75.7135 123.661C74.4805 124.34 73.7762 125.966 73.5522 128.433C72.4298 128.315 71.5733 128.416 70.7928 128.848C69.991 129.291 69.2834 130.078 68.4472 131.295L68.4421 131.303L68.4382 131.311C67.1584 134.049 66.5046 136.084 66.372 137.958C66.2402 139.821 66.6239 141.515 67.4017 143.572C67.1645 144.051 66.9374 144.511 66.7183 144.954C64.5587 149.326 63.1818 152.113 60.6336 156.555L60.5842 156.641ZM60.8707 156.579C63.3909 152.181 64.7667 149.396 66.9123 145.053C67.138 144.596 67.3722 144.122 67.6172 143.627L67.6386 143.583L67.6215 143.538C66.8381 141.477 66.4589 139.806 66.5885 137.974C66.7182 136.141 67.3577 134.138 68.6306 131.413C69.4603 130.206 70.143 129.458 70.897 129.04C71.6483 128.624 72.4844 128.53 73.6382 128.664L73.7493 128.677L73.7587 128.564C73.9703 126.047 74.669 124.486 75.8172 123.854C76.9638 123.224 78.6142 123.49 80.8087 124.778L80.8414 124.797L80.8788 124.792C82.4459 124.561 83.5501 124.603 84.4823 125C85.4144 125.396 86.1909 126.152 87.0874 127.385L87.1045 127.409L87.1309 127.421C88.7914 128.165 89.7683 128.773 90.3454 129.518C90.9188 130.258 91.1084 131.149 91.1524 132.491L91.1546 132.557L91.2128 132.586C93.2343 133.596 94.1064 134.602 94.0677 135.925C94.0481 136.597 93.7944 137.365 93.3107 138.276C92.8279 139.185 92.1204 140.227 91.2023 141.448C90.7964 141.915 90.404 142.369 90.0245 142.807C88.2043 144.911 86.6808 146.672 85.381 148C84.5957 148.803 83.8951 149.444 83.2632 149.906C82.6303 150.369 82.0736 150.647 81.5757 150.732L81.5037 150.744L81.4878 150.816C81.418 151.133 81.3438 151.338 81.249 151.502C81.1544 151.666 81.0357 151.796 80.866 151.957L80.8555 151.967L80.8479 151.98C79.5166 154.179 78.5532 155.623 77.6805 156.931C77.4935 157.212 77.3106 157.486 77.1292 157.76C76.1112 159.297 75.1404 160.826 73.7385 163.42C73.6486 163.387 73.5561 163.355 73.461 163.321C71.0723 162.473 67.0242 161.037 60.8707 156.579Z" fill="black"/>
<path fill-rule="evenodd" clip-rule="evenodd" d="M72.8827 149.019L69.7494 155.668L69.9453 155.762L73.0787 149.114L72.8827 149.019ZM73.4089 149.551L71.8426 153.008L72.0399 153.099L73.6062 149.642L73.4089 149.551ZM71.7247 147.122C70.5512 146.283 69.8925 145.729 68.7081 144.617L68.5603 144.777C69.7503 145.895 70.4166 146.456 71.5994 147.301L71.7247 147.122ZM79.3124 150.269C77.6756 149.897 76.7593 149.595 75.121 148.958L75.0431 149.163C76.6887 149.803 77.6153 150.109 79.2648 150.483L79.3124 150.269ZM76.7956 139.583C76.3655 138.05 75.6051 136.793 74.3344 135.443L74.1772 135.594C75.4289 136.925 76.1682 138.151 76.5868 139.643C77.0065 141.139 77.1057 142.91 77.0644 145.335L77.2814 145.338C77.3227 142.91 77.2245 141.112 76.7956 139.583ZM72.6853 134.594C72.5717 134.681 72.4634 134.741 72.345 134.779C72.2069 134.824 72.0619 134.837 71.8902 134.838L71.8888 134.619C72.0514 134.618 72.1712 134.605 72.2788 134.57C72.384 134.536 72.4842 134.479 72.6036 134.38L72.9908 133.986C72.9317 133.919 72.8763 133.849 72.8246 133.774C72.5629 133.398 72.3993 132.928 72.3012 132.356L72.515 132.318C72.6099 132.872 72.765 133.307 73.0021 133.648C73.2381 133.987 73.5599 134.24 73.9997 134.42C74.8872 134.783 76.2454 134.849 78.3145 134.734C78.7144 134.674 79.0822 134.393 79.3833 133.979C79.6844 133.566 79.9093 133.032 80.0244 132.496C80.1398 131.958 80.1424 131.431 80.0112 131.027C79.8817 130.629 79.6261 130.359 79.2165 130.301C78.2866 130.17 76.7997 129.74 75.5519 129.345C74.9265 129.147 74.3588 128.958 73.9475 128.818C73.7418 128.748 73.5751 128.69 73.4599 128.65C73.4023 128.63 73.3575 128.614 73.3271 128.603L73.2924 128.591L73.2808 128.587C73.2807 128.587 73.2806 128.587 73.3166 128.483C73.3526 128.38 73.3526 128.38 73.3526 128.38L73.3533 128.38L73.3642 128.384L73.3985 128.396C73.4287 128.407 73.4733 128.422 73.5307 128.442C73.6455 128.482 73.8116 128.54 74.0167 128.61C74.427 128.75 74.9932 128.939 75.6166 129.136C76.8665 129.531 78.337 129.955 79.2466 130.084C79.7568 130.156 80.0685 130.501 80.2174 130.959C80.3647 131.411 80.3569 131.982 80.2366 132.542C80.1159 133.104 79.8798 133.668 79.558 134.109C79.2373 134.55 78.8221 134.881 78.3408 134.951L78.3361 134.952L78.3313 134.952C77.6184 134.992 76.9842 135.011 76.4206 135.003L76.4587 135.016L76.3473 135.357C76.9841 136.131 77.5058 136.598 78.0764 136.833C78.6275 137.06 79.2384 137.076 80.069 136.916L80.0827 136.897C82.9931 132.906 84.6578 130.4 86.2207 127.464L86.4118 127.568C84.8523 130.497 83.1927 132.999 80.3163 136.946L80.319 136.953C80.7262 137.874 81.1238 138.457 81.6389 138.82C82.1474 139.178 82.7851 139.332 83.6968 139.364C85.0928 138.578 86.1682 137.852 87.2121 136.816C88.2636 135.774 89.2869 134.414 90.5725 132.358L90.7559 132.476C89.4664 134.538 88.4327 135.913 87.3641 136.973C86.3164 138.012 85.2389 138.744 83.8626 139.522C84.2077 140.297 84.5954 140.878 85.0456 141.266C85.5105 141.667 86.0464 141.866 86.6849 141.856C87.3271 141.845 88.0785 141.621 88.9686 141.165C89.8581 140.71 90.88 140.025 92.0615 139.098L92.1945 139.272C91.0072 140.203 89.9732 140.897 89.0667 141.361C88.1609 141.825 87.376 142.064 86.6885 142.075C85.9973 142.087 85.41 141.869 84.9048 141.433C84.4152 141.011 84.0069 140.388 83.6515 139.582C82.741 139.547 82.0654 139.388 81.5148 139C80.9677 138.614 80.558 138.013 80.1565 137.122C79.2822 137.296 78.6109 137.29 77.9946 137.036C77.3721 136.78 76.8211 136.277 76.1759 135.492C75.466 135.516 74.9082 135.483 74.3664 135.346C73.8292 135.21 73.3139 134.973 72.6853 134.594ZM76.1461 135.273C75.457 135.295 74.9278 135.262 74.4191 135.133C73.9249 135.008 73.4442 134.791 72.8517 134.438L73.1436 134.142C73.3576 134.34 73.6139 134.498 73.9183 134.623C74.4976 134.86 75.2547 134.974 76.2355 134.999L76.1461 135.273ZM77.6065 137.452C80.2968 139.709 82.1673 141.516 83.2412 144.69L83.4465 144.619C82.3521 141.384 80.4407 139.545 77.7451 137.283L77.6065 137.452ZM78.711 127.635C78.3083 128.377 78.0399 128.989 77.9407 129.784L78.1561 129.811C78.2502 129.057 78.5038 128.473 78.9013 127.741C79.0183 127.525 79.1481 127.296 79.2898 127.046C79.6282 126.449 80.0343 125.733 80.4954 124.794L80.301 124.696C79.8429 125.629 79.4426 126.335 79.1051 126.93C78.9624 127.182 78.8309 127.414 78.711 127.635Z" fill="black"/>
<path d="M74.754 81.5664C74.1014 81.5278 73.6062 81.4112 73.2682 81.2166C72.9322 81.019 72.7217 80.7295 72.6368 80.3481C72.5407 79.9166 72.6314 79.5217 72.9088 79.1633C73.1881 78.8019 73.6007 78.559 74.1466 78.4348C74.5188 78.35 74.8663 78.3474 75.189 78.4268C75.5142 78.5057 75.7847 78.655 76.0005 78.8747C76.2187 79.0939 76.3617 79.3553 76.4293 79.6589L75.7109 79.8224C75.6372 79.4912 75.4751 79.2553 75.2248 79.1146C74.9739 78.9713 74.6586 78.9429 74.279 79.0294C73.9266 79.1096 73.6688 79.2513 73.5055 79.4545C73.3441 79.6547 73.2944 79.894 73.3564 80.1725C73.4061 80.3958 73.5413 80.564 73.7621 80.6772C73.9848 80.7873 74.3349 80.8552 74.8125 80.8809C75.2926 80.9061 75.6765 80.9676 75.9643 81.0656C76.2539 81.1604 76.4825 81.2969 76.6499 81.4749C76.8197 81.6524 76.9357 81.8804 76.9977 82.1589C77.0966 82.6029 77.0047 82.9981 76.722 83.3445C76.4388 83.6884 76.0106 83.9256 75.4374 84.0561C75.0652 84.1408 74.7019 84.1484 74.3475 84.0788C73.9925 84.0067 73.699 83.8653 73.4669 83.6545C73.2374 83.4431 73.0871 83.1782 73.0162 82.8595L73.7345 82.696C73.8083 83.0272 73.987 83.262 74.2707 83.4004C74.5563 83.5357 74.9014 83.5573 75.3059 83.4652C75.683 83.3794 75.9548 83.2358 76.1211 83.0345C76.2875 82.8332 76.3408 82.5983 76.281 82.3299C76.2212 82.0615 76.0821 81.8757 75.8636 81.7725C75.6445 81.6669 75.2747 81.5982 74.754 81.5664Z" fill="white"/>
<path d="M101.051 81.8145L98.7248 81.1886L98.2186 83.1121L100.921 83.8391L100.767 84.4244L97.3566 83.5069L98.7851 78.0793L102.159 78.9869L102.004 79.5759L99.338 78.8588L98.8788 80.6033L101.205 81.2292L101.051 81.8145Z" fill="white"/>
<path d="M86.5943 79.4639L88.0441 76.6441H88.8758L86.9606 80.1659V82.2605H86.228V80.1659L84.3128 76.6441H85.1521L86.5943 79.4639Z" fill="white"/>
<path d="M94.976 82.9987L94.2461 82.8998L92.043 78.2345L91.4744 82.5242L90.7445 82.4253L91.4824 76.8587L92.2122 76.9576L94.4204 81.643L94.9916 77.3342L95.7138 77.4321L94.976 82.9987Z" fill="white"/>
<path d="M82.3068 79.9824L79.9199 80.3L80.1768 82.2734L82.9495 81.9045L83.0276 82.5049L79.5287 82.9705L78.8039 77.4021L82.265 76.9416L82.3437 77.5458L79.6088 77.9097L79.8418 79.6996L82.2286 79.382L82.3068 79.9824Z" fill="white"/>
<path d="M68.2815 168.572C68.0834 169.029 67.7993 169.341 67.4292 169.509C67.0618 169.675 66.6369 169.683 66.1546 169.534C65.6317 169.372 65.2696 169.053 65.0683 168.576C64.8691 168.099 64.8656 167.544 65.0581 166.908L65.1885 166.478C65.3145 166.062 65.4983 165.719 65.7398 165.449C65.9833 165.179 66.2653 165.002 66.5858 164.917C66.9068 164.831 67.2447 164.842 67.5994 164.952C68.0695 165.098 68.4061 165.348 68.6092 165.702C68.8128 166.054 68.8669 166.472 68.7713 166.956L68.1846 166.774C68.2419 166.402 68.2097 166.109 68.0879 165.897C67.9681 165.685 67.7562 165.532 67.4522 165.438C67.0793 165.322 66.7443 165.371 66.447 165.584C66.1518 165.797 65.9263 166.161 65.7705 166.675L65.6392 167.108C65.4921 167.594 65.4754 168.011 65.5891 168.36C65.7028 168.709 65.9401 168.94 66.3008 169.052C66.6251 169.152 66.8957 169.155 67.1126 169.061C67.3322 168.965 67.5263 168.742 67.6948 168.391L68.2815 168.572Z" fill="white"/>
<path d="M98.6106 168.195L97.1704 168.573L98.2072 172.611L97.6194 172.765L96.5826 168.727L95.1454 169.104L95.0192 168.612L98.4844 167.703L98.6106 168.195Z" fill="white"/>
<path d="M79.1883 171.574L78.9765 173.393L78.3702 173.321L78.9113 168.673L80.6069 168.875C81.11 168.935 81.4886 169.111 81.7425 169.405C81.9986 169.699 82.1017 170.059 82.0519 170.487C81.9994 170.938 81.8189 171.27 81.5104 171.481C81.2043 171.691 80.7913 171.764 80.2713 171.703L79.1883 171.574ZM79.2466 171.072L80.336 171.202C80.6602 171.241 80.9175 171.194 81.108 171.061C81.2987 170.926 81.411 170.713 81.4449 170.421C81.4771 170.145 81.4166 169.913 81.2633 169.726C81.11 169.54 80.8832 169.426 80.5829 169.383L79.4589 169.25L79.2466 171.072Z" fill="white"/>
<path d="M75.7157 170.659L74.6495 170.444L74.2821 172.3L73.6804 172.179L74.5886 167.589L76.0913 167.893C76.6026 167.997 76.9721 168.194 77.1999 168.485C77.4297 168.776 77.5002 169.146 77.4112 169.596C77.3546 169.882 77.2284 170.115 77.0326 170.296C76.8389 170.478 76.5955 170.594 76.3024 170.644L76.9832 172.807L76.9757 172.845L76.3335 172.715L75.7157 170.659ZM74.7474 169.949L75.6671 170.135C75.9643 170.195 76.2156 170.165 76.421 170.045C76.6284 169.925 76.7579 169.735 76.8095 169.474C76.8656 169.191 76.8245 168.956 76.6861 168.771C76.5497 168.586 76.3238 168.46 76.0083 168.394L75.0918 168.209L74.7474 169.949Z" fill="white"/>
<path d="M89.1527 172.094H88.0653V173.988H87.4517V169.307H88.9842C89.5056 169.307 89.9062 169.427 90.186 169.667C90.4679 169.907 90.6088 170.257 90.6088 170.715C90.6088 171.007 90.5304 171.261 90.3736 171.477C90.2188 171.694 90.0026 171.855 89.725 171.963L90.8123 173.949V173.988H90.1574L89.1527 172.094ZM88.0653 171.59H89.0033C89.3064 171.59 89.5469 171.51 89.725 171.352C89.9051 171.193 89.9952 170.981 89.9952 170.715C89.9952 170.426 89.9094 170.204 89.7377 170.05C89.5681 169.896 89.3223 169.817 89.0001 169.815H88.0653V171.59Z" fill="white"/>
<path d="M73.0404 169.477C72.942 169.925 72.7816 170.299 72.559 170.601C72.337 170.9 72.0701 171.107 71.7583 171.221C71.4466 171.335 71.1086 171.352 70.7445 171.27C70.3886 171.19 70.0923 171.031 69.8558 170.794C69.6196 170.554 69.4609 170.254 69.3795 169.893C69.3006 169.531 69.3065 169.134 69.397 168.702L69.4694 168.372C69.566 167.933 69.7268 167.562 69.9518 167.259C70.1769 166.956 70.4466 166.747 70.7608 166.631C71.0776 166.513 71.414 166.494 71.7699 166.574C72.1319 166.655 72.4311 166.816 72.6672 167.056C72.9058 167.294 73.0626 167.598 73.1376 167.968C73.213 168.336 73.2018 168.743 73.1038 169.189L73.0404 169.477ZM72.5124 169.049C72.6315 168.507 72.6151 168.068 72.4634 167.731C72.3121 167.392 72.043 167.179 71.6561 167.092C71.2795 167.007 70.9506 167.086 70.6695 167.328C70.3908 167.568 70.1919 167.945 70.0726 168.458L69.9988 168.794C69.8834 169.319 69.9012 169.757 70.0523 170.107C70.2059 170.455 70.4741 170.672 70.8569 170.758C71.2417 170.845 71.5707 170.771 71.8438 170.536C72.1174 170.298 72.3154 169.916 72.4379 169.388L72.5124 169.049Z" fill="white"/>
<path d="M105.709 167.246C105.853 167.681 105.907 168.085 105.871 168.459C105.834 168.832 105.711 169.148 105.503 169.409C105.294 169.67 105.013 169.86 104.66 169.981C104.314 170.098 103.98 170.117 103.656 170.038C103.331 169.956 103.042 169.782 102.787 169.516C102.535 169.247 102.337 168.904 102.193 168.487L102.087 168.167C101.945 167.74 101.893 167.339 101.93 166.962C101.968 166.585 102.092 166.264 102.302 166.001C102.513 165.735 102.791 165.543 103.136 165.425C103.488 165.305 103.826 165.287 104.151 165.368C104.477 165.447 104.766 165.626 105.02 165.903C105.273 166.179 105.471 166.533 105.615 166.966L105.709 167.246ZM105.038 167.156C104.863 166.63 104.624 166.262 104.322 166.053C104.019 165.842 103.679 165.8 103.304 165.928C102.938 166.052 102.697 166.291 102.58 166.646C102.464 166.997 102.487 167.424 102.647 167.925L102.756 168.251C102.925 168.761 103.164 169.126 103.473 169.347C103.782 169.565 104.123 169.611 104.494 169.484C104.868 169.357 105.112 169.121 105.225 168.778C105.338 168.432 105.312 168.001 105.147 167.485L105.038 167.156Z" fill="white"/>
<path d="M86.4576 171.799C86.4576 172.257 86.3813 172.658 86.2287 173.001C86.0761 173.342 85.8599 173.602 85.5801 173.782C85.3003 173.962 84.9739 174.052 84.6008 174.052C84.2363 174.052 83.913 173.962 83.6311 173.782C83.3492 173.6 83.1299 173.342 82.973 173.007C82.8183 172.671 82.7388 172.282 82.7346 171.84V171.503C82.7346 171.053 82.8119 170.655 82.9667 170.31C83.1214 169.965 83.3397 169.702 83.6216 169.52C83.9056 169.335 84.2299 169.243 84.5945 169.243C84.9654 169.243 85.2918 169.334 85.5737 169.516C85.8578 169.696 86.0761 169.959 86.2287 170.304C86.3813 170.647 86.4576 171.046 86.4576 171.503V171.799ZM85.8503 171.497C85.8503 170.941 85.7401 170.516 85.5197 170.22C85.2992 169.922 84.9909 169.774 84.5945 169.774C84.2087 169.774 83.9046 169.922 83.682 170.22C83.4616 170.516 83.3482 170.928 83.3418 171.455V171.799C83.3418 172.337 83.4531 172.76 83.6757 173.068C83.9003 173.375 84.2087 173.528 84.6008 173.528C84.9951 173.528 85.3003 173.383 85.5165 173.094C85.7327 172.803 85.844 172.386 85.8503 171.844V171.497Z" fill="white"/>
<path d="M94.4383 172.195L92.5242 172.51L92.2885 173.787L91.6672 173.889L92.6676 168.982L93.1948 168.895L95.687 173.227L95.0688 173.329L94.4383 172.195ZM92.6254 171.979L94.1787 171.723L93.0524 169.691L92.6254 171.979Z" fill="white"/>
<path d="M110.973 167.058L110.431 167.348L106.702 165.264L108.371 168.451L107.829 168.742L105.662 164.606L106.204 164.315L109.947 166.411L108.27 163.209L108.806 162.922L110.973 167.058Z" fill="white"/>
<path d="M101.903 171.261L101.318 171.435L100.008 166.946L100.594 166.771L101.903 171.261Z" fill="white"/>
</g>
<g opacity="0.5">
<g filter="url(#filter0_b)">
<path d="M247.096 479.42C240.82 479.726 237.032 482.092 230.175 487.506M247.135 479.042C239.447 478.118 235.184 480.103 227.593 484.373M247.232 478.476C240.133 476.816 235.251 477.583 225.583 480.757" stroke="black" stroke-width="3" stroke-linecap="round"/>
</g>
<g filter="url(#filter1_b)">
<path d="M262.086 481.998C267.899 484.383 270.679 487.879 275.334 495.272M262.176 481.629C269.731 483.326 273.086 486.622 278.813 493.183M262.273 481.063C269.519 481.87 273.865 484.224 281.917 490.446" stroke="black" stroke-width="3" stroke-linecap="round"/>
</g>
<path fill-rule="evenodd" clip-rule="evenodd" d="M240.275 460.902C247.942 460.888 252.186 462.951 250.312 468.416C250.328 468.022 250.241 467.805 249.909 467.433C244.546 467.951 242.847 466.154 242.611 461.858C242.244 461.311 241.608 461.142 240.275 460.902ZM243.774 463.523C243.554 463.239 243.485 463.305 243.55 463.638C244.339 466.307 245.687 467.24 248.383 466.181C248.716 466.05 248.62 465.909 248.309 465.963C245.614 466.578 244.713 465.546 243.774 463.523Z" fill="#252324"/>
<ellipse cx="245.482" cy="463.718" rx="0.642308" ry="0.571461" transform="rotate(9.75878 245.482 463.718)" fill="#0594A7"/>
<path fill-rule="evenodd" clip-rule="evenodd" d="M284.045 467.928C284.587 474.642 282.604 478.384 275.994 485.027C277.497 481.534 276.825 480.191 273.771 478.551C271.585 477.5 270.262 476.985 267.672 476.242C261.597 473.906 259.775 472.032 260.863 467.144C261.233 458.826 258.197 454.258 248.729 452.918C244.962 451.815 244.154 450.506 243.757 447.619C243.161 440.341 242.257 437.055 237.826 433.9C236.229 432.954 234.886 433.128 233.991 434.819C231.509 438.519 231.256 442.627 232.76 449.442C231.331 454.103 231.297 456.426 232.559 460.054C230.844 463.089 230.898 465.437 231.963 470.239C230.111 466.257 229.716 463.957 231.147 459.63C229.965 455.602 230.018 453.396 231.072 449.53C229.959 440.363 230.428 436.515 233.687 432.517C235.033 431.361 235.904 431.305 237.528 431.56C241.894 434.246 244.058 437.292 246.606 440.878L246.606 440.879L246.606 440.879L246.606 440.879C247.404 442.003 248.24 443.18 249.194 444.415C257.787 442.544 262.672 443.257 271.502 447.776C276.955 443.264 280.069 441.485 285.73 439.707C288.492 439.57 289.354 440.087 290.1 441.696C291.908 449.082 290.75 453.732 285.474 462.778C284.451 464.675 284.165 465.81 284.045 467.928ZM285.238 460.159C283.11 461.969 281.703 461.08 281.248 457.981C280.935 457.004 280.228 456.726 278.07 456.688C274.283 458.44 270.976 452.507 274.841 448.904C279.068 444.776 281.541 443.082 286.227 441.721C287.468 441.504 287.966 441.731 288.455 442.835C289.424 449.023 288.677 452.664 285.238 460.159ZM272.423 467.268C272.77 466.941 272.916 467.021 272.756 467.508C270.112 471.351 267.767 472.518 263.472 470.152C263.025 469.834 263.149 469.697 263.631 469.881C267.753 471.732 269.845 470.95 272.423 467.268ZM270.249 468.17C270.422 467.877 270.378 467.793 270.076 467.986C268.516 469.58 267.321 470.251 264.987 468.771C264.712 468.616 264.574 468.717 264.844 468.952C267.032 470.851 268.614 470.422 270.249 468.17ZM273.707 466.951C266.317 465.063 263.775 465.7 262.595 470.394C262.541 470.709 262.39 470.697 262.366 470.354C262.463 465.017 266.585 463.372 273.939 466.706C274.455 466.94 274.34 467.153 273.707 466.951Z" fill="#252324"/>
<ellipse cx="265.865" cy="467.191" rx="0.607168" ry="0.560099" transform="rotate(9.75878 265.865 467.191)" fill="#0594A7"/>
<path d="M254.117 483.543C254.076 483.243 254.095 483.009 254.178 482.522C254.103 482.397 254.045 482.378 253.905 482.475C253.855 482.874 253.803 483.099 253.621 483.503C251.751 484.877 249.126 484.768 246.872 483.248C249.074 485.222 251.159 485.247 253.817 484.62C255.789 486.301 258.599 486.535 260.65 485.618C258.106 486.351 255.287 485.552 254.117 483.543Z" fill="#252324"/>
<path d="M258.327 479.65C259.204 479.296 258.694 477.518 259.488 472.897C259.349 471.431 258.805 476.874 258.152 478.928C257.422 478.333 256.871 478.211 255.688 478.287C254.972 478.344 254.537 478.266 253.705 477.946C252.789 477.503 252.248 477.478 251.247 477.74C251.797 475.461 252.446 470.638 252.095 471.539C251.662 475.329 250.086 477.541 250.887 478.561C252.106 479.586 253.239 480.211 252.909 481.107C253.24 481.612 253.423 481.886 254.124 482.236C254.755 482.162 255.058 481.966 255.572 481.532C255.371 480.598 257.148 480.614 258.327 479.65Z" fill="#252324"/>
</g>
<g opacity="0.5">
<g filter="url(#filter2_b)">
<path d="M204.998 286.505C199.574 288.267 196.795 291.413 192.021 298.187M204.946 286.135C198.008 287.053 194.727 289.948 189.051 295.802M204.903 285.572C198.313 285.65 194.213 287.526 186.471 292.821" stroke="black" stroke-width="3" stroke-linecap="round"/>
</g>
<g filter="url(#filter3_b)">
<path d="M218.702 285.455C224.331 286.369 227.557 289.055 233.308 295.023M218.697 285.081C225.694 284.931 229.378 287.292 235.88 292.213M218.654 284.518C225.179 283.591 229.517 284.82 237.975 288.873" stroke="black" stroke-width="3" stroke-linecap="round"/>
</g>
<path fill-rule="evenodd" clip-rule="evenodd" d="M194.827 270.426C201.535 268.616 205.718 269.591 205.317 275.247C205.241 274.867 205.116 274.681 204.741 274.403C200.165 276.154 198.27 274.837 197.089 270.791C196.644 270.355 196.049 270.342 194.827 270.426ZM198.485 272.108C198.228 271.889 198.182 271.967 198.315 272.271C199.61 274.633 201.002 275.209 203.121 273.566C203.384 273.362 203.267 273.251 203.007 273.375C200.788 274.593 199.765 273.82 198.485 272.108Z" fill="#252324"/>
<ellipse cx="200.023" cy="271.894" rx="0.580433" ry="0.561955" transform="rotate(-4.38329 200.023 271.894)" fill="#A70505"/>
<path fill-rule="evenodd" clip-rule="evenodd" d="M234.731 266.879C236.728 273.162 235.841 277.198 231.562 285.088C232.086 281.401 231.193 280.277 228.148 279.427C225.997 278.935 224.722 278.754 222.286 278.651C216.439 277.844 214.419 276.483 214.263 271.561C212.7 263.534 209.008 259.885 200.416 260.824C196.869 260.653 195.865 259.593 194.863 256.93C192.69 250.122 191.154 247.197 186.561 245.223C184.948 244.695 183.812 245.175 183.412 246.999C182.079 251.113 182.789 255.093 185.651 261.246C185.458 266.031 185.954 268.256 187.882 271.424C187.07 274.723 187.649 276.951 189.67 281.286C187.147 277.918 186.279 275.816 186.55 271.35C184.602 267.781 184.148 265.663 184.194 261.726C181.141 253.236 180.678 249.452 182.624 244.873C183.54 243.454 184.29 243.197 185.769 243.059C190.2 244.601 192.785 247.002 195.828 249.828C196.781 250.714 197.78 251.642 198.895 252.598C205.992 248.799 210.429 248.336 219.182 250.58C222.931 244.996 225.254 242.568 229.806 239.545C232.192 238.767 233.064 239.059 234.081 240.42C237.339 247.047 237.379 251.757 234.814 261.628C234.348 263.679 234.356 264.829 234.731 266.879ZM234.013 259.184C232.561 261.41 231.128 260.891 230.027 258.039C229.532 257.179 228.849 257.08 226.952 257.549C224.035 260.109 219.795 255.22 222.361 250.875C225.124 245.944 226.904 243.748 230.697 241.351C231.734 240.854 232.221 240.953 232.899 241.893C235.151 247.573 235.324 251.223 234.013 259.184ZM224.409 268.971C224.638 268.579 224.785 268.621 224.755 269.123C223.313 273.411 221.524 275.074 217.229 273.822C216.765 273.622 216.843 273.463 217.306 273.526C221.334 274.327 222.987 273.091 224.409 268.971ZM222.711 270.342C222.795 270.022 222.739 269.951 222.518 270.207C221.514 272.094 220.62 273.014 218.242 272.148C217.966 272.065 217.868 272.194 218.158 272.354C220.503 273.655 221.791 272.874 222.711 270.342ZM225.461 268.368C218.564 268.298 216.484 269.5 216.516 274.258C216.54 274.572 216.406 274.595 216.306 274.274C215.181 269.156 218.416 266.62 225.608 268.08C226.113 268.182 226.061 268.412 225.461 268.368Z" fill="#252324"/>
<ellipse cx="218.652" cy="270.434" rx="0.548678" ry="0.550782" transform="rotate(-4.38329 218.652 270.434)" fill="#A70505"/>
<path d="M212.078 288.796C211.974 288.519 211.938 288.292 211.899 287.807C211.805 287.706 211.751 287.701 211.65 287.826C211.697 288.219 211.703 288.446 211.634 288.874C210.309 290.624 207.987 291.135 205.669 290.212C208.045 291.581 209.875 291.115 212.059 289.894C214.167 291.037 216.679 290.602 218.267 289.246C216.206 290.542 213.558 290.44 212.078 288.796Z" fill="#252324"/>
<path d="M214.88 284.093C215.567 283.55 214.717 281.973 214.365 277.375C213.91 276.008 214.668 281.331 214.563 283.445C213.789 283.048 213.279 283.061 212.261 283.411C211.647 283.633 211.248 283.661 210.448 283.55C209.546 283.342 209.067 283.444 208.25 283.929C208.214 281.624 207.689 276.868 207.585 277.811C208.066 281.53 207.188 284.011 208.121 284.797C209.42 285.49 210.554 285.821 210.468 286.754C210.872 287.158 211.094 287.377 211.788 287.547C212.322 287.329 212.544 287.07 212.895 286.535C212.507 285.691 214.066 285.29 214.88 284.093Z" fill="#252324"/>
</g>
<path d="M154.668 506.963C127.034 502.408 89.6833 484.796 38.6675 493.298C90.2906 519.717 115.495 526.398 148.594 568L219.652 568C215.704 549.476 189.332 523.39 154.668 506.963Z" fill="#53575A"/>
<path fill-rule="evenodd" clip-rule="evenodd" d="M59.3862 411.747C62.1312 411.747 64.3564 413.972 64.3564 416.717L64.3564 515.734C64.3564 518.479 62.1312 520.704 59.3862 520.704C56.6412 520.704 54.4159 518.479 54.4159 515.734L54.4159 416.717C54.4159 413.972 56.6412 411.747 59.3862 411.747Z" fill="black"/>
<path d="M0.263 485.571C0.263 485.571 57.6598 498.346 101.613 498.346C143.598 498.346 155.784 567.994 155.784 567.994H0.263V485.571Z" fill="#53575A"/>
<path d="M151.154 568H132.243C130.824 560.208 129.47 555.221 125.676 544.802C119.757 534.514 114.608 529.519 102.953 521.652C85.9308 511.651 74.8259 506.959 50.6441 501.152C47.0163 499.155 45.4205 497.569 43.3932 493.866L48.4231 494.609L89.3673 498.472C104.982 497.356 112.997 499.87 125.676 511.219C139.834 529.284 146.567 545.358 151.154 568Z" fill="#63686B"/>
<path d="M138.628 416.407C110.746 424.288 97.1706 409.079 62.6548 416.407L62.6548 457.093C97.1706 450.151 109.51 463.714 138.628 457.093V416.407Z" fill="#040332" fill-opacity="0.9"/>
<path d="M82.8235 432.255C83.1423 432.255 83.4031 432.231 83.6059 432.183C83.8184 432.125 83.9874 432.052 84.113 431.965C84.2386 431.869 84.3255 431.758 84.3738 431.632C84.4221 431.506 84.4463 431.366 84.4463 431.212C84.4463 430.883 84.2917 430.613 83.9826 430.401C83.6735 430.178 83.1423 429.942 82.3889 429.691C82.0605 429.575 81.732 429.444 81.4036 429.299C81.0752 429.145 80.7806 428.956 80.5198 428.734C80.259 428.502 80.0465 428.227 79.8823 427.908C79.7181 427.58 79.636 427.184 79.636 426.72C79.636 426.257 79.723 425.841 79.8968 425.474C80.0707 425.098 80.317 424.779 80.6357 424.518C80.9545 424.257 81.3409 424.059 81.7948 423.924C82.2488 423.779 82.7607 423.707 83.3306 423.707C84.0068 423.707 84.5911 423.779 85.0838 423.924C85.5764 424.069 85.982 424.228 86.3008 424.402L85.6488 426.184C85.3687 426.039 85.0548 425.914 84.707 425.808C84.369 425.692 83.9585 425.634 83.4755 425.634C82.9346 425.634 82.5434 425.711 82.3019 425.866C82.0701 426.01 81.9542 426.237 81.9542 426.547C81.9542 426.73 81.9977 426.885 82.0846 427.01C82.1715 427.136 82.2923 427.252 82.4468 427.358C82.611 427.454 82.7945 427.546 82.9974 427.633C83.2099 427.71 83.4417 427.793 83.6928 427.879C84.2144 428.073 84.6684 428.266 85.0548 428.459C85.4411 428.643 85.7599 428.86 86.011 429.111C86.2718 429.362 86.465 429.657 86.5906 429.995C86.7161 430.333 86.7789 430.743 86.7789 431.226C86.7789 432.163 86.4505 432.893 85.7937 433.414C85.1369 433.926 84.1468 434.182 82.8235 434.182C82.3792 434.182 81.9784 434.153 81.621 434.095C81.2636 434.047 80.9448 433.984 80.6647 433.907C80.3943 433.829 80.1576 433.747 79.9548 433.66C79.7616 433.574 79.5974 433.491 79.4622 433.414L80.0997 431.618C80.3991 431.782 80.7661 431.931 81.2008 432.067C81.6451 432.192 82.186 432.255 82.8235 432.255Z" fill="#D9D9D9"/>
<path d="M88.0109 430.227C88.0109 429.551 88.1123 428.961 88.3152 428.459C88.5277 427.947 88.803 427.522 89.141 427.184C89.4791 426.846 89.8655 426.59 90.3001 426.416C90.7444 426.242 91.1984 426.155 91.662 426.155C92.7439 426.155 93.5987 426.489 94.2265 427.155C94.8544 427.812 95.1683 428.783 95.1683 430.067C95.1683 430.193 95.1635 430.333 95.1538 430.487C95.1442 430.632 95.1345 430.763 95.1248 430.879H90.2277C90.276 431.323 90.4836 431.676 90.8507 431.936C91.2177 432.197 91.7103 432.327 92.3285 432.327C92.7245 432.327 93.1109 432.294 93.4876 432.226C93.874 432.149 94.1879 432.057 94.4294 431.951L94.7192 433.704C94.6032 433.762 94.4487 433.82 94.2555 433.878C94.0623 433.936 93.845 433.984 93.6035 434.023C93.3717 434.071 93.1206 434.11 92.8501 434.139C92.5797 434.168 92.3092 434.182 92.0388 434.182C91.353 434.182 90.7541 434.081 90.2422 433.878C89.7399 433.675 89.3197 433.4 88.9816 433.052C88.6532 432.695 88.4069 432.274 88.2427 431.791C88.0882 431.308 88.0109 430.787 88.0109 430.227ZM93.0819 429.401C93.0723 429.217 93.0385 429.039 92.9805 428.865C92.9322 428.691 92.8501 428.536 92.7342 428.401C92.628 428.266 92.4879 428.155 92.314 428.068C92.1498 427.981 91.9422 427.937 91.691 427.937C91.4495 427.937 91.2419 427.981 91.068 428.068C90.8941 428.145 90.7493 428.251 90.6334 428.387C90.5174 428.522 90.4257 428.681 90.3581 428.865C90.3001 429.039 90.2566 429.217 90.2277 429.401H93.0819Z" fill="#D9D9D9"/>
<path d="M103.6 426.358C103.166 427.826 102.712 429.203 102.239 430.487C101.765 431.772 101.248 433.018 100.688 434.226C100.485 434.66 100.283 435.027 100.08 435.327C99.8769 435.636 99.6547 435.887 99.4132 436.08C99.1718 436.283 98.8965 436.428 98.5874 436.515C98.288 436.611 97.9354 436.66 97.5297 436.66C97.1917 436.66 96.8777 436.626 96.588 436.558C96.3078 436.5 96.076 436.433 95.8925 436.355L96.2692 434.631C96.4914 434.708 96.6894 434.762 96.8632 434.791C97.0371 434.82 97.2206 434.834 97.4138 434.834C97.8002 434.834 98.0948 434.728 98.2976 434.515C98.5101 434.312 98.6888 434.027 98.8337 433.66C98.3411 432.695 97.8485 431.613 97.3559 430.415C96.8632 429.208 96.3996 427.855 95.9649 426.358H98.2542C98.3507 426.735 98.4618 427.145 98.5874 427.59C98.7226 428.024 98.8627 428.469 99.0076 428.923C99.1524 429.367 99.2973 429.802 99.4422 430.227C99.5968 430.652 99.7417 431.038 99.8769 431.386C100.002 431.038 100.133 430.652 100.268 430.227C100.403 429.802 100.534 429.367 100.659 428.923C100.794 428.469 100.92 428.024 101.036 427.59C101.162 427.145 101.273 426.735 101.369 426.358H103.6Z" fill="#D9D9D9"/>
<path d="M104.758 426.619C105.125 426.513 105.598 426.416 106.178 426.329C106.757 426.233 107.366 426.184 108.003 426.184C108.65 426.184 109.186 426.271 109.611 426.445C110.046 426.609 110.389 426.846 110.64 427.155C110.891 427.464 111.07 427.831 111.176 428.256C111.282 428.681 111.336 429.154 111.336 429.676V433.979H109.177V429.937C109.177 429.241 109.085 428.749 108.901 428.459C108.718 428.169 108.375 428.024 107.873 428.024C107.718 428.024 107.554 428.034 107.38 428.053C107.206 428.063 107.052 428.077 106.917 428.097V433.979H104.758V426.619Z" fill="#D9D9D9"/>
<path d="M112.927 430.227C112.927 429.551 113.029 428.961 113.232 428.459C113.444 427.947 113.719 427.522 114.058 427.184C114.396 426.846 114.782 426.59 115.217 426.416C115.661 426.242 116.115 426.155 116.579 426.155C117.66 426.155 118.515 426.489 119.143 427.155C119.771 427.812 120.085 428.783 120.085 430.067C120.085 430.193 120.08 430.333 120.07 430.487C120.061 430.632 120.051 430.763 120.041 430.879H115.144C115.192 431.323 115.4 431.676 115.767 431.936C116.134 432.197 116.627 432.327 117.245 432.327C117.641 432.327 118.027 432.294 118.404 432.226C118.79 432.149 119.104 432.057 119.346 431.951L119.636 433.704C119.52 433.762 119.365 433.82 119.172 433.878C118.979 433.936 118.762 433.984 118.52 434.023C118.288 434.071 118.037 434.11 117.767 434.139C117.496 434.168 117.226 434.182 116.955 434.182C116.269 434.182 115.671 434.081 115.159 433.878C114.656 433.675 114.236 433.4 113.898 433.052C113.57 432.695 113.323 432.274 113.159 431.791C113.005 431.308 112.927 430.787 112.927 430.227ZM117.998 429.401C117.989 429.217 117.955 429.039 117.897 428.865C117.849 428.691 117.767 428.536 117.651 428.401C117.544 428.266 117.404 428.155 117.231 428.068C117.066 427.981 116.859 427.937 116.608 427.937C116.366 427.937 116.158 427.981 115.985 428.068C115.811 428.145 115.666 428.251 115.55 428.387C115.434 428.522 115.342 428.681 115.275 428.865C115.217 429.039 115.173 429.217 115.144 429.401H117.998Z" fill="#D9D9D9"/>
<path d="M219.652 568H198.937L192.261 551.679L178.781 533.511L159.832 517.492C153.81 511.641 149.061 509.245 140.611 504.641L154.717 507.663C188.29 524.044 212.522 545.42 219.652 568Z" fill="#63686B"/>
<path d="M95.6719 443.479C95.6719 443.7 95.6235 443.912 95.5268 444.115C95.43 444.318 95.3042 444.515 95.1494 444.707C94.9945 444.892 94.8204 445.072 94.6268 445.246C94.4333 445.421 94.243 445.586 94.0559 445.743C93.9591 445.824 93.8527 445.917 93.7366 446.021C93.6269 446.12 93.5204 446.221 93.4172 446.326C93.314 446.43 93.2205 446.529 93.1366 446.622C93.0592 446.709 93.0108 446.781 92.9914 446.839H95.8751V447.928H91.4044C91.3915 447.864 91.3851 447.782 91.3851 447.684C91.3851 447.585 91.3851 447.516 91.3851 447.475C91.3851 447.196 91.4335 446.941 91.5302 446.709C91.6335 446.477 91.7657 446.262 91.927 446.065C92.0883 445.862 92.2689 445.673 92.4689 445.499C92.6753 445.325 92.8785 445.151 93.0785 444.977C93.2334 444.843 93.3785 444.718 93.514 444.602C93.6495 444.48 93.7688 444.364 93.872 444.254C93.9752 444.138 94.0559 444.025 94.1139 443.915C94.172 443.799 94.201 443.682 94.201 443.566C94.201 443.311 94.1204 443.131 93.9591 443.027C93.7978 442.922 93.5979 442.87 93.3592 442.87C93.185 442.87 93.0205 442.896 92.8656 442.948C92.7173 442.995 92.5786 443.053 92.4495 443.122C92.327 443.186 92.2205 443.253 92.1302 443.323C92.0399 443.386 91.9721 443.439 91.927 443.479L91.2109 442.574C91.4948 442.336 91.8238 442.142 92.1979 441.991C92.5786 441.834 92.985 441.756 93.4172 441.756C93.8107 441.756 94.1494 441.796 94.4333 441.878C94.7171 441.959 94.9494 442.075 95.13 442.226C95.3171 442.371 95.4526 442.551 95.5364 442.766C95.6268 442.974 95.6719 443.212 95.6719 443.479Z" fill="#D9D9D9"/>
<path d="M101.54 444.898C101.54 445.914 101.323 446.694 100.891 447.24C100.465 447.78 99.8751 448.049 99.1203 448.049C98.3655 448.049 97.772 447.78 97.3398 447.24C96.914 446.694 96.7011 445.914 96.7011 444.898C96.7011 444.393 96.756 443.947 96.8656 443.558C96.9818 443.169 97.1463 442.841 97.3592 442.574C97.572 442.307 97.8269 442.104 98.1236 441.965C98.4204 441.825 98.7526 441.756 99.1203 441.756C99.8751 441.756 100.465 442.029 100.891 442.574C101.323 443.114 101.54 443.888 101.54 444.898ZM100.069 444.898C100.069 444.596 100.053 444.324 100.02 444.08C99.988 443.83 99.9364 443.616 99.8655 443.436C99.7945 443.256 99.6977 443.117 99.5751 443.018C99.4526 442.919 99.301 442.87 99.1203 442.87C98.9397 442.87 98.7881 442.919 98.6655 443.018C98.5494 443.117 98.4526 443.256 98.3752 443.436C98.3043 443.616 98.2527 443.83 98.2204 444.08C98.1881 444.324 98.172 444.596 98.172 444.898C98.172 445.2 98.1881 445.476 98.2204 445.725C98.2527 445.975 98.3043 446.189 98.3752 446.369C98.4526 446.549 98.5494 446.689 98.6655 446.787C98.7881 446.886 98.9397 446.935 99.1203 446.935C99.301 446.935 99.4526 446.886 99.5751 446.787C99.6977 446.689 99.7945 446.549 99.8655 446.369C99.9364 446.189 99.988 445.975 100.02 445.725C100.053 445.476 100.069 445.2 100.069 444.898Z" fill="#D9D9D9"/>
<path d="M106.672 443.479C106.672 443.7 106.623 443.912 106.527 444.115C106.43 444.318 106.304 444.515 106.149 444.707C105.994 444.892 105.82 445.072 105.627 445.246C105.433 445.421 105.243 445.586 105.056 445.743C104.959 445.824 104.852 445.917 104.736 446.021C104.627 446.12 104.52 446.221 104.417 446.326C104.314 446.43 104.22 446.529 104.136 446.622C104.059 446.709 104.011 446.781 103.991 446.839H106.875V447.928H102.404C102.391 447.864 102.385 447.782 102.385 447.684C102.385 447.585 102.385 447.516 102.385 447.475C102.385 447.196 102.433 446.941 102.53 446.709C102.633 446.477 102.766 446.262 102.927 446.065C103.088 445.862 103.269 445.673 103.469 445.499C103.675 445.325 103.878 445.151 104.078 444.977C104.233 444.843 104.378 444.718 104.514 444.602C104.649 444.48 104.769 444.364 104.872 444.254C104.975 444.138 105.056 444.025 105.114 443.915C105.172 443.799 105.201 443.682 105.201 443.566C105.201 443.311 105.12 443.131 104.959 443.027C104.798 442.922 104.598 442.87 104.359 442.87C104.185 442.87 104.02 442.896 103.865 442.948C103.717 442.995 103.578 443.053 103.449 443.122C103.327 443.186 103.22 443.253 103.13 443.323C103.04 443.386 102.972 443.439 102.927 443.479L102.211 442.574C102.495 442.336 102.824 442.142 103.198 441.991C103.578 441.834 103.985 441.756 104.417 441.756C104.811 441.756 105.149 441.796 105.433 441.878C105.717 441.959 105.949 442.075 106.13 442.226C106.317 442.371 106.452 442.551 106.536 442.766C106.627 442.974 106.672 443.212 106.672 443.479Z" fill="#D9D9D9"/>
<path d="M112.539 444.898C112.539 445.914 112.323 446.694 111.891 447.24C111.465 447.78 110.875 448.049 110.12 448.049C109.365 448.049 108.772 447.78 108.34 447.24C107.914 446.694 107.701 445.914 107.701 444.898C107.701 444.393 107.756 443.947 107.865 443.558C107.982 443.169 108.146 442.841 108.359 442.574C108.572 442.307 108.827 442.104 109.123 441.965C109.42 441.825 109.752 441.756 110.12 441.756C110.875 441.756 111.465 442.029 111.891 442.574C112.323 443.114 112.539 443.888 112.539 444.898ZM111.068 444.898C111.068 444.596 111.052 444.324 111.02 444.08C110.988 443.83 110.936 443.616 110.865 443.436C110.794 443.256 110.698 443.117 110.575 443.018C110.452 442.919 110.301 442.87 110.12 442.87C109.94 442.87 109.788 442.919 109.665 443.018C109.549 443.117 109.452 443.256 109.375 443.436C109.304 443.616 109.252 443.83 109.22 444.08C109.188 444.324 109.172 444.596 109.172 444.898C109.172 445.2 109.188 445.476 109.22 445.725C109.252 445.975 109.304 446.189 109.375 446.369C109.452 446.549 109.549 446.689 109.665 446.787C109.788 446.886 109.94 446.935 110.12 446.935C110.301 446.935 110.452 446.886 110.575 446.787C110.698 446.689 110.794 446.549 110.865 446.369C110.936 446.189 110.988 445.975 111.02 445.725C111.052 445.476 111.068 445.2 111.068 444.898Z" fill="#D9D9D9"/>
<g filter="url(#filter4_d)">
<path d="M40.0731 15.7866C43.34 15.7866 45.8482 16.3662 47.5975 17.5254C49.3469 18.6635 50.2216 20.5394 50.2216 23.1529C50.2216 25.7875 49.3364 27.6949 47.5659 28.8752C45.7955 30.0344 43.2663 30.614 39.9783 30.614H38.4291V37.9487H33.4972V16.3556C34.5721 16.1449 35.7103 15.9973 36.9116 15.913C38.113 15.8287 39.1668 15.7866 40.0731 15.7866ZM40.3893 19.9914C40.031 19.9914 39.6727 20.0019 39.3144 20.023C38.9771 20.0441 38.6821 20.0651 38.4291 20.0862V26.4092H39.9783C41.6855 26.4092 42.9712 26.1774 43.8353 25.7137C44.6995 25.25 45.1316 24.3859 45.1316 23.1213C45.1316 22.51 45.0156 22.0042 44.7838 21.6037C44.573 21.2033 44.2569 20.8871 43.8353 20.6553C43.4349 20.4024 42.9396 20.2337 42.3494 20.1494C41.7593 20.0441 41.1059 19.9914 40.3893 19.9914Z" fill="#F5F5F5"/>
<path d="M60.2611 15.7866C63.5491 15.7866 66.0677 16.3767 67.8171 17.557C69.5665 18.7162 70.4412 20.5288 70.4412 22.9948C70.4412 24.5334 70.0829 25.7875 69.3663 26.757C68.6707 27.7054 67.659 28.4537 66.3312 29.0017C66.7738 29.5497 67.2375 30.182 67.7223 30.8986C68.207 31.5941 68.6813 32.3318 69.1449 33.1116C69.6297 33.8704 70.0934 34.6713 70.536 35.5144C70.9786 36.3364 71.3896 37.1478 71.769 37.9487H66.2364C65.8359 37.2321 65.4249 36.505 65.0034 35.7673C64.6029 35.0296 64.1814 34.313 63.7388 33.6175C63.3172 32.9219 62.8957 32.2686 62.4742 31.6573C62.0526 31.025 61.6311 30.456 61.2096 29.9501H58.7752V37.9487H53.8432V16.3556C54.9182 16.1449 56.0247 15.9973 57.1628 15.913C58.322 15.8287 59.3548 15.7866 60.2611 15.7866ZM60.5456 19.9914C60.1873 19.9914 59.8606 20.0019 59.5656 20.023C59.2916 20.0441 59.0281 20.0651 58.7752 20.0862V26.0298H60.1663C62.021 26.0298 63.3489 25.798 64.1498 25.3343C64.9507 24.8706 65.3511 24.0802 65.3511 22.9632C65.3511 21.8883 64.9401 21.1295 64.1182 20.6869C63.3172 20.2232 62.1264 19.9914 60.5456 19.9914Z" fill="#F5F5F5"/>
<path d="M78.5161 26.9783C78.5161 28.0532 78.6426 29.0227 78.8955 29.8869C79.1695 30.751 79.5489 31.4993 80.0336 32.1316C80.5395 32.7428 81.1507 33.217 81.8673 33.5542C82.5839 33.8915 83.4059 34.0601 84.3333 34.0601C85.2396 34.0601 86.051 33.8915 86.7677 33.5542C87.5053 33.217 88.1166 32.7428 88.6013 32.1316C89.1072 31.4993 89.4866 30.751 89.7395 29.8869C90.0135 29.0227 90.1505 28.0532 90.1505 26.9783C90.1505 25.9034 90.0135 24.9339 89.7395 24.0697C89.4866 23.1845 89.1072 22.4363 88.6013 21.825C88.1166 21.1927 87.5053 20.708 86.7677 20.3707C86.051 20.0335 85.2396 19.8649 84.3333 19.8649C83.4059 19.8649 82.5839 20.0441 81.8673 20.4024C81.1507 20.7396 80.5395 21.2243 80.0336 21.8567C79.5489 22.4679 79.1695 23.2161 78.8955 24.1013C78.6426 24.9655 78.5161 25.9245 78.5161 26.9783ZM95.2405 26.9783C95.2405 28.8541 94.956 30.5087 94.3869 31.9419C93.8389 33.354 93.0801 34.5448 92.1106 35.5144C91.1411 36.4628 89.9819 37.1794 88.633 37.6642C87.3051 38.149 85.8719 38.3914 84.3333 38.3914C82.8368 38.3914 81.4247 38.149 80.0969 37.6642C78.769 37.1794 77.6098 36.4628 76.6192 35.5144C75.6286 34.5448 74.8488 33.354 74.2797 31.9419C73.7106 30.5087 73.4261 28.8541 73.4261 26.9783C73.4261 25.1025 73.7212 23.4585 74.3113 22.0463C74.9015 20.6131 75.6918 19.4117 76.6824 18.4422C77.6941 17.4727 78.8533 16.7455 80.1601 16.2608C81.4879 15.776 82.879 15.5336 84.3333 15.5336C85.8297 15.5336 87.2419 15.776 88.5697 16.2608C89.8976 16.7455 91.0568 17.4727 92.0474 18.4422C93.038 19.4117 93.8178 20.6131 94.3869 22.0463C94.956 23.4585 95.2405 25.1025 95.2405 26.9783Z" fill="#F5F5F5"/>
<path d="M110.73 37.9487C110.119 36.7263 109.445 35.4933 108.707 34.2498C107.99 32.9852 107.158 31.6995 106.209 30.3927C105.914 30.7721 105.535 31.299 105.071 31.9735C104.629 32.6479 104.176 33.3646 103.712 34.1233C103.269 34.8821 102.848 35.6092 102.447 36.3048C102.047 37.0003 101.752 37.5483 101.562 37.9487H95.9346C96.8619 36.2415 97.9368 34.45 99.1593 32.5742C100.403 30.6983 101.783 28.7066 103.301 26.5989L96.2507 16.0395H102.226L106.494 22.8683L110.667 16.0395H116.295L109.339 26.6621C111.11 28.9595 112.596 31.0883 113.797 33.0484C114.998 34.9875 115.947 36.6209 116.642 37.9487H110.73Z" fill="#F5F5F5"/>
<path d="M119.482 16.0395H124.414V37.9487H119.482V16.0395Z" fill="#F5F5F5"/>
<path d="M135.302 16.0395C135.681 16.735 136.113 17.5992 136.598 18.6319C137.104 19.6436 137.62 20.7501 138.147 21.9515C138.695 23.1318 139.233 24.3437 139.76 25.5872C140.287 26.8308 140.782 28.0005 141.246 29.0965C141.709 28.0005 142.205 26.8308 142.732 25.5872C143.258 24.3437 143.785 23.1318 144.312 21.9515C144.86 20.7501 145.377 19.6436 145.861 18.6319C146.367 17.5992 146.81 16.735 147.189 16.0395H151.679C151.889 17.4938 152.079 19.1272 152.248 20.9398C152.437 22.7313 152.595 24.6072 152.722 26.5673C152.869 28.5064 152.996 30.456 153.101 32.4161C153.228 34.3762 153.333 36.2204 153.417 37.9487H148.612C148.549 35.82 148.464 33.5016 148.359 30.9934C148.254 28.4853 148.096 25.9561 147.885 23.4058C147.505 24.291 147.084 25.2711 146.62 26.346C146.157 27.4209 145.693 28.4958 145.229 29.5707C144.787 30.6457 144.354 31.6784 143.933 32.669C143.511 33.6385 143.153 34.4711 142.858 35.1666H139.412C139.117 34.4711 138.759 33.6385 138.337 32.669C137.916 31.6784 137.473 30.6457 137.009 29.5707C136.567 28.4958 136.113 27.4209 135.65 26.346C135.186 25.2711 134.765 24.291 134.385 23.4058C134.174 25.9561 134.016 28.4853 133.911 30.9934C133.806 33.5016 133.721 35.82 133.658 37.9487H128.853C128.937 36.2204 129.032 34.3762 129.137 32.4161C129.264 30.456 129.39 28.5064 129.516 26.5673C129.664 24.6072 129.822 22.7313 129.991 20.9398C130.18 19.1272 130.381 17.4938 130.591 16.0395H135.302Z" fill="#F5F5F5"/>
<path d="M172.528 37.9487C172.296 37.19 172.032 36.4101 171.737 35.6092C171.463 34.8083 171.189 34.0074 170.915 33.2065H162.379C162.105 34.0074 161.821 34.8083 161.526 35.6092C161.252 36.4101 160.999 37.19 160.767 37.9487H155.645C156.467 35.5881 157.247 33.4067 157.985 31.4044C158.722 29.4021 159.439 27.5158 160.134 25.7453C160.851 23.9749 161.547 22.2993 162.221 20.7185C162.917 19.1167 163.633 17.557 164.371 16.0395H169.082C169.798 17.557 170.504 19.1167 171.2 20.7185C171.895 22.2993 172.591 23.9749 173.286 25.7453C174.003 27.5158 174.73 29.4021 175.468 31.4044C176.205 33.4067 176.985 35.5881 177.807 37.9487H172.528ZM166.616 21.003C166.51 21.3192 166.352 21.7513 166.141 22.2993C165.931 22.8473 165.688 23.4796 165.414 24.1962C165.14 24.9128 164.835 25.7032 164.497 26.5673C164.181 27.4314 163.855 28.3377 163.517 29.2862H169.745C169.408 28.3377 169.082 27.4314 168.765 26.5673C168.449 25.7032 168.144 24.9128 167.849 24.1962C167.575 23.4796 167.332 22.8473 167.121 22.2993C166.911 21.7513 166.742 21.3192 166.616 21.003Z" fill="#F5F5F5"/>
<path d="M186.46 16.0395C186.84 16.735 187.272 17.5992 187.757 18.6319C188.263 19.6436 188.779 20.7501 189.306 21.9515C189.854 23.1318 190.391 24.3437 190.918 25.5872C191.445 26.8308 191.94 28.0005 192.404 29.0965C192.868 28.0005 193.363 26.8308 193.89 25.5872C194.417 24.3437 194.944 23.1318 195.471 21.9515C196.019 20.7501 196.535 19.6436 197.02 18.6319C197.526 17.5992 197.968 16.735 198.348 16.0395H202.837C203.048 17.4938 203.238 19.1272 203.406 20.9398C203.596 22.7313 203.754 24.6072 203.88 26.5673C204.028 28.5064 204.154 30.456 204.26 32.4161C204.386 34.3762 204.492 36.2204 204.576 37.9487H199.77C199.707 35.82 199.623 33.5016 199.517 30.9934C199.412 28.4853 199.254 25.9561 199.043 23.4058C198.664 24.291 198.242 25.2711 197.779 26.346C197.315 27.4209 196.851 28.4958 196.388 29.5707C195.945 30.6457 195.513 31.6784 195.091 32.669C194.67 33.6385 194.312 34.4711 194.016 35.1666H190.57C190.275 34.4711 189.917 33.6385 189.496 32.669C189.074 31.6784 188.631 30.6457 188.168 29.5707C187.725 28.4958 187.272 27.4209 186.808 26.346C186.345 25.2711 185.923 24.291 185.544 23.4058C185.333 25.9561 185.175 28.4853 185.069 30.9934C184.964 33.5016 184.88 35.82 184.816 37.9487H180.011C180.095 36.2204 180.19 34.3762 180.296 32.4161C180.422 30.456 180.548 28.5064 180.675 26.5673C180.822 24.6072 180.98 22.7313 181.149 20.9398C181.339 19.1272 181.539 17.4938 181.75 16.0395H186.46Z" fill="#F5F5F5"/>
<path d="M209.017 37.9487V16.0395H223.812V20.1811H213.949V24.4807H222.706V28.5274H213.949V33.8072H224.54V37.9487H209.017Z" fill="#F5F5F5"/>
<path d="M242.89 37.9487C241.478 35.4406 239.95 32.9641 238.306 30.5192C236.662 28.0743 234.913 25.7664 233.058 23.5955V37.9487H228.189V16.0395H232.205C232.9 16.735 233.669 17.5886 234.512 18.6003C235.356 19.612 236.209 20.6974 237.073 21.8567C237.958 22.9948 238.833 24.1856 239.697 25.4292C240.561 26.6516 241.373 27.8319 242.132 28.9701V16.0395H247.032V37.9487H242.89Z" fill="#F5F5F5"/>
<path d="M268.336 16.0395V20.2443H261.729V37.9487H256.797V20.2443H250.189V16.0395H268.336Z" fill="#F5F5F5"/>
<path d="M271.506 37.9487V16.0395H286.302V20.1811H276.438V24.4807H285.195V28.5274H276.438V33.8072H287.029V37.9487H271.506Z" fill="#F5F5F5"/>
</g>
</g>
<defs>
<filter id="filter0_b" x="218.854" y="469.126" width="34.1479" height="26.7068" filterUnits="userSpaceOnUse" color-interpolation-filters="sRGB">
<feFlood flood-opacity="0" result="BackgroundImageFix"/>
<feGaussianBlur in="BackgroundImage" stdDeviation="2"/>
<feComposite in2="SourceAlpha" operator="in" result="effect1_backgroundBlur"/>
<feBlend mode="normal" in="SourceGraphic" in2="effect1_backgroundBlur" result="shape"/>
</filter>
<filter id="filter1_b" x="254.516" y="475.259" width="34.1479" height="26.7068" filterUnits="userSpaceOnUse" color-interpolation-filters="sRGB">
<feFlood flood-opacity="0" result="BackgroundImageFix"/>
<feGaussianBlur in="BackgroundImage" stdDeviation="2"/>
<feComposite in2="SourceAlpha" operator="in" result="effect1_backgroundBlur"/>
<feBlend mode="normal" in="SourceGraphic" in2="effect1_backgroundBlur" result="shape"/>
</filter>
<filter id="filter2_b" x="180.411" y="279.893" width="31.012" height="24.296" filterUnits="userSpaceOnUse" color-interpolation-filters="sRGB">
<feFlood flood-opacity="0" result="BackgroundImageFix"/>
<feGaussianBlur in="BackgroundImage" stdDeviation="2"/>
<feComposite in2="SourceAlpha" operator="in" result="effect1_backgroundBlur"/>
<feBlend mode="normal" in="SourceGraphic" in2="effect1_backgroundBlur" result="shape"/>
</filter>
<filter id="filter3_b" x="213.015" y="277.394" width="31.012" height="24.296" filterUnits="userSpaceOnUse" color-interpolation-filters="sRGB">
<feFlood flood-opacity="0" result="BackgroundImageFix"/>
<feGaussianBlur in="BackgroundImage" stdDeviation="2"/>
<feComposite in2="SourceAlpha" operator="in" result="effect1_backgroundBlur"/>
<feBlend mode="normal" in="SourceGraphic" in2="effect1_backgroundBlur" result="shape"/>
</filter>
<filter id="filter4_d" x="33.4972" y="15.5336" width="258.552" height="28.5055" filterUnits="userSpaceOnUse" color-interpolation-filters="sRGB">
<feFlood flood-opacity="0" result="BackgroundImageFix"/>
<feColorMatrix in="SourceAlpha" type="matrix" values="0 0 0 0 0 0 0 0 0 0 0 0 0 0 0 0 0 0 127 0"/>
<feOffset dx="2.51012" dy="3.13765"/>
<feGaussianBlur stdDeviation="1.25506"/>
<feColorMatrix type="matrix" values="0 0 0 0 1 0 0 0 0 1 0 0 0 0 1 0 0 0 0.4 0"/>
<feBlend mode="normal" in2="BackgroundImageFix" result="effect1_dropShadow"/>
<feBlend mode="normal" in="SourceGraphic" in2="effect1_dropShadow" result="shape"/>
</filter>
<clipPath id="clip0">
<rect width="320" height="568" fill="white" transform="translate(0.263)"/>
</clipPath>
</defs>
</svg>
