<svg width="835" height="1195" viewBox="0 0 835 1195" fill="none" xmlns="http://www.w3.org/2000/svg">
<g clip-path="url(#clip0)">
<rect width="834" height="1194" transform="translate(0.737305 0.0499878)" fill="#3C576A"/>
<path opacity="0.98" d="M74.9141 109.997L67.5516 116.29L76.4982 119.999L66.8136 120.086L71.2829 128.678L63.8077 122.52L61.7085 131.975L59.9405 122.453L52.255 128.346L57.0214 119.915L47.3457 119.49L56.4163 116.095L49.2779 109.55L58.4084 112.78L57.1473 103.177L62.0655 111.521L67.2719 103.354L65.6764 112.907L74.9141 109.997Z" fill="#063885"/>
<path opacity="0.7" d="M260.608 204.515L266.851 190.804L251.8 191.456L265.395 184.966L253.446 175.791L268.033 179.558L264.777 164.849L273.529 177.111L280.49 163.75L279.313 178.769L293.234 173.009L282.677 183.757L297.044 188.292L282.048 189.741L290.139 202.45L277.72 193.921L275.749 208.857L271.719 194.34L260.608 204.515Z" fill="#063885"/>
<path opacity="0.86" d="M603.048 83.0327L598.065 74.9075L593.082 83.0327L594.488 73.6056L585.448 76.6271L592.585 70.3092L583.718 66.8131L593.246 66.5606L588.701 58.1829L596.162 64.1139L598.065 54.7745L599.968 64.1139L607.429 58.1829L602.884 66.5606L612.412 66.8131L603.545 70.3092L610.681 76.6271L601.642 73.6056L603.048 83.0327Z" fill="#063885"/>
<path opacity="0.98" d="M725.753 -5.84125L735.735 -12.2046L725.537 -18.2157L737.274 -16.6744L733.326 -27.8339L741.326 -19.1091L745.475 -30.1954L745.995 -18.3696L756.3 -24.1952L749.097 -14.8018L760.735 -12.641L749.179 -10.0752L756.706 -0.938916L746.204 -6.40139L746.097 5.43536L741.564 -5.49938L733.873 3.49927L737.429 -7.79123L725.753 -5.84125Z" fill="#063885"/>
<path opacity="0.79" d="M149.775 376.216L141.044 367.337L137.089 379.145L136.109 366.731L125.489 373.234L132.717 363.094L120.402 361.25L132.457 358.128L124.209 348.799L135.449 354.157L135.128 341.709L140.295 353.038L148.05 343.295L144.726 355.296L156.929 352.817L146.669 359.873L157.61 365.818L145.215 364.629L149.775 376.216Z" fill="#063885"/>
<path opacity="0.97" d="M256.816 244.88L267.414 251.119L268.169 238.844L272.278 250.435L280.746 241.517L276.443 253.038L288.663 251.65L277.961 257.709L288.214 264.5L276.121 262.263L279.61 274.056L271.784 264.569L266.877 275.846L266.98 263.548L255.972 269.032L263.956 259.677L251.999 256.803L264.128 254.769L256.816 244.88Z" fill="#063885"/>
<path opacity="0.88" d="M534.157 322.318L544.525 312.473L531.049 307.697L545.319 306.819L538.067 294.498L549.562 302.999L551.927 288.899L555.269 302.799L566.143 293.518L559.768 306.315L574.064 306.194L560.955 311.9L571.984 320.997L558.274 316.941L560.875 330.999L552.981 319.08L545.936 331.521L547.55 317.315L534.157 322.318Z" fill="#063885"/>
<path opacity="0.88" d="M632.372 419.346L641.806 414.843L633.514 408.477L643.636 411.091L641.377 400.884L647.45 409.393L652.28 400.122L651.463 410.543L661.122 406.546L653.797 414.004L663.766 417.151L653.361 418.156L658.975 426.975L650.358 421.056L648.99 431.42L646.193 421.348L638.484 428.408L642.816 418.894L632.372 419.346Z" fill="#063885"/>
<path opacity="0.87" d="M142.935 645.939L153.58 653.25L155.27 640.447L158.725 652.89L168.248 644.169L162.897 655.921L175.798 655.362L164.144 660.925L174.387 668.79L161.884 665.56L164.675 678.168L157.172 667.658L151.206 679.11L152.215 666.236L140.283 671.174L149.331 661.961L137.017 658.074L149.87 656.832L142.935 645.939Z" fill="#063885"/>
<path opacity="0.99" d="M238.983 588.278L225.297 578.879L223.124 595.339L218.682 579.341L206.438 590.554L213.318 575.444L196.731 576.163L211.714 569.01L198.545 558.899L214.621 563.051L211.032 546.84L220.678 560.354L228.349 545.629L227.052 562.182L242.393 555.833L230.759 567.679L246.592 572.676L230.066 574.273L238.983 588.278Z" fill="#063885"/>
<path opacity="0.96" d="M434.651 602.057L421.843 612.621L437.067 619.247L420.465 619.107L427.868 633.968L415.24 623.189L411.359 639.332L408.613 622.958L395.264 632.829L403.686 618.521L387.114 617.502L402.763 611.955L390.723 600.523L406.277 606.332L404.402 589.835L412.583 604.283L421.751 590.441L418.73 606.767L434.651 602.057Z" fill="#063885"/>
<path opacity="0.95" d="M658.375 717.231L639.928 717.075L648.154 733.588L634.122 721.611L629.81 739.548L626.76 721.354L611.927 732.322L621.285 716.424L602.872 715.292L620.259 709.129L606.882 696.426L624.163 702.881L622.081 684.551L631.17 700.604L641.357 685.224L638.001 703.364L655.691 698.131L641.46 709.869L658.375 717.231Z" fill="#063885"/>
<path opacity="0.86" d="M167.972 897.357L163.219 906.495L173.519 906.588L164.004 910.533L171.834 917.225L162.01 914.131L163.706 924.29L158.17 915.605L152.939 924.478L154.28 914.266L144.57 917.701L152.162 910.74L142.515 907.129L152.805 906.677L147.736 897.711L155.91 903.978L157.79 893.851L160.022 903.907L167.972 897.357Z" fill="#063885"/>
<path opacity="0.79" d="M285.518 844.655L291.798 833.548L279.051 832.987L291.001 828.515L281.596 819.891L293.625 824.147L291.964 811.496L298.443 822.488L305.303 811.729L303.201 824.314L315.371 820.481L305.671 828.771L317.458 833.657L304.699 833.773L310.587 845.093L300.739 836.98L297.973 849.436L295.644 836.891L285.518 844.655Z" fill="#063885"/>
<path opacity="0.75" d="M666.192 724.437L675.916 716.416L664.357 711.386L676.963 711.492L671.342 700.209L680.93 708.392L683.877 696.136L685.961 708.568L696.097 701.073L689.702 711.937L702.284 712.71L690.403 716.922L699.544 725.602L687.735 721.191L689.158 733.717L682.947 722.747L675.986 733.257L678.28 720.861L666.192 724.437Z" fill="#063885"/>
<path opacity="0.93" d="M152.901 1080.2L137.436 1082.8L146.759 1095.4L133.246 1087.45L132.284 1103.1L127.045 1088.32L116.247 1099.69L121.734 1085L106.154 1086.77L119.799 1079.05L106.726 1070.39L122.145 1073.24L117.696 1058.2L127.674 1070.3L133.931 1055.92L133.799 1071.6L147.835 1064.61L137.655 1076.54L152.901 1080.2Z" fill="#063885"/>
<path opacity="0.92" d="M358.793 946.785L363.722 930.127L346.64 933.287L361.123 923.694L346.006 915.136L363.267 917.097L357.188 900.823L369.15 913.42L374.954 897.047L376.02 914.386L390.991 905.574L380.662 919.541L397.795 922.414L380.904 926.475L392.182 939.688L376.633 931.941L376.779 949.312L369.847 933.384L358.793 946.785Z" fill="#063885"/>
<path opacity="0.9" d="M485.372 1127.48L492.513 1133.8L494.902 1124.57L496.314 1134L504.075 1128.46L499.098 1136.59L508.599 1137.34L499.562 1140.37L506.358 1147.05L497.488 1143.56L498.399 1153.05L493.848 1144.67L488.447 1152.53L490.345 1143.19L481.159 1145.73L488.616 1139.8L479.945 1135.84L489.473 1136.09L485.372 1127.48Z" fill="#063885"/>
<path opacity="0.81" d="M662.341 1044.25L675.854 1051.58L676.261 1036.21L681.9 1050.51L692.09 1039L687.217 1053.58L702.421 1051.32L689.316 1059.35L702.421 1067.39L687.217 1065.12L692.09 1079.7L681.9 1068.19L676.261 1082.49L675.854 1067.13L662.341 1074.46L671.907 1062.42L656.844 1059.35L671.907 1056.28L662.341 1044.25Z" fill="#063885"/>
<g opacity="0.78">
<path d="M514.761 126.171C514.761 177.68 473.005 219.437 421.496 219.437C369.987 219.437 328.23 177.68 328.23 126.171C328.23 74.6619 369.987 32.9055 421.496 32.9055C473.005 32.9055 514.761 74.6619 514.761 126.171Z" fill="#4E4949"/>
<path fill-rule="evenodd" clip-rule="evenodd" d="M421.496 215.51C470.9 215.51 510.877 175.471 510.877 126.171C510.877 76.8713 470.9 36.8324 421.496 36.8324C372.091 36.8324 332.114 76.8713 332.114 126.171C332.114 175.471 372.091 215.51 421.496 215.51ZM421.496 219.437C473.005 219.437 514.761 177.68 514.761 126.171C514.761 74.6619 473.005 32.9055 421.496 32.9055C369.987 32.9055 328.23 74.6619 328.23 126.171C328.23 177.68 369.987 219.437 421.496 219.437Z" fill="black"/>
<path d="M496.108 126.171C496.108 167.379 462.703 200.784 421.496 200.784C380.288 200.784 346.883 167.379 346.883 126.171C346.883 84.9638 380.288 51.5587 421.496 51.5587C462.703 51.5587 496.108 84.9638 496.108 126.171Z" fill="#525252"/>
<path fill-rule="evenodd" clip-rule="evenodd" d="M421.496 198.428C461.44 198.428 493.778 166.053 493.778 126.171C493.778 86.2895 461.44 53.9148 421.496 53.9148C381.551 53.9148 349.214 86.2895 349.214 126.171C349.214 166.053 381.551 198.428 421.496 198.428ZM421.496 200.784C462.703 200.784 496.108 167.379 496.108 126.171C496.108 84.9638 462.703 51.5587 421.496 51.5587C380.288 51.5587 346.883 84.9638 346.883 126.171C346.883 167.379 380.288 200.784 421.496 200.784Z" fill="black"/>
<path d="M455.59 94.1034C461.163 84.4059 462.967 79.979 469.233 71.5512C461.507 65.3098 457.657 61.973 446.978 58.4974C441.726 67.156 436.951 71.3604 431.003 79.9318C423.221 80.9468 419.178 83.2236 412.837 91.9398C410.472 96.6613 410.417 98.984 412.82 102.465C405.321 107.432 405.158 112.429 412.923 117.24C414.878 122.647 417.006 124.286 422.397 125.045C427.541 129.07 429.641 129.31 433.919 127.157C440.529 131.893 443.514 129.541 448.003 119.519C452.442 107.421 455.5 99.7855 454.281 96.1613C455.165 95.3862 455.371 94.9296 455.59 94.1034Z" fill="#0116D1"/>
<path fill-rule="evenodd" clip-rule="evenodd" d="M446.892 58.2634L447.038 58.3107C457.313 61.6547 461.297 64.8783 468.421 70.6436C468.726 70.8903 469.037 71.1417 469.354 71.398L469.502 71.517L469.388 71.6693C464.876 77.7395 462.686 81.7235 459.721 87.1173C458.578 89.1955 457.321 91.483 455.771 94.1797C455.663 94.5867 455.551 94.9221 455.351 95.2539C455.162 95.5672 454.901 95.8676 454.505 96.2238C454.787 97.15 454.81 98.2991 454.632 99.6646C454.445 101.095 454.035 102.779 453.45 104.72C452.483 107.931 451.031 111.869 449.302 116.555C448.941 117.533 448.568 118.544 448.185 119.588L448.183 119.594L448.18 119.601C447.057 122.109 446.024 124.146 445.001 125.715C443.979 127.282 442.958 128.396 441.854 129.042C439.636 130.34 437.172 129.707 433.902 127.385C431.803 128.431 430.187 128.911 428.451 128.612C426.706 128.311 424.872 127.226 422.32 125.233C419.639 124.851 417.732 124.245 416.25 123.038C414.771 121.834 413.739 120.052 412.764 117.372C408.909 114.97 406.946 112.479 406.954 109.911C406.961 107.371 408.896 104.866 412.548 102.412C411.409 100.725 410.838 99.2766 410.847 97.6667C410.856 96.0131 411.479 94.2179 412.664 91.8513L412.671 91.8368L412.681 91.8237C415.857 87.4582 418.47 84.6872 421.276 82.8824C424.065 81.0884 427.03 80.2587 430.894 79.7484C433.441 76.0846 435.774 73.2165 438.017 70.4583C438.381 70.0113 438.742 69.5672 439.102 69.1231C441.694 65.9206 444.194 62.7129 446.813 58.395L446.892 58.2634ZM447.064 58.7319C444.46 63.0062 441.972 66.1972 439.402 69.3718C439.042 69.8169 438.68 70.2617 438.316 70.709C436.058 73.4849 433.719 76.3602 431.163 80.0447L431.113 80.1156L431.029 80.1267C427.152 80.6323 424.227 81.4496 421.484 83.2137C418.741 84.9783 416.164 87.7001 413.003 92.0433C411.829 94.3907 411.244 96.1137 411.235 97.6689C411.226 99.2186 411.79 100.63 412.979 102.353L413.094 102.519L412.927 102.63C409.186 105.107 407.349 107.547 407.342 109.912C407.335 112.273 409.153 114.674 413.025 117.073L413.083 117.108L413.106 117.173C414.079 119.864 415.084 121.585 416.494 122.733C417.903 123.88 419.741 124.473 422.425 124.851L422.476 124.858L422.517 124.89C425.087 126.901 426.865 127.94 428.516 128.225C430.157 128.508 431.705 128.052 433.833 126.981L433.937 126.929L434.031 126.997C437.324 129.356 439.631 129.889 441.66 128.702C442.689 128.1 443.67 127.043 444.677 125.499C445.682 123.957 446.704 121.944 447.824 119.445C448.207 118.401 448.579 117.391 448.94 116.414C450.668 111.727 452.115 107.804 453.079 104.606C453.661 102.673 454.064 101.012 454.247 99.6132C454.43 98.2119 454.389 97.0897 454.098 96.2247L454.056 96.0997L454.154 96.0131C454.588 95.6326 454.845 95.3399 455.02 95.0496C455.194 94.7596 455.295 94.4607 455.402 94.0529L455.409 94.0276L455.422 94.005C456.97 91.3121 458.228 89.024 459.372 86.9425C462.318 81.5841 464.511 77.5936 468.965 71.5858C468.699 71.3708 468.437 71.1592 468.18 70.951C461.098 65.2207 457.163 62.0367 447.064 58.7319Z" fill="black"/>
<path fill-rule="evenodd" clip-rule="evenodd" d="M444.038 83.8412L451.728 73.1998L452.042 73.4314L444.352 84.0729L444.038 83.8412ZM445.313 84.2272L449.365 78.7942L449.675 79.0306L445.623 84.4637L445.313 84.2272ZM440.098 83.6113C437.794 82.4562 436.372 81.8783 433.632 80.9389L433.756 80.567C436.509 81.5108 437.948 82.0951 440.271 83.2595L440.098 83.6113ZM451.452 93.0145C449.481 90.7248 448.231 89.5231 445.846 87.4567L446.099 87.1585C448.494 89.2342 449.759 90.4493 451.745 92.7567L451.452 93.0145ZM432.669 98.0944C429.915 98.7135 427.312 98.571 424.128 97.6966L424.23 97.3176C427.367 98.179 429.905 98.3136 432.585 97.7111C435.272 97.107 438.114 95.7593 441.855 93.6318L442.045 93.9741C438.298 96.1047 435.415 97.477 432.669 98.0944ZM421.404 95.7931C421.443 95.5381 421.444 95.315 421.403 95.0938C421.355 94.836 421.253 94.5937 421.109 94.3194L420.766 94.5038C420.902 94.7635 420.984 94.9652 421.021 95.1661C421.058 95.3625 421.054 95.5708 421.001 95.8453L420.717 96.7966C420.563 96.759 420.406 96.7308 420.246 96.7117C419.438 96.615 418.567 96.7541 417.592 97.0847L417.715 97.457C418.658 97.1374 419.468 97.0141 420.2 97.1017C420.929 97.1889 421.596 97.4867 422.25 98.0339C423.57 99.138 424.828 101.244 426.408 104.636C426.655 105.324 426.53 106.148 426.142 106.979C425.754 107.81 425.114 108.622 424.377 109.261C423.638 109.902 422.818 110.355 422.079 110.489C421.348 110.621 420.711 110.444 420.272 109.841C419.277 108.472 417.342 106.471 415.667 104.82C414.828 103.992 414.05 103.25 413.482 102.714C413.198 102.446 412.966 102.23 412.806 102.08C412.725 102.006 412.663 101.948 412.62 101.909L412.572 101.864L412.555 101.849C412.555 101.849 412.555 101.848 412.424 101.994C412.294 102.139 412.294 102.139 412.294 102.139L412.295 102.14L412.31 102.154L412.358 102.198C412.4 102.237 412.463 102.295 412.543 102.37C412.703 102.518 412.934 102.734 413.217 103.001C413.783 103.535 414.559 104.276 415.396 105.101C417.074 106.755 418.986 108.735 419.959 110.073C420.506 110.824 421.307 111.028 422.147 110.875C422.978 110.725 423.859 110.227 424.63 109.559C425.402 108.889 426.079 108.034 426.494 107.146C426.907 106.261 427.07 105.318 426.77 104.493L426.767 104.484L426.763 104.477C426.219 103.308 425.709 102.282 425.217 101.392L425.269 101.442L425.706 100.974C427.453 101.33 428.624 101.763 429.475 102.472C430.297 103.156 430.842 104.115 431.299 105.574L431.281 105.611C427.54 113.638 425.053 118.419 421.81 123.404L422.134 123.619C425.37 118.646 427.855 113.877 431.557 105.941L431.568 105.94C433.35 105.805 434.595 105.942 435.599 106.454C436.589 106.959 437.372 107.843 438.196 109.267C438.16 112.158 437.942 114.488 437.217 117.03C436.488 119.59 435.241 122.376 433.132 126.17L433.471 126.363C435.586 122.556 436.849 119.741 437.591 117.139C438.318 114.587 438.541 112.25 438.583 109.397C440.083 109.288 441.318 109.41 442.306 109.797C443.325 110.196 444.091 110.88 444.617 111.906C445.147 112.937 445.438 114.323 445.484 116.128C445.531 117.932 445.333 120.141 444.895 122.81L445.278 122.874C445.718 120.192 445.92 117.956 445.872 116.118C445.825 114.281 445.529 112.829 444.962 111.725C444.393 110.614 443.554 109.865 442.446 109.431C441.372 109.01 440.054 108.89 438.497 109.01C437.668 107.59 436.846 106.65 435.773 106.103C434.708 105.56 433.422 105.419 431.694 105.537C431.221 103.998 430.642 102.934 429.722 102.169C428.794 101.396 427.542 100.946 425.77 100.587C425.204 99.4362 424.679 98.5756 424.005 97.8297C423.336 97.0901 422.528 96.4718 421.404 95.7931ZM425.404 100.725C424.853 99.6093 424.351 98.7949 423.718 98.0946C423.103 97.4142 422.357 96.8335 421.303 96.1901L421.089 96.9072C421.58 97.0797 422.045 97.3526 422.498 97.7313C423.359 98.452 424.181 99.5604 425.054 101.1L425.404 100.725ZM430.04 101.197C435.843 103.561 440.246 105.003 446.104 104.013L446.168 104.4C440.198 105.409 435.709 103.93 429.895 101.561L430.04 101.197ZM415.69 111.303C416.503 110.031 417.229 109.083 418.382 108.25L418.608 108.569C417.513 109.36 416.819 110.261 416.016 111.516C415.78 111.886 415.534 112.287 415.265 112.725C414.623 113.772 413.853 115.027 412.782 116.56L412.465 116.333C413.529 114.811 414.288 113.573 414.928 112.53C415.199 112.088 415.448 111.682 415.69 111.303Z" fill="black"/>
<path d="M411.529 174.265C405.737 183.832 403.828 185.428 398.732 194.875C394.535 193.374 387.054 190.947 375.357 182.449C380.397 173.663 382.879 168.491 387.513 159.127C384.698 151.721 384.758 147.042 389.331 137.26C392.316 132.912 394.312 131.76 398.483 132.243C399.243 123.212 403.513 120.693 411.39 125.315C417.024 124.485 419.462 125.599 422.685 130.035C428.632 132.698 429.839 134.452 429.997 139.281C437.26 142.911 436.631 146.685 430.043 155.439C421.624 165.137 416.431 171.486 412.698 172.123C412.443 173.278 412.144 173.679 411.529 174.265Z" fill="#950000"/>
<path fill-rule="evenodd" clip-rule="evenodd" d="M375.101 182.505L375.244 182.609C386.38 190.699 393.707 193.299 398.016 194.828C398.241 194.908 398.458 194.985 398.667 195.06L398.823 195.116L398.902 194.969C401.447 190.252 403.195 187.496 405.031 184.724C405.355 184.235 405.682 183.745 406.016 183.244C407.575 180.907 409.301 178.321 411.681 174.39C411.983 174.1 412.222 173.842 412.416 173.506C412.599 173.19 412.736 172.814 412.858 172.293C413.798 172.103 414.809 171.578 415.913 170.77C417.069 169.925 418.339 168.76 419.751 167.317C422.086 164.931 424.823 161.768 428.08 158.003C428.76 157.218 429.462 156.406 430.189 155.569L430.193 155.564L430.197 155.558C431.847 153.367 433.128 151.48 434.008 149.825C434.886 148.171 435.371 146.733 435.408 145.444C435.484 142.854 433.762 140.963 430.187 139.157C430.1 136.793 429.751 135.127 428.665 133.725C427.574 132.316 425.759 131.2 422.811 129.876C421.205 127.673 419.771 126.264 418.017 125.519C416.266 124.775 414.225 124.704 411.429 125.11C407.507 122.822 404.406 122.259 402.175 123.486C399.968 124.7 398.708 127.611 398.307 132.026C396.299 131.815 394.766 131.994 393.369 132.767C391.934 133.561 390.668 134.968 389.172 137.148L389.162 137.161L389.156 137.176C386.865 142.075 385.695 145.716 385.458 149.07C385.222 152.404 385.909 155.436 387.301 159.116C386.876 159.974 386.47 160.797 386.078 161.59C382.213 169.413 379.749 174.401 375.189 182.351L375.101 182.505ZM375.613 182.393C380.123 174.522 382.585 169.539 386.425 161.766C386.829 160.949 387.248 160.1 387.686 159.214L387.725 159.137L387.694 159.056C386.292 155.367 385.613 152.377 385.845 149.098C386.077 145.819 387.222 142.234 389.5 137.358C390.985 135.198 392.206 133.859 393.556 133.112C394.9 132.368 396.396 132.199 398.461 132.438L398.66 132.461L398.677 132.26C399.055 127.755 400.306 124.961 402.36 123.831C404.412 122.703 407.366 123.18 411.293 125.484L411.351 125.519L411.418 125.509C414.223 125.096 416.199 125.172 417.867 125.881C419.535 126.59 420.924 127.943 422.529 130.151L422.559 130.193L422.606 130.214C425.578 131.545 427.326 132.633 428.359 133.967C429.385 135.292 429.724 136.885 429.803 139.287L429.807 139.405L429.911 139.457C433.529 141.265 435.089 143.064 435.02 145.432C434.985 146.635 434.531 148.009 433.665 149.639C432.801 151.265 431.535 153.132 429.892 155.315C429.166 156.152 428.464 156.963 427.785 157.748C424.527 161.513 421.801 164.664 419.475 167.041C418.07 168.477 416.816 169.625 415.685 170.452C414.552 171.281 413.556 171.778 412.665 171.93L412.536 171.952L412.508 172.081C412.383 172.648 412.25 173.015 412.081 173.308C411.911 173.602 411.699 173.833 411.395 174.123L411.376 174.141L411.363 174.163C408.981 178.098 407.256 180.683 405.695 183.023C405.36 183.525 405.033 184.016 404.708 184.506C402.887 187.257 401.149 189.994 398.64 194.634C398.48 194.577 398.314 194.518 398.144 194.458C393.869 192.941 386.625 190.37 375.613 182.393Z" fill="black"/>
<path fill-rule="evenodd" clip-rule="evenodd" d="M397.109 168.865L391.502 180.763L391.853 180.931L397.46 169.034L397.109 168.865ZM398.051 169.815L395.248 176.002L395.601 176.165L398.404 169.979L398.051 169.815ZM395.037 165.469C392.937 163.968 391.758 162.978 389.638 160.986L389.374 161.274C391.504 163.275 392.696 164.277 394.813 165.79L395.037 165.469ZM408.615 171.102C405.686 170.436 404.046 169.895 401.114 168.755L400.975 169.122C403.92 170.267 405.578 170.814 408.53 171.485L408.615 171.102ZM404.111 151.978C403.342 149.235 401.981 146.986 399.707 144.57L399.425 144.84C401.665 147.221 402.988 149.415 403.737 152.085C404.489 154.763 404.666 157.932 404.592 162.271L404.981 162.278C405.054 157.932 404.879 154.715 404.111 151.978ZM396.756 143.05C396.552 143.206 396.359 143.313 396.147 143.382C395.9 143.462 395.64 143.486 395.333 143.488L395.33 143.095C395.621 143.093 395.836 143.07 396.028 143.008C396.216 142.947 396.396 142.844 396.61 142.667L397.302 141.962C397.197 141.843 397.098 141.717 397.005 141.584C396.537 140.91 396.244 140.07 396.068 139.045L396.451 138.978C396.621 139.968 396.898 140.748 397.323 141.358C397.745 141.965 398.321 142.416 399.108 142.738C400.696 143.388 403.127 143.507 406.829 143.3C407.545 143.193 408.203 142.69 408.742 141.951C409.281 141.211 409.683 140.255 409.889 139.296C410.096 138.334 410.1 137.389 409.866 136.668C409.634 135.955 409.176 135.472 408.443 135.369C406.779 135.133 404.118 134.363 401.886 133.658C400.766 133.304 399.751 132.965 399.014 132.714C398.646 132.589 398.348 132.485 398.142 132.413C398.039 132.377 397.959 132.349 397.904 132.33L397.842 132.308L397.821 132.301C397.821 132.301 397.821 132.301 397.885 132.115C397.95 131.93 397.95 131.93 397.95 131.93L397.951 131.931L397.971 131.938L398.032 131.959C398.086 131.978 398.166 132.006 398.269 132.042C398.474 132.114 398.771 132.217 399.138 132.342C399.873 132.592 400.886 132.93 402.001 133.283C404.238 133.99 406.87 134.749 408.497 134.98C409.41 135.109 409.968 135.725 410.235 136.545C410.498 137.355 410.484 138.376 410.269 139.379C410.053 140.384 409.63 141.393 409.055 142.183C408.481 142.972 407.738 143.565 406.876 143.69L406.868 143.691L406.859 143.692C405.584 143.763 404.449 143.797 403.44 143.782L403.508 143.805L403.309 144.415C404.448 145.801 405.382 146.637 406.403 147.057C407.389 147.463 408.483 147.492 409.969 147.205L409.994 147.172C415.202 140.03 418.181 135.545 420.977 130.292L421.319 130.478C418.529 135.719 415.559 140.197 410.411 147.26L410.416 147.271C411.145 148.92 411.857 149.963 412.778 150.612C413.688 151.254 414.83 151.53 416.461 151.587C418.959 150.181 420.884 148.88 422.752 147.027C424.633 145.161 426.465 142.729 428.765 139.05L429.093 139.26C426.786 142.95 424.936 145.411 423.024 147.308C421.149 149.167 419.221 150.477 416.758 151.869C417.375 153.256 418.069 154.296 418.875 154.991C419.707 155.708 420.666 156.065 421.808 156.045C422.958 156.026 424.302 155.626 425.895 154.81C427.487 153.994 429.315 152.769 431.43 151.111L431.668 151.421C429.543 153.087 427.693 154.329 426.071 155.16C424.45 155.991 423.045 156.417 421.815 156.438C420.578 156.459 419.527 156.069 418.623 155.29C417.747 154.534 417.016 153.419 416.38 151.977C414.751 151.913 413.542 151.629 412.556 150.935C411.577 150.245 410.844 149.168 410.126 147.575C408.561 147.885 407.36 147.875 406.257 147.421C405.143 146.962 404.157 146.062 403.002 144.657C401.732 144.7 400.734 144.642 399.764 144.397C398.803 144.153 397.881 143.728 396.756 143.05ZM402.949 144.266C401.716 144.305 400.769 144.246 399.858 144.016C398.974 143.792 398.114 143.403 397.054 142.772L397.576 142.241C397.959 142.595 398.417 142.879 398.962 143.102C399.999 143.526 401.354 143.73 403.109 143.776L402.949 144.266ZM405.562 148.165C410.377 152.204 413.724 155.437 415.646 161.118L416.013 160.991C414.055 155.201 410.634 151.91 405.81 147.863L405.562 148.165ZM407.539 130.597C406.818 131.925 406.338 133.021 406.16 134.443L406.546 134.492C406.714 133.142 407.168 132.097 407.879 130.786C408.089 130.4 408.321 129.991 408.575 129.543C409.18 128.475 409.907 127.193 410.732 125.513L410.384 125.338C409.564 127.008 408.848 128.271 408.244 129.336C407.989 129.787 407.753 130.202 407.539 130.597Z" fill="black"/>
<path d="M400.458 48.1567C399.29 48.0876 398.404 47.879 397.799 47.5308C397.197 47.1771 396.821 46.659 396.669 45.9766C396.497 45.2044 396.659 44.4976 397.156 43.8563C397.655 43.2095 398.394 42.7749 399.371 42.5526C400.037 42.4009 400.658 42.3962 401.236 42.5383C401.818 42.6795 402.302 42.9466 402.688 43.3399C403.079 43.7321 403.335 44.1999 403.456 44.7431L402.17 45.0357C402.038 44.4431 401.748 44.0209 401.3 43.7691C400.851 43.5128 400.287 43.4619 399.608 43.6166C398.977 43.7601 398.516 44.0137 398.223 44.3774C397.935 44.7356 397.846 45.1639 397.957 45.6623C398.046 46.0618 398.288 46.3629 398.683 46.5654C399.081 46.7625 399.708 46.884 400.562 46.93C401.421 46.975 402.109 47.0852 402.623 47.2604C403.142 47.4302 403.551 47.6743 403.85 47.993C404.154 48.3106 404.362 48.7185 404.473 49.2169C404.65 50.0115 404.485 50.7188 403.979 51.3387C403.473 51.954 402.706 52.3785 401.681 52.612C401.015 52.7636 400.364 52.7771 399.73 52.6526C399.095 52.5236 398.57 52.2705 398.154 51.8933C397.744 51.5151 397.475 51.041 397.348 50.4708L398.633 50.1782C398.765 50.7708 399.085 51.1909 399.593 51.4386C400.104 51.6807 400.721 51.7194 401.445 51.5547C402.12 51.401 402.606 51.1441 402.904 50.7839C403.202 50.4236 403.297 50.0033 403.19 49.523C403.083 49.0426 402.834 48.7101 402.443 48.5255C402.051 48.3364 401.389 48.2135 400.458 48.1567Z" fill="white"/>
<path d="M447.517 48.6007L443.354 47.4806L442.448 50.9228L447.284 52.2239L447.008 53.2712L440.905 51.6293L443.462 41.9166L449.499 43.5408L449.221 44.5948L444.451 43.3114L443.629 46.4333L447.793 47.5534L447.517 48.6007Z" fill="white"/>
<path d="M421.646 44.3942L424.24 39.3481H425.729L422.301 45.6505V49.3987H420.991V45.6505L417.563 39.3481H419.065L421.646 44.3942Z" fill="white"/>
<path d="M436.645 50.7198L435.339 50.5428L431.397 42.1943L430.379 49.8707L429.073 49.6937L430.393 39.7322L431.7 39.9091L435.651 48.2937L436.673 40.5831L437.966 40.7582L436.645 50.7198Z" fill="white"/>
<path d="M413.973 45.3222L409.702 45.8905L410.162 49.422L415.124 48.7618L415.263 49.8363L409.002 50.6694L407.705 40.7047L413.899 39.8806L414.039 40.9619L409.145 41.6131L409.562 44.8161L413.834 44.2477L413.973 45.3222Z" fill="white"/>
<path d="M388.875 203.855C388.52 204.672 388.012 205.23 387.35 205.531C386.692 205.828 385.932 205.844 385.069 205.576C384.133 205.286 383.485 204.715 383.125 203.861C382.768 203.009 382.762 202.014 383.107 200.878L383.34 200.107C383.565 199.363 383.894 198.749 384.327 198.265C384.762 197.783 385.267 197.466 385.84 197.314C386.415 197.159 387.02 197.18 387.654 197.377C388.496 197.637 389.098 198.085 389.461 198.718C389.826 199.349 389.922 200.097 389.751 200.962L388.702 200.637C388.804 199.971 388.747 199.448 388.529 199.067C388.314 198.688 387.935 198.414 387.391 198.246C386.724 198.039 386.124 198.126 385.592 198.507C385.064 198.889 384.66 199.54 384.382 200.46L384.147 201.236C383.883 202.105 383.853 202.851 384.057 203.476C384.26 204.101 384.685 204.513 385.33 204.713C385.911 204.892 386.395 204.898 386.783 204.73C387.176 204.558 387.524 204.159 387.825 203.53L388.875 203.855Z" fill="white"/>
<path d="M443.149 203.179L440.572 203.856L442.428 211.083L441.376 211.359L439.52 204.132L436.949 204.807L436.723 203.927L442.924 202.3L443.149 203.179Z" fill="white"/>
<path d="M408.393 209.227L408.014 212.483L406.929 212.354L407.897 204.036L410.932 204.397C411.832 204.504 412.509 204.82 412.964 205.345C413.422 205.871 413.607 206.517 413.517 207.282C413.423 208.089 413.1 208.682 412.548 209.061C412.001 209.436 411.262 209.568 410.331 209.457L408.393 209.227ZM408.497 208.33L410.447 208.562C411.027 208.631 411.487 208.546 411.828 208.309C412.169 208.068 412.37 207.686 412.431 207.164C412.489 206.669 412.381 206.255 412.106 205.921C411.832 205.587 411.426 205.382 410.889 205.307L408.877 205.068L408.497 208.33Z" fill="white"/>
<path d="M402.179 207.59L400.271 207.204L399.613 210.527L398.536 210.309L400.162 202.096L402.851 202.64C403.766 202.825 404.427 203.178 404.835 203.699C405.246 204.22 405.372 204.883 405.213 205.687C405.112 206.199 404.886 206.617 404.535 206.941C404.189 207.266 403.753 207.473 403.229 207.562L404.447 211.434L404.433 211.502L403.284 211.269L402.179 207.59ZM400.446 206.319L402.092 206.652C402.624 206.759 403.073 206.706 403.441 206.491C403.812 206.276 404.044 205.936 404.136 205.47C404.236 204.962 404.163 204.542 403.915 204.211C403.671 203.88 403.267 203.655 402.702 203.537L401.062 203.205L400.446 206.319Z" fill="white"/>
<path d="M426.224 210.158H424.279V213.547H423.18V205.171H425.923C426.856 205.171 427.573 205.386 428.073 205.815C428.578 206.245 428.83 206.87 428.83 207.691C428.83 208.212 428.69 208.667 428.409 209.054C428.132 209.441 427.745 209.731 427.249 209.923L429.194 213.477V213.547H428.022L426.224 210.158ZM424.279 209.255H425.957C426.499 209.255 426.93 209.113 427.249 208.83C427.571 208.546 427.732 208.166 427.732 207.691C427.732 207.173 427.578 206.776 427.271 206.5C426.968 206.224 426.528 206.084 425.951 206.08H424.279V209.255Z" fill="white"/>
<path d="M397.391 205.475C397.215 206.276 396.928 206.946 396.53 207.485C396.132 208.021 395.655 208.391 395.097 208.595C394.539 208.8 393.934 208.829 393.283 208.683C392.646 208.54 392.116 208.256 391.692 207.831C391.27 207.402 390.986 206.865 390.84 206.219C390.699 205.571 390.709 204.86 390.871 204.087L391.001 203.497C391.174 202.711 391.461 202.047 391.864 201.505C392.267 200.963 392.749 200.588 393.312 200.381C393.879 200.17 394.481 200.136 395.118 200.28C395.766 200.425 396.301 200.712 396.723 201.141C397.15 201.567 397.431 202.111 397.565 202.774C397.7 203.433 397.68 204.161 397.505 204.958L397.391 205.475ZM396.446 204.709C396.659 203.739 396.63 202.953 396.359 202.35C396.088 201.743 395.606 201.362 394.914 201.206C394.24 201.055 393.652 201.196 393.148 201.629C392.65 202.059 392.294 202.733 392.08 203.651L391.948 204.252C391.742 205.192 391.774 205.975 392.044 206.601C392.319 207.225 392.799 207.614 393.484 207.767C394.172 207.922 394.761 207.789 395.25 207.369C395.739 206.944 396.094 206.26 396.313 205.315L396.446 204.709Z" fill="white"/>
<path d="M455.851 201.482C456.11 202.26 456.207 202.984 456.142 203.653C456.076 204.319 455.856 204.886 455.483 205.353C455.11 205.819 454.607 206.16 453.975 206.376C453.356 206.586 452.757 206.62 452.178 206.478C451.597 206.331 451.079 206.02 450.624 205.543C450.172 205.062 449.817 204.448 449.561 203.702L449.37 203.13C449.116 202.366 449.023 201.648 449.09 200.973C449.158 200.299 449.379 199.726 449.755 199.254C450.132 198.777 450.63 198.434 451.249 198.223C451.878 198.009 452.483 197.975 453.064 198.122C453.647 198.263 454.166 198.582 454.619 199.079C455.072 199.573 455.427 200.207 455.684 200.981L455.851 201.482ZM454.651 201.32C454.338 200.379 453.91 199.721 453.37 199.347C452.828 198.969 452.22 198.894 451.548 199.123C450.894 199.346 450.462 199.774 450.253 200.408C450.046 201.036 450.086 201.8 450.373 202.697L450.567 203.281C450.871 204.193 451.298 204.847 451.85 205.242C452.404 205.632 453.014 205.713 453.679 205.487C454.347 205.26 454.783 204.838 454.987 204.223C455.189 203.604 455.142 202.832 454.847 201.909L454.651 201.32Z" fill="white"/>
<path d="M421.402 209.629C421.402 210.45 421.265 211.167 420.992 211.78C420.719 212.39 420.332 212.856 419.831 213.178C419.331 213.5 418.746 213.662 418.079 213.662C417.426 213.662 416.848 213.5 416.344 213.178C415.839 212.852 415.446 212.39 415.166 211.792C414.889 211.19 414.747 210.494 414.739 209.704V209.1C414.739 208.295 414.878 207.583 415.154 206.966C415.431 206.348 415.822 205.877 416.326 205.551C416.835 205.221 417.415 205.056 418.067 205.056C418.731 205.056 419.315 205.219 419.82 205.545C420.328 205.867 420.719 206.337 420.992 206.954C421.265 207.568 421.402 208.283 421.402 209.1V209.629ZM420.315 209.088C420.315 208.095 420.118 207.334 419.723 206.805C419.329 206.272 418.777 206.005 418.067 206.005C417.377 206.005 416.833 206.272 416.435 206.805C416.04 207.334 415.837 208.07 415.826 209.014V209.629C415.826 210.592 416.025 211.349 416.423 211.901C416.825 212.45 417.377 212.724 418.079 212.724C418.784 212.724 419.331 212.465 419.717 211.947C420.104 211.426 420.303 210.68 420.315 209.71V209.088Z" fill="white"/>
<path d="M435.683 210.338L432.258 210.902L431.836 213.186L430.724 213.369L432.515 204.589L433.458 204.433L437.918 212.185L436.811 212.367L435.683 210.338ZM432.439 209.951L435.219 209.494L433.203 205.857L432.439 209.951Z" fill="white"/>
<path d="M465.272 201.145L464.302 201.665L457.628 197.935L460.616 203.639L459.646 204.158L455.769 196.757L456.739 196.237L463.436 199.987L460.434 194.258L461.395 193.744L465.272 201.145Z" fill="white"/>
<path d="M449.041 208.666L447.994 208.979L445.651 200.945L446.699 200.633L449.041 208.666Z" fill="white"/>
</g>
<g opacity="0.5">
<g filter="url(#filter0_b)">
<path d="M589.644 978.517C570.434 979.452 558.84 986.695 537.852 1003.26M589.762 977.36C566.232 974.53 553.183 980.608 529.95 993.677M590.06 975.628C568.331 970.546 553.387 972.893 523.796 982.608" stroke="black" stroke-width="9.18223" stroke-linecap="round"/>
</g>
<g filter="url(#filter1_b)">
<path d="M635.524 986.408C653.317 993.707 661.825 1004.41 676.071 1027.04M635.798 985.277C658.922 990.471 669.19 1000.56 686.722 1020.64M636.096 983.546C658.275 986.015 671.576 993.22 696.221 1012.26" stroke="black" stroke-width="9.18223" stroke-linecap="round"/>
</g>
<path fill-rule="evenodd" clip-rule="evenodd" d="M568.764 921.838C592.232 921.794 605.223 928.109 599.487 944.836C599.535 943.63 599.27 942.966 598.252 941.827C581.84 943.411 576.637 937.913 575.916 924.764C574.793 923.091 572.847 922.571 568.764 921.838ZM579.477 929.86C578.802 928.991 578.591 929.191 578.789 930.213C581.203 938.38 585.329 941.238 593.582 937.995C594.603 937.594 594.306 937.162 593.355 937.327C585.108 939.209 582.348 936.052 579.477 929.86Z" fill="#252324"/>
<ellipse cx="584.702" cy="930.455" rx="1.96594" ry="1.7491" transform="rotate(9.75878 584.702 930.455)" fill="#0594A7"/>
<path fill-rule="evenodd" clip-rule="evenodd" d="M702.733 943.342C704.393 963.893 698.325 975.346 678.091 995.679C682.693 984.987 680.636 980.877 671.288 975.858C664.599 972.64 660.549 971.064 652.619 968.789C634.028 961.64 628.45 955.905 631.78 940.943C632.911 915.483 623.621 901.503 594.64 897.401C583.111 894.024 580.637 890.018 579.423 881.181C577.598 858.905 574.831 848.848 561.271 839.19C556.381 836.297 552.272 836.827 549.531 842.005C541.936 853.33 541.161 865.903 545.765 886.761C541.39 901.029 541.285 908.137 545.149 919.242C539.901 928.532 540.066 935.717 543.325 950.415C537.657 938.227 536.446 931.188 540.826 917.945C537.211 905.615 537.373 898.862 540.597 887.03C537.192 858.973 538.627 847.194 548.602 834.959C552.72 831.421 555.387 831.25 560.358 832.029C573.721 840.251 580.345 849.575 588.142 860.551L588.142 860.551L588.143 860.551C590.586 863.991 593.145 867.594 596.063 871.375C622.367 865.65 637.316 867.832 664.342 881.662C681.032 867.851 690.564 862.407 707.893 856.966C716.346 856.546 718.984 858.129 721.268 863.053C726.801 885.659 723.255 899.891 707.108 927.58C703.975 933.386 703.102 936.858 702.733 943.342ZM706.386 919.565C699.873 925.104 695.567 922.382 694.174 912.897C693.217 909.906 691.051 909.056 684.447 908.94C672.856 914.301 662.734 896.144 674.565 885.115C687.502 872.48 695.07 867.295 709.413 863.13C713.211 862.466 714.735 863.16 716.231 866.539C719.197 885.48 716.913 896.624 706.386 919.565ZM667.164 941.322C668.223 940.323 668.672 940.567 668.182 942.058C660.09 953.82 652.91 957.391 639.766 950.149C638.397 949.175 638.778 948.756 640.252 949.321C652.87 954.985 659.271 952.592 667.164 941.322ZM660.509 944.083C661.037 943.187 660.905 942.928 659.978 943.52C655.204 948.398 651.547 950.451 644.403 945.923C643.561 945.449 643.138 945.757 643.966 946.476C650.661 952.289 655.504 950.975 660.509 944.083ZM671.093 940.352C648.472 934.575 640.694 936.522 637.082 950.89C636.916 951.855 636.455 951.817 636.379 950.769C636.677 934.433 649.295 929.399 671.803 939.601C673.383 940.317 673.03 940.969 671.093 940.352Z" fill="#252324"/>
<ellipse cx="647.091" cy="941.086" rx="1.85838" ry="1.71432" transform="rotate(9.75878 647.091 941.086)" fill="#0594A7"/>
<path d="M611.134 991.137C611.007 990.217 611.066 989.503 611.318 988.011C611.088 987.63 610.913 987.572 610.483 987.867C610.33 989.088 610.172 989.776 609.614 991.013C603.89 995.219 595.857 994.886 588.956 990.233C595.697 996.276 602.077 996.35 610.214 994.432C616.25 999.578 624.85 1000.29 631.129 997.486C623.341 999.729 614.715 997.285 611.134 991.137Z" fill="#252324"/>
<path d="M624.019 979.219C626.702 978.136 625.141 972.695 627.573 958.552C627.147 954.065 625.48 970.722 623.483 977.01C621.249 975.189 619.56 974.817 615.942 975.05C613.75 975.224 612.417 974.985 609.871 974.006C607.068 972.65 605.413 972.573 602.348 973.375C604.032 966.399 606.019 951.637 604.942 954.394C603.618 965.994 598.795 972.764 601.246 975.887C604.976 979.024 608.445 980.939 607.434 983.68C608.448 985.225 609.008 986.064 611.155 987.135C613.084 986.909 614.012 986.309 615.585 984.979C614.971 982.122 620.408 982.171 624.019 979.219Z" fill="#252324"/>
</g>
<g opacity="0.5">
<g filter="url(#filter2_b)">
<path d="M181.98 648.102C172.485 651.187 167.621 656.694 159.263 668.553M181.89 647.455C169.743 649.062 163.999 654.129 154.064 664.377M181.814 646.469C170.277 646.606 163.101 649.889 149.547 659.158" stroke="black" stroke-width="4.61216" stroke-linecap="round"/>
</g>
<g filter="url(#filter3_b)">
<path d="M205.971 646.263C215.826 647.864 221.473 652.567 231.54 663.013M205.962 645.609C218.212 645.347 224.661 649.479 236.042 658.094M205.887 644.624C217.31 643.001 224.903 645.152 239.711 652.247" stroke="black" stroke-width="4.61216" stroke-linecap="round"/>
</g>
<path fill-rule="evenodd" clip-rule="evenodd" d="M164.176 619.954C175.918 616.786 183.241 618.493 182.539 628.394C182.407 627.729 182.188 627.402 181.53 626.917C173.52 629.981 170.202 627.676 168.135 620.593C167.356 619.83 166.315 619.807 164.176 619.954ZM170.579 622.898C170.128 622.515 170.049 622.652 170.28 623.183C172.548 627.319 174.984 628.327 178.695 625.45C179.154 625.095 178.95 624.899 178.495 625.116C174.611 627.249 172.819 625.895 170.579 622.898Z" fill="#252324"/>
<ellipse cx="173.272" cy="622.523" rx="1.01611" ry="0.983763" transform="rotate(-4.38329 173.272 622.523)" fill="#A70505"/>
<path fill-rule="evenodd" clip-rule="evenodd" d="M234.03 613.745C237.527 624.743 235.975 631.809 228.483 645.621C229.4 639.167 227.837 637.199 222.507 635.711C218.741 634.851 216.509 634.533 212.244 634.353C202.01 632.941 198.473 630.557 198.2 621.942C195.464 607.889 189 601.501 173.959 603.144C167.75 602.846 165.992 600.99 164.238 596.327C160.434 584.41 157.745 579.289 149.704 575.833C146.881 574.909 144.892 575.749 144.192 578.943C141.859 586.144 143.102 593.112 148.112 603.884C147.773 612.26 148.642 616.155 152.017 621.7C150.595 627.476 151.609 631.377 155.147 638.965C150.729 633.07 149.21 629.389 149.685 621.571C146.275 615.324 145.481 611.615 145.56 604.723C140.216 589.86 139.406 583.237 142.813 575.22C144.416 572.737 145.728 572.286 148.318 572.046C156.074 574.744 160.599 578.948 165.926 583.896C167.596 585.446 169.344 587.07 171.296 588.744C183.721 582.094 191.487 581.282 206.811 585.212C213.374 575.435 217.44 571.186 225.409 565.894C229.586 564.531 231.112 565.042 232.894 567.425C238.597 579.026 238.668 587.272 234.176 604.553C233.361 608.142 233.374 610.155 234.03 613.745ZM232.775 600.273C230.233 604.171 227.724 603.261 225.796 598.269C224.929 596.764 223.735 596.59 220.414 597.412C215.307 601.892 207.884 593.335 212.376 585.728C217.213 577.096 220.33 573.251 226.969 569.055C228.785 568.184 229.638 568.359 230.825 570.003C234.767 579.947 235.069 586.338 232.775 600.273ZM215.962 617.408C216.363 616.72 216.619 616.793 216.567 617.673C214.042 625.179 210.911 628.091 203.391 625.898C202.58 625.549 202.717 625.27 203.527 625.381C210.579 626.783 213.473 624.619 215.962 617.408ZM212.989 619.807C213.137 619.247 213.037 619.123 212.651 619.571C210.893 622.873 209.329 624.485 205.165 622.969C204.682 622.823 204.51 623.048 205.018 623.33C209.124 625.607 211.378 624.24 212.989 619.807ZM217.804 616.352C205.73 616.228 202.089 618.333 202.144 626.662C202.186 627.211 201.951 627.252 201.777 626.69C199.807 617.731 205.47 613.292 218.061 615.846C218.945 616.026 218.853 616.429 217.804 616.352Z" fill="#252324"/>
<ellipse cx="205.883" cy="619.968" rx="0.960522" ry="0.964204" transform="rotate(-4.38329 205.883 619.968)" fill="#A70505"/>
<path d="M194.375 652.113C194.192 651.628 194.13 651.23 194.062 650.382C193.898 650.204 193.803 650.196 193.625 650.415C193.707 651.102 193.718 651.499 193.598 652.249C191.278 655.312 187.214 656.207 183.156 654.591C187.314 656.987 190.518 656.173 194.342 654.035C198.031 656.037 202.43 655.275 205.209 652.901C201.601 655.169 196.966 654.99 194.375 652.113Z" fill="#252324"/>
<path d="M199.279 643.88C200.482 642.929 198.995 640.167 198.378 632.12C197.583 629.727 198.909 639.045 198.725 642.746C197.37 642.05 196.476 642.073 194.695 642.686C193.62 643.075 192.922 643.123 191.521 642.929C189.942 642.564 189.103 642.744 187.673 643.593C187.611 639.558 186.691 631.232 186.509 632.881C187.351 639.392 185.815 643.735 187.447 645.112C189.721 646.324 191.706 646.905 191.556 648.537C192.264 649.245 192.653 649.628 193.867 649.925C194.803 649.544 195.19 649.092 195.805 648.155C195.127 646.677 197.855 645.975 199.279 643.88Z" fill="#252324"/>
</g>
<path d="M362.504 1051.04C297.76 1040.37 210.247 999.104 90.7183 1019.03C211.67 1080.92 270.723 1096.58 348.275 1194.05L514.761 1194.05C505.512 1150.65 443.723 1089.53 362.504 1051.04Z" fill="#53575A"/>
<path fill-rule="evenodd" clip-rule="evenodd" d="M139.262 827.953C145.693 827.953 150.907 833.166 150.907 839.598L150.907 1071.59C150.907 1078.02 145.693 1083.24 139.262 1083.24C132.83 1083.24 127.616 1078.02 127.616 1071.59L127.616 839.598C127.616 833.166 132.83 827.953 139.262 827.953Z" fill="black"/>
<path d="M0.737305 1000.92C0.737305 1000.92 135.217 1030.85 238.198 1030.85C336.568 1030.85 365.119 1194.04 365.119 1194.04H0.737305V1000.92Z" fill="#53575A"/>
<path d="M354.272 1194.05H309.964C306.64 1175.79 303.466 1164.11 294.578 1139.7C280.71 1115.59 268.646 1103.89 241.339 1085.46C201.455 1062.03 175.437 1051.03 118.779 1037.43C110.279 1032.75 106.54 1029.03 101.791 1020.36L113.575 1022.1L209.507 1031.15C246.092 1028.53 264.871 1034.42 294.578 1061.01C327.749 1103.34 343.524 1141 354.272 1194.05Z" fill="#63686B"/>
<path d="M324.924 838.869C259.596 857.336 227.79 821.702 146.92 838.869L146.92 934.196C227.79 917.932 256.702 949.71 324.924 934.196V838.869Z" fill="#040332" fill-opacity="0.9"/>
<path d="M194.175 876.002C194.922 876.002 195.533 875.946 196.008 875.833C196.506 875.697 196.902 875.527 197.196 875.324C197.49 875.097 197.694 874.837 197.807 874.543C197.92 874.249 197.977 873.92 197.977 873.558C197.977 872.789 197.615 872.155 196.891 871.657C196.166 871.137 194.922 870.582 193.157 869.994C192.387 869.722 191.618 869.417 190.848 869.077C190.079 868.715 189.388 868.274 188.777 867.753C188.166 867.21 187.668 866.565 187.284 865.819C186.899 865.049 186.707 864.121 186.707 863.035C186.707 861.949 186.91 860.975 187.318 860.115C187.725 859.233 188.302 858.486 189.049 857.875C189.796 857.264 190.701 856.8 191.765 856.483C192.828 856.144 194.028 855.974 195.363 855.974C196.947 855.974 198.316 856.144 199.471 856.483C200.625 856.823 201.575 857.196 202.322 857.603L200.795 861.779C200.138 861.439 199.403 861.145 198.588 860.896C197.796 860.625 196.834 860.489 195.703 860.489C194.435 860.489 193.519 860.67 192.953 861.032C192.41 861.372 192.138 861.903 192.138 862.628C192.138 863.058 192.24 863.42 192.444 863.714C192.647 864.008 192.93 864.28 193.292 864.529C193.677 864.755 194.107 864.97 194.582 865.174C195.08 865.355 195.623 865.547 196.212 865.751C197.434 866.203 198.497 866.656 199.403 867.108C200.308 867.538 201.055 868.048 201.643 868.636C202.254 869.224 202.707 869.915 203.001 870.707C203.295 871.499 203.442 872.461 203.442 873.592C203.442 875.787 202.673 877.496 201.134 878.718C199.595 879.918 197.275 880.517 194.175 880.517C193.134 880.517 192.195 880.449 191.357 880.314C190.52 880.201 189.773 880.053 189.117 879.872C188.483 879.691 187.929 879.499 187.454 879.295C187.001 879.092 186.616 878.899 186.299 878.718L187.793 874.509C188.495 874.894 189.355 875.244 190.373 875.561C191.414 875.855 192.681 876.002 194.175 876.002Z" fill="#D9D9D9"/>
<path d="M206.329 871.25C206.329 869.666 206.566 868.285 207.042 867.108C207.54 865.909 208.185 864.913 208.977 864.121C209.769 863.329 210.674 862.729 211.692 862.322C212.733 861.915 213.797 861.711 214.883 861.711C217.418 861.711 219.421 862.492 220.892 864.053C222.363 865.592 223.098 867.867 223.098 870.877C223.098 871.171 223.087 871.499 223.065 871.861C223.042 872.2 223.019 872.506 222.997 872.778H211.523C211.636 873.819 212.122 874.645 212.982 875.256C213.842 875.867 214.997 876.172 216.445 876.172C217.373 876.172 218.278 876.093 219.161 875.935C220.066 875.754 220.801 875.539 221.367 875.29L222.046 879.397C221.775 879.533 221.412 879.669 220.96 879.805C220.507 879.94 219.998 880.053 219.432 880.144C218.889 880.257 218.301 880.348 217.667 880.416C217.033 880.483 216.4 880.517 215.766 880.517C214.159 880.517 212.756 880.28 211.557 879.805C210.38 879.329 209.395 878.684 208.603 877.87C207.834 877.032 207.257 876.048 206.872 874.916C206.51 873.785 206.329 872.563 206.329 871.25ZM218.21 869.315C218.188 868.885 218.108 868.466 217.973 868.059C217.859 867.652 217.667 867.29 217.395 866.973C217.147 866.656 216.818 866.396 216.411 866.192C216.026 865.988 215.54 865.886 214.951 865.886C214.386 865.886 213.899 865.988 213.492 866.192C213.084 866.373 212.745 866.622 212.473 866.939C212.202 867.256 211.987 867.629 211.828 868.059C211.692 868.466 211.591 868.885 211.523 869.315H218.21Z" fill="#D9D9D9"/>
<path d="M242.855 862.186C241.836 865.626 240.773 868.851 239.664 871.861C238.555 874.871 237.344 877.79 236.032 880.619C235.556 881.638 235.081 882.498 234.606 883.199C234.131 883.923 233.61 884.512 233.044 884.964C232.479 885.44 231.834 885.779 231.109 885.983C230.408 886.209 229.582 886.322 228.631 886.322C227.839 886.322 227.104 886.243 226.425 886.085C225.768 885.949 225.225 885.79 224.795 885.609L225.678 881.57C226.198 881.751 226.662 881.875 227.07 881.943C227.477 882.011 227.907 882.045 228.36 882.045C229.265 882.045 229.955 881.796 230.43 881.298C230.928 880.823 231.347 880.155 231.686 879.295C230.532 877.032 229.378 874.498 228.224 871.691C227.07 868.862 225.983 865.694 224.965 862.186H230.329C230.555 863.069 230.815 864.031 231.109 865.072C231.426 866.09 231.754 867.131 232.094 868.195C232.433 869.236 232.773 870.254 233.112 871.25C233.474 872.246 233.814 873.151 234.131 873.966C234.425 873.151 234.73 872.246 235.047 871.25C235.364 870.254 235.67 869.236 235.964 868.195C236.281 867.131 236.575 866.09 236.846 865.072C237.141 864.031 237.401 863.069 237.627 862.186H242.855Z" fill="#D9D9D9"/>
<path d="M245.566 862.797C246.426 862.548 247.535 862.322 248.893 862.118C250.251 861.892 251.677 861.779 253.17 861.779C254.687 861.779 255.943 861.983 256.938 862.39C257.957 862.775 258.76 863.329 259.349 864.053C259.937 864.777 260.356 865.637 260.605 866.633C260.854 867.629 260.978 868.738 260.978 869.96V880.042H255.92V870.571C255.92 868.942 255.705 867.787 255.275 867.108C254.845 866.43 254.042 866.09 252.865 866.09C252.503 866.09 252.118 866.113 251.711 866.158C251.303 866.181 250.941 866.215 250.624 866.26V880.042H245.566V862.797Z" fill="#D9D9D9"/>
<path d="M264.708 871.25C264.708 869.666 264.945 868.285 265.421 867.108C265.918 865.909 266.563 864.913 267.356 864.121C268.148 863.329 269.053 862.729 270.071 862.322C271.112 861.915 272.176 861.711 273.262 861.711C275.797 861.711 277.8 862.492 279.271 864.053C280.742 865.592 281.477 867.867 281.477 870.877C281.477 871.171 281.466 871.499 281.443 871.861C281.421 872.2 281.398 872.506 281.375 872.778H269.902C270.015 873.819 270.501 874.645 271.361 875.256C272.221 875.867 273.375 876.172 274.824 876.172C275.752 876.172 276.657 876.093 277.54 875.935C278.445 875.754 279.18 875.539 279.746 875.29L280.425 879.397C280.153 879.533 279.791 879.669 279.339 879.805C278.886 879.94 278.377 880.053 277.811 880.144C277.268 880.257 276.68 880.348 276.046 880.416C275.412 880.483 274.779 880.517 274.145 880.517C272.538 880.517 271.135 880.28 269.935 879.805C268.759 879.329 267.774 878.684 266.982 877.87C266.213 877.032 265.636 876.048 265.251 874.916C264.889 873.785 264.708 872.563 264.708 871.25ZM276.589 869.315C276.566 868.885 276.487 868.466 276.351 868.059C276.238 867.652 276.046 867.29 275.774 866.973C275.525 866.656 275.197 866.396 274.79 866.192C274.405 865.988 273.919 865.886 273.33 865.886C272.764 865.886 272.278 865.988 271.87 866.192C271.463 866.373 271.124 866.622 270.852 866.939C270.58 867.256 270.365 867.629 270.207 868.059C270.071 868.466 269.969 868.885 269.902 869.315H276.589Z" fill="#D9D9D9"/>
<path d="M514.762 1194.05H466.227L450.585 1155.81L419.002 1113.24L374.604 1075.71C360.496 1062 349.367 1056.39 329.569 1045.6L362.62 1052.68C441.282 1091.06 498.055 1141.15 514.762 1194.05Z" fill="#63686B"/>
<path d="M224.278 902.3C224.278 902.817 224.165 903.313 223.938 903.789C223.712 904.265 223.417 904.728 223.054 905.176C222.691 905.611 222.283 906.033 221.83 906.441C221.376 906.849 220.93 907.236 220.492 907.603C220.265 907.794 220.016 908.011 219.744 908.256C219.487 908.487 219.238 908.725 218.996 908.97C218.754 909.215 218.535 909.446 218.338 909.663C218.157 909.867 218.044 910.037 217.998 910.173H224.755V912.723H214.28C214.25 912.573 214.235 912.383 214.235 912.151C214.235 911.92 214.235 911.757 214.235 911.662C214.235 911.009 214.348 910.411 214.575 909.867C214.816 909.323 215.126 908.82 215.504 908.358C215.882 907.882 216.305 907.44 216.774 907.032C217.258 906.624 217.734 906.216 218.202 905.809C218.565 905.496 218.905 905.203 219.222 904.932C219.54 904.646 219.82 904.374 220.061 904.116C220.303 903.844 220.492 903.579 220.628 903.32C220.764 903.048 220.832 902.776 220.832 902.504C220.832 901.906 220.643 901.485 220.265 901.24C219.888 900.995 219.419 900.873 218.86 900.873C218.452 900.873 218.066 900.934 217.703 901.056C217.356 901.165 217.031 901.301 216.729 901.464C216.441 901.614 216.192 901.77 215.98 901.933C215.769 902.083 215.61 902.205 215.504 902.3L213.826 900.179C214.491 899.622 215.262 899.166 216.139 898.813C217.031 898.446 217.983 898.262 218.996 898.262C219.918 898.262 220.711 898.357 221.376 898.548C222.041 898.738 222.586 899.01 223.009 899.364C223.447 899.703 223.765 900.125 223.961 900.628C224.173 901.118 224.278 901.675 224.278 902.3Z" fill="#D9D9D9"/>
<path d="M238.026 905.625C238.026 908.004 237.52 909.833 236.507 911.111C235.51 912.376 234.127 913.008 232.358 913.008C230.59 913.008 229.199 912.376 228.186 911.111C227.189 909.833 226.69 908.004 226.69 905.625C226.69 904.442 226.818 903.395 227.075 902.484C227.347 901.573 227.733 900.805 228.232 900.179C228.73 899.554 229.327 899.078 230.023 898.752C230.718 898.425 231.496 898.262 232.358 898.262C234.127 898.262 235.51 898.901 236.507 900.179C237.52 901.444 238.026 903.259 238.026 905.625ZM234.58 905.625C234.58 904.918 234.542 904.279 234.467 903.708C234.391 903.123 234.27 902.62 234.104 902.199C233.938 901.777 233.711 901.451 233.424 901.22C233.136 900.988 232.781 900.873 232.358 900.873C231.935 900.873 231.58 900.988 231.292 901.22C231.02 901.451 230.794 901.777 230.612 902.199C230.446 902.62 230.325 903.123 230.25 903.708C230.174 904.279 230.136 904.918 230.136 905.625C230.136 906.332 230.174 906.978 230.25 907.563C230.325 908.147 230.446 908.65 230.612 909.072C230.794 909.493 231.02 909.82 231.292 910.051C231.58 910.282 231.935 910.397 232.358 910.397C232.781 910.397 233.136 910.282 233.424 910.051C233.711 909.82 233.938 909.493 234.104 909.072C234.27 908.65 234.391 908.147 234.467 907.563C234.542 906.978 234.58 906.332 234.58 905.625Z" fill="#D9D9D9"/>
<path d="M250.051 902.3C250.051 902.817 249.937 903.313 249.711 903.789C249.484 904.265 249.189 904.728 248.826 905.176C248.464 905.611 248.056 906.033 247.602 906.441C247.149 906.849 246.703 907.236 246.264 907.603C246.038 907.794 245.788 908.011 245.516 908.256C245.259 908.487 245.01 908.725 244.768 908.97C244.526 909.215 244.307 909.446 244.111 909.663C243.929 909.867 243.816 910.037 243.77 910.173H250.527V912.723H240.052C240.022 912.573 240.007 912.383 240.007 912.151C240.007 911.92 240.007 911.757 240.007 911.662C240.007 911.009 240.12 910.411 240.347 909.867C240.589 909.323 240.899 908.82 241.277 908.358C241.654 907.882 242.078 907.44 242.546 907.032C243.03 906.624 243.506 906.216 243.975 905.809C244.337 905.496 244.677 905.203 244.995 904.932C245.312 904.646 245.592 904.374 245.834 904.116C246.076 903.844 246.264 903.579 246.401 903.32C246.537 903.048 246.605 902.776 246.605 902.504C246.605 901.906 246.416 901.485 246.038 901.24C245.66 900.995 245.191 900.873 244.632 900.873C244.224 900.873 243.839 900.934 243.476 901.056C243.128 901.165 242.803 901.301 242.501 901.464C242.214 901.614 241.964 901.77 241.753 901.933C241.541 902.083 241.382 902.205 241.277 902.3L239.599 900.179C240.264 899.622 241.035 899.166 241.911 898.813C242.803 898.446 243.755 898.262 244.768 898.262C245.69 898.262 246.484 898.357 247.149 898.548C247.814 898.738 248.358 899.01 248.781 899.364C249.219 899.703 249.537 900.125 249.733 900.628C249.945 901.118 250.051 901.675 250.051 902.3Z" fill="#D9D9D9"/>
<path d="M263.799 905.625C263.799 908.004 263.292 909.833 262.279 911.111C261.282 912.376 259.899 913.008 258.13 913.008C256.362 913.008 254.971 912.376 253.959 911.111C252.961 909.833 252.462 908.004 252.462 905.625C252.462 904.442 252.591 903.395 252.848 902.484C253.12 901.573 253.505 900.805 254.004 900.179C254.503 899.554 255.1 899.078 255.795 898.752C256.49 898.425 257.269 898.262 258.13 898.262C259.899 898.262 261.282 898.901 262.279 900.179C263.292 901.444 263.799 903.259 263.799 905.625ZM260.352 905.625C260.352 904.918 260.315 904.279 260.239 903.708C260.163 903.123 260.042 902.62 259.876 902.199C259.71 901.777 259.483 901.451 259.196 901.22C258.909 900.988 258.554 900.873 258.13 900.873C257.707 900.873 257.352 900.988 257.065 901.22C256.793 901.451 256.566 901.777 256.385 902.199C256.218 902.62 256.097 903.123 256.022 903.708C255.946 904.279 255.908 904.918 255.908 905.625C255.908 906.332 255.946 906.978 256.022 907.563C256.097 908.147 256.218 908.65 256.385 909.072C256.566 909.493 256.793 909.82 257.065 910.051C257.352 910.282 257.707 910.397 258.13 910.397C258.554 910.397 258.909 910.282 259.196 910.051C259.483 909.82 259.71 909.493 259.876 909.072C260.042 908.65 260.163 908.147 260.239 907.563C260.315 906.978 260.352 906.332 260.352 905.625Z" fill="#D9D9D9"/>
<g filter="url(#filter4_d)">
<path d="M202.969 264.65C209.098 264.65 213.804 265.738 217.086 267.913C220.368 270.048 222.009 273.568 222.009 278.471C222.009 283.414 220.348 286.993 217.027 289.207C213.705 291.382 208.96 292.47 202.791 292.47H199.884V306.231H190.631V265.718C192.647 265.322 194.783 265.046 197.037 264.887C199.291 264.729 201.268 264.65 202.969 264.65ZM203.562 272.539C202.889 272.539 202.217 272.559 201.545 272.599C200.912 272.638 200.359 272.678 199.884 272.717V284.581H202.791C205.994 284.581 208.406 284.146 210.027 283.276C211.649 282.406 212.459 280.784 212.459 278.412C212.459 277.265 212.242 276.316 211.807 275.565C211.411 274.813 210.818 274.22 210.027 273.785C209.276 273.31 208.347 272.994 207.239 272.836C206.132 272.638 204.906 272.539 203.562 272.539ZM240.846 264.65C247.015 264.65 251.74 265.757 255.022 267.972C258.305 270.147 259.946 273.548 259.946 278.174C259.946 281.061 259.273 283.414 257.929 285.233C256.624 287.013 254.726 288.416 252.234 289.445C253.065 290.473 253.935 291.659 254.844 293.004C255.754 294.309 256.644 295.693 257.514 297.156C258.423 298.579 259.293 300.082 260.124 301.664C260.954 303.206 261.725 304.729 262.437 306.231H252.056C251.305 304.887 250.534 303.523 249.743 302.138C248.992 300.754 248.201 299.41 247.37 298.105C246.58 296.8 245.789 295.574 244.998 294.427C244.207 293.241 243.416 292.173 242.625 291.224H238.058V306.231H228.804V265.718C230.821 265.322 232.897 265.046 235.033 264.887C237.207 264.729 239.145 264.65 240.846 264.65ZM241.379 272.539C240.707 272.539 240.094 272.559 239.541 272.599C239.027 272.638 238.532 272.678 238.058 272.717V283.869H240.668C244.148 283.869 246.639 283.434 248.142 282.564C249.644 281.694 250.396 280.211 250.396 278.115C250.396 276.098 249.624 274.675 248.082 273.844C246.58 272.974 244.345 272.539 241.379 272.539ZM275.096 285.648C275.096 287.665 275.333 289.484 275.808 291.106C276.322 292.727 277.034 294.131 277.943 295.317C278.892 296.464 280.039 297.354 281.384 297.986C282.728 298.619 284.27 298.935 286.01 298.935C287.711 298.935 289.233 298.619 290.578 297.986C291.962 297.354 293.109 296.464 294.018 295.317C294.967 294.131 295.679 292.727 296.153 291.106C296.668 289.484 296.925 287.665 296.925 285.648C296.925 283.632 296.668 281.813 296.153 280.191C295.679 278.53 294.967 277.127 294.018 275.98C293.109 274.793 291.962 273.884 290.578 273.251C289.233 272.618 287.711 272.302 286.01 272.302C284.27 272.302 282.728 272.638 281.384 273.31C280.039 273.943 278.892 274.853 277.943 276.039C277.034 277.186 276.322 278.59 275.808 280.251C275.333 281.872 275.096 283.671 275.096 285.648ZM306.475 285.648C306.475 289.168 305.941 292.272 304.873 294.961C303.845 297.611 302.421 299.845 300.602 301.664C298.783 303.443 296.608 304.788 294.077 305.697C291.586 306.607 288.897 307.062 286.01 307.062C283.203 307.062 280.553 306.607 278.062 305.697C275.571 304.788 273.396 303.443 271.537 301.664C269.678 299.845 268.215 297.611 267.148 294.961C266.08 292.272 265.546 289.168 265.546 285.648C265.546 282.129 266.1 279.044 267.207 276.395C268.314 273.706 269.797 271.452 271.656 269.633C273.554 267.814 275.729 266.449 278.18 265.54C280.672 264.63 283.282 264.176 286.01 264.176C288.818 264.176 291.467 264.63 293.959 265.54C296.45 266.449 298.625 267.814 300.484 269.633C302.342 271.452 303.805 273.706 304.873 276.395C305.941 279.044 306.475 282.129 306.475 285.648ZM335.537 306.231C334.39 303.938 333.125 301.624 331.741 299.291C330.396 296.919 328.834 294.506 327.055 292.055C326.501 292.766 325.789 293.755 324.919 295.02C324.089 296.286 323.239 297.63 322.369 299.054C321.538 300.478 320.747 301.842 319.996 303.147C319.245 304.452 318.691 305.48 318.335 306.231H307.777C309.517 303.028 311.534 299.667 313.827 296.147C316.16 292.628 318.75 288.891 321.598 284.937L308.37 265.125H319.581L327.589 277.937L335.418 265.125H345.977L332.927 285.055C336.249 289.366 339.037 293.36 341.291 297.037C343.545 300.675 345.324 303.74 346.629 306.231H335.537ZM351.956 265.125H361.21V306.231H351.956V265.125ZM381.639 265.125C382.351 266.43 383.161 268.051 384.071 269.989C385.02 271.887 385.989 273.963 386.977 276.217C388.005 278.431 389.014 280.705 390.002 283.038C390.991 285.372 391.92 287.566 392.79 289.623C393.66 287.566 394.59 285.372 395.578 283.038C396.567 280.705 397.555 278.431 398.544 276.217C399.572 273.963 400.541 271.887 401.451 269.989C402.4 268.051 403.23 266.43 403.942 265.125H412.365C412.76 267.853 413.116 270.918 413.433 274.319C413.789 277.68 414.085 281.2 414.322 284.877C414.599 288.515 414.836 292.173 415.034 295.851C415.271 299.529 415.469 302.989 415.627 306.231H406.611C406.493 302.237 406.334 297.887 406.137 293.182C405.939 288.476 405.642 283.73 405.247 278.946C404.535 280.606 403.744 282.445 402.874 284.462C402.004 286.479 401.134 288.496 400.264 290.512C399.434 292.529 398.623 294.467 397.832 296.325C397.041 298.144 396.369 299.706 395.816 301.011H389.35C388.796 299.706 388.124 298.144 387.333 296.325C386.542 294.467 385.712 292.529 384.842 290.512C384.011 288.496 383.161 286.479 382.291 284.462C381.421 282.445 380.63 280.606 379.919 278.946C379.523 283.73 379.227 288.476 379.029 293.182C378.831 297.887 378.673 302.237 378.554 306.231H369.538C369.696 302.989 369.874 299.529 370.072 295.851C370.309 292.173 370.547 288.515 370.784 284.877C371.061 281.2 371.357 277.68 371.674 274.319C372.029 270.918 372.405 267.853 372.801 265.125H381.639ZM451.482 306.231C451.047 304.808 450.553 303.345 449.999 301.842C449.485 300.339 448.971 298.836 448.457 297.334H432.441C431.927 298.836 431.393 300.339 430.84 301.842C430.326 303.345 429.851 304.808 429.416 306.231H419.807C421.349 301.802 422.812 297.709 424.196 293.953C425.58 290.196 426.925 286.657 428.23 283.335C429.574 280.013 430.879 276.869 432.145 273.904C433.45 270.898 434.794 267.972 436.178 265.125H445.017C446.361 267.972 447.686 270.898 448.991 273.904C450.296 276.869 451.601 280.013 452.906 283.335C454.25 286.657 455.614 290.196 456.999 293.953C458.383 297.709 459.846 301.802 461.388 306.231H451.482ZM440.39 274.437C440.192 275.031 439.896 275.841 439.5 276.869C439.105 277.898 438.65 279.084 438.136 280.428C437.622 281.773 437.048 283.256 436.416 284.877C435.822 286.499 435.209 288.199 434.577 289.979H446.262C445.629 288.199 445.017 286.499 444.423 284.877C443.83 283.256 443.257 281.773 442.703 280.428C442.189 279.084 441.734 277.898 441.339 276.869C440.943 275.841 440.627 275.031 440.39 274.437ZM477.623 265.125C478.335 266.43 479.146 268.051 480.055 269.989C481.004 271.887 481.973 273.963 482.962 276.217C483.99 278.431 484.998 280.705 485.987 283.038C486.976 285.372 487.905 287.566 488.775 289.623C489.645 287.566 490.574 285.372 491.563 283.038C492.551 280.705 493.54 278.431 494.529 276.217C495.557 273.963 496.526 271.887 497.435 269.989C498.384 268.051 499.215 266.43 499.926 265.125H508.349C508.745 267.853 509.101 270.918 509.417 274.319C509.773 277.68 510.07 281.2 510.307 284.877C510.584 288.515 510.821 292.173 511.019 295.851C511.256 299.529 511.454 302.989 511.612 306.231H502.596C502.477 302.237 502.319 297.887 502.121 293.182C501.923 288.476 501.627 283.73 501.231 278.946C500.52 280.606 499.729 282.445 498.859 284.462C497.989 286.479 497.119 288.496 496.249 290.512C495.418 292.529 494.608 294.467 493.817 296.325C493.026 298.144 492.354 299.706 491.8 301.011H485.334C484.781 299.706 484.109 298.144 483.318 296.325C482.527 294.467 481.696 292.529 480.826 290.512C479.996 288.496 479.146 286.479 478.276 284.462C477.406 282.445 476.615 280.606 475.903 278.946C475.508 283.73 475.211 288.476 475.013 293.182C474.816 297.887 474.657 302.237 474.539 306.231H465.523C465.681 302.989 465.859 299.529 466.056 295.851C466.294 292.173 466.531 288.515 466.768 284.877C467.045 281.2 467.342 277.68 467.658 274.319C468.014 270.918 468.39 267.853 468.785 265.125H477.623ZM519.943 306.231V265.125H547.704V272.895H529.197V280.962H545.628V288.555H529.197V298.461H549.068V306.231H519.943ZM583.498 306.231C580.849 301.526 577.982 296.879 574.897 292.292C571.813 287.705 568.531 283.375 565.051 279.301V306.231H555.916V265.125H563.449C564.754 266.43 566.198 268.031 567.779 269.929C569.361 271.828 570.963 273.864 572.584 276.039C574.245 278.174 575.886 280.409 577.507 282.742C579.129 285.035 580.651 287.25 582.075 289.385V265.125H591.269V306.231H583.498ZM631.24 265.125V273.014H618.843V306.231H609.589V273.014H597.192V265.125H631.24ZM637.187 306.231V265.125H664.947V272.895H646.44V280.962H662.871V288.555H646.44V298.461H666.312V306.231H637.187Z" fill="#F5F5F5"/>
</g>
</g>
<defs>
<filter id="filter0_b" x="503.202" y="947.008" width="104.518" height="81.7426" filterUnits="userSpaceOnUse" color-interpolation-filters="sRGB">
<feFlood flood-opacity="0" result="BackgroundImageFix"/>
<feGaussianBlur in="BackgroundImage" stdDeviation="6.12149"/>
<feComposite in2="SourceAlpha" operator="in" result="effect1_backgroundBlur"/>
<feBlend mode="normal" in="SourceGraphic" in2="effect1_backgroundBlur" result="shape"/>
</filter>
<filter id="filter1_b" x="612.355" y="965.781" width="104.518" height="81.7426" filterUnits="userSpaceOnUse" color-interpolation-filters="sRGB">
<feFlood flood-opacity="0" result="BackgroundImageFix"/>
<feGaussianBlur in="BackgroundImage" stdDeviation="6.12149"/>
<feComposite in2="SourceAlpha" operator="in" result="effect1_backgroundBlur"/>
<feBlend mode="normal" in="SourceGraphic" in2="effect1_backgroundBlur" result="shape"/>
</filter>
<filter id="filter2_b" x="140.134" y="637.724" width="51.8974" height="40.1403" filterUnits="userSpaceOnUse" color-interpolation-filters="sRGB">
<feFlood flood-opacity="0" result="BackgroundImageFix"/>
<feGaussianBlur in="BackgroundImage" stdDeviation="3.07477"/>
<feComposite in2="SourceAlpha" operator="in" result="effect1_backgroundBlur"/>
<feBlend mode="normal" in="SourceGraphic" in2="effect1_backgroundBlur" result="shape"/>
</filter>
<filter id="filter3_b" x="197.211" y="633.348" width="51.8974" height="40.1403" filterUnits="userSpaceOnUse" color-interpolation-filters="sRGB">
<feFlood flood-opacity="0" result="BackgroundImageFix"/>
<feGaussianBlur in="BackgroundImage" stdDeviation="3.07477"/>
<feComposite in2="SourceAlpha" operator="in" result="effect1_backgroundBlur"/>
<feBlend mode="normal" in="SourceGraphic" in2="effect1_backgroundBlur" result="shape"/>
</filter>
<filter id="filter4_d" x="190.631" y="264.176" width="484.077" height="52.3314" filterUnits="userSpaceOnUse" color-interpolation-filters="sRGB">
<feFlood flood-opacity="0" result="BackgroundImageFix"/>
<feColorMatrix in="SourceAlpha" type="matrix" values="0 0 0 0 0 0 0 0 0 0 0 0 0 0 0 0 0 0 127 0"/>
<feOffset dx="4.19791" dy="5.24738"/>
<feGaussianBlur stdDeviation="2.09895"/>
<feColorMatrix type="matrix" values="0 0 0 0 1 0 0 0 0 1 0 0 0 0 1 0 0 0 0.4 0"/>
<feBlend mode="normal" in2="BackgroundImageFix" result="effect1_dropShadow"/>
<feBlend mode="normal" in="SourceGraphic" in2="effect1_dropShadow" result="shape"/>
</filter>
<clipPath id="clip0">
<rect width="834" height="1194" fill="white" transform="translate(0.737305 0.0499878)"/>
</clipPath>
</defs>
</svg>
