<svg width="1025" height="1367" viewBox="0 0 1025 1367" fill="none" xmlns="http://www.w3.org/2000/svg">
<g clip-path="url(#clip0)">
<rect width="1024" height="1366" transform="translate(0.737305 0.0499878)" fill="#3C576A"/>
<path opacity="0.86" d="M174.003 293.805L189.225 298.893L186.857 283.019L195.248 296.701L203.638 283.019L201.271 298.893L216.492 293.805L204.475 304.444L219.406 310.331L203.362 310.756L211.016 324.863L198.452 314.876L195.248 330.602L192.043 314.876L179.479 324.863L187.133 310.756L171.089 310.331L186.02 304.444L174.003 293.805Z" fill="#063885"/>
<path opacity="0.73" d="M361.542 166.095L375.697 157.071L361.236 148.546L377.88 150.732L372.281 134.906L383.627 147.279L389.511 131.557L390.248 148.328L404.862 140.066L394.647 153.387L411.152 156.452L394.764 160.091L405.438 173.048L390.545 165.301L390.393 182.087L383.964 166.58L373.057 179.342L378.1 163.33L361.542 166.095Z" fill="#063885"/>
<path opacity="0.94" d="M627.071 177.716L643.535 188.606L645.775 168.994L651.388 187.919L665.71 174.336L657.845 192.44L677.548 191.241L659.885 200.054L675.749 211.801L656.554 207.199L661.156 226.394L649.409 210.53L640.596 228.193L641.795 208.49L623.691 216.355L637.274 202.033L618.349 196.421L637.961 194.18L627.071 177.716Z" fill="#063885"/>
<path opacity="0.95" d="M806.407 321.278L785.716 328.612L801.635 343.729L781.07 336.047L783.548 357.86L772.732 338.756L760.61 357.059L764.604 335.472L743.553 341.7L760.488 327.731L740.358 318.971L762.31 319.156L752.521 299.506L769.219 313.758L774.351 292.414L777.981 314.064L795.632 301.012L784.496 319.931L806.407 321.278Z" fill="#063885"/>
<path opacity="0.7" d="M12.9005 337.524L28.9412 327.687L12.9005 317.85L31.5113 320.626L25.5464 302.779L38.0192 316.868L44.9211 299.363L45.4196 318.173L61.9588 309.2L50.2499 323.93L68.6876 327.687L50.2499 331.444L61.9588 346.174L45.4196 337.201L44.9211 356.011L38.0192 338.506L25.5464 352.595L31.5113 334.748L12.9005 337.524Z" fill="#063885"/>
<path opacity="0.72" d="M426.322 370.695L430.614 356.19L415.739 358.942L428.351 350.588L415.187 343.135L430.218 344.843L424.925 330.672L435.341 341.642L440.395 327.384L441.323 342.482L454.36 334.809L445.366 346.972L460.284 349.473L445.576 353.009L455.397 364.515L441.857 357.77L441.984 372.896L435.948 359.026L426.322 370.695Z" fill="#063885"/>
<path opacity="0.81" d="M651.871 542.104L632.444 550.158L648.431 563.821L628.372 557.504L631.836 578.247L620.531 560.513L609.852 578.63L612.59 557.779L592.764 564.793L608.264 550.58L588.568 543.209L609.578 542.285L599.228 523.978L615.917 536.775L619.756 516.098L624.314 536.628L640.546 523.256L630.841 541.914L651.871 542.104Z" fill="#063885"/>
<path opacity="0.84" d="M842.567 491.55L838.625 472.209L823.173 484.491L832.586 467.142L812.854 466.619L831.218 459.378L816.438 446.294L835.159 452.551L832.248 433.028L842.567 449.855L852.886 433.028L849.974 452.551L868.695 446.294L853.916 459.378L872.279 466.619L852.547 467.142L861.96 484.491L846.508 472.209L842.567 491.55Z" fill="#063885"/>
<path opacity="0.76" d="M80.195 814.986L68.6839 797.607L58.4131 815.747L60.7663 795.034L41.2383 802.328L56.3547 787.974L36.7068 781.009L57.5133 779.73L46.939 761.765L63.7 774.159L67.1471 753.601L72.02 773.869L87.8756 760.336L78.5802 778.994L99.4253 778.819L80.311 787.137L96.392 800.402L76.4027 794.488L80.195 814.986Z" fill="#063885"/>
<path opacity="0.78" d="M324.359 754.704L336.654 771.308L345.879 752.821L344.624 773.444L363.575 765.211L349.357 780.203L369.166 786.078L348.638 788.423L360.036 805.656L342.803 794.258L340.458 814.785L334.583 794.977L319.592 809.194L327.824 790.244L307.201 791.499L325.689 782.274L309.084 769.979L329.176 774.796L324.359 754.704Z" fill="#063885"/>
<path opacity="0.87" d="M728.072 1002.38L715.251 1015.9L733.114 1021.2L714.602 1023.31L724.881 1038.85L709.341 1028.57L707.226 1047.08L701.928 1029.22L688.409 1042.04L695.833 1024.95L677.235 1026.08L693.907 1017.77L678.933 1006.68L697.052 1011.02L692.708 992.903L703.796 1007.88L712.114 991.205L710.983 1009.8L728.072 1002.38Z" fill="#063885"/>
<path opacity="0.95" d="M902.926 858.836L910.687 866.728L914.202 856.233L915.074 867.267L924.513 861.486L918.089 870.5L929.035 872.139L918.32 874.914L925.652 883.206L915.66 878.444L915.946 889.509L911.353 879.438L904.46 888.099L907.414 877.432L896.567 879.635L905.687 873.363L895.961 868.078L906.979 869.135L902.926 858.836Z" fill="#063885"/>
<path opacity="0.72" d="M218.605 1373.47L204.224 1361.63L200.186 1379.81L196.785 1361.5L181.999 1372.83L191.169 1356.61L172.555 1355.8L190.005 1349.26L176.272 1336.67L193.837 1342.89L191.411 1324.41L200.873 1340.46L210.889 1324.75L207.819 1343.13L225.591 1337.53L211.427 1349.64L228.638 1356.77L210.007 1356.94L218.605 1373.47Z" fill="#063885"/>
<path opacity="0.82" d="M466.054 1042.04L463.66 1058.09L479.056 1052.95L466.901 1063.71L482.004 1069.66L465.775 1070.09L473.517 1084.36L460.809 1074.26L457.567 1090.17L454.326 1074.26L441.618 1084.36L449.359 1070.09L433.131 1069.66L448.234 1063.71L436.079 1052.95L451.475 1058.09L449.081 1042.04L457.567 1055.88L466.054 1042.04Z" fill="#063885"/>
<path opacity="0.76" d="M658.607 1287.6L663.771 1273.77L649.108 1275.44L661.95 1268.17L649.646 1260.02L664.158 1262.7L659.971 1248.55L669.362 1259.93L675.251 1246.4L675.127 1261.16L688.337 1254.58L678.756 1265.8L693.105 1269.25L678.55 1271.69L687.325 1283.56L674.606 1276.07L673.701 1290.8L668.77 1276.89L658.607 1287.6Z" fill="#063885"/>
<path opacity="0.8" d="M794.622 1287.9L780.621 1279.33L779.327 1295.7L774.113 1280.13L762.601 1291.84L768.614 1276.56L752.27 1278.13L766.697 1270.29L753.169 1260.98L769.259 1264.25L764.876 1248.43L775.101 1261.27L781.914 1246.34L781.49 1262.75L796.311 1255.69L785.436 1267.99L801.33 1272.1L785.092 1274.53L794.622 1287.9Z" fill="#063885"/>
<g opacity="0.78">
<path d="M950.41 270.209C950.41 326.204 905.018 371.597 849.023 371.597C793.028 371.597 747.635 326.204 747.635 270.209C747.635 214.214 793.028 168.822 849.023 168.822C905.018 168.822 950.41 214.214 950.41 270.209Z" fill="#4E4949"/>
<path fill-rule="evenodd" clip-rule="evenodd" d="M849.023 367.328C902.73 367.328 946.188 323.802 946.188 270.209C946.188 216.616 902.73 173.091 849.023 173.091C795.316 173.091 751.858 216.616 751.858 270.209C751.858 323.802 795.316 367.328 849.023 367.328ZM849.023 371.597C905.018 371.597 950.41 326.204 950.41 270.209C950.41 214.214 905.018 168.822 849.023 168.822C793.028 168.822 747.635 214.214 747.635 270.209C747.635 326.204 793.028 371.597 849.023 371.597Z" fill="black"/>
<path d="M930.133 270.209C930.133 315.005 893.819 351.319 849.023 351.319C804.227 351.319 767.913 315.005 767.913 270.209C767.913 225.413 804.227 189.099 849.023 189.099C893.819 189.099 930.133 225.413 930.133 270.209Z" fill="#525252"/>
<path fill-rule="evenodd" clip-rule="evenodd" d="M849.023 348.758C892.446 348.758 927.6 313.564 927.6 270.209C927.6 226.855 892.446 191.661 849.023 191.661C805.6 191.661 770.446 226.855 770.446 270.209C770.446 313.564 805.6 348.758 849.023 348.758ZM849.023 351.319C893.819 351.319 930.133 315.005 930.133 270.209C930.133 225.413 893.819 189.099 849.023 189.099C804.227 189.099 767.913 225.413 767.913 270.209C767.913 315.005 804.227 351.319 849.023 351.319Z" fill="black"/>
<path d="M886.086 235.349C892.145 224.807 894.106 219.995 900.917 210.833C892.519 204.048 888.333 200.421 876.724 196.643C871.015 206.055 865.824 210.626 859.358 219.943C850.899 221.047 846.503 223.522 839.61 232.997C837.039 238.13 836.979 240.655 839.591 244.439C831.439 249.839 831.262 255.27 839.704 260.5C841.828 266.378 844.143 268.16 850.003 268.986C855.595 273.361 857.878 273.622 862.528 271.281C869.713 276.43 872.959 273.872 877.838 262.979C882.664 249.827 885.989 241.526 884.663 237.586C885.624 236.744 885.848 236.247 886.086 235.349Z" fill="#0116D1"/>
<path fill-rule="evenodd" clip-rule="evenodd" d="M876.631 196.388L876.789 196.439C887.959 200.075 892.29 203.579 900.035 209.846C900.367 210.115 900.704 210.388 901.049 210.666L901.209 210.796L901.086 210.961C896.18 217.56 893.8 221.891 890.576 227.755C889.335 230.014 887.968 232.5 886.283 235.432C886.165 235.874 886.044 236.239 885.827 236.6C885.621 236.94 885.337 237.267 884.907 237.654C885.213 238.661 885.238 239.91 885.045 241.395C884.842 242.949 884.396 244.78 883.76 246.89C882.709 250.381 881.13 254.661 879.251 259.756C878.859 260.819 878.453 261.918 878.037 263.053L878.034 263.06L878.031 263.067C876.81 265.794 875.687 268.008 874.575 269.713C873.464 271.417 872.355 272.628 871.154 273.33C868.743 274.741 866.065 274.053 862.509 271.529C860.228 272.666 858.471 273.188 856.584 272.862C854.687 272.535 852.693 271.356 849.919 269.189C847.005 268.774 844.932 268.115 843.321 266.804C841.712 265.495 840.591 263.557 839.531 260.644C835.34 258.033 833.206 255.325 833.214 252.533C833.223 249.772 835.326 247.049 839.296 244.381C838.058 242.548 837.437 240.973 837.446 239.223C837.456 237.425 838.133 235.474 839.422 232.901L839.43 232.885L839.44 232.871C842.893 228.125 845.733 225.113 848.784 223.151C851.816 221.201 855.039 220.299 859.239 219.744C862.008 215.761 864.544 212.643 866.983 209.645C867.379 209.159 867.771 208.676 868.162 208.193C870.98 204.712 873.698 201.225 876.545 196.531L876.631 196.388ZM876.818 196.897C873.987 201.544 871.282 205.013 868.489 208.464C868.097 208.948 867.704 209.431 867.308 209.917C864.854 212.935 862.311 216.061 859.532 220.066L859.478 220.143L859.386 220.155C855.172 220.705 851.992 221.593 849.01 223.511C846.028 225.429 843.227 228.388 839.791 233.109C838.514 235.661 837.878 237.534 837.869 239.225C837.859 240.91 838.472 242.444 839.765 244.317L839.889 244.497L839.708 244.618C835.642 247.311 833.644 249.963 833.637 252.534C833.629 255.101 835.606 257.711 839.814 260.319L839.877 260.357L839.902 260.427C840.96 263.353 842.053 265.224 843.585 266.471C845.117 267.718 847.115 268.363 850.033 268.774L850.088 268.782L850.133 268.817C852.927 271.003 854.859 272.132 856.655 272.442C858.438 272.749 860.121 272.255 862.434 271.09L862.547 271.033L862.65 271.107C866.229 273.671 868.738 274.251 870.943 272.961C872.062 272.306 873.128 271.157 874.222 269.478C875.315 267.802 876.426 265.614 877.644 262.897C878.06 261.763 878.465 260.664 878.857 259.602C880.736 254.507 882.309 250.243 883.356 246.766C883.989 244.665 884.427 242.86 884.626 241.339C884.825 239.815 884.78 238.595 884.464 237.655L884.418 237.519L884.525 237.425C884.997 237.011 885.276 236.693 885.466 236.378C885.656 236.062 885.765 235.737 885.882 235.294L885.89 235.267L885.904 235.242C887.586 232.315 888.954 229.827 890.198 227.565C893.4 221.74 895.784 217.402 900.626 210.871C900.336 210.637 900.052 210.407 899.772 210.181C892.074 203.951 887.796 200.49 876.818 196.897Z" fill="black"/>
<path fill-rule="evenodd" clip-rule="evenodd" d="M873.528 224.193L881.888 212.625L882.229 212.877L873.869 224.445L873.528 224.193ZM874.914 224.613L879.319 218.707L879.656 218.964L875.251 224.87L874.914 224.613ZM869.245 223.943C866.74 222.688 865.194 222.059 862.216 221.038L862.351 220.634C865.344 221.66 866.908 222.295 869.433 223.561L869.245 223.943ZM881.587 234.165C879.445 231.676 878.086 230.37 875.493 228.124L875.768 227.799C878.373 230.056 879.747 231.377 881.906 233.885L881.587 234.165ZM861.169 239.688C858.176 240.361 855.346 240.206 851.885 239.255L851.996 238.843C855.405 239.78 858.164 239.926 861.077 239.271C863.998 238.614 867.088 237.149 871.155 234.836L871.362 235.208C867.289 237.525 864.154 239.017 861.169 239.688ZM848.923 237.186C848.966 236.909 848.967 236.666 848.922 236.426C848.87 236.146 848.759 235.882 848.602 235.584L848.229 235.784C848.378 236.067 848.467 236.286 848.507 236.504C848.547 236.718 848.542 236.944 848.485 237.243L848.176 238.277C848.008 238.236 847.838 238.205 847.664 238.185C846.785 238.079 845.839 238.231 844.779 238.59L844.913 238.995C845.938 238.647 846.818 238.513 847.615 238.608C848.407 238.703 849.132 239.027 849.843 239.622C851.278 240.822 852.646 243.111 854.363 246.799C854.631 247.546 854.496 248.443 854.074 249.346C853.652 250.249 852.956 251.132 852.155 251.827C851.352 252.523 850.461 253.016 849.656 253.161C848.862 253.305 848.17 253.112 847.693 252.457C846.611 250.969 844.508 248.793 842.687 246.999C841.774 246.099 840.928 245.292 840.311 244.709C840.002 244.418 839.751 244.183 839.576 244.021C839.489 243.94 839.421 243.877 839.374 243.834L839.322 243.785L839.304 243.769C839.304 243.769 839.304 243.769 839.162 243.927C839.02 244.085 839.02 244.085 839.02 244.085L839.021 244.086L839.037 244.101L839.09 244.149C839.135 244.192 839.203 244.254 839.29 244.335C839.464 244.497 839.715 244.731 840.023 245.021C840.639 245.602 841.482 246.408 842.392 247.304C844.216 249.102 846.294 251.255 847.353 252.71C847.946 253.526 848.818 253.747 849.731 253.582C850.634 253.418 851.592 252.877 852.43 252.151C853.269 251.423 854.005 250.493 854.456 249.528C854.905 248.566 855.082 247.541 854.756 246.643L854.753 246.634L854.749 246.626C854.157 245.355 853.603 244.24 853.068 243.272L853.125 243.326L853.6 242.818C855.499 243.205 856.772 243.676 857.697 244.446C858.591 245.19 859.183 246.233 859.679 247.818L859.66 247.859C855.594 256.585 852.889 261.783 849.364 267.201L849.717 267.435C853.234 262.029 855.936 256.844 859.96 248.218L859.973 248.217C861.909 248.07 863.263 248.219 864.354 248.775C865.431 249.324 866.281 250.285 867.178 251.833C867.138 254.975 866.901 257.508 866.114 260.272C865.32 263.056 863.965 266.083 861.672 270.208L862.041 270.417C864.34 266.28 865.713 263.219 866.519 260.39C867.31 257.617 867.553 255.076 867.598 251.975C869.229 251.855 870.571 251.989 871.645 252.409C872.753 252.843 873.586 253.587 874.158 254.702C874.733 255.823 875.05 257.33 875.1 259.292C875.151 261.253 874.936 263.654 874.46 266.555L874.876 266.625C875.355 263.71 875.574 261.279 875.522 259.281C875.471 257.284 875.149 255.705 874.533 254.505C873.914 253.298 873.002 252.483 871.797 252.011C870.63 251.554 869.197 251.424 867.505 251.553C866.603 250.01 865.71 248.988 864.544 248.394C863.386 247.803 861.988 247.651 860.11 247.779C859.595 246.105 858.965 244.949 857.966 244.117C856.956 243.276 855.595 242.788 853.669 242.397C853.054 241.146 852.484 240.211 851.751 239.4C851.024 238.596 850.145 237.924 848.923 237.186ZM853.272 242.548C852.673 241.334 852.127 240.449 851.439 239.688C850.77 238.948 849.959 238.317 848.814 237.618L848.581 238.397C849.114 238.585 849.62 238.881 850.112 239.293C851.049 240.076 851.942 241.281 852.891 242.955L853.272 242.548ZM858.311 243.061C864.619 245.63 869.406 247.198 875.774 246.122L875.843 246.543C869.354 247.639 864.474 246.031 858.153 243.457L858.311 243.061ZM842.712 254.047C843.596 252.664 844.384 251.633 845.638 250.727L845.883 251.075C844.693 251.935 843.939 252.913 843.066 254.278C842.809 254.68 842.542 255.117 842.25 255.593C841.552 256.73 840.714 258.095 839.551 259.761L839.206 259.515C840.362 257.86 841.187 256.514 841.883 255.38C842.177 254.9 842.448 254.458 842.712 254.047Z" fill="black"/>
<path d="M838.188 322.492C831.892 332.891 829.817 334.627 824.276 344.896C819.714 343.264 811.582 340.626 798.866 331.388C804.345 321.837 807.043 316.214 812.08 306.035C809.021 297.984 809.086 292.898 814.057 282.263C817.302 277.537 819.472 276.284 824.006 276.81C824.832 266.992 829.475 264.254 838.037 269.278C844.162 268.376 846.812 269.588 850.316 274.409C856.781 277.305 858.092 279.211 858.265 284.461C866.16 288.407 865.476 292.509 858.314 302.026C849.162 312.569 843.517 319.47 839.459 320.163C839.182 321.418 838.857 321.854 838.188 322.492Z" fill="#950000"/>
<path fill-rule="evenodd" clip-rule="evenodd" d="M798.587 331.448L798.743 331.561C810.849 340.356 818.814 343.183 823.498 344.845C823.743 344.932 823.979 345.016 824.206 345.097L824.376 345.158L824.462 344.998C827.228 339.87 829.129 336.875 831.124 333.861C831.476 333.33 831.832 332.797 832.195 332.252C833.89 329.712 835.766 326.901 838.353 322.627C838.682 322.312 838.942 322.031 839.152 321.667C839.351 321.322 839.5 320.914 839.633 320.348C840.655 320.141 841.754 319.57 842.954 318.692C844.21 317.773 845.592 316.507 847.126 314.938C849.665 312.344 852.639 308.906 856.18 304.813C856.919 303.959 857.683 303.077 858.473 302.167L858.478 302.161L858.482 302.156C860.275 299.773 861.668 297.722 862.624 295.922C863.579 294.125 864.106 292.562 864.147 291.161C864.229 288.345 862.357 286.289 858.471 284.326C858.377 281.756 857.996 279.945 856.816 278.421C855.63 276.889 853.657 275.676 850.453 274.237C848.707 271.842 847.148 270.311 845.241 269.5C843.338 268.692 841.118 268.615 838.08 269.056C833.816 266.568 830.445 265.956 828.019 267.291C825.621 268.61 824.251 271.775 823.815 276.574C821.631 276.344 819.965 276.54 818.447 277.38C816.887 278.243 815.51 279.773 813.884 282.142L813.874 282.156L813.866 282.172C811.377 287.498 810.105 291.457 809.847 295.103C809.59 298.727 810.337 302.023 811.85 306.023C811.389 306.956 810.947 307.85 810.521 308.713C806.319 317.217 803.641 322.639 798.684 331.281L798.587 331.448ZM799.145 331.328C804.048 322.771 806.724 317.354 810.898 308.904C811.337 308.016 811.793 307.093 812.269 306.13L812.311 306.046L812.277 305.958C810.753 301.948 810.016 298.697 810.268 295.133C810.52 291.568 811.764 287.671 814.241 282.371C815.855 280.022 817.183 278.566 818.65 277.754C820.111 276.946 821.738 276.762 823.982 277.022L824.198 277.047L824.217 276.828C824.628 271.931 825.987 268.894 828.221 267.666C830.452 266.439 833.662 266.958 837.931 269.463L837.995 269.5L838.068 269.489C841.116 269.04 843.264 269.123 845.078 269.894C846.891 270.664 848.402 272.135 850.146 274.535L850.179 274.581L850.23 274.604C853.46 276.051 855.361 277.234 856.484 278.684C857.599 280.124 857.968 281.856 858.054 284.468L858.058 284.595L858.171 284.652C862.103 286.617 863.8 288.573 863.725 291.148C863.687 292.455 863.193 293.949 862.252 295.72C861.313 297.489 859.937 299.517 858.151 301.891C857.361 302.801 856.598 303.683 855.859 304.536C852.318 308.629 849.355 312.054 846.826 314.638C845.298 316.2 843.936 317.447 842.706 318.347C841.475 319.247 840.392 319.787 839.423 319.953L839.283 319.977L839.253 320.117C839.117 320.733 838.972 321.132 838.788 321.451C838.604 321.77 838.373 322.022 838.043 322.336L838.022 322.356L838.008 322.38C835.418 326.658 833.544 329.468 831.846 332.012C831.482 332.558 831.126 333.091 830.773 333.624C828.793 336.614 826.905 339.59 824.177 344.634C824.002 344.572 823.822 344.508 823.637 344.443C818.991 342.793 811.116 339.999 799.145 331.328Z" fill="black"/>
<path fill-rule="evenodd" clip-rule="evenodd" d="M822.512 316.621L816.417 329.555L816.798 329.738L822.894 316.805L822.512 316.621ZM823.536 317.654L820.489 324.379L820.873 324.557L823.92 317.832L823.536 317.654ZM820.26 312.929C817.977 311.298 816.695 310.221 814.391 308.056L814.104 308.369C816.419 310.544 817.715 311.634 820.016 313.278L820.26 312.929ZM835.02 319.052C831.836 318.329 830.054 317.741 826.867 316.502L826.715 316.9C829.916 318.145 831.719 318.74 834.928 319.469L835.02 319.052ZM830.124 298.264C829.288 295.281 827.808 292.837 825.337 290.21L825.031 290.504C827.466 293.092 828.904 295.477 829.718 298.38C830.535 301.291 830.728 304.735 830.647 309.453L831.07 309.46C831.15 304.736 830.959 301.238 830.124 298.264ZM822.128 288.558C821.907 288.728 821.697 288.844 821.466 288.919C821.198 289.006 820.916 289.032 820.582 289.034L820.579 288.607C820.895 288.605 821.128 288.58 821.338 288.512C821.542 288.446 821.737 288.334 821.969 288.141L822.723 287.375C822.608 287.246 822.5 287.109 822.399 286.964C821.89 286.232 821.572 285.318 821.381 284.204L821.797 284.131C821.982 285.208 822.283 286.055 822.745 286.718C823.204 287.378 823.83 287.869 824.685 288.219C826.412 288.926 829.054 289.054 833.079 288.83C833.857 288.713 834.573 288.167 835.158 287.363C835.744 286.558 836.182 285.519 836.406 284.477C836.63 283.431 836.635 282.404 836.38 281.62C836.128 280.845 835.631 280.32 834.834 280.208C833.025 279.952 830.132 279.115 827.705 278.348C826.488 277.963 825.384 277.594 824.584 277.322C824.184 277.186 823.859 277.073 823.635 276.995C823.523 276.956 823.436 276.925 823.377 276.905L823.31 276.881L823.287 276.873C823.287 276.873 823.286 276.873 823.356 276.671C823.426 276.47 823.426 276.47 823.427 276.47L823.428 276.47L823.449 276.478L823.516 276.501C823.575 276.522 823.661 276.553 823.773 276.592C823.996 276.669 824.319 276.781 824.719 276.917C825.517 277.189 826.618 277.557 827.831 277.94C830.262 278.709 833.123 279.534 834.892 279.785C835.885 279.925 836.491 280.596 836.781 281.486C837.068 282.367 837.052 283.477 836.818 284.567C836.584 285.66 836.124 286.756 835.498 287.616C834.874 288.473 834.067 289.118 833.13 289.254L833.121 289.255L833.112 289.256C831.725 289.333 830.491 289.37 829.395 289.354L829.469 289.379L829.252 290.042C830.491 291.548 831.506 292.457 832.616 292.914C833.688 293.356 834.876 293.387 836.492 293.075L836.519 293.039C842.181 285.275 845.419 280.399 848.459 274.689L848.831 274.891C845.798 280.589 842.569 285.456 836.973 293.135L836.979 293.147C837.771 294.939 838.544 296.073 839.546 296.779C840.536 297.476 841.776 297.776 843.55 297.838C846.265 296.31 848.357 294.896 850.388 292.882C852.434 290.853 854.424 288.209 856.925 284.209L857.282 284.437C854.774 288.449 852.763 291.125 850.684 293.186C848.646 295.208 846.55 296.631 843.872 298.145C844.544 299.652 845.298 300.783 846.174 301.539C847.078 302.319 848.12 302.706 849.363 302.685C850.612 302.664 852.074 302.229 853.805 301.342C855.536 300.455 857.523 299.123 859.822 297.321L860.081 297.658C857.771 299.469 855.76 300.819 853.996 301.723C852.234 302.626 850.707 303.089 849.37 303.112C848.025 303.135 846.882 302.711 845.9 301.863C844.947 301.042 844.153 299.829 843.461 298.262C841.69 298.193 840.376 297.884 839.305 297.129C838.241 296.379 837.444 295.209 836.663 293.477C834.962 293.814 833.656 293.803 832.457 293.31C831.246 292.811 830.174 291.832 828.919 290.305C827.538 290.351 826.453 290.289 825.399 290.022C824.354 289.757 823.351 289.295 822.128 288.558ZM828.861 289.879C827.52 289.923 826.491 289.858 825.501 289.608C824.54 289.364 823.605 288.942 822.452 288.256L823.02 287.679C823.436 288.063 823.935 288.372 824.527 288.615C825.654 289.076 827.127 289.298 829.035 289.347L828.861 289.879ZM831.702 294.119C836.935 298.509 840.574 302.023 842.663 308.199L843.063 308.061C840.934 301.767 837.215 298.189 831.971 293.79L831.702 294.119ZM833.85 275.021C833.067 276.464 832.545 277.656 832.352 279.201L832.771 279.255C832.954 277.787 833.447 276.651 834.221 275.226C834.448 274.807 834.701 274.361 834.976 273.875C835.635 272.714 836.425 271.32 837.322 269.493L836.944 269.304C836.052 271.119 835.274 272.492 834.617 273.65C834.34 274.14 834.084 274.591 833.85 275.021Z" fill="black"/>
<path d="M826.153 185.401C824.883 185.326 823.92 185.099 823.262 184.721C822.609 184.336 822.199 183.773 822.034 183.031C821.847 182.192 822.023 181.423 822.563 180.726C823.106 180.023 823.909 179.551 824.971 179.309C825.695 179.144 826.371 179.139 826.999 179.293C827.632 179.447 828.158 179.737 828.578 180.165C829.002 180.591 829.28 181.1 829.412 181.69L828.014 182.008C827.871 181.364 827.556 180.905 827.069 180.631C826.581 180.353 825.967 180.298 825.229 180.466C824.543 180.622 824.042 180.897 823.724 181.293C823.41 181.682 823.313 182.148 823.434 182.689C823.531 183.124 823.794 183.451 824.223 183.671C824.656 183.885 825.337 184.018 826.267 184.068C827.201 184.117 827.947 184.236 828.507 184.427C829.071 184.611 829.515 184.877 829.841 185.223C830.171 185.568 830.397 186.012 830.518 186.554C830.71 187.417 830.531 188.186 829.981 188.86C829.43 189.529 828.597 189.991 827.482 190.244C826.758 190.409 826.051 190.424 825.362 190.289C824.671 190.148 824.1 189.873 823.649 189.463C823.202 189.052 822.91 188.537 822.772 187.917L824.17 187.599C824.313 188.243 824.661 188.7 825.213 188.969C825.768 189.232 826.439 189.274 827.226 189.095C827.96 188.928 828.489 188.649 828.812 188.257C829.136 187.865 829.24 187.409 829.123 186.886C829.007 186.364 828.736 186.003 828.311 185.802C827.885 185.597 827.166 185.463 826.153 185.401Z" fill="white"/>
<path d="M877.31 185.884L872.784 184.666L871.8 188.408L877.057 189.822L876.757 190.961L870.123 189.176L872.902 178.618L879.464 180.383L879.163 181.529L873.977 180.134L873.084 183.528L877.61 184.745L877.31 185.884Z" fill="white"/>
<path d="M849.186 181.311L852.007 175.826H853.625L849.899 182.677V186.751H848.474V182.677L844.748 175.826H846.381L849.186 181.311Z" fill="white"/>
<path d="M865.492 188.187L864.072 187.995L859.786 178.919L858.68 187.264L857.26 187.072L858.695 176.243L860.115 176.435L864.411 185.55L865.522 177.168L866.927 177.358L865.492 188.187Z" fill="white"/>
<path d="M840.846 182.32L836.202 182.937L836.702 186.776L842.096 186.059L842.248 187.227L835.441 188.132L834.031 177.3L840.764 176.404L840.917 177.58L835.597 178.288L836.05 181.769L840.693 181.152L840.846 182.32Z" fill="white"/>
<path d="M813.561 354.658C813.176 355.546 812.623 356.153 811.903 356.48C811.189 356.803 810.362 356.82 809.424 356.529C808.407 356.214 807.702 355.593 807.311 354.665C806.923 353.738 806.916 352.657 807.291 351.421L807.544 350.584C807.79 349.775 808.147 349.108 808.617 348.582C809.091 348.057 809.639 347.712 810.263 347.548C810.887 347.379 811.545 347.402 812.234 347.616C813.149 347.899 813.804 348.385 814.199 349.074C814.595 349.76 814.7 350.573 814.514 351.513L813.373 351.16C813.484 350.436 813.422 349.867 813.185 349.454C812.952 349.041 812.54 348.744 811.948 348.56C811.223 348.336 810.571 348.43 809.993 348.844C809.419 349.259 808.98 349.967 808.677 350.968L808.421 351.811C808.135 352.755 808.103 353.567 808.324 354.246C808.545 354.925 809.006 355.373 809.708 355.591C810.339 355.786 810.865 355.792 811.288 355.609C811.715 355.423 812.092 354.988 812.42 354.305L813.561 354.658Z" fill="white"/>
<path d="M872.562 353.924L869.761 354.659L871.778 362.515L870.634 362.815L868.617 354.959L865.821 355.693L865.576 354.736L872.317 352.967L872.562 353.924Z" fill="white"/>
<path d="M834.779 360.497L834.367 364.037L833.188 363.897L834.24 354.854L837.539 355.247C838.517 355.363 839.254 355.707 839.748 356.278C840.246 356.849 840.447 357.551 840.35 358.383C840.248 359.261 839.896 359.906 839.296 360.317C838.701 360.725 837.897 360.868 836.886 360.748L834.779 360.497ZM834.893 359.522L837.012 359.774C837.642 359.849 838.143 359.758 838.513 359.5C838.884 359.237 839.103 358.823 839.169 358.255C839.232 357.717 839.114 357.267 838.816 356.904C838.517 356.541 838.076 356.318 837.492 356.236L835.305 355.976L834.893 359.522Z" fill="white"/>
<path d="M828.024 358.719L825.949 358.299L825.235 361.911L824.064 361.674L825.831 352.746L828.754 353.337C829.749 353.539 830.468 353.922 830.911 354.488C831.358 355.054 831.495 355.775 831.322 356.65C831.212 357.206 830.966 357.66 830.585 358.012C830.209 358.366 829.735 358.591 829.165 358.688L830.489 362.897L830.475 362.971L829.225 362.718L828.024 358.719ZM826.14 357.336L827.929 357.698C828.507 357.815 828.996 357.757 829.396 357.523C829.799 357.29 830.051 356.92 830.151 356.413C830.261 355.861 830.181 355.405 829.911 355.045C829.646 354.685 829.207 354.441 828.593 354.312L826.81 353.952L826.14 357.336Z" fill="white"/>
<path d="M854.163 361.51H852.048V365.193H850.854V356.089H853.835C854.85 356.089 855.629 356.322 856.173 356.789C856.722 357.256 856.996 357.935 856.996 358.827C856.996 359.394 856.843 359.888 856.538 360.31C856.237 360.731 855.817 361.045 855.277 361.254L857.392 365.118V365.193H856.118L854.163 361.51ZM852.048 360.528H853.873C854.462 360.528 854.93 360.374 855.277 360.066C855.627 359.757 855.802 359.344 855.802 358.827C855.802 358.265 855.635 357.833 855.301 357.533C854.971 357.233 854.493 357.081 853.866 357.077H852.048V360.528Z" fill="white"/>
<path d="M822.819 356.419C822.628 357.29 822.316 358.018 821.883 358.604C821.451 359.186 820.932 359.589 820.325 359.811C819.719 360.034 819.061 360.065 818.353 359.906C817.66 359.751 817.084 359.442 816.624 358.98C816.165 358.513 815.856 357.93 815.697 357.228C815.544 356.523 815.555 355.75 815.732 354.91L815.872 354.269C816.06 353.414 816.373 352.693 816.811 352.103C817.249 351.514 817.773 351.107 818.385 350.881C819.001 350.652 819.655 350.616 820.348 350.771C821.052 350.929 821.634 351.242 822.093 351.708C822.557 352.171 822.862 352.762 823.008 353.483C823.155 354.199 823.133 354.99 822.943 355.857L822.819 356.419ZM821.792 355.586C822.024 354.532 821.992 353.677 821.697 353.022C821.402 352.362 820.879 351.947 820.126 351.778C819.394 351.614 818.754 351.767 818.207 352.238C817.665 352.705 817.278 353.438 817.046 354.437L816.902 355.09C816.678 356.111 816.712 356.962 817.006 357.643C817.305 358.321 817.827 358.744 818.571 358.911C819.32 359.079 819.96 358.935 820.491 358.478C821.024 358.016 821.409 357.272 821.647 356.245L821.792 355.586Z" fill="white"/>
<path d="M886.37 352.079C886.652 352.924 886.757 353.711 886.686 354.439C886.614 355.163 886.375 355.779 885.97 356.286C885.565 356.793 885.018 357.164 884.33 357.398C883.658 357.627 883.007 357.664 882.377 357.509C881.745 357.35 881.182 357.011 880.688 356.493C880.196 355.97 879.811 355.303 879.532 354.492L879.325 353.869C879.048 353.04 878.947 352.258 879.021 351.525C879.094 350.792 879.335 350.169 879.743 349.656C880.153 349.138 880.695 348.765 881.367 348.536C882.051 348.303 882.708 348.266 883.34 348.425C883.974 348.579 884.538 348.926 885.031 349.466C885.523 350.003 885.909 350.692 886.189 351.533L886.37 352.079ZM885.065 351.903C884.725 350.879 884.26 350.164 883.672 349.757C883.083 349.346 882.423 349.265 881.692 349.514C880.981 349.756 880.512 350.221 880.284 350.91C880.059 351.594 880.103 352.424 880.415 353.399L880.626 354.034C880.956 355.025 881.421 355.736 882.021 356.165C882.623 356.589 883.286 356.678 884.009 356.432C884.735 356.185 885.209 355.727 885.43 355.058C885.65 354.385 885.599 353.546 885.278 352.543L885.065 351.903Z" fill="white"/>
<path d="M848.92 360.935C848.92 361.827 848.772 362.607 848.475 363.274C848.178 363.936 847.758 364.443 847.213 364.793C846.669 365.143 846.034 365.318 845.308 365.318C844.599 365.318 843.97 365.143 843.422 364.793C842.874 364.439 842.447 363.936 842.142 363.286C841.841 362.632 841.686 361.875 841.678 361.016V360.359C841.678 359.484 841.828 358.711 842.129 358.039C842.43 357.368 842.855 356.856 843.403 356.501C843.956 356.143 844.587 355.963 845.296 355.963C846.018 355.963 846.653 356.141 847.201 356.495C847.753 356.845 848.178 357.356 848.475 358.027C848.772 358.694 848.92 359.472 848.92 360.359V360.935ZM847.739 360.347C847.739 359.267 847.525 358.44 847.096 357.864C846.667 357.285 846.067 356.995 845.296 356.995C844.546 356.995 843.954 357.285 843.521 357.864C843.092 358.44 842.871 359.24 842.859 360.266V360.935C842.859 361.981 843.076 362.805 843.508 363.405C843.946 364.001 844.546 364.299 845.308 364.299C846.075 364.299 846.669 364.018 847.09 363.455C847.51 362.888 847.727 362.077 847.739 361.022V360.347Z" fill="white"/>
<path d="M864.446 361.706L860.722 362.319L860.264 364.802L859.055 365.001L861.001 355.456L862.027 355.287L866.875 363.713L865.672 363.911L864.446 361.706ZM860.919 361.285L863.941 360.788L861.75 356.834L860.919 361.285Z" fill="white"/>
<path d="M896.611 351.713L895.557 352.278L888.302 348.223L891.55 354.423L890.495 354.988L886.28 346.942L887.335 346.377L894.615 350.454L891.352 344.226L892.396 343.667L896.611 351.713Z" fill="white"/>
<path d="M878.967 359.888L877.828 360.228L875.281 351.495L876.42 351.155L878.967 359.888Z" fill="white"/>
</g>
<g opacity="0.5">
<g filter="url(#filter0_b)">
<path d="M767.482 1233.52C746.589 1234.53 733.979 1242.41 711.151 1260.43M767.611 1232.26C742.018 1229.18 727.826 1235.79 702.556 1250.01M767.934 1230.38C744.301 1224.85 728.047 1227.4 695.862 1237.97" stroke="black" stroke-width="9.98705" stroke-linecap="round"/>
</g>
<g filter="url(#filter1_b)">
<path d="M817.383 1242.1C836.735 1250.04 845.989 1261.68 861.484 1286.29M817.682 1240.87C842.832 1246.52 854 1257.49 873.069 1279.33M818.006 1238.99C842.128 1241.67 856.595 1249.51 883.4 1270.22" stroke="black" stroke-width="9.98705" stroke-linecap="round"/>
</g>
<path fill-rule="evenodd" clip-rule="evenodd" d="M744.772 1171.87C770.296 1171.82 784.426 1178.69 778.188 1196.88C778.24 1195.57 777.952 1194.85 776.844 1193.61C758.993 1195.33 753.335 1189.35 752.551 1175.05C751.33 1173.23 749.212 1172.67 744.772 1171.87ZM756.423 1180.59C755.689 1179.65 755.46 1179.87 755.675 1180.98C758.301 1189.86 762.789 1192.97 771.765 1189.44C772.875 1189.01 772.553 1188.54 771.518 1188.72C762.548 1190.76 759.546 1187.33 756.423 1180.59Z" fill="#252324"/>
<ellipse cx="762.107" cy="1181.24" rx="2.13825" ry="1.9024" transform="rotate(9.75878 762.107 1181.24)" fill="#0594A7"/>
<path fill-rule="evenodd" clip-rule="evenodd" d="M890.483 1195.26C892.289 1217.61 885.689 1230.07 863.681 1252.18C868.687 1240.55 866.449 1236.08 856.282 1230.62C849.006 1227.13 844.602 1225.41 835.977 1222.94C815.756 1215.16 809.689 1208.92 813.311 1192.65C814.542 1164.96 804.437 1149.75 772.915 1145.29C760.376 1141.62 757.686 1137.26 756.365 1127.65C754.38 1103.42 751.371 1092.48 736.622 1081.98C731.303 1078.83 726.834 1079.41 723.853 1085.04C715.592 1097.36 714.749 1111.03 719.757 1133.72C714.999 1149.24 714.884 1156.97 719.087 1169.05C713.378 1179.15 713.558 1186.97 717.103 1202.95C710.939 1189.7 709.621 1182.04 714.386 1167.64C710.453 1154.22 710.629 1146.88 714.135 1134.01C710.433 1103.49 711.993 1090.68 722.842 1077.38C727.322 1073.53 730.222 1073.34 735.628 1074.19C750.164 1083.13 757.368 1093.27 765.848 1105.21C768.506 1108.95 771.29 1112.87 774.464 1116.98C803.073 1110.76 819.332 1113.13 848.727 1128.17C866.88 1113.15 877.248 1107.23 896.095 1101.31C905.289 1100.85 908.159 1102.58 910.642 1107.93C916.661 1132.52 912.804 1148 895.241 1178.12C891.834 1184.43 890.884 1188.21 890.483 1195.26ZM894.456 1169.4C887.373 1175.42 882.689 1172.46 881.174 1162.14C880.132 1158.89 877.777 1157.97 870.594 1157.84C857.987 1163.67 846.978 1143.92 859.846 1131.93C873.916 1118.19 882.148 1112.55 897.748 1108.02C901.879 1107.29 903.537 1108.05 905.164 1111.72C908.39 1132.32 905.906 1144.45 894.456 1169.4ZM851.796 1193.06C852.948 1191.97 853.436 1192.24 852.904 1193.86C844.102 1206.66 836.294 1210.54 821.997 1202.66C820.509 1201.6 820.923 1201.15 822.525 1201.76C836.25 1207.92 843.211 1205.32 851.796 1193.06ZM844.558 1196.06C845.132 1195.09 844.989 1194.81 843.981 1195.45C838.788 1200.76 834.811 1202.99 827.04 1198.07C826.125 1197.55 825.664 1197.89 826.565 1198.67C833.847 1204.99 839.115 1203.56 844.558 1196.06ZM856.07 1192.01C831.466 1185.72 823.006 1187.84 819.078 1203.47C818.897 1204.52 818.396 1204.48 818.313 1203.34C818.638 1185.57 832.361 1180.09 856.842 1191.19C858.56 1191.97 858.177 1192.68 856.07 1192.01Z" fill="#252324"/>
<ellipse cx="829.964" cy="1192.8" rx="2.02127" ry="1.86458" transform="rotate(9.75878 829.964 1192.8)" fill="#0594A7"/>
<path d="M790.855 1247.24C790.717 1246.24 790.782 1245.47 791.056 1243.84C790.806 1243.43 790.616 1243.37 790.147 1243.69C789.981 1245.01 789.81 1245.76 789.202 1247.11C782.976 1251.68 774.239 1251.32 766.734 1246.26C774.066 1252.83 781.005 1252.91 789.855 1250.83C796.419 1256.42 805.774 1257.2 812.603 1254.15C804.133 1256.59 794.75 1253.93 790.855 1247.24Z" fill="#252324"/>
<path d="M804.869 1234.28C807.788 1233.1 806.09 1227.18 808.736 1211.8C808.273 1206.92 806.459 1225.04 804.287 1231.88C801.858 1229.9 800.02 1229.49 796.085 1229.75C793.7 1229.94 792.251 1229.68 789.482 1228.61C786.433 1227.14 784.633 1227.05 781.299 1227.92C783.131 1220.34 785.292 1204.28 784.121 1207.28C782.68 1219.9 777.435 1227.26 780.101 1230.66C784.158 1234.07 787.931 1236.15 786.831 1239.13C787.934 1240.81 788.543 1241.73 790.878 1242.89C792.976 1242.64 793.986 1241.99 795.696 1240.55C795.029 1237.44 800.943 1237.49 804.869 1234.28Z" fill="#252324"/>
</g>
<g opacity="0.5">
<g filter="url(#filter2_b)">
<path d="M240.067 686.121C227.494 690.205 221.053 697.498 209.987 713.2M239.947 685.263C223.864 687.392 216.258 694.101 203.102 707.671M239.847 683.959C224.57 684.139 215.068 688.487 197.121 700.761" stroke="black" stroke-width="6.10711" stroke-linecap="round"/>
</g>
<g filter="url(#filter3_b)">
<path d="M271.834 683.686C284.882 685.806 292.36 692.032 305.69 705.864M271.822 682.82C288.042 682.472 296.581 687.944 311.651 699.351M271.722 681.515C286.848 679.365 296.902 682.214 316.509 691.609" stroke="black" stroke-width="6.10711" stroke-linecap="round"/>
</g>
<path fill-rule="evenodd" clip-rule="evenodd" d="M216.491 648.849C232.039 644.653 241.735 646.914 240.806 660.025C240.631 659.144 240.341 658.711 239.471 658.068C228.864 662.125 224.471 659.074 221.734 649.695C220.703 648.685 219.323 648.655 216.491 648.849ZM224.97 652.748C224.373 652.24 224.268 652.422 224.575 653.125C227.578 658.601 230.803 659.935 235.717 656.127C236.325 655.656 236.054 655.396 235.452 655.684C230.308 658.508 227.937 656.715 224.97 652.748Z" fill="#252324"/>
<ellipse cx="228.536" cy="652.251" rx="1.34546" ry="1.30263" transform="rotate(-4.38329 228.536 652.251)" fill="#A70505"/>
<path fill-rule="evenodd" clip-rule="evenodd" d="M308.988 640.627C313.618 655.19 311.563 664.546 301.643 682.836C302.857 674.29 300.788 671.684 293.729 669.713C288.742 668.574 285.788 668.153 280.14 667.915C266.588 666.045 261.906 662.888 261.544 651.481C257.921 632.873 249.361 624.415 229.446 626.591C221.224 626.195 218.896 623.738 216.573 617.564C211.537 601.784 207.976 595.004 197.329 590.427C193.59 589.203 190.958 590.315 190.03 594.545C186.94 604.08 188.587 613.307 195.221 627.57C194.772 638.661 195.923 643.819 200.392 651.161C198.508 658.809 199.852 663.974 204.536 674.022C198.687 666.216 196.675 661.342 197.304 650.991C192.789 642.718 191.736 637.808 191.841 628.682C184.765 609.001 183.693 600.231 188.204 589.616C190.326 586.328 192.065 585.731 195.493 585.412C205.764 588.985 211.756 594.551 218.809 601.103C221.02 603.156 223.335 605.307 225.919 607.523C242.372 598.717 252.656 597.642 272.946 602.846C281.637 589.9 287.02 584.274 297.572 577.266C303.103 575.462 305.124 576.138 307.483 579.293C315.034 594.655 315.128 605.573 309.181 628.456C308.101 633.209 308.119 635.874 308.988 640.627ZM307.325 622.789C303.96 627.949 300.638 626.746 298.085 620.135C296.937 618.143 295.356 617.912 290.958 619C284.195 624.933 274.367 613.601 280.315 603.529C286.72 592.099 290.846 587.008 299.638 581.452C302.042 580.299 303.171 580.53 304.744 582.707C309.963 595.874 310.363 604.337 307.325 622.789ZM285.063 645.477C285.594 644.567 285.933 644.664 285.865 645.829C282.521 655.768 278.375 659.623 268.418 656.72C267.344 656.258 267.524 655.887 268.598 656.035C277.935 657.891 281.767 655.025 285.063 645.477ZM281.126 648.654C281.322 647.912 281.19 647.748 280.678 648.341C278.351 652.715 276.28 654.848 270.766 652.841C270.127 652.648 269.899 652.946 270.572 653.319C276.008 656.334 278.993 654.524 281.126 648.654ZM287.502 644.079C271.514 643.915 266.693 646.703 266.767 657.731C266.822 658.458 266.51 658.513 266.28 657.769C263.672 645.906 271.171 640.027 287.843 643.41C289.013 643.647 288.891 644.181 287.502 644.079Z" fill="#252324"/>
<ellipse cx="271.717" cy="648.868" rx="1.27186" ry="1.27673" transform="rotate(-4.38329 271.717 648.868)" fill="#A70505"/>
<path d="M256.479 691.432C256.237 690.789 256.154 690.262 256.065 689.139C255.847 688.904 255.721 688.893 255.486 689.183C255.595 690.093 255.608 690.619 255.451 691.612C252.379 695.668 246.997 696.853 241.623 694.713C247.13 697.886 251.371 696.807 256.436 693.977C261.32 696.627 267.144 695.618 270.824 692.475C266.047 695.478 259.909 695.242 256.479 691.432Z" fill="#252324"/>
<path d="M262.973 680.53C264.566 679.27 262.596 675.614 261.779 664.958C260.726 661.789 262.482 674.128 262.238 679.028C260.445 678.107 259.262 678.138 256.903 678.948C255.48 679.463 254.555 679.527 252.7 679.271C250.608 678.788 249.498 679.026 247.605 680.15C247.523 674.807 246.304 663.782 246.064 665.966C247.178 674.588 245.145 680.338 247.305 682.161C250.317 683.767 252.945 684.536 252.746 686.697C253.683 687.634 254.199 688.141 255.806 688.535C257.045 688.029 257.558 687.431 258.372 686.19C257.474 684.234 261.087 683.304 262.973 680.53Z" fill="#252324"/>
</g>
<path d="M441.703 1191.73C362.784 1178.73 256.114 1128.43 110.417 1152.71C257.848 1228.16 329.829 1247.24 424.358 1366.05L627.293 1366.05C616.019 1313.15 540.702 1238.65 441.703 1191.73Z" fill="#53575A"/>
<path fill-rule="evenodd" clip-rule="evenodd" d="M169.588 919.806C177.427 919.806 183.782 926.161 183.782 934L183.782 1216.78C183.782 1224.62 177.427 1230.98 169.588 1230.98C161.748 1230.98 155.393 1224.62 155.393 1216.78L155.393 934C155.393 926.161 161.748 919.806 169.588 919.806Z" fill="black"/>
<path d="M0.737305 1130.64C0.737305 1130.64 164.657 1167.12 290.183 1167.12C410.089 1167.12 444.891 1366.03 444.891 1366.03H0.737305V1130.64Z" fill="#53575A"/>
<path d="M431.668 1366.05H377.66C373.609 1343.8 369.74 1329.55 358.907 1299.8C342.003 1270.42 327.297 1256.15 294.012 1233.68C245.397 1205.12 213.682 1191.72 144.621 1175.14C134.261 1169.43 129.703 1164.91 123.913 1154.33L138.278 1156.45L255.211 1167.48C299.805 1164.3 322.695 1171.48 358.907 1203.89C399.34 1255.48 418.568 1301.39 431.668 1366.05Z" fill="#63686B"/>
<path d="M395.895 933.113C316.266 955.622 277.497 912.186 178.923 933.113L178.923 1049.31C277.497 1029.48 312.738 1068.22 395.895 1049.31V933.113Z" fill="#040332" fill-opacity="0.9"/>
<path d="M236.523 978.375C237.433 978.375 238.178 978.306 238.757 978.168C239.364 978.002 239.847 977.796 240.205 977.547C240.564 977.271 240.812 976.954 240.95 976.596C241.088 976.237 241.157 975.837 241.157 975.396C241.157 974.458 240.716 973.685 239.833 973.078C238.95 972.444 237.433 971.768 235.281 971.051C234.343 970.72 233.406 970.347 232.468 969.934C231.53 969.492 230.688 968.954 229.944 968.32C229.199 967.658 228.592 966.872 228.123 965.961C227.654 965.023 227.419 963.892 227.419 962.568C227.419 961.244 227.668 960.058 228.164 959.01C228.661 957.934 229.364 957.024 230.275 956.279C231.185 955.534 232.288 954.969 233.585 954.582C234.881 954.169 236.343 953.962 237.971 953.962C239.902 953.962 241.571 954.169 242.978 954.582C244.385 954.996 245.543 955.451 246.453 955.948L244.591 961.037C243.791 960.624 242.895 960.265 241.902 959.962C240.936 959.63 239.764 959.465 238.385 959.465C236.84 959.465 235.723 959.686 235.033 960.127C234.371 960.541 234.04 961.189 234.04 962.072C234.04 962.596 234.164 963.037 234.412 963.396C234.661 963.755 235.006 964.086 235.447 964.389C235.916 964.665 236.44 964.927 237.019 965.175C237.626 965.396 238.288 965.63 239.005 965.879C240.495 966.43 241.792 966.982 242.895 967.534C243.998 968.058 244.909 968.679 245.626 969.396C246.371 970.113 246.922 970.954 247.281 971.92C247.64 972.885 247.819 974.058 247.819 975.437C247.819 978.113 246.881 980.195 245.005 981.685C243.129 983.147 240.302 983.878 236.523 983.878C235.254 983.878 234.109 983.795 233.088 983.63C232.068 983.492 231.157 983.313 230.357 983.092C229.585 982.871 228.909 982.637 228.33 982.389C227.778 982.14 227.309 981.906 226.923 981.685L228.744 976.554C229.599 977.023 230.647 977.451 231.888 977.837C233.157 978.196 234.702 978.375 236.523 978.375Z" fill="#D9D9D9"/>
<path d="M251.337 972.582C251.337 970.651 251.627 968.968 252.206 967.534C252.813 966.072 253.599 964.858 254.565 963.892C255.53 962.927 256.634 962.196 257.875 961.699C259.144 961.203 260.441 960.955 261.765 960.955C264.854 960.955 267.296 961.906 269.089 963.81C270.882 965.686 271.778 968.458 271.778 972.127C271.778 972.485 271.764 972.885 271.737 973.327C271.709 973.74 271.682 974.113 271.654 974.444H257.668C257.806 975.713 258.399 976.72 259.448 977.465C260.496 978.209 261.903 978.582 263.668 978.582C264.799 978.582 265.903 978.485 266.978 978.292C268.082 978.071 268.978 977.809 269.668 977.506L270.496 982.513C270.165 982.678 269.723 982.844 269.171 983.009C268.62 983.175 267.999 983.313 267.309 983.423C266.647 983.561 265.93 983.671 265.158 983.754C264.385 983.837 263.613 983.878 262.841 983.878C260.882 983.878 259.172 983.589 257.71 983.009C256.275 982.43 255.075 981.644 254.11 980.651C253.172 979.63 252.468 978.43 251.999 977.051C251.558 975.671 251.337 974.182 251.337 972.582ZM265.82 970.223C265.792 969.699 265.696 969.189 265.53 968.692C265.392 968.196 265.158 967.754 264.827 967.368C264.523 966.982 264.123 966.665 263.627 966.417C263.158 966.168 262.565 966.044 261.847 966.044C261.158 966.044 260.565 966.168 260.068 966.417C259.572 966.637 259.158 966.941 258.827 967.327C258.496 967.713 258.234 968.168 258.041 968.692C257.875 969.189 257.751 969.699 257.668 970.223H265.82Z" fill="#D9D9D9"/>
<path d="M295.86 961.534C294.618 965.727 293.322 969.658 291.97 973.327C290.619 976.996 289.143 980.554 287.543 984.002C286.963 985.244 286.384 986.292 285.805 987.147C285.226 988.03 284.591 988.747 283.901 989.299C283.212 989.878 282.426 990.292 281.543 990.54C280.688 990.816 279.681 990.954 278.522 990.954C277.557 990.954 276.66 990.857 275.833 990.664C275.033 990.499 274.371 990.306 273.847 990.085L274.922 985.161C275.557 985.382 276.122 985.533 276.619 985.616C277.115 985.699 277.64 985.74 278.191 985.74C279.295 985.74 280.136 985.437 280.715 984.83C281.322 984.251 281.833 983.437 282.246 982.389C280.839 979.63 279.433 976.54 278.026 973.12C276.619 969.672 275.295 965.81 274.053 961.534H280.591C280.867 962.61 281.184 963.782 281.543 965.051C281.929 966.292 282.329 967.561 282.743 968.858C283.157 970.127 283.57 971.368 283.984 972.582C284.426 973.796 284.839 974.899 285.226 975.892C285.584 974.899 285.957 973.796 286.343 972.582C286.729 971.368 287.101 970.127 287.46 968.858C287.846 967.561 288.205 966.292 288.536 965.051C288.894 963.782 289.212 962.61 289.488 961.534H295.86Z" fill="#D9D9D9"/>
<path d="M299.165 962.279C300.213 961.975 301.565 961.699 303.22 961.451C304.875 961.175 306.613 961.037 308.434 961.037C310.282 961.037 311.813 961.286 313.027 961.782C314.268 962.251 315.247 962.927 315.964 963.81C316.682 964.692 317.192 965.741 317.495 966.954C317.799 968.168 317.951 969.52 317.951 971.01V983.299H311.785V971.754C311.785 969.768 311.523 968.361 310.999 967.534C310.475 966.706 309.496 966.292 308.061 966.292C307.62 966.292 307.151 966.32 306.654 966.375C306.158 966.403 305.716 966.444 305.33 966.499V983.299H299.165V962.279Z" fill="#D9D9D9"/>
<path d="M322.497 972.582C322.497 970.651 322.786 968.968 323.366 967.534C323.973 966.072 324.759 964.858 325.724 963.892C326.69 962.927 327.793 962.196 329.034 961.699C330.303 961.203 331.6 960.955 332.924 960.955C336.014 960.955 338.455 961.906 340.248 963.81C342.041 965.686 342.938 968.458 342.938 972.127C342.938 972.485 342.924 972.885 342.896 973.327C342.869 973.74 342.841 974.113 342.813 974.444H328.828C328.965 975.713 329.559 976.72 330.607 977.465C331.655 978.209 333.062 978.582 334.827 978.582C335.958 978.582 337.062 978.485 338.138 978.292C339.241 978.071 340.138 977.809 340.827 977.506L341.655 982.513C341.324 982.678 340.882 982.844 340.331 983.009C339.779 983.175 339.158 983.313 338.469 983.423C337.807 983.561 337.089 983.671 336.317 983.754C335.545 983.837 334.772 983.878 334 983.878C332.041 983.878 330.331 983.589 328.869 983.009C327.434 982.43 326.235 981.644 325.269 980.651C324.331 979.63 323.628 978.43 323.159 977.051C322.717 975.671 322.497 974.182 322.497 972.582ZM336.979 970.223C336.951 969.699 336.855 969.189 336.689 968.692C336.552 968.196 336.317 967.754 335.986 967.368C335.683 966.982 335.283 966.665 334.786 966.417C334.317 966.168 333.724 966.044 333.007 966.044C332.317 966.044 331.724 966.168 331.228 966.417C330.731 966.637 330.317 966.941 329.986 967.327C329.655 967.713 329.393 968.168 329.2 968.692C329.034 969.189 328.91 969.699 328.828 970.223H336.979Z" fill="#D9D9D9"/>
<path d="M627.293 1366.05H568.133L549.066 1319.44L510.57 1267.55L456.452 1221.8C439.255 1205.09 425.69 1198.25 401.558 1185.1L441.845 1193.73C537.727 1240.52 606.929 1301.56 627.293 1366.05Z" fill="#63686B"/>
<path d="M273.217 1010.43C273.217 1011.06 273.078 1011.66 272.802 1012.24C272.526 1012.82 272.166 1013.39 271.724 1013.94C271.282 1014.47 270.785 1014.98 270.232 1015.48C269.679 1015.97 269.136 1016.45 268.601 1016.89C268.325 1017.13 268.021 1017.39 267.689 1017.69C267.376 1017.97 267.072 1018.26 266.777 1018.56C266.483 1018.86 266.215 1019.14 265.976 1019.4C265.755 1019.65 265.617 1019.86 265.561 1020.03H273.797V1023.13H261.029C260.992 1022.95 260.974 1022.72 260.974 1022.44C260.974 1022.16 260.974 1021.96 260.974 1021.84C260.974 1021.05 261.112 1020.32 261.388 1019.65C261.683 1018.99 262.061 1018.38 262.521 1017.81C262.982 1017.23 263.498 1016.69 264.069 1016.2C264.659 1015.7 265.239 1015.2 265.81 1014.71C266.252 1014.32 266.667 1013.97 267.054 1013.64C267.441 1013.29 267.781 1012.96 268.076 1012.64C268.371 1012.31 268.601 1011.99 268.767 1011.67C268.933 1011.34 269.016 1011.01 269.016 1010.68C269.016 1009.95 268.786 1009.44 268.325 1009.14C267.864 1008.84 267.293 1008.69 266.611 1008.69C266.114 1008.69 265.644 1008.76 265.202 1008.91C264.778 1009.05 264.382 1009.21 264.014 1009.41C263.664 1009.59 263.36 1009.78 263.102 1009.98C262.844 1010.16 262.65 1010.31 262.521 1010.43L260.476 1007.84C261.287 1007.17 262.227 1006.61 263.295 1006.18C264.382 1005.73 265.543 1005.51 266.777 1005.51C267.901 1005.51 268.868 1005.62 269.679 1005.86C270.49 1006.09 271.153 1006.42 271.669 1006.85C272.203 1007.26 272.59 1007.78 272.83 1008.39C273.088 1008.99 273.217 1009.67 273.217 1010.43Z" fill="#D9D9D9"/>
<path d="M289.974 1014.48C289.974 1017.38 289.357 1019.61 288.122 1021.17C286.906 1022.71 285.221 1023.48 283.065 1023.48C280.909 1023.48 279.214 1022.71 277.98 1021.17C276.764 1019.61 276.156 1017.38 276.156 1014.48C276.156 1013.04 276.312 1011.76 276.626 1010.65C276.957 1009.54 277.427 1008.61 278.035 1007.84C278.643 1007.08 279.371 1006.5 280.218 1006.1C281.066 1005.71 282.015 1005.51 283.065 1005.51C285.221 1005.51 286.906 1006.29 288.122 1007.84C289.357 1009.39 289.974 1011.6 289.974 1014.48ZM285.773 1014.48C285.773 1013.62 285.727 1012.84 285.635 1012.15C285.543 1011.43 285.396 1010.82 285.193 1010.31C284.99 1009.79 284.714 1009.39 284.364 1009.11C284.014 1008.83 283.581 1008.69 283.065 1008.69C282.549 1008.69 282.116 1008.83 281.766 1009.11C281.434 1009.39 281.158 1009.79 280.937 1010.31C280.734 1010.82 280.587 1011.43 280.495 1012.15C280.403 1012.84 280.357 1013.62 280.357 1014.48C280.357 1015.34 280.403 1016.13 280.495 1016.84C280.587 1017.56 280.734 1018.17 280.937 1018.68C281.158 1019.2 281.434 1019.6 281.766 1019.88C282.116 1020.16 282.549 1020.3 283.065 1020.3C283.581 1020.3 284.014 1020.16 284.364 1019.88C284.714 1019.6 284.99 1019.2 285.193 1018.68C285.396 1018.17 285.543 1017.56 285.635 1016.84C285.727 1016.13 285.773 1015.34 285.773 1014.48Z" fill="#D9D9D9"/>
<path d="M304.631 1010.43C304.631 1011.06 304.493 1011.66 304.216 1012.24C303.94 1012.82 303.581 1013.39 303.139 1013.94C302.696 1014.47 302.199 1014.98 301.646 1015.48C301.094 1015.97 300.55 1016.45 300.016 1016.89C299.739 1017.13 299.435 1017.39 299.104 1017.69C298.791 1017.97 298.487 1018.26 298.192 1018.56C297.897 1018.86 297.63 1019.14 297.39 1019.4C297.169 1019.65 297.031 1019.86 296.976 1020.03H305.211V1023.13H292.443C292.407 1022.95 292.388 1022.72 292.388 1022.44C292.388 1022.16 292.388 1021.96 292.388 1021.84C292.388 1021.05 292.526 1020.32 292.803 1019.65C293.098 1018.99 293.475 1018.38 293.936 1017.81C294.396 1017.23 294.912 1016.69 295.483 1016.2C296.073 1015.7 296.653 1015.2 297.225 1014.71C297.667 1014.32 298.081 1013.97 298.468 1013.64C298.855 1013.29 299.196 1012.96 299.491 1012.64C299.785 1012.31 300.016 1011.99 300.182 1011.67C300.347 1011.34 300.43 1011.01 300.43 1010.68C300.43 1009.95 300.2 1009.44 299.739 1009.14C299.279 1008.84 298.708 1008.69 298.026 1008.69C297.529 1008.69 297.059 1008.76 296.617 1008.91C296.193 1009.05 295.797 1009.21 295.428 1009.41C295.078 1009.59 294.774 1009.78 294.516 1009.98C294.258 1010.16 294.065 1010.31 293.936 1010.43L291.891 1007.84C292.701 1007.17 293.641 1006.61 294.71 1006.18C295.797 1005.73 296.957 1005.51 298.192 1005.51C299.316 1005.51 300.283 1005.62 301.094 1005.86C301.904 1006.09 302.567 1006.42 303.083 1006.85C303.618 1007.26 304.005 1007.78 304.244 1008.39C304.502 1008.99 304.631 1009.67 304.631 1010.43Z" fill="#D9D9D9"/>
<path d="M321.388 1014.48C321.388 1017.38 320.771 1019.61 319.537 1021.17C318.321 1022.71 316.635 1023.48 314.479 1023.48C312.324 1023.48 310.629 1022.71 309.394 1021.17C308.178 1019.61 307.57 1017.38 307.57 1014.48C307.57 1013.04 307.727 1011.76 308.04 1010.65C308.372 1009.54 308.842 1008.61 309.45 1007.84C310.058 1007.08 310.785 1006.5 311.633 1006.1C312.48 1005.71 313.429 1005.51 314.479 1005.51C316.635 1005.51 318.321 1006.29 319.537 1007.84C320.771 1009.39 321.388 1011.6 321.388 1014.48ZM317.188 1014.48C317.188 1013.62 317.142 1012.84 317.05 1012.15C316.957 1011.43 316.81 1010.82 316.607 1010.31C316.405 1009.79 316.128 1009.39 315.778 1009.11C315.428 1008.83 314.995 1008.69 314.479 1008.69C313.963 1008.69 313.531 1008.83 313.18 1009.11C312.849 1009.39 312.572 1009.79 312.351 1010.31C312.149 1010.82 312.001 1011.43 311.909 1012.15C311.817 1012.84 311.771 1013.62 311.771 1014.48C311.771 1015.34 311.817 1016.13 311.909 1016.84C312.001 1017.56 312.149 1018.17 312.351 1018.68C312.572 1019.2 312.849 1019.6 313.18 1019.88C313.531 1020.16 313.963 1020.3 314.479 1020.3C314.995 1020.3 315.428 1020.16 315.778 1019.88C316.128 1019.6 316.405 1019.2 316.607 1018.68C316.81 1018.17 316.957 1017.56 317.05 1016.84C317.142 1016.13 317.188 1015.34 317.188 1014.48Z" fill="#D9D9D9"/>
<g filter="url(#filter4_d)">
<path d="M99.2242 63.0614C106.596 63.0614 112.256 64.3694 116.204 66.9853C120.151 69.5536 122.125 73.7866 122.125 79.6843C122.125 85.6295 120.128 89.9338 116.132 92.5973C112.137 95.2132 106.43 96.5211 99.0101 96.5211H95.5144V113.073H84.3849V64.3456C86.8106 63.87 89.3789 63.5371 92.0899 63.3468C94.8009 63.1566 97.179 63.0614 99.2242 63.0614ZM99.9376 72.55C99.1291 72.55 98.3205 72.5738 97.512 72.6213C96.751 72.6689 96.0851 72.7165 95.5144 72.764V87.0325H99.0101C102.863 87.0325 105.764 86.5094 107.714 85.463C109.664 84.4166 110.639 82.4666 110.639 79.6129C110.639 78.2336 110.377 77.0921 109.854 76.1885C109.379 75.2848 108.665 74.5714 107.714 74.0482C106.81 73.4775 105.693 73.097 104.361 72.9067C103.029 72.6689 101.555 72.55 99.9376 72.55ZM144.78 63.0614C152.2 63.0614 157.884 64.3932 161.831 67.0566C165.779 69.6725 167.753 73.7628 167.753 79.3275C167.753 82.7995 166.944 85.6295 165.327 87.8173C163.757 89.9576 161.474 91.646 158.478 92.8826C159.477 94.1192 160.523 95.5461 161.617 97.1632C162.711 98.7327 163.781 100.397 164.828 102.157C165.921 103.869 166.968 105.677 167.967 107.579C168.965 109.434 169.893 111.265 170.749 113.073H158.264C157.36 111.455 156.433 109.815 155.482 108.15C154.578 106.485 153.627 104.868 152.628 103.299C151.677 101.729 150.726 100.255 149.774 98.8754C148.823 97.4486 147.872 96.1644 146.921 95.0229H141.427V113.073H130.298V64.3456C132.723 63.87 135.22 63.5371 137.789 63.3468C140.405 63.1566 142.735 63.0614 144.78 63.0614ZM145.422 72.55C144.614 72.55 143.877 72.5738 143.211 72.6213C142.592 72.6689 141.998 72.7165 141.427 72.764V86.1764H144.566C148.752 86.1764 151.748 85.6532 153.555 84.6069C155.363 83.5605 156.266 81.777 156.266 79.2562C156.266 76.8306 155.339 75.1183 153.484 74.1195C151.677 73.0732 148.99 72.55 145.422 72.55ZM185.974 88.3167C185.974 90.7424 186.26 92.9302 186.831 94.8802C187.449 96.8302 188.305 98.5187 189.399 99.9455C190.54 101.325 191.92 102.395 193.537 103.156C195.154 103.917 197.009 104.297 199.102 104.297C201.147 104.297 202.978 103.917 204.595 103.156C206.26 102.395 207.639 101.325 208.733 99.9455C209.874 98.5187 210.73 96.8302 211.301 94.8802C211.919 92.9302 212.229 90.7424 212.229 88.3167C212.229 85.8911 211.919 83.7032 211.301 81.7532C210.73 79.7556 209.874 78.0672 208.733 76.6879C207.639 75.261 206.26 74.1671 204.595 73.4061C202.978 72.6451 201.147 72.2646 199.102 72.2646C197.009 72.2646 195.154 72.6689 193.537 73.4775C191.92 74.2384 190.54 75.3324 189.399 76.7592C188.305 78.1385 187.449 79.8269 186.831 81.8245C186.26 83.7746 185.974 85.9386 185.974 88.3167ZM223.715 88.3167C223.715 92.5497 223.073 96.2833 221.788 99.5175C220.552 102.704 218.84 105.391 216.652 107.579C214.464 109.719 211.848 111.337 208.804 112.43C205.808 113.524 202.574 114.071 199.102 114.071C195.725 114.071 192.538 113.524 189.542 112.43C186.545 111.337 183.929 109.719 181.694 107.579C179.459 105.391 177.699 102.704 176.415 99.5175C175.13 96.2833 174.488 92.5497 174.488 88.3167C174.488 84.0837 175.154 80.3739 176.486 77.1873C177.818 73.9531 179.601 71.2421 181.837 69.0542C184.12 66.8664 186.735 65.2255 189.684 64.1316C192.681 63.0377 195.82 62.4907 199.102 62.4907C202.478 62.4907 205.665 63.0377 208.661 64.1316C211.658 65.2255 214.274 66.8664 216.509 69.0542C218.745 71.2421 220.504 73.9531 221.788 77.1873C223.073 80.3739 223.715 84.0837 223.715 88.3167ZM258.669 113.073C257.29 110.314 255.768 107.532 254.103 104.725C252.486 101.872 250.608 98.9705 248.467 96.0217C247.801 96.8778 246.945 98.0669 245.899 99.5888C244.9 101.111 243.878 102.728 242.831 104.44C241.832 106.152 240.881 107.793 239.977 109.363C239.074 110.932 238.408 112.169 237.98 113.073H225.281C227.374 109.22 229.799 105.177 232.558 100.944C235.364 96.7113 238.479 92.2168 241.904 87.4606L225.994 63.6322H239.478L249.109 79.0422L258.527 63.6322H271.226L255.53 87.6033C259.525 92.7875 262.878 97.5912 265.589 102.014C268.3 106.39 270.441 110.076 272.01 113.073H258.669ZM278.417 63.6322H289.547V113.073H278.417V63.6322ZM314.117 63.6322C314.974 65.2017 315.949 67.1517 317.042 69.4823C318.184 71.7652 319.349 74.2622 320.538 76.9732C321.775 79.6367 322.988 82.3715 324.177 85.1776C325.366 87.9838 326.483 90.6234 327.53 93.0967C328.576 90.6234 329.694 87.9838 330.883 85.1776C332.072 82.3715 333.261 79.6367 334.45 76.9732C335.687 74.2622 336.852 71.7652 337.946 69.4823C339.087 67.1517 340.086 65.2017 340.942 63.6322H351.073C351.548 66.9139 351.977 70.6 352.357 74.6903C352.785 78.733 353.142 82.966 353.427 87.3893C353.76 91.7649 354.045 96.1644 354.283 100.588C354.569 105.011 354.806 109.173 354.997 113.073H344.153C344.01 108.269 343.82 103.037 343.582 97.3772C343.344 91.7174 342.987 86.01 342.512 80.255C341.656 82.2526 340.704 84.4642 339.658 86.8899C338.612 89.3155 337.565 91.7411 336.519 94.1668C335.52 96.5924 334.545 98.923 333.594 101.158C332.643 103.346 331.834 105.225 331.168 106.794H323.392C322.726 105.225 321.918 103.346 320.966 101.158C320.015 98.923 319.016 96.5924 317.97 94.1668C316.971 91.7411 315.949 89.3155 314.902 86.8899C313.856 84.4642 312.905 82.2526 312.048 80.255C311.573 86.01 311.216 91.7174 310.978 97.3772C310.741 103.037 310.55 108.269 310.408 113.073H299.564C299.754 109.173 299.968 105.011 300.206 100.588C300.491 96.1644 300.776 91.7649 301.062 87.3893C301.395 82.966 301.751 78.733 302.132 74.6903C302.56 70.6 303.012 66.9139 303.487 63.6322H314.117ZM398.121 113.073C397.597 111.36 397.003 109.601 396.337 107.793C395.719 105.986 395.1 104.179 394.482 102.371H375.22C374.601 104.179 373.959 105.986 373.293 107.793C372.675 109.601 372.104 111.36 371.581 113.073H360.024C361.878 107.746 363.638 102.823 365.303 98.3047C366.968 93.7863 368.585 89.5295 370.154 85.5343C371.771 81.5392 373.341 77.758 374.863 74.1909C376.432 70.5762 378.049 67.0566 379.714 63.6322H390.344C391.961 67.0566 393.555 70.5762 395.124 74.1909C396.694 77.758 398.263 81.5392 399.833 85.5343C401.45 89.5295 403.091 93.7863 404.755 98.3047C406.42 102.823 408.18 107.746 410.035 113.073H398.121ZM384.779 74.833C384.542 75.5464 384.185 76.5214 383.709 77.758C383.234 78.9946 382.687 80.4215 382.068 82.0386C381.45 83.6557 380.76 85.4392 379.999 87.3893C379.286 89.3393 378.549 91.3844 377.788 93.5247H391.842C391.081 91.3844 390.344 89.3393 389.631 87.3893C388.917 85.4392 388.228 83.6557 387.562 82.0386C386.944 80.4215 386.397 78.9946 385.921 77.758C385.445 76.5214 385.065 75.5464 384.779 74.833ZM429.561 63.6322C430.417 65.2017 431.392 67.1517 432.486 69.4823C433.628 71.7652 434.793 74.2622 435.982 76.9732C437.219 79.6367 438.432 82.3715 439.621 85.1776C440.81 87.9838 441.927 90.6234 442.974 93.0967C444.02 90.6234 445.138 87.9838 446.327 85.1776C447.516 82.3715 448.705 79.6367 449.894 76.9732C451.131 74.2622 452.296 71.7652 453.39 69.4823C454.531 67.1517 455.53 65.2017 456.386 63.6322H466.517C466.992 66.9139 467.42 70.6 467.801 74.6903C468.229 78.733 468.586 82.966 468.871 87.3893C469.204 91.7649 469.489 96.1644 469.727 100.588C470.013 105.011 470.25 109.173 470.441 113.073H459.597C459.454 108.269 459.264 103.037 459.026 97.3772C458.788 91.7174 458.431 86.01 457.956 80.255C457.1 82.2526 456.148 84.4642 455.102 86.8899C454.056 89.3155 453.009 91.7411 451.963 94.1668C450.964 96.5924 449.989 98.923 449.038 101.158C448.087 103.346 447.278 105.225 446.612 106.794H438.836C438.17 105.225 437.361 103.346 436.41 101.158C435.459 98.923 434.46 96.5924 433.414 94.1668C432.415 91.7411 431.392 89.3155 430.346 86.8899C429.3 84.4642 428.349 82.2526 427.492 80.255C427.017 86.01 426.66 91.7174 426.422 97.3772C426.184 103.037 425.994 108.269 425.852 113.073H415.007C415.198 109.173 415.412 105.011 415.65 100.588C415.935 96.1644 416.22 91.7649 416.506 87.3893C416.839 82.966 417.195 78.733 417.576 74.6903C418.004 70.6 418.456 66.9139 418.931 63.6322H429.561ZM480.461 113.073V63.6322H513.85V72.9781H491.591V82.6806H511.353V91.8125H491.591V103.727H515.491V113.073H480.461ZM556.901 113.073C553.714 107.413 550.266 101.824 546.556 96.3071C542.847 90.7899 538.899 85.5819 534.714 80.6831V113.073H523.727V63.6322H532.787C534.357 65.2017 536.093 67.128 537.995 69.4109C539.898 71.6939 541.824 74.1433 543.774 76.7592C545.772 79.3275 547.746 82.0148 549.696 84.8209C551.646 87.5795 553.477 90.243 555.189 92.8113V63.6322H566.247V113.073H556.901ZM614.322 63.6322V73.1207H599.411V113.073H588.282V73.1207H573.371V63.6322H614.322ZM621.475 113.073V63.6322H654.863V72.9781H632.604V82.6806H652.366V91.8125H632.604V103.727H656.504V113.073H621.475Z" fill="#F5F5F5"/>
</g>
</g>
<defs>
<filter id="filter0_b" x="673.464" y="1199.25" width="113.679" height="88.9073" filterUnits="userSpaceOnUse" color-interpolation-filters="sRGB">
<feFlood flood-opacity="0" result="BackgroundImageFix"/>
<feGaussianBlur in="BackgroundImage" stdDeviation="6.65803"/>
<feComposite in2="SourceAlpha" operator="in" result="effect1_backgroundBlur"/>
<feBlend mode="normal" in="SourceGraphic" in2="effect1_backgroundBlur" result="shape"/>
</filter>
<filter id="filter1_b" x="792.183" y="1219.66" width="113.679" height="88.9073" filterUnits="userSpaceOnUse" color-interpolation-filters="sRGB">
<feFlood flood-opacity="0" result="BackgroundImageFix"/>
<feGaussianBlur in="BackgroundImage" stdDeviation="6.65803"/>
<feComposite in2="SourceAlpha" operator="in" result="effect1_backgroundBlur"/>
<feBlend mode="normal" in="SourceGraphic" in2="effect1_backgroundBlur" result="shape"/>
</filter>
<filter id="filter2_b" x="184.657" y="672.378" width="68.7189" height="53.151" filterUnits="userSpaceOnUse" color-interpolation-filters="sRGB">
<feFlood flood-opacity="0" result="BackgroundImageFix"/>
<feGaussianBlur in="BackgroundImage" stdDeviation="4.0714"/>
<feComposite in2="SourceAlpha" operator="in" result="effect1_backgroundBlur"/>
<feBlend mode="normal" in="SourceGraphic" in2="effect1_backgroundBlur" result="shape"/>
</filter>
<filter id="filter3_b" x="260.235" y="666.585" width="68.7189" height="53.151" filterUnits="userSpaceOnUse" color-interpolation-filters="sRGB">
<feFlood flood-opacity="0" result="BackgroundImageFix"/>
<feGaussianBlur in="BackgroundImage" stdDeviation="4.0714"/>
<feComposite in2="SourceAlpha" operator="in" result="effect1_backgroundBlur"/>
<feBlend mode="normal" in="SourceGraphic" in2="effect1_backgroundBlur" result="shape"/>
</filter>
<filter id="filter4_d" x="84.3849" y="62.4907" width="582.217" height="62.9409" filterUnits="userSpaceOnUse" color-interpolation-filters="sRGB">
<feFlood flood-opacity="0" result="BackgroundImageFix"/>
<feColorMatrix in="SourceAlpha" type="matrix" values="0 0 0 0 0 0 0 0 0 0 0 0 0 0 0 0 0 0 127 0"/>
<feOffset dx="5.04897" dy="6.31122"/>
<feGaussianBlur stdDeviation="2.52449"/>
<feColorMatrix type="matrix" values="0 0 0 0 1 0 0 0 0 1 0 0 0 0 1 0 0 0 0.4 0"/>
<feBlend mode="normal" in2="BackgroundImageFix" result="effect1_dropShadow"/>
<feBlend mode="normal" in="SourceGraphic" in2="effect1_dropShadow" result="shape"/>
</filter>
<clipPath id="clip0">
<rect width="1024" height="1366" fill="white" transform="translate(0.737305 0.0499878)"/>
</clipPath>
</defs>
</svg>
