<svg width="412" height="824" viewBox="0 0 412 824" fill="none" xmlns="http://www.w3.org/2000/svg">
<g clip-path="url(#clip0)">
<rect width="411" height="823" transform="translate(0.262939 0.5)" fill="#3C576A"/>
<path opacity="0.92" d="M84.4544 40.1387L80.6276 46.3879L87.9327 46.9651L80.9843 49.2925L86.2092 54.4303L79.3904 51.7468L80.0904 59.0411L76.5918 52.6024L72.4394 58.6401L73.898 51.459L66.8361 53.415L72.5695 48.8515L65.9024 45.8106L73.2278 46L70.0752 39.3851L75.5649 44.2389L77.4019 37.1451L78.4874 44.392L84.4544 40.1387Z" fill="#063885"/>
<path opacity="0.94" d="M277.566 198.49L283.275 203.538L285.186 196.16L286.314 203.697L292.52 199.274L288.54 205.773L296.138 206.373L288.911 208.794L294.345 214.137L287.254 211.346L287.982 218.932L284.343 212.236L280.025 218.515L281.542 211.047L274.197 213.081L280.16 208.335L273.226 205.172L280.844 205.369L277.566 198.49Z" fill="#063885"/>
<path opacity="0.89" d="M330.858 176.076L336.348 178.692L336.191 172.612L338.715 178.146L342.502 173.387L340.879 179.249L346.839 178.038L341.828 181.484L347.172 184.388L341.118 183.807L343.345 189.467L339.081 185.13L337.149 190.897L336.67 184.834L331.483 188.01L335.013 183.058L328.998 182.157L334.886 180.632L330.858 176.076Z" fill="#063885"/>
<path opacity="0.7" d="M40.3181 547.838L33.6501 547.899L36.7273 553.815L31.5805 549.575L30.1352 556.084L28.9179 549.528L23.6263 553.586L26.908 547.781L20.2462 547.488L26.4914 545.151L21.5765 540.644L27.863 542.868L26.9947 536.257L30.381 542.001L33.9657 536.378L32.8672 542.955L39.2275 540.952L34.1583 545.285L40.3181 547.838Z" fill="#063885"/>
<path opacity="0.8" d="M161.567 520.511L153.337 518.385L155.174 526.685L150.236 519.766L146.309 527.305L146.973 518.83L139.119 522.081L145.075 516.016L136.969 513.457L145.429 512.64L140.865 505.469L147.871 510.282L148.984 501.855L151.258 510.045L157.527 504.304L154.004 512.04L162.496 511.672L154.825 515.334L161.567 520.511Z" fill="#063885"/>
<path opacity="0.79" d="M370.343 354.502L375.968 358.083L376.61 351.445L378.617 357.804L383.374 353.132L380.825 359.293L387.472 358.772L381.559 361.853L386.986 365.727L380.475 364.286L382.143 370.743L378.082 365.454L375.209 371.471L375.498 364.809L369.429 367.573L373.933 362.655L367.507 360.871L374.118 359.998L370.343 354.502Z" fill="#063885"/>
<path opacity="0.71" d="M99.9985 588.197L92.1212 588.958L96.3712 595.634L89.8477 591.153L88.8122 598.999L86.6948 591.374L80.8583 596.719L84.1379 589.516L76.2312 589.859L83.3732 586.449L77.0962 581.63L84.7587 583.609L83.0483 575.882L87.6461 582.323L91.3026 575.305L90.6842 583.194L97.9967 580.168L92.4515 585.815L99.9985 588.197Z" fill="#063885"/>
<path opacity="0.91" d="M177.339 773.207L185.67 774.899L183.401 766.707L188.694 773.358L192.222 765.624L192.002 774.122L199.675 770.465L194.045 776.833L202.274 778.964L193.867 780.223L198.801 787.144L191.552 782.705L190.882 791.179L188.183 783.119L182.223 789.18L185.336 781.27L176.874 782.082L184.343 778.024L177.339 773.207Z" fill="#063885"/>
<path opacity="0.71" d="M350.155 592.086L358.669 594.285L356.768 585.7L361.877 592.857L365.94 585.059L365.253 593.825L373.378 590.463L367.216 596.736L375.602 599.383L366.849 600.229L371.572 607.647L364.323 602.668L363.173 611.386L360.82 602.913L354.335 608.852L357.979 600.849L349.194 601.23L357.129 597.442L350.155 592.086Z" fill="#063885"/>
<g opacity="0.78">
<path d="M216.957 193.503C216.957 232.168 185.612 263.513 146.947 263.513C108.281 263.513 76.9365 232.168 76.9365 193.503C76.9365 154.837 108.281 123.493 146.947 123.493C185.612 123.493 216.957 154.837 216.957 193.503Z" fill="#4E4949"/>
<path fill-rule="evenodd" clip-rule="evenodd" d="M146.947 260.565C184.032 260.565 214.041 230.51 214.041 193.503C214.041 156.496 184.032 126.441 146.947 126.441C109.861 126.441 79.8521 156.496 79.8521 193.503C79.8521 230.51 109.861 260.565 146.947 260.565ZM146.947 263.513C185.612 263.513 216.957 232.168 216.957 193.503C216.957 154.837 185.612 123.493 146.947 123.493C108.281 123.493 76.9365 154.837 76.9365 193.503C76.9365 232.168 108.281 263.513 146.947 263.513Z" fill="black"/>
<path d="M202.955 193.503C202.955 224.435 177.879 249.511 146.947 249.511C116.014 249.511 90.9386 224.435 90.9386 193.503C90.9386 162.57 116.014 137.495 146.947 137.495C177.879 137.495 202.955 162.57 202.955 193.503Z" fill="#525252"/>
<path fill-rule="evenodd" clip-rule="evenodd" d="M146.947 247.742C176.931 247.742 201.205 223.44 201.205 193.503C201.205 163.566 176.931 139.263 146.947 139.263C116.962 139.263 92.6879 163.566 92.6879 193.503C92.6879 223.44 116.962 247.742 146.947 247.742ZM146.947 249.511C177.879 249.511 202.955 224.435 202.955 193.503C202.955 162.57 177.879 137.495 146.947 137.495C116.014 137.495 90.9386 162.57 90.9386 193.503C90.9386 224.435 116.014 249.511 146.947 249.511Z" fill="black"/>
<path d="M172.539 169.431C176.723 162.152 178.077 158.829 182.78 152.502C176.982 147.817 174.091 145.313 166.075 142.704C162.133 149.203 158.548 152.359 154.084 158.793C148.242 159.555 145.207 161.264 140.447 167.807C138.671 171.351 138.63 173.095 140.434 175.708C134.805 179.437 134.683 183.187 140.511 186.799C141.979 190.857 143.577 192.088 147.624 192.658C151.485 195.679 153.061 195.859 156.272 194.243C161.234 197.798 163.475 196.032 166.844 188.51C170.177 179.429 172.472 173.697 171.557 170.976C172.221 170.394 172.376 170.052 172.539 169.431Z" fill="#0116D1"/>
<path fill-rule="evenodd" clip-rule="evenodd" d="M166.011 142.528L166.12 142.563C173.833 145.074 176.823 147.493 182.172 151.821C182.401 152.006 182.634 152.195 182.872 152.387L182.982 152.477L182.897 152.591C179.51 157.148 177.866 160.138 175.64 164.187C174.783 165.747 173.839 167.464 172.676 169.489C172.594 169.794 172.511 170.046 172.36 170.295C172.219 170.53 172.022 170.756 171.726 171.023C171.937 171.718 171.954 172.581 171.82 173.606C171.68 174.679 171.372 175.943 170.933 177.401C170.207 179.811 169.117 182.767 167.82 186.285C167.549 187.019 167.269 187.778 166.981 188.561L166.98 188.566L166.978 188.571C166.134 190.454 165.359 191.983 164.591 193.16C163.824 194.337 163.058 195.173 162.229 195.658C160.564 196.633 158.714 196.157 156.259 194.414C154.684 195.199 153.471 195.56 152.167 195.335C150.858 195.109 149.481 194.295 147.565 192.799C145.553 192.512 144.122 192.057 143.009 191.151C141.899 190.247 141.124 188.909 140.392 186.898C137.498 185.095 136.025 183.225 136.031 181.297C136.036 179.391 137.489 177.51 140.23 175.668C139.375 174.402 138.946 173.314 138.953 172.106C138.96 170.865 139.427 169.517 140.317 167.741L140.323 167.73L140.33 167.72C142.714 164.443 144.675 162.363 146.782 161.008C148.875 159.661 151.101 159.039 154.001 158.656C155.913 155.905 157.664 153.752 159.349 151.682C159.622 151.346 159.893 151.013 160.163 150.68C162.108 148.276 163.985 145.868 165.951 142.627L166.011 142.528ZM166.139 142.879C164.185 146.088 162.317 148.483 160.388 150.866C160.118 151.201 159.846 151.534 159.573 151.87C157.878 153.954 156.122 156.112 154.203 158.878L154.166 158.931L154.103 158.94C151.193 159.319 148.997 159.933 146.938 161.257C144.879 162.581 142.944 164.625 140.572 167.885C139.69 169.647 139.251 170.94 139.244 172.108C139.238 173.271 139.661 174.33 140.554 175.624L140.64 175.748L140.514 175.832C137.707 177.691 136.327 179.523 136.322 181.298C136.317 183.07 137.682 184.873 140.588 186.673L140.631 186.7L140.649 186.748C141.379 188.768 142.134 190.061 143.192 190.922C144.25 191.783 145.63 192.228 147.644 192.512L147.682 192.517L147.713 192.541C149.642 194.051 150.977 194.83 152.217 195.044C153.448 195.257 154.61 194.915 156.207 194.111L156.286 194.072L156.357 194.123C158.828 195.894 160.56 196.294 162.083 195.403C162.856 194.951 163.592 194.157 164.347 192.998C165.102 191.841 165.869 190.33 166.71 188.454C166.997 187.67 167.277 186.912 167.548 186.179C168.845 182.661 169.931 179.716 170.655 177.315C171.092 175.864 171.394 174.617 171.531 173.567C171.669 172.515 171.638 171.673 171.419 171.024L171.388 170.93L171.462 170.865C171.788 170.579 171.98 170.359 172.111 170.141C172.243 169.924 172.318 169.699 172.399 169.393L172.404 169.374L172.414 169.357C173.576 167.336 174.52 165.618 175.379 164.056C177.59 160.034 179.236 157.038 182.579 152.528C182.38 152.367 182.183 152.208 181.99 152.052C176.674 147.75 173.721 145.36 166.139 142.879Z" fill="black"/>
<path fill-rule="evenodd" clip-rule="evenodd" d="M163.868 161.728L169.64 153.74L169.876 153.914L164.103 161.902L163.868 161.728ZM164.825 162.018L167.866 157.939L168.099 158.117L165.058 162.195L164.825 162.018ZM160.91 161.555C159.181 160.688 158.113 160.254 156.056 159.549L156.15 159.27C158.217 159.979 159.297 160.417 161.04 161.291L160.91 161.555ZM169.433 168.614C167.954 166.895 167.015 165.993 165.225 164.442L165.415 164.218C167.213 165.776 168.162 166.688 169.653 168.42L169.433 168.614ZM155.334 172.427C153.267 172.892 151.313 172.785 148.923 172.129L148.999 171.844C151.354 172.491 153.259 172.592 155.27 172.139C157.288 171.686 159.421 170.674 162.229 169.077L162.372 169.334C159.56 170.934 157.395 171.964 155.334 172.427ZM146.878 170.7C146.907 170.508 146.908 170.341 146.877 170.175C146.841 169.981 146.764 169.799 146.656 169.593L146.399 169.732C146.501 169.927 146.563 170.078 146.59 170.229C146.618 170.376 146.615 170.533 146.575 170.739L146.362 171.453C146.246 171.425 146.128 171.404 146.009 171.389C145.402 171.317 144.748 171.421 144.016 171.669L144.109 171.949C144.816 171.709 145.424 171.616 145.974 171.682C146.522 171.747 147.022 171.971 147.513 172.382C148.504 173.21 149.448 174.791 150.634 177.338C150.819 177.854 150.726 178.473 150.435 179.096C150.143 179.72 149.663 180.33 149.109 180.809C148.555 181.29 147.939 181.63 147.384 181.731C146.836 181.83 146.357 181.697 146.028 181.245C145.281 180.217 143.829 178.715 142.571 177.476C141.941 176.854 141.357 176.297 140.931 175.895C140.718 175.694 140.544 175.531 140.423 175.419C140.363 175.363 140.316 175.32 140.284 175.29L140.248 175.257L140.235 175.245C140.235 175.245 140.235 175.245 140.137 175.354C140.039 175.463 140.039 175.463 140.039 175.463L140.04 175.464L140.051 175.475L140.087 175.508C140.119 175.537 140.166 175.58 140.226 175.636C140.346 175.748 140.519 175.91 140.732 176.11C141.157 176.511 141.74 177.067 142.368 177.687C143.628 178.928 145.062 180.414 145.793 181.419C146.203 181.983 146.805 182.135 147.436 182.021C148.059 181.908 148.721 181.535 149.299 181.033C149.879 180.53 150.387 179.888 150.698 179.222C151.008 178.558 151.131 177.85 150.906 177.23L150.903 177.224L150.901 177.218C150.492 176.341 150.109 175.571 149.74 174.902L149.779 174.94L150.107 174.589C151.418 174.856 152.298 175.181 152.937 175.713C153.554 176.227 153.962 176.947 154.305 178.041L154.292 178.07C151.484 184.095 149.617 187.684 147.182 191.426L147.426 191.588C149.855 187.854 151.72 184.274 154.499 178.317L154.508 178.317C155.845 178.215 156.78 178.318 157.533 178.702C158.276 179.081 158.864 179.745 159.483 180.814C159.455 182.984 159.292 184.733 158.748 186.641C158.2 188.563 157.264 190.654 155.681 193.502L155.936 193.647C157.523 190.789 158.472 188.676 159.028 186.723C159.574 184.808 159.742 183.053 159.773 180.911C160.899 180.829 161.826 180.922 162.568 181.212C163.333 181.511 163.908 182.025 164.303 182.795C164.7 183.569 164.919 184.609 164.954 185.964C164.988 187.318 164.84 188.977 164.511 190.98L164.799 191.028C165.129 189.015 165.281 187.336 165.245 185.957C165.21 184.578 164.987 183.488 164.562 182.659C164.134 181.825 163.505 181.262 162.673 180.937C161.867 180.621 160.878 180.531 159.709 180.621C159.086 179.555 158.469 178.849 157.664 178.439C156.864 178.031 155.899 177.926 154.602 178.014C154.247 176.859 153.812 176.06 153.122 175.485C152.425 174.905 151.485 174.568 150.155 174.298C149.73 173.434 149.336 172.788 148.83 172.228C148.328 171.673 147.722 171.209 146.878 170.7ZM149.881 174.402C149.467 173.564 149.09 172.953 148.615 172.427C148.153 171.917 147.593 171.481 146.802 170.998L146.642 171.536C147.01 171.665 147.359 171.87 147.699 172.155C148.346 172.696 148.962 173.528 149.618 174.684L149.881 174.402ZM153.36 174.756C157.716 176.531 161.022 177.613 165.419 176.87L165.467 177.161C160.986 177.918 157.616 176.808 153.251 175.03L153.36 174.756ZM142.589 182.342C143.199 181.388 143.744 180.676 144.609 180.05L144.779 180.29C143.957 180.884 143.436 181.56 142.833 182.502C142.656 182.78 142.471 183.081 142.27 183.41C141.788 184.195 141.209 185.138 140.406 186.288L140.168 186.118C140.966 184.975 141.536 184.046 142.016 183.263C142.22 182.932 142.407 182.627 142.589 182.342Z" fill="black"/>
<path d="M139.465 229.605C135.118 236.786 133.684 237.985 129.859 245.076C126.708 243.949 121.093 242.127 112.312 235.748C116.096 229.153 117.959 225.27 121.437 218.241C119.324 212.682 119.37 209.17 122.802 201.827C125.043 198.563 126.541 197.698 129.672 198.061C130.242 191.282 133.448 189.391 139.361 192.86C143.59 192.237 145.42 193.074 147.839 196.403C152.303 198.402 153.209 199.719 153.328 203.344C158.78 206.069 158.308 208.901 153.362 215.473C147.042 222.753 143.145 227.519 140.342 227.997C140.151 228.864 139.927 229.165 139.465 229.605Z" fill="#950000"/>
<path fill-rule="evenodd" clip-rule="evenodd" d="M112.12 235.79L112.227 235.868C120.587 241.941 126.087 243.893 129.321 245.041C129.49 245.101 129.653 245.159 129.81 245.215L129.927 245.257L129.987 245.146C131.897 241.605 133.209 239.537 134.587 237.456C134.83 237.089 135.076 236.721 135.327 236.345C136.497 234.591 137.792 232.649 139.579 229.699C139.806 229.481 139.985 229.287 140.131 229.035C140.268 228.797 140.371 228.516 140.463 228.124C141.168 227.982 141.927 227.588 142.756 226.982C143.623 226.347 144.577 225.472 145.637 224.389C147.39 222.598 149.444 220.224 151.889 217.398C152.399 216.808 152.927 216.199 153.472 215.57L153.475 215.567L153.478 215.562C154.716 213.917 155.679 212.501 156.339 211.258C156.998 210.017 157.362 208.938 157.39 207.97C157.447 206.026 156.154 204.607 153.471 203.251C153.406 201.476 153.143 200.226 152.328 199.173C151.509 198.115 150.146 197.278 147.934 196.284C146.728 194.63 145.652 193.573 144.335 193.013C143.021 192.455 141.488 192.402 139.39 192.707C136.446 190.989 134.118 190.566 132.443 191.488C130.787 192.399 129.841 194.584 129.54 197.898C128.032 197.739 126.882 197.874 125.833 198.455C124.756 199.051 123.806 200.107 122.682 201.743L122.675 201.753L122.67 201.764C120.951 205.441 120.073 208.175 119.895 210.692C119.718 213.195 120.233 215.471 121.278 218.233C120.959 218.877 120.654 219.495 120.36 220.09C117.459 225.963 115.609 229.707 112.186 235.674L112.12 235.79ZM112.505 235.706C115.89 229.798 117.738 226.057 120.621 220.223C120.924 219.609 121.238 218.972 121.567 218.307L121.596 218.249L121.573 218.188C120.521 215.419 120.011 213.174 120.186 210.713C120.36 208.252 121.219 205.56 122.929 201.901C124.043 200.279 124.96 199.274 125.973 198.713C126.982 198.155 128.105 198.028 129.655 198.207L129.805 198.225L129.817 198.073C130.102 194.692 131.04 192.595 132.583 191.747C134.123 190.9 136.34 191.258 139.288 192.987L139.332 193.013L139.382 193.006C141.487 192.696 142.97 192.753 144.222 193.285C145.475 193.817 146.518 194.833 147.722 196.49L147.745 196.522L147.78 196.538C150.011 197.537 151.323 198.354 152.098 199.355C152.869 200.349 153.123 201.546 153.182 203.349L153.185 203.437L153.263 203.476C155.979 204.833 157.151 206.184 157.099 207.962C157.072 208.864 156.731 209.896 156.082 211.119C155.433 212.34 154.483 213.741 153.249 215.38C152.704 216.008 152.177 216.617 151.667 217.206C149.222 220.032 147.176 222.398 145.43 224.182C144.375 225.26 143.434 226.122 142.585 226.743C141.735 227.365 140.987 227.738 140.318 227.852L140.221 227.868L140.2 227.965C140.106 228.391 140.006 228.666 139.879 228.887C139.752 229.107 139.593 229.28 139.365 229.498L139.35 229.511L139.34 229.528C137.552 232.482 136.258 234.422 135.085 236.179C134.834 236.556 134.589 236.924 134.345 237.292C132.978 239.357 131.673 241.412 129.79 244.895C129.669 244.852 129.545 244.808 129.417 244.763C126.209 243.624 120.771 241.694 112.505 235.706Z" fill="black"/>
<path fill-rule="evenodd" clip-rule="evenodd" d="M128.641 225.551L124.432 234.482L124.695 234.609L128.904 225.678L128.641 225.551ZM129.347 226.265L127.243 230.909L127.508 231.031L129.612 226.387L129.347 226.265ZM127.085 223.002C125.509 221.876 124.624 221.132 123.033 219.637L122.834 219.853C124.433 221.355 125.328 222.107 126.917 223.243L127.085 223.002ZM137.278 227.23C135.079 226.731 133.848 226.325 131.647 225.469L131.543 225.744C133.753 226.604 134.998 227.014 137.214 227.518L137.278 227.23ZM133.897 212.875C133.319 210.816 132.297 209.128 130.591 207.314L130.379 207.517C132.061 209.304 133.054 210.951 133.616 212.956C134.18 214.966 134.313 217.344 134.258 220.601L134.549 220.606C134.605 217.344 134.473 214.929 133.897 212.875ZM128.375 206.173C128.223 206.29 128.077 206.371 127.918 206.422C127.733 206.482 127.538 206.5 127.307 206.502L127.305 206.207C127.524 206.206 127.685 206.188 127.829 206.141C127.971 206.096 128.105 206.019 128.266 205.885L128.786 205.356C128.706 205.267 128.632 205.172 128.562 205.072C128.211 204.567 127.991 203.936 127.859 203.167L128.147 203.116C128.274 203.86 128.482 204.445 128.801 204.903C129.118 205.359 129.55 205.697 130.141 205.939C131.333 206.427 133.158 206.516 135.937 206.361C136.474 206.28 136.968 205.903 137.373 205.348C137.777 204.792 138.079 204.075 138.234 203.355C138.389 202.633 138.393 201.924 138.216 201.382C138.042 200.847 137.699 200.485 137.149 200.407C135.9 200.23 133.902 199.653 132.226 199.123C131.386 198.857 130.623 198.603 130.071 198.414C129.795 198.32 129.571 198.243 129.416 198.189C129.338 198.162 129.278 198.141 129.237 198.126L129.191 198.11L129.175 198.104C129.175 198.104 129.175 198.104 129.223 197.965C129.272 197.826 129.272 197.826 129.272 197.826L129.273 197.826L129.287 197.832L129.333 197.848C129.374 197.862 129.434 197.883 129.511 197.91C129.665 197.964 129.888 198.041 130.164 198.135C130.715 198.323 131.476 198.577 132.313 198.841C133.992 199.372 135.967 199.942 137.189 200.115C137.874 200.212 138.293 200.675 138.493 201.29C138.691 201.898 138.681 202.664 138.519 203.417C138.357 204.172 138.04 204.929 137.608 205.523C137.177 206.114 136.619 206.56 135.972 206.654L135.966 206.655L135.96 206.655C135.002 206.708 134.15 206.734 133.393 206.723L133.444 206.74L133.295 207.198C134.15 208.238 134.851 208.866 135.617 209.181C136.357 209.486 137.178 209.508 138.294 209.292L138.312 209.267C142.222 203.906 144.458 200.54 146.557 196.596L146.814 196.736C144.719 200.671 142.49 204.031 138.626 209.334L138.63 209.342C139.177 210.58 139.711 211.362 140.403 211.85C141.086 212.331 141.943 212.538 143.167 212.581C145.042 211.526 146.487 210.55 147.889 209.159C149.302 207.758 150.676 205.932 152.403 203.17L152.65 203.328C150.918 206.098 149.529 207.946 148.093 209.369C146.686 210.765 145.239 211.748 143.39 212.793C143.853 213.834 144.374 214.615 144.979 215.137C145.603 215.675 146.323 215.943 147.181 215.928C148.044 215.914 149.053 215.614 150.249 215.001C151.444 214.389 152.816 213.468 154.404 212.224L154.582 212.457C152.987 213.707 151.598 214.64 150.381 215.264C149.164 215.887 148.109 216.207 147.186 216.223C146.257 216.239 145.468 215.946 144.79 215.361C144.132 214.794 143.584 213.956 143.106 212.874C141.883 212.826 140.976 212.613 140.236 212.092C139.501 211.574 138.951 210.766 138.412 209.57C137.237 209.803 136.335 209.795 135.507 209.454C134.671 209.11 133.931 208.434 133.064 207.379C132.111 207.412 131.361 207.368 130.634 207.184C129.912 207.001 129.22 206.682 128.375 206.173ZM133.024 207.086C132.099 207.115 131.388 207.071 130.704 206.898C130.041 206.73 129.395 206.439 128.599 205.965L128.991 205.566C129.279 205.832 129.623 206.045 130.032 206.212C130.81 206.531 131.827 206.684 133.144 206.718L133.024 207.086ZM134.986 210.013C138.6 213.045 141.113 215.471 142.555 219.736L142.831 219.64C141.361 215.294 138.793 212.824 135.172 209.786L134.986 210.013ZM136.47 196.826C135.929 197.822 135.568 198.645 135.435 199.712L135.724 199.749C135.851 198.736 136.191 197.951 136.725 196.967C136.883 196.678 137.057 196.37 137.247 196.034C137.702 195.232 138.247 194.27 138.867 193.009L138.606 192.878C137.99 194.131 137.452 195.079 136.999 195.879C136.807 196.217 136.631 196.529 136.47 196.826Z" fill="black"/>
<path d="M131.154 134.941C130.278 134.889 129.613 134.733 129.159 134.471C128.707 134.206 128.424 133.817 128.31 133.305C128.181 132.725 128.303 132.195 128.676 131.713C129.051 131.228 129.605 130.901 130.338 130.734C130.838 130.621 131.305 130.617 131.739 130.724C132.176 130.83 132.539 131.03 132.829 131.325C133.122 131.62 133.314 131.971 133.405 132.379L132.44 132.598C132.341 132.154 132.123 131.837 131.787 131.648C131.45 131.455 131.026 131.417 130.516 131.533C130.043 131.641 129.697 131.831 129.477 132.104C129.26 132.373 129.194 132.695 129.277 133.069C129.344 133.369 129.525 133.595 129.822 133.747C130.121 133.895 130.591 133.986 131.233 134.02C131.878 134.054 132.394 134.137 132.78 134.268C133.169 134.396 133.476 134.579 133.701 134.818C133.929 135.057 134.085 135.363 134.168 135.737C134.301 136.334 134.178 136.864 133.798 137.33C133.418 137.792 132.842 138.11 132.072 138.286C131.572 138.399 131.084 138.41 130.608 138.316C130.132 138.219 129.737 138.029 129.426 137.746C129.117 137.462 128.915 137.106 128.82 136.678L129.785 136.459C129.884 136.903 130.124 137.219 130.505 137.405C130.889 137.587 131.352 137.616 131.896 137.492C132.402 137.377 132.767 137.184 132.991 136.913C133.214 136.643 133.286 136.327 133.206 135.967C133.125 135.606 132.938 135.357 132.645 135.218C132.351 135.076 131.854 134.984 131.154 134.941Z" fill="white"/>
<path d="M166.48 135.274L163.354 134.434L162.674 137.017L166.305 137.994L166.098 138.78L161.517 137.548L163.435 130.257L167.967 131.476L167.759 132.267L164.178 131.304L163.561 133.647L166.687 134.488L166.48 135.274Z" fill="white"/>
<path d="M147.06 132.117L149.007 128.329H150.124L147.552 133.06V135.874H146.568V133.06L143.995 128.329H145.122L147.06 132.117Z" fill="white"/>
<path d="M158.319 136.865L157.338 136.732L154.379 130.465L153.615 136.228L152.635 136.095L153.626 128.617L154.606 128.75L157.573 135.044L158.34 129.256L159.31 129.388L158.319 136.865Z" fill="white"/>
<path d="M141.3 132.813L138.094 133.24L138.439 135.891L142.163 135.395L142.268 136.202L137.568 136.827L136.595 129.347L141.244 128.729L141.35 129.54L137.676 130.029L137.989 132.433L141.195 132.007L141.3 132.813Z" fill="white"/>
<path d="M122.46 251.817C122.194 252.43 121.812 252.849 121.315 253.074C120.821 253.298 120.251 253.309 119.603 253.109C118.9 252.891 118.414 252.462 118.144 251.821C117.876 251.181 117.871 250.435 118.13 249.582L118.305 249.004C118.474 248.445 118.721 247.984 119.045 247.621C119.373 247.258 119.751 247.02 120.182 246.907C120.613 246.79 121.067 246.806 121.543 246.954C122.175 247.149 122.627 247.485 122.9 247.961C123.174 248.434 123.246 248.995 123.118 249.645L122.33 249.401C122.407 248.901 122.363 248.508 122.2 248.223C122.039 247.938 121.754 247.732 121.346 247.606C120.845 247.451 120.395 247.516 119.996 247.802C119.599 248.089 119.296 248.577 119.087 249.268L118.91 249.85C118.713 250.503 118.69 251.063 118.843 251.532C118.996 252.001 119.315 252.31 119.799 252.46C120.235 252.595 120.598 252.6 120.89 252.473C121.185 252.345 121.445 252.045 121.672 251.573L122.46 251.817Z" fill="white"/>
<path d="M163.201 251.309L161.266 251.817L162.659 257.242L161.87 257.449L160.477 252.024L158.546 252.531L158.377 251.871L163.031 250.649L163.201 251.309Z" fill="white"/>
<path d="M137.111 255.849L136.826 258.293L136.012 258.196L136.739 251.952L139.017 252.223C139.692 252.303 140.201 252.541 140.542 252.935C140.886 253.33 141.025 253.814 140.958 254.389C140.887 254.995 140.645 255.44 140.23 255.724C139.819 256.006 139.264 256.105 138.566 256.022L137.111 255.849ZM137.189 255.175L138.653 255.349C139.088 255.401 139.434 255.338 139.69 255.16C139.946 254.979 140.097 254.692 140.142 254.301C140.186 253.929 140.104 253.618 139.898 253.367C139.692 253.117 139.388 252.963 138.984 252.906L137.474 252.727L137.189 255.175Z" fill="white"/>
<path d="M132.446 254.62L131.014 254.331L130.52 256.825L129.712 256.661L130.932 250.496L132.951 250.904C133.637 251.043 134.134 251.308 134.44 251.699C134.749 252.09 134.843 252.588 134.724 253.192C134.648 253.576 134.478 253.889 134.215 254.133C133.955 254.377 133.628 254.532 133.234 254.599L134.149 257.506L134.139 257.557L133.276 257.382L132.446 254.62ZM131.145 253.666L132.381 253.916C132.78 253.997 133.118 253.956 133.394 253.795C133.672 253.634 133.846 253.378 133.915 253.028C133.991 252.647 133.936 252.332 133.75 252.083C133.567 251.835 133.263 251.666 132.839 251.578L131.608 251.329L131.145 253.666Z" fill="white"/>
<path d="M150.496 256.548H149.036V259.091H148.211V252.804H150.27C150.97 252.804 151.508 252.965 151.884 253.288C152.263 253.61 152.452 254.08 152.452 254.696C152.452 255.087 152.347 255.428 152.136 255.719C151.928 256.01 151.638 256.227 151.265 256.371L152.726 259.04V259.091H151.846L150.496 256.548ZM149.036 255.87H150.295C150.703 255.87 151.026 255.764 151.265 255.551C151.507 255.338 151.628 255.053 151.628 254.696C151.628 254.307 151.513 254.009 151.282 253.802C151.054 253.594 150.724 253.489 150.291 253.487H149.036V255.87Z" fill="white"/>
<path d="M128.852 253.032C128.72 253.634 128.505 254.137 128.206 254.542C127.907 254.943 127.549 255.221 127.13 255.375C126.711 255.528 126.257 255.55 125.768 255.44C125.29 255.333 124.892 255.12 124.574 254.801C124.257 254.479 124.044 254.076 123.935 253.591C123.829 253.104 123.837 252.571 123.958 251.991L124.055 251.548C124.185 250.958 124.401 250.459 124.703 250.052C125.006 249.646 125.368 249.364 125.79 249.208C126.216 249.05 126.668 249.025 127.146 249.132C127.632 249.242 128.034 249.457 128.351 249.779C128.672 250.099 128.882 250.507 128.983 251.005C129.084 251.499 129.069 252.046 128.938 252.645L128.852 253.032ZM128.143 252.457C128.303 251.729 128.281 251.139 128.077 250.686C127.874 250.231 127.513 249.945 126.993 249.828C126.487 249.714 126.045 249.82 125.667 250.145C125.293 250.468 125.026 250.974 124.866 251.664L124.767 252.115C124.612 252.82 124.636 253.408 124.838 253.878C125.045 254.346 125.405 254.638 125.919 254.753C126.436 254.869 126.878 254.77 127.245 254.454C127.613 254.135 127.879 253.622 128.043 252.913L128.143 252.457Z" fill="white"/>
<path d="M172.736 250.035C172.93 250.619 173.003 251.163 172.954 251.665C172.904 252.165 172.739 252.59 172.459 252.941C172.179 253.291 171.802 253.547 171.327 253.709C170.863 253.867 170.413 253.892 169.978 253.785C169.542 253.675 169.153 253.442 168.812 253.084C168.472 252.723 168.206 252.262 168.014 251.702L167.871 251.272C167.68 250.699 167.61 250.159 167.661 249.653C167.711 249.147 167.878 248.717 168.159 248.363C168.443 248.005 168.817 247.747 169.281 247.589C169.753 247.428 170.207 247.403 170.643 247.513C171.081 247.619 171.47 247.858 171.811 248.232C172.151 248.602 172.417 249.078 172.611 249.659L172.736 250.035ZM171.835 249.914C171.599 249.207 171.279 248.713 170.873 248.432C170.466 248.149 170.01 248.093 169.506 248.264C169.014 248.432 168.69 248.753 168.533 249.229C168.378 249.701 168.408 250.274 168.623 250.947L168.769 251.385C168.997 252.07 169.318 252.561 169.732 252.857C170.148 253.15 170.606 253.211 171.105 253.042C171.607 252.871 171.934 252.554 172.087 252.092C172.239 251.628 172.204 251.049 171.982 250.356L171.835 249.914Z" fill="white"/>
<path d="M146.876 256.151C146.876 256.767 146.773 257.305 146.568 257.766C146.363 258.223 146.073 258.573 145.697 258.815C145.321 259.057 144.883 259.178 144.382 259.178C143.892 259.178 143.458 259.057 143.079 258.815C142.7 258.57 142.406 258.223 142.195 257.774C141.987 257.322 141.88 256.8 141.875 256.207V255.753C141.875 255.149 141.979 254.615 142.186 254.151C142.394 253.688 142.688 253.334 143.066 253.089C143.448 252.842 143.883 252.718 144.373 252.718C144.871 252.718 145.31 252.84 145.689 253.085C146.07 253.327 146.363 253.679 146.568 254.143C146.773 254.603 146.876 255.14 146.876 255.753V256.151ZM146.06 255.745C146.06 254.999 145.912 254.428 145.616 254.031C145.32 253.63 144.906 253.43 144.373 253.43C143.855 253.43 143.446 253.63 143.147 254.031C142.851 254.428 142.699 254.981 142.69 255.689V256.151C142.69 256.873 142.84 257.442 143.139 257.856C143.441 258.268 143.855 258.474 144.382 258.474C144.911 258.474 145.321 258.28 145.612 257.891C145.902 257.499 146.052 256.94 146.06 256.211V255.745Z" fill="white"/>
<path d="M157.596 256.683L155.025 257.106L154.709 258.821L153.874 258.959L155.218 252.367L155.926 252.251L159.274 258.069L158.443 258.206L157.596 256.683ZM155.161 256.393L157.248 256.049L155.735 253.319L155.161 256.393Z" fill="white"/>
<path d="M179.807 249.783L179.079 250.173L174.07 247.373L176.313 251.654L175.584 252.044L172.673 246.488L173.402 246.098L178.429 248.913L176.176 244.613L176.897 244.227L179.807 249.783Z" fill="white"/>
<path d="M167.624 255.428L166.837 255.662L165.079 249.632L165.865 249.398L167.624 255.428Z" fill="white"/>
</g>
<g opacity="0.5">
<g filter="url(#filter0_b)">
<path d="M319.365 722.888C311.522 723.269 306.789 726.226 298.22 732.991M319.414 722.415C309.807 721.26 304.479 723.741 294.994 729.077M319.535 721.708C310.664 719.633 304.562 720.591 292.481 724.558" stroke="black" stroke-width="3" stroke-linecap="round"/>
</g>
<g filter="url(#filter1_b)">
<path d="M338.097 726.109C345.361 729.089 348.835 733.458 354.651 742.697M338.209 725.648C347.65 727.768 351.842 731.887 359 740.085M338.331 724.941C347.385 725.949 352.816 728.89 362.878 736.665" stroke="black" stroke-width="3" stroke-linecap="round"/>
</g>
<path fill-rule="evenodd" clip-rule="evenodd" d="M310.84 699.747C320.422 699.729 325.726 702.307 323.384 709.136C323.404 708.644 323.295 708.373 322.88 707.908C316.179 708.555 314.055 706.31 313.76 700.941C313.302 700.258 312.507 700.046 310.84 699.747ZM315.214 703.022C314.938 702.668 314.852 702.749 314.933 703.166C315.919 706.501 317.603 707.667 320.973 706.343C321.39 706.18 321.269 706.004 320.88 706.071C317.513 706.839 316.386 705.55 315.214 703.022Z" fill="#252324"/>
<ellipse cx="317.347" cy="703.265" rx="0.802647" ry="0.714116" transform="rotate(9.75878 317.347 703.265)" fill="#0594A7"/>
<path fill-rule="evenodd" clip-rule="evenodd" d="M365.537 708.526C366.215 716.917 363.737 721.593 355.476 729.894C357.355 725.529 356.515 723.851 352.699 721.802C349.967 720.488 348.314 719.845 345.077 718.916C337.486 715.997 335.209 713.655 336.568 707.547C337.03 697.152 333.237 691.444 321.405 689.77C316.698 688.391 315.688 686.756 315.192 683.147C314.447 674.053 313.318 669.947 307.781 666.004C305.785 664.822 304.107 665.039 302.988 667.153C299.887 671.776 299.571 676.91 301.45 685.426C299.664 691.251 299.621 694.153 301.199 698.687C299.056 702.48 299.124 705.413 300.454 711.414C298.14 706.438 297.646 703.564 299.434 698.157C297.958 693.123 298.024 690.366 299.34 685.536C297.95 674.08 298.536 669.272 302.608 664.276C304.29 662.832 305.379 662.762 307.408 663.08C312.864 666.437 315.569 670.243 318.752 674.725C319.75 676.129 320.795 677.6 321.986 679.144C332.725 676.807 338.829 677.697 349.863 683.344C356.677 677.705 360.569 675.483 367.643 673.261C371.095 673.089 372.172 673.736 373.104 675.746C375.363 684.976 373.916 690.787 367.323 702.091C366.044 704.462 365.687 705.879 365.537 708.526ZM367.028 698.819C364.369 701.08 362.611 699.969 362.042 696.096C361.651 694.875 360.767 694.528 358.071 694.481C353.339 696.67 349.206 689.257 354.036 684.753C359.318 679.595 362.408 677.478 368.264 675.778C369.815 675.507 370.437 675.79 371.048 677.17C372.259 684.902 371.326 689.453 367.028 698.819ZM351.015 707.702C351.447 707.294 351.63 707.393 351.43 708.002C348.127 712.804 345.195 714.262 339.829 711.306C339.27 710.908 339.426 710.737 340.027 710.967C345.179 713.28 347.792 712.303 351.015 707.702ZM348.297 708.829C348.513 708.463 348.459 708.357 348.081 708.599C346.132 710.59 344.639 711.429 341.722 709.58C341.378 709.387 341.205 709.512 341.543 709.806C344.277 712.179 346.254 711.643 348.297 708.829ZM352.619 707.306C343.383 704.947 340.208 705.742 338.733 711.608C338.665 712.002 338.477 711.986 338.446 711.559C338.568 704.889 343.719 702.834 352.909 706.999C353.554 707.291 353.41 707.557 352.619 707.306Z" fill="#252324"/>
<ellipse cx="342.819" cy="707.605" rx="0.758736" ry="0.699917" transform="rotate(9.75878 342.819 707.605)" fill="#0594A7"/>
<path d="M328.139 728.04C328.087 727.664 328.112 727.373 328.214 726.764C328.121 726.608 328.049 726.584 327.873 726.705C327.811 727.203 327.747 727.484 327.519 727.989C325.182 729.706 321.902 729.571 319.084 727.671C321.837 730.138 324.441 730.168 327.764 729.385C330.228 731.486 333.739 731.779 336.303 730.632C333.123 731.548 329.601 730.55 328.139 728.04Z" fill="#252324"/>
<path d="M333.4 723.174C334.495 722.732 333.858 720.51 334.851 714.736C334.677 712.904 333.996 719.705 333.181 722.272C332.269 721.529 331.579 721.377 330.102 721.472C329.207 721.543 328.663 721.446 327.623 721.046C326.479 720.492 325.803 720.461 324.552 720.788C325.24 717.94 326.051 711.913 325.611 713.039C325.07 717.775 323.101 720.539 324.102 721.814C325.625 723.094 327.041 723.876 326.628 724.995C327.043 725.626 327.271 725.969 328.148 726.406C328.935 726.314 329.314 726.069 329.956 725.526C329.706 724.359 331.926 724.379 333.4 723.174Z" fill="#252324"/>
</g>
<g opacity="0.5">
<g filter="url(#filter2_b)">
<path d="M269.685 398.096C263.509 400.102 260.345 403.684 254.908 411.398M269.626 397.674C261.725 398.72 257.989 402.016 251.527 408.682M269.577 397.033C262.072 397.122 257.404 399.258 248.589 405.287" stroke="black" stroke-width="3" stroke-linecap="round"/>
</g>
<g filter="url(#filter3_b)">
<path d="M285.29 396.899C291.699 397.941 295.373 400.999 301.921 407.794M285.284 396.474C293.251 396.303 297.446 398.991 304.849 404.595M285.235 395.833C292.665 394.777 297.604 396.177 307.235 400.792" stroke="black" stroke-width="3" stroke-linecap="round"/>
</g>
<path fill-rule="evenodd" clip-rule="evenodd" d="M258.104 379.787C265.741 377.726 270.504 378.836 270.048 385.276C269.962 384.844 269.819 384.631 269.392 384.315C264.181 386.308 262.023 384.809 260.679 380.202C260.172 379.706 259.495 379.691 258.104 379.787ZM262.269 381.702C261.975 381.452 261.924 381.542 262.074 381.887C263.55 384.577 265.134 385.232 267.548 383.362C267.846 383.13 267.714 383.003 267.418 383.144C264.891 384.531 263.726 383.651 262.269 381.702Z" fill="#252324"/>
<ellipse cx="264.02" cy="381.458" rx="0.660934" ry="0.639893" transform="rotate(-4.38329 264.02 381.458)" fill="#A70505"/>
<path fill-rule="evenodd" clip-rule="evenodd" d="M303.541 375.748C305.815 382.902 304.806 387.498 299.933 396.482C300.529 392.284 299.513 391.004 296.045 390.036C293.596 389.476 292.144 389.269 289.37 389.153C282.713 388.234 280.413 386.683 280.235 381.079C278.455 371.939 274.25 367.784 264.467 368.853C260.428 368.658 259.285 367.451 258.144 364.418C255.67 356.667 253.921 353.336 248.69 351.088C246.854 350.487 245.561 351.033 245.105 353.111C243.587 357.795 244.396 362.327 247.655 369.334C247.434 374.782 248 377.316 250.195 380.923C249.27 384.679 249.93 387.216 252.231 392.152C249.357 388.318 248.369 385.924 248.678 380.839C246.46 376.775 245.943 374.363 245.995 369.88C242.519 360.212 241.992 355.904 244.208 350.689C245.251 349.074 246.104 348.781 247.789 348.624C252.834 350.38 255.777 353.114 259.242 356.332C260.328 357.341 261.466 358.397 262.735 359.486C270.817 355.16 275.869 354.632 285.836 357.189C290.105 350.829 292.75 348.065 297.933 344.623C300.65 343.737 301.643 344.069 302.802 345.619C306.511 353.165 306.557 358.528 303.635 369.769C303.105 372.104 303.114 373.413 303.541 375.748ZM302.724 366.985C301.071 369.52 299.439 368.929 298.185 365.681C297.621 364.703 296.844 364.59 294.684 365.124C291.362 368.038 286.534 362.472 289.456 357.524C292.602 351.909 294.629 349.408 298.948 346.679C300.129 346.113 300.683 346.226 301.456 347.296C304.02 353.764 304.216 357.921 302.724 366.985ZM291.788 378.13C292.049 377.683 292.216 377.731 292.182 378.303C290.539 383.185 288.503 385.079 283.612 383.653C283.084 383.426 283.173 383.244 283.7 383.316C288.287 384.228 290.169 382.821 291.788 378.13ZM289.854 379.691C289.951 379.326 289.886 379.246 289.634 379.537C288.491 381.685 287.474 382.733 284.765 381.748C284.451 381.653 284.339 381.799 284.669 381.982C287.34 383.463 288.806 382.574 289.854 379.691ZM292.986 377.443C285.133 377.363 282.764 378.732 282.8 384.15C282.828 384.507 282.675 384.534 282.561 384.168C281.28 378.341 284.964 375.453 293.154 377.115C293.729 377.231 293.669 377.494 292.986 377.443Z" fill="#252324"/>
<ellipse cx="285.232" cy="379.796" rx="0.624775" ry="0.62717" transform="rotate(-4.38329 285.232 379.796)" fill="#A70505"/>
<path d="M277.747 400.705C277.628 400.389 277.587 400.13 277.543 399.578C277.436 399.463 277.374 399.458 277.259 399.6C277.312 400.047 277.319 400.305 277.242 400.793C275.733 402.785 273.089 403.368 270.449 402.316C273.154 403.875 275.238 403.345 277.725 401.955C280.125 403.257 282.986 402.761 284.794 401.217C282.447 402.692 279.432 402.576 277.747 400.705Z" fill="#252324"/>
<path d="M280.937 395.349C281.719 394.731 280.752 392.934 280.351 387.7C279.833 386.143 280.696 392.204 280.576 394.611C279.695 394.159 279.114 394.174 277.955 394.572C277.256 394.825 276.802 394.857 275.89 394.731C274.863 394.494 274.318 394.61 273.387 395.162C273.347 392.538 272.748 387.122 272.631 388.195C273.178 392.43 272.179 395.255 273.24 396.15C274.72 396.939 276.011 397.317 275.913 398.379C276.374 398.839 276.627 399.088 277.416 399.282C278.025 399.033 278.277 398.739 278.677 398.13C278.236 397.169 280.01 396.712 280.937 395.349Z" fill="#252324"/>
</g>
<path d="M198.755 745.035C163.231 739.18 115.216 716.538 49.6332 727.469C115.996 761.431 148.397 770.019 190.948 823.5L282.295 823.5C277.22 799.687 243.318 766.152 198.755 745.035Z" fill="#53575A"/>
<path fill-rule="evenodd" clip-rule="evenodd" d="M76.2676 622.632C79.7964 622.632 82.6571 625.493 82.6571 629.021L82.6571 756.31C82.6571 759.839 79.7964 762.699 76.2676 762.699C72.7388 762.699 69.8782 759.839 69.8782 756.31L69.8782 629.021C69.8782 625.493 72.7388 622.632 76.2676 622.632Z" fill="black"/>
<path d="M0.262939 717.535C0.262939 717.535 74.0483 733.957 130.551 733.957C184.524 733.957 200.19 823.493 200.19 823.493H0.262939V717.535Z" fill="#53575A"/>
<path d="M194.238 823.5H169.927C168.104 813.483 166.362 807.072 161.486 793.679C153.877 780.453 147.257 774.031 132.275 763.918C110.392 751.062 96.1159 745.029 65.0294 737.565C60.3658 734.998 58.3143 732.959 55.7083 728.199L62.1742 729.154L114.809 734.119C134.882 732.685 145.186 735.917 161.486 750.506C179.686 773.729 188.341 794.393 194.238 823.5Z" fill="#63686B"/>
<path d="M178.136 628.622C142.292 638.754 124.841 619.202 80.4696 628.622L80.4696 680.925C124.841 672.001 140.704 689.437 178.136 680.925V628.622Z" fill="#040332" fill-opacity="0.9"/>
<path d="M106.397 648.996C106.807 648.996 107.142 648.965 107.403 648.903C107.676 648.828 107.893 648.735 108.055 648.623C108.216 648.499 108.328 648.356 108.39 648.195C108.452 648.033 108.483 647.853 108.483 647.655C108.483 647.232 108.284 646.885 107.887 646.612C107.49 646.326 106.807 646.022 105.838 645.699C105.416 645.55 104.994 645.382 104.572 645.196C104.15 644.997 103.771 644.755 103.436 644.47C103.1 644.172 102.827 643.818 102.616 643.408C102.405 642.986 102.299 642.477 102.299 641.881C102.299 641.285 102.411 640.751 102.635 640.279C102.858 639.795 103.175 639.385 103.585 639.05C103.994 638.714 104.491 638.46 105.075 638.286C105.658 638.1 106.316 638.007 107.049 638.007C107.918 638.007 108.669 638.1 109.303 638.286C109.936 638.472 110.457 638.677 110.867 638.901L110.029 641.192C109.669 641.005 109.265 640.844 108.818 640.707C108.384 640.558 107.856 640.484 107.235 640.484C106.54 640.484 106.037 640.583 105.727 640.782C105.429 640.968 105.28 641.26 105.28 641.657C105.28 641.893 105.335 642.092 105.447 642.253C105.559 642.415 105.714 642.564 105.913 642.7C106.124 642.824 106.36 642.942 106.621 643.054C106.894 643.153 107.192 643.259 107.515 643.371C108.185 643.619 108.769 643.867 109.265 644.116C109.762 644.352 110.172 644.631 110.495 644.954C110.83 645.277 111.078 645.655 111.24 646.09C111.401 646.525 111.482 647.052 111.482 647.673C111.482 648.878 111.06 649.815 110.215 650.486C109.371 651.144 108.098 651.473 106.397 651.473C105.826 651.473 105.311 651.436 104.851 651.361C104.392 651.299 103.982 651.218 103.622 651.119C103.274 651.02 102.97 650.914 102.709 650.802C102.461 650.691 102.25 650.585 102.076 650.486L102.895 648.176C103.28 648.387 103.752 648.58 104.311 648.754C104.882 648.915 105.578 648.996 106.397 648.996Z" fill="#D9D9D9"/>
<path d="M113.066 646.388C113.066 645.519 113.196 644.761 113.457 644.116C113.73 643.458 114.084 642.911 114.518 642.477C114.953 642.042 115.45 641.713 116.008 641.49C116.58 641.266 117.163 641.154 117.759 641.154C119.15 641.154 120.249 641.583 121.056 642.439C121.863 643.284 122.267 644.532 122.267 646.183C122.267 646.345 122.26 646.525 122.248 646.723C122.236 646.91 122.223 647.077 122.211 647.226H115.915C115.977 647.797 116.244 648.251 116.716 648.586C117.188 648.921 117.821 649.089 118.616 649.089C119.125 649.089 119.622 649.045 120.106 648.958C120.603 648.859 121.006 648.741 121.317 648.605L121.689 650.858C121.54 650.933 121.342 651.007 121.093 651.082C120.845 651.156 120.566 651.218 120.255 651.268C119.957 651.33 119.634 651.38 119.287 651.417C118.939 651.454 118.591 651.473 118.244 651.473C117.362 651.473 116.592 651.342 115.934 651.082C115.288 650.821 114.748 650.467 114.314 650.02C113.891 649.561 113.575 649.02 113.364 648.4C113.165 647.779 113.066 647.108 113.066 646.388ZM119.585 645.326C119.572 645.09 119.529 644.861 119.454 644.637C119.392 644.414 119.287 644.215 119.138 644.041C119.001 643.867 118.821 643.725 118.597 643.613C118.386 643.501 118.119 643.445 117.797 643.445C117.486 643.445 117.219 643.501 116.996 643.613C116.772 643.712 116.586 643.849 116.437 644.023C116.288 644.196 116.17 644.401 116.083 644.637C116.008 644.861 115.953 645.09 115.915 645.326H119.585Z" fill="#D9D9D9"/>
<path d="M133.106 641.415C132.548 643.302 131.964 645.072 131.356 646.723C130.747 648.375 130.083 649.977 129.363 651.529C129.102 652.087 128.841 652.559 128.58 652.944C128.32 653.342 128.034 653.664 127.724 653.913C127.413 654.174 127.059 654.36 126.662 654.472C126.277 654.596 125.824 654.658 125.302 654.658C124.868 654.658 124.464 654.614 124.092 654.527C123.732 654.453 123.434 654.366 123.198 654.267L123.682 652.05C123.968 652.15 124.222 652.218 124.446 652.255C124.669 652.292 124.905 652.311 125.153 652.311C125.65 652.311 126.029 652.174 126.29 651.901C126.563 651.64 126.792 651.274 126.979 650.802C126.345 649.561 125.712 648.17 125.079 646.63C124.446 645.078 123.85 643.34 123.291 641.415H126.234C126.358 641.899 126.501 642.427 126.662 642.998C126.836 643.557 127.016 644.128 127.202 644.712C127.388 645.283 127.575 645.842 127.761 646.388C127.96 646.934 128.146 647.431 128.32 647.878C128.481 647.431 128.649 646.934 128.823 646.388C128.996 645.842 129.164 645.283 129.325 644.712C129.499 644.128 129.661 643.557 129.81 642.998C129.971 642.427 130.114 641.899 130.238 641.415H133.106Z" fill="#D9D9D9"/>
<path d="M134.594 641.75C135.066 641.614 135.674 641.49 136.42 641.378C137.165 641.254 137.947 641.192 138.766 641.192C139.598 641.192 140.287 641.303 140.834 641.527C141.393 641.738 141.833 642.042 142.156 642.439C142.479 642.837 142.709 643.309 142.845 643.855C142.982 644.401 143.05 645.01 143.05 645.68V651.212H140.275V646.016C140.275 645.122 140.157 644.488 139.921 644.116C139.685 643.743 139.244 643.557 138.599 643.557C138.4 643.557 138.189 643.569 137.965 643.594C137.742 643.607 137.543 643.625 137.369 643.65V651.212H134.594V641.75Z" fill="#D9D9D9"/>
<path d="M145.097 646.388C145.097 645.519 145.227 644.761 145.488 644.116C145.761 643.458 146.115 642.911 146.549 642.477C146.984 642.042 147.481 641.713 148.039 641.49C148.611 641.266 149.194 641.154 149.79 641.154C151.181 641.154 152.28 641.583 153.087 642.439C153.894 643.284 154.298 644.532 154.298 646.183C154.298 646.345 154.291 646.525 154.279 646.723C154.267 646.91 154.254 647.077 154.242 647.226H147.946C148.008 647.797 148.275 648.251 148.747 648.586C149.219 648.921 149.852 649.089 150.647 649.089C151.156 649.089 151.653 649.045 152.137 648.958C152.634 648.859 153.037 648.741 153.348 648.605L153.72 650.858C153.571 650.933 153.373 651.007 153.124 651.082C152.876 651.156 152.596 651.218 152.286 651.268C151.988 651.33 151.665 651.38 151.318 651.417C150.97 651.454 150.622 651.473 150.274 651.473C149.393 651.473 148.623 651.342 147.965 651.082C147.319 650.821 146.779 650.467 146.344 650.02C145.922 649.561 145.606 649.02 145.395 648.4C145.196 647.779 145.097 647.108 145.097 646.388ZM151.616 645.326C151.603 645.09 151.56 644.861 151.485 644.637C151.423 644.414 151.318 644.215 151.169 644.041C151.032 643.867 150.852 643.725 150.628 643.613C150.417 643.501 150.15 643.445 149.827 643.445C149.517 643.445 149.25 643.501 149.027 643.613C148.803 643.712 148.617 643.849 148.468 644.023C148.319 644.196 148.201 644.401 148.114 644.637C148.039 644.861 147.984 645.09 147.946 645.326H151.616Z" fill="#D9D9D9"/>
<path d="M282.295 823.5H255.665L247.082 802.519L229.754 779.163L205.394 758.57C197.653 751.049 191.547 747.969 180.684 742.05L198.819 745.934C241.978 766.993 273.128 794.473 282.295 823.5Z" fill="#63686B"/>
<path d="M122.914 663.425C122.914 663.708 122.852 663.981 122.727 664.242C122.603 664.503 122.441 664.756 122.242 665.003C122.043 665.241 121.819 665.473 121.571 665.696C121.322 665.92 121.077 666.133 120.837 666.334C120.712 666.439 120.575 666.558 120.426 666.692C120.285 666.819 120.148 666.95 120.016 667.084C119.883 667.218 119.763 667.345 119.655 667.465C119.555 667.576 119.493 667.67 119.468 667.744H123.175V669.143H117.428C117.412 669.061 117.403 668.957 117.403 668.83C117.403 668.703 117.403 668.613 117.403 668.561C117.403 668.203 117.465 667.875 117.59 667.576C117.723 667.278 117.893 667.002 118.1 666.748C118.307 666.487 118.539 666.245 118.797 666.021C119.062 665.797 119.323 665.573 119.58 665.35C119.779 665.178 119.966 665.018 120.14 664.868C120.314 664.712 120.468 664.563 120.6 664.421C120.733 664.272 120.837 664.126 120.911 663.984C120.986 663.835 121.023 663.686 121.023 663.537C121.023 663.208 120.92 662.977 120.712 662.843C120.505 662.709 120.248 662.641 119.941 662.641C119.717 662.641 119.506 662.675 119.307 662.742C119.116 662.802 118.937 662.876 118.772 662.966C118.614 663.048 118.477 663.134 118.361 663.223C118.245 663.305 118.158 663.373 118.1 663.425L117.179 662.261C117.544 661.955 117.967 661.705 118.448 661.511C118.937 661.31 119.46 661.209 120.016 661.209C120.521 661.209 120.957 661.261 121.322 661.366C121.687 661.47 121.985 661.619 122.217 661.813C122.458 662 122.632 662.231 122.74 662.507C122.856 662.776 122.914 663.082 122.914 663.425Z" fill="#D9D9D9"/>
<path d="M130.457 665.249C130.457 666.554 130.179 667.558 129.624 668.259C129.076 668.953 128.317 669.3 127.347 669.3C126.377 669.3 125.614 668.953 125.058 668.259C124.511 667.558 124.237 666.554 124.237 665.249C124.237 664.6 124.308 664.025 124.449 663.526C124.598 663.026 124.809 662.604 125.083 662.261C125.357 661.918 125.684 661.657 126.066 661.478C126.447 661.299 126.874 661.209 127.347 661.209C128.317 661.209 129.076 661.56 129.624 662.261C130.179 662.955 130.457 663.951 130.457 665.249ZM128.566 665.249C128.566 664.861 128.546 664.51 128.504 664.197C128.463 663.876 128.396 663.6 128.305 663.369C128.214 663.138 128.089 662.959 127.932 662.832C127.774 662.705 127.579 662.641 127.347 662.641C127.115 662.641 126.92 662.705 126.762 662.832C126.613 662.959 126.489 663.138 126.389 663.369C126.298 663.6 126.232 663.876 126.19 664.197C126.149 664.51 126.128 664.861 126.128 665.249C126.128 665.637 126.149 665.991 126.19 666.312C126.232 666.633 126.298 666.909 126.389 667.14C126.489 667.371 126.613 667.55 126.762 667.677C126.92 667.804 127.115 667.867 127.347 667.867C127.579 667.867 127.774 667.804 127.932 667.677C128.089 667.55 128.214 667.371 128.305 667.14C128.396 666.909 128.463 666.633 128.504 666.312C128.546 665.991 128.566 665.637 128.566 665.249Z" fill="#D9D9D9"/>
<path d="M137.055 663.425C137.055 663.708 136.992 663.981 136.868 664.242C136.744 664.503 136.582 664.756 136.383 665.003C136.184 665.241 135.96 665.473 135.711 665.696C135.462 665.92 135.218 666.133 134.977 666.334C134.853 666.439 134.716 666.558 134.567 666.692C134.426 666.819 134.289 666.95 134.156 667.084C134.024 667.218 133.903 667.345 133.795 667.465C133.696 667.576 133.634 667.67 133.609 667.744H137.316V669.143H131.569C131.552 669.061 131.544 668.957 131.544 668.83C131.544 668.703 131.544 668.613 131.544 668.561C131.544 668.203 131.606 667.875 131.73 667.576C131.863 667.278 132.033 667.002 132.24 666.748C132.448 666.487 132.68 666.245 132.937 666.021C133.202 665.797 133.464 665.573 133.721 665.35C133.92 665.178 134.106 665.018 134.281 664.868C134.455 664.712 134.608 664.563 134.741 664.421C134.874 664.272 134.977 664.126 135.052 663.984C135.127 663.835 135.164 663.686 135.164 663.537C135.164 663.208 135.06 662.977 134.853 662.843C134.646 662.709 134.388 662.641 134.082 662.641C133.858 662.641 133.646 662.675 133.447 662.742C133.256 662.802 133.078 662.876 132.912 662.966C132.755 663.048 132.618 663.134 132.502 663.223C132.386 663.305 132.299 663.373 132.24 663.425L131.32 662.261C131.685 661.955 132.108 661.705 132.589 661.511C133.078 661.31 133.601 661.209 134.156 661.209C134.662 661.209 135.097 661.261 135.462 661.366C135.827 661.47 136.126 661.619 136.358 661.813C136.599 662 136.773 662.231 136.881 662.507C136.997 662.776 137.055 663.082 137.055 663.425Z" fill="#D9D9D9"/>
<path d="M144.598 665.249C144.598 666.554 144.32 667.558 143.764 668.259C143.217 668.953 142.458 669.3 141.488 669.3C140.517 669.3 139.754 668.953 139.199 668.259C138.651 667.558 138.378 666.554 138.378 665.249C138.378 664.6 138.448 664.025 138.589 663.526C138.739 663.026 138.95 662.604 139.224 662.261C139.497 661.918 139.825 661.657 140.206 661.478C140.588 661.299 141.015 661.209 141.488 661.209C142.458 661.209 143.217 661.56 143.764 662.261C144.32 662.955 144.598 663.951 144.598 665.249ZM142.707 665.249C142.707 664.861 142.686 664.51 142.645 664.197C142.603 663.876 142.537 663.6 142.446 663.369C142.354 663.138 142.23 662.959 142.072 662.832C141.915 662.705 141.72 662.641 141.488 662.641C141.256 662.641 141.061 662.705 140.903 662.832C140.754 662.959 140.629 663.138 140.53 663.369C140.439 663.6 140.372 663.876 140.331 664.197C140.289 664.51 140.269 664.861 140.269 665.249C140.269 665.637 140.289 665.991 140.331 666.312C140.372 666.633 140.439 666.909 140.53 667.14C140.629 667.371 140.754 667.55 140.903 667.677C141.061 667.804 141.256 667.867 141.488 667.867C141.72 667.867 141.915 667.804 142.072 667.677C142.23 667.55 142.354 667.371 142.446 667.14C142.537 666.909 142.603 666.633 142.645 666.312C142.686 665.991 142.707 665.637 142.707 665.249Z" fill="#D9D9D9"/>
<g filter="url(#filter4_d)">
<path d="M68.9065 42.5715C72.5715 42.5715 75.3854 43.2218 77.3479 44.5223C79.3105 45.7992 80.2918 47.9036 80.2918 50.8356C80.2918 53.7913 79.2987 55.9313 77.3125 57.2554C75.3263 58.5559 72.4888 59.2062 68.8001 59.2062H67.0621V67.4348H61.5291V43.21C62.735 42.9735 64.0119 42.808 65.3597 42.7134C66.7075 42.6188 67.8897 42.5715 68.9065 42.5715ZM69.2612 47.2888C68.8592 47.2888 68.4572 47.3006 68.0553 47.3243C67.6769 47.3479 67.3459 47.3716 67.0621 47.3952V54.4889H68.8001C70.7154 54.4889 72.1578 54.2288 73.1272 53.7086C74.0967 53.1884 74.5814 52.2189 74.5814 50.8002C74.5814 50.1145 74.4514 49.547 74.1913 49.0977C73.9548 48.6484 73.6001 48.2938 73.1272 48.0337C72.678 47.7499 72.1223 47.5607 71.4602 47.4662C70.7981 47.3479 70.0651 47.2888 69.2612 47.2888ZM91.5549 42.5715C95.2436 42.5715 98.0693 43.2336 100.032 44.5578C101.994 45.8583 102.976 47.8918 102.976 50.6583C102.976 52.3844 102.574 53.7913 101.77 54.879C100.99 55.9431 99.8545 56.7825 98.3649 57.3973C98.8614 58.0121 99.3816 58.7214 99.9255 59.5254C100.469 60.3057 101.001 61.1333 101.522 62.0082C102.065 62.8594 102.586 63.7579 103.082 64.7038C103.579 65.6259 104.04 66.5363 104.465 67.4348H98.2584C97.8092 66.6309 97.3481 65.8151 96.8752 64.9875C96.4259 64.1599 95.953 63.356 95.4565 62.5757C94.9835 61.7954 94.5106 61.0623 94.0377 60.3766C93.5648 59.6673 93.0919 59.0288 92.619 58.4613H89.8879V67.4348H84.3549V43.21C85.5608 42.9735 86.8022 42.808 88.079 42.7134C89.3796 42.6188 90.5382 42.5715 91.5549 42.5715ZM91.8742 47.2888C91.4722 47.2888 91.1057 47.3006 90.7746 47.3243C90.4672 47.3479 90.1717 47.3716 89.8879 47.3952V54.0633H91.4485C93.5293 54.0633 95.019 53.8032 95.9175 53.283C96.8161 52.7628 97.2653 51.8761 97.2653 50.6228C97.2653 49.4169 96.8042 48.5657 95.8821 48.0691C94.9835 47.5489 93.6476 47.2888 91.8742 47.2888ZM112.035 55.1273C112.035 56.3332 112.177 57.4209 112.46 58.3904C112.768 59.3599 113.193 60.1993 113.737 60.9086C114.305 61.5944 114.991 62.1264 115.794 62.5047C116.598 62.883 117.521 63.0722 118.561 63.0722C119.578 63.0722 120.488 62.883 121.292 62.5047C122.12 62.1264 122.805 61.5944 123.349 60.9086C123.917 60.1993 124.342 59.3599 124.626 58.3904C124.933 57.4209 125.087 56.3332 125.087 55.1273C125.087 53.9214 124.933 52.8337 124.626 51.8642C124.342 50.8711 123.917 50.0317 123.349 49.346C122.805 48.6366 122.12 48.0928 121.292 47.7144C120.488 47.3361 119.578 47.1469 118.561 47.1469C117.521 47.1469 116.598 47.3479 115.794 47.7499C114.991 48.1282 114.305 48.6721 113.737 49.3814C113.193 50.0672 112.768 50.9066 112.46 51.8997C112.177 52.8692 112.035 53.945 112.035 55.1273ZM130.798 55.1273C130.798 57.2318 130.478 59.0879 129.84 60.6958C129.225 62.2801 128.374 63.6161 127.286 64.7038C126.199 65.7678 124.898 66.5718 123.385 67.1156C121.895 67.6594 120.287 67.9314 118.561 67.9314C116.882 67.9314 115.298 67.6594 113.808 67.1156C112.319 66.5718 111.018 65.7678 109.907 64.7038C108.795 63.6161 107.921 62.2801 107.282 60.6958C106.644 59.0879 106.324 57.2318 106.324 55.1273C106.324 53.0229 106.655 51.1785 107.318 49.5943C107.98 47.9864 108.866 46.6386 109.978 45.5509C111.113 44.4632 112.413 43.6474 113.879 43.1036C115.369 42.5597 116.929 42.2878 118.561 42.2878C120.24 42.2878 121.824 42.5597 123.314 43.1036C124.803 43.6474 126.104 44.4632 127.215 45.5509C128.327 46.6386 129.201 47.9864 129.84 49.5943C130.478 51.1785 130.798 53.0229 130.798 55.1273ZM148.175 67.4348C147.49 66.0634 146.733 64.6801 145.905 63.285C145.101 61.8663 144.167 60.4239 143.103 58.9579C142.772 59.3835 142.347 59.9746 141.827 60.7313C141.33 61.488 140.822 62.2919 140.301 63.1431C139.805 63.9944 139.332 64.8102 138.883 65.5905C138.433 66.3708 138.102 66.9855 137.89 67.4348H131.576C132.617 65.5195 133.823 63.5097 135.194 61.4052C136.589 59.3008 138.138 57.0662 139.84 54.7017L131.931 42.8553H138.634L143.423 50.5164L148.104 42.8553H154.418L146.615 54.7726C148.601 57.35 150.268 59.7382 151.616 61.9372C152.964 64.1126 154.028 65.9451 154.808 67.4348H148.175ZM157.993 42.8553H163.526V67.4348H157.993V42.8553ZM175.742 42.8553C176.167 43.6356 176.652 44.6051 177.196 45.7637C177.763 46.8987 178.343 48.1401 178.934 49.4879C179.549 50.812 180.152 52.1716 180.743 53.5667C181.334 54.9618 181.89 56.2741 182.41 57.5037C182.93 56.2741 183.486 54.9618 184.077 53.5667C184.668 52.1716 185.259 50.812 185.85 49.4879C186.465 48.1401 187.044 46.8987 187.588 45.7637C188.156 44.6051 188.652 43.6356 189.078 42.8553H194.114C194.351 44.4868 194.564 46.3194 194.753 48.3529C194.966 50.3627 195.143 52.4672 195.285 54.6662C195.45 56.8416 195.592 59.0288 195.71 61.2279C195.852 63.4269 195.97 65.4959 196.065 67.4348H190.674C190.603 65.0466 190.508 62.4456 190.39 59.6318C190.272 56.818 190.095 53.9805 189.858 51.1194C189.432 52.1125 188.96 53.212 188.439 54.4179C187.919 55.6239 187.399 56.8298 186.879 58.0357C186.382 59.2416 185.897 60.4003 185.425 61.5116C184.952 62.5993 184.55 63.5333 184.219 64.3136H180.353C180.022 63.5333 179.62 62.5993 179.147 61.5116C178.674 60.4003 178.177 59.2416 177.657 58.0357C177.16 56.8298 176.652 55.6239 176.132 54.4179C175.612 53.212 175.139 52.1125 174.713 51.1194C174.477 53.9805 174.299 56.818 174.181 59.6318C174.063 62.4456 173.968 65.0466 173.897 67.4348H168.506C168.601 65.4959 168.707 63.4269 168.825 61.2279C168.967 59.0288 169.109 56.8416 169.251 54.6662C169.417 52.4672 169.594 50.3627 169.783 48.3529C169.996 46.3194 170.22 44.4868 170.457 42.8553H175.742ZM217.504 67.4348C217.244 66.5836 216.949 65.7087 216.618 64.8102C216.31 63.9116 216.003 63.0131 215.695 62.1146H206.119C205.812 63.0131 205.492 63.9116 205.161 64.8102C204.854 65.7087 204.57 66.5836 204.31 67.4348H198.564C199.486 64.7865 200.361 62.3392 201.189 60.0929C202.016 57.8466 202.82 55.7303 203.601 53.7441C204.405 51.7578 205.185 49.878 205.942 48.1046C206.722 46.3075 207.526 44.5578 208.353 42.8553H213.638C214.442 44.5578 215.234 46.3075 216.015 48.1046C216.795 49.878 217.575 51.7578 218.355 53.7441C219.159 55.7303 219.975 57.8466 220.803 60.0929C221.63 62.3392 222.505 64.7865 223.427 67.4348H217.504ZM210.872 48.4238C210.753 48.7785 210.576 49.2632 210.34 49.878C210.103 50.4928 209.831 51.2022 209.524 52.0061C209.216 52.8101 208.874 53.6968 208.495 54.6662C208.141 55.6357 207.774 56.6525 207.396 57.7165H214.383C214.005 56.6525 213.638 55.6357 213.284 54.6662C212.929 53.6968 212.586 52.8101 212.255 52.0061C211.948 51.2022 211.676 50.4928 211.439 49.878C211.203 49.2632 211.014 48.7785 210.872 48.4238ZM233.135 42.8553C233.561 43.6356 234.046 44.6051 234.589 45.7637C235.157 46.8987 235.736 48.1401 236.327 49.4879C236.942 50.812 237.545 52.1716 238.136 53.5667C238.727 54.9618 239.283 56.2741 239.803 57.5037C240.323 56.2741 240.879 54.9618 241.47 53.5667C242.061 52.1716 242.653 50.812 243.244 49.4879C243.859 48.1401 244.438 46.8987 244.982 45.7637C245.549 44.6051 246.046 43.6356 246.471 42.8553H251.508C251.744 44.4868 251.957 46.3194 252.146 48.3529C252.359 50.3627 252.536 52.4672 252.678 54.6662C252.844 56.8416 252.986 59.0288 253.104 61.2279C253.246 63.4269 253.364 65.4959 253.459 67.4348H248.067C247.996 65.0466 247.902 62.4456 247.784 59.6318C247.665 56.818 247.488 53.9805 247.252 51.1194C246.826 52.1125 246.353 53.212 245.833 54.4179C245.313 55.6239 244.793 56.8298 244.272 58.0357C243.776 59.2416 243.291 60.4003 242.818 61.5116C242.345 62.5993 241.943 63.5333 241.612 64.3136H237.746C237.415 63.5333 237.013 62.5993 236.54 61.5116C236.067 60.4003 235.571 59.2416 235.051 58.0357C234.554 56.8298 234.046 55.6239 233.525 54.4179C233.005 53.212 232.532 52.1125 232.107 51.1194C231.87 53.9805 231.693 56.818 231.575 59.6318C231.456 62.4456 231.362 65.0466 231.291 67.4348H225.9C225.994 65.4959 226.101 63.4269 226.219 61.2279C226.361 59.0288 226.503 56.8416 226.645 54.6662C226.81 52.4672 226.987 50.3627 227.177 48.3529C227.389 46.3194 227.614 44.4868 227.85 42.8553H233.135ZM258.44 67.4348V42.8553H275.04V47.5016H263.974V52.3253H273.798V56.8653H263.974V62.7885H275.855V67.4348H258.44ZM296.443 67.4348C294.859 64.621 293.144 61.8426 291.3 59.0998C289.456 56.3569 287.493 53.7677 285.412 51.3322V67.4348H279.95V42.8553H284.455C285.235 43.6356 286.098 44.5932 287.044 45.7282C287.99 46.8632 288.947 48.0809 289.917 49.3814C290.91 50.6583 291.891 51.9943 292.861 53.3894C293.83 54.7608 294.74 56.085 295.592 57.3618V42.8553H301.089V67.4348H296.443ZM324.99 42.8553V47.5726H317.577V67.4348H312.044V47.5726H304.631V42.8553H324.99ZM328.546 67.4348V42.8553H345.145V47.5016H334.079V52.3253H343.904V56.8653H334.079V62.7885H345.961V67.4348H328.546Z" fill="#F5F5F5"/>
</g>
</g>
<defs>
<filter id="filter0_b" x="285.504" y="711.454" width="39.8101" height="30.5116" filterUnits="userSpaceOnUse" color-interpolation-filters="sRGB">
<feFlood flood-opacity="0" result="BackgroundImageFix"/>
<feGaussianBlur in="BackgroundImage" stdDeviation="2"/>
<feComposite in2="SourceAlpha" operator="in" result="effect1_backgroundBlur"/>
<feBlend mode="normal" in="SourceGraphic" in2="effect1_backgroundBlur" result="shape"/>
</filter>
<filter id="filter1_b" x="330.069" y="719.119" width="39.8101" height="30.5116" filterUnits="userSpaceOnUse" color-interpolation-filters="sRGB">
<feFlood flood-opacity="0" result="BackgroundImageFix"/>
<feGaussianBlur in="BackgroundImage" stdDeviation="2"/>
<feComposite in2="SourceAlpha" operator="in" result="effect1_backgroundBlur"/>
<feBlend mode="normal" in="SourceGraphic" in2="effect1_backgroundBlur" result="shape"/>
</filter>
<filter id="filter2_b" x="242.466" y="391.345" width="33.7569" height="26.1094" filterUnits="userSpaceOnUse" color-interpolation-filters="sRGB">
<feFlood flood-opacity="0" result="BackgroundImageFix"/>
<feGaussianBlur in="BackgroundImage" stdDeviation="2"/>
<feComposite in2="SourceAlpha" operator="in" result="effect1_backgroundBlur"/>
<feBlend mode="normal" in="SourceGraphic" in2="effect1_backgroundBlur" result="shape"/>
</filter>
<filter id="filter3_b" x="279.592" y="388.499" width="33.7569" height="26.1094" filterUnits="userSpaceOnUse" color-interpolation-filters="sRGB">
<feFlood flood-opacity="0" result="BackgroundImageFix"/>
<feGaussianBlur in="BackgroundImage" stdDeviation="2"/>
<feComposite in2="SourceAlpha" operator="in" result="effect1_backgroundBlur"/>
<feBlend mode="normal" in="SourceGraphic" in2="effect1_backgroundBlur" result="shape"/>
</filter>
<filter id="filter4_d" x="61.5291" y="42.2878" width="289.452" height="31.2914" filterUnits="userSpaceOnUse" color-interpolation-filters="sRGB">
<feFlood flood-opacity="0" result="BackgroundImageFix"/>
<feColorMatrix in="SourceAlpha" type="matrix" values="0 0 0 0 0 0 0 0 0 0 0 0 0 0 0 0 0 0 127 0"/>
<feOffset dx="2.51012" dy="3.13765"/>
<feGaussianBlur stdDeviation="1.25506"/>
<feColorMatrix type="matrix" values="0 0 0 0 1 0 0 0 0 1 0 0 0 0 1 0 0 0 0.4 0"/>
<feBlend mode="normal" in2="BackgroundImageFix" result="effect1_dropShadow"/>
<feBlend mode="normal" in="SourceGraphic" in2="effect1_dropShadow" result="shape"/>
</filter>
<clipPath id="clip0">
<rect width="411" height="823" fill="white" transform="translate(0.262939 0.5)"/>
</clipPath>
</defs>
</svg>
