<svg width="1440" height="1024" viewBox="0 0 1440 1024" fill="none" xmlns="http://www.w3.org/2000/svg">
<g clip-path="url(#clip0)">
<rect width="1440" height="1024" fill="#3C576A"/>
<g opacity="0.91" filter="url(#filter0_d)">
<ellipse cx="34.7005" cy="-9.74663" rx="10.5683" ry="9.53803" transform="rotate(-117 34.7005 -9.74663)" fill="#053885"/>
</g>
<g opacity="0.95" filter="url(#filter1_d)">
<ellipse cx="710.832" cy="126.687" rx="14.6446" ry="13.217" transform="rotate(115 710.832 126.687)" fill="#053885"/>
</g>
<g opacity="0.86" filter="url(#filter2_d)">
<ellipse cx="1367.02" cy="256.647" rx="14.1917" ry="12.8082" transform="rotate(83 1367.02 256.647)" fill="#053885"/>
</g>
<g opacity="0.83" filter="url(#filter3_d)">
<ellipse cx="360.832" cy="299.998" rx="12.0781" ry="10.9006" transform="rotate(-80 360.832 299.998)" fill="#053885"/>
</g>
<g opacity="0.75" filter="url(#filter4_d)">
<ellipse cx="591.949" cy="482.989" rx="17.8151" ry="16.0784" transform="rotate(3 591.949 482.989)" fill="#053885"/>
</g>
<g opacity="0.94" filter="url(#filter5_d)">
<ellipse cx="994.193" cy="307.968" rx="16.4564" ry="14.8521" transform="rotate(29 994.193 307.968)" fill="#053885"/>
</g>
<g opacity="0.88" filter="url(#filter6_d)">
<ellipse cx="384.907" cy="707.665" rx="14.4937" ry="13.0807" transform="rotate(160 384.907 707.665)" fill="#053885"/>
</g>
<g opacity="0.71" filter="url(#filter7_d)">
<ellipse cx="869.786" cy="723.498" rx="17.5132" ry="15.8059" transform="rotate(-1 869.786 723.498)" fill="#053885"/>
</g>
<g opacity="0.73" filter="url(#filter8_d)">
<ellipse cx="1298.42" cy="555.173" rx="9.9644" ry="8.993" transform="rotate(59 1298.42 555.173)" fill="#053885"/>
</g>
<g opacity="0.74" filter="url(#filter9_d)">
<ellipse cx="390.976" cy="951.54" rx="15.2486" ry="13.762" transform="rotate(48 390.976 951.54)" fill="#053885"/>
</g>
<g opacity="0.98" filter="url(#filter10_d)">
<ellipse cx="867.424" cy="828.295" rx="11.6251" ry="10.4918" transform="rotate(-161 867.424 828.295)" fill="#053885"/>
</g>
<g opacity="0.85" filter="url(#filter11_d)">
<ellipse cx="1324.92" cy="856.787" rx="9.81342" ry="8.85674" transform="rotate(171 1324.92 856.787)" fill="#053885"/>
</g>
<g opacity="0.78">
<path d="M1355.91 162.262C1355.91 230.717 1300.41 286.211 1231.96 286.211C1163.5 286.211 1108.01 230.717 1108.01 162.262C1108.01 93.8064 1163.5 38.3125 1231.96 38.3125C1300.41 38.3125 1355.91 93.8064 1355.91 162.262Z" fill="#4E4949"/>
<path fill-rule="evenodd" clip-rule="evenodd" d="M1231.96 280.992C1297.61 280.992 1350.74 227.781 1350.74 162.262C1350.74 96.7427 1297.61 43.5314 1231.96 43.5314C1166.3 43.5314 1113.17 96.7427 1113.17 162.262C1113.17 227.781 1166.3 280.992 1231.96 280.992ZM1231.96 286.211C1300.41 286.211 1355.91 230.717 1355.91 162.262C1355.91 93.8064 1300.41 38.3125 1231.96 38.3125C1163.5 38.3125 1108.01 93.8064 1108.01 162.262C1108.01 230.717 1163.5 286.211 1231.96 286.211Z" fill="black"/>
<path d="M1331.12 162.262C1331.12 217.026 1286.72 261.421 1231.96 261.421C1177.19 261.421 1132.8 217.026 1132.8 162.262C1132.8 107.497 1177.19 63.1023 1231.96 63.1023C1286.72 63.1023 1331.12 107.497 1331.12 162.262Z" fill="#525252"/>
<path fill-rule="evenodd" clip-rule="evenodd" d="M1231.96 258.29C1285.04 258.29 1328.02 215.264 1328.02 162.262C1328.02 109.259 1285.04 66.2336 1231.96 66.2336C1178.87 66.2336 1135.89 109.259 1135.89 162.262C1135.89 215.264 1178.87 258.29 1231.96 258.29ZM1231.96 261.421C1286.72 261.421 1331.12 217.026 1331.12 162.262C1331.12 107.497 1286.72 63.1023 1231.96 63.1023C1177.19 63.1023 1132.8 107.497 1132.8 162.262C1132.8 217.026 1177.19 261.421 1231.96 261.421Z" fill="black"/>
<path d="M1277.27 119.644C1284.67 106.756 1287.07 100.873 1295.4 89.6725C1285.13 81.3778 1280.01 76.9433 1265.82 72.3242C1258.84 83.8314 1252.5 89.419 1244.59 100.81C1234.25 102.159 1228.88 105.185 1220.45 116.769C1217.31 123.044 1217.23 126.131 1220.43 130.757C1210.46 137.358 1210.24 143.998 1220.56 150.392C1223.16 157.578 1225.99 159.756 1233.15 160.766C1239.99 166.115 1242.78 166.434 1248.47 163.572C1257.25 169.866 1261.22 166.74 1267.18 153.422C1273.08 137.344 1277.15 127.196 1275.53 122.379C1276.7 121.349 1276.98 120.742 1277.27 119.644Z" fill="#0116D1"/>
<path fill-rule="evenodd" clip-rule="evenodd" d="M1265.71 72.013L1265.9 72.0759C1279.56 76.52 1284.85 80.8041 1294.32 88.4661C1294.73 88.794 1295.14 89.1281 1295.56 89.4687L1295.76 89.6268L1295.6 89.8293C1289.61 97.8965 1286.7 103.191 1282.76 110.36C1281.24 113.121 1279.57 116.161 1277.51 119.745C1277.36 120.286 1277.22 120.732 1276.95 121.173C1276.7 121.589 1276.35 121.989 1275.83 122.462C1276.2 123.693 1276.23 125.22 1275.99 127.035C1275.75 128.935 1275.2 131.173 1274.42 133.754C1273.14 138.021 1271.21 143.254 1268.91 149.482C1268.43 150.782 1267.94 152.126 1267.43 153.513L1267.42 153.521L1267.42 153.53C1265.93 156.863 1264.55 159.571 1263.19 161.655C1261.84 163.738 1260.48 165.219 1259.01 166.077C1256.06 167.802 1252.79 166.96 1248.44 163.875C1245.65 165.265 1243.51 165.904 1241.2 165.505C1238.88 165.105 1236.44 163.664 1233.05 161.015C1229.49 160.507 1226.95 159.701 1224.98 158.098C1223.02 156.498 1221.65 154.129 1220.35 150.567C1215.23 147.376 1212.62 144.065 1212.63 140.652C1212.64 137.276 1215.21 133.948 1220.06 130.686C1218.55 128.445 1217.79 126.519 1217.8 124.38C1217.82 122.182 1218.64 119.796 1220.22 116.651L1220.23 116.632L1220.24 116.614C1224.46 110.813 1227.93 107.13 1231.66 104.731C1235.37 102.347 1239.31 101.245 1244.45 100.566C1247.83 95.6971 1250.93 91.8854 1253.91 88.2199C1254.4 87.6259 1254.88 87.0357 1255.35 86.4455C1258.8 82.1893 1262.12 77.9263 1265.6 72.1878L1265.71 72.013ZM1265.94 72.6356C1262.48 78.3161 1259.17 82.5569 1255.75 86.776C1255.28 87.3675 1254.79 87.9586 1254.31 88.5531C1251.31 92.2422 1248.2 96.0634 1244.8 100.96L1244.74 101.054L1244.63 101.069C1239.47 101.741 1235.59 102.827 1231.94 105.172C1228.29 107.517 1224.87 111.134 1220.67 116.906C1219.11 120.026 1218.33 122.316 1218.32 124.383C1218.31 126.442 1219.06 128.318 1220.64 130.608L1220.79 130.828L1220.57 130.975C1215.6 134.268 1213.16 137.51 1213.15 140.653C1213.14 143.791 1215.55 146.982 1220.7 150.17L1220.78 150.217L1220.81 150.303C1222.1 153.879 1223.44 156.167 1225.31 157.692C1227.18 159.216 1229.62 160.005 1233.19 160.507L1233.26 160.517L1233.31 160.559C1236.73 163.232 1239.09 164.612 1241.29 164.991C1243.47 165.367 1245.52 164.762 1248.35 163.338L1248.49 163.269L1248.62 163.359C1252.99 166.494 1256.06 167.203 1258.75 165.626C1260.12 164.825 1261.43 163.42 1262.76 161.368C1264.1 159.319 1265.46 156.644 1266.95 153.323C1267.45 151.935 1267.95 150.593 1268.43 149.294C1270.73 143.066 1272.65 137.853 1273.93 133.601C1274.7 131.033 1275.24 128.826 1275.48 126.966C1275.72 125.104 1275.67 123.613 1275.28 122.463L1275.23 122.297L1275.36 122.182C1275.94 121.676 1276.28 121.287 1276.51 120.901C1276.74 120.516 1276.87 120.119 1277.02 119.577L1277.03 119.543L1277.04 119.513C1279.1 115.934 1280.77 112.894 1282.29 110.127C1286.21 103.006 1289.12 97.7027 1295.04 89.7184C1294.69 89.4326 1294.34 89.1514 1294 88.8747C1284.59 81.2592 1279.36 77.0277 1265.94 72.6356Z" fill="black"/>
<path fill-rule="evenodd" clip-rule="evenodd" d="M1261.91 106.006L1272.13 91.8634L1272.55 92.1713L1262.33 106.314L1261.91 106.006ZM1263.61 106.519L1268.99 99.2983L1269.41 99.6126L1264.02 106.833L1263.61 106.519ZM1256.68 105.7C1253.62 104.165 1251.73 103.397 1248.08 102.149L1248.25 101.654C1251.91 102.909 1253.82 103.685 1256.91 105.233L1256.68 105.7ZM1271.77 118.197C1269.15 115.154 1267.49 113.557 1264.32 110.811L1264.65 110.414C1267.84 113.173 1269.52 114.788 1272.16 117.854L1271.77 118.197ZM1246.81 124.948C1243.15 125.771 1239.69 125.582 1235.46 124.419L1235.59 123.916C1239.76 125.061 1243.13 125.239 1246.69 124.439C1250.26 123.636 1254.04 121.845 1259.01 119.017L1259.27 119.472C1254.29 122.304 1250.45 124.128 1246.81 124.948ZM1231.83 121.89C1231.89 121.551 1231.89 121.254 1231.83 120.96C1231.77 120.618 1231.63 120.296 1231.44 119.931L1230.99 120.176C1231.17 120.521 1231.28 120.789 1231.33 121.056C1231.37 121.318 1231.37 121.594 1231.3 121.959L1230.92 123.223C1230.72 123.173 1230.51 123.136 1230.3 123.111C1229.22 122.982 1228.06 123.167 1226.77 123.606L1226.93 124.101C1228.18 123.676 1229.26 123.512 1230.23 123.629C1231.2 123.745 1232.09 124.141 1232.96 124.868C1234.71 126.335 1236.39 129.134 1238.48 133.642C1238.81 134.556 1238.65 135.651 1238.13 136.755C1237.62 137.86 1236.76 138.939 1235.79 139.788C1234.8 140.64 1233.71 141.242 1232.73 141.42C1231.76 141.596 1230.91 141.36 1230.33 140.559C1229.01 138.74 1226.44 136.08 1224.21 133.886C1223.09 132.786 1222.06 131.799 1221.31 131.087C1220.93 130.731 1220.62 130.444 1220.41 130.245C1220.3 130.146 1220.22 130.069 1220.16 130.017L1220.1 129.958L1220.07 129.938C1220.07 129.938 1220.07 129.937 1219.9 130.13C1219.73 130.324 1219.73 130.324 1219.73 130.324L1219.73 130.325L1219.75 130.343L1219.81 130.402C1219.87 130.454 1219.95 130.531 1220.06 130.63C1220.27 130.827 1220.58 131.114 1220.95 131.469C1221.71 132.179 1222.74 133.163 1223.85 134.26C1226.08 136.458 1228.62 139.089 1229.91 140.868C1230.64 141.866 1231.71 142.136 1232.82 141.934C1233.93 141.734 1235.1 141.073 1236.12 140.185C1237.15 139.295 1238.05 138.158 1238.6 136.978C1239.15 135.802 1239.36 134.549 1238.97 133.451L1238.96 133.44L1238.96 133.43C1238.23 131.877 1237.56 130.514 1236.9 129.33L1236.97 129.397L1237.55 128.776C1239.87 129.248 1241.43 129.824 1242.56 130.766C1243.65 131.675 1244.38 132.95 1244.98 134.888L1244.96 134.938C1239.99 145.606 1236.68 151.96 1232.37 158.584L1232.8 158.871C1237.11 152.261 1240.41 145.923 1245.33 135.376L1245.34 135.375C1247.71 135.195 1249.37 135.378 1250.7 136.058C1252.02 136.729 1253.06 137.904 1254.15 139.797C1254.1 143.638 1253.81 146.735 1252.85 150.113C1251.88 153.516 1250.22 157.218 1247.42 162.261L1247.87 162.516C1250.68 157.458 1252.36 153.716 1253.35 150.258C1254.31 146.867 1254.61 143.76 1254.67 139.969C1256.66 139.824 1258.3 139.987 1259.61 140.501C1260.97 141.031 1261.99 141.94 1262.68 143.303C1263.39 144.674 1263.77 146.516 1263.84 148.915C1263.9 151.312 1263.64 154.248 1263.05 157.795L1263.56 157.88C1264.15 154.316 1264.42 151.344 1264.35 148.901C1264.29 146.46 1263.9 144.53 1263.14 143.063C1262.39 141.587 1261.27 140.591 1259.8 140.014C1258.37 139.455 1256.62 139.296 1254.55 139.454C1253.45 137.568 1252.36 136.318 1250.93 135.592C1249.52 134.87 1247.81 134.683 1245.51 134.84C1244.88 132.794 1244.11 131.38 1242.89 130.363C1241.66 129.335 1239.99 128.738 1237.64 128.261C1236.88 126.731 1236.19 125.588 1235.29 124.596C1234.4 123.613 1233.33 122.792 1231.83 121.89ZM1237.15 128.444C1236.42 126.961 1235.75 125.879 1234.91 124.948C1234.09 124.044 1233.1 123.272 1231.7 122.417L1231.42 123.37C1232.07 123.6 1232.69 123.962 1233.29 124.466C1234.43 125.423 1235.52 126.896 1236.69 128.943L1237.15 128.444ZM1243.31 129.072C1251.02 132.213 1256.88 134.129 1264.66 132.814L1264.74 133.329C1256.81 134.669 1250.85 132.704 1243.12 129.556L1243.31 129.072ZM1224.24 142.502C1225.32 140.812 1226.29 139.552 1227.82 138.444L1228.12 138.869C1226.66 139.92 1225.74 141.117 1224.67 142.786C1224.36 143.277 1224.03 143.81 1223.68 144.392C1222.82 145.783 1221.8 147.452 1220.38 149.489L1219.95 149.188C1221.37 147.164 1222.38 145.519 1223.23 144.132C1223.59 143.546 1223.92 143.006 1224.24 142.502Z" fill="black"/>
<path d="M1218.71 226.178C1211.01 238.892 1208.48 241.014 1201.7 253.569C1196.13 251.573 1186.18 248.348 1170.64 237.055C1177.34 225.378 1180.64 218.504 1186.79 206.059C1183.05 196.217 1183.13 189.999 1189.21 176.998C1193.18 171.22 1195.83 169.689 1201.37 170.331C1202.38 158.329 1208.06 154.981 1218.53 161.123C1226.01 160.02 1229.25 161.502 1233.54 167.396C1241.44 170.936 1243.04 173.267 1243.25 179.684C1252.91 184.509 1252.07 189.524 1243.31 201.159C1232.13 214.047 1225.23 222.485 1220.26 223.332C1219.93 224.866 1219.53 225.399 1218.71 226.178Z" fill="#950000"/>
<path fill-rule="evenodd" clip-rule="evenodd" d="M1170.3 237.128L1170.49 237.267C1185.29 248.018 1195.03 251.474 1200.75 253.507C1201.05 253.613 1201.34 253.715 1201.62 253.815L1201.82 253.889L1201.93 253.694C1205.31 247.425 1207.63 243.762 1210.07 240.078C1210.51 239.428 1210.94 238.777 1211.38 238.111C1213.46 235.005 1215.75 231.568 1218.91 226.344C1219.31 225.959 1219.63 225.616 1219.89 225.17C1220.13 224.749 1220.31 224.25 1220.48 223.557C1221.73 223.305 1223.07 222.607 1224.54 221.534C1226.07 220.41 1227.76 218.862 1229.64 216.944C1232.74 213.773 1236.38 209.57 1240.71 204.566C1241.61 203.522 1242.54 202.443 1243.51 201.331L1243.51 201.324L1243.52 201.317C1245.71 198.404 1247.42 195.897 1248.58 193.697C1249.75 191.499 1250.4 189.589 1250.45 187.875C1250.55 184.434 1248.26 181.92 1243.51 179.52C1243.39 176.378 1242.93 174.164 1241.48 172.3C1240.03 170.428 1237.62 168.944 1233.7 167.186C1231.57 164.258 1229.66 162.386 1227.33 161.395C1225.01 160.406 1222.29 160.312 1218.58 160.852C1213.37 157.81 1209.24 157.063 1206.28 158.694C1203.35 160.306 1201.67 164.176 1201.14 170.043C1198.47 169.762 1196.43 170.001 1194.58 171.028C1192.67 172.083 1190.99 173.953 1189 176.849L1188.99 176.867L1188.98 176.887C1185.93 183.398 1184.38 188.237 1184.06 192.695C1183.75 197.125 1184.66 201.155 1186.51 206.045C1185.95 207.185 1185.41 208.279 1184.89 209.334C1179.75 219.73 1176.48 226.359 1170.41 236.924L1170.3 237.128ZM1170.98 236.981C1176.97 226.52 1180.24 219.897 1185.35 209.568C1185.88 208.481 1186.44 207.353 1187.02 206.176L1187.07 206.073L1187.03 205.966C1185.17 201.063 1184.27 197.089 1184.58 192.732C1184.89 188.374 1186.41 183.609 1189.43 177.129C1191.41 174.258 1193.03 172.478 1194.82 171.486C1196.61 170.497 1198.6 170.272 1201.34 170.59L1201.61 170.621L1201.63 170.353C1202.13 164.367 1203.79 160.654 1206.53 159.152C1209.25 157.653 1213.18 158.287 1218.4 161.349L1218.47 161.395L1218.56 161.382C1222.29 160.832 1224.92 160.934 1227.13 161.876C1229.35 162.818 1231.2 164.617 1233.33 167.551L1233.37 167.607L1233.43 167.635C1237.38 169.403 1239.7 170.85 1241.08 172.622C1242.44 174.383 1242.89 176.501 1243 179.693L1243 179.849L1243.14 179.918C1247.95 182.321 1250.02 184.712 1249.93 187.86C1249.88 189.458 1249.28 191.284 1248.13 193.45C1246.98 195.612 1245.3 198.092 1243.12 200.994C1242.15 202.106 1241.22 203.184 1240.31 204.227C1235.99 209.231 1232.36 213.418 1229.27 216.577C1227.4 218.486 1225.74 220.012 1224.23 221.111C1222.73 222.212 1221.4 222.872 1220.22 223.074L1220.05 223.104L1220.01 223.275C1219.85 224.028 1219.67 224.516 1219.44 224.907C1219.22 225.296 1218.94 225.604 1218.53 225.989L1218.51 226.013L1218.49 226.042C1215.32 231.273 1213.03 234.707 1210.96 237.818C1210.51 238.485 1210.08 239.137 1209.65 239.788C1207.22 243.444 1204.92 247.082 1201.58 253.249C1201.37 253.172 1201.15 253.094 1200.92 253.014C1195.24 250.998 1185.61 247.581 1170.98 236.981Z" fill="black"/>
<path fill-rule="evenodd" clip-rule="evenodd" d="M1199.55 219.001L1192.09 234.813L1192.56 235.038L1200.01 219.226L1199.55 219.001ZM1200.8 220.265L1197.07 228.486L1197.54 228.704L1201.27 220.482L1200.8 220.265ZM1196.79 214.488C1194 212.494 1192.43 211.177 1189.62 208.531L1189.27 208.913C1192.1 211.572 1193.68 212.904 1196.49 214.915L1196.79 214.488ZM1214.84 221.974C1210.94 221.09 1208.77 220.371 1204.87 218.856L1204.68 219.343C1208.6 220.865 1210.8 221.592 1214.72 222.483L1214.84 221.974ZM1208.85 196.559C1207.83 192.913 1206.02 189.925 1203 186.713L1202.62 187.073C1205.6 190.237 1207.36 193.153 1208.36 196.702C1209.35 200.26 1209.59 204.471 1209.49 210.238L1210.01 210.247C1210.11 204.471 1209.87 200.196 1208.85 196.559ZM1199.08 184.694C1198.81 184.901 1198.55 185.043 1198.27 185.134C1197.94 185.241 1197.59 185.273 1197.19 185.275L1197.18 184.753C1197.57 184.751 1197.85 184.72 1198.11 184.637C1198.36 184.556 1198.6 184.42 1198.88 184.184L1199.8 183.248C1199.66 183.089 1199.53 182.922 1199.41 182.745C1198.79 181.85 1198.4 180.733 1198.16 179.371L1198.67 179.282C1198.9 180.598 1199.27 181.634 1199.83 182.445C1200.39 183.252 1201.16 183.851 1202.2 184.279C1204.31 185.143 1207.54 185.3 1212.46 185.026C1213.42 184.884 1214.29 184.216 1215.01 183.233C1215.72 182.249 1216.26 180.979 1216.53 179.704C1216.81 178.426 1216.81 177.171 1216.5 176.211C1216.19 175.264 1215.58 174.623 1214.61 174.485C1212.4 174.172 1208.86 173.149 1205.89 172.211C1204.41 171.741 1203.06 171.29 1202.08 170.957C1201.59 170.791 1201.19 170.653 1200.92 170.558C1200.78 170.51 1200.68 170.473 1200.6 170.447L1200.52 170.418L1200.49 170.408C1200.49 170.408 1200.49 170.408 1200.58 170.162C1200.66 169.916 1200.66 169.916 1200.66 169.916L1200.67 169.916L1200.69 169.925L1200.77 169.954C1200.84 169.98 1200.95 170.017 1201.09 170.064C1201.36 170.16 1201.76 170.296 1202.24 170.463C1203.22 170.795 1204.57 171.244 1206.05 171.713C1209.02 172.653 1212.52 173.662 1214.68 173.968C1215.89 174.14 1216.64 174.959 1216.99 176.048C1217.34 177.125 1217.32 178.482 1217.04 179.815C1216.75 181.151 1216.19 182.491 1215.42 183.542C1214.66 184.589 1213.67 185.378 1212.53 185.544L1212.52 185.546L1212.5 185.547C1210.81 185.641 1209.3 185.686 1207.96 185.667L1208.05 185.697L1207.79 186.508C1209.3 188.349 1210.54 189.46 1211.9 190.019C1213.21 190.559 1214.66 190.597 1216.64 190.216L1216.67 190.171C1223.59 180.68 1227.55 174.72 1231.27 167.738L1231.72 167.986C1228.01 174.951 1224.07 180.902 1217.22 190.289L1217.23 190.304C1218.2 192.495 1219.15 193.881 1220.37 194.744C1221.58 195.596 1223.1 195.963 1225.26 196.039C1228.58 194.17 1231.14 192.442 1233.63 189.98C1236.13 187.5 1238.56 184.266 1241.62 179.377L1242.05 179.656C1238.99 184.561 1236.53 187.832 1233.99 190.352C1231.49 192.823 1228.93 194.563 1225.66 196.414C1226.48 198.257 1227.4 199.639 1228.47 200.563C1229.58 201.516 1230.85 201.99 1232.37 201.964C1233.9 201.939 1235.69 201.407 1237.8 200.323C1239.92 199.239 1242.35 197.61 1245.16 195.407L1245.47 195.819C1242.65 198.033 1240.19 199.683 1238.04 200.788C1235.88 201.892 1234.01 202.459 1232.38 202.486C1230.74 202.514 1229.34 201.996 1228.14 200.96C1226.97 199.956 1226 198.473 1225.16 196.557C1222.99 196.473 1221.38 196.095 1220.08 195.172C1218.77 194.256 1217.8 192.824 1216.85 190.707C1214.77 191.12 1213.17 191.106 1211.7 190.503C1210.22 189.893 1208.91 188.696 1207.38 186.829C1205.69 186.886 1204.36 186.809 1203.07 186.483C1201.8 186.16 1200.57 185.595 1199.08 184.694ZM1207.31 186.309C1205.67 186.362 1204.41 186.283 1203.2 185.977C1202.02 185.679 1200.88 185.163 1199.47 184.324L1200.17 183.618C1200.68 184.089 1201.29 184.467 1202.01 184.763C1203.39 185.327 1205.19 185.598 1207.52 185.658L1207.31 186.309ZM1210.78 191.492C1217.18 196.859 1221.63 201.156 1224.18 208.705L1224.67 208.537C1222.07 200.842 1217.52 196.468 1211.11 191.09L1210.78 191.492ZM1213.41 168.144C1212.45 169.909 1211.81 171.365 1211.58 173.255L1212.09 173.32C1212.31 171.526 1212.91 170.137 1213.86 168.395C1214.14 167.882 1214.45 167.338 1214.78 166.743C1215.59 165.324 1216.55 163.62 1217.65 161.387L1217.19 161.155C1216.1 163.373 1215.15 165.053 1214.34 166.468C1214.01 167.067 1213.69 167.619 1213.41 168.144Z" fill="black"/>
<path d="M1204 58.5813C1202.44 58.4895 1201.27 58.2122 1200.46 57.7494C1199.66 57.2794 1199.16 56.5909 1198.96 55.6839C1198.73 54.6577 1198.95 53.7184 1199.61 52.8661C1200.27 52.0065 1201.25 51.429 1202.55 51.1335C1203.44 50.932 1204.26 50.9257 1205.03 51.1145C1205.8 51.3021 1206.45 51.6572 1206.96 52.1798C1207.48 52.7011 1207.82 53.3227 1207.98 54.0446L1206.27 54.4335C1206.1 53.6459 1205.71 53.0848 1205.12 52.7502C1204.52 52.4095 1203.77 52.342 1202.87 52.5475C1202.03 52.7383 1201.42 53.0753 1201.03 53.5587C1200.64 54.0347 1200.53 54.6039 1200.67 55.2662C1200.79 55.7972 1201.11 56.1973 1201.64 56.4665C1202.17 56.7284 1203 56.8899 1204.14 56.951C1205.28 57.0109 1206.19 57.1572 1206.88 57.3901C1207.56 57.6157 1208.11 57.9402 1208.51 58.3637C1208.91 58.7858 1209.19 59.328 1209.33 59.9903C1209.57 61.0463 1209.35 61.9863 1208.68 62.8101C1208 63.6279 1206.99 64.192 1205.62 64.5023C1204.74 64.7038 1203.87 64.7218 1203.03 64.5563C1202.19 64.3849 1201.49 64.0485 1200.94 63.5473C1200.39 63.0446 1200.03 62.4144 1199.86 61.6567L1201.57 61.2678C1201.75 62.0554 1202.17 62.6137 1202.85 62.9429C1203.53 63.2647 1204.35 63.3161 1205.31 63.0972C1206.21 62.893 1206.85 62.5515 1207.25 62.0728C1207.64 61.594 1207.77 61.0355 1207.63 60.397C1207.49 59.7586 1207.16 59.3167 1206.64 59.0714C1206.11 58.8202 1205.24 58.6568 1204 58.5813Z" fill="white"/>
<path d="M1266.54 59.1712L1261.01 57.6827L1259.8 62.2572L1266.23 63.9864L1265.86 65.3782L1257.75 63.1961L1261.15 50.2881L1269.17 52.4466L1268.8 53.8474L1262.46 52.1418L1261.37 56.2908L1266.9 57.7793L1266.54 59.1712Z" fill="white"/>
<path d="M1232.16 53.5808L1235.6 46.8747H1237.58L1233.03 55.2505V60.2319H1231.28V55.2505L1226.73 46.8747H1228.73L1232.16 53.5808Z" fill="white"/>
<path d="M1252.09 61.9875L1250.35 61.7523L1245.11 50.6572L1243.76 60.8591L1242.03 60.6239L1243.78 47.3851L1245.52 47.6203L1250.77 58.7633L1252.13 48.516L1253.84 48.7487L1252.09 61.9875Z" fill="white"/>
<path d="M1221.96 54.8142L1216.28 55.5694L1216.89 60.2627L1223.49 59.3853L1223.67 60.8133L1215.35 61.9205L1213.63 48.6775L1221.86 47.5823L1222.05 49.0194L1215.54 49.8848L1216.1 54.1415L1221.77 53.3862L1221.96 54.8142Z" fill="white"/>
<path d="M1188.6 265.503C1188.13 266.588 1187.46 267.331 1186.58 267.73C1185.7 268.125 1184.69 268.146 1183.55 267.79C1182.3 267.405 1181.44 266.645 1180.96 265.511C1180.49 264.378 1180.48 263.056 1180.94 261.546L1181.25 260.522C1181.55 259.533 1181.98 258.717 1182.56 258.074C1183.14 257.433 1183.81 257.011 1184.57 256.81C1185.33 256.604 1186.14 256.632 1186.98 256.893C1188.1 257.24 1188.9 257.834 1189.38 258.676C1189.87 259.514 1190 260.508 1189.77 261.658L1188.37 261.226C1188.51 260.341 1188.43 259.645 1188.14 259.14C1187.86 258.636 1187.35 258.272 1186.63 258.048C1185.74 257.773 1184.95 257.889 1184.24 258.395C1183.54 258.903 1183 259.768 1182.63 260.991L1182.32 262.022C1181.97 263.177 1181.93 264.169 1182.2 264.999C1182.47 265.829 1183.03 266.377 1183.89 266.643C1184.66 266.882 1185.31 266.889 1185.82 266.665C1186.35 266.438 1186.81 265.906 1187.21 265.071L1188.6 265.503Z" fill="white"/>
<path d="M1260.73 264.605L1257.31 265.504L1259.77 275.108L1258.38 275.475L1255.91 265.87L1252.49 266.767L1252.19 265.598L1260.43 263.436L1260.73 264.605Z" fill="white"/>
<path d="M1214.54 272.641L1214.04 276.969L1212.6 276.797L1213.88 265.743L1217.92 266.223C1219.11 266.365 1220.01 266.785 1220.62 267.483C1221.23 268.182 1221.47 269.04 1221.35 270.057C1221.23 271.13 1220.8 271.918 1220.07 272.421C1219.34 272.919 1218.35 273.095 1217.12 272.948L1214.54 272.641ZM1214.68 271.449L1217.27 271.757C1218.04 271.849 1218.66 271.737 1219.11 271.422C1219.56 271.101 1219.83 270.594 1219.91 269.901C1219.99 269.243 1219.84 268.692 1219.48 268.248C1219.11 267.804 1218.57 267.532 1217.86 267.432L1215.19 267.114L1214.68 271.449Z" fill="white"/>
<path d="M1206.28 270.467L1203.75 269.954L1202.87 274.369L1201.44 274.08L1203.6 263.165L1207.18 263.888C1208.39 264.134 1209.27 264.603 1209.81 265.295C1210.36 265.987 1210.53 266.868 1210.32 267.938C1210.18 268.618 1209.88 269.173 1209.42 269.604C1208.96 270.035 1208.38 270.311 1207.68 270.43L1209.3 275.575L1209.28 275.665L1207.75 275.356L1206.28 270.467ZM1203.98 268.777L1206.17 269.219C1206.88 269.362 1207.47 269.291 1207.96 269.005C1208.45 268.72 1208.76 268.268 1208.89 267.648C1209.02 266.974 1208.92 266.416 1208.59 265.975C1208.27 265.535 1207.73 265.237 1206.98 265.08L1204.8 264.639L1203.98 268.777Z" fill="white"/>
<path d="M1238.24 273.88H1235.65V278.382H1234.2V267.251H1237.84C1239.08 267.251 1240.03 267.537 1240.7 268.108C1241.37 268.679 1241.7 269.509 1241.7 270.6C1241.7 271.293 1241.52 271.897 1241.14 272.412C1240.78 272.927 1240.26 273.311 1239.6 273.566L1242.19 278.291V278.382H1240.63L1238.24 273.88ZM1235.65 272.679H1237.89C1238.61 272.679 1239.18 272.491 1239.6 272.114C1240.03 271.736 1240.24 271.232 1240.24 270.6C1240.24 269.912 1240.04 269.384 1239.63 269.017C1239.23 268.65 1238.64 268.464 1237.88 268.459H1235.65V272.679Z" fill="white"/>
<path d="M1199.92 267.656C1199.69 268.72 1199.31 269.611 1198.78 270.327C1198.25 271.039 1197.61 271.531 1196.87 271.803C1196.13 272.075 1195.33 272.113 1194.46 271.919C1193.61 271.729 1192.91 271.351 1192.35 270.786C1191.79 270.216 1191.41 269.502 1191.21 268.644C1191.03 267.783 1191.04 266.838 1191.26 265.811L1191.43 265.027C1191.66 263.983 1192.04 263.1 1192.58 262.38C1193.11 261.659 1193.75 261.161 1194.5 260.885C1195.25 260.606 1196.05 260.561 1196.9 260.751C1197.76 260.944 1198.47 261.326 1199.03 261.896C1199.6 262.462 1199.97 263.185 1200.15 264.066C1200.33 264.942 1200.31 265.909 1200.07 266.969L1199.92 267.656ZM1198.67 266.637C1198.95 265.349 1198.91 264.304 1198.55 263.502C1198.19 262.696 1197.55 262.189 1196.63 261.982C1195.73 261.781 1194.95 261.968 1194.28 262.544C1193.62 263.115 1193.15 264.011 1192.86 265.232L1192.69 266.031C1192.41 267.279 1192.46 268.32 1192.81 269.153C1193.18 269.981 1193.82 270.498 1194.73 270.702C1195.64 270.908 1196.43 270.731 1197.08 270.172C1197.73 269.608 1198.2 268.699 1198.49 267.443L1198.67 266.637Z" fill="white"/>
<path d="M1277.61 262.349C1277.96 263.383 1278.09 264.345 1278 265.235C1277.91 266.12 1277.62 266.873 1277.13 267.493C1276.63 268.113 1275.96 268.567 1275.12 268.853C1274.3 269.132 1273.5 269.177 1272.73 268.988C1271.96 268.794 1271.27 268.38 1270.67 267.747C1270.07 267.107 1269.6 266.291 1269.25 265.299L1269 264.539C1268.66 263.524 1268.54 262.569 1268.63 261.673C1268.72 260.776 1269.01 260.015 1269.51 259.388C1270.01 258.755 1270.68 258.298 1271.5 258.018C1272.33 257.734 1273.14 257.689 1273.91 257.883C1274.69 258.071 1275.37 258.495 1275.98 259.156C1276.58 259.812 1277.05 260.654 1277.39 261.683L1277.61 262.349ZM1276.02 262.134C1275.6 260.883 1275.04 260.009 1274.32 259.511C1273.6 259.009 1272.79 258.91 1271.9 259.214C1271.03 259.51 1270.45 260.079 1270.17 260.921C1269.9 261.757 1269.95 262.771 1270.33 263.964L1270.59 264.739C1271 265.952 1271.56 266.82 1272.3 267.345C1273.03 267.864 1273.84 267.973 1274.73 267.672C1275.62 267.369 1276.2 266.809 1276.47 265.991C1276.73 265.168 1276.67 264.144 1276.28 262.917L1276.02 262.134Z" fill="white"/>
<path d="M1231.83 273.176C1231.83 274.267 1231.65 275.22 1231.29 276.035C1230.92 276.846 1230.41 277.465 1229.74 277.893C1229.08 278.321 1228.3 278.535 1227.42 278.535C1226.55 278.535 1225.78 278.321 1225.11 277.893C1224.44 277.46 1223.92 276.846 1223.54 276.051C1223.18 275.251 1222.99 274.326 1222.98 273.276V272.473C1222.98 271.403 1223.16 270.457 1223.53 269.637C1223.9 268.816 1224.42 268.189 1225.09 267.756C1225.76 267.318 1226.53 267.099 1227.4 267.099C1228.28 267.099 1229.06 267.315 1229.73 267.748C1230.4 268.177 1230.92 268.801 1231.29 269.621C1231.65 270.437 1231.83 271.387 1231.83 272.473V273.176ZM1230.39 272.458C1230.39 271.138 1230.12 270.126 1229.6 269.423C1229.08 268.714 1228.34 268.36 1227.4 268.36C1226.48 268.36 1225.76 268.714 1225.23 269.423C1224.71 270.126 1224.44 271.105 1224.42 272.358V273.176C1224.42 274.456 1224.69 275.462 1225.21 276.196C1225.75 276.925 1226.48 277.289 1227.42 277.289C1228.35 277.289 1229.08 276.945 1229.59 276.257C1230.11 275.564 1230.37 274.573 1230.39 273.283V272.458Z" fill="white"/>
<path d="M1250.81 274.119L1246.26 274.868L1245.7 277.904L1244.22 278.147L1246.6 266.478L1247.85 266.271L1253.78 276.573L1252.31 276.815L1250.81 274.119ZM1246.5 273.605L1250.19 272.996L1247.51 268.163L1246.5 273.605Z" fill="white"/>
<path d="M1290.13 261.902L1288.84 262.592L1279.98 257.636L1283.95 265.215L1282.66 265.906L1277.5 256.07L1278.79 255.379L1287.69 260.363L1283.71 252.749L1284.98 252.065L1290.13 261.902Z" fill="white"/>
<path d="M1268.56 271.897L1267.17 272.312L1264.06 261.635L1265.45 261.22L1268.56 271.897Z" fill="white"/>
</g>
<path d="M617.046 792.011C511.254 774.573 368.26 707.145 172.952 739.697C370.586 840.838 467.077 866.414 593.795 1025.68L865.831 1025.68C850.718 954.768 749.755 854.898 617.046 792.011Z" fill="#53575A"/>
<path d="M226.346 434.883L226.347 813.955" stroke="black" stroke-width="21" stroke-linecap="round"/>
<path d="M0 708.454C0 708.454 219.737 757.359 388.006 757.359C548.741 757.359 595.393 1024 595.393 1024H0V708.454Z" fill="#53575A"/>
<path d="M595.285 1024.66H522.886C517.456 994.825 512.269 975.733 497.747 935.847C475.087 896.461 455.374 877.337 410.755 847.219C345.586 808.932 303.072 790.967 210.494 768.738C196.606 761.092 190.496 755.022 182.736 740.845L201.992 743.689L358.742 758.477C418.521 754.206 449.205 763.83 497.747 807.277C551.948 876.437 577.723 937.976 595.285 1024.66Z" fill="#63686B"/>
<path d="M526.392 433.693C419.647 463.867 367.676 405.641 235.537 433.693L235.537 589.455C367.676 562.88 414.918 614.804 526.392 589.455V433.693Z" fill="#040332" fill-opacity="0.9"/>
<path d="M316.073 494.367C317.294 494.367 318.292 494.275 319.069 494.09C319.882 493.868 320.529 493.591 321.01 493.258C321.491 492.888 321.823 492.463 322.008 491.982C322.193 491.502 322.286 490.965 322.286 490.374C322.286 489.116 321.694 488.081 320.511 487.267C319.327 486.417 317.294 485.511 314.409 484.55C313.152 484.106 311.895 483.607 310.637 483.052C309.38 482.46 308.252 481.739 307.254 480.889C306.255 480.001 305.442 478.947 304.813 477.727C304.185 476.47 303.87 474.954 303.87 473.179C303.87 471.404 304.203 469.814 304.869 468.408C305.534 466.966 306.477 465.746 307.698 464.747C308.918 463.749 310.397 462.991 312.135 462.473C313.873 461.919 315.833 461.641 318.015 461.641C320.603 461.641 322.84 461.919 324.726 462.473C326.612 463.028 328.165 463.638 329.386 464.304L326.89 471.126C325.817 470.572 324.615 470.091 323.284 469.684C321.99 469.24 320.418 469.018 318.569 469.018C316.499 469.018 315.001 469.314 314.076 469.906C313.189 470.461 312.745 471.33 312.745 472.513C312.745 473.216 312.912 473.807 313.244 474.288C313.577 474.769 314.039 475.212 314.631 475.619C315.26 475.989 315.962 476.34 316.739 476.673C317.552 476.969 318.44 477.283 319.401 477.616C321.398 478.356 323.136 479.095 324.615 479.835C326.095 480.537 327.315 481.369 328.276 482.331C329.275 483.292 330.014 484.42 330.495 485.714C330.976 487.009 331.216 488.58 331.216 490.429C331.216 494.016 329.959 496.808 327.444 498.805C324.93 500.765 321.139 501.745 316.073 501.745C314.372 501.745 312.838 501.634 311.469 501.412C310.101 501.227 308.881 500.987 307.809 500.691C306.773 500.395 305.867 500.081 305.091 499.748C304.351 499.415 303.722 499.101 303.205 498.805L305.645 491.927C306.792 492.555 308.197 493.129 309.861 493.646C311.562 494.127 313.633 494.367 316.073 494.367Z" fill="#D9D9D9"/>
<path d="M335.933 486.602C335.933 484.013 336.321 481.758 337.097 479.835C337.911 477.875 338.965 476.248 340.259 474.954C341.553 473.659 343.033 472.679 344.697 472.014C346.398 471.348 348.136 471.015 349.911 471.015C354.052 471.015 357.325 472.291 359.728 474.843C362.132 477.357 363.334 481.074 363.334 485.992C363.334 486.472 363.315 487.009 363.278 487.6C363.241 488.155 363.204 488.654 363.167 489.098H344.419C344.604 490.799 345.399 492.149 346.804 493.147C348.21 494.146 350.095 494.645 352.462 494.645C353.978 494.645 355.457 494.515 356.9 494.256C358.379 493.961 359.58 493.609 360.505 493.203L361.614 499.914C361.171 500.136 360.579 500.358 359.839 500.58C359.1 500.802 358.268 500.987 357.343 501.135C356.456 501.319 355.494 501.467 354.459 501.578C353.424 501.689 352.388 501.745 351.353 501.745C348.727 501.745 346.435 501.356 344.475 500.58C342.552 499.803 340.943 498.749 339.649 497.418C338.392 496.05 337.449 494.441 336.82 492.592C336.228 490.743 335.933 488.747 335.933 486.602ZM355.346 483.44C355.309 482.738 355.18 482.053 354.958 481.388C354.773 480.722 354.459 480.131 354.015 479.613C353.608 479.095 353.072 478.67 352.407 478.337C351.778 478.004 350.983 477.838 350.021 477.838C349.097 477.838 348.302 478.004 347.636 478.337C346.971 478.633 346.416 479.04 345.972 479.557C345.529 480.075 345.177 480.685 344.918 481.388C344.697 482.053 344.53 482.738 344.419 483.44H355.346Z" fill="#D9D9D9"/>
<path d="M395.615 471.792C393.951 477.413 392.213 482.682 390.401 487.6C388.589 492.518 386.611 497.289 384.466 501.911C383.69 503.575 382.913 504.98 382.137 506.127C381.36 507.31 380.51 508.271 379.585 509.011C378.661 509.788 377.607 510.342 376.423 510.675C375.277 511.045 373.927 511.23 372.374 511.23C371.08 511.23 369.878 511.1 368.769 510.841C367.696 510.62 366.809 510.361 366.106 510.065L367.549 503.464C368.399 503.76 369.157 503.963 369.823 504.074C370.488 504.185 371.191 504.241 371.931 504.241C373.41 504.241 374.538 503.834 375.314 503.02C376.128 502.244 376.812 501.153 377.366 499.748C375.48 496.05 373.595 491.908 371.709 487.323C369.823 482.701 368.048 477.524 366.384 471.792H375.148C375.517 473.234 375.943 474.806 376.423 476.507C376.941 478.171 377.477 479.872 378.032 481.61C378.587 483.311 379.141 484.975 379.696 486.602C380.288 488.229 380.842 489.708 381.36 491.039C381.841 489.708 382.34 488.229 382.858 486.602C383.375 484.975 383.875 483.311 384.355 481.61C384.873 479.872 385.354 478.171 385.798 476.507C386.278 474.806 386.704 473.234 387.073 471.792H395.615Z" fill="#D9D9D9"/>
<path d="M400.046 472.79C401.451 472.384 403.263 472.014 405.482 471.681C407.7 471.311 410.03 471.126 412.471 471.126C414.948 471.126 417.001 471.459 418.628 472.125C420.292 472.753 421.604 473.659 422.566 474.843C423.527 476.026 424.211 477.431 424.618 479.058C425.025 480.685 425.228 482.497 425.228 484.494V500.968H416.964V485.493C416.964 482.83 416.612 480.944 415.91 479.835C415.207 478.725 413.894 478.171 411.972 478.171C411.38 478.171 410.751 478.208 410.086 478.282C409.42 478.319 408.828 478.374 408.311 478.448V500.968H400.046V472.79Z" fill="#D9D9D9"/>
<path d="M431.323 486.602C431.323 484.013 431.711 481.758 432.487 479.835C433.301 477.875 434.355 476.248 435.649 474.954C436.943 473.659 438.422 472.679 440.086 472.014C441.787 471.348 443.525 471.015 445.3 471.015C449.442 471.015 452.715 472.291 455.118 474.843C457.522 477.357 458.724 481.074 458.724 485.992C458.724 486.472 458.705 487.009 458.668 487.6C458.631 488.155 458.594 488.654 458.557 489.098H439.809C439.994 490.799 440.789 492.149 442.194 493.147C443.599 494.146 445.485 494.645 447.852 494.645C449.368 494.645 450.847 494.515 452.289 494.256C453.769 493.961 454.97 493.609 455.895 493.203L457.004 499.914C456.56 500.136 455.969 500.358 455.229 500.58C454.49 500.802 453.658 500.987 452.733 501.135C451.846 501.319 450.884 501.467 449.849 501.578C448.813 501.689 447.778 501.745 446.743 501.745C444.117 501.745 441.824 501.356 439.865 500.58C437.942 499.803 436.333 498.749 435.039 497.418C433.782 496.05 432.839 494.441 432.21 492.592C431.618 490.743 431.323 488.747 431.323 486.602ZM450.736 483.44C450.699 482.738 450.57 482.053 450.348 481.388C450.163 480.722 449.849 480.131 449.405 479.613C448.998 479.095 448.462 478.67 447.797 478.337C447.168 478.004 446.373 477.838 445.411 477.838C444.487 477.838 443.692 478.004 443.026 478.337C442.361 478.633 441.806 479.04 441.362 479.557C440.918 480.075 440.567 480.685 440.308 481.388C440.086 482.053 439.92 482.738 439.809 483.44H450.736Z" fill="#D9D9D9"/>
<path d="M362.886 540.985C362.886 541.699 362.745 542.385 362.462 543.043C362.18 543.701 361.814 544.341 361.363 544.961C360.911 545.563 360.404 546.146 359.84 546.71C359.276 547.274 358.721 547.81 358.176 548.317C357.894 548.58 357.584 548.881 357.245 549.22C356.925 549.539 356.615 549.868 356.314 550.207C356.014 550.545 355.741 550.865 355.497 551.166C355.271 551.448 355.13 551.683 355.074 551.871H363.478V555.396H350.448C350.411 555.189 350.392 554.926 350.392 554.606C350.392 554.287 350.392 554.061 350.392 553.929C350.392 553.027 350.533 552.2 350.815 551.448C351.116 550.696 351.501 550 351.971 549.361C352.441 548.703 352.968 548.092 353.551 547.528C354.152 546.964 354.744 546.399 355.327 545.835C355.779 545.403 356.202 544.999 356.596 544.623C356.991 544.228 357.339 543.852 357.64 543.495C357.941 543.119 358.176 542.752 358.345 542.395C358.514 542.019 358.599 541.643 358.599 541.267C358.599 540.439 358.364 539.857 357.894 539.518C357.424 539.18 356.841 539.011 356.145 539.011C355.638 539.011 355.158 539.095 354.707 539.264C354.274 539.415 353.87 539.603 353.494 539.828C353.137 540.035 352.827 540.251 352.564 540.477C352.3 540.684 352.103 540.853 351.971 540.985L349.884 538.052C350.712 537.281 351.67 536.651 352.761 536.162C353.87 535.654 355.055 535.401 356.314 535.401C357.461 535.401 358.448 535.532 359.276 535.795C360.103 536.059 360.78 536.435 361.306 536.924C361.851 537.394 362.246 537.976 362.491 538.672C362.754 539.349 362.886 540.12 362.886 540.985Z" fill="#D9D9D9"/>
<path d="M379.986 545.582C379.986 548.872 379.356 551.401 378.097 553.168C376.856 554.917 375.135 555.791 372.936 555.791C370.736 555.791 369.006 554.917 367.746 553.168C366.506 551.401 365.885 548.872 365.885 545.582C365.885 543.946 366.045 542.498 366.365 541.238C366.703 539.979 367.182 538.917 367.803 538.052C368.423 537.187 369.166 536.529 370.031 536.077C370.896 535.626 371.864 535.401 372.936 535.401C375.135 535.401 376.856 536.284 378.097 538.052C379.356 539.8 379.986 542.31 379.986 545.582ZM375.699 545.582C375.699 544.604 375.652 543.72 375.558 542.931C375.464 542.122 375.314 541.427 375.107 540.844C374.9 540.261 374.618 539.81 374.261 539.49C373.904 539.17 373.462 539.011 372.936 539.011C372.409 539.011 371.967 539.17 371.61 539.49C371.272 539.81 370.99 540.261 370.764 540.844C370.557 541.427 370.407 542.122 370.313 542.931C370.219 543.72 370.172 544.604 370.172 545.582C370.172 546.559 370.219 547.452 370.313 548.261C370.407 549.069 370.557 549.765 370.764 550.348C370.99 550.931 371.272 551.382 371.61 551.702C371.967 552.021 372.409 552.181 372.936 552.181C373.462 552.181 373.904 552.021 374.261 551.702C374.618 551.382 374.9 550.931 375.107 550.348C375.314 549.765 375.464 549.069 375.558 548.261C375.652 547.452 375.699 546.559 375.699 545.582Z" fill="#D9D9D9"/>
<path d="M394.943 540.985C394.943 541.699 394.802 542.385 394.52 543.043C394.238 543.701 393.872 544.341 393.421 544.961C392.969 545.563 392.462 546.146 391.898 546.71C391.334 547.274 390.779 547.81 390.234 548.317C389.952 548.58 389.641 548.881 389.303 549.22C388.983 549.539 388.673 549.868 388.372 550.207C388.072 550.545 387.799 550.865 387.555 551.166C387.329 551.448 387.188 551.683 387.131 551.871H395.536V555.396H382.506C382.469 555.189 382.45 554.926 382.45 554.606C382.45 554.287 382.45 554.061 382.45 553.929C382.45 553.027 382.591 552.2 382.873 551.448C383.174 550.696 383.559 550 384.029 549.361C384.499 548.703 385.026 548.092 385.609 547.528C386.21 546.964 386.802 546.399 387.385 545.835C387.837 545.403 388.26 544.999 388.654 544.623C389.049 544.228 389.397 543.852 389.698 543.495C389.999 543.119 390.234 542.752 390.403 542.395C390.572 542.019 390.657 541.643 390.657 541.267C390.657 540.439 390.422 539.857 389.952 539.518C389.482 539.18 388.899 539.011 388.203 539.011C387.696 539.011 387.216 539.095 386.765 539.264C386.332 539.415 385.928 539.603 385.552 539.828C385.195 540.035 384.885 540.251 384.621 540.477C384.358 540.684 384.161 540.853 384.029 540.985L381.942 538.052C382.77 537.281 383.728 536.651 384.819 536.162C385.928 535.654 387.113 535.401 388.372 535.401C389.519 535.401 390.506 535.532 391.334 535.795C392.161 536.059 392.838 536.435 393.364 536.924C393.909 537.394 394.304 537.976 394.549 538.672C394.812 539.349 394.943 540.12 394.943 540.985Z" fill="#D9D9D9"/>
<path d="M412.044 545.582C412.044 548.872 411.414 551.401 410.155 553.168C408.914 554.917 407.193 555.791 404.994 555.791C402.794 555.791 401.064 554.917 399.804 553.168C398.564 551.401 397.943 548.872 397.943 545.582C397.943 543.946 398.103 542.498 398.422 541.238C398.761 539.979 399.24 538.917 399.861 538.052C400.481 537.187 401.224 536.529 402.089 536.077C402.954 535.626 403.922 535.401 404.994 535.401C407.193 535.401 408.914 536.284 410.155 538.052C411.414 539.8 412.044 542.31 412.044 545.582ZM407.757 545.582C407.757 544.604 407.71 543.72 407.616 542.931C407.522 542.122 407.372 541.427 407.165 540.844C406.958 540.261 406.676 539.81 406.319 539.49C405.962 539.17 405.52 539.011 404.994 539.011C404.467 539.011 404.025 539.17 403.668 539.49C403.33 539.81 403.048 540.261 402.822 540.844C402.615 541.427 402.465 542.122 402.371 542.931C402.277 543.72 402.23 544.604 402.23 545.582C402.23 546.559 402.277 547.452 402.371 548.261C402.465 549.069 402.615 549.765 402.822 550.348C403.048 550.931 403.33 551.382 403.668 551.702C404.025 552.021 404.467 552.181 404.994 552.181C405.52 552.181 405.962 552.021 406.319 551.702C406.676 551.382 406.958 550.931 407.165 550.348C407.372 549.765 407.522 549.069 407.616 548.261C407.71 547.452 407.757 546.559 407.757 545.582Z" fill="#D9D9D9"/>
<g opacity="0.5">
<g filter="url(#filter12_b)">
<path d="M980.026 577.763C964.645 578.799 955.283 585.211 938.294 599.815M980.134 576.759C961.34 574.584 950.828 580.004 932.085 591.601M980.393 575.255C963.067 571.107 951.082 573.316 927.29 582.082" stroke="black" stroke-width="3" stroke-linecap="round"/>
</g>
<g filter="url(#filter13_b)">
<path d="M1016.64 584.061C1030.79 590.176 1037.48 599.348 1048.61 618.788M1016.88 583.078C1035.32 587.307 1043.42 595.928 1057.21 613.121M1017.14 581.575C1034.85 583.453 1045.41 589.54 1064.91 605.75" stroke="black" stroke-width="3" stroke-linecap="round"/>
</g>
<path fill-rule="evenodd" clip-rule="evenodd" d="M963.985 528.898C982.763 528.583 993.084 533.902 988.298 548.464C988.351 547.418 988.146 546.846 987.345 545.871C974.194 547.436 970.096 542.734 969.674 531.348C968.795 529.912 967.244 529.485 963.985 528.898ZM972.463 535.722C971.933 534.978 971.762 535.154 971.908 536.036C973.744 543.085 977.012 545.512 983.653 542.606C984.475 542.246 984.243 541.875 983.479 542.03C976.859 543.757 974.687 541.054 972.463 535.722Z" fill="#252324"/>
<ellipse cx="976.637" cy="536.176" rx="1.56906" ry="1.5191" transform="rotate(9.75878 976.637 536.176)" fill="#0594A7"/>
<path fill-rule="evenodd" clip-rule="evenodd" d="M1070.93 545.955C1072.01 563.743 1067.02 573.737 1050.59 591.594C1054.4 582.275 1052.8 578.738 1045.38 574.499C1040.07 571.79 1036.85 570.472 1030.53 568.594C1015.74 562.617 1011.34 557.714 1014.18 544.71C1015.39 522.636 1008.12 510.632 984.977 507.418C975.792 504.628 973.86 501.186 972.992 493.543C971.794 474.263 969.699 465.581 958.962 457.372C955.083 454.922 951.789 455.43 949.535 459.949C943.325 469.851 942.557 480.755 945.995 498.774C942.327 511.188 942.16 517.348 945.121 526.925C940.812 535.037 940.86 541.26 943.294 553.957C938.903 543.464 938.017 537.379 941.677 525.852C938.929 515.211 939.138 509.358 941.857 499.068C939.463 474.796 940.749 464.574 948.874 453.854C952.212 450.741 954.347 450.561 958.315 451.178C968.912 458.145 974.102 466.146 980.212 475.565L980.212 475.565C982.127 478.517 984.132 481.608 986.422 484.851C1007.54 479.581 1019.47 481.295 1040.93 492.961C1054.45 480.798 1062.14 475.969 1076.07 471.051C1082.84 470.587 1084.93 471.928 1086.7 476.168C1090.86 495.691 1087.86 508.064 1074.61 532.246C1072.04 537.313 1071.3 540.332 1070.93 545.955ZM1074.13 525.309C1068.85 530.186 1065.44 527.878 1064.44 519.675C1063.71 517.095 1061.98 516.384 1056.7 516.361C1047.36 521.143 1039.48 505.529 1049.07 495.833C1059.57 484.733 1065.69 480.152 1077.21 476.374C1080.26 475.754 1081.47 476.337 1082.63 479.248C1084.78 495.624 1082.82 505.308 1074.13 525.309ZM1042.49 544.623C1043.35 543.744 1043.71 543.951 1043.3 545.249C1036.68 555.536 1030.9 558.714 1020.46 552.594C1019.38 551.765 1019.69 551.398 1020.86 551.87C1030.89 556.63 1036.04 554.481 1042.49 544.623ZM1037.13 547.093C1037.57 546.31 1037.46 546.088 1036.72 546.612C1032.84 550.894 1029.89 552.717 1024.22 548.877C1023.56 548.476 1023.21 548.748 1023.87 549.361C1029.16 554.32 1033.05 553.124 1037.13 547.093ZM1045.65 543.736C1027.61 538.996 1021.37 540.775 1018.31 553.267C1018.16 554.105 1017.8 554.077 1017.75 553.17C1018.18 539.012 1028.33 534.502 1046.22 543.077C1047.48 543.679 1047.19 544.248 1045.65 543.736Z" fill="#252324"/>
<ellipse cx="1026.43" cy="544.654" rx="1.48322" ry="1.4889" transform="rotate(9.75878 1026.43 544.654)" fill="#0594A7"/>
<path d="M997.073 588.446C996.982 587.65 997.038 587.03 997.257 585.735C997.077 585.407 996.938 585.359 996.59 585.62C996.454 586.68 996.319 587.278 995.858 588.356C991.228 592.067 984.805 591.874 979.338 587.923C984.661 593.08 989.765 593.069 996.298 591.311C1001.07 595.7 1007.94 596.219 1013 593.712C1006.74 595.747 999.866 593.731 997.073 588.446Z" fill="#252324"/>
<path d="M1007.52 577.967C1009.68 576.997 1008.5 572.301 1010.61 560.018C1010.32 556.135 1008.79 570.588 1007.12 576.06C1005.35 574.508 1004.01 574.205 1001.11 574.45C999.352 574.627 998.289 574.435 996.263 573.616C994.036 572.475 992.713 572.427 990.251 573.159C991.681 567.094 993.444 554.279 992.55 556.681C991.354 566.748 987.416 572.671 989.34 575.348C992.288 578.022 995.041 579.64 994.2 582.027C994.993 583.354 995.431 584.075 997.136 584.978C998.682 584.759 999.432 584.229 1000.71 583.058C1000.25 580.589 1004.6 580.568 1007.52 577.967Z" fill="#252324"/>
</g>
<g opacity="0.5">
<g filter="url(#filter14_b)">
<path d="M147.025 203.692C131.445 208.753 123.463 217.791 109.75 237.25M146.876 202.63C126.946 205.267 117.521 213.582 101.218 230.398M146.752 201.013C127.822 201.237 116.046 206.625 93.8066 221.834" stroke="black" stroke-width="3" stroke-linecap="round"/>
</g>
<g filter="url(#filter15_b)">
<path d="M186.392 200.675C202.561 203.302 211.827 211.018 228.346 228.159M186.377 199.602C206.477 199.171 217.059 205.952 235.734 220.087M186.253 197.985C204.996 195.321 217.456 198.851 241.754 210.494" stroke="black" stroke-width="3" stroke-linecap="round"/>
</g>
<path fill-rule="evenodd" clip-rule="evenodd" d="M117.81 157.505C137.077 152.305 149.093 155.107 147.941 171.354C147.724 170.263 147.365 169.726 146.287 168.929C133.142 173.957 127.698 170.175 124.307 158.553C123.029 157.301 121.319 157.264 117.81 157.505ZM128.317 162.336C127.578 161.707 127.447 161.932 127.827 162.803C131.549 169.59 135.546 171.243 141.635 166.523C142.388 165.94 142.053 165.618 141.306 165.975C134.933 169.474 131.993 167.252 128.317 162.336Z" fill="#252324"/>
<ellipse cx="132.736" cy="161.72" rx="1.66732" ry="1.61424" transform="rotate(-4.38329 132.736 161.72)" fill="#A70505"/>
<path fill-rule="evenodd" clip-rule="evenodd" d="M232.433 147.316C238.171 165.363 235.624 176.957 223.331 199.622C224.836 189.031 222.271 185.802 213.524 183.36C207.344 181.948 203.683 181.426 196.685 181.132C179.891 178.814 174.088 174.902 173.64 160.766C169.15 137.707 158.543 127.225 133.863 129.922C123.674 129.432 120.79 126.387 117.912 118.736C111.671 99.181 107.258 90.779 94.0634 85.1077C89.4307 83.5906 86.1686 84.9692 85.0192 90.2109C81.1902 102.026 83.2303 113.461 91.4516 131.136C90.895 144.88 92.3215 151.271 97.8596 160.37C95.5254 169.848 97.1904 176.248 102.996 188.699C95.7463 179.026 93.2533 172.987 94.0325 160.159C88.4378 149.907 87.1337 143.822 87.2636 132.513C78.4951 108.125 77.1663 97.2572 82.7557 84.1023C85.3861 80.0276 87.5402 79.2878 91.7888 78.8929C104.516 83.3208 111.942 90.218 120.683 98.337L120.683 98.337C123.422 100.882 126.291 103.546 129.493 106.293C149.881 95.3808 162.625 94.0488 187.769 100.497C198.539 84.455 205.211 77.482 218.286 68.798C225.14 66.5625 227.645 67.4009 230.569 71.3107C239.926 90.3466 240.042 103.877 232.672 132.233C231.334 138.123 231.356 141.426 232.433 147.316ZM230.373 125.211C226.202 131.606 222.086 130.114 218.922 121.922C217.499 119.453 215.539 119.168 210.09 120.515C201.709 127.867 189.531 113.826 196.901 101.343C204.838 87.1797 209.952 80.8709 220.847 73.9857C223.825 72.5563 225.225 72.8427 227.173 75.5413C233.641 91.8576 234.137 102.344 230.373 125.211ZM202.785 153.326C203.443 152.198 203.863 152.318 203.778 153.762C199.635 166.079 194.497 170.856 182.158 167.258C180.827 166.686 181.051 166.227 182.381 166.409C193.952 168.71 198.7 165.159 202.785 153.326ZM197.907 157.263C198.149 156.344 197.986 156.141 197.351 156.876C194.467 162.295 191.901 164.939 185.068 162.452C184.276 162.213 183.994 162.582 184.827 163.044C191.564 166.78 195.263 164.538 197.907 157.263ZM205.807 151.594C185.996 151.391 180.02 154.845 180.112 168.512C180.181 169.413 179.794 169.48 179.509 168.558C176.277 153.857 185.57 146.573 206.23 150.764C207.68 151.059 207.529 151.72 205.807 151.594Z" fill="#252324"/>
<ellipse cx="186.247" cy="157.528" rx="1.5761" ry="1.58214" transform="rotate(-4.38329 186.247 157.528)" fill="#A70505"/>
<path d="M167.364 210.274C167.063 209.477 166.96 208.824 166.85 207.433C166.58 207.142 166.424 207.128 166.133 207.488C166.268 208.615 166.284 209.266 166.089 210.497C162.282 215.523 155.613 216.992 148.954 214.34C155.778 218.272 161.034 216.935 167.309 213.428C173.363 216.712 180.58 215.462 185.14 211.566C179.22 215.288 171.614 214.995 167.364 210.274Z" fill="#252324"/>
<path d="M175.411 196.764C177.385 195.203 174.944 190.672 173.932 177.467C172.627 173.54 174.803 188.83 174.501 194.903C172.278 193.762 170.812 193.8 167.889 194.804C166.125 195.443 164.98 195.521 162.68 195.204C160.089 194.606 158.713 194.9 156.366 196.293C156.265 189.672 154.754 176.01 154.457 178.717C155.838 189.401 153.318 196.527 155.995 198.785C159.727 200.775 162.984 201.728 162.737 204.406C163.899 205.567 164.538 206.197 166.529 206.684C168.065 206.058 168.7 205.316 169.709 203.779C168.597 201.354 173.073 200.202 175.411 196.764Z" fill="#252324"/>
</g>
<path d="M865.511 1023.47H786.206L760.647 960.99L709.042 891.436L636.496 830.108C613.443 807.709 595.26 798.537 562.91 780.91L616.915 792.478C745.446 855.192 838.213 937.028 865.511 1023.47Z" fill="#63686B"/>
<g filter="url(#filter16_d)">
<path d="M936.182 944.379C942.022 944.379 946.506 945.415 949.633 947.488C952.761 949.523 954.325 952.876 954.325 957.548C954.325 962.258 952.742 965.669 949.577 967.779C946.412 969.851 941.89 970.887 936.012 970.887H933.242V984H924.425V945.397C926.347 945.02 928.382 944.756 930.529 944.605C932.677 944.455 934.561 944.379 936.182 944.379ZM936.747 951.896C936.106 951.896 935.466 951.915 934.825 951.953C934.222 951.991 933.695 952.028 933.242 952.066V963.37H936.012C939.064 963.37 941.363 962.956 942.907 962.127C944.452 961.298 945.225 959.753 945.225 957.492C945.225 956.399 945.018 955.495 944.603 954.779C944.226 954.063 943.661 953.498 942.907 953.083C942.192 952.631 941.306 952.33 940.251 952.179C939.196 951.991 938.028 951.896 936.747 951.896ZM972.273 944.379C978.151 944.379 982.654 945.434 985.781 947.544C988.909 949.617 990.473 952.857 990.473 957.266C990.473 960.016 989.832 962.258 988.551 963.992C987.307 965.687 985.499 967.025 983.125 968.005C983.916 968.984 984.745 970.115 985.612 971.396C986.478 972.639 987.326 973.958 988.155 975.352C989.022 976.709 989.851 978.141 990.642 979.648C991.433 981.117 992.168 982.568 992.846 984H982.955C982.239 982.719 981.505 981.419 980.751 980.1C980.035 978.781 979.281 977.5 978.49 976.257C977.737 975.013 976.983 973.845 976.229 972.752C975.476 971.622 974.722 970.605 973.969 969.7H969.616V984H960.799V945.397C962.721 945.02 964.699 944.756 966.734 944.605C968.806 944.455 970.653 944.379 972.273 944.379ZM972.782 951.896C972.141 951.896 971.557 951.915 971.029 951.953C970.54 951.991 970.069 952.028 969.616 952.066V962.692H972.103C975.419 962.692 977.793 962.277 979.225 961.448C980.657 960.619 981.373 959.206 981.373 957.209C981.373 955.288 980.638 953.931 979.168 953.14C977.737 952.311 975.608 951.896 972.782 951.896ZM1004.91 964.387C1004.91 966.309 1005.13 968.042 1005.59 969.587C1006.08 971.132 1006.75 972.47 1007.62 973.6C1008.53 974.693 1009.62 975.541 1010.9 976.144C1012.18 976.747 1013.65 977.048 1015.31 977.048C1016.93 977.048 1018.38 976.747 1019.66 976.144C1020.98 975.541 1022.07 974.693 1022.94 973.6C1023.84 972.47 1024.52 971.132 1024.97 969.587C1025.46 968.042 1025.71 966.309 1025.71 964.387C1025.71 962.466 1025.46 960.732 1024.97 959.188C1024.52 957.605 1023.84 956.267 1022.94 955.175C1022.07 954.044 1020.98 953.178 1019.66 952.575C1018.38 951.972 1016.93 951.67 1015.31 951.67C1013.65 951.67 1012.18 951.991 1010.9 952.631C1009.62 953.234 1008.53 954.101 1007.62 955.231C1006.75 956.324 1006.08 957.661 1005.59 959.244C1005.13 960.789 1004.91 962.503 1004.91 964.387ZM1034.81 964.387C1034.81 967.741 1034.3 970.699 1033.28 973.261C1032.3 975.786 1030.95 977.915 1029.21 979.648C1027.48 981.344 1025.41 982.625 1023 983.491C1020.62 984.358 1018.06 984.791 1015.31 984.791C1012.63 984.791 1010.11 984.358 1007.73 983.491C1005.36 982.625 1003.29 981.344 1001.52 979.648C999.746 977.915 998.352 975.786 997.335 973.261C996.318 970.699 995.809 967.741 995.809 964.387C995.809 961.034 996.336 958.095 997.391 955.57C998.446 953.008 999.859 950.86 1001.63 949.127C1003.44 947.394 1005.51 946.094 1007.85 945.227C1010.22 944.36 1012.71 943.927 1015.31 943.927C1017.98 943.927 1020.51 944.36 1022.88 945.227C1025.26 946.094 1027.33 947.394 1029.1 949.127C1030.87 950.86 1032.26 953.008 1033.28 955.57C1034.3 958.095 1034.81 961.034 1034.81 964.387ZM1062.5 984C1061.41 981.815 1060.2 979.61 1058.88 977.387C1057.6 975.126 1056.11 972.828 1054.42 970.492C1053.89 971.17 1053.21 972.112 1052.38 973.318C1051.59 974.523 1050.78 975.805 1049.95 977.161C1049.16 978.518 1048.41 979.817 1047.69 981.061C1046.98 982.304 1046.45 983.284 1046.11 984H1036.05C1037.71 980.948 1039.63 977.745 1041.81 974.392C1044.04 971.038 1046.51 967.477 1049.22 963.709L1036.61 944.831H1047.3L1054.93 957.04L1062.39 944.831H1072.45L1060.01 963.822C1063.18 967.929 1065.84 971.735 1067.98 975.239C1070.13 978.706 1071.83 981.626 1073.07 984H1062.5ZM1078.15 944.831H1086.96V984H1078.15V944.831ZM1106.43 944.831C1107.11 946.075 1107.88 947.62 1108.75 949.466C1109.65 951.275 1110.57 953.253 1111.52 955.401C1112.5 957.511 1113.46 959.677 1114.4 961.901C1115.34 964.124 1116.23 966.215 1117.05 968.174C1117.88 966.215 1118.77 964.124 1119.71 961.901C1120.65 959.677 1121.59 957.511 1122.54 955.401C1123.52 953.253 1124.44 951.275 1125.31 949.466C1126.21 947.62 1127 946.075 1127.68 944.831H1135.71C1136.08 947.431 1136.42 950.351 1136.72 953.592C1137.06 956.795 1137.35 960.148 1137.57 963.653C1137.84 967.119 1138.06 970.605 1138.25 974.109C1138.48 977.613 1138.66 980.91 1138.81 984H1130.22C1130.11 980.194 1129.96 976.049 1129.77 971.566C1129.58 967.082 1129.3 962.56 1128.92 958.001C1128.25 959.583 1127.49 961.335 1126.66 963.257C1125.83 965.179 1125.01 967.1 1124.18 969.022C1123.38 970.944 1122.61 972.79 1121.86 974.561C1121.11 976.294 1120.46 977.783 1119.94 979.026H1113.78C1113.25 977.783 1112.61 976.294 1111.85 974.561C1111.1 972.79 1110.31 970.944 1109.48 969.022C1108.69 967.1 1107.88 965.179 1107.05 963.257C1106.22 961.335 1105.47 959.583 1104.79 958.001C1104.41 962.56 1104.13 967.082 1103.94 971.566C1103.75 976.049 1103.6 980.194 1103.49 984H1094.9C1095.05 980.91 1095.22 977.613 1095.41 974.109C1095.63 970.605 1095.86 967.119 1096.09 963.653C1096.35 960.148 1096.63 956.795 1096.93 953.592C1097.27 950.351 1097.63 947.431 1098.01 944.831H1106.43ZM1172.98 984C1172.56 982.644 1172.09 981.249 1171.57 979.817C1171.08 978.386 1170.59 976.954 1170.1 975.522H1154.84C1154.35 976.954 1153.84 978.386 1153.31 979.817C1152.82 981.249 1152.37 982.644 1151.95 984H1142.8C1144.27 979.78 1145.66 975.88 1146.98 972.3C1148.3 968.721 1149.58 965.348 1150.82 962.183C1152.1 959.018 1153.35 956.022 1154.55 953.196C1155.8 950.333 1157.08 947.544 1158.4 944.831H1166.82C1168.1 947.544 1169.36 950.333 1170.61 953.196C1171.85 956.022 1173.09 959.018 1174.34 962.183C1175.62 965.348 1176.92 968.721 1178.24 972.3C1179.55 975.88 1180.95 979.78 1182.42 984H1172.98ZM1162.41 953.705C1162.22 954.27 1161.94 955.043 1161.56 956.022C1161.19 957.002 1160.75 958.132 1160.26 959.414C1159.77 960.695 1159.23 962.108 1158.62 963.653C1158.06 965.198 1157.47 966.818 1156.87 968.513H1168.01C1167.4 966.818 1166.82 965.198 1166.25 963.653C1165.69 962.108 1165.14 960.695 1164.61 959.414C1164.12 958.132 1163.69 957.002 1163.31 956.022C1162.94 955.043 1162.64 954.27 1162.41 953.705ZM1197.89 944.831C1198.57 946.075 1199.34 947.62 1200.21 949.466C1201.11 951.275 1202.03 953.253 1202.97 955.401C1203.95 957.511 1204.92 959.677 1205.86 961.901C1206.8 964.124 1207.68 966.215 1208.51 968.174C1209.34 966.215 1210.23 964.124 1211.17 961.901C1212.11 959.677 1213.05 957.511 1214 955.401C1214.98 953.253 1215.9 951.275 1216.77 949.466C1217.67 947.62 1218.46 946.075 1219.14 944.831H1227.17C1227.54 947.431 1227.88 950.351 1228.18 953.592C1228.52 956.795 1228.8 960.148 1229.03 963.653C1229.29 967.119 1229.52 970.605 1229.71 974.109C1229.94 977.613 1230.12 980.91 1230.27 984H1221.68C1221.57 980.194 1221.42 976.049 1221.23 971.566C1221.04 967.082 1220.76 962.56 1220.38 958.001C1219.7 959.583 1218.95 961.335 1218.12 963.257C1217.29 965.179 1216.46 967.1 1215.64 969.022C1214.84 970.944 1214.07 972.79 1213.32 974.561C1212.56 976.294 1211.92 977.783 1211.4 979.026H1205.24C1204.71 977.783 1204.07 976.294 1203.31 974.561C1202.56 972.79 1201.77 970.944 1200.94 969.022C1200.15 967.1 1199.34 965.179 1198.51 963.257C1197.68 961.335 1196.93 959.583 1196.25 958.001C1195.87 962.56 1195.59 967.082 1195.4 971.566C1195.21 976.049 1195.06 980.194 1194.95 984H1186.36C1186.51 980.91 1186.68 977.613 1186.87 974.109C1187.09 970.605 1187.32 967.119 1187.54 963.653C1187.81 960.148 1188.09 956.795 1188.39 953.592C1188.73 950.351 1189.09 947.431 1189.47 944.831H1197.89ZM1238.21 984V944.831H1264.66V952.236H1247.03V959.922H1262.69V967.157H1247.03V976.596H1265.96V984H1238.21ZM1298.77 984C1296.25 979.516 1293.52 975.089 1290.58 970.718C1287.64 966.347 1284.51 962.221 1281.19 958.34V984H1272.49V944.831H1279.67C1280.91 946.075 1282.29 947.601 1283.79 949.409C1285.3 951.218 1286.83 953.159 1288.37 955.231C1289.95 957.266 1291.52 959.395 1293.06 961.618C1294.61 963.803 1296.06 965.913 1297.42 967.948V944.831H1306.18V984H1298.77ZM1344.26 944.831V952.349H1332.45V984H1323.63V952.349H1311.82V944.831H1344.26ZM1349.93 984V944.831H1376.38V952.236H1358.75V959.922H1374.4V967.157H1358.75V976.596H1377.68V984H1349.93Z" fill="#F5F5F5"/>
</g>
</g>
<defs>
<filter id="filter0_d" x="17.4042" y="-23.4932" width="34.5927" height="35.4932" filterUnits="userSpaceOnUse" color-interpolation-filters="sRGB">
<feFlood flood-opacity="0" result="BackgroundImageFix"/>
<feColorMatrix in="SourceAlpha" type="matrix" values="0 0 0 0 0 0 0 0 0 0 0 0 0 0 0 0 0 0 127 0"/>
<feOffset dy="4"/>
<feGaussianBlur stdDeviation="2"/>
<feColorMatrix type="matrix" values="0 0 0 0 0 0 0 0 0 0 0 0 0 0 0 0 0 0 0.3 0"/>
<feBlend mode="normal" in2="BackgroundImageFix" result="effect1_dropShadow"/>
<feBlend mode="normal" in="SourceGraphic" in2="effect1_dropShadow" result="shape"/>
</filter>
<filter id="filter1_d" x="688.664" y="107.828" width="44.3355" height="45.7166" filterUnits="userSpaceOnUse" color-interpolation-filters="sRGB">
<feFlood flood-opacity="0" result="BackgroundImageFix"/>
<feColorMatrix in="SourceAlpha" type="matrix" values="0 0 0 0 0 0 0 0 0 0 0 0 0 0 0 0 0 0 127 0"/>
<feOffset dy="4"/>
<feGaussianBlur stdDeviation="2"/>
<feColorMatrix type="matrix" values="0 0 0 0 0 0 0 0 0 0 0 0 0 0 0 0 0 0 0.3 0"/>
<feBlend mode="normal" in2="BackgroundImageFix" result="effect1_dropShadow"/>
<feBlend mode="normal" in="SourceGraphic" in2="effect1_dropShadow" result="shape"/>
</filter>
<filter id="filter2_d" x="1348.57" y="241" width="36.8846" height="39.2937" filterUnits="userSpaceOnUse" color-interpolation-filters="sRGB">
<feFlood flood-opacity="0" result="BackgroundImageFix"/>
<feColorMatrix in="SourceAlpha" type="matrix" values="0 0 0 0 0 0 0 0 0 0 0 0 0 0 0 0 0 0 127 0"/>
<feOffset dy="4"/>
<feGaussianBlur stdDeviation="2"/>
<feColorMatrix type="matrix" values="0 0 0 0 0 0 0 0 0 0 0 0 0 0 0 0 0 0 0.3 0"/>
<feBlend mode="normal" in2="BackgroundImageFix" result="effect1_dropShadow"/>
<feBlend mode="normal" in="SourceGraphic" in2="effect1_dropShadow" result="shape"/>
</filter>
<filter id="filter3_d" x="344" y="286.211" width="33.6647" height="35.5749" filterUnits="userSpaceOnUse" color-interpolation-filters="sRGB">
<feFlood flood-opacity="0" result="BackgroundImageFix"/>
<feColorMatrix in="SourceAlpha" type="matrix" values="0 0 0 0 0 0 0 0 0 0 0 0 0 0 0 0 0 0 127 0"/>
<feOffset dy="4"/>
<feGaussianBlur stdDeviation="2"/>
<feColorMatrix type="matrix" values="0 0 0 0 0 0 0 0 0 0 0 0 0 0 0 0 0 0 0.3 0"/>
<feBlend mode="normal" in2="BackgroundImageFix" result="effect1_dropShadow"/>
<feBlend mode="normal" in="SourceGraphic" in2="effect1_dropShadow" result="shape"/>
</filter>
<filter id="filter4_d" x="569.317" y="466" width="45.2644" height="41.9775" filterUnits="userSpaceOnUse" color-interpolation-filters="sRGB">
<feFlood flood-opacity="0" result="BackgroundImageFix"/>
<feColorMatrix in="SourceAlpha" type="matrix" values="0 0 0 0 0 0 0 0 0 0 0 0 0 0 0 0 0 0 127 0"/>
<feOffset dy="4"/>
<feGaussianBlur stdDeviation="2"/>
<feColorMatrix type="matrix" values="0 0 0 0 0 0 0 0 0 0 0 0 0 0 0 0 0 0 0.3 0"/>
<feBlend mode="normal" in2="BackgroundImageFix" result="effect1_dropShadow"/>
<feBlend mode="normal" in="SourceGraphic" in2="effect1_dropShadow" result="shape"/>
</filter>
<filter id="filter5_d" x="968.599" y="287" width="51.187" height="49.9362" filterUnits="userSpaceOnUse" color-interpolation-filters="sRGB">
<feFlood flood-opacity="0" result="BackgroundImageFix"/>
<feColorMatrix in="SourceAlpha" type="matrix" values="0 0 0 0 0 0 0 0 0 0 0 0 0 0 0 0 0 0 127 0"/>
<feOffset dy="4"/>
<feGaussianBlur stdDeviation="2"/>
<feColorMatrix type="matrix" values="0 0 0 0 0 0 0 0 0 0 0 0 0 0 0 0 0 0 0.3 0"/>
<feBlend mode="normal" in2="BackgroundImageFix" result="effect1_dropShadow"/>
<feBlend mode="normal" in="SourceGraphic" in2="effect1_dropShadow" result="shape"/>
</filter>
<filter id="filter6_d" x="362.813" y="690.416" width="44.1869" height="42.498" filterUnits="userSpaceOnUse" color-interpolation-filters="sRGB">
<feFlood flood-opacity="0" result="BackgroundImageFix"/>
<feColorMatrix in="SourceAlpha" type="matrix" values="0 0 0 0 0 0 0 0 0 0 0 0 0 0 0 0 0 0 127 0"/>
<feOffset dy="4"/>
<feGaussianBlur stdDeviation="2"/>
<feColorMatrix type="matrix" values="0 0 0 0 0 0 0 0 0 0 0 0 0 0 0 0 0 0 0.3 0"/>
<feBlend mode="normal" in2="BackgroundImageFix" result="effect1_dropShadow"/>
<feBlend mode="normal" in="SourceGraphic" in2="effect1_dropShadow" result="shape"/>
</filter>
<filter id="filter7_d" x="848" y="707.389" width="43.5727" height="40.2182" filterUnits="userSpaceOnUse" color-interpolation-filters="sRGB">
<feFlood flood-opacity="0" result="BackgroundImageFix"/>
<feColorMatrix in="SourceAlpha" type="matrix" values="0 0 0 0 0 0 0 0 0 0 0 0 0 0 0 0 0 0 127 0"/>
<feOffset dy="4"/>
<feGaussianBlur stdDeviation="2"/>
<feColorMatrix type="matrix" values="0 0 0 0 0 0 0 0 0 0 0 0 0 0 0 0 0 0 0.3 0"/>
<feBlend mode="normal" in2="BackgroundImageFix" result="effect1_dropShadow"/>
<feBlend mode="normal" in="SourceGraphic" in2="effect1_dropShadow" result="shape"/>
</filter>
<filter id="filter8_d" x="1281.58" y="542" width="33.6811" height="34.3458" filterUnits="userSpaceOnUse" color-interpolation-filters="sRGB">
<feFlood flood-opacity="0" result="BackgroundImageFix"/>
<feColorMatrix in="SourceAlpha" type="matrix" values="0 0 0 0 0 0 0 0 0 0 0 0 0 0 0 0 0 0 127 0"/>
<feOffset dy="4"/>
<feGaussianBlur stdDeviation="2"/>
<feColorMatrix type="matrix" values="0 0 0 0 0 0 0 0 0 0 0 0 0 0 0 0 0 0 0.3 0"/>
<feBlend mode="normal" in2="BackgroundImageFix" result="effect1_dropShadow"/>
<feBlend mode="normal" in="SourceGraphic" in2="effect1_dropShadow" result="shape"/>
</filter>
<filter id="filter9_d" x="366.546" y="931" width="48.8609" height="49.0809" filterUnits="userSpaceOnUse" color-interpolation-filters="sRGB">
<feFlood flood-opacity="0" result="BackgroundImageFix"/>
<feColorMatrix in="SourceAlpha" type="matrix" values="0 0 0 0 0 0 0 0 0 0 0 0 0 0 0 0 0 0 127 0"/>
<feOffset dy="4"/>
<feGaussianBlur stdDeviation="2"/>
<feColorMatrix type="matrix" values="0 0 0 0 0 0 0 0 0 0 0 0 0 0 0 0 0 0 0.3 0"/>
<feBlend mode="normal" in2="BackgroundImageFix" result="effect1_dropShadow"/>
<feBlend mode="normal" in="SourceGraphic" in2="effect1_dropShadow" result="shape"/>
</filter>
<filter id="filter10_d" x="849.016" y="814.59" width="36.8152" height="35.41" filterUnits="userSpaceOnUse" color-interpolation-filters="sRGB">
<feFlood flood-opacity="0" result="BackgroundImageFix"/>
<feColorMatrix in="SourceAlpha" type="matrix" values="0 0 0 0 0 0 0 0 0 0 0 0 0 0 0 0 0 0 127 0"/>
<feOffset dy="4"/>
<feGaussianBlur stdDeviation="2"/>
<feColorMatrix type="matrix" values="0 0 0 0 0 0 0 0 0 0 0 0 0 0 0 0 0 0 0.3 0"/>
<feBlend mode="normal" in2="BackgroundImageFix" result="effect1_dropShadow"/>
<feBlend mode="normal" in="SourceGraphic" in2="effect1_dropShadow" result="shape"/>
</filter>
<filter id="filter11_d" x="1309.84" y="846.505" width="30.1562" height="28.5657" filterUnits="userSpaceOnUse" color-interpolation-filters="sRGB">
<feFlood flood-opacity="0" result="BackgroundImageFix"/>
<feColorMatrix in="SourceAlpha" type="matrix" values="0 0 0 0 0 0 0 0 0 0 0 0 0 0 0 0 0 0 127 0"/>
<feOffset dy="4"/>
<feGaussianBlur stdDeviation="2"/>
<feColorMatrix type="matrix" values="0 0 0 0 0 0 0 0 0 0 0 0 0 0 0 0 0 0 0.3 0"/>
<feBlend mode="normal" in2="BackgroundImageFix" result="effect1_dropShadow"/>
<feBlend mode="normal" in="SourceGraphic" in2="effect1_dropShadow" result="shape"/>
</filter>
<filter id="filter12_b" x="918.911" y="560.669" width="67.3078" height="51.2165" filterUnits="userSpaceOnUse" color-interpolation-filters="sRGB">
<feFlood flood-opacity="0" result="BackgroundImageFix"/>
<feGaussianBlur in="BackgroundImage" stdDeviation="2"/>
<feComposite in2="SourceAlpha" operator="in" result="effect1_backgroundBlur"/>
<feBlend mode="normal" in="SourceGraphic" in2="effect1_backgroundBlur" result="shape"/>
</filter>
<filter id="filter13_b" x="1006.03" y="575.652" width="67.3078" height="51.2165" filterUnits="userSpaceOnUse" color-interpolation-filters="sRGB">
<feFlood flood-opacity="0" result="BackgroundImageFix"/>
<feGaussianBlur in="BackgroundImage" stdDeviation="2"/>
<feComposite in2="SourceAlpha" operator="in" result="effect1_backgroundBlur"/>
<feBlend mode="normal" in="SourceGraphic" in2="effect1_backgroundBlur" result="shape"/>
</filter>
<filter id="filter14_b" x="86.9039" y="195.205" width="68.0713" height="48.7802" filterUnits="userSpaceOnUse" color-interpolation-filters="sRGB">
<feFlood flood-opacity="0" result="BackgroundImageFix"/>
<feGaussianBlur in="BackgroundImage" stdDeviation="2"/>
<feComposite in2="SourceAlpha" operator="in" result="effect1_backgroundBlur"/>
<feBlend mode="normal" in="SourceGraphic" in2="effect1_backgroundBlur" result="shape"/>
</filter>
<filter id="filter15_b" x="180.561" y="188.026" width="68.0713" height="48.7802" filterUnits="userSpaceOnUse" color-interpolation-filters="sRGB">
<feFlood flood-opacity="0" result="BackgroundImageFix"/>
<feGaussianBlur in="BackgroundImage" stdDeviation="2"/>
<feComposite in2="SourceAlpha" operator="in" result="effect1_backgroundBlur"/>
<feBlend mode="normal" in="SourceGraphic" in2="effect1_backgroundBlur" result="shape"/>
</filter>
<filter id="filter16_d" x="924.425" y="943.927" width="461.256" height="49.8643" filterUnits="userSpaceOnUse" color-interpolation-filters="sRGB">
<feFlood flood-opacity="0" result="BackgroundImageFix"/>
<feColorMatrix in="SourceAlpha" type="matrix" values="0 0 0 0 0 0 0 0 0 0 0 0 0 0 0 0 0 0 127 0"/>
<feOffset dx="4" dy="5"/>
<feGaussianBlur stdDeviation="2"/>
<feColorMatrix type="matrix" values="0 0 0 0 1 0 0 0 0 1 0 0 0 0 1 0 0 0 0.4 0"/>
<feBlend mode="normal" in2="BackgroundImageFix" result="effect1_dropShadow"/>
<feBlend mode="normal" in="SourceGraphic" in2="effect1_dropShadow" result="shape"/>
</filter>
<clipPath id="clip0">
<rect width="1440" height="1024" fill="white"/>
</clipPath>
</defs>
</svg>
