<svg width="1369" height="913" viewBox="0 0 1369 913" fill="none" xmlns="http://www.w3.org/2000/svg">
<g clip-path="url(#clip0)">
<rect width="1368" height="912" transform="translate(0.737305 0.0499878)" fill="#3C576A"/>
<path opacity="0.79" d="M62.628 178.261L50.3226 187.372L64.0233 194.209L48.74 193.279L54.841 207.322L43.731 196.786L39.3776 211.466L37.6394 196.253L24.8687 204.7L33.3156 191.929L18.103 190.191L32.7827 185.838L22.2464 174.728L36.29 180.829L35.3601 165.545L42.1965 179.246L51.308 166.941L47.7384 181.83L62.628 178.261Z" fill="#063885"/>
<path opacity="0.99" d="M337.709 73.7953L347.109 60.1094L330.648 57.937L346.646 53.495L335.433 41.2505L350.543 48.1308L349.824 31.5435L356.977 46.5267L367.088 33.358L362.936 49.4333L379.147 45.845L365.633 55.4907L380.358 63.1617L363.806 61.8643L370.154 77.2054L358.309 65.5721L353.311 81.4049L351.715 64.879L337.709 73.7953Z" fill="#063885"/>
<path opacity="0.81" d="M734.939 41.822L734.505 58.6038L749.659 51.3815L738.539 63.958L754.791 68.1664L738.188 70.653L747.933 84.323L733.616 75.5562L732.294 92.2913L726.962 76.3732L715.192 88.343L721.339 72.7218L704.629 74.3255L719.379 66.3106L705.547 56.7977L721.999 60.1393L717.518 43.9611L727.972 57.0956L734.939 41.822Z" fill="#063885"/>
<path opacity="0.88" d="M909.089 143.748L895.275 153.608L910.326 161.45L893.406 160.124L899.896 175.806L887.787 163.914L882.679 180.099L881.047 163.205L866.73 172.32L876.338 158.33L859.512 156.109L875.865 151.568L864.403 139.052L879.849 146.085L879.114 129.129L886.426 144.445L896.762 130.984L892.518 147.416L909.089 143.748Z" fill="#063885"/>
<path opacity="0.71" d="M1176.94 49.2419L1191.41 45.496L1181.51 34.3015L1195 40.7301L1194.61 25.7925L1200.81 39.3877L1210.12 27.6965L1206.13 42.0969L1220.77 39.1225L1208.46 47.59L1221.59 54.7242L1206.72 53.2968L1212.19 67.2014L1201.71 56.5469L1196.97 70.7158L1195.79 55.8196L1183.05 63.623L1191.72 51.4553L1176.94 49.2419Z" fill="#063885"/>
<path opacity="0.86" d="M175.321 314.244L184.1 307.503L174.111 302.735L185.169 303.214L180.583 293.141L188.746 300.616L191.707 289.951L193.155 300.924L202.279 294.658L196.335 303.995L207.352 305.059L196.797 308.391L204.553 316.288L194.325 312.056L195.19 323.09L190.076 313.274L183.646 322.283L186.038 311.476L175.321 314.244Z" fill="#063885"/>
<path opacity="0.9" d="M483.4 349.099L483.575 368.468L500.76 359.53L488.444 374.48L507.353 378.679L488.309 382.215L500.095 397.586L483.233 388.053L482.382 407.404L475.593 389.263L462.502 403.54L468.962 385.279L449.757 387.801L466.444 377.965L450.111 367.552L469.216 370.743L463.397 352.267L475.982 366.992L483.4 349.099Z" fill="#063885"/>
<path opacity="0.76" d="M623.203 215.957L637.159 217.296L632.024 204.25L641.855 214.247L646.307 200.952L647.412 214.929L659.368 207.607L651.231 219.024L665.096 221.101L651.524 224.615L660.81 235.119L648.154 229.087L648.516 243.102L642.698 230.346L633.967 241.316L637.709 227.805L623.97 230.595L635.522 222.651L623.203 215.957Z" fill="#063885"/>
<path opacity="0.88" d="M905.358 249.598L925.007 251.483L917.779 233.115L931.618 247.19L937.888 228.473L939.443 248.151L956.276 237.842L944.819 253.916L964.34 256.84L945.231 261.788L958.306 276.576L940.487 268.084L940.998 287.816L932.806 269.857L920.514 285.301L925.782 266.278L906.438 270.207L922.702 259.022L905.358 249.598Z" fill="#063885"/>
<path opacity="0.98" d="M1150.89 194.38L1162.11 206.617L1167.93 191.068L1168.66 207.654L1183.11 199.483L1173.01 212.658L1189.33 215.689L1173.12 219.288L1183.68 232.103L1168.95 224.441L1168.8 241.043L1162.44 225.706L1151.66 238.328L1156.64 222.492L1140.27 225.227L1154.27 216.301L1139.97 207.87L1156.43 210.032L1150.89 194.38Z" fill="#063885"/>
<path opacity="0.73" d="M145.675 454.511L135.378 458.571L143.666 465.908L133.168 462.399L134.8 473.347L129.014 463.911L123.228 473.347L124.86 462.399L114.363 465.908L122.65 458.571L112.353 454.511L123.418 454.218L118.139 444.489L126.804 451.376L129.014 440.531L131.224 451.376L139.889 444.489L134.61 454.218L145.675 454.511Z" fill="#063885"/>
<path opacity="0.85" d="M291.754 414.644L302.471 417.412L300.078 406.605L306.509 415.614L311.623 405.798L310.758 416.833L320.985 412.6L313.23 420.497L323.785 423.829L312.768 424.893L318.712 434.23L309.588 427.964L308.14 438.937L305.178 428.272L297.015 435.748L301.602 425.674L290.544 426.153L300.533 421.385L291.754 414.644Z" fill="#063885"/>
<path opacity="0.72" d="M791.176 405.138L810.908 404.615L801.495 387.265L816.947 399.548L820.889 380.206L824.83 399.548L840.282 387.265L830.869 404.615L850.601 405.138L832.238 412.378L847.017 425.462L828.296 419.205L831.208 438.728L820.889 421.901L810.57 438.728L813.481 419.205L794.76 425.462L809.54 412.378L791.176 405.138Z" fill="#063885"/>
<path opacity="0.99" d="M862.207 515.06L871.585 496.236L850.555 496.413L869.839 488.021L853.615 474.639L873.782 480.605L869.956 459.926L881.569 477.459L891.93 459.159L889.556 480.055L909.257 472.696L894.007 487.177L913.829 494.203L892.838 495.494L903.506 513.618L886.597 501.114L883.119 521.855L878.203 501.407L862.207 515.06Z" fill="#063885"/>
<path opacity="0.75" d="M1294.5 515.167L1282.67 517.15L1289.8 526.791L1279.47 520.708L1278.73 532.677L1274.73 521.375L1266.47 530.07L1270.66 518.837L1258.75 520.191L1269.18 514.283L1259.19 507.661L1270.98 509.843L1267.58 498.345L1275.21 507.595L1279.99 496.6L1279.89 508.59L1290.62 503.243L1282.84 512.364L1294.5 515.167Z" fill="#063885"/>
<path opacity="0.98" d="M236.276 722.127L218.215 724.832L228.815 739.704L213.24 730.166L211.802 748.372L206.001 731.055L193.196 744.077L199.884 727.083L181.705 728.827L197.752 720.108L182.704 709.758L200.602 713.394L195.727 695.793L207.1 710.083L214.679 693.466L214.207 711.723L230.694 703.866L218.596 717.548L236.276 722.127Z" fill="#063885"/>
<path opacity="0.97" d="M415.883 544.753L430.947 558.073L435.988 538.607L438.967 558.493L455.341 546.821L444.84 563.97L464.885 565.554L445.818 571.94L460.156 586.038L441.445 578.675L443.366 598.691L433.765 581.023L422.371 597.59L426.373 577.885L406.995 583.252L422.728 570.73L404.433 562.385L424.534 562.905L415.883 544.753Z" fill="#063885"/>
<path opacity="0.87" d="M762.161 616.013L753.462 608.588L750.788 619.708L748.897 608.428L739.7 615.229L745.502 605.372L734.086 604.67L744.867 600.849L736.573 592.973L747.287 596.975L745.996 585.611L751.631 595.564L757.947 586.028L755.866 597.275L766.834 594.03L758.011 601.308L768.498 605.872L757.061 605.776L762.161 616.013Z" fill="#063885"/>
<path opacity="0.77" d="M1006.63 716.913L993.008 717.75L999.933 729.515L988.956 721.398L986.699 734.862L983.508 721.589L973.125 730.451L979.212 718.232L965.561 718.347L978.078 712.899L967.548 704.213L980.638 708.086L978.154 694.662L985.693 706.044L992.419 694.164L990.878 707.728L1003.67 702.952L993.767 712.352L1006.63 716.913Z" fill="#063885"/>
<path opacity="0.99" d="M1174.01 595.108L1162.03 594.798L1167.19 605.623L1158.2 597.68L1155.2 609.288L1153.42 597.429L1143.66 604.39L1149.92 594.164L1137.96 593.219L1149.33 589.411L1140.79 581.003L1151.94 585.394L1150.8 573.458L1156.52 583.994L1163.32 574.114L1160.93 585.865L1172.49 582.665L1163.1 590.132L1174.01 595.108Z" fill="#063885"/>
<path opacity="0.85" d="M199.079 747.765L216.918 757.044L217.1 736.937L224.801 755.512L237.865 740.226L231.824 759.405L251.658 756.092L234.702 766.902L252.024 777.113L232.088 774.494L238.794 793.451L225.204 778.63L218.156 797.463L217.273 777.374L199.769 787.27L212.005 771.314L192.235 767.643L211.864 763.285L199.079 747.765Z" fill="#063885"/>
<path opacity="0.76" d="M557.167 823.305L576.124 830.011L573.505 810.075L583.716 827.397L594.526 810.442L591.213 830.275L610.393 824.234L595.107 837.298L613.681 844.999L593.574 845.181L602.853 863.02L587.334 850.235L582.975 869.865L579.304 850.095L563.348 862.33L573.244 844.826L553.155 843.943L571.988 836.895L557.167 823.305Z" fill="#063885"/>
<path opacity="0.98" d="M674.259 832.163L655.096 828.27L660.315 847.115L648.138 831.815L640.023 849.607L640.528 830.059L622.876 838.472L635.829 823.822L616.899 818.92L636.237 816.023L624.887 800.1L641.563 810.312L643.104 790.818L649.314 809.36L663.025 795.417L655.864 813.614L675.329 811.746L658.147 821.082L674.259 832.163Z" fill="#063885"/>
<path opacity="0.74" d="M868.249 871.424L888.11 869.855L877.706 852.864L893.929 864.428L896.88 844.725L901.875 864.012L916.801 850.815L908.229 868.8L928.146 868.285L910.019 876.553L925.608 888.961L906.407 883.643L910.373 903.167L899.083 886.751L889.571 904.257L891.474 884.425L872.934 891.721L887.14 877.752L868.249 871.424Z" fill="#063885"/>
<path opacity="0.94" d="M1166.44 805.871L1182.49 803.466L1173.07 790.247L1186.91 798.725L1188.19 782.541L1193.35 797.934L1204.73 786.359L1198.78 801.465L1214.94 799.915L1200.68 807.665L1214.06 816.865L1198.15 813.633L1202.48 829.278L1192.37 816.576L1185.63 831.347L1186.05 815.118L1171.4 822.102L1182.15 809.94L1166.44 805.871Z" fill="#063885"/>
<g opacity="0.78">
<path d="M1278.61 183.551C1278.61 237.737 1234.69 281.664 1180.5 281.664C1126.31 281.664 1082.39 237.737 1082.39 183.551C1082.39 129.366 1126.31 85.4392 1180.5 85.4392C1234.69 85.4392 1278.61 129.366 1278.61 183.551Z" fill="#4E4949"/>
<path fill-rule="evenodd" clip-rule="evenodd" d="M1180.5 277.533C1232.47 277.533 1274.53 235.413 1274.53 183.551C1274.53 131.69 1232.47 89.5703 1180.5 89.5703C1128.53 89.5703 1086.47 131.69 1086.47 183.551C1086.47 235.413 1128.53 277.533 1180.5 277.533ZM1180.5 281.664C1234.69 281.664 1278.61 237.737 1278.61 183.551C1278.61 129.366 1234.69 85.4392 1180.5 85.4392C1126.31 85.4392 1082.39 129.366 1082.39 183.551C1082.39 237.737 1126.31 281.664 1180.5 281.664Z" fill="black"/>
<path d="M1258.99 183.552C1258.99 226.9 1223.85 262.041 1180.5 262.041C1137.15 262.041 1102.01 226.9 1102.01 183.552C1102.01 140.203 1137.15 105.062 1180.5 105.062C1223.85 105.062 1258.99 140.203 1258.99 183.552Z" fill="#525252"/>
<path fill-rule="evenodd" clip-rule="evenodd" d="M1180.5 259.563C1222.52 259.563 1256.54 225.506 1256.54 183.552C1256.54 141.597 1222.52 107.54 1180.5 107.54C1138.48 107.54 1104.46 141.597 1104.46 183.552C1104.46 225.506 1138.48 259.563 1180.5 259.563ZM1180.5 262.041C1223.85 262.041 1258.99 226.9 1258.99 183.552C1258.99 140.203 1223.85 105.062 1180.5 105.062C1137.15 105.062 1102.01 140.203 1102.01 183.552C1102.01 226.9 1137.15 262.041 1180.5 262.041Z" fill="black"/>
<path d="M1216.36 149.817C1222.23 139.616 1224.13 134.959 1230.72 126.093C1222.59 119.527 1218.54 116.017 1207.31 112.361C1201.78 121.47 1196.76 125.892 1190.5 134.909C1182.31 135.977 1178.06 138.372 1171.39 147.541C1168.9 152.508 1168.84 154.952 1171.37 158.614C1163.48 163.839 1163.31 169.095 1171.48 174.156C1173.54 179.844 1175.78 181.568 1181.45 182.367C1186.86 186.601 1189.07 186.854 1193.57 184.588C1200.52 189.571 1203.66 187.096 1208.38 176.554C1213.05 163.828 1216.27 155.795 1214.99 151.982C1215.92 151.167 1216.14 150.687 1216.36 149.817Z" fill="#0116D1"/>
<path fill-rule="evenodd" clip-rule="evenodd" d="M1207.22 112.115L1207.37 112.165C1218.18 115.682 1222.37 119.074 1229.86 125.138C1230.18 125.398 1230.51 125.662 1230.84 125.932L1231 126.057L1230.88 126.217C1226.13 132.603 1223.83 136.794 1220.71 142.468C1219.51 144.654 1218.19 147.061 1216.56 149.898C1216.44 150.326 1216.32 150.679 1216.11 151.028C1215.92 151.357 1215.64 151.673 1215.22 152.048C1215.52 153.022 1215.54 154.231 1215.36 155.668C1215.16 157.172 1214.73 158.943 1214.11 160.986C1213.1 164.364 1211.57 168.506 1209.75 173.436C1209.37 174.465 1208.98 175.528 1208.58 176.626L1208.57 176.633L1208.57 176.64C1207.39 179.278 1206.3 181.421 1205.23 183.071C1204.15 184.72 1203.08 185.892 1201.92 186.572C1199.58 187.937 1196.99 187.271 1193.55 184.828C1191.34 185.929 1189.64 186.434 1187.82 186.119C1185.98 185.802 1184.05 184.661 1181.37 182.564C1178.55 182.163 1176.54 181.525 1174.98 180.256C1173.42 178.989 1172.34 177.114 1171.31 174.295C1167.26 171.769 1165.19 169.148 1165.2 166.446C1165.21 163.774 1167.24 161.14 1171.09 158.558C1169.89 156.784 1169.29 155.259 1169.3 153.566C1169.31 151.826 1169.96 149.938 1171.21 147.448L1171.22 147.433L1171.23 147.419C1174.57 142.827 1177.32 139.912 1180.27 138.013C1183.2 136.126 1186.32 135.253 1190.39 134.716C1193.06 130.862 1195.52 127.845 1197.88 124.944C1198.26 124.473 1198.64 124.006 1199.02 123.539C1201.75 120.17 1204.38 116.796 1207.13 112.253L1207.22 112.115ZM1207.4 112.608C1204.66 117.104 1202.04 120.461 1199.34 123.801C1198.96 124.269 1198.58 124.737 1198.19 125.207C1195.82 128.127 1193.36 131.152 1190.67 135.028L1190.62 135.103L1190.53 135.114C1186.45 135.646 1183.37 136.506 1180.49 138.362C1177.6 140.218 1174.89 143.081 1171.57 147.65C1170.33 150.12 1169.71 151.932 1169.71 153.568C1169.7 155.198 1170.29 156.683 1171.54 158.496L1171.66 158.67L1171.48 158.787C1167.55 161.393 1165.62 163.959 1165.61 166.447C1165.6 168.931 1167.52 171.457 1171.59 173.98L1171.65 174.018L1171.67 174.085C1172.7 176.916 1173.75 178.727 1175.24 179.934C1176.72 181.141 1178.65 181.765 1181.48 182.163L1181.53 182.17L1181.57 182.204C1184.28 184.32 1186.15 185.412 1187.88 185.712C1189.61 186.01 1191.24 185.531 1193.48 184.404L1193.59 184.349L1193.69 184.42C1197.15 186.902 1199.58 187.463 1201.71 186.214C1202.79 185.58 1203.83 184.469 1204.88 182.844C1205.94 181.222 1207.02 179.105 1208.2 176.476C1208.6 175.378 1208.99 174.315 1209.37 173.287C1211.19 168.357 1212.71 164.23 1213.72 160.865C1214.34 158.832 1214.76 157.085 1214.95 155.613C1215.14 154.139 1215.1 152.959 1214.8 152.049L1214.75 151.917L1214.85 151.826C1215.31 151.426 1215.58 151.118 1215.77 150.813C1215.95 150.508 1216.05 150.193 1216.17 149.764L1216.17 149.738L1216.19 149.714C1217.82 146.881 1219.14 144.474 1220.34 142.284C1223.44 136.647 1225.75 132.45 1230.43 126.13C1230.15 125.903 1229.88 125.681 1229.61 125.462C1222.16 119.434 1218.02 116.084 1207.4 112.608Z" fill="black"/>
<path fill-rule="evenodd" clip-rule="evenodd" d="M1204.21 139.022L1212.3 127.827L1212.63 128.071L1204.54 139.266L1204.21 139.022ZM1205.55 139.428L1209.82 133.713L1210.14 133.961L1205.88 139.677L1205.55 139.428ZM1200.07 138.78C1197.64 137.565 1196.15 136.957 1193.27 135.969L1193.4 135.578C1196.29 136.57 1197.81 137.185 1200.25 138.41L1200.07 138.78ZM1212.01 148.672C1209.94 146.263 1208.62 144.999 1206.11 142.825L1206.38 142.512C1208.9 144.695 1210.23 145.973 1212.32 148.401L1212.01 148.672ZM1192.25 154.016C1189.36 154.667 1186.62 154.517 1183.27 153.597L1183.38 153.199C1186.68 154.105 1189.35 154.246 1192.16 153.613C1194.99 152.977 1197.98 151.559 1201.92 149.321L1202.12 149.681C1198.17 151.923 1195.14 153.366 1192.25 154.016ZM1180.4 151.595C1180.44 151.327 1180.44 151.092 1180.4 150.859C1180.35 150.588 1180.24 150.333 1180.09 150.045L1179.73 150.239C1179.87 150.512 1179.96 150.724 1180 150.935C1180.04 151.142 1180.03 151.361 1179.98 151.65L1179.68 152.651C1179.52 152.611 1179.35 152.581 1179.18 152.561C1178.33 152.46 1177.42 152.606 1176.39 152.954L1176.52 153.345C1177.51 153.009 1178.37 152.879 1179.14 152.971C1179.9 153.063 1180.6 153.377 1181.29 153.952C1182.68 155.114 1184 157.329 1185.67 160.897C1185.93 161.621 1185.8 162.488 1185.39 163.362C1184.98 164.236 1184.31 165.09 1183.53 165.763C1182.75 166.437 1181.89 166.913 1181.11 167.054C1180.34 167.194 1179.67 167.007 1179.21 166.373C1178.16 164.933 1176.13 162.827 1174.37 161.091C1173.48 160.22 1172.67 159.439 1172.07 158.875C1171.77 158.593 1171.53 158.366 1171.36 158.209C1171.27 158.13 1171.21 158.069 1171.16 158.028L1171.11 157.981L1171.09 157.965C1171.09 157.965 1171.09 157.965 1170.96 158.118C1170.82 158.271 1170.82 158.271 1170.82 158.271L1170.82 158.272L1170.84 158.286L1170.89 158.333C1170.93 158.374 1171 158.435 1171.08 158.513C1171.25 158.669 1171.49 158.896 1171.79 159.177C1172.39 159.739 1173.2 160.519 1174.08 161.386C1175.85 163.126 1177.86 165.209 1178.88 166.617C1179.46 167.407 1180.3 167.621 1181.18 167.461C1182.06 167.302 1182.99 166.779 1183.8 166.076C1184.61 165.372 1185.32 164.472 1185.76 163.538C1186.19 162.607 1186.36 161.615 1186.05 160.746L1186.04 160.738L1186.04 160.73C1185.47 159.5 1184.93 158.421 1184.41 157.485L1184.47 157.537L1184.93 157.045C1186.77 157.419 1188 157.875 1188.89 158.621C1189.76 159.34 1190.33 160.349 1190.81 161.884L1190.79 161.923C1186.86 170.367 1184.24 175.397 1180.83 180.64L1181.17 180.867C1184.57 175.636 1187.19 170.618 1191.08 162.27L1191.1 162.269C1192.97 162.127 1194.28 162.272 1195.33 162.81C1196.38 163.341 1197.2 164.271 1198.07 165.769C1198.03 168.81 1197.8 171.261 1197.04 173.935C1196.27 176.629 1194.96 179.559 1192.74 183.551L1193.1 183.753C1195.32 179.749 1196.65 176.787 1197.43 174.05C1198.2 171.366 1198.43 168.907 1198.47 165.906C1200.05 165.791 1201.35 165.92 1202.39 166.326C1203.46 166.746 1204.27 167.466 1204.82 168.545C1205.38 169.63 1205.69 171.088 1205.73 172.987C1205.78 174.884 1205.57 177.208 1205.11 180.015L1205.52 180.083C1205.98 177.262 1206.19 174.91 1206.14 172.976C1206.09 171.044 1205.78 169.516 1205.19 168.354C1204.59 167.186 1203.7 166.398 1202.54 165.941C1201.41 165.499 1200.02 165.373 1198.38 165.498C1197.51 164.005 1196.65 163.016 1195.52 162.441C1194.4 161.869 1193.05 161.721 1191.23 161.846C1190.73 160.226 1190.12 159.107 1189.15 158.302C1188.18 157.489 1186.86 157.016 1185 156.638C1184.4 155.427 1183.85 154.522 1183.14 153.737C1182.44 152.959 1181.59 152.309 1180.4 151.595ZM1184.61 156.783C1184.03 155.609 1183.5 154.753 1182.84 154.016C1182.19 153.3 1181.4 152.689 1180.3 152.013L1180.07 152.767C1180.59 152.948 1181.08 153.235 1181.55 153.634C1182.46 154.392 1183.32 155.558 1184.24 157.178L1184.61 156.783ZM1189.49 157.28C1195.59 159.766 1200.22 161.283 1206.39 160.242L1206.45 160.649C1200.17 161.71 1195.45 160.155 1189.33 157.663L1189.49 157.28ZM1174.39 167.911C1175.25 166.573 1176.01 165.575 1177.22 164.699L1177.46 165.035C1176.31 165.867 1175.58 166.814 1174.73 168.135C1174.49 168.524 1174.23 168.946 1173.94 169.407C1173.27 170.508 1172.46 171.829 1171.33 173.441L1171 173.203C1172.12 171.601 1172.92 170.299 1173.59 169.201C1173.87 168.737 1174.14 168.309 1174.39 167.911Z" fill="black"/>
<path d="M1170.01 234.145C1163.92 244.209 1161.91 245.888 1156.55 255.826C1152.14 254.246 1144.27 251.693 1131.96 242.754C1137.26 233.511 1139.88 228.07 1144.75 218.22C1141.79 210.429 1141.85 205.507 1146.66 195.216C1149.8 190.643 1151.9 189.43 1156.29 189.939C1157.09 180.438 1161.58 177.789 1169.87 182.651C1175.8 181.777 1178.36 182.95 1181.75 187.616C1188.01 190.418 1189.28 192.263 1189.44 197.343C1197.08 201.161 1196.42 205.131 1189.49 214.341C1180.63 224.543 1175.17 231.221 1171.24 231.892C1170.98 233.107 1170.66 233.528 1170.01 234.145Z" fill="#950000"/>
<path fill-rule="evenodd" clip-rule="evenodd" d="M1131.69 242.812L1131.84 242.922C1143.56 251.432 1151.27 254.168 1155.8 255.777C1156.04 255.861 1156.26 255.942 1156.48 256.02L1156.65 256.079L1156.73 255.925C1159.41 250.962 1161.25 248.063 1163.18 245.147C1163.52 244.633 1163.86 244.118 1164.21 243.59C1165.86 241.132 1167.67 238.411 1170.17 234.276C1170.49 233.971 1170.74 233.699 1170.95 233.347C1171.14 233.013 1171.28 232.618 1171.41 232.07C1172.4 231.87 1173.46 231.318 1174.63 230.468C1175.84 229.579 1177.18 228.353 1178.66 226.836C1181.12 224.325 1184 220.998 1187.43 217.038C1188.14 216.211 1188.88 215.357 1189.64 214.477L1189.65 214.472L1189.65 214.466C1191.39 212.16 1192.74 210.175 1193.66 208.434C1194.59 206.694 1195.09 205.182 1195.13 203.826C1195.21 201.102 1193.4 199.112 1189.64 197.212C1189.55 194.725 1189.18 192.973 1188.04 191.498C1186.89 190.015 1184.98 188.841 1181.88 187.449C1180.19 185.131 1178.68 183.65 1176.84 182.866C1175 182.083 1172.85 182.009 1169.91 182.436C1165.78 180.028 1162.52 179.436 1160.17 180.727C1157.85 182.004 1156.53 185.067 1156.11 189.711C1153.99 189.489 1152.38 189.677 1150.91 190.491C1149.4 191.326 1148.07 192.806 1146.5 195.098L1146.49 195.112L1146.48 195.128C1144.07 200.282 1142.84 204.112 1142.59 207.641C1142.34 211.148 1143.06 214.337 1144.53 218.208C1144.08 219.111 1143.65 219.976 1143.24 220.811C1139.17 229.041 1136.58 234.288 1131.79 242.65L1131.69 242.812ZM1132.23 242.695C1136.98 234.415 1139.57 229.173 1143.61 220.997C1144.03 220.136 1144.47 219.244 1144.93 218.312L1144.97 218.23L1144.94 218.145C1143.47 214.265 1142.75 211.119 1143 207.67C1143.24 204.221 1144.44 200.449 1146.84 195.32C1148.4 193.047 1149.69 191.639 1151.11 190.853C1152.52 190.07 1154.1 189.892 1156.27 190.144L1156.48 190.168L1156.49 189.956C1156.89 185.218 1158.21 182.279 1160.37 181.09C1162.53 179.903 1165.63 180.405 1169.77 182.829L1169.83 182.865L1169.9 182.855C1172.85 182.42 1174.93 182.501 1176.68 183.246C1178.44 183.992 1179.9 185.415 1181.59 187.738L1181.62 187.782L1181.67 187.804C1184.79 189.204 1186.63 190.349 1187.72 191.752C1188.8 193.146 1189.16 194.822 1189.24 197.349L1189.24 197.473L1189.35 197.528C1193.16 199.43 1194.8 201.322 1194.73 203.814C1194.69 205.078 1194.21 206.524 1193.3 208.239C1192.39 209.95 1191.06 211.913 1189.33 214.21C1188.57 215.09 1187.83 215.944 1187.11 216.769C1183.69 220.73 1180.82 224.045 1178.37 226.545C1176.89 228.056 1175.58 229.264 1174.39 230.134C1173.19 231.005 1172.15 231.528 1171.21 231.688L1171.07 231.711L1171.04 231.847C1170.91 232.443 1170.77 232.829 1170.59 233.138C1170.42 233.447 1170.19 233.69 1169.87 233.995L1169.85 234.014L1169.84 234.037C1167.33 238.177 1165.52 240.896 1163.88 243.358C1163.52 243.886 1163.18 244.402 1162.84 244.918C1160.92 247.811 1159.1 250.691 1156.46 255.572C1156.29 255.512 1156.11 255.45 1155.93 255.387C1151.44 253.791 1143.82 251.086 1132.23 242.695Z" fill="black"/>
<path fill-rule="evenodd" clip-rule="evenodd" d="M1154.85 228.464L1148.95 240.98L1149.32 241.157L1155.21 228.642L1154.85 228.464ZM1155.84 229.464L1152.89 235.972L1153.26 236.144L1156.21 229.636L1155.84 229.464ZM1152.67 224.892C1150.46 223.313 1149.22 222.271 1146.99 220.176L1146.71 220.479C1148.95 222.583 1150.2 223.638 1152.43 225.229L1152.67 224.892ZM1166.95 230.817C1163.87 230.117 1162.14 229.548 1159.06 228.349L1158.91 228.734C1162.01 229.939 1163.75 230.514 1166.86 231.22L1166.95 230.817ZM1162.21 210.7C1161.4 207.813 1159.97 205.448 1157.58 202.906L1157.28 203.191C1159.64 205.695 1161.03 208.003 1161.82 210.812C1162.61 213.629 1162.79 216.962 1162.72 221.527L1163.13 221.534C1163.2 216.963 1163.02 213.578 1162.21 210.7ZM1154.47 201.308C1154.26 201.472 1154.06 201.584 1153.83 201.656C1153.57 201.741 1153.3 201.766 1152.98 201.768L1152.97 201.355C1153.28 201.353 1153.51 201.329 1153.71 201.263C1153.91 201.199 1154.09 201.091 1154.32 200.904L1155.05 200.163C1154.94 200.037 1154.83 199.905 1154.74 199.765C1154.24 199.057 1153.94 198.172 1153.75 197.094L1154.15 197.024C1154.33 198.066 1154.62 198.886 1155.07 199.527C1155.51 200.166 1156.12 200.641 1156.95 200.98C1158.62 201.663 1161.18 201.788 1165.07 201.571C1165.82 201.458 1166.52 200.929 1167.08 200.151C1167.65 199.373 1168.07 198.367 1168.29 197.358C1168.51 196.346 1168.51 195.353 1168.26 194.593C1168.02 193.844 1167.54 193.336 1166.77 193.227C1165.02 192.979 1162.22 192.169 1159.87 191.427C1158.69 191.055 1157.62 190.698 1156.85 190.434C1156.46 190.302 1156.15 190.194 1155.93 190.118C1155.82 190.08 1155.74 190.051 1155.68 190.031L1155.62 190.008L1155.59 190C1155.59 190 1155.59 190 1155.66 189.805C1155.73 189.61 1155.73 189.61 1155.73 189.61L1155.73 189.61L1155.75 189.618L1155.82 189.64C1155.87 189.66 1155.96 189.69 1156.06 189.728C1156.28 189.803 1156.59 189.911 1156.98 190.043C1157.75 190.306 1158.82 190.662 1159.99 191.033C1162.34 191.776 1165.11 192.575 1166.83 192.818C1167.79 192.954 1168.37 193.602 1168.65 194.464C1168.93 195.317 1168.92 196.39 1168.69 197.446C1168.46 198.503 1168.02 199.564 1167.41 200.396C1166.81 201.225 1166.03 201.849 1165.12 201.981L1165.11 201.982L1165.1 201.983C1163.76 202.058 1162.57 202.093 1161.51 202.078L1161.58 202.102L1161.37 202.744C1162.57 204.201 1163.55 205.081 1164.62 205.523C1165.66 205.95 1166.81 205.98 1168.37 205.679L1168.4 205.643C1173.88 198.131 1177.01 193.412 1179.95 187.886L1180.31 188.082C1177.38 193.596 1174.25 198.306 1168.84 205.737L1168.84 205.748C1169.61 207.483 1170.36 208.58 1171.33 209.263C1172.29 209.937 1173.49 210.228 1175.2 210.288C1177.83 208.809 1179.86 207.44 1181.82 205.492C1183.8 203.529 1185.73 200.969 1188.15 197.099L1188.49 197.32C1186.06 201.202 1184.12 203.791 1182.11 205.786C1180.13 207.742 1178.11 209.12 1175.51 210.585C1176.16 212.043 1176.89 213.138 1177.74 213.869C1178.62 214.624 1179.63 214.998 1180.83 214.978C1182.04 214.958 1183.45 214.537 1185.13 213.679C1186.8 212.821 1188.73 211.531 1190.95 209.787L1191.2 210.114C1188.96 211.866 1187.02 213.173 1185.31 214.047C1183.61 214.921 1182.13 215.369 1180.83 215.391C1179.53 215.413 1178.43 215.003 1177.48 214.183C1176.55 213.388 1175.79 212.215 1175.12 210.698C1173.4 210.631 1172.13 210.332 1171.09 209.602C1170.07 208.876 1169.29 207.743 1168.54 206.067C1166.89 206.394 1165.63 206.383 1164.47 205.906C1163.3 205.423 1162.26 204.476 1161.04 202.998C1159.71 203.043 1158.66 202.982 1157.64 202.724C1156.63 202.468 1155.66 202.021 1154.47 201.308ZM1160.99 202.586C1159.69 202.628 1158.69 202.566 1157.74 202.323C1156.81 202.088 1155.9 201.679 1154.79 201.015L1155.34 200.456C1155.74 200.829 1156.22 201.128 1156.79 201.362C1157.89 201.809 1159.31 202.023 1161.16 202.071L1160.99 202.586ZM1163.74 206.688C1168.8 210.937 1172.32 214.338 1174.34 220.314L1174.73 220.18C1172.67 214.09 1169.07 210.628 1164 206.37L1163.74 206.688ZM1165.82 188.208C1165.06 189.604 1164.55 190.757 1164.37 192.253L1164.77 192.305C1164.95 190.885 1165.43 189.785 1166.17 188.406C1166.4 188 1166.64 187.569 1166.91 187.099C1167.54 185.975 1168.31 184.627 1169.18 182.859L1168.81 182.675C1167.95 184.431 1167.19 185.761 1166.56 186.881C1166.29 187.355 1166.04 187.792 1165.82 188.208Z" fill="black"/>
<path d="M1158.37 101.483C1157.14 101.41 1156.21 101.191 1155.57 100.824C1154.94 100.452 1154.54 99.9074 1154.38 99.1895C1154.2 98.3772 1154.37 97.6337 1154.89 96.9591C1155.42 96.2787 1156.2 95.8215 1157.22 95.5876C1157.93 95.4281 1158.58 95.4231 1159.19 95.5726C1159.8 95.7211 1160.31 96.0021 1160.71 96.4158C1161.13 96.8284 1161.39 97.3205 1161.52 97.8919L1160.17 98.1998C1160.03 97.5763 1159.73 97.1322 1159.25 96.8673C1158.78 96.5977 1158.19 96.5442 1157.47 96.7069C1156.81 96.8579 1156.33 97.1247 1156.02 97.5073C1155.71 97.8841 1155.62 98.3346 1155.74 98.8589C1155.83 99.2792 1156.09 99.5959 1156.5 99.809C1156.92 100.016 1157.58 100.144 1158.48 100.193C1159.38 100.24 1160.1 100.356 1160.65 100.54C1161.19 100.719 1161.62 100.976 1161.94 101.311C1162.26 101.645 1162.48 102.074 1162.59 102.598C1162.78 103.434 1162.6 104.178 1162.07 104.83C1161.54 105.478 1160.73 105.924 1159.65 106.17C1158.95 106.329 1158.27 106.343 1157.6 106.212C1156.93 106.077 1156.38 105.811 1155.95 105.414C1155.51 105.016 1155.23 104.517 1155.1 103.917L1156.45 103.609C1156.59 104.233 1156.92 104.675 1157.46 104.935C1158 105.19 1158.65 105.231 1159.41 105.057C1160.12 104.896 1160.63 104.626 1160.94 104.247C1161.25 103.868 1161.36 103.426 1161.24 102.92C1161.13 102.415 1160.87 102.065 1160.46 101.871C1160.04 101.672 1159.35 101.543 1158.37 101.483Z" fill="white"/>
<path d="M1207.87 101.95L1203.49 100.772L1202.54 104.393L1207.63 105.761L1207.34 106.863L1200.92 105.136L1203.61 94.9186L1209.96 96.6271L1209.67 97.7359L1204.65 96.3858L1203.78 99.67L1208.16 100.848L1207.87 101.95Z" fill="white"/>
<path d="M1180.66 97.5249L1183.39 92.2167H1184.95L1181.35 98.8465V102.79H1179.97V98.8465L1176.36 92.2167H1177.94L1180.66 97.5249Z" fill="white"/>
<path d="M1196.44 104.179L1195.06 103.993L1190.91 95.2106L1189.84 103.286L1188.47 103.1L1189.86 92.6206L1191.23 92.8068L1195.39 101.627L1196.47 93.5157L1197.82 93.7L1196.44 104.179Z" fill="white"/>
<path d="M1172.59 98.5012L1168.09 99.099L1168.58 102.814L1173.8 102.119L1173.94 103.25L1167.36 104.126L1165.99 93.6437L1172.51 92.7768L1172.66 93.9143L1167.51 94.5993L1167.95 97.9687L1172.44 97.3708L1172.59 98.5012Z" fill="white"/>
<path d="M1146.18 265.273C1145.81 266.132 1145.28 266.719 1144.58 267.035C1143.89 267.348 1143.09 267.364 1142.18 267.083C1141.2 266.778 1140.51 266.177 1140.13 265.279C1139.76 264.382 1139.75 263.336 1140.12 262.14L1140.36 261.33C1140.6 260.547 1140.94 259.901 1141.4 259.392C1141.86 258.884 1142.39 258.551 1142.99 258.392C1143.6 258.229 1144.23 258.251 1144.9 258.457C1145.78 258.731 1146.42 259.202 1146.8 259.869C1147.18 260.532 1147.29 261.319 1147.11 262.229L1146 261.887C1146.11 261.186 1146.05 260.636 1145.82 260.236C1145.59 259.837 1145.19 259.549 1144.62 259.372C1143.92 259.154 1143.29 259.246 1142.73 259.646C1142.17 260.048 1141.75 260.733 1141.46 261.701L1141.21 262.517C1140.93 263.431 1140.9 264.217 1141.12 264.874C1141.33 265.531 1141.78 265.964 1142.45 266.175C1143.07 266.364 1143.57 266.37 1143.98 266.192C1144.4 266.012 1144.76 265.592 1145.08 264.93L1146.18 265.273Z" fill="white"/>
<path d="M1203.28 264.561L1200.57 265.273L1202.52 272.876L1201.41 273.166L1199.46 265.563L1196.75 266.273L1196.52 265.348L1203.04 263.636L1203.28 264.561Z" fill="white"/>
<path d="M1166.72 270.923L1166.32 274.349L1165.18 274.213L1166.19 265.462L1169.39 265.842C1170.33 265.955 1171.05 266.288 1171.52 266.84C1172.01 267.393 1172.2 268.072 1172.11 268.877C1172.01 269.727 1171.67 270.35 1171.09 270.749C1170.51 271.143 1169.73 271.282 1168.75 271.166L1166.72 270.923ZM1166.83 269.979L1168.88 270.223C1169.49 270.296 1169.97 270.207 1170.33 269.958C1170.69 269.704 1170.9 269.302 1170.96 268.754C1171.02 268.233 1170.91 267.797 1170.62 267.446C1170.33 267.094 1169.91 266.879 1169.34 266.8L1167.22 266.548L1166.83 269.979Z" fill="white"/>
<path d="M1160.18 269.202L1158.17 268.796L1157.48 272.291L1156.35 272.061L1158.06 263.422L1160.89 263.994C1161.85 264.189 1162.54 264.56 1162.97 265.108C1163.4 265.656 1163.54 266.353 1163.37 267.2C1163.26 267.738 1163.03 268.177 1162.66 268.518C1162.29 268.86 1161.83 269.078 1161.28 269.172L1162.56 273.245L1162.55 273.316L1161.34 273.072L1160.18 269.202ZM1158.36 267.864L1160.09 268.214C1160.65 268.327 1161.12 268.271 1161.51 268.045C1161.9 267.819 1162.14 267.461 1162.24 266.971C1162.34 266.437 1162.27 265.995 1162 265.646C1161.75 265.298 1161.32 265.062 1160.73 264.938L1159 264.589L1158.36 267.864Z" fill="white"/>
<path d="M1185.47 271.903H1183.43V275.467H1182.27V266.657H1185.16C1186.14 266.657 1186.89 266.883 1187.42 267.334C1187.95 267.786 1188.21 268.444 1188.21 269.307C1188.21 269.856 1188.07 270.334 1187.77 270.741C1187.48 271.149 1187.07 271.453 1186.55 271.655L1188.6 275.395V275.467H1187.36L1185.47 271.903ZM1183.43 270.953H1185.19C1185.76 270.953 1186.22 270.804 1186.55 270.505C1186.89 270.207 1187.06 269.807 1187.06 269.307C1187.06 268.762 1186.9 268.345 1186.57 268.054C1186.26 267.764 1185.79 267.617 1185.19 267.613H1183.43V270.953Z" fill="white"/>
<path d="M1155.14 266.976C1154.96 267.819 1154.65 268.524 1154.24 269.091C1153.82 269.654 1153.32 270.044 1152.73 270.259C1152.14 270.474 1151.51 270.505 1150.82 270.351C1150.15 270.2 1149.59 269.902 1149.15 269.454C1148.7 269.003 1148.4 268.438 1148.25 267.759C1148.1 267.077 1148.11 266.329 1148.28 265.516L1148.42 264.896C1148.6 264.069 1148.9 263.37 1149.33 262.8C1149.75 262.23 1150.26 261.836 1150.85 261.617C1151.45 261.396 1152.08 261.36 1152.75 261.511C1153.43 261.664 1153.99 261.966 1154.44 262.417C1154.89 262.865 1155.18 263.438 1155.33 264.135C1155.47 264.828 1155.45 265.594 1155.26 266.433L1155.14 266.976ZM1154.15 266.17C1154.37 265.15 1154.34 264.323 1154.06 263.689C1153.77 263.05 1153.26 262.649 1152.54 262.486C1151.83 262.326 1151.21 262.475 1150.68 262.93C1150.15 263.383 1149.78 264.092 1149.56 265.058L1149.42 265.69C1149.2 266.679 1149.23 267.502 1149.52 268.161C1149.81 268.817 1150.31 269.226 1151.03 269.388C1151.76 269.551 1152.38 269.411 1152.89 268.969C1153.4 268.522 1153.78 267.802 1154.01 266.808L1154.15 266.17Z" fill="white"/>
<path d="M1216.64 262.776C1216.91 263.594 1217.01 264.356 1216.95 265.06C1216.88 265.761 1216.64 266.357 1216.25 266.848C1215.86 267.339 1215.33 267.697 1214.67 267.924C1214.02 268.145 1213.39 268.181 1212.78 268.031C1212.16 267.877 1211.62 267.55 1211.14 267.048C1210.67 266.542 1210.29 265.896 1210.02 265.111L1209.82 264.509C1209.55 263.706 1209.46 262.95 1209.53 262.24C1209.6 261.531 1209.83 260.928 1210.23 260.432C1210.62 259.931 1211.15 259.569 1211.8 259.348C1212.46 259.123 1213.1 259.087 1213.71 259.241C1214.32 259.39 1214.87 259.725 1215.34 260.248C1215.82 260.767 1216.19 261.434 1216.46 262.249L1216.64 262.776ZM1215.38 262.606C1215.05 261.616 1214.6 260.924 1214.03 260.53C1213.46 260.132 1212.82 260.054 1212.11 260.294C1211.42 260.529 1210.97 260.979 1210.75 261.646C1210.53 262.307 1210.58 263.11 1210.88 264.054L1211.08 264.668C1211.4 265.628 1211.85 266.315 1212.43 266.731C1213.01 267.141 1213.66 267.227 1214.35 266.989C1215.06 266.75 1215.52 266.306 1215.73 265.659C1215.94 265.008 1215.89 264.196 1215.58 263.225L1215.38 262.606Z" fill="white"/>
<path d="M1180.4 271.346C1180.4 272.21 1180.26 272.964 1179.97 273.61C1179.68 274.251 1179.27 274.741 1178.75 275.08C1178.22 275.419 1177.61 275.588 1176.9 275.588C1176.22 275.588 1175.61 275.419 1175.08 275.08C1174.55 274.737 1174.14 274.251 1173.84 273.622C1173.55 272.988 1173.4 272.256 1173.39 271.425V270.79C1173.39 269.942 1173.54 269.194 1173.83 268.545C1174.12 267.895 1174.53 267.399 1175.06 267.056C1175.6 266.709 1176.21 266.536 1176.89 266.536C1177.59 266.536 1178.21 266.707 1178.74 267.05C1179.27 267.389 1179.68 267.883 1179.97 268.532C1180.26 269.178 1180.4 269.93 1180.4 270.79V271.346ZM1179.26 270.778C1179.26 269.733 1179.05 268.932 1178.63 268.375C1178.22 267.814 1177.64 267.534 1176.89 267.534C1176.17 267.534 1175.59 267.814 1175.17 268.375C1174.76 268.932 1174.55 269.706 1174.53 270.699V271.346C1174.53 272.359 1174.74 273.156 1175.16 273.737C1175.59 274.314 1176.17 274.602 1176.9 274.602C1177.65 274.602 1178.22 274.33 1178.63 273.785C1179.04 273.236 1179.24 272.452 1179.26 271.431V270.778Z" fill="white"/>
<path d="M1195.42 272.092L1191.82 272.686L1191.38 275.088L1190.21 275.281L1192.09 266.044L1193.08 265.881L1197.77 274.035L1196.61 274.226L1195.42 272.092ZM1192.01 271.685L1194.93 271.204L1192.81 267.378L1192.01 271.685Z" fill="white"/>
<path d="M1226.55 262.422L1225.53 262.968L1218.51 259.045L1221.65 265.045L1220.63 265.591L1216.55 257.805L1217.57 257.259L1224.62 261.203L1221.46 255.177L1222.47 254.636L1226.55 262.422Z" fill="white"/>
<path d="M1209.48 270.333L1208.37 270.662L1205.91 262.211L1207.01 261.882L1209.48 270.333Z" fill="white"/>
</g>
<g opacity="0.5">
<g filter="url(#filter0_b)">
<path d="M1103.02 811.067C1090.53 811.676 1082.98 816.387 1069.33 827.166M1103.1 810.314C1087.79 808.473 1079.3 812.428 1064.19 820.929M1103.29 809.188C1089.16 805.882 1079.44 807.408 1060.19 813.728" stroke="black" stroke-width="5.97335" stroke-linecap="round"/>
</g>
<g filter="url(#filter1_b)">
<path d="M1132.87 816.2C1144.44 820.949 1149.98 827.909 1159.25 842.63M1133.05 815.465C1148.09 818.844 1154.77 825.407 1166.18 838.469M1133.24 814.339C1147.67 815.945 1156.32 820.632 1172.36 833.02" stroke="black" stroke-width="5.97335" stroke-linecap="round"/>
</g>
<path fill-rule="evenodd" clip-rule="evenodd" d="M1089.44 774.196C1104.71 774.167 1113.16 778.275 1109.43 789.157C1109.46 788.372 1109.29 787.94 1108.62 787.199C1097.95 788.23 1094.56 784.653 1094.09 776.099C1093.36 775.01 1092.1 774.673 1089.44 774.196ZM1096.41 779.414C1095.97 778.849 1095.83 778.979 1095.96 779.644C1097.53 784.957 1100.22 786.816 1105.59 784.706C1106.25 784.445 1106.06 784.165 1105.44 784.272C1100.07 785.496 1098.28 783.442 1096.41 779.414Z" fill="#252324"/>
<ellipse cx="1099.81" cy="779.801" rx="1.27891" ry="1.13785" transform="rotate(9.75878 1099.81 779.801)" fill="#0594A7"/>
<path fill-rule="evenodd" clip-rule="evenodd" d="M1176.59 788.184C1177.67 801.554 1173.72 809.004 1160.56 822.231C1163.56 815.276 1162.22 812.603 1156.14 809.337C1151.78 807.244 1149.15 806.219 1143.99 804.739C1131.9 800.088 1128.27 796.357 1130.43 786.624C1131.17 770.061 1125.13 760.967 1106.27 758.298C1098.77 756.102 1097.16 753.496 1096.37 747.747C1095.19 733.256 1093.39 726.713 1084.57 720.43C1081.39 718.548 1078.71 718.893 1076.93 722.262C1071.99 729.629 1071.48 737.808 1074.48 751.377C1071.63 760.658 1071.56 765.283 1074.08 772.507C1070.66 778.551 1070.77 783.224 1072.89 792.786C1069.2 784.857 1068.42 780.278 1071.27 771.663C1068.91 763.642 1069.02 759.249 1071.12 751.552C1068.9 733.3 1069.84 725.637 1076.32 717.678C1079 715.376 1080.74 715.265 1083.97 715.772C1092.67 721.12 1096.97 727.186 1102.05 734.326C1103.64 736.564 1105.3 738.908 1107.2 741.368C1124.31 737.643 1134.04 739.063 1151.62 748.06C1162.47 739.075 1168.68 735.534 1179.95 731.994C1185.45 731.721 1187.16 732.751 1188.65 735.954C1192.25 750.66 1189.94 759.919 1179.44 777.931C1177.4 781.708 1176.83 783.967 1176.59 788.184ZM1178.97 772.717C1174.73 776.321 1171.93 774.55 1171.02 768.379C1170.4 766.434 1168.99 765.881 1164.7 765.805C1157.16 769.293 1150.57 757.481 1158.27 750.306C1166.68 742.087 1171.61 738.714 1180.94 736.004C1183.41 735.572 1184.4 736.024 1185.37 738.222C1187.3 750.543 1185.82 757.793 1178.97 772.717ZM1153.45 786.87C1154.14 786.22 1154.43 786.379 1154.12 787.35C1148.85 795.001 1144.18 797.324 1135.63 792.613C1134.74 791.979 1134.99 791.707 1135.95 792.074C1144.15 795.759 1148.32 794.202 1153.45 786.87ZM1149.12 788.667C1149.47 788.084 1149.38 787.915 1148.78 788.301C1145.67 791.474 1143.29 792.81 1138.65 789.863C1138.1 789.555 1137.82 789.756 1138.36 790.223C1142.72 794.005 1145.87 793.15 1149.12 788.667ZM1156.01 786.24C1141.29 782.482 1136.23 783.748 1133.88 793.095C1133.78 793.723 1133.48 793.698 1133.43 793.016C1133.62 782.389 1141.83 779.114 1156.47 785.751C1157.5 786.217 1157.27 786.641 1156.01 786.24Z" fill="#252324"/>
<ellipse cx="1140.39" cy="786.717" rx="1.20894" ry="1.11522" transform="rotate(9.75878 1140.39 786.717)" fill="#0594A7"/>
<path d="M1117 819.277C1116.92 818.678 1116.96 818.214 1117.12 817.243C1116.97 816.995 1116.86 816.958 1116.58 817.15C1116.48 817.944 1116.38 818.392 1116.02 819.196C1112.29 821.932 1107.07 821.716 1102.58 818.689C1106.96 822.62 1111.11 822.668 1116.41 821.42C1120.33 824.768 1125.93 825.234 1130.01 823.407C1124.95 824.866 1119.33 823.277 1117 819.277Z" fill="#252324"/>
<path d="M1125.39 811.524C1127.13 810.819 1126.12 807.28 1127.7 798.079C1127.42 795.16 1126.34 805.997 1125.04 810.087C1123.58 808.902 1122.49 808.66 1120.13 808.812C1118.71 808.925 1117.84 808.77 1116.18 808.133C1114.36 807.251 1113.28 807.2 1111.29 807.722C1112.38 803.184 1113.68 793.581 1112.98 795.374C1112.11 802.92 1108.98 807.325 1110.57 809.356C1113 811.397 1115.25 812.642 1114.6 814.426C1115.26 815.431 1115.62 815.977 1117.02 816.674C1118.27 816.527 1118.88 816.136 1119.9 815.271C1119.5 813.413 1123.04 813.444 1125.39 811.524Z" fill="#252324"/>
</g>
<g opacity="0.5">
<g filter="url(#filter2_b)">
<path d="M277.832 362.825C265.099 366.961 258.576 374.348 247.368 390.251M277.711 361.957C261.422 364.112 253.719 370.907 240.396 384.651M277.609 360.635C262.138 360.818 252.514 365.222 234.338 377.652" stroke="black" stroke-width="6.18511" stroke-linecap="round"/>
</g>
<g filter="url(#filter3_b)">
<path d="M310.005 360.359C323.22 362.506 330.793 368.812 344.294 382.821M309.993 359.482C326.42 359.13 335.069 364.672 350.331 376.224M309.892 358.161C325.21 355.984 335.393 358.869 355.251 368.384" stroke="black" stroke-width="6.18511" stroke-linecap="round"/>
</g>
<path fill-rule="evenodd" clip-rule="evenodd" d="M253.956 325.077C269.702 320.828 279.522 323.118 278.581 336.396C278.404 335.504 278.11 335.065 277.229 334.414C266.486 338.523 262.037 335.432 259.266 325.934C258.221 324.911 256.824 324.88 253.956 325.077ZM262.543 329.026C261.938 328.511 261.832 328.696 262.142 329.408C265.184 334.954 268.451 336.305 273.427 332.448C274.042 331.971 273.769 331.708 273.158 332C267.949 334.859 265.547 333.044 262.543 329.026Z" fill="#252324"/>
<ellipse cx="266.154" cy="328.523" rx="1.36265" ry="1.31927" transform="rotate(-4.38329 266.154 328.523)" fill="#A70505"/>
<path fill-rule="evenodd" clip-rule="evenodd" d="M347.634 316.75C352.323 331.499 350.242 340.975 340.195 359.498C341.425 350.843 339.329 348.204 332.18 346.208C327.13 345.054 324.137 344.628 318.418 344.387C304.693 342.493 299.95 339.296 299.584 327.743C295.914 308.897 287.246 300.331 267.076 302.535C258.749 302.134 256.391 299.645 254.039 293.393C248.938 277.411 245.332 270.544 234.548 265.909C230.762 264.669 228.096 265.796 227.157 270.08C224.027 279.736 225.695 289.081 232.414 303.527C231.959 314.759 233.125 319.983 237.651 327.419C235.743 335.165 237.104 340.395 241.848 350.571C235.924 342.666 233.886 337.73 234.523 327.246C229.951 318.868 228.885 313.895 228.991 304.652C221.825 284.72 220.739 275.839 225.307 265.087C227.457 261.757 229.217 261.153 232.689 260.83C243.091 264.449 249.16 270.086 256.303 276.721C258.543 278.801 260.887 280.979 263.504 283.223C280.167 274.305 290.582 273.217 311.131 278.487C319.933 265.376 325.386 259.677 336.072 252.58C341.674 250.753 343.721 251.438 346.11 254.633C353.757 270.191 353.853 281.249 347.829 304.424C346.736 309.237 346.754 311.936 347.634 316.75ZM345.95 298.684C342.541 303.911 339.177 302.691 336.591 295.996C335.428 293.979 333.827 293.745 329.373 294.847C322.524 300.855 312.571 289.379 318.594 279.178C325.081 267.603 329.26 262.447 338.165 256.82C340.599 255.651 341.743 255.885 343.335 258.091C348.621 271.426 349.026 279.996 345.95 298.684ZM323.403 321.662C323.941 320.74 324.284 320.838 324.215 322.018C320.829 332.085 316.63 335.989 306.546 333.049C305.458 332.581 305.641 332.206 306.728 332.355C316.184 334.235 320.065 331.332 323.403 321.662ZM319.416 324.88C319.615 324.128 319.481 323.963 318.962 324.563C316.605 328.992 314.508 331.153 308.924 329.12C308.276 328.925 308.046 329.227 308.727 329.604C314.233 332.658 317.255 330.825 319.416 324.88ZM325.873 320.246C309.682 320.081 304.798 322.904 304.873 334.073C304.93 334.809 304.614 334.864 304.38 334.111C301.739 322.096 309.334 316.143 326.218 319.569C327.404 319.809 327.28 320.35 325.873 320.246Z" fill="#252324"/>
<ellipse cx="309.887" cy="325.096" rx="1.2881" ry="1.29304" transform="rotate(-4.38329 309.887 325.096)" fill="#A70505"/>
<path d="M294.455 368.204C294.209 367.553 294.125 367.019 294.035 365.882C293.814 365.644 293.686 365.633 293.449 365.927C293.559 366.848 293.572 367.38 293.413 368.386C290.302 372.494 284.851 373.694 279.409 371.527C284.986 374.74 289.281 373.648 294.41 370.781C299.357 373.465 305.256 372.444 308.983 369.26C304.145 372.301 297.928 372.062 294.455 368.204Z" fill="#252324"/>
<path d="M301.031 357.163C302.644 355.887 300.65 352.184 299.822 341.392C298.756 338.183 300.534 350.679 300.287 355.642C298.471 354.709 297.272 354.74 294.884 355.561C293.442 356.083 292.506 356.147 290.627 355.888C288.509 355.399 287.384 355.639 285.466 356.778C285.383 351.367 284.149 340.201 283.906 342.413C285.035 351.145 282.975 356.969 285.163 358.814C288.214 360.441 290.875 361.22 290.673 363.409C291.623 364.357 292.145 364.872 293.772 365.27C295.028 364.758 295.547 364.152 296.371 362.895C295.462 360.914 299.121 359.973 301.031 357.163Z" fill="#252324"/>
</g>
<path d="M430.456 742.181C353.55 729.504 249.6 680.487 107.62 704.15C251.29 777.676 321.435 796.268 413.554 912.05L611.312 912.05C600.325 860.498 526.93 787.897 430.456 742.181Z" fill="#53575A"/>
<path fill-rule="evenodd" clip-rule="evenodd" d="M165.281 477.188C172.921 477.188 179.114 483.381 179.114 491.02L179.114 766.589C179.114 774.228 172.921 780.421 165.281 780.421C157.642 780.421 151.448 774.228 151.448 766.589L151.448 491.02C151.448 483.381 157.642 477.188 165.281 477.188Z" fill="black"/>
<path d="M0.737305 682.646C0.737305 682.646 160.476 718.198 282.8 718.198C399.648 718.198 433.562 912.034 433.562 912.034H0.737305V682.646Z" fill="#53575A"/>
<path d="M420.677 912.05H368.046C364.098 890.363 360.328 876.484 349.771 847.489C333.298 818.857 318.967 804.954 286.531 783.06C239.156 755.227 208.251 742.167 140.951 726.008C130.855 720.449 126.413 716.036 120.771 705.731L134.77 707.798L248.72 718.549C292.177 715.444 314.483 722.44 349.771 754.024C389.173 804.3 407.91 849.036 420.677 912.05Z" fill="#63686B"/>
<path d="M385.817 490.155C308.218 512.09 270.438 469.763 174.378 490.155L174.378 603.387C270.438 584.068 304.781 621.815 385.817 603.387V490.155Z" fill="#040332" fill-opacity="0.9"/>
<path d="M230.508 534.263C231.396 534.263 232.121 534.196 232.686 534.061C233.277 533.9 233.748 533.698 234.097 533.456C234.447 533.188 234.689 532.878 234.823 532.529C234.957 532.18 235.025 531.79 235.025 531.36C235.025 530.446 234.595 529.693 233.734 529.102C232.874 528.483 231.396 527.825 229.299 527.126C228.385 526.803 227.471 526.44 226.557 526.037C225.643 525.607 224.823 525.083 224.097 524.464C223.371 523.819 222.78 523.053 222.323 522.166C221.866 521.252 221.637 520.15 221.637 518.86C221.637 517.569 221.879 516.413 222.363 515.392C222.847 514.343 223.533 513.456 224.42 512.73C225.307 512.005 226.382 511.454 227.646 511.077C228.909 510.674 230.334 510.472 231.92 510.472C233.801 510.472 235.428 510.674 236.799 511.077C238.17 511.48 239.299 511.924 240.186 512.408L238.371 517.368C237.592 516.964 236.718 516.615 235.75 516.319C234.81 515.997 233.667 515.835 232.323 515.835C230.818 515.835 229.729 516.05 229.057 516.481C228.412 516.884 228.089 517.515 228.089 518.376C228.089 518.886 228.21 519.317 228.452 519.666C228.694 520.015 229.03 520.338 229.46 520.634C229.917 520.903 230.428 521.158 230.992 521.4C231.584 521.615 232.229 521.843 232.928 522.085C234.379 522.623 235.643 523.161 236.718 523.698C237.793 524.209 238.681 524.814 239.379 525.513C240.105 526.212 240.643 527.032 240.992 527.973C241.342 528.913 241.517 530.056 241.517 531.4C241.517 534.008 240.603 536.037 238.775 537.489C236.947 538.913 234.191 539.626 230.508 539.626C229.272 539.626 228.156 539.545 227.162 539.384C226.167 539.249 225.28 539.075 224.5 538.86C223.748 538.645 223.089 538.416 222.525 538.174C221.987 537.932 221.53 537.704 221.154 537.489L222.928 532.489C223.761 532.946 224.783 533.362 225.992 533.739C227.229 534.088 228.734 534.263 230.508 534.263Z" fill="#D9D9D9"/>
<path d="M244.945 528.618C244.945 526.736 245.228 525.096 245.792 523.698C246.383 522.274 247.15 521.091 248.09 520.15C249.031 519.209 250.107 518.497 251.316 518.013C252.553 517.529 253.816 517.287 255.107 517.287C258.117 517.287 260.496 518.214 262.244 520.069C263.991 521.897 264.865 524.599 264.865 528.174C264.865 528.524 264.851 528.913 264.824 529.344C264.798 529.747 264.771 530.11 264.744 530.432H251.115C251.249 531.669 251.827 532.65 252.849 533.376C253.87 534.102 255.241 534.465 256.962 534.465C258.064 534.465 259.139 534.37 260.187 534.182C261.263 533.967 262.136 533.712 262.808 533.416L263.615 538.295C263.292 538.456 262.862 538.618 262.324 538.779C261.787 538.94 261.182 539.075 260.51 539.182C259.865 539.317 259.166 539.424 258.413 539.505C257.66 539.586 256.908 539.626 256.155 539.626C254.246 539.626 252.58 539.344 251.155 538.779C249.757 538.215 248.588 537.448 247.647 536.481C246.733 535.486 246.047 534.317 245.59 532.973C245.16 531.628 244.945 530.177 244.945 528.618ZM259.058 526.319C259.031 525.809 258.937 525.311 258.776 524.827C258.642 524.343 258.413 523.913 258.091 523.537C257.795 523.161 257.405 522.852 256.921 522.61C256.464 522.368 255.886 522.247 255.187 522.247C254.515 522.247 253.937 522.368 253.453 522.61C252.97 522.825 252.566 523.12 252.244 523.497C251.921 523.873 251.666 524.317 251.478 524.827C251.316 525.311 251.195 525.809 251.115 526.319H259.058Z" fill="#D9D9D9"/>
<path d="M288.332 517.851C287.122 521.938 285.859 525.768 284.542 529.344C283.225 532.919 281.786 536.387 280.227 539.747C279.663 540.956 279.098 541.978 278.534 542.811C277.969 543.672 277.351 544.37 276.679 544.908C276.007 545.473 275.241 545.876 274.38 546.118C273.547 546.387 272.566 546.521 271.437 546.521C270.496 546.521 269.622 546.427 268.816 546.239C268.036 546.077 267.391 545.889 266.88 545.674L267.929 540.876C268.547 541.091 269.098 541.239 269.582 541.319C270.066 541.4 270.577 541.44 271.114 541.44C272.189 541.44 273.009 541.145 273.574 540.553C274.165 539.989 274.663 539.196 275.066 538.174C273.695 535.486 272.324 532.475 270.953 529.142C269.582 525.782 268.292 522.018 267.082 517.851H273.453C273.722 518.9 274.031 520.042 274.38 521.279C274.757 522.489 275.146 523.725 275.55 524.989C275.953 526.225 276.356 527.435 276.759 528.618C277.19 529.801 277.593 530.876 277.969 531.844C278.319 530.876 278.681 529.801 279.058 528.618C279.434 527.435 279.797 526.225 280.147 524.989C280.523 523.725 280.872 522.489 281.195 521.279C281.544 520.042 281.854 518.9 282.122 517.851H288.332Z" fill="#D9D9D9"/>
<path d="M291.553 518.577C292.574 518.282 293.892 518.013 295.504 517.771C297.117 517.502 298.811 517.368 300.585 517.368C302.386 517.368 303.878 517.61 305.061 518.093C306.271 518.55 307.225 519.209 307.924 520.069C308.623 520.929 309.12 521.951 309.416 523.134C309.712 524.317 309.859 525.634 309.859 527.085V539.061H303.851V527.811C303.851 525.876 303.596 524.505 303.085 523.698C302.574 522.892 301.62 522.489 300.222 522.489C299.792 522.489 299.335 522.516 298.851 522.569C298.367 522.596 297.937 522.636 297.561 522.69V539.061H291.553V518.577Z" fill="#D9D9D9"/>
<path d="M314.29 528.618C314.29 526.736 314.572 525.096 315.136 523.698C315.728 522.274 316.494 521.091 317.435 520.15C318.376 519.209 319.451 518.497 320.661 518.013C321.897 517.529 323.161 517.287 324.451 517.287C327.462 517.287 329.841 518.214 331.588 520.069C333.335 521.897 334.209 524.599 334.209 528.174C334.209 528.524 334.196 528.913 334.169 529.344C334.142 529.747 334.115 530.11 334.088 530.432H320.459C320.593 531.669 321.171 532.65 322.193 533.376C323.214 534.102 324.585 534.465 326.306 534.465C327.408 534.465 328.483 534.37 329.532 534.182C330.607 533.967 331.481 533.712 332.153 533.416L332.959 538.295C332.636 538.456 332.206 538.618 331.669 538.779C331.131 538.94 330.526 539.075 329.854 539.182C329.209 539.317 328.51 539.424 327.757 539.505C327.005 539.586 326.252 539.626 325.499 539.626C323.591 539.626 321.924 539.344 320.499 538.779C319.101 538.215 317.932 537.448 316.991 536.481C316.077 535.486 315.392 534.317 314.935 532.973C314.505 531.628 314.29 530.177 314.29 528.618ZM328.403 526.319C328.376 525.809 328.282 525.311 328.12 524.827C327.986 524.343 327.757 523.913 327.435 523.537C327.139 523.161 326.749 522.852 326.265 522.61C325.808 522.368 325.231 522.247 324.532 522.247C323.86 522.247 323.282 522.368 322.798 522.61C322.314 522.825 321.911 523.12 321.588 523.497C321.265 523.873 321.01 524.317 320.822 524.827C320.661 525.311 320.54 525.809 320.459 526.319H328.403Z" fill="#D9D9D9"/>
<path d="M611.312 912.05H553.661L535.081 866.628L497.566 816.065L444.828 771.482C428.07 755.199 414.851 748.531 391.334 735.718L430.594 744.127C524.03 789.717 591.467 849.208 611.312 912.05Z" fill="#63686B"/>
<path d="M266.267 565.501C266.267 566.114 266.132 566.704 265.863 567.269C265.593 567.834 265.243 568.383 264.812 568.916C264.381 569.433 263.897 569.934 263.358 570.418C262.819 570.903 262.29 571.363 261.769 571.799C261.5 572.025 261.204 572.284 260.88 572.575C260.575 572.849 260.279 573.132 259.992 573.423C259.704 573.713 259.444 573.988 259.211 574.246C258.995 574.489 258.861 574.69 258.807 574.852H266.832V577.88H254.39C254.354 577.703 254.336 577.476 254.336 577.202C254.336 576.927 254.336 576.733 254.336 576.62C254.336 575.845 254.471 575.135 254.74 574.489C255.027 573.842 255.395 573.245 255.844 572.696C256.293 572.13 256.796 571.606 257.352 571.121C257.927 570.637 258.492 570.152 259.049 569.667C259.48 569.296 259.884 568.949 260.261 568.626C260.638 568.287 260.97 567.964 261.257 567.657C261.545 567.334 261.769 567.019 261.931 566.712C262.092 566.389 262.173 566.066 262.173 565.743C262.173 565.032 261.949 564.531 261.5 564.241C261.051 563.95 260.494 563.805 259.83 563.805C259.345 563.805 258.887 563.877 258.457 564.023C258.044 564.152 257.658 564.313 257.299 564.507C256.957 564.685 256.661 564.871 256.41 565.064C256.158 565.242 255.97 565.387 255.844 565.501L253.851 562.981C254.641 562.319 255.557 561.778 256.598 561.358C257.658 560.922 258.789 560.704 259.992 560.704C261.087 560.704 262.029 560.817 262.819 561.043C263.609 561.269 264.256 561.592 264.758 562.012C265.279 562.416 265.656 562.916 265.89 563.514C266.141 564.095 266.267 564.758 266.267 565.501Z" fill="#D9D9D9"/>
<path d="M282.597 569.449C282.597 572.276 281.995 574.448 280.792 575.966C279.607 577.468 277.964 578.219 275.864 578.219C273.763 578.219 272.111 577.468 270.908 575.966C269.723 574.448 269.131 572.276 269.131 569.449C269.131 568.044 269.284 566.801 269.589 565.719C269.912 564.636 270.37 563.724 270.962 562.981C271.555 562.238 272.264 561.673 273.09 561.285C273.916 560.898 274.84 560.704 275.864 560.704C277.964 560.704 279.607 561.463 280.792 562.981C281.995 564.483 282.597 566.639 282.597 569.449ZM278.503 569.449C278.503 568.61 278.458 567.85 278.368 567.172C278.279 566.478 278.135 565.88 277.937 565.379C277.74 564.879 277.471 564.491 277.13 564.217C276.788 563.942 276.367 563.805 275.864 563.805C275.361 563.805 274.939 563.942 274.598 564.217C274.275 564.491 274.006 564.879 273.79 565.379C273.593 565.88 273.449 566.478 273.359 567.172C273.269 567.85 273.225 568.61 273.225 569.449C273.225 570.289 273.269 571.056 273.359 571.751C273.449 572.445 273.593 573.043 273.79 573.544C274.006 574.044 274.275 574.432 274.598 574.707C274.939 574.981 275.361 575.118 275.864 575.118C276.367 575.118 276.788 574.981 277.13 574.707C277.471 574.432 277.74 574.044 277.937 573.544C278.135 573.043 278.279 572.445 278.368 571.751C278.458 571.056 278.503 570.289 278.503 569.449Z" fill="#D9D9D9"/>
<path d="M296.88 565.501C296.88 566.114 296.745 566.704 296.476 567.269C296.207 567.834 295.856 568.383 295.426 568.916C294.995 569.433 294.51 569.934 293.971 570.418C293.433 570.903 292.903 571.363 292.382 571.799C292.113 572.025 291.817 572.284 291.494 572.575C291.188 572.849 290.892 573.132 290.605 573.423C290.318 573.713 290.057 573.988 289.824 574.246C289.608 574.489 289.474 574.69 289.42 574.852H297.445V577.88H285.003C284.967 577.703 284.949 577.476 284.949 577.202C284.949 576.927 284.949 576.733 284.949 576.62C284.949 575.845 285.084 575.135 285.353 574.489C285.641 573.842 286.009 573.245 286.457 572.696C286.906 572.13 287.409 571.606 287.966 571.121C288.54 570.637 289.106 570.152 289.662 569.667C290.093 569.296 290.497 568.949 290.874 568.626C291.251 568.287 291.583 567.964 291.871 567.657C292.158 567.334 292.382 567.019 292.544 566.712C292.705 566.389 292.786 566.066 292.786 565.743C292.786 565.032 292.562 564.531 292.113 564.241C291.664 563.95 291.108 563.805 290.443 563.805C289.958 563.805 289.501 563.877 289.07 564.023C288.657 564.152 288.271 564.313 287.912 564.507C287.571 564.685 287.274 564.871 287.023 565.064C286.772 565.242 286.583 565.387 286.457 565.501L284.465 562.981C285.255 562.319 286.17 561.778 287.212 561.358C288.271 560.922 289.402 560.704 290.605 560.704C291.7 560.704 292.643 560.817 293.433 561.043C294.223 561.269 294.869 561.592 295.372 562.012C295.892 562.416 296.269 562.916 296.503 563.514C296.754 564.095 296.88 564.758 296.88 565.501Z" fill="#D9D9D9"/>
<path d="M313.21 569.449C313.21 572.276 312.608 574.448 311.405 575.966C310.22 577.468 308.578 578.219 306.477 578.219C304.376 578.219 302.725 577.468 301.522 575.966C300.337 574.448 299.744 572.276 299.744 569.449C299.744 568.044 299.897 566.801 300.202 565.719C300.525 564.636 300.983 563.724 301.576 562.981C302.168 562.238 302.877 561.673 303.703 561.285C304.529 560.898 305.454 560.704 306.477 560.704C308.578 560.704 310.22 561.463 311.405 562.981C312.608 564.483 313.21 566.639 313.21 569.449ZM309.116 569.449C309.116 568.61 309.071 567.85 308.982 567.172C308.892 566.478 308.748 565.88 308.551 565.379C308.353 564.879 308.084 564.491 307.743 564.217C307.402 563.942 306.98 563.805 306.477 563.805C305.974 563.805 305.552 563.942 305.211 564.217C304.888 564.491 304.619 564.879 304.403 565.379C304.206 565.88 304.062 566.478 303.972 567.172C303.883 567.85 303.838 568.61 303.838 569.449C303.838 570.289 303.883 571.056 303.972 571.751C304.062 572.445 304.206 573.043 304.403 573.544C304.619 574.044 304.888 574.432 305.211 574.707C305.552 574.981 305.974 575.118 306.477 575.118C306.98 575.118 307.402 574.981 307.743 574.707C308.084 574.432 308.353 574.044 308.551 573.544C308.748 573.043 308.892 572.445 308.982 571.751C309.071 571.056 309.116 570.289 309.116 569.449Z" fill="#D9D9D9"/>
<g filter="url(#filter4_d)">
<path d="M82.3456 65.4468C90.7938 65.4468 97.2798 66.9456 101.804 69.9434C106.328 72.8866 108.589 77.7375 108.589 84.496C108.589 91.3091 106.3 96.2417 101.722 99.294C97.1435 102.292 90.603 103.791 82.1003 103.791H78.0943V122.758H65.3403V66.9184C68.12 66.3733 71.0632 65.9918 74.17 65.7738C77.2767 65.5558 80.0019 65.4468 82.3456 65.4468ZM83.1632 76.3204C82.2366 76.3204 81.31 76.3476 80.3834 76.4021C79.5114 76.4566 78.7483 76.5111 78.0943 76.5657V92.9169H82.1003C86.5152 92.9169 89.8399 92.3174 92.0746 91.1183C94.3093 89.9192 95.4266 87.6845 95.4266 84.4143C95.4266 82.8336 95.1269 81.5255 94.5273 80.49C93.9823 79.4544 93.1647 78.6368 92.0746 78.0373C91.039 77.3832 89.7582 76.9472 88.2321 76.7292C86.706 76.4566 85.0163 76.3204 83.1632 76.3204ZM134.552 65.4468C143.054 65.4468 149.568 66.9729 154.091 70.0251C158.615 73.0229 160.877 77.7102 160.877 84.0872C160.877 88.0661 159.951 91.3091 158.097 93.8163C156.299 96.269 153.683 98.2039 150.249 99.621C151.393 101.038 152.593 102.673 153.846 104.526C155.1 106.325 156.326 108.233 157.525 110.249C158.779 112.211 159.978 114.283 161.122 116.463C162.267 118.588 163.33 120.687 164.311 122.758H150.004C148.968 120.905 147.905 119.025 146.815 117.117C145.779 115.209 144.689 113.356 143.545 111.557C142.455 109.759 141.365 108.069 140.275 106.489C139.184 104.853 138.094 103.382 137.004 102.074H130.709V122.758H117.955V66.9184C120.735 66.3733 123.596 65.9918 126.539 65.7738C129.537 65.5558 132.208 65.4468 134.552 65.4468ZM135.287 76.3204C134.361 76.3204 133.516 76.3476 132.753 76.4021C132.044 76.4566 131.363 76.5111 130.709 76.5657V91.9359H134.306C139.103 91.9359 142.536 91.3363 144.608 90.1372C146.679 88.9381 147.714 86.8942 147.714 84.0055C147.714 81.2258 146.652 79.2636 144.526 78.119C142.455 76.9199 139.375 76.3204 135.287 76.3204ZM181.759 94.3886C181.759 97.1683 182.086 99.6755 182.74 101.91C183.449 104.145 184.43 106.08 185.683 107.715C186.991 109.295 188.572 110.522 190.425 111.394C192.278 112.266 194.404 112.702 196.802 112.702C199.146 112.702 201.244 112.266 203.097 111.394C205.005 110.522 206.586 109.295 207.839 107.715C209.147 106.08 210.128 104.145 210.782 101.91C211.491 99.6755 211.845 97.1683 211.845 94.3886C211.845 91.6088 211.491 89.1016 210.782 86.867C210.128 84.5778 209.147 82.6429 207.839 81.0623C206.586 79.4271 205.005 78.1735 203.097 77.3015C201.244 76.4294 199.146 75.9934 196.802 75.9934C194.404 75.9934 192.278 76.4566 190.425 77.3832C188.572 78.2553 186.991 79.5089 185.683 81.144C184.43 82.7246 183.449 84.6595 182.74 86.9487C182.086 89.1834 181.759 91.6633 181.759 94.3886ZM225.008 94.3886C225.008 99.2394 224.272 103.518 222.801 107.224C221.384 110.876 219.421 113.956 216.914 116.463C214.407 118.916 211.409 120.769 207.921 122.022C204.487 123.276 200.781 123.903 196.802 123.903C192.932 123.903 189.281 123.276 185.847 122.022C182.413 120.769 179.415 118.916 176.854 116.463C174.292 113.956 172.275 110.876 170.804 107.224C169.332 103.518 168.596 99.2394 168.596 94.3886C168.596 89.5377 169.359 85.2863 170.885 81.6346C172.411 77.9283 174.455 74.8215 177.017 72.3143C179.633 69.8071 182.631 67.9267 186.01 66.6731C189.444 65.4195 193.041 64.7927 196.802 64.7927C200.672 64.7927 204.324 65.4195 207.757 66.6731C211.191 67.9267 214.189 69.8071 216.751 72.3143C219.312 74.8215 221.329 77.9283 222.801 81.6346C224.272 85.2863 225.008 89.5377 225.008 94.3886ZM265.065 122.758C263.484 119.597 261.74 116.408 259.832 113.193C257.979 109.922 255.826 106.598 253.374 103.218C252.611 104.199 251.63 105.562 250.431 107.306C249.286 109.05 248.114 110.903 246.915 112.866C245.77 114.828 244.68 116.708 243.645 118.507C242.609 120.305 241.846 121.722 241.356 122.758H226.803C229.201 118.343 231.981 113.71 235.142 108.859C238.358 104.009 241.928 98.8579 245.852 93.4075L227.62 66.1008H243.072L254.11 83.7602L264.901 66.1008H279.454L261.468 93.571C266.046 99.512 269.889 105.017 272.995 110.086C276.102 115.1 278.555 119.324 280.353 122.758H265.065ZM287.695 66.1008H300.449V122.758H287.695V66.1008ZM328.607 66.1008C329.588 67.8995 330.705 70.1341 331.959 72.8049C333.267 75.4211 334.602 78.2825 335.965 81.3893C337.382 84.4415 338.772 87.5755 340.135 90.7913C341.497 94.007 342.778 97.032 343.977 99.8662C345.176 97.032 346.457 94.007 347.82 90.7913C349.182 87.5755 350.545 84.4415 351.908 81.3893C353.325 78.2825 354.66 75.4211 355.914 72.8049C357.222 70.1341 358.366 67.8995 359.347 66.1008H370.957C371.502 69.8616 371.992 74.0857 372.428 78.7731C372.919 83.4059 373.328 88.2568 373.655 93.3257C374.036 98.3401 374.363 103.382 374.636 108.451C374.963 113.52 375.235 118.289 375.453 122.758H363.026C362.863 117.253 362.645 111.258 362.372 104.772C362.1 98.2856 361.691 91.7451 361.146 85.1501C360.165 87.4393 359.075 89.9737 357.876 92.7534C356.677 95.5332 355.478 98.3129 354.278 101.093C353.134 103.872 352.017 106.543 350.926 109.105C349.836 111.612 348.91 113.765 348.147 115.563H339.235C338.472 113.765 337.546 111.612 336.456 109.105C335.365 106.543 334.221 103.872 333.022 101.093C331.877 98.3129 330.705 95.5332 329.506 92.7534C328.307 89.9737 327.217 87.4393 326.236 85.1501C325.691 91.7451 325.282 98.2856 325.01 104.772C324.737 111.258 324.519 117.253 324.356 122.758H311.929C312.147 118.289 312.392 113.52 312.664 108.451C312.991 103.382 313.318 98.3401 313.645 93.3257C314.027 88.2568 314.436 83.4059 314.872 78.7731C315.362 74.0857 315.88 69.8616 316.425 66.1008H328.607ZM424.872 122.758C424.272 120.796 423.591 118.779 422.828 116.708C422.12 114.637 421.411 112.566 420.702 110.495H398.628C397.92 112.566 397.184 114.637 396.421 116.708C395.712 118.779 395.058 120.796 394.459 122.758H381.214C383.34 116.654 385.356 111.012 387.264 105.834C389.172 100.657 391.025 95.7784 392.823 91.2001C394.677 86.6217 396.475 82.2886 398.219 78.2008C400.018 74.0585 401.871 70.0251 403.779 66.1008H415.961C417.814 70.0251 419.64 74.0585 421.438 78.2008C423.237 82.2886 425.035 86.6217 426.834 91.2001C428.687 95.7784 430.568 100.657 432.475 105.834C434.383 111.012 436.4 116.654 438.525 122.758H424.872ZM409.584 78.9366C409.311 79.7542 408.902 80.8715 408.357 82.2886C407.812 83.7057 407.185 85.3408 406.477 87.194C405.768 89.0471 404.978 91.0911 404.106 93.3257C403.288 95.5604 402.443 97.9041 401.571 100.357H417.677C416.805 97.9041 415.961 95.5604 415.143 93.3257C414.325 91.0911 413.535 89.0471 412.772 87.194C412.063 85.3408 411.437 83.7057 410.892 82.2886C410.347 80.8715 409.911 79.7542 409.584 78.9366ZM460.902 66.1008C461.883 67.8995 463.001 70.1341 464.254 72.8049C465.562 75.4211 466.898 78.2825 468.26 81.3893C469.678 84.4415 471.067 87.5755 472.43 90.7913C473.793 94.007 475.073 97.032 476.273 99.8662C477.472 97.032 478.752 94.007 480.115 90.7913C481.478 87.5755 482.84 84.4415 484.203 81.3893C485.62 78.2825 486.955 75.4211 488.209 72.8049C489.517 70.1341 490.662 67.8995 491.643 66.1008H503.252C503.797 69.8616 504.288 74.0857 504.724 78.7731C505.214 83.4059 505.623 88.2568 505.95 93.3257C506.332 98.3401 506.659 103.382 506.931 108.451C507.258 113.52 507.531 118.289 507.749 122.758H495.322C495.158 117.253 494.94 111.258 494.668 104.772C494.395 98.2856 493.986 91.7451 493.441 85.1501C492.46 87.4393 491.37 89.9737 490.171 92.7534C488.972 95.5332 487.773 98.3129 486.574 101.093C485.429 103.872 484.312 106.543 483.222 109.105C482.132 111.612 481.205 113.765 480.442 115.563H471.531C470.768 113.765 469.841 111.612 468.751 109.105C467.661 106.543 466.516 103.872 465.317 101.093C464.173 98.3129 463.001 95.5332 461.802 92.7534C460.603 89.9737 459.512 87.4393 458.531 85.1501C457.986 91.7451 457.578 98.2856 457.305 104.772C457.033 111.258 456.814 117.253 456.651 122.758H444.224C444.442 118.289 444.687 113.52 444.96 108.451C445.287 103.382 445.614 98.3401 445.941 93.3257C446.322 88.2568 446.731 83.4059 447.167 78.7731C447.658 74.0857 448.176 69.8616 448.721 66.1008H460.902ZM519.232 122.758V66.1008H557.494V76.8109H531.986V87.9298H554.633V98.3946H531.986V112.048H559.375V122.758H519.232ZM606.83 122.758C603.178 116.272 599.227 109.868 594.975 103.545C590.724 97.2228 586.2 91.2546 581.404 85.6406V122.758H568.813V66.1008H579.196C580.995 67.8995 582.984 70.1069 585.164 72.7231C587.345 75.3393 589.552 78.1463 591.787 81.144C594.076 84.0872 596.338 87.1667 598.573 90.3825C600.807 93.5437 602.906 96.596 604.868 99.5392V66.1008H617.54V122.758H606.83ZM672.632 66.1008V76.9744H655.545V122.758H642.791V76.9744H625.704V66.1008H672.632ZM680.829 122.758V66.1008H719.091V76.8109H693.583V87.9298H716.23V98.3946H693.583V112.048H720.972V122.758H680.829Z" fill="#F5F5F5"/>
</g>
</g>
<defs>
<filter id="filter0_b" x="1046.79" y="790.57" width="67.9924" height="53.1763" filterUnits="userSpaceOnUse" color-interpolation-filters="sRGB">
<feFlood flood-opacity="0" result="BackgroundImageFix"/>
<feGaussianBlur in="BackgroundImage" stdDeviation="3.98224"/>
<feComposite in2="SourceAlpha" operator="in" result="effect1_backgroundBlur"/>
<feBlend mode="normal" in="SourceGraphic" in2="effect1_backgroundBlur" result="shape"/>
</filter>
<filter id="filter1_b" x="1117.8" y="802.782" width="67.9924" height="53.1763" filterUnits="userSpaceOnUse" color-interpolation-filters="sRGB">
<feFlood flood-opacity="0" result="BackgroundImageFix"/>
<feGaussianBlur in="BackgroundImage" stdDeviation="3.98224"/>
<feComposite in2="SourceAlpha" operator="in" result="effect1_backgroundBlur"/>
<feBlend mode="normal" in="SourceGraphic" in2="effect1_backgroundBlur" result="shape"/>
</filter>
<filter id="filter2_b" x="221.715" y="348.907" width="69.5967" height="53.8299" filterUnits="userSpaceOnUse" color-interpolation-filters="sRGB">
<feFlood flood-opacity="0" result="BackgroundImageFix"/>
<feGaussianBlur in="BackgroundImage" stdDeviation="4.12341"/>
<feComposite in2="SourceAlpha" operator="in" result="effect1_backgroundBlur"/>
<feBlend mode="normal" in="SourceGraphic" in2="effect1_backgroundBlur" result="shape"/>
</filter>
<filter id="filter3_b" x="298.258" y="343.04" width="69.5967" height="53.8299" filterUnits="userSpaceOnUse" color-interpolation-filters="sRGB">
<feFlood flood-opacity="0" result="BackgroundImageFix"/>
<feGaussianBlur in="BackgroundImage" stdDeviation="4.12341"/>
<feComposite in2="SourceAlpha" operator="in" result="effect1_backgroundBlur"/>
<feBlend mode="normal" in="SourceGraphic" in2="effect1_backgroundBlur" result="shape"/>
</filter>
<filter id="filter4_d" x="65.3403" y="64.7927" width="667.203" height="72.1284" filterUnits="userSpaceOnUse" color-interpolation-filters="sRGB">
<feFlood flood-opacity="0" result="BackgroundImageFix"/>
<feColorMatrix in="SourceAlpha" type="matrix" values="0 0 0 0 0 0 0 0 0 0 0 0 0 0 0 0 0 0 127 0"/>
<feOffset dx="5.78597" dy="7.23247"/>
<feGaussianBlur stdDeviation="2.89299"/>
<feColorMatrix type="matrix" values="0 0 0 0 1 0 0 0 0 1 0 0 0 0 1 0 0 0 0.4 0"/>
<feBlend mode="normal" in2="BackgroundImageFix" result="effect1_dropShadow"/>
<feBlend mode="normal" in="SourceGraphic" in2="effect1_dropShadow" result="shape"/>
</filter>
<clipPath id="clip0">
<rect width="1368" height="912" fill="white" transform="translate(0.737305 0.0499878)"/>
</clipPath>
</defs>
</svg>
