<svg width="1281" height="720" viewBox="0 0 1281 720" fill="none" xmlns="http://www.w3.org/2000/svg">
<g clip-path="url(#clip0)">
<rect width="1280" height="720" transform="translate(0.737305)" fill="#3C576A"/>
<g opacity="0.91" filter="url(#filter0_d)">
<ellipse rx="6.92792" ry="7.0718" transform="matrix(-0.532764 -0.846264 0.924476 -0.381239 97.0086 63.008)" fill="#053885"/>
</g>
<g opacity="0.95" filter="url(#filter1_d)">
<ellipse rx="9.5372" ry="9.84941" transform="matrix(-0.49922 0.866475 -0.935587 -0.353096 617.146 147.954)" fill="#053885"/>
</g>
<g opacity="0.86" filter="url(#filter2_d)">
<ellipse rx="8.87053" ry="9.82787" transform="matrix(0.149991 0.988687 -0.995099 0.0988886 1121.94 228.87)" fill="#053885"/>
</g>
<g opacity="0.83" filter="url(#filter3_d)">
<ellipse rx="7.5795" ry="8.34193" transform="matrix(0.212869 -0.977081 0.98997 0.141279 347.897 255.861)" fill="#053885"/>
</g>
<g opacity="0.75" filter="url(#filter4_d)">
<ellipse rx="13.6984" ry="10.0179" transform="matrix(0.999102 0.0423781 -0.0646176 0.99791 525.691 369.795)" fill="#053885"/>
</g>
<g opacity="0.94" filter="url(#filter5_d)">
<ellipse rx="12.1355" ry="9.80278" transform="matrix(0.912389 0.409325 -0.565061 0.825049 835.13 260.823)" fill="#053885"/>
</g>
<g opacity="0.88" filter="url(#filter6_d)">
<ellipse rx="10.9225" ry="8.39141" transform="matrix(-0.959246 0.282574 -0.410142 -0.912021 366.417 509.682)" fill="#053885"/>
</g>
<g opacity="0.71" filter="url(#filter7_d)">
<ellipse rx="13.4719" ry="9.84183" transform="matrix(0.9999 -0.0141258 0.0215618 0.999768 739.427 519.54)" fill="#053885"/>
</g>
<g opacity="0.73" filter="url(#filter8_d)">
<ellipse rx="6.62319" ry="6.59405" transform="matrix(0.596087 0.80292 -0.899299 0.437335 1069.17 414.738)" fill="#053885"/>
</g>
<g opacity="0.74" filter="url(#filter9_d)">
<ellipse rx="10.5541" ry="9.73506" transform="matrix(0.74371 0.668502 -0.808171 0.588948 371.086 661.524)" fill="#053885"/>
</g>
<g opacity="0.98" filter="url(#filter10_d)">
<ellipse rx="8.778" ry="6.71225" transform="matrix(-0.963293 -0.268452 0.391482 -0.920186 737.609 584.789)" fill="#053885"/>
</g>
<g opacity="0.85" filter="url(#filter11_d)">
<ellipse rx="7.51737" ry="5.5498" transform="matrix(-0.991884 0.127148 -0.192051 -0.981385 1089.55 602.529)" fill="#053885"/>
</g>
<path d="M413.943 563.521C343.099 551.844 247.344 506.69 116.555 528.488C248.901 596.218 313.516 613.345 398.373 720L580.543 720C570.422 672.511 502.812 605.634 413.943 563.521Z" fill="#53575A"/>
<path d="M152.311 324.369L152.311 578.216" stroke="black" stroke-width="21" stroke-linecap="round"/>
<path d="M0.737305 507.566C0.737305 507.566 147.885 540.316 260.566 540.316C368.203 540.316 399.444 718.872 399.444 718.872H0.737305V507.566Z" fill="#53575A"/>
<path d="M399.371 719.313H350.889C347.252 699.336 343.779 686.551 334.055 659.841C318.88 633.466 305.679 620.659 275.8 600.491C232.159 574.852 203.69 562.822 141.695 547.936C132.395 542.816 128.304 538.751 123.106 529.258L136.001 531.162L240.97 541.065C281 538.205 301.548 544.65 334.055 573.744C370.35 620.057 387.611 661.267 399.371 719.313Z" fill="#63686B"/>
<path d="M353.237 323.573C281.755 343.778 246.953 304.788 158.465 323.573L158.465 427.879C246.953 410.083 278.588 444.854 353.237 427.879V323.573Z" fill="#040332" fill-opacity="0.9"/>
<path d="M212.396 364.203C213.213 364.203 213.882 364.141 214.402 364.017C214.947 363.869 215.38 363.683 215.702 363.46C216.024 363.213 216.247 362.928 216.371 362.606C216.495 362.284 216.556 361.925 216.556 361.529C216.556 360.687 216.16 359.993 215.368 359.449C214.575 358.879 213.213 358.272 211.282 357.629C210.44 357.331 209.598 356.997 208.756 356.626C207.914 356.23 207.159 355.747 206.49 355.177C205.822 354.583 205.277 353.877 204.856 353.06C204.435 352.218 204.225 351.203 204.225 350.014C204.225 348.825 204.447 347.761 204.893 346.82C205.339 345.854 205.97 345.037 206.787 344.368C207.605 343.7 208.595 343.192 209.759 342.845C210.923 342.474 212.235 342.288 213.696 342.288C215.43 342.288 216.928 342.474 218.191 342.845C219.454 343.217 220.494 343.625 221.311 344.071L219.639 348.64C218.921 348.268 218.117 347.946 217.225 347.674C216.358 347.377 215.306 347.228 214.068 347.228C212.681 347.228 211.678 347.426 211.059 347.823C210.465 348.194 210.168 348.776 210.168 349.568C210.168 350.039 210.279 350.435 210.502 350.757C210.725 351.079 211.034 351.376 211.431 351.648C211.852 351.896 212.322 352.131 212.842 352.354C213.387 352.552 213.981 352.763 214.625 352.986C215.962 353.481 217.126 353.976 218.117 354.471C219.107 354.942 219.924 355.499 220.568 356.143C221.237 356.787 221.732 357.542 222.054 358.409C222.376 359.275 222.537 360.328 222.537 361.566C222.537 363.968 221.695 365.838 220.011 367.175C218.327 368.487 215.789 369.143 212.396 369.143C211.257 369.143 210.23 369.069 209.313 368.92C208.397 368.797 207.58 368.636 206.862 368.438C206.168 368.24 205.562 368.029 205.042 367.806C204.546 367.583 204.125 367.373 203.779 367.175L205.413 362.569C206.181 362.99 207.122 363.374 208.236 363.72C209.375 364.042 210.762 364.203 212.396 364.203Z" fill="#D9D9D9"/>
<path d="M225.695 359.003C225.695 357.27 225.955 355.759 226.475 354.471C227.02 353.159 227.726 352.069 228.592 351.203C229.459 350.336 230.45 349.68 231.564 349.234C232.703 348.788 233.867 348.565 235.055 348.565C237.829 348.565 240.02 349.42 241.63 351.128C243.24 352.812 244.044 355.301 244.044 358.594C244.044 358.916 244.032 359.275 244.007 359.672C243.982 360.043 243.958 360.377 243.933 360.674H231.378C231.502 361.814 232.034 362.717 232.975 363.386C233.916 364.055 235.179 364.389 236.764 364.389C237.779 364.389 238.77 364.302 239.736 364.129C240.726 363.931 241.531 363.696 242.15 363.423L242.893 367.918C242.596 368.066 242.2 368.215 241.704 368.363C241.209 368.512 240.652 368.636 240.033 368.735C239.439 368.859 238.795 368.958 238.101 369.032C237.408 369.106 236.715 369.143 236.021 369.143C234.263 369.143 232.728 368.883 231.415 368.363C230.128 367.843 229.05 367.138 228.184 366.246C227.342 365.33 226.71 364.253 226.289 363.015C225.893 361.776 225.695 360.439 225.695 359.003ZM238.696 356.886C238.671 356.415 238.584 355.957 238.436 355.511C238.312 355.066 238.101 354.669 237.804 354.323C237.532 353.976 237.173 353.691 236.727 353.468C236.306 353.246 235.774 353.134 235.13 353.134C234.511 353.134 233.978 353.246 233.533 353.468C233.087 353.667 232.715 353.939 232.418 354.286C232.121 354.632 231.886 355.041 231.712 355.511C231.564 355.957 231.452 356.415 231.378 356.886H238.696Z" fill="#D9D9D9"/>
<path d="M265.662 349.085C264.547 352.849 263.384 356.378 262.17 359.672C260.957 362.965 259.632 366.159 258.196 369.255C257.676 370.369 257.156 371.31 256.636 372.078C256.116 372.87 255.546 373.514 254.927 374.009C254.308 374.529 253.602 374.901 252.81 375.124C252.042 375.371 251.138 375.495 250.098 375.495C249.232 375.495 248.427 375.408 247.684 375.235C246.966 375.086 246.372 374.913 245.901 374.715L246.867 370.295C247.436 370.493 247.944 370.629 248.39 370.703C248.835 370.778 249.306 370.815 249.801 370.815C250.792 370.815 251.547 370.542 252.067 369.998C252.612 369.478 253.07 368.747 253.441 367.806C252.178 365.33 250.916 362.556 249.653 359.486C248.39 356.39 247.201 352.924 246.087 349.085H251.956C252.203 350.051 252.488 351.104 252.81 352.243C253.157 353.357 253.516 354.496 253.887 355.66C254.258 356.799 254.63 357.913 255.001 359.003C255.398 360.093 255.769 361.083 256.116 361.975C256.438 361.083 256.772 360.093 257.119 359.003C257.465 357.913 257.8 356.799 258.122 355.66C258.468 354.496 258.79 353.357 259.087 352.243C259.409 351.104 259.694 350.051 259.942 349.085H265.662Z" fill="#D9D9D9"/>
<path d="M268.629 349.754C269.57 349.482 270.783 349.234 272.269 349.011C273.755 348.764 275.315 348.64 276.949 348.64C278.608 348.64 279.982 348.863 281.072 349.308C282.186 349.729 283.065 350.336 283.709 351.128C284.353 351.921 284.811 352.862 285.084 353.951C285.356 355.041 285.492 356.254 285.492 357.591V368.623H279.958V358.26C279.958 356.477 279.722 355.214 279.252 354.471C278.781 353.728 277.902 353.357 276.615 353.357C276.219 353.357 275.798 353.382 275.352 353.431C274.906 353.456 274.51 353.493 274.163 353.543V368.623H268.629V349.754Z" fill="#D9D9D9"/>
<path d="M289.573 359.003C289.573 357.27 289.833 355.759 290.353 354.471C290.898 353.159 291.604 352.069 292.47 351.203C293.337 350.336 294.328 349.68 295.442 349.234C296.581 348.788 297.745 348.565 298.934 348.565C301.707 348.565 303.898 349.42 305.508 351.128C307.118 352.812 307.922 355.301 307.922 358.594C307.922 358.916 307.91 359.275 307.885 359.672C307.861 360.043 307.836 360.377 307.811 360.674H295.256C295.38 361.814 295.912 362.717 296.853 363.386C297.794 364.055 299.057 364.389 300.642 364.389C301.657 364.389 302.648 364.302 303.614 364.129C304.604 363.931 305.409 363.696 306.028 363.423L306.771 367.918C306.474 368.066 306.078 368.215 305.582 368.363C305.087 368.512 304.53 368.636 303.911 368.735C303.317 368.859 302.673 368.958 301.979 369.032C301.286 369.106 300.593 369.143 299.899 369.143C298.141 369.143 296.606 368.883 295.293 368.363C294.006 367.843 292.929 367.138 292.062 366.246C291.22 365.33 290.588 364.253 290.167 363.015C289.771 361.776 289.573 360.439 289.573 359.003ZM302.574 356.886C302.549 356.415 302.462 355.957 302.314 355.511C302.19 355.066 301.979 354.669 301.682 354.323C301.41 353.976 301.051 353.691 300.605 353.468C300.184 353.246 299.652 353.134 299.008 353.134C298.389 353.134 297.856 353.246 297.411 353.468C296.965 353.667 296.593 353.939 296.296 354.286C295.999 354.632 295.764 355.041 295.591 355.511C295.442 355.957 295.331 356.415 295.256 356.886H302.574Z" fill="#D9D9D9"/>
<path d="M243.744 395.421C243.744 395.899 243.65 396.359 243.461 396.799C243.272 397.24 243.027 397.668 242.725 398.083C242.422 398.486 242.082 398.877 241.705 399.254C241.327 399.632 240.956 399.991 240.59 400.331C240.402 400.507 240.194 400.709 239.967 400.935C239.753 401.149 239.545 401.37 239.344 401.596C239.143 401.823 238.96 402.037 238.796 402.238C238.645 402.427 238.551 402.585 238.513 402.71H244.141V405.071H235.416C235.391 404.933 235.378 404.756 235.378 404.542C235.378 404.328 235.378 404.177 235.378 404.089C235.378 403.485 235.472 402.931 235.661 402.427C235.863 401.924 236.121 401.458 236.436 401.03C236.75 400.589 237.103 400.18 237.493 399.802C237.896 399.424 238.293 399.047 238.683 398.669C238.985 398.379 239.268 398.109 239.533 397.857C239.797 397.592 240.03 397.341 240.232 397.101C240.433 396.85 240.59 396.604 240.704 396.365C240.817 396.113 240.874 395.861 240.874 395.609C240.874 395.055 240.716 394.665 240.402 394.438C240.087 394.212 239.697 394.099 239.231 394.099C238.891 394.099 238.57 394.155 238.268 394.269C237.978 394.369 237.707 394.495 237.455 394.646C237.216 394.785 237.008 394.93 236.832 395.081C236.656 395.219 236.524 395.332 236.436 395.421L235.038 393.456C235.592 392.94 236.234 392.518 236.964 392.191C237.707 391.851 238.5 391.681 239.344 391.681C240.112 391.681 240.773 391.769 241.327 391.946C241.881 392.122 242.334 392.374 242.687 392.701C243.052 393.016 243.316 393.406 243.48 393.872C243.656 394.325 243.744 394.841 243.744 395.421Z" fill="#D9D9D9"/>
<path d="M255.196 398.499C255.196 400.702 254.774 402.396 253.931 403.579C253.1 404.75 251.948 405.336 250.474 405.336C249.001 405.336 247.843 404.75 246.999 403.579C246.169 402.396 245.753 400.702 245.753 398.499C245.753 397.404 245.86 396.434 246.074 395.591C246.301 394.747 246.622 394.036 247.037 393.456C247.453 392.877 247.95 392.437 248.529 392.134C249.108 391.832 249.757 391.681 250.474 391.681C251.948 391.681 253.1 392.273 253.931 393.456C254.774 394.627 255.196 396.308 255.196 398.499ZM252.325 398.499C252.325 397.844 252.294 397.252 252.231 396.724C252.168 396.182 252.067 395.716 251.929 395.326C251.79 394.936 251.601 394.634 251.362 394.42C251.123 394.206 250.827 394.099 250.474 394.099C250.122 394.099 249.826 394.206 249.587 394.42C249.36 394.634 249.171 394.936 249.02 395.326C248.882 395.716 248.781 396.182 248.718 396.724C248.655 397.252 248.624 397.844 248.624 398.499C248.624 399.154 248.655 399.752 248.718 400.293C248.781 400.834 248.882 401.3 249.02 401.691C249.171 402.081 249.36 402.383 249.587 402.597C249.826 402.811 250.122 402.918 250.474 402.918C250.827 402.918 251.123 402.811 251.362 402.597C251.601 402.383 251.79 402.081 251.929 401.691C252.067 401.3 252.168 400.834 252.231 400.293C252.294 399.752 252.325 399.154 252.325 398.499Z" fill="#D9D9D9"/>
<path d="M265.212 395.421C265.212 395.899 265.118 396.359 264.929 396.799C264.74 397.24 264.494 397.668 264.192 398.083C263.89 398.486 263.55 398.877 263.172 399.254C262.795 399.632 262.423 399.991 262.058 400.331C261.869 400.507 261.662 400.709 261.435 400.935C261.221 401.149 261.013 401.37 260.812 401.596C260.61 401.823 260.428 402.037 260.264 402.238C260.113 402.427 260.019 402.585 259.981 402.71H265.609V405.071H256.883C256.858 404.933 256.846 404.756 256.846 404.542C256.846 404.328 256.846 404.177 256.846 404.089C256.846 403.485 256.94 402.931 257.129 402.427C257.33 401.924 257.589 401.458 257.903 401.03C258.218 400.589 258.571 400.18 258.961 399.802C259.364 399.424 259.76 399.047 260.151 398.669C260.453 398.379 260.736 398.109 261.001 397.857C261.265 397.592 261.498 397.341 261.699 397.101C261.901 396.85 262.058 396.604 262.171 396.365C262.285 396.113 262.341 395.861 262.341 395.609C262.341 395.055 262.184 394.665 261.869 394.438C261.555 394.212 261.164 394.099 260.698 394.099C260.358 394.099 260.037 394.155 259.735 394.269C259.446 394.369 259.175 394.495 258.923 394.646C258.684 394.785 258.476 394.93 258.3 395.081C258.124 395.219 257.991 395.332 257.903 395.421L256.506 393.456C257.06 392.94 257.702 392.518 258.432 392.191C259.175 391.851 259.968 391.681 260.812 391.681C261.58 391.681 262.241 391.769 262.795 391.946C263.349 392.122 263.802 392.374 264.154 392.701C264.52 393.016 264.784 393.406 264.948 393.872C265.124 394.325 265.212 394.841 265.212 395.421Z" fill="#D9D9D9"/>
<path d="M276.664 398.499C276.664 400.702 276.242 402.396 275.398 403.579C274.567 404.75 273.415 405.336 271.942 405.336C270.469 405.336 269.311 404.75 268.467 403.579C267.636 402.396 267.221 400.702 267.221 398.499C267.221 397.404 267.328 396.434 267.542 395.591C267.768 394.747 268.089 394.036 268.505 393.456C268.92 392.877 269.418 392.437 269.997 392.134C270.576 391.832 271.224 391.681 271.942 391.681C273.415 391.681 274.567 392.273 275.398 393.456C276.242 394.627 276.664 396.308 276.664 398.499ZM273.793 398.499C273.793 397.844 273.761 397.252 273.699 396.724C273.636 396.182 273.535 395.716 273.396 395.326C273.258 394.936 273.069 394.634 272.83 394.42C272.591 394.206 272.295 394.099 271.942 394.099C271.59 394.099 271.294 394.206 271.055 394.42C270.828 394.634 270.639 394.936 270.488 395.326C270.349 395.716 270.249 396.182 270.186 396.724C270.123 397.252 270.091 397.844 270.091 398.499C270.091 399.154 270.123 399.752 270.186 400.293C270.249 400.834 270.349 401.3 270.488 401.691C270.639 402.081 270.828 402.383 271.055 402.597C271.294 402.811 271.59 402.918 271.942 402.918C272.295 402.918 272.591 402.811 272.83 402.597C273.069 402.383 273.258 402.081 273.396 401.691C273.535 401.3 273.636 400.834 273.699 400.293C273.761 399.752 273.793 399.154 273.793 398.499Z" fill="#D9D9D9"/>
<path d="M580.329 718.52H527.222L510.106 676.678L475.549 630.101L426.968 589.033C411.531 574.033 399.354 567.891 377.691 556.087L413.856 563.834C499.927 605.83 562.048 660.632 580.329 718.52Z" fill="#63686B"/>
<g filter="url(#filter12_d)">
<path d="M789.038 634.692C794.878 634.692 799.362 635.728 802.489 637.801C805.617 639.835 807.181 643.189 807.181 647.861C807.181 652.571 805.598 655.981 802.433 658.091C799.268 660.164 794.746 661.2 788.868 661.2H786.099V674.313H777.281V635.709C779.203 635.332 781.238 635.069 783.386 634.918C785.533 634.767 787.417 634.692 789.038 634.692ZM789.603 642.209C788.962 642.209 788.322 642.228 787.681 642.266C787.078 642.303 786.551 642.341 786.099 642.379V653.683H788.868C791.92 653.683 794.219 653.268 795.764 652.439C797.308 651.61 798.081 650.065 798.081 647.805C798.081 646.712 797.874 645.808 797.459 645.092C797.082 644.376 796.517 643.811 795.764 643.396C795.048 642.944 794.162 642.642 793.107 642.492C792.052 642.303 790.884 642.209 789.603 642.209ZM825.129 634.692C831.007 634.692 835.51 635.747 838.637 637.857C841.765 639.929 843.329 643.17 843.329 647.579C843.329 650.329 842.688 652.571 841.407 654.305C840.163 656 838.355 657.338 835.981 658.317C836.772 659.297 837.601 660.428 838.468 661.709C839.334 662.952 840.182 664.271 841.011 665.665C841.878 667.022 842.707 668.453 843.498 669.961C844.289 671.43 845.024 672.881 845.702 674.313H835.811C835.095 673.032 834.361 671.732 833.607 670.413C832.891 669.094 832.138 667.813 831.346 666.569C830.593 665.326 829.839 664.158 829.085 663.065C828.332 661.935 827.578 660.917 826.825 660.013H822.473V674.313H813.655V635.709C815.577 635.332 817.555 635.069 819.59 634.918C821.662 634.767 823.509 634.692 825.129 634.692ZM825.638 642.209C824.997 642.209 824.413 642.228 823.886 642.266C823.396 642.303 822.925 642.341 822.473 642.379V653.005H824.959C828.275 653.005 830.649 652.59 832.081 651.761C833.513 650.932 834.229 649.519 834.229 647.522C834.229 645.6 833.494 644.244 832.024 643.453C830.593 642.624 828.464 642.209 825.638 642.209ZM857.765 654.7C857.765 656.622 857.991 658.355 858.443 659.9C858.933 661.445 859.611 662.783 860.478 663.913C861.382 665.006 862.475 665.854 863.756 666.456C865.037 667.059 866.507 667.361 868.164 667.361C869.785 667.361 871.235 667.059 872.517 666.456C873.835 665.854 874.928 665.006 875.795 663.913C876.699 662.783 877.377 661.445 877.829 659.9C878.319 658.355 878.564 656.622 878.564 654.7C878.564 652.778 878.319 651.045 877.829 649.5C877.377 647.918 876.699 646.58 875.795 645.487C874.928 644.357 873.835 643.49 872.517 642.887C871.235 642.284 869.785 641.983 868.164 641.983C866.507 641.983 865.037 642.303 863.756 642.944C862.475 643.547 861.382 644.413 860.478 645.544C859.611 646.637 858.933 647.974 858.443 649.557C857.991 651.102 857.765 652.816 857.765 654.7ZM887.664 654.7C887.664 658.054 887.155 661.012 886.138 663.574C885.158 666.098 883.802 668.227 882.068 669.961C880.335 671.656 878.263 672.937 875.851 673.804C873.477 674.671 870.915 675.104 868.164 675.104C865.489 675.104 862.965 674.671 860.591 673.804C858.217 672.937 856.144 671.656 854.373 669.961C852.602 668.227 851.208 666.098 850.191 663.574C849.174 661.012 848.665 658.054 848.665 654.7C848.665 651.347 849.192 648.408 850.247 645.883C851.303 643.321 852.716 641.173 854.487 639.44C856.295 637.706 858.368 636.406 860.704 635.54C863.078 634.673 865.565 634.24 868.164 634.24C870.84 634.24 873.364 634.673 875.738 635.54C878.112 636.406 880.184 637.706 881.955 639.44C883.726 641.173 885.121 643.321 886.138 645.883C887.155 648.408 887.664 651.347 887.664 654.7ZM915.356 674.313C914.264 672.127 913.058 669.923 911.739 667.7C910.458 665.439 908.97 663.141 907.274 660.804C906.746 661.483 906.068 662.425 905.239 663.63C904.448 664.836 903.638 666.117 902.809 667.474C902.018 668.83 901.264 670.13 900.548 671.374C899.832 672.617 899.305 673.597 898.965 674.313H888.905C890.563 671.261 892.484 668.058 894.67 664.704C896.893 661.351 899.361 657.79 902.074 654.022L889.47 635.144H900.152L907.783 647.352L915.243 635.144H925.304L912.869 654.135C916.035 658.242 918.691 662.048 920.839 665.552C922.987 669.019 924.682 671.939 925.926 674.313H915.356ZM931.002 635.144H939.819V674.313H931.002V635.144ZM959.285 635.144C959.963 636.388 960.735 637.932 961.602 639.779C962.506 641.587 963.43 643.566 964.372 645.713C965.351 647.823 966.312 649.99 967.254 652.213C968.196 654.436 969.082 656.528 969.911 658.487C970.74 656.528 971.625 654.436 972.567 652.213C973.509 649.99 974.451 647.823 975.393 645.713C976.373 643.566 977.296 641.587 978.163 639.779C979.067 637.932 979.858 636.388 980.536 635.144H988.562C988.939 637.744 989.278 640.664 989.58 643.905C989.919 647.108 990.201 650.461 990.427 653.965C990.691 657.432 990.917 660.917 991.106 664.422C991.332 667.926 991.52 671.223 991.671 674.313H983.08C982.967 670.507 982.816 666.362 982.628 661.878C982.439 657.394 982.157 652.873 981.78 648.313C981.102 649.896 980.348 651.648 979.519 653.57C978.69 655.491 977.861 657.413 977.032 659.335C976.241 661.257 975.468 663.103 974.715 664.874C973.961 666.607 973.321 668.095 972.793 669.339H966.632C966.105 668.095 965.464 666.607 964.711 664.874C963.957 663.103 963.166 661.257 962.337 659.335C961.546 657.413 960.735 655.491 959.906 653.57C959.077 651.648 958.324 649.896 957.646 648.313C957.269 652.873 956.986 657.394 956.798 661.878C956.609 666.362 956.459 670.507 956.346 674.313H947.755C947.905 671.223 948.075 667.926 948.263 664.422C948.489 660.917 948.715 657.432 948.941 653.965C949.205 650.461 949.488 647.108 949.789 643.905C950.128 640.664 950.486 637.744 950.863 635.144H959.285ZM1025.84 674.313C1025.42 672.956 1024.95 671.562 1024.42 670.13C1023.93 668.698 1023.44 667.267 1022.95 665.835H1007.69C1007.2 667.267 1006.69 668.698 1006.17 670.13C1005.68 671.562 1005.22 672.956 1004.81 674.313H995.653C997.123 670.093 998.517 666.193 999.836 662.613C1001.15 659.033 1002.44 655.661 1003.68 652.496C1004.96 649.331 1006.2 646.335 1007.41 643.509C1008.65 640.645 1009.93 637.857 1011.25 635.144H1019.67C1020.96 637.857 1022.22 640.645 1023.46 643.509C1024.7 646.335 1025.95 649.331 1027.19 652.496C1028.47 655.661 1029.77 659.033 1031.09 662.613C1032.41 666.193 1033.8 670.093 1035.27 674.313H1025.84ZM1015.27 644.018C1015.08 644.583 1014.79 645.355 1014.42 646.335C1014.04 647.315 1013.61 648.445 1013.12 649.726C1012.63 651.007 1012.08 652.42 1011.48 653.965C1010.91 655.51 1010.33 657.131 1009.73 658.826H1020.86C1020.26 657.131 1019.67 655.51 1019.11 653.965C1018.54 652.42 1018 651.007 1017.47 649.726C1016.98 648.445 1016.55 647.315 1016.17 646.335C1015.79 645.355 1015.49 644.583 1015.27 644.018ZM1050.74 635.144C1051.42 636.388 1052.19 637.932 1053.06 639.779C1053.97 641.587 1054.89 643.566 1055.83 645.713C1056.81 647.823 1057.77 649.99 1058.71 652.213C1059.66 654.436 1060.54 656.528 1061.37 658.487C1062.2 656.528 1063.08 654.436 1064.03 652.213C1064.97 649.99 1065.91 647.823 1066.85 645.713C1067.83 643.566 1068.76 641.587 1069.62 639.779C1070.53 637.932 1071.32 636.388 1072 635.144H1080.02C1080.4 637.744 1080.74 640.664 1081.04 643.905C1081.38 647.108 1081.66 650.461 1081.89 653.965C1082.15 657.432 1082.38 660.917 1082.57 664.422C1082.79 667.926 1082.98 671.223 1083.13 674.313H1074.54C1074.43 670.507 1074.28 666.362 1074.09 661.878C1073.9 657.394 1073.62 652.873 1073.24 648.313C1072.56 649.896 1071.81 651.648 1070.98 653.57C1070.15 655.491 1069.32 657.413 1068.49 659.335C1067.7 661.257 1066.93 663.103 1066.17 664.874C1065.42 666.607 1064.78 668.095 1064.25 669.339H1058.09C1057.56 668.095 1056.92 666.607 1056.17 664.874C1055.42 663.103 1054.63 661.257 1053.8 659.335C1053 657.413 1052.19 655.491 1051.37 653.57C1050.54 651.648 1049.78 649.896 1049.1 648.313C1048.73 652.873 1048.45 657.394 1048.26 661.878C1048.07 666.362 1047.92 670.507 1047.8 674.313H1039.21C1039.36 671.223 1039.53 667.926 1039.72 664.422C1039.95 660.917 1040.17 657.432 1040.4 653.965C1040.66 650.461 1040.95 647.108 1041.25 643.905C1041.59 640.664 1041.95 637.744 1042.32 635.144H1050.74ZM1091.07 674.313V635.144H1117.52V642.548H1099.89V650.235H1115.54V657.47H1099.89V666.909H1118.82V674.313H1091.07ZM1151.63 674.313C1149.1 669.829 1146.37 665.401 1143.43 661.03C1140.49 656.66 1137.37 652.534 1134.05 648.652V674.313H1125.35V635.144H1132.52C1133.77 636.388 1135.14 637.914 1136.65 639.722C1138.16 641.531 1139.68 643.471 1141.23 645.544C1142.81 647.579 1144.37 649.708 1145.92 651.931C1147.46 654.116 1148.91 656.226 1150.27 658.261V635.144H1159.03V674.313H1151.63ZM1197.12 635.144V642.661H1185.31V674.313H1176.49V642.661H1164.68V635.144H1197.12ZM1202.79 674.313V635.144H1229.24V642.548H1211.6V650.235H1227.26V657.47H1211.6V666.909H1230.54V674.313H1202.79Z" fill="#F5F5F5"/>
</g>
<g opacity="0.78">
<path d="M1193.12 159.696C1193.12 228.151 1137.63 283.645 1069.17 283.645C1000.71 283.645 945.221 228.151 945.221 159.696C945.221 91.2403 1000.71 35.7464 1069.17 35.7464C1137.63 35.7464 1193.12 91.2403 1193.12 159.696Z" fill="#4E4949"/>
<path fill-rule="evenodd" clip-rule="evenodd" d="M1069.17 278.426C1134.83 278.426 1187.96 225.215 1187.96 159.696C1187.96 94.1766 1134.83 40.9653 1069.17 40.9653C1003.51 40.9653 950.383 94.1766 950.383 159.696C950.383 225.215 1003.51 278.426 1069.17 278.426ZM1069.17 283.645C1137.63 283.645 1193.12 228.151 1193.12 159.696C1193.12 91.2403 1137.63 35.7464 1069.17 35.7464C1000.71 35.7464 945.221 91.2403 945.221 159.696C945.221 228.151 1000.71 283.645 1069.17 283.645Z" fill="black"/>
<path d="M1168.33 159.696C1168.33 214.46 1123.93 258.855 1069.17 258.855C1014.41 258.855 970.01 214.46 970.01 159.696C970.01 104.931 1014.41 60.5362 1069.17 60.5362C1123.93 60.5362 1168.33 104.931 1168.33 159.696Z" fill="#525252"/>
<path fill-rule="evenodd" clip-rule="evenodd" d="M1069.17 255.724C1122.26 255.724 1165.23 212.698 1165.23 159.696C1165.23 106.693 1122.26 63.6675 1069.17 63.6675C1016.08 63.6675 973.108 106.693 973.108 159.696C973.108 212.698 1016.08 255.724 1069.17 255.724ZM1069.17 258.855C1123.93 258.855 1168.33 214.46 1168.33 159.696C1168.33 104.931 1123.93 60.5362 1069.17 60.5362C1014.41 60.5362 970.01 104.931 970.01 159.696C970.01 214.46 1014.41 258.855 1069.17 258.855Z" fill="black"/>
<path d="M1114.48 117.078C1121.89 104.19 1124.29 98.307 1132.61 87.1064C1122.35 78.8117 1117.23 74.3772 1103.04 69.7581C1096.06 81.2653 1089.71 86.8529 1081.81 98.2442C1071.46 99.5932 1066.09 102.619 1057.66 114.203C1054.52 120.478 1054.45 123.564 1057.64 128.191C1047.67 134.792 1047.46 141.432 1057.78 147.826C1060.37 155.012 1063.2 157.19 1070.37 158.2C1077.2 163.549 1080 163.868 1085.68 161.006C1094.46 167.3 1098.43 164.174 1104.4 150.856C1110.3 134.778 1114.36 124.63 1112.74 119.813C1113.92 118.783 1114.19 118.176 1114.48 117.078Z" fill="#0116D1"/>
<path fill-rule="evenodd" clip-rule="evenodd" d="M1102.92 69.4469L1103.11 69.5098C1116.77 73.9539 1122.06 78.238 1131.53 85.9C1131.94 86.2279 1132.35 86.562 1132.77 86.9026L1132.97 87.0607L1132.82 87.2632C1126.82 95.3304 1123.91 100.625 1119.97 107.793C1118.45 110.555 1116.78 113.595 1114.72 117.179C1114.58 117.72 1114.43 118.166 1114.16 118.607C1113.91 119.023 1113.56 119.422 1113.04 119.896C1113.41 121.127 1113.44 122.654 1113.21 124.469C1112.96 126.369 1112.41 128.607 1111.64 131.187C1110.35 135.455 1108.42 140.688 1106.12 146.916C1105.64 148.216 1105.15 149.56 1104.64 150.947L1104.64 150.955L1104.63 150.963C1103.14 154.297 1101.77 157.004 1100.41 159.089C1099.05 161.172 1097.69 162.653 1096.23 163.511C1093.28 165.236 1090 164.394 1085.66 161.309C1082.87 162.699 1080.72 163.337 1078.41 162.939C1076.09 162.539 1073.66 161.098 1070.27 158.448C1066.7 157.941 1064.17 157.135 1062.2 155.532C1060.23 153.932 1058.86 151.563 1057.57 148.001C1052.44 144.81 1049.83 141.499 1049.84 138.085C1049.85 134.71 1052.43 131.382 1057.28 128.12C1055.77 125.879 1055.01 123.953 1055.02 121.813C1055.03 119.616 1055.86 117.23 1057.43 114.085L1057.44 114.066L1057.46 114.048C1061.68 108.247 1065.15 104.564 1068.88 102.165C1072.58 99.781 1076.52 98.6785 1081.66 98.0002C1085.04 93.131 1088.15 89.3193 1091.13 85.6538C1091.61 85.0598 1092.09 84.4696 1092.57 83.8794C1096.01 79.6232 1099.34 75.3602 1102.82 69.6217L1102.92 69.4469ZM1103.15 70.0695C1099.69 75.75 1096.38 79.9908 1092.97 84.2099C1092.49 84.8014 1092.01 85.3925 1091.52 85.987C1088.52 89.6761 1085.41 93.4973 1082.02 98.394L1081.95 98.4883L1081.84 98.503C1076.69 99.175 1072.8 100.261 1069.15 102.606C1065.51 104.951 1062.08 108.568 1057.88 114.34C1056.32 117.46 1055.54 119.75 1055.53 121.816C1055.52 123.876 1056.27 125.752 1057.85 128.042L1058 128.262L1057.78 128.409C1052.81 131.702 1050.37 134.944 1050.36 138.087C1050.35 141.225 1052.77 144.416 1057.91 147.604L1057.99 147.651L1058.02 147.737C1059.31 151.313 1060.65 153.601 1062.52 155.126C1064.4 156.65 1066.84 157.439 1070.4 157.941L1070.47 157.951L1070.53 157.993C1073.94 160.666 1076.31 162.046 1078.5 162.425C1080.68 162.801 1082.74 162.196 1085.57 160.772L1085.7 160.703L1085.83 160.793C1090.21 163.928 1093.27 164.637 1095.97 163.06C1097.34 162.259 1098.64 160.854 1099.98 158.802C1101.31 156.753 1102.67 154.078 1104.16 150.756C1104.67 149.369 1105.16 148.027 1105.64 146.728C1107.94 140.5 1109.86 135.286 1111.14 131.035C1111.92 128.467 1112.45 126.26 1112.7 124.4C1112.94 122.538 1112.88 121.047 1112.5 119.897L1112.44 119.731L1112.57 119.616C1113.15 119.11 1113.49 118.721 1113.72 118.335C1113.95 117.95 1114.09 117.553 1114.23 117.011L1114.24 116.977L1114.26 116.947C1116.31 113.368 1117.99 110.327 1119.51 107.561C1123.42 100.44 1126.34 95.1366 1132.26 87.1523C1131.9 86.8665 1131.55 86.5853 1131.21 86.3086C1121.8 78.6931 1116.57 74.4616 1103.15 70.0695Z" fill="black"/>
<path fill-rule="evenodd" clip-rule="evenodd" d="M1099.13 103.44L1109.35 89.2973L1109.77 89.6052L1099.55 103.748L1099.13 103.44ZM1100.82 103.953L1106.21 96.7322L1106.62 97.0465L1101.23 104.267L1100.82 103.953ZM1093.89 103.134C1090.83 101.599 1088.94 100.831 1085.3 99.5825L1085.46 99.0882C1089.12 100.343 1091.04 101.119 1094.12 102.667L1093.89 103.134ZM1108.98 115.631C1106.36 112.588 1104.7 110.991 1101.53 108.245L1101.87 107.848C1105.05 110.607 1106.73 112.222 1109.37 115.288L1108.98 115.631ZM1084.02 122.382C1080.36 123.205 1076.9 123.015 1072.67 121.853L1072.8 121.35C1076.97 122.494 1080.35 122.673 1083.91 121.873C1087.48 121.07 1091.25 119.279 1096.23 116.451L1096.48 116.906C1091.5 119.738 1087.67 121.562 1084.02 122.382ZM1069.05 119.324C1069.1 118.985 1069.1 118.688 1069.05 118.394C1068.98 118.052 1068.85 117.73 1068.66 117.365L1068.2 117.61C1068.38 117.955 1068.49 118.223 1068.54 118.49C1068.59 118.751 1068.58 119.028 1068.51 119.393L1068.13 120.657C1067.93 120.607 1067.72 120.57 1067.51 120.544C1066.43 120.416 1065.28 120.601 1063.98 121.04L1064.15 121.535C1065.4 121.11 1066.48 120.946 1067.45 121.063C1068.42 121.179 1069.3 121.574 1070.17 122.302C1071.93 123.769 1073.6 126.568 1075.7 131.076C1076.03 131.99 1075.86 133.085 1075.35 134.189C1074.83 135.294 1073.98 136.373 1073 137.222C1072.02 138.074 1070.93 138.676 1069.94 138.854C1068.97 139.03 1068.13 138.794 1067.54 137.993C1066.22 136.174 1063.65 133.514 1061.42 131.32C1060.31 130.22 1059.27 129.233 1058.52 128.521C1058.14 128.165 1057.83 127.878 1057.62 127.679C1057.51 127.58 1057.43 127.503 1057.37 127.451L1057.31 127.392L1057.29 127.372C1057.29 127.371 1057.29 127.371 1057.11 127.564C1056.94 127.757 1056.94 127.757 1056.94 127.758L1056.94 127.759L1056.96 127.777L1057.03 127.836C1057.08 127.888 1057.17 127.965 1057.27 128.064C1057.48 128.261 1057.79 128.548 1058.17 128.903C1058.92 129.613 1059.95 130.597 1061.06 131.694C1063.29 133.892 1065.83 136.523 1067.13 138.302C1067.85 139.3 1068.92 139.57 1070.04 139.368C1071.14 139.168 1072.31 138.507 1073.33 137.619C1074.36 136.728 1075.26 135.592 1075.81 134.412C1076.36 133.236 1076.58 131.983 1076.18 130.885L1076.18 130.874L1076.17 130.864C1075.45 129.311 1074.77 127.947 1074.12 126.764L1074.19 126.831L1074.77 126.209C1077.09 126.682 1078.64 127.258 1079.77 128.2C1080.87 129.109 1081.59 130.383 1082.2 132.322L1082.17 132.372C1077.2 143.039 1073.9 149.394 1069.59 156.018L1070.02 156.304C1074.32 149.695 1077.62 143.357 1082.54 132.81L1082.56 132.809C1084.92 132.629 1086.58 132.812 1087.91 133.492C1089.23 134.163 1090.27 135.338 1091.36 137.23C1091.32 141.072 1091.03 144.168 1090.06 147.547C1089.09 150.95 1087.44 154.652 1084.63 159.694L1085.08 159.95C1087.9 154.892 1089.57 151.15 1090.56 147.692C1091.53 144.301 1091.82 141.194 1091.88 137.403C1093.87 137.258 1095.51 137.421 1096.83 137.935C1098.18 138.465 1099.2 139.374 1099.9 140.737C1100.6 142.108 1100.99 143.95 1101.05 146.349C1101.11 148.746 1100.85 151.682 1100.27 155.229L1100.78 155.314C1101.36 151.75 1101.63 148.778 1101.57 146.335C1101.5 143.894 1101.11 141.964 1100.36 140.497C1099.6 139.021 1098.49 138.024 1097.01 137.448C1095.59 136.889 1093.83 136.73 1091.76 136.888C1090.66 135.002 1089.57 133.752 1088.14 133.026C1086.73 132.304 1085.02 132.117 1082.72 132.274C1082.1 130.228 1081.32 128.814 1080.1 127.797C1078.87 126.769 1077.2 126.172 1074.85 125.694C1074.1 124.165 1073.4 123.021 1072.5 122.03C1071.62 121.047 1070.54 120.226 1069.05 119.324ZM1074.36 125.878C1073.63 124.395 1072.97 123.313 1072.12 122.382C1071.31 121.478 1070.31 120.706 1068.91 119.851L1068.63 120.804C1069.28 121.034 1069.9 121.396 1070.5 121.899C1071.65 122.857 1072.74 124.33 1073.9 126.377L1074.36 125.878ZM1080.53 126.506C1088.24 129.647 1094.09 131.563 1101.87 130.248L1101.96 130.763C1094.03 132.103 1088.06 130.137 1080.33 126.99L1080.53 126.506ZM1061.45 139.936C1062.53 138.246 1063.5 136.986 1065.03 135.878L1065.33 136.303C1063.88 137.354 1062.95 138.551 1061.89 140.219C1061.57 140.711 1061.25 141.244 1060.89 141.826C1060.04 143.217 1059.01 144.886 1057.59 146.923L1057.17 146.621C1058.58 144.598 1059.59 142.953 1060.44 141.566C1060.8 140.98 1061.13 140.439 1061.45 139.936Z" fill="black"/>
<path d="M1055.92 223.612C1048.23 236.326 1045.69 238.448 1038.92 251.002C1033.34 249.007 1023.4 245.782 1007.85 234.489C1014.55 222.812 1017.85 215.938 1024.01 203.493C1020.27 193.651 1020.35 187.433 1026.42 174.432C1030.39 168.654 1033.04 167.123 1038.59 167.765C1039.6 155.763 1045.27 152.415 1055.74 158.557C1063.23 157.454 1066.47 158.936 1070.75 164.83C1078.65 168.37 1080.26 170.701 1080.47 177.118C1090.12 181.943 1089.28 186.958 1080.53 198.593C1069.34 211.481 1062.44 219.919 1057.48 220.766C1057.14 222.3 1056.74 222.833 1055.92 223.612Z" fill="#950000"/>
<path fill-rule="evenodd" clip-rule="evenodd" d="M1007.51 234.562L1007.7 234.7C1022.5 245.452 1032.24 248.908 1037.96 250.94C1038.26 251.047 1038.55 251.149 1038.83 251.248L1039.04 251.323L1039.14 251.127C1042.53 244.858 1044.85 241.196 1047.29 237.512C1047.72 236.862 1048.15 236.211 1048.6 235.545C1050.67 232.439 1052.96 229.002 1056.13 223.778C1056.53 223.393 1056.85 223.049 1057.1 222.604C1057.35 222.183 1057.53 221.683 1057.69 220.991C1058.94 220.739 1060.28 220.041 1061.75 218.968C1063.29 217.844 1064.97 216.296 1066.85 214.378C1069.95 211.207 1073.59 207.004 1077.92 202C1078.82 200.956 1079.76 199.877 1080.72 198.765L1080.73 198.758L1080.73 198.751C1082.93 195.838 1084.63 193.331 1085.8 191.131C1086.97 188.933 1087.61 187.023 1087.66 185.309C1087.76 181.867 1085.47 179.354 1080.72 176.954C1080.61 173.812 1080.14 171.598 1078.7 169.734C1077.25 167.862 1074.84 166.378 1070.92 164.62C1068.78 161.692 1066.88 159.819 1064.55 158.829C1062.22 157.84 1059.51 157.746 1055.79 158.286C1050.58 155.244 1046.46 154.496 1043.49 156.128C1040.56 157.74 1038.89 161.61 1038.35 167.477C1035.68 167.196 1033.65 167.435 1031.79 168.462C1029.88 169.517 1028.2 171.387 1026.21 174.283L1026.2 174.301L1026.19 174.321C1023.15 180.832 1021.59 185.671 1021.28 190.129C1020.96 194.559 1021.88 198.588 1023.72 203.479C1023.16 204.619 1022.62 205.713 1022.1 206.767C1016.96 217.164 1013.69 223.793 1007.63 234.358L1007.51 234.562ZM1008.19 234.415C1014.19 223.954 1017.46 217.331 1022.56 207.001C1023.1 205.915 1023.65 204.787 1024.24 203.61L1024.29 203.507L1024.25 203.399C1022.38 198.497 1021.48 194.523 1021.79 190.166C1022.1 185.808 1023.62 181.043 1026.65 174.563C1028.62 171.692 1030.24 169.912 1032.04 168.92C1033.82 167.931 1035.81 167.706 1038.56 168.024L1038.82 168.055L1038.84 167.787C1039.35 161.801 1041.01 158.088 1043.74 156.586C1046.47 155.086 1050.39 155.721 1055.61 158.783L1055.69 158.829L1055.78 158.815C1059.5 158.266 1062.13 158.368 1064.35 159.31C1066.56 160.252 1068.41 162.05 1070.54 164.984L1070.58 165.04L1070.65 165.069C1074.59 166.837 1076.92 168.284 1078.29 170.056C1079.65 171.817 1080.11 173.935 1080.21 177.127L1080.22 177.283L1080.35 177.352C1085.16 179.755 1087.24 182.146 1087.14 185.294C1087.1 186.891 1086.49 188.718 1085.34 190.884C1084.19 193.046 1082.51 195.526 1080.33 198.428C1079.36 199.54 1078.43 200.618 1077.53 201.661C1073.2 206.664 1069.58 210.852 1066.48 214.011C1064.62 215.92 1062.95 217.445 1061.45 218.545C1059.94 219.646 1058.62 220.306 1057.43 220.508L1057.26 220.538L1057.23 220.709C1057.06 221.462 1056.88 221.95 1056.66 222.34C1056.43 222.73 1056.15 223.038 1055.75 223.423L1055.72 223.446L1055.7 223.476C1052.54 228.706 1050.25 232.141 1048.17 235.252C1047.73 235.919 1047.29 236.57 1046.86 237.222C1044.44 240.878 1042.13 244.515 1038.8 250.682C1038.58 250.606 1038.36 250.528 1038.14 250.448C1032.45 248.432 1022.83 245.015 1008.19 234.415Z" fill="black"/>
<path fill-rule="evenodd" clip-rule="evenodd" d="M1036.76 216.435L1029.31 232.247L1029.77 232.472L1037.23 216.66L1036.76 216.435ZM1038.01 217.699L1034.29 225.92L1034.76 226.138L1038.48 217.916L1038.01 217.699ZM1034.01 211.922C1031.22 209.928 1029.65 208.611 1026.83 205.965L1026.48 206.347C1029.31 209.006 1030.89 210.338 1033.71 212.348L1034.01 211.922ZM1052.05 219.408C1048.16 218.524 1045.98 217.805 1042.08 216.29L1041.9 216.777C1045.81 218.299 1048.02 219.026 1051.94 219.917L1052.05 219.408ZM1046.07 193.993C1045.04 190.347 1043.23 187.359 1040.21 184.147L1039.84 184.507C1042.82 187.671 1044.57 190.587 1045.57 194.135C1046.57 197.694 1046.8 201.905 1046.71 207.672L1047.22 207.681C1047.32 201.905 1047.09 197.63 1046.07 193.993ZM1036.29 182.128C1036.02 182.335 1035.76 182.477 1035.48 182.568C1035.15 182.675 1034.81 182.707 1034.4 182.709L1034.4 182.187C1034.78 182.185 1035.07 182.154 1035.32 182.071C1035.57 181.99 1035.81 181.854 1036.1 181.618L1037.02 180.682C1036.88 180.523 1036.74 180.356 1036.62 180.179C1036 179.284 1035.61 178.167 1035.38 176.805L1035.89 176.716C1036.11 178.032 1036.48 179.068 1037.04 179.879C1037.61 180.685 1038.37 181.285 1039.42 181.713C1041.53 182.577 1044.76 182.734 1049.68 182.46C1050.63 182.318 1051.5 181.649 1052.22 180.666C1052.94 179.683 1053.47 178.413 1053.74 177.138C1054.02 175.86 1054.03 174.605 1053.71 173.645C1053.41 172.698 1052.8 172.057 1051.82 171.919C1049.61 171.606 1046.08 170.583 1043.11 169.645C1041.62 169.175 1040.27 168.724 1039.29 168.391C1038.8 168.224 1038.41 168.087 1038.13 167.992C1038 167.944 1037.89 167.906 1037.82 167.881L1037.73 167.852L1037.71 167.842C1037.71 167.842 1037.71 167.842 1037.79 167.596C1037.88 167.349 1037.88 167.349 1037.88 167.35L1037.88 167.35L1037.9 167.359L1037.99 167.388C1038.06 167.413 1038.16 167.451 1038.3 167.498C1038.57 167.593 1038.97 167.73 1039.46 167.896C1040.43 168.229 1041.78 168.678 1043.26 169.147C1046.23 170.087 1049.73 171.096 1051.89 171.402C1053.11 171.574 1053.85 172.393 1054.2 173.482C1054.55 174.559 1054.54 175.915 1054.25 177.249C1053.96 178.585 1053.4 179.925 1052.64 180.976C1051.87 182.023 1050.89 182.812 1049.74 182.978L1049.73 182.98L1049.72 182.98C1048.02 183.075 1046.51 183.12 1045.17 183.101L1045.26 183.131L1045 183.942C1046.51 185.783 1047.75 186.894 1049.11 187.453C1050.42 187.993 1051.88 188.031 1053.85 187.65L1053.88 187.605C1060.8 178.114 1064.76 172.153 1068.48 165.172L1068.94 165.419C1065.23 172.385 1061.28 178.335 1054.44 187.723L1054.45 187.737C1055.41 189.929 1056.36 191.315 1057.58 192.178C1058.79 193.03 1060.31 193.397 1062.48 193.473C1065.8 191.604 1068.36 189.876 1070.84 187.413C1073.34 184.934 1075.77 181.7 1078.83 176.811L1079.27 177.09C1076.2 181.994 1073.74 185.266 1071.2 187.786C1068.71 190.257 1066.15 191.997 1062.87 193.848C1063.69 195.691 1064.62 197.073 1065.69 197.997C1066.79 198.95 1068.07 199.424 1069.58 199.398C1071.11 199.373 1072.9 198.841 1075.02 197.756C1077.13 196.672 1079.56 195.043 1082.37 192.84L1082.69 193.253C1079.86 195.467 1077.41 197.117 1075.25 198.222C1073.1 199.326 1071.23 199.893 1069.59 199.92C1067.95 199.948 1066.55 199.43 1065.35 198.394C1064.19 197.389 1063.22 195.907 1062.37 193.991C1060.21 193.907 1058.6 193.529 1057.29 192.606C1055.99 191.689 1055.01 190.258 1054.06 188.141C1051.98 188.554 1050.38 188.54 1048.92 187.936C1047.44 187.327 1046.13 186.13 1044.59 184.263C1042.9 184.32 1041.58 184.243 1040.29 183.917C1039.01 183.594 1037.79 183.029 1036.29 182.128ZM1044.52 183.743C1042.88 183.796 1041.62 183.717 1040.41 183.411C1039.24 183.113 1038.1 182.597 1036.69 181.758L1037.38 181.052C1037.89 181.523 1038.5 181.901 1039.22 182.197C1040.6 182.761 1042.4 183.032 1044.73 183.092L1044.52 183.743ZM1047.99 188.925C1054.39 194.293 1058.84 198.589 1061.39 206.139L1061.88 205.97C1059.28 198.276 1054.73 193.902 1048.32 188.524L1047.99 188.925ZM1050.62 165.578C1049.66 167.343 1049.03 168.799 1048.79 170.689L1049.3 170.754C1049.53 168.96 1050.13 167.571 1051.07 165.829C1051.35 165.316 1051.66 164.772 1052 164.177C1052.8 162.757 1053.77 161.054 1054.86 158.821L1054.4 158.588C1053.31 160.807 1052.36 162.487 1051.56 163.902C1051.22 164.501 1050.91 165.053 1050.62 165.578Z" fill="black"/>
<path d="M1041.21 56.0153C1039.66 55.9234 1038.48 55.6461 1037.68 55.1834C1036.88 54.7133 1036.38 54.0248 1036.18 53.1179C1035.95 52.0916 1036.16 51.1524 1036.82 50.3001C1037.49 49.4405 1038.47 48.8629 1039.77 48.5674C1040.65 48.3659 1041.48 48.3596 1042.24 48.5485C1043.02 48.736 1043.66 49.0911 1044.17 49.6137C1044.69 50.135 1045.03 50.7566 1045.19 51.4786L1043.49 51.8675C1043.31 51.0799 1042.93 50.5188 1042.33 50.1841C1041.73 49.8435 1040.98 49.7759 1040.08 49.9815C1039.24 50.1722 1038.63 50.5093 1038.24 50.9926C1037.86 51.4687 1037.74 52.0378 1037.89 52.7001C1038 53.2311 1038.33 53.6312 1038.85 53.9004C1039.38 54.1623 1040.21 54.3238 1041.35 54.385C1042.49 54.4448 1043.4 54.5911 1044.09 54.8241C1044.78 55.0497 1045.32 55.3742 1045.72 55.7976C1046.12 56.2197 1046.4 56.7619 1046.55 57.4242C1046.78 58.4803 1046.56 59.4202 1045.89 60.244C1045.22 61.0618 1044.2 61.6259 1042.84 61.9362C1041.95 62.1377 1041.09 62.1557 1040.24 61.9903C1039.4 61.8188 1038.7 61.4825 1038.15 60.9812C1037.6 60.4786 1037.25 59.8484 1037.08 59.0906L1038.79 58.7017C1038.96 59.4893 1039.39 60.0477 1040.06 60.3768C1040.74 60.6986 1041.56 60.75 1042.52 60.5311C1043.42 60.3269 1044.07 59.9854 1044.46 59.5067C1044.86 59.028 1044.98 58.4694 1044.84 57.831C1044.7 57.1925 1044.37 56.7507 1043.85 56.5054C1043.33 56.2541 1042.45 56.0907 1041.21 56.0153Z" fill="white"/>
<path d="M1103.75 56.6052L1098.22 55.1166L1097.02 59.6912L1103.44 61.4203L1103.08 62.8122L1094.97 60.6301L1098.36 47.7221L1106.39 49.8806L1106.02 51.2813L1099.68 49.5758L1098.59 53.7248L1104.12 55.2133L1103.75 56.6052Z" fill="white"/>
<path d="M1069.37 51.0148L1072.82 44.3087H1074.8L1070.24 52.6844V57.6658H1068.5V52.6844L1063.94 44.3087H1065.94L1069.37 51.0148Z" fill="white"/>
<path d="M1089.3 59.4215L1087.57 59.1863L1082.33 48.0912L1080.98 58.2931L1079.24 58.0579L1080.99 44.8191L1082.73 45.0543L1087.98 56.1973L1089.34 45.9499L1091.06 46.1827L1089.3 59.4215Z" fill="white"/>
<path d="M1059.17 52.2481L1053.5 53.0034L1054.11 57.6966L1060.7 56.8193L1060.89 58.2472L1052.57 59.3544L1050.84 46.1115L1059.07 45.0162L1059.26 46.4533L1052.76 47.3187L1053.31 51.5754L1058.99 50.8201L1059.17 52.2481Z" fill="white"/>
<path d="M1025.82 262.937C1025.35 264.022 1024.67 264.765 1023.79 265.164C1022.92 265.559 1021.91 265.58 1020.76 265.224C1019.52 264.839 1018.65 264.079 1018.18 262.945C1017.7 261.812 1017.69 260.49 1018.15 258.98L1018.46 257.956C1018.76 256.967 1019.2 256.151 1019.77 255.508C1020.35 254.867 1021.02 254.445 1021.78 254.244C1022.55 254.038 1023.35 254.066 1024.19 254.327C1025.31 254.673 1026.11 255.268 1026.6 256.11C1027.08 256.948 1027.21 257.942 1026.98 259.092L1025.59 258.66C1025.72 257.775 1025.65 257.079 1025.36 256.574C1025.07 256.07 1024.57 255.706 1023.84 255.482C1022.96 255.207 1022.16 255.323 1021.45 255.829C1020.75 256.337 1020.22 257.202 1019.85 258.425L1019.53 259.456C1019.18 260.611 1019.14 261.603 1019.41 262.433C1019.68 263.263 1020.25 263.811 1021.11 264.077C1021.88 264.316 1022.52 264.323 1023.04 264.099C1023.56 263.872 1024.02 263.34 1024.42 262.505L1025.82 262.937Z" fill="white"/>
<path d="M1097.95 262.039L1094.52 262.938L1096.99 272.542L1095.59 272.909L1093.12 263.304L1089.71 264.201L1089.41 263.032L1097.65 260.87L1097.95 262.039Z" fill="white"/>
<path d="M1051.76 270.075L1051.25 274.403L1049.81 274.231L1051.1 263.177L1055.13 263.657C1056.33 263.799 1057.23 264.219 1057.83 264.917C1058.44 265.616 1058.69 266.474 1058.57 267.491C1058.44 268.564 1058.01 269.352 1057.28 269.855C1056.55 270.353 1055.57 270.529 1054.33 270.382L1051.76 270.075ZM1051.9 268.883L1054.49 269.191C1055.26 269.283 1055.87 269.171 1056.32 268.856C1056.78 268.535 1057.04 268.028 1057.12 267.335C1057.2 266.677 1057.06 266.126 1056.69 265.682C1056.33 265.238 1055.79 264.966 1055.07 264.866L1052.4 264.548L1051.9 268.883Z" fill="white"/>
<path d="M1043.5 267.901L1040.96 267.388L1040.09 271.803L1038.66 271.514L1040.82 260.599L1044.39 261.322C1045.61 261.568 1046.49 262.037 1047.03 262.729C1047.57 263.421 1047.74 264.302 1047.53 265.372C1047.4 266.052 1047.1 266.607 1046.63 267.038C1046.17 267.469 1045.59 267.745 1044.89 267.863L1046.51 273.009L1046.49 273.099L1044.97 272.79L1043.5 267.901ZM1041.19 266.211L1043.38 266.653C1044.09 266.796 1044.69 266.725 1045.17 266.439C1045.67 266.154 1045.98 265.702 1046.1 265.082C1046.23 264.408 1046.13 263.85 1045.81 263.409C1045.48 262.969 1044.94 262.671 1044.19 262.514L1042.01 262.073L1041.19 266.211Z" fill="white"/>
<path d="M1075.45 271.314H1072.87V275.816H1071.41V264.685H1075.05C1076.29 264.685 1077.25 264.971 1077.91 265.542C1078.58 266.112 1078.92 266.943 1078.92 268.034C1078.92 268.727 1078.73 269.331 1078.36 269.846C1077.99 270.36 1077.48 270.745 1076.82 271L1079.4 275.725V275.816H1077.84L1075.45 271.314ZM1072.87 270.113H1075.1C1075.82 270.113 1076.39 269.925 1076.82 269.548C1077.24 269.17 1077.46 268.666 1077.46 268.034C1077.46 267.346 1077.25 266.818 1076.85 266.451C1076.44 266.084 1075.86 265.898 1075.09 265.893H1072.87V270.113Z" fill="white"/>
<path d="M1037.13 265.089C1036.9 266.154 1036.52 267.045 1035.99 267.761C1035.46 268.473 1034.83 268.964 1034.09 269.236C1033.34 269.508 1032.54 269.547 1031.67 269.353C1030.83 269.163 1030.12 268.785 1029.56 268.22C1029 267.65 1028.62 266.936 1028.43 266.078C1028.24 265.216 1028.25 264.272 1028.47 263.245L1028.64 262.461C1028.87 261.416 1029.25 260.534 1029.79 259.814C1030.32 259.093 1030.97 258.595 1031.71 258.319C1032.47 258.04 1033.27 257.995 1034.11 258.185C1034.97 258.378 1035.69 258.76 1036.25 259.33C1036.81 259.896 1037.19 260.619 1037.37 261.5C1037.55 262.375 1037.52 263.343 1037.29 264.403L1037.13 265.089ZM1035.88 264.071C1036.16 262.783 1036.12 261.738 1035.76 260.936C1035.4 260.13 1034.76 259.623 1033.84 259.416C1032.95 259.215 1032.16 259.402 1031.5 259.978C1030.83 260.549 1030.36 261.445 1030.08 262.666L1029.9 263.465C1029.63 264.713 1029.67 265.754 1030.03 266.587C1030.39 267.415 1031.03 267.932 1031.94 268.136C1032.86 268.342 1033.64 268.165 1034.29 267.606C1034.94 267.042 1035.41 266.133 1035.7 264.877L1035.88 264.071Z" fill="white"/>
<path d="M1114.83 259.783C1115.17 260.817 1115.3 261.779 1115.21 262.669C1115.13 263.554 1114.83 264.307 1114.34 264.927C1113.84 265.547 1113.17 266.001 1112.33 266.287C1111.51 266.566 1110.72 266.611 1109.95 266.422C1109.17 266.228 1108.49 265.814 1107.88 265.181C1107.28 264.541 1106.81 263.725 1106.47 262.733L1106.21 261.973C1105.88 260.958 1105.75 260.003 1105.84 259.106C1105.93 258.21 1106.23 257.449 1106.73 256.822C1107.23 256.188 1107.89 255.732 1108.71 255.452C1109.55 255.168 1110.35 255.123 1111.12 255.317C1111.9 255.505 1112.59 255.929 1113.19 256.59C1113.79 257.246 1114.26 258.088 1114.61 259.117L1114.83 259.783ZM1113.23 259.568C1112.82 258.317 1112.25 257.443 1111.53 256.945C1110.81 256.443 1110 256.344 1109.11 256.648C1108.24 256.944 1107.67 257.513 1107.39 258.355C1107.11 259.191 1107.17 260.205 1107.55 261.398L1107.81 262.173C1108.21 263.386 1108.78 264.254 1109.51 264.779C1110.25 265.298 1111.06 265.406 1111.94 265.106C1112.83 264.803 1113.41 264.243 1113.68 263.425C1113.95 262.602 1113.89 261.578 1113.49 260.351L1113.23 259.568Z" fill="white"/>
<path d="M1069.04 270.61C1069.04 271.701 1068.86 272.654 1068.5 273.469C1068.14 274.28 1067.62 274.899 1066.96 275.327C1066.29 275.755 1065.52 275.969 1064.63 275.969C1063.76 275.969 1062.99 275.755 1062.32 275.327C1061.65 274.894 1061.13 274.28 1060.76 273.485C1060.39 272.685 1060.2 271.76 1060.19 270.71V269.907C1060.19 268.837 1060.37 267.891 1060.74 267.071C1061.11 266.25 1061.63 265.623 1062.3 265.19C1062.98 264.752 1063.75 264.533 1064.61 264.533C1065.5 264.533 1066.27 264.749 1066.94 265.182C1067.62 265.61 1068.14 266.235 1068.5 267.055C1068.86 267.871 1069.04 268.821 1069.04 269.907V270.61ZM1067.6 269.892C1067.6 268.572 1067.34 267.56 1066.81 266.857C1066.29 266.148 1065.56 265.794 1064.61 265.794C1063.7 265.794 1062.97 266.148 1062.44 266.857C1061.92 267.56 1061.65 268.538 1061.63 269.792V270.61C1061.63 271.889 1061.9 272.896 1062.43 273.63C1062.96 274.359 1063.7 274.723 1064.63 274.723C1065.57 274.723 1066.29 274.379 1066.81 273.691C1067.32 272.998 1067.59 272.007 1067.6 270.717V269.892Z" fill="white"/>
<path d="M1088.02 271.552L1083.47 272.302L1082.91 275.338L1081.43 275.581L1083.81 263.912L1085.07 263.705L1090.99 274.007L1089.52 274.249L1088.02 271.552ZM1083.71 271.039L1087.41 270.43L1084.73 265.597L1083.71 271.039Z" fill="white"/>
<path d="M1127.35 259.336L1126.06 260.026L1117.19 255.069L1121.16 262.649L1119.87 263.34L1114.72 253.504L1116.01 252.813L1124.91 257.797L1120.92 250.183L1122.19 249.499L1127.35 259.336Z" fill="white"/>
<path d="M1105.78 269.331L1104.39 269.746L1101.27 259.069L1102.66 258.654L1105.78 269.331Z" fill="white"/>
</g>
<g opacity="0.5">
<g filter="url(#filter13_b)">
<path d="M904.372 488.684C888.991 489.72 879.629 496.132 862.641 510.736M904.481 487.68C885.687 485.505 875.174 490.925 856.431 502.522M904.739 486.176C887.413 482.028 875.428 484.237 851.637 493.003" stroke="black" stroke-width="3" stroke-linecap="round"/>
</g>
<g filter="url(#filter14_b)">
<path d="M940.99 494.982C955.141 501.097 961.823 510.269 972.956 529.709M941.223 493.999C959.664 498.228 967.762 506.849 981.553 524.042M941.482 492.496C959.199 494.374 969.757 500.461 989.253 516.671" stroke="black" stroke-width="3" stroke-linecap="round"/>
</g>
<path fill-rule="evenodd" clip-rule="evenodd" d="M888.332 439.819C907.11 439.504 917.43 444.823 912.644 459.384C912.697 458.339 912.493 457.767 911.691 456.792C898.54 458.357 894.442 453.654 894.02 442.269C893.142 440.833 891.59 440.406 888.332 439.819ZM896.809 446.643C896.279 445.899 896.108 446.074 896.255 446.957C898.091 454.006 901.358 456.433 908 453.526C908.821 453.167 908.589 452.796 907.826 452.951C901.205 454.678 899.034 451.975 896.809 446.643Z" fill="#252324"/>
<ellipse cx="900.983" cy="447.097" rx="1.56906" ry="1.5191" transform="rotate(9.75878 900.983 447.097)" fill="#0594A7"/>
<path fill-rule="evenodd" clip-rule="evenodd" d="M995.274 456.875C996.36 474.664 991.37 484.658 974.941 502.514C978.749 493.196 977.151 489.659 969.731 485.42C964.416 482.711 961.195 481.393 954.876 479.515C940.084 473.538 935.689 468.635 938.529 455.631C939.734 433.557 932.465 421.553 909.324 418.339C900.138 415.549 898.206 412.107 897.339 404.464C896.14 385.184 894.045 376.502 883.308 368.293C879.43 365.843 876.136 366.351 873.882 370.87C867.671 380.772 866.903 391.676 870.342 409.695C866.674 422.109 866.506 428.269 869.468 437.846C865.158 445.958 865.206 452.181 867.641 464.878C863.249 454.385 862.363 448.3 866.024 436.773C863.275 426.132 863.485 420.279 866.203 409.989C863.809 385.717 865.095 375.495 873.221 364.775C876.558 361.662 878.694 361.482 882.662 362.099C893.258 369.066 898.448 377.067 904.558 386.486L904.558 386.486C906.473 389.438 908.478 392.529 910.769 395.772C931.883 390.502 943.818 392.216 965.281 403.882C978.797 391.719 986.489 386.89 1000.42 381.972C1007.19 381.508 1009.28 382.849 1011.05 387.089C1015.21 406.611 1012.21 418.985 998.959 443.167C996.385 448.234 995.645 451.253 995.274 456.875ZM998.476 436.23C993.199 441.107 989.786 438.799 988.783 430.596C988.052 428.016 986.329 427.305 981.047 427.282C971.709 432.064 963.824 416.45 973.419 406.754C983.919 395.654 990.036 391.073 1001.56 387.295C1004.61 386.675 1005.82 387.258 1006.98 390.169C1009.13 406.545 1007.17 416.229 998.476 436.23ZM966.836 455.544C967.696 454.665 968.052 454.872 967.643 456.17C961.03 466.457 955.243 469.635 944.81 463.515C943.727 462.686 944.037 462.319 945.209 462.791C955.239 467.551 960.388 465.402 966.836 455.544ZM961.479 458.014C961.912 457.231 961.81 457.009 961.062 457.533C957.184 461.815 954.234 463.638 948.571 459.798C947.903 459.397 947.56 459.669 948.215 460.282C953.503 465.241 957.394 464.045 961.479 458.014ZM969.992 454.657C951.96 449.917 945.713 451.696 942.655 464.188C942.51 465.026 942.142 464.998 942.094 464.091C942.524 449.933 952.679 445.422 970.569 453.998C971.825 454.6 971.535 455.169 969.992 454.657Z" fill="#252324"/>
<ellipse cx="950.778" cy="455.575" rx="1.48322" ry="1.4889" transform="rotate(9.75878 950.778 455.575)" fill="#0594A7"/>
<path d="M921.419 499.367C921.328 498.571 921.384 497.951 921.603 496.656C921.424 496.328 921.285 496.28 920.937 496.541C920.8 497.601 920.666 498.199 920.204 499.277C915.575 502.988 909.151 502.795 903.684 498.844C909.007 504.001 914.111 503.99 920.644 502.232C925.413 506.621 932.287 507.14 937.344 504.633C931.086 506.668 924.212 504.652 921.419 499.367Z" fill="#252324"/>
<path d="M931.869 488.888C934.029 487.918 932.843 483.222 934.956 470.939C934.668 467.056 933.138 481.509 931.466 486.981C929.7 485.429 928.353 485.126 925.455 485.371C923.699 485.547 922.636 485.356 920.61 484.537C918.383 483.396 917.06 483.348 914.598 484.08C916.027 478.015 917.79 465.2 916.897 467.602C915.7 477.669 911.762 483.592 913.686 486.269C916.634 488.943 919.387 490.561 918.546 492.948C919.339 494.275 919.778 494.996 921.483 495.899C923.029 495.68 923.779 495.149 925.053 493.978C924.595 491.51 928.945 491.488 931.869 488.888Z" fill="#252324"/>
</g>
<g opacity="0.5">
<g filter="url(#filter15_b)">
<path d="M227.816 192.292C212.236 197.353 204.254 206.391 190.541 225.85M227.668 191.23C207.737 193.867 198.312 202.182 182.009 218.998M227.544 189.613C208.613 189.837 196.837 195.225 174.598 210.434" stroke="black" stroke-width="3" stroke-linecap="round"/>
</g>
<g filter="url(#filter16_b)">
<path d="M267.183 189.275C283.352 191.902 292.618 199.618 309.138 216.759M267.168 188.202C287.268 187.771 297.85 194.552 316.525 208.687M267.044 186.585C285.788 183.921 298.247 187.451 322.545 199.094" stroke="black" stroke-width="3" stroke-linecap="round"/>
</g>
<path fill-rule="evenodd" clip-rule="evenodd" d="M198.601 146.105C217.869 140.905 229.884 143.707 228.733 159.954C228.516 158.863 228.157 158.326 227.078 157.529C213.933 162.557 208.49 158.775 205.098 147.153C203.82 145.901 202.111 145.864 198.601 146.105ZM209.108 150.936C208.369 150.307 208.238 150.532 208.618 151.403C212.34 158.19 216.337 159.843 222.426 155.123C223.179 154.54 222.844 154.218 222.097 154.575C215.724 158.074 212.785 155.852 209.108 150.936Z" fill="#252324"/>
<ellipse cx="213.527" cy="150.32" rx="1.66732" ry="1.61424" transform="rotate(-4.38329 213.527 150.32)" fill="#A70505"/>
<path fill-rule="evenodd" clip-rule="evenodd" d="M313.224 135.916C318.962 153.963 316.415 165.557 304.122 188.222C305.627 177.631 303.062 174.402 294.315 171.96C288.136 170.548 284.474 170.026 277.476 169.732C260.682 167.414 254.88 163.502 254.431 149.366C249.941 126.307 239.334 115.825 214.655 118.522C204.466 118.032 201.581 114.987 198.703 107.336C192.462 87.781 188.049 79.379 174.855 73.7077C170.222 72.1906 166.96 73.5692 165.81 78.8108C161.981 90.6263 164.022 102.061 172.243 119.736C171.686 133.48 173.113 139.871 178.651 148.97C176.317 158.448 177.982 164.848 183.787 177.299C176.537 167.626 174.044 161.587 174.824 148.759C169.229 138.507 167.925 132.422 168.055 121.113C159.286 96.7246 157.958 85.8572 163.547 72.7022C166.177 68.6276 168.331 67.8877 172.58 67.4929C185.308 71.9208 192.733 78.8179 201.474 86.9369L201.474 86.937C204.214 89.4817 207.083 92.1464 210.284 94.8928C230.672 83.9808 243.416 82.6488 268.56 89.0973C279.33 73.0549 286.002 66.082 299.078 57.3979C305.932 55.1624 308.436 56.0009 311.36 59.9106C320.717 78.9466 320.833 92.4768 313.463 120.833C312.126 126.723 312.147 130.026 313.224 135.916ZM311.164 113.811C306.993 120.206 302.877 118.714 299.713 110.522C298.29 108.053 296.331 107.768 290.881 109.115C282.501 116.467 270.322 102.426 277.692 89.9432C285.63 75.7797 290.743 69.4708 301.638 62.5857C304.617 61.1563 306.016 61.4427 307.965 64.1412C314.432 80.4576 314.928 90.9444 311.164 113.811ZM283.576 141.926C284.234 140.798 284.654 140.918 284.57 142.362C280.426 154.679 275.289 159.456 262.95 155.858C261.618 155.286 261.842 154.827 263.173 155.009C274.743 157.31 279.492 153.759 283.576 141.926ZM278.698 145.863C278.941 144.944 278.777 144.741 278.142 145.475C275.258 150.895 272.692 153.539 265.86 151.052C265.067 150.813 264.785 151.182 265.618 151.644C272.355 155.38 276.054 153.138 278.698 145.863ZM286.598 140.194C266.787 139.991 260.812 143.445 260.903 157.112C260.972 158.013 260.586 158.08 260.3 157.158C257.068 142.457 266.361 135.173 287.021 139.364C288.471 139.659 288.32 140.32 286.598 140.194Z" fill="#252324"/>
<ellipse cx="267.038" cy="146.128" rx="1.5761" ry="1.58214" transform="rotate(-4.38329 267.038 146.128)" fill="#A70505"/>
<path d="M248.155 198.874C247.855 198.077 247.752 197.424 247.641 196.033C247.371 195.742 247.215 195.728 246.924 196.088C247.059 197.215 247.076 197.866 246.88 199.097C243.073 204.123 236.404 205.592 229.745 202.94C236.569 206.872 241.825 205.535 248.101 202.028C254.154 205.312 261.371 204.062 265.931 200.166C260.011 203.888 252.405 203.595 248.155 198.874Z" fill="#252324"/>
<path d="M256.202 185.364C258.176 183.803 255.735 179.272 254.723 166.067C253.418 162.14 255.594 177.43 255.292 183.503C253.069 182.362 251.603 182.4 248.68 183.404C246.916 184.043 245.771 184.121 243.471 183.804C240.88 183.205 239.504 183.5 237.157 184.893C237.056 178.272 235.545 164.61 235.248 167.317C236.629 178.001 234.109 185.126 236.786 187.385C240.519 189.375 243.775 190.328 243.528 193.006C244.69 194.167 245.329 194.797 247.32 195.284C248.857 194.658 249.492 193.916 250.5 192.379C249.388 189.954 253.865 188.802 256.202 185.364Z" fill="#252324"/>
</g>
</g>
<defs>
<filter id="filter0_d" x="85.4998" y="56.5534" width="23.0179" height="20.9092" filterUnits="userSpaceOnUse" color-interpolation-filters="sRGB">
<feFlood flood-opacity="0" result="BackgroundImageFix"/>
<feColorMatrix in="SourceAlpha" type="matrix" values="0 0 0 0 0 0 0 0 0 0 0 0 0 0 0 0 0 0 127 0"/>
<feOffset dy="4"/>
<feGaussianBlur stdDeviation="2"/>
<feColorMatrix type="matrix" values="0 0 0 0 0 0 0 0 0 0 0 0 0 0 0 0 0 0 0.3 0"/>
<feBlend mode="normal" in2="BackgroundImageFix" result="effect1_dropShadow"/>
<feBlend mode="normal" in="SourceGraphic" in2="effect1_dropShadow" result="shape"/>
</filter>
<filter id="filter1_d" x="602.771" y="138.986" width="28.7489" height="25.9361" filterUnits="userSpaceOnUse" color-interpolation-filters="sRGB">
<feFlood flood-opacity="0" result="BackgroundImageFix"/>
<feColorMatrix in="SourceAlpha" type="matrix" values="0 0 0 0 0 0 0 0 0 0 0 0 0 0 0 0 0 0 127 0"/>
<feOffset dy="4"/>
<feGaussianBlur stdDeviation="2"/>
<feColorMatrix type="matrix" values="0 0 0 0 0 0 0 0 0 0 0 0 0 0 0 0 0 0 0.3 0"/>
<feBlend mode="normal" in2="BackgroundImageFix" result="effect1_dropShadow"/>
<feBlend mode="normal" in="SourceGraphic" in2="effect1_dropShadow" result="shape"/>
</filter>
<filter id="filter2_d" x="1108.07" y="220.045" width="27.7419" height="25.6493" filterUnits="userSpaceOnUse" color-interpolation-filters="sRGB">
<feFlood flood-opacity="0" result="BackgroundImageFix"/>
<feColorMatrix in="SourceAlpha" type="matrix" values="0 0 0 0 0 0 0 0 0 0 0 0 0 0 0 0 0 0 127 0"/>
<feOffset dy="4"/>
<feGaussianBlur stdDeviation="2"/>
<feColorMatrix type="matrix" values="0 0 0 0 0 0 0 0 0 0 0 0 0 0 0 0 0 0 0.3 0"/>
<feBlend mode="normal" in2="BackgroundImageFix" result="effect1_dropShadow"/>
<feBlend mode="normal" in="SourceGraphic" in2="effect1_dropShadow" result="shape"/>
</filter>
<filter id="filter3_d" x="335.481" y="248.361" width="24.8319" height="23.0002" filterUnits="userSpaceOnUse" color-interpolation-filters="sRGB">
<feFlood flood-opacity="0" result="BackgroundImageFix"/>
<feColorMatrix in="SourceAlpha" type="matrix" values="0 0 0 0 0 0 0 0 0 0 0 0 0 0 0 0 0 0 127 0"/>
<feOffset dy="4"/>
<feGaussianBlur stdDeviation="2"/>
<feColorMatrix type="matrix" values="0 0 0 0 0 0 0 0 0 0 0 0 0 0 0 0 0 0 0.3 0"/>
<feBlend mode="normal" in2="BackgroundImageFix" result="effect1_dropShadow"/>
<feBlend mode="normal" in="SourceGraphic" in2="effect1_dropShadow" result="shape"/>
</filter>
<filter id="filter4_d" x="507.989" y="359.78" width="35.4034" height="28.0283" filterUnits="userSpaceOnUse" color-interpolation-filters="sRGB">
<feFlood flood-opacity="0" result="BackgroundImageFix"/>
<feColorMatrix in="SourceAlpha" type="matrix" values="0 0 0 0 0 0 0 0 0 0 0 0 0 0 0 0 0 0 127 0"/>
<feOffset dy="4"/>
<feGaussianBlur stdDeviation="2"/>
<feColorMatrix type="matrix" values="0 0 0 0 0 0 0 0 0 0 0 0 0 0 0 0 0 0 0.3 0"/>
<feBlend mode="normal" in2="BackgroundImageFix" result="effect1_dropShadow"/>
<feBlend mode="normal" in="SourceGraphic" in2="effect1_dropShadow" result="shape"/>
</filter>
<filter id="filter5_d" x="818.747" y="251.331" width="32.7666" height="26.9855" filterUnits="userSpaceOnUse" color-interpolation-filters="sRGB">
<feFlood flood-opacity="0" result="BackgroundImageFix"/>
<feColorMatrix in="SourceAlpha" type="matrix" values="0 0 0 0 0 0 0 0 0 0 0 0 0 0 0 0 0 0 127 0"/>
<feOffset dy="4"/>
<feGaussianBlur stdDeviation="2"/>
<feColorMatrix type="matrix" values="0 0 0 0 0 0 0 0 0 0 0 0 0 0 0 0 0 0 0.3 0"/>
<feBlend mode="normal" in2="BackgroundImageFix" result="effect1_dropShadow"/>
<feBlend mode="normal" in="SourceGraphic" in2="effect1_dropShadow" result="shape"/>
</filter>
<filter id="filter6_d" x="351.385" y="501.428" width="30.0622" height="24.5085" filterUnits="userSpaceOnUse" color-interpolation-filters="sRGB">
<feFlood flood-opacity="0" result="BackgroundImageFix"/>
<feColorMatrix in="SourceAlpha" type="matrix" values="0 0 0 0 0 0 0 0 0 0 0 0 0 0 0 0 0 0 127 0"/>
<feOffset dy="4"/>
<feGaussianBlur stdDeviation="2"/>
<feColorMatrix type="matrix" values="0 0 0 0 0 0 0 0 0 0 0 0 0 0 0 0 0 0 0.3 0"/>
<feBlend mode="normal" in2="BackgroundImageFix" result="effect1_dropShadow"/>
<feBlend mode="normal" in="SourceGraphic" in2="effect1_dropShadow" result="shape"/>
</filter>
<filter id="filter7_d" x="721.954" y="509.699" width="34.9445" height="27.6828" filterUnits="userSpaceOnUse" color-interpolation-filters="sRGB">
<feFlood flood-opacity="0" result="BackgroundImageFix"/>
<feColorMatrix in="SourceAlpha" type="matrix" values="0 0 0 0 0 0 0 0 0 0 0 0 0 0 0 0 0 0 127 0"/>
<feOffset dy="4"/>
<feGaussianBlur stdDeviation="2"/>
<feColorMatrix type="matrix" values="0 0 0 0 0 0 0 0 0 0 0 0 0 0 0 0 0 0 0.3 0"/>
<feBlend mode="normal" in2="BackgroundImageFix" result="effect1_dropShadow"/>
<feBlend mode="normal" in="SourceGraphic" in2="effect1_dropShadow" result="shape"/>
</filter>
<filter id="filter8_d" x="1058.05" y="408.687" width="22.2496" height="20.1013" filterUnits="userSpaceOnUse" color-interpolation-filters="sRGB">
<feFlood flood-opacity="0" result="BackgroundImageFix"/>
<feColorMatrix in="SourceAlpha" type="matrix" values="0 0 0 0 0 0 0 0 0 0 0 0 0 0 0 0 0 0 127 0"/>
<feOffset dy="4"/>
<feGaussianBlur stdDeviation="2"/>
<feColorMatrix type="matrix" values="0 0 0 0 0 0 0 0 0 0 0 0 0 0 0 0 0 0 0.3 0"/>
<feBlend mode="normal" in2="BackgroundImageFix" result="effect1_dropShadow"/>
<feBlend mode="normal" in="SourceGraphic" in2="effect1_dropShadow" result="shape"/>
</filter>
<filter id="filter9_d" x="355.972" y="652.432" width="30.2269" height="26.1832" filterUnits="userSpaceOnUse" color-interpolation-filters="sRGB">
<feFlood flood-opacity="0" result="BackgroundImageFix"/>
<feColorMatrix in="SourceAlpha" type="matrix" values="0 0 0 0 0 0 0 0 0 0 0 0 0 0 0 0 0 0 127 0"/>
<feOffset dy="4"/>
<feGaussianBlur stdDeviation="2"/>
<feColorMatrix type="matrix" values="0 0 0 0 0 0 0 0 0 0 0 0 0 0 0 0 0 0 0.3 0"/>
<feBlend mode="normal" in2="BackgroundImageFix" result="effect1_dropShadow"/>
<feBlend mode="normal" in="SourceGraphic" in2="effect1_dropShadow" result="shape"/>
</filter>
<filter id="filter10_d" x="724.752" y="578.176" width="25.7141" height="21.2251" filterUnits="userSpaceOnUse" color-interpolation-filters="sRGB">
<feFlood flood-opacity="0" result="BackgroundImageFix"/>
<feColorMatrix in="SourceAlpha" type="matrix" values="0 0 0 0 0 0 0 0 0 0 0 0 0 0 0 0 0 0 127 0"/>
<feOffset dy="4"/>
<feGaussianBlur stdDeviation="2"/>
<feColorMatrix type="matrix" values="0 0 0 0 0 0 0 0 0 0 0 0 0 0 0 0 0 0 0.3 0"/>
<feBlend mode="normal" in2="BackgroundImageFix" result="effect1_dropShadow"/>
<feBlend mode="normal" in="SourceGraphic" in2="effect1_dropShadow" result="shape"/>
</filter>
<filter id="filter11_d" x="1078.02" y="596.998" width="23.0662" height="19.0613" filterUnits="userSpaceOnUse" color-interpolation-filters="sRGB">
<feFlood flood-opacity="0" result="BackgroundImageFix"/>
<feColorMatrix in="SourceAlpha" type="matrix" values="0 0 0 0 0 0 0 0 0 0 0 0 0 0 0 0 0 0 127 0"/>
<feOffset dy="4"/>
<feGaussianBlur stdDeviation="2"/>
<feColorMatrix type="matrix" values="0 0 0 0 0 0 0 0 0 0 0 0 0 0 0 0 0 0 0.3 0"/>
<feBlend mode="normal" in2="BackgroundImageFix" result="effect1_dropShadow"/>
<feBlend mode="normal" in="SourceGraphic" in2="effect1_dropShadow" result="shape"/>
</filter>
<filter id="filter12_d" x="777.281" y="634.24" width="461.256" height="49.8643" filterUnits="userSpaceOnUse" color-interpolation-filters="sRGB">
<feFlood flood-opacity="0" result="BackgroundImageFix"/>
<feColorMatrix in="SourceAlpha" type="matrix" values="0 0 0 0 0 0 0 0 0 0 0 0 0 0 0 0 0 0 127 0"/>
<feOffset dx="4" dy="5"/>
<feGaussianBlur stdDeviation="2"/>
<feColorMatrix type="matrix" values="0 0 0 0 1 0 0 0 0 1 0 0 0 0 1 0 0 0 0.4 0"/>
<feBlend mode="normal" in2="BackgroundImageFix" result="effect1_dropShadow"/>
<feBlend mode="normal" in="SourceGraphic" in2="effect1_dropShadow" result="shape"/>
</filter>
<filter id="filter13_b" x="843.258" y="471.59" width="67.3078" height="51.2165" filterUnits="userSpaceOnUse" color-interpolation-filters="sRGB">
<feFlood flood-opacity="0" result="BackgroundImageFix"/>
<feGaussianBlur in="BackgroundImage" stdDeviation="2"/>
<feComposite in2="SourceAlpha" operator="in" result="effect1_backgroundBlur"/>
<feBlend mode="normal" in="SourceGraphic" in2="effect1_backgroundBlur" result="shape"/>
</filter>
<filter id="filter14_b" x="930.375" y="486.573" width="67.3078" height="51.2165" filterUnits="userSpaceOnUse" color-interpolation-filters="sRGB">
<feFlood flood-opacity="0" result="BackgroundImageFix"/>
<feGaussianBlur in="BackgroundImage" stdDeviation="2"/>
<feComposite in2="SourceAlpha" operator="in" result="effect1_backgroundBlur"/>
<feBlend mode="normal" in="SourceGraphic" in2="effect1_backgroundBlur" result="shape"/>
</filter>
<filter id="filter15_b" x="167.695" y="183.805" width="68.0713" height="48.7802" filterUnits="userSpaceOnUse" color-interpolation-filters="sRGB">
<feFlood flood-opacity="0" result="BackgroundImageFix"/>
<feGaussianBlur in="BackgroundImage" stdDeviation="2"/>
<feComposite in2="SourceAlpha" operator="in" result="effect1_backgroundBlur"/>
<feBlend mode="normal" in="SourceGraphic" in2="effect1_backgroundBlur" result="shape"/>
</filter>
<filter id="filter16_b" x="261.352" y="176.626" width="68.0713" height="48.7802" filterUnits="userSpaceOnUse" color-interpolation-filters="sRGB">
<feFlood flood-opacity="0" result="BackgroundImageFix"/>
<feGaussianBlur in="BackgroundImage" stdDeviation="2"/>
<feComposite in2="SourceAlpha" operator="in" result="effect1_backgroundBlur"/>
<feBlend mode="normal" in="SourceGraphic" in2="effect1_backgroundBlur" result="shape"/>
</filter>
<clipPath id="clip0">
<rect width="1280" height="720" fill="white" transform="translate(0.737305)"/>
</clipPath>
</defs>
</svg>
