<svg width="415" height="736" viewBox="0 0 415 736" fill="none" xmlns="http://www.w3.org/2000/svg">
<g clip-path="url(#clip0)">
<rect width="414" height="736" transform="translate(0.263)" fill="#3C576A"/>
<g opacity="0.78">
<path d="M366.232 128.646C366.232 157.43 342.898 180.764 314.114 180.764C285.331 180.764 261.997 157.43 261.997 128.646C261.997 99.8625 285.331 76.5286 314.114 76.5286C342.898 76.5286 366.232 99.8625 366.232 128.646Z" fill="#4E4949"/>
<path fill-rule="evenodd" clip-rule="evenodd" d="M314.114 178.57C341.722 178.57 364.062 156.196 364.062 128.646C364.062 101.097 341.722 78.7231 314.114 78.7231C286.507 78.7231 264.167 101.097 264.167 128.646C264.167 156.196 286.507 178.57 314.114 178.57ZM314.114 180.764C342.898 180.764 366.232 157.43 366.232 128.646C366.232 99.8625 342.898 76.5286 314.114 76.5286C285.331 76.5286 261.997 99.8625 261.997 128.646C261.997 157.43 285.331 180.764 314.114 180.764Z" fill="black"/>
<path d="M355.809 128.646C355.809 151.674 337.141 170.341 314.114 170.341C291.087 170.341 272.42 151.674 272.42 128.646C272.42 105.619 291.087 86.9522 314.114 86.9522C337.141 86.9522 355.809 105.619 355.809 128.646Z" fill="#525252"/>
<path fill-rule="evenodd" clip-rule="evenodd" d="M314.114 169.024C336.436 169.024 354.506 150.933 354.506 128.646C354.506 106.36 336.436 88.2689 314.114 88.2689C291.793 88.2689 273.722 106.36 273.722 128.646C273.722 150.933 291.793 169.024 314.114 169.024ZM314.114 170.341C337.141 170.341 355.809 151.674 355.809 128.646C355.809 105.619 337.141 86.9522 314.114 86.9522C291.087 86.9522 272.42 105.619 272.42 128.646C272.42 151.674 291.087 170.341 314.114 170.341Z" fill="black"/>
<path d="M333.166 110.727C336.281 105.308 337.289 102.834 340.79 98.1244C336.473 94.6366 334.322 92.772 328.354 90.8298C325.419 95.6683 322.751 98.0177 319.427 102.808C315.079 103.375 312.819 104.647 309.276 109.518C307.954 112.156 307.923 113.454 309.266 115.4C305.076 118.175 304.985 120.967 309.324 123.656C310.416 126.677 311.606 127.593 314.618 128.017C317.493 130.267 318.666 130.401 321.057 129.197C324.75 131.844 326.419 130.529 328.927 124.93C331.408 118.169 333.117 113.902 332.435 111.877C332.929 111.444 333.044 111.188 333.166 110.727Z" fill="#0116D1"/>
<path fill-rule="evenodd" clip-rule="evenodd" d="M328.306 90.699L328.388 90.7254C334.129 92.5941 336.355 94.3954 340.337 97.6171C340.507 97.755 340.681 97.8955 340.858 98.0387L340.941 98.1052L340.877 98.1903C338.355 101.582 337.132 103.809 335.475 106.823C334.836 107.984 334.134 109.262 333.268 110.769C333.207 110.997 333.145 111.184 333.033 111.37C332.928 111.545 332.781 111.713 332.561 111.912C332.718 112.429 332.731 113.071 332.631 113.834C332.527 114.633 332.298 115.575 331.971 116.659C331.43 118.454 330.619 120.654 329.653 123.273C329.451 123.82 329.243 124.384 329.029 124.968L329.028 124.971L329.026 124.975C328.398 126.377 327.821 127.515 327.249 128.391C326.678 129.267 326.108 129.89 325.491 130.251C324.252 130.976 322.875 130.622 321.047 129.325C319.874 129.909 318.971 130.178 318.001 130.01C317.026 129.842 316.001 129.236 314.575 128.122C313.077 127.909 312.011 127.57 311.183 126.896C310.356 126.223 309.78 125.227 309.235 123.729C307.081 122.387 305.984 120.995 305.988 119.56C305.992 118.141 307.074 116.741 309.114 115.37C308.478 114.427 308.159 113.618 308.164 112.718C308.169 111.794 308.517 110.791 309.179 109.468L309.183 109.46L309.189 109.453C310.963 107.013 312.423 105.465 313.991 104.456C315.55 103.454 317.207 102.99 319.366 102.705C320.789 100.658 322.093 99.0549 323.347 97.5136C323.55 97.2638 323.752 97.0157 323.953 96.7675C325.401 94.9779 326.798 93.1854 328.262 90.7725L328.306 90.699ZM328.402 90.9607C326.947 93.3493 325.557 95.1324 324.121 96.9065C323.919 97.1552 323.717 97.4037 323.514 97.6537C322.252 99.2049 320.945 100.812 319.516 102.871L319.489 102.91L319.441 102.916C317.275 103.199 315.641 103.656 314.108 104.641C312.575 105.627 311.135 107.148 309.369 109.575C308.712 110.887 308.385 111.85 308.381 112.719C308.376 113.585 308.691 114.374 309.355 115.337L309.419 115.429L309.326 115.491C307.236 116.876 306.209 118.239 306.205 119.561C306.201 120.88 307.217 122.222 309.381 123.562L309.413 123.582L309.426 123.618C309.97 125.122 310.532 126.084 311.319 126.725C312.107 127.366 313.134 127.697 314.634 127.909L314.662 127.913L314.685 127.931C316.121 129.054 317.115 129.635 318.037 129.794C318.954 129.952 319.819 129.698 321.008 129.099L321.067 129.07L321.12 129.108C322.959 130.426 324.249 130.724 325.382 130.061C325.957 129.724 326.505 129.134 327.068 128.271C327.63 127.409 328.201 126.284 328.827 124.888C329.041 124.304 329.249 123.74 329.45 123.194C330.416 120.575 331.225 118.383 331.763 116.595C332.089 115.515 332.314 114.587 332.416 113.806C332.518 113.023 332.495 112.395 332.333 111.912L332.309 111.842L332.364 111.794C332.607 111.581 332.75 111.418 332.848 111.255C332.946 111.093 333.002 110.926 333.062 110.699L333.066 110.684L333.073 110.672C333.938 109.167 334.641 107.888 335.28 106.725C336.926 103.731 338.152 101.501 340.64 98.1437C340.492 98.0235 340.346 97.9053 340.202 97.7889C336.245 94.5868 334.046 92.8075 328.402 90.9607Z" fill="black"/>
<path fill-rule="evenodd" clip-rule="evenodd" d="M326.711 104.992L331.008 99.0456L331.184 99.175L326.886 105.122L326.711 104.992ZM327.423 105.208L329.688 102.172L329.861 102.304L327.597 105.34L327.423 105.208ZM324.509 104.864C323.222 104.218 322.427 103.895 320.896 103.37L320.966 103.162C322.504 103.69 323.308 104.016 324.606 104.667L324.509 104.864ZM330.854 110.118C329.753 108.839 329.054 108.167 327.721 107.012L327.863 106.846C329.201 108.006 329.908 108.685 331.018 109.974L330.854 110.118ZM320.358 112.957C318.819 113.303 317.365 113.223 315.586 112.735L315.642 112.523C317.395 113.004 318.813 113.079 320.311 112.743C321.813 112.405 323.401 111.652 325.491 110.463L325.598 110.654C323.504 111.845 321.893 112.612 320.358 112.957ZM314.063 111.671C314.085 111.528 314.085 111.404 314.063 111.28C314.036 111.136 313.979 111.001 313.898 110.847L313.706 110.95C313.783 111.096 313.828 111.208 313.849 111.321C313.87 111.43 313.867 111.547 313.838 111.7L313.679 112.232C313.593 112.211 313.505 112.195 313.416 112.184C312.964 112.13 312.478 112.208 311.933 112.393L312.002 112.601C312.529 112.422 312.981 112.353 313.391 112.402C313.798 112.451 314.17 112.617 314.536 112.923C315.274 113.54 315.977 114.717 316.859 116.612C316.997 116.997 316.928 117.457 316.711 117.922C316.494 118.386 316.136 118.84 315.724 119.197C315.312 119.555 314.853 119.808 314.44 119.883C314.032 119.957 313.676 119.858 313.431 119.521C312.874 118.756 311.793 117.638 310.857 116.715C310.388 116.253 309.953 115.838 309.636 115.538C309.477 115.389 309.348 115.268 309.258 115.184C309.213 115.143 309.178 115.11 309.155 115.088L309.128 115.063L309.118 115.055C309.118 115.055 309.118 115.055 309.045 115.136C308.972 115.217 308.972 115.217 308.972 115.217L308.973 115.218L308.981 115.226L309.008 115.25C309.032 115.272 309.067 115.304 309.111 115.346C309.201 115.429 309.33 115.549 309.488 115.699C309.805 115.997 310.238 116.411 310.706 116.872C311.644 117.796 312.712 118.903 313.256 119.651C313.561 120.071 314.009 120.184 314.478 120.099C314.942 120.015 315.435 119.737 315.866 119.364C316.297 118.989 316.676 118.511 316.907 118.015C317.138 117.521 317.229 116.994 317.062 116.532L317.06 116.528L317.058 116.523C316.754 115.87 316.469 115.297 316.194 114.8L316.223 114.827L316.467 114.566C317.443 114.765 318.098 115.007 318.573 115.403C319.033 115.785 319.337 116.321 319.592 117.136L319.582 117.157C317.492 121.643 316.102 124.315 314.29 127.1L314.471 127.221C316.279 124.441 317.668 121.776 319.736 117.342L319.743 117.341C320.739 117.266 321.435 117.343 321.995 117.628C322.549 117.91 322.986 118.404 323.447 119.2C323.426 120.816 323.305 122.118 322.9 123.538C322.492 124.969 321.795 126.526 320.617 128.646L320.806 128.753C321.988 126.626 322.694 125.053 323.108 123.599C323.515 122.173 323.64 120.867 323.663 119.273C324.501 119.212 325.191 119.28 325.743 119.496C326.313 119.719 326.741 120.102 327.035 120.675C327.331 121.251 327.493 122.026 327.519 123.034C327.545 124.042 327.435 125.277 327.19 126.768L327.404 126.804C327.65 125.305 327.763 124.056 327.736 123.029C327.71 122.002 327.544 121.191 327.228 120.574C326.909 119.953 326.441 119.534 325.822 119.292C325.221 119.057 324.485 118.99 323.615 119.056C323.151 118.263 322.692 117.738 322.093 117.432C321.497 117.129 320.779 117.05 319.813 117.116C319.549 116.256 319.225 115.661 318.711 115.234C318.193 114.802 317.493 114.551 316.503 114.35C316.187 113.707 315.893 113.226 315.517 112.809C315.143 112.396 314.691 112.05 314.063 111.671ZM316.299 114.427C315.99 113.803 315.71 113.348 315.356 112.957C315.013 112.577 314.596 112.252 314.007 111.893L313.887 112.294C314.161 112.39 314.421 112.542 314.674 112.754C315.156 113.157 315.615 113.776 316.103 114.637L316.299 114.427ZM318.889 114.691C322.131 116.012 324.592 116.817 327.865 116.264L327.901 116.481C324.566 117.044 322.057 116.218 318.808 114.894L318.889 114.691ZM310.87 120.338C311.325 119.627 311.73 119.097 312.374 118.632L312.5 118.81C311.889 119.252 311.501 119.756 311.052 120.457C310.92 120.664 310.783 120.888 310.633 121.133C310.274 121.718 309.843 122.419 309.245 123.276L309.068 123.149C309.662 122.298 310.086 121.607 310.444 121.023C310.595 120.777 310.735 120.55 310.87 120.338Z" fill="black"/>
<path d="M308.545 155.522C305.308 160.868 304.242 161.76 301.394 167.039C299.048 166.2 294.868 164.844 288.332 160.095C291.148 155.185 292.535 152.295 295.124 147.062C293.552 142.924 293.585 140.309 296.14 134.843C297.809 132.413 298.924 131.769 301.255 132.039C301.679 126.993 304.066 125.585 308.467 128.168C311.616 127.704 312.978 128.327 314.779 130.805C318.102 132.294 318.777 133.274 318.865 135.972C322.924 138.001 322.572 140.11 318.891 145.002C314.186 150.421 311.284 153.969 309.198 154.325C309.056 154.97 308.888 155.194 308.545 155.522Z" fill="#950000"/>
<path fill-rule="evenodd" clip-rule="evenodd" d="M288.188 160.126L288.268 160.184C294.491 164.705 298.586 166.158 300.993 167.013C301.119 167.058 301.241 167.101 301.357 167.142L301.445 167.174L301.489 167.091C302.911 164.455 303.888 162.916 304.914 161.367C305.095 161.093 305.277 160.82 305.464 160.539C306.335 159.234 307.3 157.788 308.63 155.592C308.799 155.43 308.932 155.285 309.041 155.098C309.143 154.921 309.219 154.711 309.288 154.42C309.813 154.314 310.378 154.02 310.995 153.569C311.64 153.097 312.351 152.445 313.139 151.639C314.444 150.306 315.973 148.538 317.794 146.435C318.174 145.995 318.566 145.542 318.972 145.074L318.975 145.071L318.977 145.068C319.898 143.844 320.615 142.789 321.106 141.864C321.597 140.94 321.868 140.137 321.889 139.416C321.931 137.969 320.969 136.912 318.971 135.903C318.923 134.582 318.727 133.651 318.12 132.867C317.511 132.08 316.497 131.456 314.849 130.717C313.952 129.486 313.151 128.699 312.171 128.282C311.192 127.866 310.051 127.827 308.489 128.054C306.297 126.775 304.565 126.46 303.318 127.146C302.085 127.824 301.38 129.451 301.156 131.918C300.034 131.8 299.177 131.901 298.397 132.333C297.595 132.776 296.887 133.562 296.051 134.78L296.046 134.788L296.042 134.796C294.763 137.534 294.109 139.569 293.976 141.443C293.844 143.306 294.228 145 295.006 147.056C294.769 147.536 294.542 147.996 294.322 148.439C292.163 152.811 290.786 155.598 288.238 160.04L288.188 160.126ZM288.475 160.064C290.995 155.666 292.371 152.881 294.516 148.537C294.742 148.081 294.976 147.606 295.221 147.111L295.243 147.068L295.226 147.023C294.442 144.962 294.063 143.29 294.193 141.458C294.322 139.626 294.962 137.622 296.235 134.898C297.064 133.691 297.747 132.942 298.501 132.525C299.252 132.109 300.088 132.015 301.242 132.148L301.353 132.161L301.363 132.049C301.574 129.532 302.273 127.97 303.421 127.339C304.568 126.708 306.218 126.975 308.413 128.263L308.446 128.282L308.483 128.276C310.05 128.045 311.154 128.088 312.086 128.484C313.019 128.88 313.795 129.637 314.691 130.87L314.709 130.894L314.735 130.906C316.395 131.649 317.372 132.258 317.95 133.003C318.523 133.743 318.713 134.634 318.757 135.976L318.759 136.042L318.817 136.071C320.838 137.081 321.711 138.086 321.672 139.41C321.652 140.082 321.399 140.85 320.915 141.76C320.432 142.669 319.725 143.712 318.806 144.932C318.401 145.4 318.008 145.853 317.629 146.292C315.808 148.396 314.285 150.157 312.985 151.485C312.2 152.288 311.499 152.929 310.867 153.391C310.234 153.854 309.678 154.132 309.18 154.217L309.108 154.229L309.092 154.301C309.022 154.618 308.948 154.823 308.853 154.987C308.759 155.151 308.64 155.28 308.47 155.442L308.46 155.452L308.452 155.465C307.121 157.664 306.157 159.108 305.285 160.416C305.098 160.696 304.915 160.971 304.733 161.244C303.715 162.782 302.745 164.311 301.343 166.904C301.253 166.872 301.16 166.839 301.065 166.806C298.676 165.958 294.628 164.521 288.475 160.064Z" fill="black"/>
<path fill-rule="evenodd" clip-rule="evenodd" d="M300.487 152.504L297.354 159.153L297.549 159.247L300.683 152.599L300.487 152.504ZM301.013 153.035L299.447 156.492L299.644 156.584L301.21 153.127L301.013 153.035ZM299.329 150.607C298.155 149.768 297.497 149.214 296.312 148.102L296.164 148.262C297.354 149.38 298.021 149.94 299.204 150.786L299.329 150.607ZM306.916 153.754C305.28 153.382 304.363 153.08 302.725 152.443L302.647 152.648C304.293 153.288 305.219 153.593 306.869 153.968L306.916 153.754ZM304.4 143.068C303.97 141.534 303.209 140.278 301.939 138.928L301.781 139.079C303.033 140.409 303.772 141.635 304.191 143.128C304.611 144.624 304.71 146.394 304.669 148.819L304.886 148.823C304.927 146.395 304.829 144.597 304.4 143.068ZM300.289 138.079C300.176 138.166 300.068 138.226 299.949 138.264C299.811 138.309 299.666 138.322 299.494 138.323L299.493 138.104C299.656 138.103 299.775 138.09 299.883 138.055C299.988 138.021 300.088 137.964 300.208 137.864L300.595 137.471C300.536 137.404 300.48 137.333 300.429 137.259C300.167 136.883 300.003 136.413 299.905 135.84L300.119 135.803C300.214 136.356 300.369 136.792 300.606 137.133C300.842 137.472 301.164 137.724 301.604 137.904C302.491 138.267 303.85 138.334 305.919 138.218C306.319 138.158 306.686 137.878 306.987 137.464C307.289 137.051 307.513 136.517 307.629 135.98C307.744 135.443 307.747 134.915 307.615 134.512C307.486 134.114 307.23 133.844 306.821 133.786C305.891 133.654 304.404 133.224 303.156 132.83C302.531 132.632 301.963 132.443 301.552 132.303C301.346 132.233 301.179 132.175 301.064 132.135C301.006 132.115 300.962 132.099 300.931 132.088L300.897 132.076L300.885 132.072C300.885 132.072 300.885 132.072 300.921 131.968C300.957 131.865 300.957 131.865 300.957 131.865L300.957 131.865L300.968 131.869L301.003 131.881C301.033 131.892 301.077 131.907 301.135 131.927C301.25 131.967 301.416 132.025 301.621 132.095C302.031 132.234 302.597 132.423 303.221 132.62C304.471 133.016 305.941 133.44 306.851 133.569C307.361 133.641 307.673 133.985 307.822 134.443C307.969 134.896 307.961 135.466 307.841 136.027C307.72 136.589 307.484 137.152 307.162 137.594C306.841 138.035 306.426 138.366 305.945 138.436L305.94 138.437L305.935 138.437C305.223 138.477 304.588 138.496 304.025 138.488L304.063 138.5L303.951 138.842C304.588 139.616 305.11 140.083 305.681 140.318C306.232 140.545 306.843 140.561 307.673 140.401L307.687 140.382C310.597 136.391 312.262 133.885 313.825 130.949L314.016 131.053C312.456 133.982 310.797 136.484 307.92 140.431L307.923 140.437C308.33 141.359 308.728 141.942 309.243 142.305C309.752 142.663 310.389 142.817 311.301 142.849C312.697 142.063 313.772 141.336 314.816 140.301C315.868 139.258 316.891 137.899 318.177 135.843L318.36 135.96C317.071 138.023 316.037 139.398 314.968 140.458C313.921 141.497 312.843 142.229 311.467 143.007C311.812 143.781 312.2 144.363 312.65 144.751C313.115 145.152 313.651 145.351 314.289 145.34C314.931 145.33 315.683 145.106 316.573 144.65C317.462 144.194 318.484 143.509 319.666 142.583L319.799 142.756C318.611 143.687 317.577 144.381 316.671 144.846C315.765 145.31 314.98 145.548 314.293 145.56C313.601 145.572 313.014 145.354 312.509 144.918C312.019 144.496 311.611 143.873 311.256 143.067C310.345 143.031 309.67 142.872 309.119 142.485C308.572 142.099 308.162 141.497 307.761 140.607C306.886 140.781 306.215 140.775 305.599 140.521C304.976 140.265 304.425 139.761 303.78 138.976C303.07 139 302.512 138.968 301.971 138.831C301.433 138.695 300.918 138.457 300.289 138.079ZM303.75 138.758C303.061 138.78 302.532 138.747 302.023 138.618C301.529 138.493 301.048 138.276 300.456 137.923L300.748 137.626C300.962 137.824 301.218 137.983 301.522 138.108C302.102 138.345 302.859 138.459 303.84 138.484L303.75 138.758ZM305.211 140.937C307.901 143.194 309.771 145 310.845 148.175L311.051 148.104C309.956 144.869 308.045 143.029 305.349 140.768L305.211 140.937ZM306.315 131.12C305.912 131.862 305.644 132.474 305.545 133.269L305.76 133.296C305.854 132.542 306.108 131.958 306.505 131.225C306.622 131.01 306.752 130.781 306.894 130.531C307.232 129.934 307.638 129.217 308.1 128.278L307.905 128.181C307.447 129.114 307.047 129.82 306.709 130.415C306.566 130.667 306.435 130.899 306.315 131.12Z" fill="black"/>
<path d="M302.358 85.0512C301.706 85.0126 301.21 84.896 300.872 84.7014C300.536 84.5038 300.326 84.2143 300.241 83.8329C300.145 83.4014 300.236 83.0065 300.513 82.6481C300.792 82.2867 301.205 82.0438 301.751 81.9196C302.123 81.8348 302.47 81.8322 302.793 81.9116C303.118 81.9905 303.389 82.1398 303.605 82.3595C303.823 82.5787 303.966 82.8401 304.033 83.1437L303.315 83.3072C303.241 82.976 303.079 82.7401 302.829 82.5994C302.578 82.4561 302.263 82.4277 301.883 82.5142C301.531 82.5944 301.273 82.7361 301.11 82.9393C300.948 83.1395 300.899 83.3788 300.961 83.6573C301.01 83.8806 301.145 84.0488 301.366 84.162C301.589 84.2721 301.939 84.34 302.417 84.3657C302.897 84.3909 303.281 84.4524 303.568 84.5504C303.858 84.6452 304.087 84.7817 304.254 84.9597C304.424 85.1372 304.54 85.3652 304.602 85.6437C304.701 86.0877 304.609 86.4829 304.326 86.8293C304.043 87.1732 303.615 87.4104 303.042 87.5409C302.669 87.6256 302.306 87.6332 301.952 87.5636C301.597 87.4915 301.303 87.3501 301.071 87.1393C300.841 86.9279 300.691 86.663 300.62 86.3443L301.339 86.1808C301.412 86.512 301.591 86.7468 301.875 86.8852C302.16 87.0205 302.506 87.0421 302.91 86.95C303.287 86.8642 303.559 86.7206 303.725 86.5193C303.892 86.318 303.945 86.0831 303.885 85.8147C303.825 85.5463 303.686 85.3605 303.468 85.2573C303.249 85.1517 302.879 85.083 302.358 85.0512Z" fill="white"/>
<path d="M328.655 85.2993L326.329 84.6734L325.823 86.5969L328.525 87.3239L328.371 87.9092L324.961 86.9917L326.389 81.5641L329.763 82.4717L329.608 83.0607L326.942 82.3436L326.483 84.0881L328.809 84.714L328.655 85.2993Z" fill="white"/>
<path d="M314.198 82.9487L315.648 80.1289H316.48L314.565 83.6507V85.7453H313.832V83.6507L311.917 80.1289H312.756L314.198 82.9487Z" fill="white"/>
<path d="M322.58 86.4835L321.85 86.3846L319.647 81.7194L319.078 86.009L318.349 85.9101L319.087 80.3435L319.816 80.4424L322.025 85.1278L322.596 80.819L323.318 80.9169L322.58 86.4835Z" fill="white"/>
<path d="M309.911 83.4672L307.524 83.7848L307.781 85.7582L310.554 85.3893L310.632 85.9897L307.133 86.4553L306.408 80.8869L309.869 80.4264L309.948 81.0306L307.213 81.3945L307.446 83.1844L309.833 82.8668L309.911 83.4672Z" fill="white"/>
<path d="M295.886 172.057C295.687 172.513 295.403 172.826 295.033 172.993C294.666 173.16 294.241 173.168 293.759 173.019C293.236 172.857 292.874 172.537 292.672 172.06C292.473 171.584 292.47 171.028 292.662 170.393L292.793 169.963C292.919 169.547 293.102 169.204 293.344 168.933C293.587 168.664 293.869 168.487 294.19 168.402C294.511 168.315 294.849 168.327 295.203 168.437C295.674 168.582 296.01 168.832 296.213 169.187C296.417 169.539 296.471 169.957 296.375 170.44L295.789 170.259C295.846 169.887 295.814 169.594 295.692 169.382C295.572 169.17 295.36 169.017 295.056 168.922C294.683 168.807 294.348 168.856 294.051 169.068C293.756 169.282 293.53 169.646 293.375 170.16L293.243 170.593C293.096 171.079 293.08 171.496 293.193 171.845C293.307 172.194 293.544 172.425 293.905 172.536C294.229 172.637 294.5 172.64 294.717 172.546C294.936 172.45 295.13 172.227 295.299 171.875L295.886 172.057Z" fill="white"/>
<path d="M326.215 171.679L324.774 172.057L325.811 176.096L325.224 176.25L324.187 172.212L322.75 172.589L322.623 172.097L326.088 171.188L326.215 171.679Z" fill="white"/>
<path d="M306.792 175.059L306.581 176.878L305.974 176.806L306.515 172.158L308.211 172.36C308.714 172.419 309.093 172.596 309.347 172.89C309.603 173.183 309.706 173.544 309.656 173.972C309.604 174.423 309.423 174.754 309.115 174.966C308.808 175.175 308.395 175.249 307.875 175.187L306.792 175.059ZM306.851 174.557L307.94 174.687C308.264 174.725 308.522 174.678 308.712 174.546C308.903 174.411 309.015 174.198 309.049 173.906C309.081 173.629 309.021 173.398 308.867 173.211C308.714 173.025 308.487 172.91 308.187 172.868L307.063 172.734L306.851 174.557Z" fill="white"/>
<path d="M303.32 174.144L302.254 173.929L301.886 175.785L301.285 175.663L302.193 171.074L303.695 171.378C304.207 171.481 304.576 171.679 304.804 171.969C305.034 172.261 305.104 172.631 305.015 173.081C304.959 173.367 304.833 173.6 304.637 173.781C304.443 173.963 304.2 174.079 303.907 174.129L304.587 176.292L304.58 176.33L303.938 176.2L303.32 174.144ZM302.352 173.434L303.271 173.62C303.568 173.68 303.82 173.65 304.025 173.53C304.233 173.41 304.362 173.22 304.414 172.959C304.47 172.675 304.429 172.441 304.29 172.256C304.154 172.071 303.928 171.945 303.612 171.879L302.696 171.694L302.352 173.434Z" fill="white"/>
<path d="M316.757 175.579H315.669V177.473H315.056V172.792H316.588C317.11 172.792 317.51 172.912 317.79 173.152C318.072 173.392 318.213 173.742 318.213 174.2C318.213 174.492 318.135 174.746 317.978 174.962C317.823 175.178 317.607 175.34 317.329 175.447L318.416 177.434V177.473H317.761L316.757 175.579ZM315.669 175.075H316.607C316.91 175.075 317.151 174.995 317.329 174.837C317.509 174.678 317.599 174.466 317.599 174.2C317.599 173.911 317.513 173.689 317.342 173.535C317.172 173.38 316.926 173.302 316.604 173.3H315.669V175.075Z" fill="white"/>
<path d="M300.645 172.962C300.546 173.41 300.386 173.784 300.163 174.086C299.941 174.385 299.674 174.591 299.362 174.706C299.051 174.82 298.713 174.836 298.349 174.755C297.993 174.675 297.696 174.516 297.46 174.278C297.224 174.039 297.065 173.739 296.984 173.378C296.905 173.015 296.911 172.618 297.001 172.186L297.074 171.857C297.17 171.418 297.331 171.047 297.556 170.744C297.781 170.441 298.051 170.231 298.365 170.115C298.682 169.998 299.018 169.979 299.374 170.059C299.736 170.14 300.035 170.301 300.271 170.54C300.51 170.778 300.667 171.082 300.742 171.453C300.817 171.821 300.806 172.228 300.708 172.673L300.645 172.962ZM300.117 172.534C300.236 171.992 300.219 171.553 300.068 171.216C299.916 170.877 299.647 170.664 299.26 170.577C298.884 170.492 298.555 170.571 298.274 170.813C297.995 171.053 297.796 171.43 297.677 171.943L297.603 172.279C297.488 172.804 297.505 173.242 297.656 173.592C297.81 173.94 298.078 174.157 298.461 174.243C298.846 174.33 299.175 174.255 299.448 174.02C299.722 173.783 299.92 173.401 300.042 172.873L300.117 172.534Z" fill="white"/>
<path d="M333.313 170.731C333.457 171.166 333.512 171.57 333.475 171.944C333.438 172.316 333.315 172.633 333.107 172.894C332.898 173.155 332.617 173.345 332.264 173.466C331.918 173.583 331.584 173.602 331.26 173.522C330.935 173.441 330.646 173.267 330.392 173C330.139 172.731 329.941 172.388 329.797 171.971L329.691 171.652C329.549 171.225 329.497 170.823 329.535 170.446C329.572 170.07 329.696 169.749 329.906 169.486C330.117 169.219 330.395 169.028 330.741 168.91C331.092 168.79 331.43 168.771 331.755 168.853C332.081 168.932 332.371 169.11 332.624 169.388C332.877 169.664 333.075 170.018 333.219 170.451L333.313 170.731ZM332.642 170.641C332.467 170.114 332.228 169.747 331.926 169.538C331.623 169.326 331.284 169.285 330.908 169.413C330.542 169.537 330.301 169.776 330.184 170.13C330.069 170.482 330.091 170.908 330.251 171.41L330.36 171.736C330.529 172.246 330.768 172.611 331.077 172.832C331.386 173.05 331.727 173.095 332.099 172.969C332.472 172.842 332.716 172.606 332.83 172.262C332.942 171.916 332.916 171.485 332.751 170.97L332.642 170.641Z" fill="white"/>
<path d="M314.062 175.283C314.062 175.742 313.985 176.143 313.833 176.486C313.68 176.826 313.464 177.087 313.184 177.267C312.904 177.447 312.578 177.537 312.205 177.537C311.84 177.537 311.517 177.447 311.235 177.267C310.953 177.085 310.734 176.826 310.577 176.492C310.422 176.156 310.343 175.767 310.339 175.325V174.988C310.339 174.538 310.416 174.14 310.571 173.795C310.726 173.45 310.944 173.187 311.226 173.004C311.51 172.82 311.834 172.728 312.199 172.728C312.57 172.728 312.896 172.819 313.178 173.001C313.462 173.181 313.68 173.444 313.833 173.789C313.985 174.132 314.062 174.531 314.062 174.988V175.283ZM313.454 174.981C313.454 174.426 313.344 174.001 313.124 173.705C312.903 173.407 312.595 173.258 312.199 173.258C311.813 173.258 311.509 173.407 311.286 173.705C311.066 174.001 310.952 174.412 310.946 174.939V175.283C310.946 175.821 311.057 176.245 311.28 176.553C311.504 176.86 311.813 177.013 312.205 177.013C312.599 177.013 312.904 176.868 313.121 176.579C313.337 176.287 313.448 175.871 313.454 175.328V174.981Z" fill="white"/>
<path d="M322.042 175.68L320.128 175.995L319.893 177.271L319.271 177.374L320.272 172.467L320.799 172.38L323.291 176.712L322.673 176.813L322.042 175.68ZM320.23 175.464L321.783 175.208L320.657 173.175L320.23 175.464Z" fill="white"/>
<path d="M338.577 170.543L338.035 170.833L334.306 168.749L335.975 171.936L335.433 172.226L333.266 168.091L333.809 167.8L337.551 169.896L335.874 166.694L336.41 166.407L338.577 170.543Z" fill="white"/>
<path d="M329.507 174.745L328.922 174.92L327.612 170.431L328.198 170.256L329.507 174.745Z" fill="white"/>
</g>
<g opacity="0.5">
<g filter="url(#filter0_b)">
<path d="M285.379 578.66C279.103 578.966 275.316 581.332 268.458 586.746M285.418 578.282C277.731 577.358 273.467 579.344 265.877 583.613M285.515 577.717C278.416 576.056 273.534 576.823 263.866 579.997" stroke="black" stroke-width="3" stroke-linecap="round"/>
</g>
<g filter="url(#filter1_b)">
<path d="M300.369 581.238C306.183 583.623 308.962 587.119 313.617 594.513M300.459 580.869C308.014 582.566 311.369 585.862 317.097 592.423M300.556 580.304C307.802 581.11 312.148 583.464 320.2 589.686" stroke="black" stroke-width="3" stroke-linecap="round"/>
</g>
<path fill-rule="evenodd" clip-rule="evenodd" d="M278.558 560.143C286.225 560.128 290.469 562.191 288.595 567.656C288.611 567.262 288.525 567.045 288.192 566.673C282.83 567.191 281.13 565.394 280.894 561.098C280.528 560.552 279.892 560.382 278.558 560.143ZM282.058 562.763C281.837 562.48 281.768 562.545 281.833 562.879C282.622 565.547 283.97 566.481 286.666 565.421C287 565.29 286.903 565.149 286.592 565.203C283.897 565.818 282.996 564.786 282.058 562.763Z" fill="#252324"/>
<ellipse cx="283.765" cy="562.958" rx="0.642308" ry="0.571461" transform="rotate(9.75878 283.765 562.958)" fill="#0594A7"/>
<path fill-rule="evenodd" clip-rule="evenodd" d="M322.328 567.168C322.87 573.883 320.888 577.624 314.277 584.267C315.78 580.774 315.108 579.432 312.054 577.792C309.869 576.74 308.546 576.225 305.955 575.482C299.88 573.146 298.058 571.273 299.146 566.384C299.516 558.066 296.481 553.498 287.012 552.158C283.245 551.055 282.437 549.746 282.04 546.859C281.444 539.581 280.54 536.295 276.11 533.14C274.512 532.194 273.169 532.368 272.274 534.06C269.792 537.759 269.539 541.867 271.043 548.682C269.614 553.344 269.58 555.666 270.842 559.294C269.127 562.33 269.181 564.677 270.246 569.479C268.395 565.497 267.999 563.197 269.43 558.87C268.249 554.842 268.302 552.636 269.355 548.77C268.243 539.603 268.711 535.755 271.97 531.757C273.316 530.602 274.187 530.546 275.811 530.8C280.177 533.486 282.341 536.533 284.889 540.119L284.889 540.119L284.889 540.119L284.889 540.119C285.687 541.243 286.523 542.42 287.477 543.655C296.071 541.785 300.955 542.498 309.785 547.016C315.238 542.504 318.352 540.725 324.014 538.948C326.775 538.81 327.637 539.327 328.383 540.936C330.191 548.322 329.033 552.972 323.757 562.018C322.734 563.915 322.448 565.05 322.328 567.168ZM323.521 559.4C321.393 561.21 319.987 560.32 319.531 557.221C319.219 556.244 318.511 555.966 316.353 555.928C312.566 557.68 309.259 551.748 313.125 548.144C317.351 544.016 319.824 542.322 324.51 540.961C325.751 540.745 326.249 540.971 326.738 542.075C327.707 548.263 326.961 551.905 323.521 559.4ZM310.707 566.508C311.053 566.182 311.199 566.261 311.039 566.749C308.395 570.592 306.05 571.758 301.755 569.392C301.308 569.074 301.433 568.937 301.914 569.122C306.037 570.972 308.128 570.19 310.707 566.508ZM308.532 567.41C308.705 567.117 308.662 567.033 308.359 567.226C306.799 568.82 305.604 569.491 303.27 568.011C302.995 567.856 302.857 567.957 303.127 568.192C305.315 570.091 306.897 569.662 308.532 567.41ZM311.99 566.191C304.6 564.304 302.058 564.94 300.878 569.634C300.824 569.949 300.674 569.937 300.649 569.595C300.746 564.257 304.869 562.613 312.222 565.946C312.738 566.18 312.623 566.393 311.99 566.191Z" fill="#252324"/>
<ellipse cx="304.148" cy="566.431" rx="0.607168" ry="0.560099" transform="rotate(9.75878 304.148 566.431)" fill="#0594A7"/>
<path d="M292.401 582.784C292.359 582.483 292.379 582.25 292.461 581.762C292.386 581.638 292.329 581.619 292.188 581.715C292.138 582.114 292.087 582.339 291.904 582.743C290.034 584.117 287.409 584.009 285.155 582.488C287.357 584.463 289.442 584.487 292.1 583.86C294.072 585.541 296.882 585.775 298.934 584.858C296.389 585.591 293.571 584.792 292.401 582.784Z" fill="#252324"/>
<path d="M296.61 578.89C297.487 578.536 296.977 576.758 297.772 572.138C297.633 570.671 297.088 576.114 296.435 578.168C295.706 577.573 295.154 577.451 293.972 577.528C293.255 577.585 292.82 577.506 291.988 577.187C291.072 576.744 290.532 576.718 289.53 576.981C290.08 574.701 290.729 569.878 290.378 570.779C289.945 574.569 288.369 576.781 289.17 577.801C290.389 578.826 291.522 579.452 291.192 580.347C291.523 580.852 291.706 581.126 292.408 581.476C293.038 581.402 293.341 581.206 293.855 580.772C293.654 579.838 295.431 579.854 296.61 578.89Z" fill="#252324"/>
</g>
<g opacity="0.5">
<g filter="url(#filter2_b)">
<path d="M143.046 388.203C136.87 390.209 133.706 393.792 128.27 401.505M142.987 387.782C135.087 388.827 131.35 392.123 124.888 398.789M142.938 387.141C135.434 387.229 130.766 389.365 121.95 395.394" stroke="black" stroke-width="3" stroke-linecap="round"/>
</g>
<g filter="url(#filter3_b)">
<path d="M158.651 387.007C165.061 388.048 168.734 391.107 175.282 397.902M158.645 386.581C166.613 386.411 170.808 389.099 178.211 394.702M158.596 385.94C166.026 384.884 170.965 386.284 180.597 390.899" stroke="black" stroke-width="3" stroke-linecap="round"/>
</g>
<path fill-rule="evenodd" clip-rule="evenodd" d="M131.465 369.894C139.103 367.833 143.866 368.943 143.409 375.384C143.323 374.951 143.181 374.738 142.753 374.423C137.543 376.416 135.385 374.916 134.041 370.309C133.534 369.813 132.856 369.798 131.465 369.894ZM135.63 371.809C135.337 371.56 135.285 371.649 135.436 371.994C136.911 374.685 138.496 375.34 140.909 373.469C141.208 373.238 141.075 373.11 140.779 373.252C138.253 374.639 137.087 373.758 135.63 371.809Z" fill="#252324"/>
<ellipse cx="137.382" cy="371.565" rx="0.660934" ry="0.639893" transform="rotate(-4.38329 137.382 371.565)" fill="#A70505"/>
<path fill-rule="evenodd" clip-rule="evenodd" d="M176.902 365.855C179.177 373.009 178.167 377.605 173.294 386.589C173.891 382.391 172.874 381.111 169.407 380.143C166.957 379.583 165.506 379.377 162.731 379.26C156.074 378.341 153.774 376.79 153.596 371.187C151.816 362.046 147.612 357.891 137.829 358.96C133.79 358.766 132.646 357.558 131.505 354.526C129.032 346.774 127.282 343.443 122.052 341.195C120.215 340.594 118.922 341.14 118.467 343.218C116.949 347.902 117.757 352.435 121.016 359.441C120.796 364.889 121.361 367.423 123.557 371.03C122.631 374.787 123.291 377.324 125.593 382.259C122.719 378.425 121.731 376.031 122.04 370.946C119.822 366.882 119.305 364.47 119.356 359.987C115.88 350.319 115.354 346.011 117.569 340.797C118.612 339.181 119.466 338.888 121.15 338.732C126.195 340.487 129.139 343.221 132.604 346.439C133.69 347.448 134.827 348.504 136.096 349.593C144.178 345.268 149.23 344.74 159.197 347.296C163.467 340.936 166.111 338.172 171.295 334.73C174.011 333.844 175.004 334.176 176.163 335.726C179.872 343.272 179.919 348.635 176.997 359.876C176.467 362.211 176.475 363.52 176.902 365.855ZM176.086 357.092C174.432 359.627 172.801 359.036 171.547 355.789C170.982 354.81 170.206 354.697 168.045 355.231C164.723 358.145 159.896 352.579 162.817 347.631C165.964 342.017 167.991 339.516 172.309 336.786C173.49 336.22 174.045 336.333 174.817 337.403C177.381 343.871 177.578 348.028 176.086 357.092ZM165.15 368.237C165.41 367.79 165.577 367.838 165.543 368.41C163.901 373.293 161.864 375.187 156.973 373.76C156.445 373.533 156.534 373.351 157.062 373.424C161.648 374.336 163.53 372.928 165.15 368.237ZM163.216 369.798C163.312 369.434 163.247 369.353 162.996 369.644C161.852 371.793 160.835 372.841 158.127 371.855C157.813 371.76 157.701 371.906 158.031 372.09C160.702 373.571 162.168 372.682 163.216 369.798ZM166.348 367.551C158.494 367.47 156.126 368.84 156.162 374.257C156.189 374.614 156.036 374.641 155.923 374.275C154.642 368.448 158.325 365.56 166.515 367.222C167.09 367.339 167.03 367.601 166.348 367.551Z" fill="#252324"/>
<ellipse cx="158.594" cy="369.903" rx="0.624775" ry="0.62717" transform="rotate(-4.38329 158.594 369.903)" fill="#A70505"/>
<path d="M151.108 390.812C150.989 390.496 150.949 390.237 150.905 389.686C150.798 389.57 150.736 389.565 150.621 389.707C150.674 390.154 150.681 390.412 150.603 390.9C149.094 392.893 146.45 393.475 143.811 392.424C146.516 393.982 148.599 393.452 151.087 392.062C153.486 393.364 156.347 392.868 158.155 391.324C155.808 392.799 152.793 392.683 151.108 390.812Z" fill="#252324"/>
<path d="M154.298 385.456C155.081 384.838 154.113 383.042 153.712 377.807C153.195 376.25 154.057 382.312 153.937 384.719C153.057 384.266 152.475 384.281 151.317 384.68C150.617 384.933 150.163 384.964 149.252 384.838C148.225 384.601 147.679 384.718 146.749 385.27C146.709 382.645 146.11 377.23 145.992 378.302C146.539 382.538 145.541 385.362 146.602 386.258C148.081 387.047 149.372 387.424 149.274 388.486C149.735 388.946 149.988 389.196 150.778 389.389C151.387 389.141 151.638 388.846 152.038 388.237C151.597 387.276 153.372 386.819 154.298 385.456Z" fill="#252324"/>
</g>
<path d="M177.608 665.895C145.869 660.663 102.969 640.434 44.3734 650.2C103.666 680.544 132.615 688.217 170.632 736L252.247 736C247.713 714.724 217.423 684.762 177.608 665.895Z" fill="#53575A"/>
<path fill-rule="evenodd" clip-rule="evenodd" d="M68.1702 556.532C71.323 556.532 73.8789 559.088 73.8789 562.241L73.8789 675.968C73.8789 679.121 71.323 681.677 68.1702 681.677C65.0174 681.677 62.4615 679.121 62.4615 675.968L62.4615 562.241C62.4615 559.088 65.0174 556.532 68.1702 556.532Z" fill="black"/>
<path d="M0.263 641.325C0.263 641.325 66.1873 655.997 116.67 655.997C164.893 655.997 178.89 735.993 178.89 735.993H0.263V641.325Z" fill="#53575A"/>
<path d="M173.572 736H151.852C150.222 727.05 148.666 721.322 144.309 709.356C137.511 697.539 131.597 691.802 118.21 682.766C98.6587 671.279 85.9039 665.89 58.1293 659.22C53.9625 656.926 52.1296 655.105 49.8012 650.852L55.5783 651.705L102.606 656.142C120.54 654.861 129.746 657.748 144.309 670.783C160.57 691.532 168.303 709.994 173.572 736Z" fill="#63686B"/>
<path d="M159.185 561.884C127.16 570.937 111.568 553.468 71.9245 561.884L71.9245 608.615C111.568 600.642 125.742 616.22 159.185 608.615V561.884Z" fill="#040332" fill-opacity="0.9"/>
<path d="M95.0897 580.087C95.4558 580.087 95.7554 580.059 95.9883 580.004C96.2324 579.937 96.4266 579.854 96.5708 579.754C96.715 579.643 96.8149 579.516 96.8703 579.372C96.9258 579.227 96.9535 579.067 96.9535 578.889C96.9535 578.512 96.776 578.201 96.421 577.957C96.066 577.702 95.4558 577.43 94.5905 577.142C94.2133 577.009 93.8361 576.859 93.4589 576.692C93.0817 576.515 92.7433 576.299 92.4438 576.043C92.1442 575.777 91.9001 575.461 91.7115 575.095C91.5229 574.718 91.4286 574.263 91.4286 573.73C91.4286 573.198 91.5285 572.721 91.7282 572.299C91.9279 571.866 92.2108 571.5 92.5769 571.201C92.943 570.901 93.3868 570.674 93.9082 570.518C94.4296 570.352 95.0176 570.269 95.6722 570.269C96.4487 570.269 97.1199 570.352 97.6857 570.518C98.2515 570.685 98.7175 570.868 99.0836 571.068L98.3348 573.115C98.013 572.948 97.6525 572.804 97.2531 572.682C96.8648 572.549 96.3933 572.482 95.8386 572.482C95.2173 572.482 94.768 572.571 94.4906 572.748C94.2244 572.915 94.0912 573.176 94.0912 573.531C94.0912 573.741 94.1412 573.919 94.241 574.063C94.3409 574.207 94.4795 574.34 94.657 574.462C94.8456 574.573 95.0564 574.679 95.2894 574.779C95.5335 574.867 95.7997 574.962 96.0882 575.062C96.6873 575.283 97.2087 575.505 97.6525 575.727C98.0962 575.938 98.4623 576.188 98.7508 576.476C99.0503 576.764 99.2722 577.103 99.4164 577.491C99.5607 577.879 99.6328 578.351 99.6328 578.906C99.6328 579.982 99.2556 580.819 98.5012 581.418C97.7468 582.006 96.6096 582.3 95.0897 582.3C94.5794 582.3 94.119 582.267 93.7085 582.201C93.298 582.145 92.9319 582.073 92.6102 581.984C92.2995 581.896 92.0277 581.801 91.7947 581.701C91.5729 581.602 91.3843 581.507 91.2289 581.418L91.9612 579.355C92.3051 579.544 92.7267 579.716 93.2259 579.871C93.7362 580.015 94.3575 580.087 95.0897 580.087Z" fill="#D9D9D9"/>
<path d="M101.048 577.757C101.048 576.981 101.164 576.304 101.397 575.727C101.641 575.139 101.958 574.651 102.346 574.263C102.734 573.874 103.178 573.58 103.677 573.381C104.187 573.181 104.709 573.081 105.241 573.081C106.484 573.081 107.466 573.464 108.187 574.229C108.908 574.984 109.269 576.099 109.269 577.574C109.269 577.719 109.263 577.879 109.252 578.057C109.241 578.223 109.23 578.373 109.219 578.506H103.594C103.649 579.017 103.888 579.422 104.309 579.721C104.731 580.021 105.297 580.17 106.007 580.17C106.462 580.17 106.906 580.132 107.338 580.054C107.782 579.965 108.143 579.86 108.42 579.738L108.753 581.751C108.62 581.818 108.442 581.884 108.22 581.951C107.998 582.018 107.749 582.073 107.471 582.117C107.205 582.173 106.917 582.217 106.606 582.251C106.295 582.284 105.985 582.3 105.674 582.3C104.886 582.3 104.199 582.184 103.611 581.951C103.034 581.718 102.551 581.402 102.163 581.002C101.786 580.592 101.503 580.109 101.314 579.555C101.137 579 101.048 578.401 101.048 577.757ZM106.872 576.809C106.861 576.598 106.822 576.393 106.756 576.193C106.7 575.993 106.606 575.816 106.473 575.661C106.351 575.505 106.19 575.378 105.99 575.278C105.802 575.178 105.563 575.128 105.275 575.128C104.997 575.128 104.759 575.178 104.559 575.278C104.359 575.367 104.193 575.489 104.06 575.644C103.927 575.799 103.821 575.982 103.744 576.193C103.677 576.393 103.627 576.598 103.594 576.809H106.872Z" fill="#D9D9D9"/>
<path d="M118.954 573.314C118.454 575.001 117.933 576.581 117.389 578.057C116.846 579.532 116.252 580.964 115.609 582.35C115.376 582.85 115.143 583.271 114.91 583.615C114.677 583.97 114.422 584.259 114.144 584.48C113.867 584.713 113.551 584.88 113.196 584.98C112.852 585.091 112.447 585.146 111.981 585.146C111.593 585.146 111.232 585.107 110.899 585.03C110.577 584.963 110.311 584.885 110.1 584.797L110.533 582.816C110.788 582.905 111.016 582.966 111.215 582.999C111.415 583.033 111.626 583.049 111.848 583.049C112.291 583.049 112.63 582.927 112.863 582.683C113.107 582.45 113.312 582.123 113.479 581.701C112.913 580.592 112.347 579.349 111.781 577.974C111.215 576.587 110.683 575.034 110.184 573.314H112.813C112.924 573.747 113.051 574.218 113.196 574.729C113.351 575.228 113.512 575.738 113.678 576.26C113.845 576.77 114.011 577.269 114.177 577.757C114.355 578.246 114.521 578.689 114.677 579.089C114.821 578.689 114.971 578.246 115.126 577.757C115.281 577.269 115.431 576.77 115.575 576.26C115.731 575.738 115.875 575.228 116.008 574.729C116.152 574.218 116.28 573.747 116.391 573.314H118.954Z" fill="#D9D9D9"/>
<path d="M120.283 573.614C120.704 573.492 121.248 573.381 121.914 573.281C122.579 573.17 123.278 573.115 124.01 573.115C124.754 573.115 125.369 573.214 125.858 573.414C126.357 573.603 126.751 573.874 127.039 574.229C127.328 574.584 127.533 575.006 127.655 575.494C127.777 575.982 127.838 576.526 127.838 577.125V582.068H125.358V577.425C125.358 576.626 125.253 576.06 125.042 575.727C124.831 575.394 124.438 575.228 123.861 575.228C123.683 575.228 123.495 575.239 123.295 575.261C123.095 575.272 122.918 575.289 122.762 575.311V582.068H120.283V573.614Z" fill="#D9D9D9"/>
<path d="M129.666 577.757C129.666 576.981 129.783 576.304 130.016 575.727C130.26 575.139 130.576 574.651 130.964 574.263C131.353 573.874 131.796 573.58 132.296 573.381C132.806 573.181 133.327 573.081 133.86 573.081C135.102 573.081 136.084 573.464 136.805 574.229C137.526 574.984 137.887 576.099 137.887 577.574C137.887 577.719 137.881 577.879 137.87 578.057C137.859 578.223 137.848 578.373 137.837 578.506H132.212C132.268 579.017 132.506 579.422 132.928 579.721C133.349 580.021 133.915 580.17 134.625 580.17C135.08 580.17 135.524 580.132 135.957 580.054C136.4 579.965 136.761 579.86 137.038 579.738L137.371 581.751C137.238 581.818 137.06 581.884 136.839 581.951C136.617 582.018 136.367 582.073 136.09 582.117C135.823 582.173 135.535 582.217 135.224 582.251C134.914 582.284 134.603 582.3 134.292 582.3C133.505 582.3 132.817 582.184 132.229 581.951C131.652 581.718 131.169 581.402 130.781 581.002C130.404 580.592 130.121 580.109 129.932 579.555C129.755 579 129.666 578.401 129.666 577.757ZM135.491 576.809C135.48 576.598 135.441 576.393 135.374 576.193C135.319 575.993 135.224 575.816 135.091 575.661C134.969 575.505 134.808 575.378 134.609 575.278C134.42 575.178 134.182 575.128 133.893 575.128C133.616 575.128 133.377 575.178 133.177 575.278C132.978 575.367 132.811 575.489 132.678 575.644C132.545 575.799 132.44 575.982 132.362 576.193C132.296 576.393 132.246 576.598 132.212 576.809H135.491Z" fill="#D9D9D9"/>
<path d="M252.247 736H228.455L220.786 717.254L205.304 696.387L183.539 677.988C176.623 671.268 171.168 668.516 161.462 663.228L177.665 666.698C216.226 685.513 244.057 710.065 252.247 736Z" fill="#63686B"/>
<path d="M109.847 592.979C109.847 593.232 109.791 593.476 109.68 593.709C109.569 593.942 109.425 594.169 109.247 594.389C109.069 594.602 108.869 594.809 108.647 595.009C108.424 595.209 108.206 595.399 107.991 595.579C107.88 595.672 107.757 595.779 107.624 595.899C107.498 596.012 107.376 596.129 107.257 596.249C107.139 596.368 107.031 596.482 106.935 596.588C106.846 596.688 106.791 596.772 106.768 596.838H110.08V598.088H104.945C104.931 598.015 104.923 597.922 104.923 597.808C104.923 597.695 104.923 597.615 104.923 597.568C104.923 597.248 104.979 596.955 105.09 596.688C105.209 596.422 105.36 596.175 105.546 595.949C105.731 595.715 105.938 595.499 106.168 595.299C106.405 595.099 106.639 594.899 106.868 594.699C107.046 594.545 107.213 594.402 107.368 594.269C107.524 594.129 107.661 593.996 107.78 593.869C107.898 593.736 107.991 593.606 108.058 593.479C108.124 593.346 108.158 593.212 108.158 593.079C108.158 592.786 108.065 592.579 107.88 592.459C107.694 592.339 107.465 592.279 107.191 592.279C106.991 592.279 106.802 592.309 106.624 592.369C106.453 592.423 106.294 592.489 106.146 592.569C106.005 592.642 105.883 592.719 105.779 592.799C105.675 592.872 105.598 592.932 105.546 592.979L104.723 591.939C105.049 591.666 105.427 591.443 105.857 591.269C106.294 591.089 106.761 590.999 107.257 590.999C107.709 590.999 108.098 591.046 108.424 591.139C108.75 591.233 109.017 591.366 109.225 591.539C109.439 591.706 109.595 591.913 109.691 592.159C109.795 592.399 109.847 592.672 109.847 592.979Z" fill="#D9D9D9"/>
<path d="M116.586 594.609C116.586 595.775 116.338 596.672 115.842 597.298C115.353 597.918 114.675 598.228 113.808 598.228C112.941 598.228 112.259 597.918 111.763 597.298C111.274 596.672 111.029 595.775 111.029 594.609C111.029 594.029 111.092 593.516 111.218 593.069C111.351 592.622 111.54 592.246 111.785 591.939C112.029 591.633 112.322 591.399 112.663 591.239C113.004 591.079 113.385 590.999 113.808 590.999C114.675 590.999 115.353 591.313 115.842 591.939C116.338 592.559 116.586 593.449 116.586 594.609ZM114.897 594.609C114.897 594.262 114.878 593.949 114.841 593.669C114.804 593.382 114.745 593.136 114.664 592.929C114.582 592.722 114.471 592.563 114.33 592.449C114.189 592.336 114.015 592.279 113.808 592.279C113.6 592.279 113.426 592.336 113.285 592.449C113.152 592.563 113.041 592.722 112.952 592.929C112.87 593.136 112.811 593.382 112.774 593.669C112.737 593.949 112.719 594.262 112.719 594.609C112.719 594.955 112.737 595.272 112.774 595.559C112.811 595.845 112.87 596.092 112.952 596.298C113.041 596.505 113.152 596.665 113.285 596.778C113.426 596.892 113.6 596.948 113.808 596.948C114.015 596.948 114.189 596.892 114.33 596.778C114.471 596.665 114.582 596.505 114.664 596.298C114.745 596.092 114.804 595.845 114.841 595.559C114.878 595.272 114.897 594.955 114.897 594.609Z" fill="#D9D9D9"/>
<path d="M122.481 592.979C122.481 593.232 122.425 593.476 122.314 593.709C122.203 593.942 122.059 594.169 121.881 594.389C121.703 594.602 121.503 594.809 121.281 595.009C121.058 595.209 120.84 595.399 120.625 595.579C120.514 595.672 120.392 595.779 120.258 595.899C120.132 596.012 120.01 596.129 119.891 596.249C119.773 596.368 119.665 596.482 119.569 596.588C119.48 596.688 119.425 596.772 119.402 596.838H122.714V598.088H117.58C117.565 598.015 117.557 597.922 117.557 597.808C117.557 597.695 117.557 597.615 117.557 597.568C117.557 597.248 117.613 596.955 117.724 596.688C117.843 596.422 117.995 596.175 118.18 595.949C118.365 595.715 118.572 595.499 118.802 595.299C119.039 595.099 119.273 594.899 119.502 594.699C119.68 594.545 119.847 594.402 120.003 594.269C120.158 594.129 120.295 593.996 120.414 593.869C120.532 593.736 120.625 593.606 120.692 593.479C120.758 593.346 120.792 593.212 120.792 593.079C120.792 592.786 120.699 592.579 120.514 592.459C120.329 592.339 120.099 592.279 119.825 592.279C119.625 592.279 119.436 592.309 119.258 592.369C119.087 592.423 118.928 592.489 118.78 592.569C118.639 592.642 118.517 592.719 118.413 592.799C118.309 592.872 118.232 592.932 118.18 592.979L117.357 591.939C117.683 591.666 118.061 591.443 118.491 591.269C118.928 591.089 119.395 590.999 119.891 590.999C120.343 590.999 120.732 591.046 121.058 591.139C121.384 591.233 121.651 591.366 121.859 591.539C122.074 591.706 122.229 591.913 122.325 592.159C122.429 592.399 122.481 592.672 122.481 592.979Z" fill="#D9D9D9"/>
<path d="M129.22 594.609C129.22 595.775 128.972 596.672 128.476 597.298C127.987 597.918 127.309 598.228 126.442 598.228C125.575 598.228 124.893 597.918 124.397 597.298C123.908 596.672 123.663 595.775 123.663 594.609C123.663 594.029 123.726 593.516 123.852 593.069C123.986 592.622 124.174 592.246 124.419 591.939C124.664 591.633 124.956 591.399 125.297 591.239C125.638 591.079 126.019 590.999 126.442 590.999C127.309 590.999 127.987 591.313 128.476 591.939C128.972 592.559 129.22 593.449 129.22 594.609ZM127.531 594.609C127.531 594.262 127.513 593.949 127.475 593.669C127.438 593.382 127.379 593.136 127.298 592.929C127.216 592.722 127.105 592.563 126.964 592.449C126.823 592.336 126.649 592.279 126.442 592.279C126.234 592.279 126.06 592.336 125.919 592.449C125.786 592.563 125.675 592.722 125.586 592.929C125.505 593.136 125.445 593.382 125.408 593.669C125.371 593.949 125.353 594.262 125.353 594.609C125.353 594.955 125.371 595.272 125.408 595.559C125.445 595.845 125.505 596.092 125.586 596.298C125.675 596.505 125.786 596.665 125.919 596.778C126.06 596.892 126.234 596.948 126.442 596.948C126.649 596.948 126.823 596.892 126.964 596.778C127.105 596.665 127.216 596.505 127.298 596.298C127.379 596.092 127.438 595.845 127.475 595.559C127.513 595.272 127.531 594.955 127.531 594.609Z" fill="#D9D9D9"/>
<g filter="url(#filter4_d)">
<path d="M67.266 24.1785C70.931 24.1785 73.7449 24.8288 75.7074 26.1293C77.67 27.4061 78.6513 29.5106 78.6513 32.4426C78.6513 35.3983 77.6582 37.5383 75.672 38.8624C73.6858 40.1629 70.8483 40.8132 67.1596 40.8132H65.4216V49.0418H59.8886V24.817C61.0945 24.5805 62.3714 24.415 63.7192 24.3204C65.067 24.2258 66.2492 24.1785 67.266 24.1785ZM67.6207 28.8958C67.2187 28.8958 66.8167 28.9076 66.4147 28.9313C66.0364 28.9549 65.7054 28.9786 65.4216 29.0022V36.0959H67.1596C69.0749 36.0959 70.5172 35.8358 71.4867 35.3156C72.4562 34.7954 72.9409 33.8259 72.9409 32.4072C72.9409 31.7215 72.8109 31.154 72.5508 30.7047C72.3143 30.2554 71.9596 29.9007 71.4867 29.6406C71.0375 29.3569 70.4818 29.1677 69.8197 29.0732C69.1576 28.9549 68.4246 28.8958 67.6207 28.8958ZM89.9144 24.1785C93.6031 24.1785 96.4288 24.8406 98.3914 26.1648C100.354 27.4653 101.335 29.4988 101.335 32.2653C101.335 33.9914 100.933 35.3983 100.129 36.486C99.349 37.5501 98.214 38.3895 96.7244 39.0043C97.2209 39.6191 97.7411 40.3284 98.285 41.1324C98.8288 41.9127 99.3608 42.7403 99.881 43.6152C100.425 44.4664 100.945 45.3649 101.442 46.3107C101.938 47.2329 102.399 48.1433 102.825 49.0418H96.6179C96.1687 48.2379 95.7076 47.4221 95.2347 46.5945C94.7854 45.7669 94.3125 44.963 93.8159 44.1827C93.343 43.4023 92.8701 42.6693 92.3972 41.9836C91.9243 41.2743 91.4514 40.6358 90.9785 40.0683H88.2474V49.0418H82.7144V24.817C83.9203 24.5805 85.1617 24.415 86.4385 24.3204C87.739 24.2258 88.8977 24.1785 89.9144 24.1785ZM90.2337 28.8958C89.8317 28.8958 89.4652 28.9076 89.1341 28.9313C88.8267 28.9549 88.5312 28.9786 88.2474 29.0022V35.6703H89.808C91.8888 35.6703 93.3785 35.4102 94.277 34.89C95.1756 34.3698 95.6248 33.483 95.6248 32.2298C95.6248 31.0239 95.1637 30.1727 94.2416 29.6761C93.343 29.1559 92.0071 28.8958 90.2337 28.8958ZM110.394 36.7343C110.394 37.9402 110.536 39.0279 110.82 39.9974C111.127 40.9669 111.553 41.8063 112.097 42.5156C112.664 43.2014 113.35 43.7334 114.154 44.1117C114.958 44.49 115.88 44.6792 116.921 44.6792C117.937 44.6792 118.848 44.49 119.652 44.1117C120.479 43.7334 121.165 43.2014 121.709 42.5156C122.276 41.8063 122.702 40.9669 122.986 39.9974C123.293 39.0279 123.447 37.9402 123.447 36.7343C123.447 35.5284 123.293 34.4407 122.986 33.4712C122.702 32.4781 122.276 31.6387 121.709 30.953C121.165 30.2436 120.479 29.6998 119.652 29.3214C118.848 28.9431 117.937 28.7539 116.921 28.7539C115.88 28.7539 114.958 28.9549 114.154 29.3569C113.35 29.7352 112.664 30.2791 112.097 30.9884C111.553 31.6742 111.127 32.5136 110.82 33.5067C110.536 34.4762 110.394 35.552 110.394 36.7343ZM129.157 36.7343C129.157 38.8388 128.838 40.6949 128.199 42.3028C127.585 43.8871 126.733 45.2231 125.646 46.3107C124.558 47.3748 123.258 48.1787 121.744 48.7226C120.255 49.2664 118.647 49.5384 116.921 49.5384C115.242 49.5384 113.657 49.2664 112.168 48.7226C110.678 48.1787 109.378 47.3748 108.266 46.3107C107.155 45.2231 106.28 43.8871 105.642 42.3028C105.003 40.6949 104.684 38.8388 104.684 36.7343C104.684 34.6299 105.015 32.7855 105.677 31.2013C106.339 29.5934 107.226 28.2456 108.337 27.1579C109.472 26.0702 110.773 25.2544 112.239 24.7106C113.728 24.1667 115.289 23.8948 116.921 23.8948C118.599 23.8948 120.184 24.1667 121.673 24.7106C123.163 25.2544 124.463 26.0702 125.575 27.1579C126.686 28.2456 127.561 29.5934 128.199 31.2013C128.838 32.7855 129.157 34.6299 129.157 36.7343ZM146.535 49.0418C145.849 47.6704 145.092 46.2871 144.265 44.892C143.461 43.4733 142.527 42.0309 141.463 40.5649C141.132 40.9905 140.706 41.5816 140.186 42.3383C139.689 43.095 139.181 43.8989 138.661 44.7501C138.164 45.6014 137.691 46.4172 137.242 47.1975C136.793 47.9778 136.462 48.5925 136.249 49.0418H129.936C130.976 47.1265 132.182 45.1167 133.553 43.0122C134.949 40.9077 136.497 38.6732 138.2 36.3087L130.29 24.4623H136.994L141.782 32.1234L146.464 24.4623H152.777L144.974 36.3796C146.96 38.957 148.628 41.3452 149.975 43.5442C151.323 45.7196 152.387 47.5521 153.167 49.0418H146.535ZM156.353 24.4623H161.886V49.0418H156.353V24.4623ZM174.101 24.4623C174.527 25.2426 175.012 26.212 175.555 27.3707C176.123 28.5057 176.702 29.7471 177.293 31.0948C177.908 32.419 178.511 33.7786 179.102 35.1737C179.693 36.5688 180.249 37.8811 180.769 39.1107C181.289 37.8811 181.845 36.5688 182.436 35.1737C183.027 33.7786 183.619 32.419 184.21 31.0948C184.824 29.7471 185.404 28.5057 185.948 27.3707C186.515 26.212 187.012 25.2426 187.437 24.4623H192.474C192.71 26.0938 192.923 27.9263 193.112 29.9599C193.325 31.9697 193.502 34.0742 193.644 36.2732C193.81 38.4486 193.952 40.6358 194.07 42.8349C194.212 45.0339 194.33 47.1029 194.425 49.0418H189.033C188.962 46.6536 188.868 44.0526 188.75 41.2388C188.631 38.425 188.454 35.5875 188.218 32.7264C187.792 33.7195 187.319 34.819 186.799 36.0249C186.279 37.2309 185.758 38.4368 185.238 39.6427C184.742 40.8486 184.257 42.0073 183.784 43.1186C183.311 44.2063 182.909 45.1403 182.578 45.9206H178.712C178.381 45.1403 177.979 44.2063 177.506 43.1186C177.033 42.0073 176.537 40.8486 176.017 39.6427C175.52 38.4368 175.012 37.2309 174.491 36.0249C173.971 34.819 173.498 33.7195 173.073 32.7264C172.836 35.5875 172.659 38.425 172.541 41.2388C172.422 44.0526 172.328 46.6536 172.257 49.0418H166.866C166.96 47.1029 167.067 45.0339 167.185 42.8349C167.327 40.6358 167.469 38.4486 167.611 36.2732C167.776 34.0742 167.953 31.9697 168.143 29.9599C168.355 27.9263 168.58 26.0938 168.816 24.4623H174.101ZM215.864 49.0418C215.604 48.1906 215.308 47.3157 214.977 46.4172C214.67 45.5186 214.362 44.6201 214.055 43.7216H204.478C204.171 44.6201 203.852 45.5186 203.521 46.4172C203.213 47.3157 202.93 48.1906 202.67 49.0418H196.924C197.846 46.3935 198.721 43.9462 199.548 41.6999C200.376 39.4535 201.18 37.3373 201.96 35.351C202.764 33.3648 203.544 31.485 204.301 29.7116C205.081 27.9145 205.885 26.1648 206.713 24.4623H211.998C212.802 26.1648 213.594 27.9145 214.374 29.7116C215.154 31.485 215.935 33.3648 216.715 35.351C217.519 37.3373 218.335 39.4535 219.162 41.6999C219.99 43.9462 220.865 46.3935 221.787 49.0418H215.864ZM209.231 30.0308C209.113 30.3855 208.936 30.8702 208.699 31.485C208.463 32.0998 208.191 32.8091 207.883 33.6131C207.576 34.417 207.233 35.3038 206.855 36.2732C206.5 37.2427 206.134 38.2594 205.755 39.3235H212.743C212.364 38.2594 211.998 37.2427 211.643 36.2732C211.288 35.3038 210.945 34.417 210.614 33.6131C210.307 32.8091 210.035 32.0998 209.799 31.485C209.562 30.8702 209.373 30.3855 209.231 30.0308ZM231.495 24.4623C231.92 25.2426 232.405 26.212 232.949 27.3707C233.516 28.5057 234.096 29.7471 234.687 31.0948C235.302 32.419 235.905 33.7786 236.496 35.1737C237.087 36.5688 237.643 37.8811 238.163 39.1107C238.683 37.8811 239.239 36.5688 239.83 35.1737C240.421 33.7786 241.012 32.419 241.603 31.0948C242.218 29.7471 242.797 28.5057 243.341 27.3707C243.909 26.212 244.405 25.2426 244.831 24.4623H249.867C250.104 26.0938 250.317 27.9263 250.506 29.9599C250.719 31.9697 250.896 34.0742 251.038 36.2732C251.203 38.4486 251.345 40.6358 251.463 42.8349C251.605 45.0339 251.724 47.1029 251.818 49.0418H246.427C246.356 46.6536 246.261 44.0526 246.143 41.2388C246.025 38.425 245.848 35.5875 245.611 32.7264C245.186 33.7195 244.713 34.819 244.192 36.0249C243.672 37.2309 243.152 38.4368 242.632 39.6427C242.135 40.8486 241.651 42.0073 241.178 43.1186C240.705 44.2063 240.303 45.1403 239.972 45.9206H236.106C235.775 45.1403 235.373 44.2063 234.9 43.1186C234.427 42.0073 233.93 40.8486 233.41 39.6427C232.913 38.4368 232.405 37.2309 231.885 36.0249C231.365 34.819 230.892 33.7195 230.466 32.7264C230.23 35.5875 230.052 38.425 229.934 41.2388C229.816 44.0526 229.721 46.6536 229.65 49.0418H224.259C224.354 47.1029 224.46 45.0339 224.578 42.8349C224.72 40.6358 224.862 38.4486 225.004 36.2732C225.17 34.0742 225.347 31.9697 225.536 29.9599C225.749 27.9263 225.974 26.0938 226.21 24.4623H231.495ZM256.8 49.0418V24.4623H273.399V29.1086H262.333V33.9323H272.158V38.4723H262.333V44.3955H274.215V49.0418H256.8ZM294.802 49.0418C293.218 46.228 291.504 43.4496 289.659 40.7068C287.815 37.9639 285.852 35.3747 283.772 32.9392V49.0418H278.31V24.4623H282.814C283.594 25.2426 284.457 26.2002 285.403 27.3352C286.349 28.4702 287.307 29.6879 288.276 30.9884C289.269 32.2653 290.251 33.6013 291.22 34.9964C292.189 36.3678 293.1 37.692 293.951 38.9688V24.4623H299.449V49.0418H294.802ZM323.349 24.4623V29.1796H315.936V49.0418H310.403V29.1796H302.991V24.4623H323.349ZM326.905 49.0418V24.4623H343.504V29.1086H332.438V33.9323H342.263V38.4723H332.438V44.3955H344.32V49.0418H326.905Z" fill="#F5F5F5"/>
</g>
<path opacity="0.98" d="M94.4916 100.499L97.0517 108.142L102.703 102.394L99.7515 109.895L107.775 109.125L100.693 112.973L107.334 117.541L99.4348 115.937L101.586 123.705L96.5666 117.398L93.2216 124.732L93.43 116.674L86.1535 120.142L91.4927 114.103L83.6895 112.082L91.6612 110.888L86.9825 104.325L93.8566 108.534L94.4916 100.499Z" fill="#063885"/>
<path opacity="0.72" d="M155.857 210.47L151.894 205.665L149.408 211.376L149.46 205.147L143.885 207.925L147.929 203.187L141.873 201.731L148.016 200.701L144.313 195.693L149.68 198.853L150.063 192.636L152.144 198.507L156.433 193.99L154.253 199.825L160.442 199.122L155.022 202.19L160.215 205.63L154.09 204.497L155.857 210.47Z" fill="#063885"/>
<path opacity="0.73" d="M318.117 189.987L321.336 195.911L325.156 190.356L323.814 196.963L330.311 195.163L325.036 199.362L331.17 202.159L324.431 201.985L327.331 208.071L322.281 203.605L320.591 210.132L319.592 203.464L314.102 207.378L317.623 201.628L310.902 201.097L317.295 198.956L312.488 194.229L318.761 196.698L318.117 189.987Z" fill="#063885"/>
<path opacity="0.78" d="M117.317 438.308L123.881 437.674L120.339 432.111L125.776 435.844L126.639 429.306L128.403 435.661L133.267 431.207L130.534 437.209L137.123 436.923L131.171 439.764L136.402 443.781L130.016 442.132L131.442 448.571L127.61 443.203L124.563 449.052L125.079 442.477L118.985 444.999L123.606 440.293L117.317 438.308Z" fill="#063885"/>
<path opacity="0.98" d="M273.65 404.349L277.917 402.403L274.248 399.482L278.768 400.734L277.834 396.138L280.492 400.002L282.731 395.881L282.283 400.55L286.647 398.832L283.303 402.12L287.75 403.61L283.075 403.979L285.524 407.979L281.705 405.257L281.01 409.895L279.835 405.355L276.321 408.461L278.339 404.228L273.65 404.349Z" fill="#063885"/>
<path opacity="0.99" d="M309.311 448.91L306.24 445.561L304.648 449.816L304.448 445.277L300.493 447.513L303.258 443.908L298.791 443.079L303.226 442.094L300.337 438.587L304.368 440.684L304.409 436.141L306.149 440.338L309.101 436.884L307.736 441.217L312.217 440.469L308.386 442.911L312.3 445.218L307.795 444.627L309.311 448.91Z" fill="#063885"/>
<path opacity="0.83" d="M4.77419 592.21L-1.94257 587.244L-3.32396 595.482L-5.27668 587.36L-11.6306 592.783L-7.9056 585.306L-16.259 585.376L-8.59922 582.043L-15.0434 576.727L-7.033 579.097L-8.55272 570.883L-3.93978 577.847L0.176099 570.578L-0.766918 578.878L7.05869 575.955L1.00097 581.708L8.87462 584.499L0.536667 585.011L4.77419 592.21Z" fill="#063885"/>
<path opacity="0.76" d="M265.495 612.997L260.446 615.516L264.981 618.874L259.494 617.559L260.809 623.046L257.452 618.511L254.933 623.56L255.275 617.928L250.1 620.176L253.983 616.082L248.573 614.478L254.179 613.837L251.066 609.131L255.773 612.244L256.413 606.638L258.017 612.047L262.111 608.165L259.863 613.34L265.495 612.997Z" fill="#063885"/>
<path opacity="0.97" d="M359.573 635.29L363.725 641.328L367.224 634.889L366.524 642.184L373.343 639.5L368.118 644.638L375.066 646.965L367.761 647.543L371.588 653.792L365.621 649.538L364.536 656.785L362.699 649.692L357.209 654.545L360.361 647.93L353.036 648.12L359.703 645.079L353.97 640.515L361.032 642.472L359.573 635.29Z" fill="#063885"/>
</g>
<defs>
<filter id="filter0_b" x="257.138" y="568.366" width="34.1479" height="26.7068" filterUnits="userSpaceOnUse" color-interpolation-filters="sRGB">
<feFlood flood-opacity="0" result="BackgroundImageFix"/>
<feGaussianBlur in="BackgroundImage" stdDeviation="2"/>
<feComposite in2="SourceAlpha" operator="in" result="effect1_backgroundBlur"/>
<feBlend mode="normal" in="SourceGraphic" in2="effect1_backgroundBlur" result="shape"/>
</filter>
<filter id="filter1_b" x="292.8" y="574.499" width="34.1479" height="26.7068" filterUnits="userSpaceOnUse" color-interpolation-filters="sRGB">
<feFlood flood-opacity="0" result="BackgroundImageFix"/>
<feGaussianBlur in="BackgroundImage" stdDeviation="2"/>
<feComposite in2="SourceAlpha" operator="in" result="effect1_backgroundBlur"/>
<feBlend mode="normal" in="SourceGraphic" in2="effect1_backgroundBlur" result="shape"/>
</filter>
<filter id="filter2_b" x="115.827" y="381.452" width="33.7569" height="26.1094" filterUnits="userSpaceOnUse" color-interpolation-filters="sRGB">
<feFlood flood-opacity="0" result="BackgroundImageFix"/>
<feGaussianBlur in="BackgroundImage" stdDeviation="2"/>
<feComposite in2="SourceAlpha" operator="in" result="effect1_backgroundBlur"/>
<feBlend mode="normal" in="SourceGraphic" in2="effect1_backgroundBlur" result="shape"/>
</filter>
<filter id="filter3_b" x="152.953" y="378.606" width="33.7569" height="26.1094" filterUnits="userSpaceOnUse" color-interpolation-filters="sRGB">
<feFlood flood-opacity="0" result="BackgroundImageFix"/>
<feGaussianBlur in="BackgroundImage" stdDeviation="2"/>
<feComposite in2="SourceAlpha" operator="in" result="effect1_backgroundBlur"/>
<feBlend mode="normal" in="SourceGraphic" in2="effect1_backgroundBlur" result="shape"/>
</filter>
<filter id="filter4_d" x="59.8886" y="23.8948" width="289.452" height="31.2914" filterUnits="userSpaceOnUse" color-interpolation-filters="sRGB">
<feFlood flood-opacity="0" result="BackgroundImageFix"/>
<feColorMatrix in="SourceAlpha" type="matrix" values="0 0 0 0 0 0 0 0 0 0 0 0 0 0 0 0 0 0 127 0"/>
<feOffset dx="2.51012" dy="3.13765"/>
<feGaussianBlur stdDeviation="1.25506"/>
<feColorMatrix type="matrix" values="0 0 0 0 1 0 0 0 0 1 0 0 0 0 1 0 0 0 0.4 0"/>
<feBlend mode="normal" in2="BackgroundImageFix" result="effect1_dropShadow"/>
<feBlend mode="normal" in="SourceGraphic" in2="effect1_dropShadow" result="shape"/>
</filter>
<clipPath id="clip0">
<rect width="414" height="736" fill="white" transform="translate(0.263)"/>
</clipPath>
</defs>
</svg>
