<svg width="415" height="896" viewBox="0 0 415 896" fill="none" xmlns="http://www.w3.org/2000/svg">
<g clip-path="url(#clip0)">
<rect width="414" height="896" transform="translate(0.262939)" fill="#3C576A"/>
<g opacity="0.78">
<path d="M163.704 219.944C163.704 256.503 135.116 286.14 99.8521 286.14C64.5877 286.14 36.0004 256.503 36.0004 219.944C36.0004 183.386 64.5877 153.749 99.8521 153.749C135.116 153.749 163.704 183.386 163.704 219.944Z" fill="#4E4949"/>
<path fill-rule="evenodd" clip-rule="evenodd" d="M99.8521 283.352C133.675 283.352 161.045 254.935 161.045 219.944C161.045 184.954 133.675 156.536 99.8521 156.536C66.0287 156.536 38.6595 184.954 38.6595 219.944C38.6595 254.935 66.0287 283.352 99.8521 283.352ZM99.8521 286.14C135.116 286.14 163.704 256.503 163.704 219.944C163.704 183.386 135.116 153.749 99.8521 153.749C64.5877 153.749 36.0004 183.386 36.0004 219.944C36.0004 256.503 64.5877 286.14 99.8521 286.14Z" fill="black"/>
<path d="M150.933 219.944C150.933 249.191 128.064 272.901 99.8521 272.901C71.6407 272.901 48.7708 249.191 48.7708 219.944C48.7708 190.698 71.6407 166.988 99.8521 166.988C128.064 166.988 150.933 190.698 150.933 219.944Z" fill="#525252"/>
<path fill-rule="evenodd" clip-rule="evenodd" d="M99.8521 271.228C127.199 271.228 149.338 248.25 149.338 219.944C149.338 191.638 127.199 168.661 99.8521 168.661C72.5052 168.661 50.3662 191.638 50.3662 219.944C50.3662 248.25 72.5052 271.228 99.8521 271.228ZM99.8521 272.901C128.064 272.901 150.933 249.191 150.933 219.944C150.933 190.698 128.064 166.988 99.8521 166.988C71.6407 166.988 48.7708 190.698 48.7708 219.944C48.7708 249.191 71.6407 272.901 99.8521 272.901Z" fill="black"/>
<path d="M123.194 197.185C127.01 190.302 128.244 187.16 132.534 181.178C127.245 176.748 124.609 174.38 117.298 171.913C113.702 178.059 110.433 181.043 106.361 187.126C101.033 187.847 98.2651 189.463 93.9241 195.649C92.3048 199 92.2673 200.649 93.9123 203.12C88.7784 206.645 88.6669 210.191 93.983 213.606C95.3212 217.443 96.7786 218.606 100.469 219.146C103.991 222.002 105.429 222.173 108.357 220.644C112.883 224.006 114.927 222.336 118 215.224C121.039 206.637 123.132 201.218 122.298 198.645C122.903 198.095 123.044 197.771 123.194 197.185Z" fill="#0116D1"/>
<path fill-rule="evenodd" clip-rule="evenodd" d="M117.239 171.747L117.339 171.781C124.373 174.154 127.101 176.442 131.978 180.534C132.187 180.709 132.4 180.887 132.617 181.069L132.718 181.154L132.64 181.262C129.551 185.57 128.052 188.398 126.022 192.226C125.239 193.701 124.379 195.325 123.318 197.239C123.243 197.528 123.167 197.766 123.03 198.001C122.901 198.223 122.722 198.437 122.451 198.689C122.644 199.347 122.66 200.162 122.538 201.132C122.41 202.146 122.129 203.342 121.729 204.72C121.067 206.999 120.072 209.793 118.889 213.12C118.642 213.814 118.387 214.531 118.124 215.272L118.123 215.277L118.121 215.281C117.352 217.062 116.644 218.507 115.944 219.621C115.245 220.733 114.546 221.524 113.79 221.982C112.272 222.904 110.585 222.454 108.346 220.806C106.909 221.548 105.802 221.889 104.614 221.677C103.419 221.463 102.164 220.693 100.416 219.278C98.5812 219.007 97.2755 218.577 96.2609 217.721C95.2479 216.866 94.5417 215.601 93.8743 213.699C91.2347 211.995 89.8909 210.227 89.8962 208.404C89.9014 206.601 91.2261 204.823 93.726 203.082C92.9468 201.885 92.5552 200.856 92.5614 199.714C92.5677 198.54 92.9941 197.266 93.8057 195.586L93.8107 195.576L93.8172 195.566C95.9914 192.468 97.7803 190.501 99.7015 189.22C101.611 187.947 103.641 187.358 106.286 186.996C108.03 184.396 109.627 182.36 111.163 180.402C111.412 180.085 111.659 179.77 111.905 179.455C113.68 177.182 115.392 174.905 117.185 171.841L117.239 171.747ZM117.357 172.08C115.574 175.113 113.87 177.378 112.111 179.631C111.865 179.947 111.617 180.263 111.368 180.58C109.822 182.551 108.221 184.591 106.47 187.206L106.437 187.257L106.378 187.265C103.724 187.623 101.722 188.204 99.8442 189.456C97.9659 190.708 96.2018 192.64 94.038 195.722C93.2337 197.388 92.8333 198.611 92.8273 199.715C92.8214 200.815 93.2073 201.817 94.0216 203.04L94.1 203.157L93.9854 203.236C91.4249 204.994 90.167 206.726 90.1621 208.404C90.1572 210.08 91.4023 211.784 94.0527 213.487L94.0922 213.512L94.1081 213.558C94.7742 215.468 95.4626 216.69 96.4276 217.504C97.3925 218.318 98.6508 218.739 100.488 219.008L100.523 219.013L100.551 219.035C102.311 220.463 103.528 221.2 104.658 221.402C105.781 221.603 106.841 221.28 108.298 220.519L108.369 220.482L108.434 220.531C110.688 222.205 112.268 222.584 113.657 221.741C114.362 221.313 115.033 220.563 115.722 219.467C116.41 218.373 117.11 216.944 117.877 215.171C118.139 214.43 118.394 213.713 118.641 213.019C119.824 209.693 120.815 206.909 121.474 204.639C121.873 203.267 122.149 202.088 122.274 201.095C122.399 200.101 122.371 199.304 122.172 198.69L122.143 198.601L122.211 198.54C122.508 198.27 122.683 198.062 122.803 197.856C122.923 197.65 122.992 197.438 123.065 197.149L123.07 197.131L123.079 197.115C124.139 195.203 125 193.579 125.783 192.102C127.8 188.299 129.301 185.467 132.35 181.203C132.168 181.05 131.989 180.9 131.813 180.752C126.965 176.685 124.271 174.425 117.357 172.08Z" fill="black"/>
<path fill-rule="evenodd" clip-rule="evenodd" d="M115.285 189.901L120.55 182.348L120.764 182.513L115.5 190.065L115.285 189.901ZM116.157 190.175L118.932 186.319L119.144 186.487L116.37 190.343L116.157 190.175ZM112.587 189.738C111.01 188.918 110.036 188.508 108.16 187.841L108.246 187.577C110.131 188.247 111.116 188.662 112.706 189.488L112.587 189.738ZM120.36 196.412C119.011 194.787 118.155 193.934 116.523 192.467L116.696 192.255C118.336 193.729 119.201 194.591 120.561 196.229L120.36 196.412ZM107.501 200.017C105.616 200.457 103.834 200.355 101.654 199.735L101.724 199.466C103.871 200.077 105.609 200.173 107.444 199.745C109.283 199.316 111.229 198.36 113.79 196.85L113.921 197.093C111.355 198.605 109.381 199.579 107.501 200.017ZM99.7892 198.384C99.8159 198.203 99.8166 198.044 99.7886 197.887C99.7559 197.704 99.6857 197.533 99.5869 197.338L99.3522 197.469C99.4457 197.653 99.5017 197.796 99.5272 197.939C99.5521 198.078 99.5493 198.226 99.5131 198.421L99.3187 199.096C99.2131 199.069 99.1058 199.049 98.9964 199.036C98.4429 198.967 97.8468 199.066 97.1791 199.301L97.2637 199.565C97.9091 199.338 98.4637 199.25 98.9652 199.313C99.4643 199.374 99.9205 199.586 100.368 199.974C101.272 200.758 102.134 202.252 103.215 204.66C103.384 205.148 103.299 205.733 103.033 206.323C102.768 206.913 102.329 207.489 101.824 207.943C101.319 208.397 100.757 208.719 100.251 208.814C99.7509 208.908 99.3146 208.782 99.0144 208.354C98.3328 207.383 97.0085 205.962 95.8616 204.79C95.2868 204.203 94.7543 203.676 94.3654 203.296C94.171 203.106 94.0125 202.952 93.9025 202.846C93.8475 202.793 93.8047 202.752 93.7756 202.724L93.7424 202.692L93.7312 202.682C93.7311 202.682 93.731 202.682 93.6416 202.785C93.5522 202.888 93.5522 202.888 93.5522 202.888L93.5528 202.889L93.5633 202.899L93.5962 202.93C93.6251 202.958 93.6678 202.999 93.7225 203.051C93.8321 203.157 93.9901 203.31 94.184 203.5C94.5719 203.879 95.1029 204.404 95.676 204.99C96.8248 206.164 98.1335 207.569 98.8002 208.519C99.1741 209.052 99.723 209.196 100.298 209.088C100.866 208.981 101.47 208.629 101.998 208.154C102.526 207.679 102.99 207.072 103.274 206.442C103.556 205.814 103.668 205.144 103.463 204.558L103.461 204.552L103.458 204.547C103.086 203.717 102.737 202.989 102.4 202.358L102.436 202.393L102.734 202.061C103.93 202.314 104.732 202.621 105.315 203.124C105.878 203.61 106.25 204.29 106.563 205.325L106.551 205.352C103.99 211.049 102.287 214.443 100.067 217.98L100.289 218.133C102.504 214.604 104.206 211.219 106.74 205.586L106.748 205.586C107.968 205.49 108.82 205.587 109.507 205.95C110.185 206.309 110.721 206.936 111.286 207.947C111.261 209.998 111.112 211.652 110.615 213.457C110.116 215.274 109.262 217.251 107.818 219.944L108.05 220.08C109.498 217.379 110.363 215.381 110.871 213.534C111.369 211.723 111.522 210.064 111.55 208.039C112.577 207.961 113.423 208.049 114.099 208.323C114.797 208.606 115.321 209.092 115.682 209.82C116.044 210.552 116.243 211.536 116.275 212.817C116.307 214.097 116.171 215.665 115.871 217.559L116.134 217.604C116.435 215.701 116.573 214.114 116.541 212.809C116.508 211.506 116.306 210.475 115.918 209.691C115.528 208.903 114.954 208.371 114.195 208.063C113.46 207.765 112.558 207.68 111.492 207.764C110.924 206.757 110.361 206.089 109.627 205.701C108.897 205.316 108.017 205.216 106.834 205.3C106.51 204.207 106.113 203.452 105.484 202.909C104.848 202.36 103.991 202.041 102.778 201.786C102.391 200.969 102.032 200.359 101.57 199.829C101.112 199.304 100.559 198.865 99.7892 198.384ZM102.528 201.884C102.151 201.092 101.807 200.514 101.374 200.017C100.953 199.534 100.441 199.122 99.7204 198.666L99.5738 199.175C99.9094 199.297 100.228 199.491 100.538 199.759C101.128 200.271 101.69 201.058 102.288 202.151L102.528 201.884ZM105.701 202.219C109.674 203.897 112.689 204.92 116.699 204.218L116.743 204.493C112.656 205.209 109.583 204.159 105.602 202.478L105.701 202.219ZM95.8774 209.392C96.434 208.489 96.9308 207.816 97.7201 207.225L97.8747 207.452C97.1254 208.013 96.6502 208.652 96.1007 209.543C95.9389 209.806 95.7703 210.091 95.5863 210.401C95.1468 211.144 94.6194 212.035 93.8866 213.123L93.6694 212.962C94.3975 211.882 94.9173 211.003 95.3555 210.263C95.5408 209.949 95.7116 209.661 95.8774 209.392Z" fill="black"/>
<path d="M93.0282 254.079C89.0635 260.869 87.7564 262.002 84.2672 268.707C81.3941 267.641 76.2726 265.919 68.2644 259.888C71.7149 253.652 73.4143 249.981 76.5865 243.335C74.6597 238.079 74.7008 234.758 77.8314 227.815C79.8751 224.729 81.2412 223.911 84.0971 224.254C84.6169 217.844 87.5409 216.056 92.9336 219.337C96.7908 218.747 98.4599 219.539 100.666 222.686C104.738 224.577 105.564 225.822 105.672 229.249C110.644 231.825 110.214 234.504 105.703 240.718C99.9395 247.601 96.3847 252.107 93.8286 252.559C93.6544 253.379 93.4495 253.663 93.0282 254.079Z" fill="#950000"/>
<path fill-rule="evenodd" clip-rule="evenodd" d="M68.0888 259.927L68.1867 260.001C75.811 265.743 80.8273 267.589 83.7769 268.674C83.9311 268.731 84.0797 268.785 84.2228 268.838L84.3296 268.878L84.3838 268.774C86.1261 265.426 87.323 263.47 88.5798 261.503C88.8015 261.155 89.0252 260.808 89.2542 260.452C90.3216 258.793 91.5028 256.958 93.1323 254.168C93.3395 253.962 93.5031 253.779 93.6358 253.541C93.7611 253.316 93.8549 253.049 93.9386 252.679C94.5818 252.545 95.2741 252.172 96.0297 251.599C96.821 250.999 97.691 250.172 98.6575 249.148C100.256 247.454 102.13 245.209 104.36 242.537C104.825 241.98 105.306 241.403 105.803 240.81L105.806 240.806L105.809 240.802C106.938 239.247 107.816 237.907 108.418 236.732C109.019 235.559 109.351 234.539 109.377 233.623C109.429 231.785 108.25 230.443 105.802 229.161C105.743 227.483 105.503 226.301 104.76 225.306C104.013 224.306 102.77 223.513 100.752 222.574C99.6528 221.01 98.6712 220.011 97.4704 219.482C96.2716 218.954 94.8739 218.903 92.9601 219.192C90.275 217.567 88.1522 217.168 86.6244 218.039C85.1138 218.9 84.2509 220.967 83.9765 224.1C82.6013 223.95 81.552 224.078 80.5958 224.626C79.6135 225.19 78.7465 226.188 77.7221 227.735L77.7158 227.745L77.7111 227.755C76.1432 231.232 75.3422 233.817 75.1797 236.197C75.0182 238.563 75.4883 240.715 76.4413 243.327C76.1506 243.936 75.8724 244.52 75.604 245.083C72.9581 250.636 71.2712 254.176 68.1493 259.818L68.0888 259.927ZM68.4398 259.848C71.5274 254.262 73.2129 250.725 75.8417 245.208C76.1182 244.628 76.4051 244.026 76.7053 243.397L76.7315 243.342L76.7105 243.285C75.7507 240.666 75.2861 238.544 75.4449 236.217C75.6038 233.89 76.3873 231.345 77.9468 227.885C78.9633 226.351 79.7997 225.401 80.7234 224.871C81.6439 224.343 82.6682 224.223 84.0819 224.392L84.2179 224.409L84.2295 224.266C84.4887 221.069 85.3447 219.086 86.7515 218.284C88.1561 217.483 90.1781 217.822 92.8667 219.457L92.9068 219.481L92.9526 219.474C94.8726 219.181 96.2253 219.236 97.3674 219.739C98.5094 220.242 99.4607 221.202 100.559 222.769L100.58 222.799L100.612 222.814C102.647 223.758 103.844 224.531 104.551 225.477C105.253 226.418 105.485 227.549 105.539 229.254L105.542 229.337L105.613 229.374C108.09 230.657 109.158 231.934 109.111 233.615C109.087 234.468 108.776 235.444 108.183 236.601C107.592 237.755 106.725 239.08 105.6 240.629C105.103 241.223 104.622 241.799 104.157 242.356C101.927 245.028 100.061 247.265 98.4685 248.952C97.5063 249.971 96.648 250.786 95.8738 251.373C95.0984 251.961 94.4164 252.314 93.8064 252.422L93.7182 252.437L93.6988 252.529C93.6132 252.931 93.5223 253.192 93.4062 253.4C93.2902 253.608 93.1448 253.772 92.9369 253.978L92.924 253.991L92.9147 254.007C91.2837 256.8 90.1034 258.634 89.0342 260.295C88.8051 260.651 88.5811 261 88.3588 261.347C87.1117 263.3 85.9223 265.243 84.2047 268.536C84.0946 268.495 83.9813 268.454 83.8647 268.411C80.9382 267.334 75.9787 265.51 68.4398 259.848Z" fill="black"/>
<path fill-rule="evenodd" clip-rule="evenodd" d="M83.1563 250.246L79.3175 258.691L79.5576 258.811L83.3964 250.366L83.1563 250.246ZM83.8009 250.921L81.882 255.312L82.1238 255.428L84.0427 251.037L83.8009 250.921ZM81.7376 247.836C80.2999 246.771 79.4929 246.068 78.0418 244.655L77.8608 244.859C79.3187 246.279 80.1349 246.99 81.5841 248.064L81.7376 247.836ZM91.0335 251.834C89.0282 251.362 87.9057 250.978 85.8985 250.169L85.8031 250.429C87.8192 251.241 88.9544 251.63 90.9752 252.106L91.0335 251.834ZM87.9501 238.261C87.4232 236.314 86.4916 234.718 84.9349 233.003L84.7422 233.195C86.2757 234.885 87.1815 236.442 87.6943 238.337C88.2085 240.238 88.33 242.486 88.2795 245.566L88.5454 245.571C88.596 242.487 88.4756 240.203 87.9501 238.261ZM82.9145 231.924C82.7752 232.035 82.6426 232.111 82.4975 232.16C82.3284 232.216 82.1507 232.234 81.9403 232.235L81.9386 231.956C82.1378 231.955 82.2846 231.939 82.4164 231.894C82.5453 231.851 82.668 231.778 82.8143 231.652L83.2888 231.152C83.2163 231.067 83.1484 230.978 83.0851 230.884C82.7644 230.406 82.5641 229.809 82.4438 229.082L82.7058 229.034C82.8221 229.737 83.0121 230.29 83.3026 230.723C83.5917 231.154 83.9859 231.474 84.5248 231.703C85.6121 232.164 87.2761 232.248 89.811 232.102C90.301 232.026 90.7516 231.669 91.1204 231.144C91.4893 230.619 91.7649 229.94 91.9059 229.26C92.0473 228.577 92.0505 227.907 91.8898 227.394C91.7311 226.888 91.4179 226.546 90.9161 226.472C89.7769 226.305 87.9551 225.759 86.4264 225.258C85.6603 225.007 84.9647 224.766 84.4608 224.588C84.2088 224.499 84.0046 224.426 83.8634 224.375C83.7928 224.349 83.7379 224.329 83.7007 224.316L83.6583 224.3L83.644 224.295C83.6439 224.295 83.6437 224.295 83.6878 224.164C83.7319 224.032 83.7319 224.032 83.732 224.032L83.7328 224.032L83.7462 224.037L83.7882 224.053C83.8252 224.066 83.8798 224.086 83.9501 224.111C84.0908 224.162 84.2943 224.235 84.5457 224.324C85.0483 224.502 85.7419 224.742 86.5058 224.992C88.037 225.494 89.8386 226.033 90.953 226.196C91.578 226.288 91.9599 226.726 92.1424 227.307C92.3228 227.882 92.3133 228.607 92.1658 229.319C92.018 230.032 91.7287 230.748 91.3345 231.309C90.9416 231.869 90.4329 232.29 89.8432 232.379L89.8375 232.379L89.8316 232.38C88.9582 232.43 88.1812 232.454 87.4908 232.444L87.5374 232.46L87.401 232.893C88.1811 233.876 88.8203 234.47 89.5194 234.768C90.1944 235.057 90.9429 235.077 91.9605 234.873L91.9773 234.85C95.543 229.781 97.5824 226.598 99.4972 222.869L99.7313 223.001C97.8208 226.721 95.7875 229.899 92.2635 234.912L92.2668 234.92C92.7657 236.091 93.2528 236.831 93.8839 237.292C94.5069 237.747 95.2882 237.943 96.4051 237.983C98.1154 236.985 99.4329 236.062 100.712 234.747C102 233.423 103.254 231.696 104.829 229.085L105.054 229.234C103.474 231.853 102.207 233.6 100.898 234.946C99.6145 236.266 98.2944 237.195 96.6083 238.184C97.031 239.168 97.506 239.906 98.0576 240.399C98.6271 240.908 99.2837 241.161 100.066 241.148C100.853 241.134 101.773 240.85 102.864 240.271C103.954 239.692 105.206 238.822 106.653 237.645L106.816 237.866C105.361 239.048 104.095 239.93 102.984 240.52C101.874 241.109 100.913 241.412 100.07 241.426C99.2235 241.441 98.504 241.165 97.885 240.611C97.2852 240.075 96.7851 239.283 96.3496 238.26C95.2341 238.215 94.4064 238.013 93.7318 237.52C93.0616 237.031 92.5596 236.267 92.0678 235.136C90.9965 235.356 90.1741 235.349 89.4191 235.027C88.6565 234.701 87.9815 234.062 87.1909 233.065C86.3212 233.095 85.6378 233.054 84.974 232.88C84.3159 232.707 83.6846 232.405 82.9145 231.924ZM87.1544 232.787C86.3102 232.815 85.6618 232.773 85.0386 232.61C84.4331 232.451 83.8443 232.175 83.1183 231.727L83.4759 231.35C83.7382 231.601 84.0521 231.803 84.425 231.961C85.1348 232.262 86.0624 232.407 87.264 232.439L87.1544 232.787ZM88.9436 235.555C92.2396 238.421 94.5312 240.716 95.8469 244.748L96.0985 244.658C94.7576 240.548 92.416 238.213 89.1134 235.34L88.9436 235.555ZM90.2967 223.086C89.8035 224.028 89.4746 224.806 89.3531 225.815L89.6169 225.85C89.7323 224.892 90.0429 224.15 90.5299 223.22C90.6733 222.946 90.8323 222.655 91.0059 222.338C91.4206 221.58 91.9181 220.67 92.4829 219.477L92.2448 219.353C91.6835 220.538 91.1931 221.435 90.7796 222.191C90.6047 222.511 90.4436 222.805 90.2967 223.086Z" fill="black"/>
<path d="M85.449 164.574C84.6495 164.525 84.0427 164.377 83.6287 164.13C83.217 163.879 82.9592 163.511 82.8551 163.027C82.7374 162.478 82.8485 161.977 83.1883 161.522C83.5305 161.063 84.036 160.754 84.7048 160.596C85.1608 160.489 85.5865 160.485 85.9819 160.586C86.3803 160.686 86.7117 160.876 86.9761 161.155C87.2435 161.434 87.4186 161.766 87.5014 162.151L86.6213 162.359C86.531 161.938 86.3325 161.638 86.0258 161.46C85.7184 161.278 85.3321 161.242 84.867 161.352C84.4353 161.453 84.1194 161.633 83.9193 161.892C83.7216 162.146 83.6607 162.45 83.7367 162.803C83.7976 163.087 83.9633 163.301 84.2337 163.444C84.5065 163.584 84.9355 163.671 85.5207 163.703C86.1089 163.735 86.5792 163.813 86.9317 163.938C87.2866 164.058 87.5666 164.232 87.7717 164.458C87.9798 164.683 88.1219 164.973 88.1978 165.326C88.319 165.89 88.2064 166.392 87.8601 166.832C87.5131 167.269 86.9885 167.57 86.2863 167.736C85.8303 167.844 85.3851 167.853 84.9509 167.765C84.516 167.673 84.1564 167.494 83.8721 167.226C83.5909 166.958 83.4068 166.621 83.3199 166.216L84.2 166.009C84.2903 166.429 84.5093 166.727 84.8569 166.903C85.2068 167.075 85.6295 167.103 86.1251 166.986C86.5872 166.877 86.9201 166.694 87.1239 166.439C87.3277 166.183 87.393 165.885 87.3198 165.544C87.2466 165.203 87.0761 164.967 86.8084 164.836C86.54 164.701 86.0869 164.614 85.449 164.574Z" fill="white"/>
<path d="M117.667 164.889L114.817 164.094L114.196 166.537L117.507 167.46L117.319 168.204L113.14 167.038L114.891 160.145L119.024 161.298L118.834 162.046L115.568 161.135L115.005 163.351L117.856 164.146L117.667 164.889Z" fill="white"/>
<path d="M99.955 161.903L101.731 158.322H102.75L100.404 162.795V165.455H99.5062V162.795L97.1598 158.322H98.1881L99.955 161.903Z" fill="white"/>
<path d="M110.224 166.393L109.33 166.267L106.63 160.342L105.934 165.79L105.04 165.665L105.944 158.595L106.838 158.72L109.543 164.671L110.243 159.199L111.128 159.323L110.224 166.393Z" fill="white"/>
<path d="M94.7022 162.562L91.7779 162.965L92.0926 165.472L95.4896 165.003L95.5853 165.766L91.2986 166.357L90.4106 159.285L94.651 158.7L94.7474 159.467L91.3968 159.929L91.6822 162.203L94.6064 161.799L94.7022 162.562Z" fill="white"/>
<path d="M77.5191 275.081C77.2764 275.66 76.9284 276.057 76.475 276.27C76.0249 276.481 75.5043 276.492 74.9134 276.302C74.2728 276.097 73.8292 275.691 73.5826 275.085C73.3384 274.48 73.3342 273.774 73.57 272.967L73.7297 272.421C73.8841 271.892 74.1093 271.457 74.4052 271.113C74.7036 270.771 75.0491 270.546 75.4417 270.438C75.835 270.328 76.2489 270.343 76.6835 270.483C77.2595 270.668 77.6719 270.985 77.9206 271.435C78.1701 271.882 78.2363 272.413 78.1192 273.027L77.4004 272.797C77.4707 272.324 77.4312 271.952 77.282 271.683C77.1352 271.413 76.8756 271.219 76.5032 271.099C76.0463 270.953 75.6358 271.014 75.2717 271.285C74.91 271.556 74.6338 272.018 74.4428 272.671L74.282 273.222C74.1017 273.838 74.0813 274.368 74.2206 274.812C74.3599 275.255 74.6506 275.547 75.0925 275.689C75.4898 275.817 75.8213 275.821 76.0871 275.701C76.3562 275.58 76.5939 275.296 76.8003 274.85L77.5191 275.081Z" fill="white"/>
<path d="M114.677 274.601L112.912 275.081L114.182 280.21L113.462 280.406L112.192 275.277L110.431 275.756L110.277 275.132L114.522 273.977L114.677 274.601Z" fill="white"/>
<path d="M90.8816 278.893L90.622 281.204L89.8793 281.112L90.5422 275.209L92.6196 275.465C93.236 275.541 93.6997 275.765 94.0109 276.138C94.3246 276.511 94.4509 276.969 94.3899 277.513C94.3256 278.086 94.1044 278.507 93.7265 278.775C93.3515 279.041 92.8455 279.135 92.2085 279.056L90.8816 278.893ZM90.9531 278.256L92.2877 278.421C92.6848 278.47 93.0001 278.41 93.2334 278.242C93.4671 278.07 93.6047 277.799 93.6463 277.429C93.6857 277.078 93.6115 276.784 93.4237 276.547C93.2359 276.31 92.9581 276.164 92.5902 276.111L91.213 275.941L90.9531 278.256Z" fill="white"/>
<path d="M86.6271 277.732L85.3208 277.458L84.8707 279.816L84.1335 279.661L85.2462 273.832L87.0872 274.218C87.7136 274.35 88.1663 274.6 88.4454 274.969C88.727 275.339 88.8133 275.81 88.7042 276.381C88.6349 276.744 88.4804 277.04 88.2405 277.271C88.0031 277.501 87.7049 277.648 87.3459 277.712L88.1799 280.46L88.1707 280.508L87.3839 280.343L86.6271 277.732ZM85.4408 276.829L86.5675 277.065C86.9316 277.142 87.2395 277.104 87.4911 276.951C87.7452 276.799 87.9039 276.557 87.9671 276.226C88.0358 275.866 87.9855 275.568 87.8159 275.333C87.6489 275.098 87.3721 274.939 86.9856 274.855L85.8626 274.619L85.4408 276.829Z" fill="white"/>
<path d="M103.089 279.554H101.757V281.959H101.005V276.014H102.883C103.522 276.014 104.013 276.167 104.355 276.472C104.701 276.777 104.873 277.22 104.873 277.803C104.873 278.173 104.777 278.495 104.585 278.77C104.396 279.045 104.131 279.251 103.791 279.387L105.123 281.91V281.959H104.32L103.089 279.554ZM101.757 278.913H102.906C103.278 278.913 103.572 278.812 103.791 278.611C104.011 278.41 104.122 278.14 104.122 277.803C104.122 277.435 104.016 277.153 103.806 276.958C103.598 276.762 103.297 276.662 102.902 276.659H101.757V278.913Z" fill="white"/>
<path d="M83.3495 276.23C83.229 276.799 83.0324 277.274 82.7598 277.657C82.4877 278.037 82.1607 278.3 81.7788 278.445C81.3969 278.59 80.9828 278.611 80.5367 278.507C80.1007 278.405 79.7377 278.204 79.4479 277.902C79.1586 277.598 78.9641 277.216 78.8644 276.758C78.7678 276.298 78.7749 275.794 78.8859 275.245L78.9746 274.827C79.0928 274.269 79.2899 273.797 79.5656 273.413C79.8413 273.028 80.1717 272.762 80.5567 272.614C80.9448 272.465 81.3569 272.441 81.7929 272.543C82.2365 272.646 82.603 272.85 82.8923 273.154C83.1846 273.456 83.3768 273.843 83.4686 274.313C83.561 274.781 83.5472 275.297 83.4273 275.863L83.3495 276.23ZM82.7027 275.686C82.8485 274.998 82.8285 274.44 82.6426 274.012C82.4573 273.581 82.1276 273.311 81.6535 273.2C81.1922 273.093 80.7892 273.193 80.4448 273.5C80.1034 273.805 79.8597 274.284 79.7135 274.936L79.6231 275.362C79.4818 276.029 79.5036 276.585 79.6887 277.03C79.8768 277.472 80.2054 277.748 80.6744 277.857C81.1459 277.967 81.5489 277.873 81.8835 277.574C82.2187 277.273 82.4613 276.787 82.6114 276.117L82.7027 275.686Z" fill="white"/>
<path d="M123.373 273.396C123.55 273.948 123.616 274.462 123.572 274.937C123.526 275.41 123.376 275.812 123.12 276.143C122.865 276.475 122.521 276.717 122.088 276.87C121.665 277.019 121.254 277.043 120.857 276.942C120.46 276.838 120.105 276.617 119.794 276.279C119.484 275.937 119.241 275.502 119.066 274.972L118.935 274.566C118.761 274.024 118.698 273.514 118.744 273.035C118.79 272.556 118.942 272.15 119.199 271.815C119.457 271.477 119.798 271.233 120.222 271.083C120.652 270.932 121.066 270.907 121.464 271.011C121.864 271.112 122.219 271.338 122.529 271.691C122.839 272.041 123.082 272.491 123.258 273.04L123.373 273.396ZM122.551 273.281C122.336 272.613 122.044 272.146 121.674 271.881C121.302 271.613 120.887 271.56 120.427 271.722C119.979 271.88 119.683 272.184 119.54 272.634C119.398 273.08 119.426 273.622 119.622 274.259L119.755 274.673C119.963 275.32 120.256 275.784 120.633 276.065C121.013 276.341 121.43 276.399 121.885 276.239C122.343 276.077 122.642 275.778 122.781 275.341C122.919 274.902 122.887 274.355 122.685 273.699L122.551 273.281Z" fill="white"/>
<path d="M99.7875 279.179C99.7875 279.761 99.694 280.27 99.507 280.705C99.32 281.138 99.0552 281.469 98.7124 281.698C98.3696 281.926 97.9697 282.041 97.5127 282.041C97.066 282.041 96.67 281.926 96.3246 281.698C95.9793 281.466 95.7105 281.138 95.5183 280.714C95.3288 280.286 95.2314 279.792 95.2262 279.232V278.803C95.2262 278.231 95.321 277.726 95.5105 277.288C95.7001 276.85 95.9676 276.515 96.313 276.284C96.6609 276.05 97.0582 275.933 97.5049 275.933C97.9593 275.933 98.3592 276.048 98.7046 276.28C99.0526 276.508 99.32 276.842 99.507 277.28C99.694 277.716 99.7875 278.223 99.7875 278.803V279.179ZM99.0435 278.795C99.0435 278.09 98.9084 277.55 98.6384 277.174C98.3683 276.796 97.9905 276.606 97.5049 276.606C97.0323 276.606 96.6596 276.796 96.387 277.174C96.1169 277.55 95.978 278.072 95.9702 278.742V279.179C95.9702 279.862 96.1065 280.399 96.3792 280.791C96.6544 281.18 97.0323 281.375 97.5127 281.375C97.9957 281.375 98.3696 281.191 98.6345 280.824C98.8994 280.454 99.0357 279.924 99.0435 279.236V278.795Z" fill="white"/>
<path d="M109.565 279.682L107.22 280.082L106.931 281.703L106.17 281.833L107.396 275.601L108.042 275.491L111.095 280.992L110.337 281.122L109.565 279.682ZM107.344 279.407L109.247 279.083L107.867 276.501L107.344 279.407Z" fill="white"/>
<path d="M129.822 273.157L129.158 273.526L124.589 270.879L126.635 274.927L125.97 275.296L123.316 270.043L123.98 269.674L128.565 272.335L126.51 268.269L127.168 267.904L129.822 273.157Z" fill="white"/>
<path d="M118.71 278.495L117.993 278.717L116.389 273.015L117.107 272.793L118.71 278.495Z" fill="white"/>
</g>
<g opacity="0.5">
<g filter="url(#filter0_b)">
<path d="M307.98 784C301.704 784.305 297.916 786.672 291.059 792.085M308.019 783.622C300.331 782.697 296.068 784.683 288.477 788.953M308.116 783.056C301.017 781.396 296.135 782.162 286.467 785.336" stroke="black" stroke-width="3" stroke-linecap="round"/>
</g>
<g filter="url(#filter1_b)">
<path d="M322.97 786.578C328.783 788.963 331.563 792.459 336.218 799.852M323.06 786.209C330.615 787.906 333.97 791.202 339.698 797.762M323.157 785.643C330.403 786.45 334.749 788.804 342.801 795.025" stroke="black" stroke-width="3" stroke-linecap="round"/>
</g>
<path fill-rule="evenodd" clip-rule="evenodd" d="M301.159 765.482C308.826 765.467 313.07 767.531 311.196 772.996C311.212 772.602 311.125 772.385 310.793 772.013C305.431 772.53 303.731 770.734 303.495 766.438C303.128 765.891 302.492 765.721 301.159 765.482ZM304.659 768.103C304.438 767.819 304.369 767.884 304.434 768.218C305.223 770.887 306.571 771.82 309.267 770.761C309.6 770.63 309.504 770.489 309.193 770.543C306.498 771.157 305.597 770.126 304.659 768.103Z" fill="#252324"/>
<ellipse cx="306.366" cy="768.297" rx="0.642308" ry="0.571461" transform="rotate(9.75878 306.366 768.297)" fill="#0594A7"/>
<path fill-rule="evenodd" clip-rule="evenodd" d="M344.929 772.507C345.471 779.222 343.488 782.964 336.878 789.607C338.381 786.114 337.709 784.771 334.655 783.131C332.469 782.08 331.146 781.565 328.556 780.822C322.481 778.486 320.659 776.612 321.747 771.724C322.117 763.405 319.081 758.838 309.613 757.498C305.846 756.395 305.038 755.086 304.641 752.198C304.045 744.921 303.141 741.635 298.71 738.479C297.113 737.534 295.77 737.707 294.875 739.399C292.393 743.099 292.14 747.207 293.644 754.022C292.215 758.683 292.181 761.005 293.443 764.634C291.728 767.669 291.782 770.016 292.847 774.818C290.995 770.837 290.6 768.537 292.031 764.21C290.849 760.181 290.902 757.975 291.956 754.11C290.843 744.943 291.312 741.094 294.571 737.097C295.917 735.941 296.788 735.885 298.412 736.14C302.778 738.826 304.942 741.872 307.49 745.458L307.49 745.458L307.49 745.458L307.49 745.458C308.288 746.582 309.124 747.759 310.078 748.995C318.671 747.124 323.556 747.837 332.386 752.356C337.839 747.843 340.953 746.065 346.614 744.287C349.376 744.15 350.238 744.667 350.984 746.276C352.792 753.662 351.634 758.311 346.358 767.358C345.335 769.255 345.049 770.389 344.929 772.507ZM346.122 764.739C343.994 766.549 342.587 765.66 342.132 762.56C341.819 761.583 341.112 761.306 338.954 761.268C335.167 763.019 331.86 757.087 335.726 753.484C339.952 749.356 342.425 747.662 347.111 746.301C348.352 746.084 348.85 746.311 349.339 747.415C350.308 753.603 349.561 757.244 346.122 764.739ZM333.307 771.848C333.654 771.521 333.8 771.601 333.64 772.088C330.996 775.931 328.651 777.098 324.356 774.732C323.909 774.413 324.033 774.276 324.515 774.461C328.637 776.312 330.729 775.53 333.307 771.848ZM331.133 772.75C331.306 772.457 331.263 772.372 330.96 772.566C329.4 774.159 328.205 774.83 325.871 773.351C325.596 773.196 325.458 773.297 325.728 773.531C327.916 775.431 329.498 775.001 331.133 772.75ZM334.591 771.531C327.201 769.643 324.659 770.279 323.479 774.974C323.425 775.289 323.274 775.276 323.25 774.934C323.347 769.597 327.469 767.952 334.823 771.285C335.339 771.519 335.224 771.732 334.591 771.531Z" fill="#252324"/>
<ellipse cx="326.749" cy="771.77" rx="0.607168" ry="0.560099" transform="rotate(9.75878 326.749 771.77)" fill="#0594A7"/>
<path d="M315.002 788.123C314.96 787.822 314.98 787.589 315.062 787.102C314.987 786.977 314.93 786.958 314.789 787.055C314.739 787.454 314.687 787.678 314.505 788.083C312.635 789.457 310.01 789.348 307.756 787.828C309.958 789.802 312.043 789.826 314.701 789.199C316.673 790.881 319.483 791.115 321.534 790.197C318.99 790.93 316.172 790.132 315.002 788.123Z" fill="#252324"/>
<path d="M319.211 784.229C320.088 783.875 319.578 782.098 320.373 777.477C320.233 776.011 319.689 781.453 319.036 783.508C318.306 782.913 317.755 782.791 316.572 782.867C315.856 782.924 315.421 782.846 314.589 782.526C313.673 782.083 313.132 782.058 312.131 782.32C312.681 780.041 313.33 775.218 312.979 776.118C312.546 779.908 310.97 782.12 311.771 783.141C312.99 784.165 314.123 784.791 313.793 785.687C314.124 786.191 314.307 786.466 315.008 786.816C315.639 786.742 315.942 786.546 316.456 786.111C316.255 785.178 318.032 785.194 319.211 784.229Z" fill="#252324"/>
</g>
<g opacity="0.5">
<g filter="url(#filter2_b)">
<path d="M116.51 527.467C108.267 530.145 104.045 534.926 96.7896 545.22M116.431 526.905C105.887 528.3 100.901 532.699 92.2762 541.596M116.366 526.05C106.351 526.168 100.121 529.019 88.3551 537.065" stroke="black" stroke-width="3" stroke-linecap="round"/>
</g>
<g filter="url(#filter3_b)">
<path d="M137.336 525.871C145.891 527.261 150.793 531.343 159.532 540.411M137.329 525.303C147.962 525.075 153.56 528.663 163.44 536.141M137.263 524.448C147.179 523.039 153.771 524.906 166.625 531.065" stroke="black" stroke-width="3" stroke-linecap="round"/>
</g>
<path fill-rule="evenodd" clip-rule="evenodd" d="M101.054 503.032C111.247 500.281 117.604 501.764 116.995 510.359C116.88 509.782 116.69 509.498 116.119 509.076C109.165 511.736 106.285 509.735 104.491 503.587C103.815 502.924 102.911 502.905 101.054 503.032ZM106.612 505.588C106.221 505.255 106.152 505.374 106.353 505.835C108.322 509.426 110.437 510.3 113.658 507.803C114.057 507.495 113.879 507.324 113.484 507.513C110.112 509.364 108.557 508.189 106.612 505.588Z" fill="#252324"/>
<ellipse cx="108.95" cy="505.262" rx="0.882078" ry="0.853996" transform="rotate(-4.38329 108.95 505.262)" fill="#A70505"/>
<path fill-rule="evenodd" clip-rule="evenodd" d="M161.694 497.642C164.73 507.189 163.382 513.323 156.879 525.314C157.675 519.711 156.318 518.002 151.69 516.711C148.421 515.964 146.484 515.688 142.782 515.532C133.897 514.306 130.827 512.236 130.59 504.758C128.215 492.559 122.603 487.013 109.547 488.44C104.156 488.18 102.63 486.569 101.108 482.522C97.8061 472.177 95.4714 467.732 88.4909 464.731C86.04 463.929 84.3142 464.658 83.7062 467.431C81.6805 473.682 82.7598 479.731 87.1091 489.082C86.8147 496.353 87.5694 499.734 90.4993 504.548C89.2644 509.562 90.1452 512.948 93.2164 519.535C89.3812 514.418 88.0623 511.223 88.4745 504.436C85.5147 499.013 84.8248 495.793 84.8935 489.811C80.2547 476.908 79.5517 471.159 82.5087 464.199C83.9003 462.044 85.0398 461.652 87.2876 461.443C94.021 463.786 97.9493 467.435 102.574 471.73L102.574 471.73C104.023 473.076 105.541 474.486 107.235 475.939C118.021 470.166 124.763 469.461 138.065 472.873C143.763 464.386 147.292 460.697 154.21 456.103C157.836 454.92 159.161 455.364 160.708 457.432C165.658 467.503 165.72 474.661 161.82 489.662C161.113 492.778 161.124 494.526 161.694 497.642ZM160.604 485.947C158.398 489.331 156.22 488.541 154.546 484.207C153.793 482.901 152.757 482.75 149.874 483.463C145.44 487.353 138.997 479.924 142.896 473.32C147.096 465.827 149.801 462.49 155.565 458.847C157.14 458.091 157.881 458.242 158.912 459.67C162.333 468.302 162.596 473.85 160.604 485.947ZM146.009 500.822C146.357 500.225 146.58 500.288 146.535 501.052C144.343 507.568 141.625 510.096 135.097 508.192C134.392 507.889 134.511 507.647 135.215 507.743C141.336 508.96 143.848 507.081 146.009 500.822ZM143.428 502.904C143.557 502.418 143.47 502.311 143.134 502.699C141.609 505.566 140.251 506.965 136.636 505.649C136.217 505.523 136.068 505.718 136.509 505.963C140.073 507.939 142.03 506.753 143.428 502.904ZM147.608 499.905C137.127 499.798 133.966 501.625 134.014 508.855C134.051 509.332 133.846 509.368 133.695 508.88C131.985 501.102 136.902 497.249 147.832 499.466C148.599 499.622 148.519 499.972 147.608 499.905Z" fill="#252324"/>
<ellipse cx="137.26" cy="503.044" rx="0.833821" ry="0.837017" transform="rotate(-4.38329 137.26 503.044)" fill="#A70505"/>
<path d="M127.27 530.949C127.111 530.528 127.057 530.182 126.998 529.446C126.855 529.292 126.773 529.285 126.619 529.475C126.69 530.072 126.699 530.416 126.595 531.067C124.582 533.726 121.053 534.503 117.53 533.1C121.14 535.18 123.921 534.473 127.241 532.618C130.444 534.355 134.262 533.694 136.674 531.633C133.542 533.602 129.518 533.447 127.27 530.949Z" fill="#252324"/>
<path d="M131.527 523.802C132.571 522.976 131.28 520.579 130.745 513.593C130.054 511.516 131.205 519.605 131.046 522.817C129.87 522.214 129.094 522.234 127.548 522.765C126.615 523.103 126.009 523.144 124.792 522.976C123.421 522.66 122.693 522.816 121.452 523.553C121.398 520.05 120.599 512.822 120.442 514.254C121.172 519.906 119.839 523.676 121.255 524.871C123.23 525.924 124.953 526.428 124.822 527.845C125.437 528.459 125.775 528.792 126.828 529.05C127.641 528.719 127.977 528.326 128.511 527.513C127.922 526.23 130.291 525.621 131.527 523.802Z" fill="#252324"/>
</g>
<path d="M179.849 825.895C148.11 820.663 105.21 800.434 46.6146 810.2C105.908 840.544 134.856 848.217 172.874 896L254.488 896C249.954 874.724 219.664 844.762 179.849 825.895Z" fill="#53575A"/>
<path fill-rule="evenodd" clip-rule="evenodd" d="M70.4115 716.532C73.5643 716.532 76.1202 719.088 76.1202 722.241L76.1202 835.968C76.1202 839.121 73.5643 841.677 70.4115 841.677C67.2586 841.677 64.7028 839.121 64.7028 835.968L64.7028 722.241C64.7028 719.088 67.2586 716.532 70.4115 716.532Z" fill="black"/>
<path d="M2.50427 801.325C2.50427 801.325 68.4286 815.997 118.912 815.997C167.135 815.997 181.131 895.993 181.131 895.993H2.50427V801.325Z" fill="#53575A"/>
<path d="M175.813 896H154.093C152.463 887.05 150.907 881.322 146.551 869.356C139.752 857.539 133.838 851.802 120.452 842.766C100.9 831.279 88.1452 825.89 60.3706 819.22C56.2038 816.926 54.3709 815.105 52.0425 810.852L57.8196 811.705L104.847 816.142C122.782 814.861 131.987 817.748 146.551 830.783C162.812 851.532 170.545 869.994 175.813 896Z" fill="#63686B"/>
<path d="M161.427 721.884C129.402 730.937 113.81 713.468 74.1658 721.884L74.1658 768.615C113.81 760.642 127.983 776.22 161.427 768.615V721.884Z" fill="#040332" fill-opacity="0.9"/>
<path d="M97.331 740.087C97.6971 740.087 97.9966 740.059 98.2296 740.004C98.4737 739.937 98.6678 739.854 98.8121 739.754C98.9563 739.643 99.0561 739.516 99.1116 739.372C99.1671 739.227 99.1948 739.067 99.1948 738.889C99.1948 738.512 99.0173 738.201 98.6623 737.957C98.3073 737.702 97.6971 737.43 96.8317 737.142C96.4545 737.009 96.0773 736.859 95.7001 736.692C95.3229 736.515 94.9846 736.299 94.685 736.043C94.3855 735.777 94.1414 735.461 93.9528 735.095C93.7642 734.718 93.6699 734.263 93.6699 733.73C93.6699 733.198 93.7698 732.721 93.9695 732.299C94.1691 731.866 94.452 731.5 94.8182 731.201C95.1843 730.901 95.628 730.674 96.1495 730.518C96.6709 730.352 97.2589 730.269 97.9134 730.269C98.69 730.269 99.3612 730.352 99.927 730.518C100.493 730.685 100.959 730.868 101.325 731.068L100.576 733.115C100.254 732.948 99.8937 732.804 99.4943 732.682C99.1061 732.549 98.6345 732.482 98.0798 732.482C97.4586 732.482 97.0093 732.571 96.7319 732.748C96.4656 732.915 96.3325 733.176 96.3325 733.531C96.3325 733.741 96.3824 733.919 96.4823 734.063C96.5821 734.207 96.7208 734.34 96.8983 734.462C97.0869 734.573 97.2977 734.679 97.5307 734.779C97.7748 734.867 98.041 734.962 98.3295 735.062C98.9285 735.283 99.45 735.505 99.8937 735.727C100.338 735.938 100.704 736.188 100.992 736.476C101.292 736.764 101.513 737.103 101.658 737.491C101.802 737.879 101.874 738.351 101.874 738.906C101.874 739.982 101.497 740.819 100.742 741.418C99.988 742.006 98.8509 742.3 97.331 742.3C96.8207 742.3 96.3602 742.267 95.9498 742.201C95.5393 742.145 95.1732 742.073 94.8514 741.984C94.5408 741.896 94.269 741.801 94.036 741.701C93.8141 741.602 93.6255 741.507 93.4702 741.418L94.2024 739.355C94.5463 739.544 94.9679 739.716 95.4672 739.871C95.9775 740.015 96.5988 740.087 97.331 740.087Z" fill="#D9D9D9"/>
<path d="M103.289 737.757C103.289 736.981 103.406 736.304 103.639 735.727C103.883 735.139 104.199 734.651 104.587 734.263C104.975 733.874 105.419 733.58 105.918 733.381C106.429 733.181 106.95 733.081 107.483 733.081C108.725 733.081 109.707 733.464 110.428 734.229C111.149 734.984 111.51 736.099 111.51 737.574C111.51 737.719 111.504 737.879 111.493 738.057C111.482 738.223 111.471 738.373 111.46 738.506H105.835C105.891 739.017 106.129 739.422 106.551 739.721C106.972 740.021 107.538 740.17 108.248 740.17C108.703 740.17 109.147 740.132 109.579 740.054C110.023 739.965 110.384 739.86 110.661 739.738L110.994 741.751C110.861 741.818 110.683 741.884 110.461 741.951C110.24 742.018 109.99 742.073 109.713 742.117C109.446 742.173 109.158 742.217 108.847 742.251C108.537 742.284 108.226 742.3 107.915 742.3C107.128 742.3 106.44 742.184 105.852 741.951C105.275 741.718 104.792 741.402 104.404 741.002C104.027 740.592 103.744 740.109 103.555 739.555C103.378 739 103.289 738.401 103.289 737.757ZM109.114 736.809C109.102 736.598 109.064 736.393 108.997 736.193C108.942 735.993 108.847 735.816 108.714 735.661C108.592 735.505 108.431 735.378 108.232 735.278C108.043 735.178 107.804 735.128 107.516 735.128C107.239 735.128 107 735.178 106.8 735.278C106.601 735.367 106.434 735.489 106.301 735.644C106.168 735.799 106.063 735.982 105.985 736.193C105.918 736.393 105.868 736.598 105.835 736.809H109.114Z" fill="#D9D9D9"/>
<path d="M121.195 733.314C120.696 735.001 120.174 736.581 119.631 738.057C119.087 739.532 118.493 740.964 117.85 742.35C117.617 742.85 117.384 743.271 117.151 743.615C116.918 743.97 116.663 744.259 116.385 744.48C116.108 744.713 115.792 744.88 115.437 744.98C115.093 745.091 114.688 745.146 114.222 745.146C113.834 745.146 113.473 745.107 113.14 745.03C112.819 744.963 112.552 744.885 112.342 744.797L112.774 742.816C113.029 742.905 113.257 742.966 113.457 742.999C113.656 743.033 113.867 743.049 114.089 743.049C114.533 743.049 114.871 742.927 115.104 742.683C115.348 742.45 115.553 742.123 115.72 741.701C115.154 740.592 114.588 739.349 114.022 737.974C113.457 736.587 112.924 735.034 112.425 733.314H115.054C115.165 733.747 115.293 734.218 115.437 734.729C115.592 735.228 115.753 735.738 115.92 736.26C116.086 736.77 116.252 737.269 116.419 737.757C116.596 738.246 116.763 738.689 116.918 739.089C117.062 738.689 117.212 738.246 117.367 737.757C117.523 737.269 117.672 736.77 117.817 736.26C117.972 735.738 118.116 735.228 118.249 734.729C118.394 734.218 118.521 733.747 118.632 733.314H121.195Z" fill="#D9D9D9"/>
<path d="M122.524 733.614C122.946 733.492 123.489 733.381 124.155 733.281C124.821 733.17 125.519 733.115 126.252 733.115C126.995 733.115 127.611 733.214 128.099 733.414C128.598 733.603 128.992 733.874 129.28 734.229C129.569 734.584 129.774 735.006 129.896 735.494C130.018 735.982 130.079 736.526 130.079 737.125V742.068H127.6V737.425C127.6 736.626 127.494 736.06 127.283 735.727C127.073 735.394 126.679 735.228 126.102 735.228C125.924 735.228 125.736 735.239 125.536 735.261C125.336 735.272 125.159 735.289 125.004 735.311V742.068H122.524V733.614Z" fill="#D9D9D9"/>
<path d="M131.907 737.757C131.907 736.981 132.024 736.304 132.257 735.727C132.501 735.139 132.817 734.651 133.205 734.263C133.594 733.874 134.038 733.58 134.537 733.381C135.047 733.181 135.569 733.081 136.101 733.081C137.344 733.081 138.325 733.464 139.047 734.229C139.768 734.984 140.128 736.099 140.128 737.574C140.128 737.719 140.123 737.879 140.112 738.057C140.101 738.223 140.089 738.373 140.078 738.506H134.454C134.509 739.017 134.748 739.422 135.169 739.721C135.591 740.021 136.157 740.17 136.867 740.17C137.321 740.17 137.765 740.132 138.198 740.054C138.642 739.965 139.002 739.86 139.28 739.738L139.612 741.751C139.479 741.818 139.302 741.884 139.08 741.951C138.858 742.018 138.608 742.073 138.331 742.117C138.065 742.173 137.776 742.217 137.466 742.251C137.155 742.284 136.844 742.3 136.534 742.3C135.746 742.3 135.058 742.184 134.47 741.951C133.893 741.718 133.411 741.402 133.022 741.002C132.645 740.592 132.362 740.109 132.174 739.555C131.996 739 131.907 738.401 131.907 737.757ZM137.732 736.809C137.721 736.598 137.682 736.393 137.615 736.193C137.56 735.993 137.466 735.816 137.333 735.661C137.21 735.505 137.05 735.378 136.85 735.278C136.661 735.178 136.423 735.128 136.134 735.128C135.857 735.128 135.618 735.178 135.419 735.278C135.219 735.367 135.053 735.489 134.92 735.644C134.786 735.799 134.681 735.982 134.603 736.193C134.537 736.393 134.487 736.598 134.454 736.809H137.732Z" fill="#D9D9D9"/>
<path d="M254.489 896H230.696L223.028 877.254L207.546 856.387L185.781 837.988C178.864 831.268 173.409 828.516 163.704 823.228L179.906 826.698C218.467 845.513 246.299 870.065 254.489 896Z" fill="#63686B"/>
<path d="M112.088 752.979C112.088 753.232 112.033 753.476 111.922 753.709C111.81 753.942 111.666 754.169 111.488 754.389C111.31 754.602 111.11 754.809 110.888 755.009C110.666 755.209 110.447 755.399 110.232 755.579C110.121 755.672 109.999 755.779 109.865 755.899C109.739 756.012 109.617 756.129 109.499 756.249C109.38 756.368 109.273 756.482 109.176 756.588C109.087 756.688 109.032 756.772 109.01 756.838H112.322V758.088H107.187C107.172 758.015 107.165 757.922 107.165 757.808C107.165 757.695 107.165 757.615 107.165 757.568C107.165 757.248 107.22 756.955 107.331 756.688C107.45 756.422 107.602 756.175 107.787 755.949C107.972 755.715 108.18 755.499 108.409 755.299C108.646 755.099 108.88 754.899 109.11 754.699C109.287 754.545 109.454 754.402 109.61 754.269C109.765 754.129 109.902 753.996 110.021 753.869C110.14 753.736 110.232 753.606 110.299 753.479C110.366 753.346 110.399 753.212 110.399 753.079C110.399 752.786 110.306 752.579 110.121 752.459C109.936 752.339 109.706 752.279 109.432 752.279C109.232 752.279 109.043 752.309 108.865 752.369C108.695 752.423 108.535 752.489 108.387 752.569C108.246 752.642 108.124 752.719 108.02 752.799C107.917 752.872 107.839 752.932 107.787 752.979L106.964 751.939C107.291 751.666 107.668 751.443 108.098 751.269C108.535 751.089 109.002 750.999 109.499 750.999C109.951 750.999 110.34 751.046 110.666 751.139C110.992 751.233 111.258 751.366 111.466 751.539C111.681 751.706 111.836 751.913 111.933 752.159C112.036 752.399 112.088 752.672 112.088 752.979Z" fill="#D9D9D9"/>
<path d="M118.828 754.609C118.828 755.775 118.579 756.672 118.083 757.298C117.594 757.918 116.916 758.228 116.049 758.228C115.182 758.228 114.5 757.918 114.004 757.298C113.515 756.672 113.27 755.775 113.27 754.609C113.27 754.029 113.333 753.516 113.459 753.069C113.593 752.622 113.782 752.246 114.026 751.939C114.271 751.633 114.563 751.399 114.904 751.239C115.245 751.079 115.627 750.999 116.049 750.999C116.916 750.999 117.594 751.313 118.083 751.939C118.579 752.559 118.828 753.449 118.828 754.609ZM117.138 754.609C117.138 754.262 117.12 753.949 117.083 753.669C117.046 753.382 116.986 753.136 116.905 752.929C116.823 752.722 116.712 752.563 116.571 752.449C116.431 752.336 116.256 752.279 116.049 752.279C115.842 752.279 115.667 752.336 115.527 752.449C115.393 752.563 115.282 752.722 115.193 752.929C115.112 753.136 115.052 753.382 115.015 753.669C114.978 753.949 114.96 754.262 114.96 754.609C114.96 754.955 114.978 755.272 115.015 755.559C115.052 755.845 115.112 756.092 115.193 756.298C115.282 756.505 115.393 756.665 115.527 756.778C115.667 756.892 115.842 756.948 116.049 756.948C116.256 756.948 116.431 756.892 116.571 756.778C116.712 756.665 116.823 756.505 116.905 756.298C116.986 756.092 117.046 755.845 117.083 755.559C117.12 755.272 117.138 754.955 117.138 754.609Z" fill="#D9D9D9"/>
<path d="M124.722 752.979C124.722 753.232 124.667 753.476 124.556 753.709C124.444 753.942 124.3 754.169 124.122 754.389C123.944 754.602 123.744 754.809 123.522 755.009C123.3 755.209 123.081 755.399 122.866 755.579C122.755 755.672 122.633 755.779 122.499 755.899C122.373 756.012 122.251 756.129 122.133 756.249C122.014 756.368 121.907 756.482 121.81 756.588C121.721 756.688 121.666 756.772 121.644 756.838H124.956V758.088H119.821C119.806 758.015 119.799 757.922 119.799 757.808C119.799 757.695 119.799 757.615 119.799 757.568C119.799 757.248 119.854 756.955 119.965 756.688C120.084 756.422 120.236 756.175 120.421 755.949C120.606 755.715 120.814 755.499 121.043 755.299C121.281 755.099 121.514 754.899 121.744 754.699C121.921 754.545 122.088 754.402 122.244 754.269C122.399 754.129 122.536 753.996 122.655 753.869C122.774 753.736 122.866 753.606 122.933 753.479C123 753.346 123.033 753.212 123.033 753.079C123.033 752.786 122.94 752.579 122.755 752.459C122.57 752.339 122.34 752.279 122.066 752.279C121.866 752.279 121.677 752.309 121.499 752.369C121.329 752.423 121.169 752.489 121.021 752.569C120.88 752.642 120.758 752.719 120.654 752.799C120.551 752.872 120.473 752.932 120.421 752.979L119.599 751.939C119.925 751.666 120.302 751.443 120.732 751.269C121.169 751.089 121.636 750.999 122.133 750.999C122.585 750.999 122.974 751.046 123.3 751.139C123.626 751.233 123.892 751.366 124.1 751.539C124.315 751.706 124.47 751.913 124.567 752.159C124.67 752.399 124.722 752.672 124.722 752.979Z" fill="#D9D9D9"/>
<path d="M131.462 754.609C131.462 755.775 131.214 756.672 130.717 757.298C130.228 757.918 129.55 758.228 128.683 758.228C127.816 758.228 127.134 757.918 126.638 757.298C126.149 756.672 125.904 755.775 125.904 754.609C125.904 754.029 125.967 753.516 126.093 753.069C126.227 752.622 126.416 752.246 126.66 751.939C126.905 751.633 127.197 751.399 127.538 751.239C127.879 751.079 128.261 750.999 128.683 750.999C129.55 750.999 130.228 751.313 130.717 751.939C131.214 752.559 131.462 753.449 131.462 754.609ZM129.772 754.609C129.772 754.262 129.754 753.949 129.717 753.669C129.68 753.382 129.62 753.136 129.539 752.929C129.457 752.722 129.346 752.563 129.205 752.449C129.065 752.336 128.891 752.279 128.683 752.279C128.476 752.279 128.302 752.336 128.161 752.449C128.027 752.563 127.916 752.722 127.827 752.929C127.746 753.136 127.686 753.382 127.649 753.669C127.612 753.949 127.594 754.262 127.594 754.609C127.594 754.955 127.612 755.272 127.649 755.559C127.686 755.845 127.746 756.092 127.827 756.298C127.916 756.505 128.027 756.665 128.161 756.778C128.302 756.892 128.476 756.948 128.683 756.948C128.891 756.948 129.065 756.892 129.205 756.778C129.346 756.665 129.457 756.505 129.539 756.298C129.62 756.092 129.68 755.845 129.717 755.559C129.754 755.272 129.772 754.955 129.772 754.609Z" fill="#D9D9D9"/>
<g filter="url(#filter4_d)">
<path d="M74.9176 20.0011C78.5827 20.0011 81.3965 20.6514 83.3591 21.9519C85.3216 23.2287 86.3029 25.3332 86.3029 28.2652C86.3029 31.2209 85.3098 33.3608 83.3236 34.685C81.3374 35.9855 78.4999 36.6357 74.8112 36.6357H73.0732V44.8644H67.5402V20.6395C68.7461 20.4031 70.023 20.2376 71.3708 20.143C72.7186 20.0484 73.9008 20.0011 74.9176 20.0011ZM75.2723 24.7184C74.8703 24.7184 74.4683 24.7302 74.0664 24.7539C73.688 24.7775 73.357 24.8011 73.0732 24.8248V31.9185H74.8112C76.7265 31.9185 78.1689 31.6583 79.1383 31.1381C80.1078 30.6179 80.5925 29.6485 80.5925 28.2297C80.5925 27.544 80.4625 26.9765 80.2024 26.5273C79.9659 26.078 79.6112 25.7233 79.1383 25.4632C78.6891 25.1795 78.1334 24.9903 77.4713 24.8957C76.8092 24.7775 76.0762 24.7184 75.2723 24.7184ZM97.566 20.0011C101.255 20.0011 104.08 20.6632 106.043 21.9873C108.006 23.2878 108.987 25.3213 108.987 28.0879C108.987 29.814 108.585 31.2209 107.781 32.3086C107.001 33.3727 105.866 34.2121 104.376 34.8269C104.873 35.4416 105.393 36.151 105.937 36.9549C106.48 37.7353 107.012 38.5628 107.533 39.4377C108.076 40.289 108.597 41.1875 109.093 42.1333C109.59 43.0555 110.051 43.9658 110.477 44.8644H104.27C103.82 44.0604 103.359 43.2447 102.886 42.4171C102.437 41.5895 101.964 40.7855 101.468 40.0052C100.995 39.2249 100.522 38.4919 100.049 37.8062C99.5759 37.0968 99.103 36.4584 98.6301 35.8909H95.899V44.8644H90.366V20.6395C91.5719 20.4031 92.8133 20.2376 94.0902 20.143C95.3907 20.0484 96.5493 20.0011 97.566 20.0011ZM97.8853 24.7184C97.4833 24.7184 97.1168 24.7302 96.7857 24.7539C96.4784 24.7775 96.1828 24.8011 95.899 24.8248V31.4928H97.4596C99.5405 31.4928 101.03 31.2327 101.929 30.7125C102.827 30.1923 103.276 29.3056 103.276 28.0524C103.276 26.8465 102.815 25.9952 101.893 25.4987C100.995 24.9785 99.6587 24.7184 97.8853 24.7184ZM118.046 32.5569C118.046 33.7628 118.188 34.8505 118.472 35.82C118.779 36.7894 119.205 37.6288 119.748 38.3382C120.316 39.0239 121.002 39.556 121.806 39.9343C122.61 40.3126 123.532 40.5018 124.572 40.5018C125.589 40.5018 126.499 40.3126 127.303 39.9343C128.131 39.556 128.816 39.0239 129.36 38.3382C129.928 37.6288 130.353 36.7894 130.637 35.82C130.945 34.8505 131.098 33.7628 131.098 32.5569C131.098 31.351 130.945 30.2633 130.637 29.2938C130.353 28.3007 129.928 27.4613 129.36 26.7755C128.816 26.0662 128.131 25.5223 127.303 25.144C126.499 24.7657 125.589 24.5765 124.572 24.5765C123.532 24.5765 122.61 24.7775 121.806 25.1795C121.002 25.5578 120.316 26.1016 119.748 26.811C119.205 27.4967 118.779 28.3362 118.472 29.3293C118.188 30.2987 118.046 31.3746 118.046 32.5569ZM136.809 32.5569C136.809 34.6613 136.489 36.5175 135.851 38.1254C135.236 39.7097 134.385 41.0456 133.297 42.1333C132.21 43.1974 130.909 44.0013 129.396 44.5452C127.906 45.089 126.298 45.3609 124.572 45.3609C122.893 45.3609 121.309 45.089 119.819 44.5452C118.33 44.0013 117.029 43.1974 115.918 42.1333C114.807 41.0456 113.932 39.7097 113.293 38.1254C112.655 36.5175 112.336 34.6613 112.336 32.5569C112.336 30.4524 112.667 28.6081 113.329 27.0238C113.991 25.4159 114.877 24.0681 115.989 22.9804C117.124 21.8927 118.424 21.077 119.89 20.5331C121.38 19.9893 122.941 19.7174 124.572 19.7174C126.251 19.7174 127.835 19.9893 129.325 20.5331C130.815 21.077 132.115 21.8927 133.226 22.9804C134.338 24.0681 135.213 25.4159 135.851 27.0238C136.489 28.6081 136.809 30.4524 136.809 32.5569ZM154.186 44.8644C153.501 43.4929 152.744 42.1097 151.917 40.7146C151.113 39.2959 150.179 37.8535 149.115 36.3875C148.783 36.8131 148.358 37.4042 147.838 38.1609C147.341 38.9175 146.833 39.7215 146.313 40.5727C145.816 41.424 145.343 42.2397 144.894 43.02C144.445 43.8003 144.113 44.4151 143.901 44.8644H137.587C138.628 42.9491 139.834 40.9392 141.205 38.8348C142.6 36.7303 144.149 34.4958 145.851 32.1313L137.942 20.2848H144.646L149.434 27.946L154.116 20.2848H160.429L152.626 32.2022C154.612 34.7796 156.279 37.1678 157.627 39.3668C158.975 41.5422 160.039 43.3747 160.819 44.8644H154.186ZM164.004 20.2848H169.537V44.8644H164.004V20.2848ZM181.753 20.2848C182.178 21.0651 182.663 22.0346 183.207 23.1932C183.775 24.3282 184.354 25.5696 184.945 26.9174C185.56 28.2416 186.163 29.6012 186.754 30.9963C187.345 32.3914 187.901 33.7037 188.421 34.9333C188.941 33.7037 189.497 32.3914 190.088 30.9963C190.679 29.6012 191.27 28.2416 191.861 26.9174C192.476 25.5696 193.055 24.3282 193.599 23.1932C194.167 22.0346 194.663 21.0651 195.089 20.2848H200.125C200.362 21.9164 200.575 23.7489 200.764 25.7824C200.977 27.7923 201.154 29.8968 201.296 32.0958C201.461 34.2712 201.603 36.4584 201.721 38.6574C201.863 40.8565 201.982 42.9254 202.076 44.8644H196.685C196.614 42.4762 196.519 39.8752 196.401 37.0614C196.283 34.2475 196.106 31.4101 195.869 28.549C195.444 29.5421 194.971 30.6416 194.45 31.8475C193.93 33.0534 193.41 34.2594 192.89 35.4653C192.393 36.6712 191.909 37.8298 191.436 38.9412C190.963 40.0289 190.561 40.9629 190.23 41.7432H186.364C186.033 40.9629 185.631 40.0289 185.158 38.9412C184.685 37.8298 184.188 36.6712 183.668 35.4653C183.172 34.2594 182.663 33.0534 182.143 31.8475C181.623 30.6416 181.15 29.5421 180.724 28.549C180.488 31.4101 180.31 34.2475 180.192 37.0614C180.074 39.8752 179.979 42.4762 179.908 44.8644H174.517C174.612 42.9254 174.718 40.8565 174.837 38.6574C174.978 36.4584 175.12 34.2712 175.262 32.0958C175.428 29.8968 175.605 27.7923 175.794 25.7824C176.007 23.7489 176.232 21.9164 176.468 20.2848H181.753ZM223.515 44.8644C223.255 44.0131 222.96 43.1383 222.629 42.2397C222.321 41.3412 222.014 40.4427 221.706 39.5441H212.13C211.823 40.4427 211.503 41.3412 211.172 42.2397C210.865 43.1383 210.581 44.0131 210.321 44.8644H204.575C205.497 42.2161 206.372 39.7688 207.2 37.5224C208.028 35.2761 208.831 33.1598 209.612 31.1736C210.416 29.1874 211.196 27.3076 211.953 25.5342C212.733 23.7371 213.537 21.9873 214.365 20.2848H219.649C220.453 21.9873 221.245 23.7371 222.026 25.5342C222.806 27.3076 223.586 29.1874 224.367 31.1736C225.171 33.1598 225.986 35.2761 226.814 37.5224C227.642 39.7688 228.516 42.2161 229.439 44.8644H223.515ZM216.883 25.8534C216.765 26.2081 216.587 26.6928 216.351 27.3076C216.114 27.9224 215.842 28.6317 215.535 29.4357C215.228 30.2396 214.885 31.1263 214.506 32.0958C214.152 33.0653 213.785 34.082 213.407 35.1461H220.394C220.016 34.082 219.649 33.0653 219.295 32.0958C218.94 31.1263 218.597 30.2396 218.266 29.4357C217.959 28.6317 217.687 27.9224 217.45 27.3076C217.214 26.6928 217.025 26.2081 216.883 25.8534ZM239.146 20.2848C239.572 21.0651 240.057 22.0346 240.601 23.1932C241.168 24.3282 241.747 25.5696 242.339 26.9174C242.953 28.2416 243.556 29.6012 244.147 30.9963C244.739 32.3914 245.294 33.7037 245.814 34.9333C246.335 33.7037 246.89 32.3914 247.481 30.9963C248.073 29.6012 248.664 28.2416 249.255 26.9174C249.87 25.5696 250.449 24.3282 250.993 23.1932C251.56 22.0346 252.057 21.0651 252.482 20.2848H257.519C257.755 21.9164 257.968 23.7489 258.157 25.7824C258.37 27.7923 258.548 29.8968 258.689 32.0958C258.855 34.2712 258.997 36.4584 259.115 38.6574C259.257 40.8565 259.375 42.9254 259.47 44.8644H254.079C254.008 42.4762 253.913 39.8752 253.795 37.0614C253.677 34.2475 253.499 31.4101 253.263 28.549C252.837 29.5421 252.364 30.6416 251.844 31.8475C251.324 33.0534 250.804 34.2594 250.283 35.4653C249.787 36.6712 249.302 37.8298 248.829 38.9412C248.356 40.0289 247.954 40.9629 247.623 41.7432H243.757C243.426 40.9629 243.024 40.0289 242.551 38.9412C242.078 37.8298 241.582 36.6712 241.062 35.4653C240.565 34.2594 240.057 33.0534 239.537 31.8475C239.016 30.6416 238.543 29.5421 238.118 28.549C237.881 31.4101 237.704 34.2475 237.586 37.0614C237.468 39.8752 237.373 42.4762 237.302 44.8644H231.911C232.005 42.9254 232.112 40.8565 232.23 38.6574C232.372 36.4584 232.514 34.2712 232.656 32.0958C232.821 29.8968 232.999 27.7923 233.188 25.7824C233.4 23.7489 233.625 21.9164 233.862 20.2848H239.146ZM264.452 44.8644V20.2848H281.051V24.9312H269.985V29.7549H279.809V34.2948H269.985V40.218H281.867V44.8644H264.452ZM302.454 44.8644C300.87 42.0506 299.155 39.2722 297.311 36.5293C295.467 33.7864 293.504 31.1973 291.423 28.7618V44.8644H285.961V20.2848H290.466C291.246 21.0651 292.109 22.0228 293.055 23.1578C294.001 24.2928 294.958 25.5105 295.928 26.811C296.921 28.0879 297.902 29.4238 298.872 30.8189C299.841 32.1904 300.751 33.5145 301.603 34.7914V20.2848H307.1V44.8644H302.454ZM331.001 20.2848V25.0021H323.588V44.8644H318.055V25.0021H310.642V20.2848H331.001ZM334.557 44.8644V20.2848H351.156V24.9312H340.09V29.7549H349.915V34.2948H340.09V40.218H351.972V44.8644H334.557Z" fill="#F5F5F5"/>
</g>
<path opacity="0.83" d="M26.7955 142.975L24.0801 149.225L30.8824 148.811L24.7845 151.854L30.2614 155.909L23.6343 154.321L25.2231 160.948L21.1677 155.471L18.125 161.569L18.5389 154.766L12.2884 157.482L16.9778 152.537L10.4442 150.599L17.215 149.826L13.4555 144.142L19.1395 147.901L19.9131 141.13L21.8507 147.664L26.7955 142.975Z" fill="#063885"/>
<path opacity="0.93" d="M145.089 78.1878L152.823 74.1589L145.725 69.0928L154.239 70.9775L152.058 62.5345L157.369 69.4509L161.126 61.5815L160.748 70.2934L168.684 66.6797L162.795 73.1107L171.197 75.4438L162.552 76.5847L167.489 83.7728L160.133 79.0898L159.294 87.7695L156.67 79.4538L150.448 85.5638L153.783 77.5065L145.089 78.1878Z" fill="#063885"/>
<path opacity="0.9" d="M235.978 130.609L236.726 136.276L241.437 133.04L238.368 137.862L244.057 138.411L238.606 140.132L242.611 144.21L237.33 142.024L237.777 147.722L235.136 142.653L231.815 147.305L233.05 141.725L227.516 143.154L232.05 139.673L226.892 137.211L232.602 137.458L230.233 132.257L234.449 136.117L235.978 130.609Z" fill="#063885"/>
<path opacity="0.83" d="M375.439 15.8927L369.684 13.511L370.171 19.7205L367.293 14.1966L363.674 19.2663L365.02 13.1849L358.99 14.7425L363.93 10.9491L358.309 8.26584L364.532 8.53554L361.951 2.8669L366.544 7.07344L368.211 1.07187L369.026 7.24696L374.16 3.72066L370.815 8.9749L377.015 9.57387L371.075 11.4487L375.439 15.8927Z" fill="#063885"/>
<path opacity="0.84" d="M22.9209 397.392L22.4002 405.949L30.2637 402.533L24.3641 408.754L32.5838 411.192L24.0657 412.165L28.7955 419.316L21.6446 414.586L20.6713 423.104L18.2337 414.885L12.0128 420.784L15.429 412.921L6.87126 413.441L14.5428 409.613L7.65252 404.511L15.9898 406.51L13.991 398.173L19.0929 405.063L22.9209 397.392Z" fill="#063885"/>
<path opacity="0.77" d="M214.913 267.091L219.648 274.239L223.872 266.778L222.904 275.297L230.935 272.297L224.718 278.201L232.799 281.065L224.242 281.591L228.591 288.98L221.697 283.882L220.28 292.338L218.275 284.002L211.754 289.568L215.577 281.894L207.004 281.966L214.865 278.545L208.252 273.089L216.473 275.521L214.913 267.091Z" fill="#063885"/>
<path opacity="0.92" d="M311.617 357.188L311.045 361.547L315.19 360.081L311.949 363.052L316.067 364.593L311.674 364.786L313.838 368.614L310.349 365.938L309.546 370.261L308.593 365.969L305.2 368.765L307.229 364.864L302.832 364.824L306.894 363.14L303.552 360.284L307.745 361.605L307.021 357.268L309.384 360.975L311.617 357.188Z" fill="#063885"/>
<path opacity="0.89" d="M350.801 416.348L349.276 410.007L344.316 414.241L347.224 408.403L340.702 408.458L346.682 405.856L341.651 401.706L347.905 403.556L346.719 397.143L350.32 402.58L353.533 396.905L352.797 403.385L358.906 401.103L354.177 405.594L360.324 407.773L353.815 408.173L357.123 413.794L351.879 409.916L350.801 416.348Z" fill="#063885"/>
<path opacity="0.84" d="M22.5985 509.55L18.5858 514.598L24.9044 515.886L18.5858 517.174L22.5985 522.221L16.9305 519.146L16.7596 525.593L14.3943 519.594L10.1199 524.422L12.1641 518.306L5.78614 519.257L11.2833 515.886L5.78614 512.515L12.1641 513.466L10.1199 507.35L14.3943 512.178L16.7596 506.179L16.9305 512.626L22.5985 509.55Z" fill="#063885"/>
<path opacity="0.79" d="M188.589 564.142L190.256 559.68L185.523 560.218L189.668 557.871L185.697 555.241L190.38 556.107L189.029 551.54L192.06 555.214L193.961 550.847L193.92 555.61L198.184 553.486L195.092 557.109L199.723 558.222L195.025 559.01L197.857 562.839L193.752 560.423L193.46 565.177L191.869 560.688L188.589 564.142Z" fill="#063885"/>
<path opacity="0.76" d="M233.328 573.706L236.979 571.003L232.914 568.974L237.449 569.25L235.639 565.083L238.935 568.21L240.227 563.854L240.743 568.368L244.532 565.861L242.026 569.651L246.54 570.166L242.184 571.458L245.31 574.755L241.143 572.944L241.419 577.479L239.391 573.414L236.687 577.065L237.746 572.647L233.328 573.706Z" fill="#063885"/>
<path opacity="0.96" d="M345.769 666.474L346.393 674.364L353.142 670.231L348.548 676.675L356.375 677.847L348.714 679.831L353.956 685.76L346.811 682.355L347.016 690.267L343.732 683.066L338.803 689.258L340.916 681.632L333.16 683.207L339.681 678.722L332.727 674.944L340.605 675.7L337.707 668.336L343.256 673.978L345.769 666.474Z" fill="#063885"/>
<path opacity="0.9" d="M21.9758 700.242L21.8072 706.762L27.6945 703.956L23.3746 708.842L29.6881 710.477L23.2383 711.443L27.0238 716.754L21.462 713.348L20.9483 719.849L18.8769 713.665L14.3043 718.315L16.6926 712.247L10.2006 712.87L15.9311 709.756L10.5575 706.06L16.9487 707.358L15.2079 701.073L19.2694 706.176L21.9758 700.242Z" fill="#063885"/>
<path opacity="0.77" d="M203.203 728.147L207.156 731.642L208.479 726.534L209.26 731.752L213.556 728.689L210.801 733.189L216.061 733.604L211.058 735.28L214.82 738.979L209.91 737.047L210.414 742.299L207.895 737.663L204.906 742.01L205.956 736.84L200.871 738.248L204.999 734.963L200.199 732.773L205.473 732.91L203.203 728.147Z" fill="#063885"/>
<path opacity="0.98" d="M228.975 724.712L224.528 731.435L232.536 732.35L224.809 734.642L230.355 740.49L222.962 737.279L223.452 745.324L219.853 738.112L215.056 744.59L216.935 736.751L209.097 738.631L215.575 733.834L208.362 730.235L216.408 730.724L213.196 723.331L219.045 728.878L221.337 721.15L222.252 729.159L228.975 724.712Z" fill="#063885"/>
<path opacity="0.96" d="M357.758 737.894L357.291 731.977L352.229 735.077L355.674 730.244L349.804 729.364L355.55 727.877L351.618 723.43L356.977 725.983L356.823 720.05L359.286 725.45L362.983 720.806L361.398 726.526L367.215 725.345L362.324 728.708L367.54 731.542L361.631 730.975L363.805 736.498L359.643 732.266L357.758 737.894Z" fill="#063885"/>
</g>
<defs>
<filter id="filter0_b" x="279.738" y="773.705" width="34.1479" height="26.7068" filterUnits="userSpaceOnUse" color-interpolation-filters="sRGB">
<feFlood flood-opacity="0" result="BackgroundImageFix"/>
<feGaussianBlur in="BackgroundImage" stdDeviation="2"/>
<feComposite in2="SourceAlpha" operator="in" result="effect1_backgroundBlur"/>
<feBlend mode="normal" in="SourceGraphic" in2="effect1_backgroundBlur" result="shape"/>
</filter>
<filter id="filter1_b" x="315.401" y="779.839" width="34.1479" height="26.7068" filterUnits="userSpaceOnUse" color-interpolation-filters="sRGB">
<feFlood flood-opacity="0" result="BackgroundImageFix"/>
<feGaussianBlur in="BackgroundImage" stdDeviation="2"/>
<feComposite in2="SourceAlpha" operator="in" result="effect1_backgroundBlur"/>
<feBlend mode="normal" in="SourceGraphic" in2="effect1_backgroundBlur" result="shape"/>
</filter>
<filter id="filter2_b" x="82.061" y="520.335" width="41.2972" height="31.0911" filterUnits="userSpaceOnUse" color-interpolation-filters="sRGB">
<feFlood flood-opacity="0" result="BackgroundImageFix"/>
<feGaussianBlur in="BackgroundImage" stdDeviation="2"/>
<feComposite in2="SourceAlpha" operator="in" result="effect1_backgroundBlur"/>
<feBlend mode="normal" in="SourceGraphic" in2="effect1_backgroundBlur" result="shape"/>
</filter>
<filter id="filter3_b" x="131.609" y="516.537" width="41.2972" height="31.0911" filterUnits="userSpaceOnUse" color-interpolation-filters="sRGB">
<feFlood flood-opacity="0" result="BackgroundImageFix"/>
<feGaussianBlur in="BackgroundImage" stdDeviation="2"/>
<feComposite in2="SourceAlpha" operator="in" result="effect1_backgroundBlur"/>
<feBlend mode="normal" in="SourceGraphic" in2="effect1_backgroundBlur" result="shape"/>
</filter>
<filter id="filter4_d" x="67.5402" y="19.7173" width="289.452" height="31.2914" filterUnits="userSpaceOnUse" color-interpolation-filters="sRGB">
<feFlood flood-opacity="0" result="BackgroundImageFix"/>
<feColorMatrix in="SourceAlpha" type="matrix" values="0 0 0 0 0 0 0 0 0 0 0 0 0 0 0 0 0 0 127 0"/>
<feOffset dx="2.51012" dy="3.13765"/>
<feGaussianBlur stdDeviation="1.25506"/>
<feColorMatrix type="matrix" values="0 0 0 0 1 0 0 0 0 1 0 0 0 0 1 0 0 0 0.4 0"/>
<feBlend mode="normal" in2="BackgroundImageFix" result="effect1_dropShadow"/>
<feBlend mode="normal" in="SourceGraphic" in2="effect1_dropShadow" result="shape"/>
</filter>
<clipPath id="clip0">
<rect width="414" height="896" fill="white" transform="translate(0.262939)"/>
</clipPath>
</defs>
</svg>
