<svg width="376" height="668" viewBox="0 0 376 668" fill="none" xmlns="http://www.w3.org/2000/svg">
<g clip-path="url(#clip0)">
<rect width="375" height="667" transform="translate(0.263 0.5)" fill="#3C576A"/>
<g opacity="0.78">
<path d="M351.397 144.247C351.397 173.031 328.063 196.365 299.279 196.365C270.495 196.365 247.161 173.031 247.161 144.247C247.161 115.463 270.495 92.1295 299.279 92.1295C328.063 92.1295 351.397 115.463 351.397 144.247Z" fill="#4E4949"/>
<path fill-rule="evenodd" clip-rule="evenodd" d="M299.279 194.171C326.887 194.171 349.227 171.796 349.227 144.247C349.227 116.698 326.887 94.3239 299.279 94.3239C271.672 94.3239 249.332 116.698 249.332 144.247C249.332 171.796 271.672 194.171 299.279 194.171ZM299.279 196.365C328.063 196.365 351.397 173.031 351.397 144.247C351.397 115.463 328.063 92.1295 299.279 92.1295C270.495 92.1295 247.161 115.463 247.161 144.247C247.161 173.031 270.495 196.365 299.279 196.365Z" fill="black"/>
<path d="M340.973 144.247C340.973 167.274 322.306 185.941 299.279 185.941C276.252 185.941 257.585 167.274 257.585 144.247C257.585 121.22 276.252 102.553 299.279 102.553C322.306 102.553 340.973 121.22 340.973 144.247Z" fill="#525252"/>
<path fill-rule="evenodd" clip-rule="evenodd" d="M299.279 184.625C321.601 184.625 339.671 166.534 339.671 144.247C339.671 121.961 321.601 103.87 299.279 103.87C276.958 103.87 258.887 121.961 258.887 144.247C258.887 166.534 276.958 184.625 299.279 184.625ZM299.279 185.941C322.306 185.941 340.973 167.274 340.973 144.247C340.973 121.22 322.306 102.553 299.279 102.553C276.252 102.553 257.585 121.22 257.585 144.247C257.585 167.274 276.252 185.941 299.279 185.941Z" fill="black"/>
<path d="M318.331 126.328C321.446 120.909 322.454 118.435 325.955 113.725C321.638 110.237 319.487 108.373 313.519 106.431C310.584 111.269 307.916 113.619 304.592 118.408C300.243 118.976 297.984 120.248 294.441 125.119C293.119 127.757 293.088 129.055 294.431 131C290.24 133.776 290.15 136.568 294.489 139.257C295.581 142.278 296.771 143.194 299.783 143.618C302.658 145.867 303.831 146.002 306.221 144.798C309.915 147.445 311.583 146.13 314.092 140.53C316.572 133.77 318.281 129.503 317.6 127.478C318.094 127.044 318.209 126.789 318.331 126.328Z" fill="#0116D1"/>
<path fill-rule="evenodd" clip-rule="evenodd" d="M313.471 106.3L313.552 106.326C319.294 108.195 321.52 109.996 325.502 113.218C325.672 113.356 325.846 113.496 326.023 113.64L326.105 113.706L326.042 113.791C323.52 117.183 322.297 119.41 320.64 122.424C320.001 123.585 319.299 124.863 318.433 126.37C318.372 126.598 318.31 126.785 318.198 126.97C318.093 127.146 317.946 127.313 317.725 127.512C317.882 128.03 317.896 128.672 317.796 129.435C317.692 130.234 317.463 131.175 317.136 132.26C316.595 134.055 315.784 136.255 314.818 138.874C314.616 139.42 314.408 139.985 314.194 140.569L314.192 140.572L314.191 140.576C313.563 141.977 312.986 143.116 312.414 143.992C311.843 144.868 311.273 145.491 310.656 145.852C309.416 146.577 308.039 146.223 306.212 144.926C305.039 145.51 304.136 145.779 303.166 145.611C302.191 145.443 301.166 144.837 299.74 143.723C298.242 143.509 297.176 143.171 296.348 142.497C295.521 141.824 294.945 140.828 294.4 139.33C292.245 137.988 291.149 136.596 291.153 135.161C291.157 133.742 292.238 132.342 294.279 130.971C293.643 130.028 293.323 129.218 293.328 128.319C293.334 127.395 293.682 126.392 294.344 125.069L294.348 125.061L294.353 125.054C296.128 122.614 297.588 121.066 299.156 120.057C300.715 119.055 302.372 118.591 304.531 118.306C305.954 116.258 307.258 114.656 308.512 113.114C308.715 112.865 308.917 112.616 309.118 112.368C310.566 110.579 311.963 108.786 313.427 106.373L313.471 106.3ZM313.567 106.562C312.112 108.95 310.721 110.733 309.286 112.507C309.084 112.756 308.882 113.005 308.679 113.255C307.417 114.806 306.11 116.412 304.681 118.471L304.654 118.511L304.606 118.517C302.44 118.8 300.806 119.256 299.273 120.242C297.74 121.228 296.3 122.749 294.534 125.176C293.877 126.488 293.55 127.451 293.545 128.32C293.541 129.186 293.856 129.975 294.52 130.938L294.584 131.03L294.491 131.092C292.401 132.476 291.374 133.84 291.37 135.161C291.366 136.481 292.382 137.823 294.546 139.163L294.578 139.183L294.591 139.219C295.135 140.723 295.696 141.685 296.484 142.326C297.272 142.967 298.299 143.298 299.798 143.51L299.827 143.514L299.85 143.531C301.286 144.655 302.28 145.236 303.202 145.395C304.119 145.553 304.984 145.299 306.173 144.7L306.231 144.671L306.284 144.709C308.124 146.027 309.414 146.325 310.547 145.662C311.122 145.325 311.67 144.734 312.233 143.871C312.795 143.01 313.366 141.885 313.992 140.489C314.206 139.905 314.414 139.341 314.615 138.795C315.581 136.176 316.39 133.984 316.928 132.196C317.253 131.116 317.479 130.188 317.581 129.406C317.683 128.623 317.66 127.996 317.498 127.513L317.474 127.443L317.529 127.395C317.772 127.182 317.915 127.019 318.013 126.856C318.11 126.694 318.166 126.527 318.227 126.299L318.23 126.285L318.238 126.273C319.103 124.768 319.805 123.489 320.445 122.326C322.091 119.332 323.317 117.102 325.805 113.744C325.657 113.624 325.511 113.506 325.367 113.39C321.409 110.188 319.211 108.408 313.567 106.562Z" fill="black"/>
<path fill-rule="evenodd" clip-rule="evenodd" d="M311.876 120.593L316.173 114.646L316.349 114.776L312.051 120.722L311.876 120.593ZM312.588 120.809L314.853 117.773L315.026 117.905L312.762 120.941L312.588 120.809ZM309.674 120.464C308.387 119.819 307.592 119.496 306.061 118.971L306.131 118.763C307.669 119.291 308.473 119.617 309.771 120.268L309.674 120.464ZM316.019 125.719C314.918 124.44 314.219 123.768 312.886 122.613L313.028 122.447C314.366 123.607 315.073 124.286 316.183 125.575L316.019 125.719ZM305.523 128.558C303.984 128.904 302.53 128.824 300.75 128.335L300.807 128.124C302.56 128.605 303.978 128.68 305.476 128.344C306.977 128.006 308.565 127.253 310.656 126.064L310.763 126.255C308.669 127.446 307.057 128.213 305.523 128.558ZM299.228 127.272C299.25 127.129 299.25 127.005 299.227 126.881C299.201 126.737 299.144 126.602 299.063 126.448L298.871 126.551C298.948 126.696 298.993 126.809 299.014 126.921C299.034 127.031 299.032 127.148 299.003 127.301L298.844 127.833C298.758 127.812 298.67 127.796 298.581 127.785C298.129 127.731 297.643 127.809 297.098 127.994L297.167 128.202C297.693 128.023 298.146 127.954 298.555 128.003C298.963 128.052 299.335 128.218 299.701 128.524C300.439 129.141 301.142 130.318 302.024 132.213C302.162 132.598 302.092 133.058 301.876 133.522C301.659 133.987 301.301 134.441 300.889 134.798C300.476 135.156 300.018 135.409 299.605 135.484C299.197 135.558 298.841 135.459 298.596 135.122C298.039 134.357 296.958 133.239 296.022 132.316C295.553 131.854 295.118 131.439 294.801 131.139C294.642 130.989 294.513 130.869 294.423 130.785C294.378 130.743 294.343 130.711 294.319 130.689L294.292 130.664L294.283 130.656C294.283 130.656 294.283 130.656 294.21 130.737C294.137 130.818 294.137 130.818 294.137 130.818L294.138 130.819L294.146 130.826L294.173 130.851C294.197 130.873 294.231 130.905 294.276 130.947C294.366 131.03 294.495 131.15 294.653 131.3C294.969 131.598 295.403 132.012 295.871 132.473C296.808 133.397 297.877 134.504 298.421 135.252C298.726 135.671 299.174 135.785 299.643 135.7C300.107 135.616 300.6 135.338 301.031 134.964C301.462 134.59 301.84 134.112 302.072 133.616C302.303 133.121 302.394 132.595 302.226 132.133L302.225 132.129L302.223 132.124C301.919 131.471 301.634 130.898 301.359 130.4L301.388 130.428L301.632 130.167C302.608 130.366 303.263 130.608 303.738 131.004C304.198 131.386 304.502 131.922 304.757 132.737L304.747 132.758C302.657 137.244 301.267 139.916 299.455 142.701L299.636 142.821C301.444 140.042 302.833 137.377 304.901 132.943L304.908 132.942C305.903 132.866 306.599 132.943 307.16 133.229C307.714 133.511 308.151 134.005 308.612 134.801C308.591 136.416 308.47 137.718 308.065 139.139C307.657 140.57 306.96 142.126 305.782 144.247L305.971 144.354C307.153 142.227 307.859 140.654 308.273 139.2C308.68 137.774 308.805 136.468 308.828 134.874C309.666 134.813 310.356 134.881 310.908 135.097C311.478 135.32 311.906 135.702 312.2 136.276C312.496 136.852 312.658 137.627 312.684 138.635C312.71 139.643 312.6 140.878 312.355 142.369L312.569 142.405C312.815 140.906 312.928 139.657 312.901 138.63C312.875 137.603 312.709 136.792 312.393 136.175C312.074 135.554 311.606 135.135 310.986 134.893C310.386 134.658 309.65 134.591 308.78 134.657C308.316 133.864 307.857 133.339 307.258 133.033C306.662 132.73 305.944 132.651 304.978 132.717C304.714 131.857 304.39 131.262 303.876 130.834C303.357 130.403 302.658 130.152 301.668 129.951C301.351 129.308 301.058 128.827 300.681 128.41C300.308 127.997 299.856 127.651 299.228 127.272ZM301.463 130.028C301.155 129.404 300.875 128.949 300.521 128.558C300.178 128.178 299.76 127.853 299.172 127.494L299.052 127.894C299.326 127.991 299.586 128.143 299.839 128.355C300.321 128.758 300.78 129.377 301.268 130.237L301.463 130.028ZM304.054 130.292C307.296 131.613 309.757 132.418 313.03 131.865L313.066 132.082C309.73 132.645 307.222 131.819 303.973 130.495L304.054 130.292ZM296.035 135.939C296.489 135.228 296.895 134.698 297.539 134.233L297.665 134.411C297.054 134.853 296.666 135.356 296.217 136.058C296.085 136.265 295.948 136.489 295.797 136.734C295.439 137.318 295.008 138.02 294.41 138.876L294.233 138.75C294.827 137.899 295.251 137.207 295.609 136.624C295.76 136.378 295.9 136.151 296.035 135.939Z" fill="black"/>
<path d="M293.709 171.123C290.473 176.469 289.406 177.361 286.558 182.64C284.213 181.801 280.033 180.445 273.496 175.696C276.313 170.786 277.7 167.896 280.289 162.663C278.716 158.525 278.75 155.91 281.305 150.444C282.973 148.014 284.089 147.37 286.42 147.64C286.844 142.594 289.231 141.186 293.632 143.769C296.781 143.305 298.143 143.928 299.944 146.406C303.267 147.895 303.941 148.875 304.03 151.573C308.088 153.602 307.737 155.71 304.055 160.603C299.351 166.022 296.449 169.57 294.363 169.926C294.221 170.571 294.053 170.795 293.709 171.123Z" fill="#950000"/>
<path fill-rule="evenodd" clip-rule="evenodd" d="M273.353 175.727L273.433 175.785C279.656 180.306 283.751 181.759 286.158 182.614C286.284 182.658 286.405 182.701 286.522 182.743L286.609 182.774L286.654 182.692C288.076 180.056 289.053 178.516 290.079 176.967C290.26 176.694 290.442 176.42 290.629 176.14C291.5 174.834 292.464 173.389 293.794 171.193C293.964 171.031 294.097 170.886 294.205 170.699C294.308 170.522 294.384 170.312 294.453 170.021C294.978 169.914 295.543 169.621 296.159 169.17C296.805 168.697 297.515 168.046 298.304 167.24C299.609 165.907 301.138 164.139 302.959 162.035C303.338 161.596 303.731 161.143 304.137 160.675L304.139 160.672L304.142 160.669C305.063 159.444 305.78 158.39 306.271 157.465C306.762 156.541 307.033 155.738 307.054 155.017C307.096 153.57 306.134 152.513 304.136 151.504C304.088 150.183 303.892 149.252 303.285 148.468C302.676 147.681 301.661 147.057 300.014 146.318C299.117 145.087 298.315 144.299 297.335 143.883C296.357 143.467 295.216 143.428 293.654 143.655C291.462 142.376 289.73 142.061 288.482 142.747C287.249 143.425 286.545 145.052 286.321 147.519C285.199 147.401 284.342 147.501 283.562 147.933C282.76 148.377 282.052 149.163 281.216 150.381L281.211 150.389L281.207 150.397C279.927 153.135 279.274 155.169 279.141 157.044C279.009 158.907 279.393 160.601 280.171 162.657C279.933 163.137 279.706 163.596 279.487 164.04C277.328 168.412 275.951 171.199 273.403 175.641L273.353 175.727ZM273.64 175.665C276.16 171.266 277.536 168.482 279.681 164.138C279.907 163.681 280.141 163.207 280.386 162.712L280.408 162.669L280.39 162.624C279.607 160.562 279.228 158.891 279.357 157.059C279.487 155.227 280.127 153.223 281.4 150.499C282.229 149.291 282.912 148.543 283.666 148.126C284.417 147.71 285.253 147.616 286.407 147.749L286.518 147.762L286.528 147.65C286.739 145.133 287.438 143.571 288.586 142.94C289.733 142.309 291.383 142.576 293.578 143.864L293.61 143.883L293.648 143.877C295.215 143.646 296.319 143.689 297.251 144.085C298.183 144.481 298.96 145.237 299.856 146.471L299.873 146.495L299.9 146.506C301.56 147.25 302.537 147.858 303.114 148.604C303.688 149.344 303.877 150.234 303.921 151.577L303.924 151.642L303.982 151.671C306.003 152.682 306.875 153.687 306.837 155.011C306.817 155.683 306.563 156.451 306.08 157.361C305.597 158.27 304.889 159.313 303.971 160.533C303.565 161.001 303.173 161.454 302.793 161.893C300.973 163.997 299.45 165.757 298.15 167.086C297.365 167.888 296.664 168.53 296.032 168.992C295.399 169.455 294.843 169.733 294.345 169.818L294.273 169.83L294.257 169.902C294.187 170.219 294.113 170.424 294.018 170.588C293.923 170.752 293.805 170.881 293.635 171.043L293.624 171.053L293.617 171.066C292.286 173.265 291.322 174.709 290.449 176.017C290.262 176.297 290.08 176.571 289.898 176.845C288.88 178.382 287.909 179.912 286.507 182.505C286.418 182.473 286.325 182.44 286.23 182.407C283.841 181.559 279.793 180.122 273.64 175.665Z" fill="black"/>
<path fill-rule="evenodd" clip-rule="evenodd" d="M285.652 168.105L282.518 174.753L282.714 174.848L285.848 168.199L285.652 168.105ZM286.178 168.636L284.612 172.093L284.809 172.185L286.375 168.728L286.178 168.636ZM284.494 166.207C283.32 165.369 282.661 164.815 281.477 163.702L281.329 163.863C282.519 164.981 283.186 165.541 284.368 166.387L284.494 166.207ZM292.081 169.355C290.445 168.983 289.528 168.681 287.89 168.044L287.812 168.249C289.458 168.888 290.384 169.194 292.034 169.569L292.081 169.355ZM289.565 158.669C289.134 157.135 288.374 155.879 287.103 154.528L286.946 154.68C288.198 156.01 288.937 157.236 289.356 158.728C289.775 160.225 289.875 161.995 289.833 164.42L290.05 164.424C290.092 161.995 289.993 160.198 289.565 158.669ZM285.454 153.679C285.341 153.767 285.232 153.826 285.114 153.865C284.976 153.909 284.831 153.923 284.659 153.924L284.658 153.704C284.82 153.703 284.94 153.691 285.048 153.656C285.153 153.622 285.253 153.564 285.373 153.465L285.76 153.071C285.701 153.005 285.645 152.934 285.594 152.86C285.332 152.484 285.168 152.014 285.07 151.441L285.284 151.404C285.379 151.957 285.534 152.393 285.771 152.734C286.007 153.073 286.329 153.325 286.769 153.505C287.656 153.868 289.014 153.935 291.083 153.819C291.483 153.759 291.851 153.478 292.152 153.065C292.453 152.652 292.678 152.117 292.793 151.581C292.909 151.044 292.911 150.516 292.78 150.113C292.651 149.714 292.395 149.445 291.985 149.387C291.056 149.255 289.569 148.825 288.321 148.431C287.695 148.233 287.128 148.044 286.716 147.903C286.511 147.833 286.344 147.776 286.229 147.736C286.171 147.715 286.126 147.7 286.096 147.689L286.061 147.677L286.05 147.673C286.05 147.673 286.05 147.673 286.086 147.569C286.122 147.466 286.122 147.466 286.122 147.466L286.122 147.466L286.133 147.47L286.167 147.482C286.198 147.492 286.242 147.508 286.3 147.528C286.414 147.568 286.581 147.626 286.786 147.696C287.196 147.835 287.762 148.024 288.386 148.221C289.635 148.616 291.106 149.041 292.016 149.17C292.526 149.242 292.837 149.586 292.986 150.044C293.134 150.497 293.126 151.067 293.006 151.628C292.885 152.19 292.649 152.753 292.327 153.195C292.006 153.636 291.591 153.967 291.11 154.037L291.105 154.038L291.1 154.038C290.387 154.078 289.753 154.097 289.19 154.089L289.228 154.101L289.116 154.442C289.753 155.216 290.275 155.684 290.845 155.919C291.396 156.146 292.007 156.162 292.838 156.001L292.852 155.983C295.762 151.992 297.427 149.485 298.99 146.55L299.181 146.654C297.621 149.583 295.962 152.085 293.085 156.032L293.088 156.038C293.495 156.96 293.893 157.542 294.408 157.905C294.916 158.264 295.554 158.418 296.466 158.45C297.862 157.664 298.937 156.937 299.981 155.902C301.033 154.859 302.056 153.5 303.341 151.444L303.525 151.561C302.235 153.623 301.202 154.999 300.133 156.059C299.085 157.098 298.008 157.829 296.632 158.607C296.977 159.382 297.364 159.964 297.815 160.352C298.279 160.753 298.815 160.952 299.454 160.941C300.096 160.931 300.847 160.707 301.738 160.251C302.627 159.795 303.649 159.11 304.83 158.184L304.963 158.357C303.776 159.288 302.742 159.982 301.836 160.447C300.93 160.911 300.145 161.149 299.457 161.161C298.766 161.172 298.179 160.955 297.674 160.519C297.184 160.097 296.776 159.473 296.42 158.668C295.51 158.632 294.834 158.473 294.284 158.085C293.737 157.7 293.327 157.098 292.925 156.208C292.051 156.381 291.38 156.376 290.764 156.122C290.141 155.866 289.59 155.362 288.945 154.577C288.235 154.601 287.677 154.569 287.135 154.432C286.598 154.296 286.083 154.058 285.454 153.679ZM288.915 154.359C288.226 154.381 287.697 154.348 287.188 154.219C286.694 154.094 286.213 153.877 285.621 153.524L285.913 153.227C286.127 153.425 286.383 153.584 286.687 153.709C287.267 153.946 288.024 154.06 289.004 154.085L288.915 154.359ZM290.375 156.538C293.066 158.795 294.936 160.601 296.01 163.776L296.215 163.705C295.121 160.469 293.21 158.63 290.514 156.369L290.375 156.538ZM291.48 146.721C291.077 147.463 290.809 148.075 290.71 148.87L290.925 148.897C291.019 148.143 291.273 147.559 291.67 146.826C291.787 146.611 291.917 146.382 292.059 146.132C292.397 145.535 292.803 144.818 293.264 143.879L293.07 143.782C292.612 144.715 292.212 145.421 291.874 146.016C291.731 146.268 291.6 146.5 291.48 146.721Z" fill="black"/>
<path d="M287.523 100.652C286.87 100.613 286.375 100.497 286.037 100.302C285.701 100.105 285.491 99.8151 285.406 99.4338C285.31 99.0023 285.4 98.6073 285.678 98.249C285.957 97.8875 286.37 97.6447 286.916 97.5204C287.288 97.4357 287.635 97.433 287.958 97.5125C288.283 97.5913 288.554 97.7406 288.769 97.9604C288.988 98.1796 289.131 98.4409 289.198 98.7445L288.48 98.908C288.406 98.5768 288.244 98.3409 287.994 98.2002C287.743 98.057 287.428 98.0286 287.048 98.115C286.696 98.1952 286.438 98.3369 286.274 98.5402C286.113 98.7403 286.063 98.9796 286.125 99.2581C286.175 99.4814 286.31 99.6496 286.531 99.7628C286.754 99.8729 287.104 99.9408 287.581 99.9666C288.062 99.9917 288.446 100.053 288.733 100.151C289.023 100.246 289.251 100.383 289.419 100.561C289.589 100.738 289.705 100.966 289.767 101.244C289.866 101.689 289.774 102.084 289.491 102.43C289.208 102.774 288.78 103.011 288.206 103.142C287.834 103.226 287.471 103.234 287.116 103.164C286.761 103.092 286.468 102.951 286.236 102.74C286.006 102.529 285.856 102.264 285.785 101.945L286.503 101.782C286.577 102.113 286.756 102.348 287.04 102.486C287.325 102.621 287.67 102.643 288.075 102.551C288.452 102.465 288.724 102.321 288.89 102.12C289.056 101.919 289.11 101.684 289.05 101.416C288.99 101.147 288.851 100.961 288.633 100.858C288.413 100.752 288.044 100.684 287.523 100.652Z" fill="white"/>
<path d="M313.82 100.9L311.494 100.274L310.988 102.198L313.69 102.925L313.536 103.51L310.126 102.592L311.554 97.165L314.928 98.0726L314.773 98.6615L312.107 97.9444L311.648 99.689L313.974 100.315L313.82 100.9Z" fill="white"/>
<path d="M299.363 98.5495L300.813 95.7297H301.645L299.73 99.2515V101.346H298.997V99.2515L297.082 95.7297H297.921L299.363 98.5495Z" fill="white"/>
<path d="M307.745 102.084L307.015 101.985L304.812 97.3202L304.243 101.61L303.514 101.511L304.251 95.9443L304.981 96.0432L307.189 100.729L307.761 96.4198L308.483 96.5177L307.745 102.084Z" fill="white"/>
<path d="M295.076 99.068L292.689 99.3856L292.946 101.359L295.718 100.99L295.797 101.591L292.298 102.056L291.573 96.4877L295.034 96.0272L295.113 96.6315L292.378 96.9954L292.611 98.7852L294.998 98.4676L295.076 99.068Z" fill="white"/>
<path d="M281.05 187.658C280.852 188.114 280.568 188.426 280.198 188.594C279.831 188.761 279.406 188.769 278.924 188.62C278.401 188.458 278.039 188.138 277.837 187.661C277.638 187.185 277.635 186.629 277.827 185.994L277.957 185.564C278.083 185.148 278.267 184.805 278.509 184.534C278.752 184.264 279.034 184.087 279.355 184.003C279.676 183.916 280.014 183.928 280.368 184.038C280.839 184.183 281.175 184.433 281.378 184.787C281.582 185.14 281.636 185.558 281.54 186.041L280.954 185.86C281.011 185.487 280.979 185.195 280.857 184.982C280.737 184.77 280.525 184.617 280.221 184.523C279.848 184.408 279.513 184.456 279.216 184.669C278.921 184.883 278.695 185.246 278.539 185.761L278.408 186.194C278.261 186.68 278.244 187.097 278.358 187.446C278.472 187.795 278.709 188.025 279.07 188.137C279.394 188.238 279.665 188.241 279.882 188.147C280.101 188.051 280.295 187.827 280.464 187.476L281.05 187.658Z" fill="white"/>
<path d="M311.38 187.28L309.939 187.658L310.976 191.697L310.388 191.851L309.352 187.812L307.914 188.19L307.788 187.698L311.253 186.789L311.38 187.28Z" fill="white"/>
<path d="M291.957 190.659L291.745 192.479L291.139 192.407L291.68 187.759L293.376 187.96C293.879 188.02 294.258 188.197 294.511 188.49C294.768 188.784 294.871 189.145 294.821 189.573C294.768 190.024 294.588 190.355 294.279 190.567C293.973 190.776 293.56 190.85 293.04 190.788L291.957 190.659ZM292.016 190.158L293.105 190.288C293.429 190.326 293.686 190.279 293.877 190.147C294.068 190.012 294.18 189.799 294.214 189.507C294.246 189.23 294.186 188.999 294.032 188.812C293.879 188.626 293.652 188.511 293.352 188.469L292.228 188.335L292.016 190.158Z" fill="white"/>
<path d="M288.485 189.745L287.418 189.529L287.051 191.386L286.449 191.264L287.358 186.675L288.86 186.979C289.372 187.082 289.741 187.279 289.969 187.57C290.199 187.862 290.269 188.232 290.18 188.682C290.124 188.967 289.997 189.201 289.802 189.382C289.608 189.564 289.364 189.679 289.071 189.729L289.752 191.893L289.745 191.931L289.102 191.801L288.485 189.745ZM287.516 189.035L288.436 189.221C288.733 189.281 288.985 189.251 289.19 189.13C289.397 189.011 289.527 188.821 289.578 188.56C289.635 188.276 289.593 188.042 289.455 187.856C289.319 187.672 289.093 187.546 288.777 187.48L287.861 187.295L287.516 189.035Z" fill="white"/>
<path d="M301.922 191.18H300.834V193.073H300.221V188.393H301.753C302.275 188.393 302.675 188.513 302.955 188.753C303.237 188.993 303.378 189.342 303.378 189.801C303.378 190.092 303.299 190.346 303.143 190.563C302.988 190.779 302.772 190.941 302.494 191.048L303.581 193.035V193.073H302.926L301.922 191.18ZM300.834 190.675H301.772C302.075 190.675 302.316 190.596 302.494 190.437C302.674 190.279 302.764 190.067 302.764 189.801C302.764 189.512 302.678 189.29 302.507 189.136C302.337 188.981 302.091 188.903 301.769 188.901H300.834V190.675Z" fill="white"/>
<path d="M285.809 188.563C285.711 189.011 285.551 189.385 285.328 189.686C285.106 189.986 284.839 190.192 284.527 190.307C284.216 190.421 283.878 190.437 283.513 190.356C283.158 190.276 282.861 190.117 282.625 189.879C282.389 189.64 282.23 189.339 282.148 188.979C282.07 188.616 282.075 188.219 282.166 187.787L282.238 187.458C282.335 187.019 282.496 186.647 282.721 186.345C282.946 186.042 283.216 185.832 283.53 185.716C283.847 185.599 284.183 185.58 284.539 185.66C284.901 185.741 285.2 185.902 285.436 186.141C285.675 186.379 285.832 186.683 285.907 187.054C285.982 187.422 285.971 187.829 285.873 188.274L285.809 188.563ZM285.281 188.135C285.4 187.593 285.384 187.154 285.232 186.817C285.081 186.477 284.812 186.264 284.425 186.177C284.048 186.093 283.72 186.172 283.438 186.414C283.16 186.654 282.961 187.031 282.842 187.544L282.768 187.88C282.652 188.405 282.67 188.842 282.821 189.192C282.975 189.541 283.243 189.758 283.626 189.844C284.011 189.93 284.34 189.856 284.613 189.621C284.886 189.384 285.084 189.002 285.207 188.474L285.281 188.135Z" fill="white"/>
<path d="M318.478 186.332C318.622 186.767 318.676 187.171 318.64 187.545C318.603 187.917 318.48 188.234 318.272 188.495C318.063 188.755 317.782 188.946 317.429 189.066C317.083 189.184 316.749 189.203 316.425 189.123C316.1 189.041 315.811 188.868 315.556 188.601C315.304 188.332 315.106 187.989 314.962 187.572L314.856 187.252C314.714 186.826 314.662 186.424 314.699 186.047C314.737 185.67 314.861 185.35 315.071 185.087C315.282 184.82 315.56 184.628 315.905 184.511C316.257 184.391 316.595 184.372 316.92 184.454C317.246 184.533 317.535 184.711 317.789 184.989C318.042 185.265 318.24 185.619 318.384 186.052L318.478 186.332ZM317.807 186.241C317.632 185.715 317.393 185.348 317.091 185.139C316.788 184.927 316.448 184.886 316.073 185.013C315.707 185.138 315.466 185.377 315.349 185.731C315.233 186.083 315.256 186.509 315.416 187.011L315.525 187.337C315.694 187.847 315.933 188.212 316.242 188.433C316.551 188.65 316.892 188.696 317.263 188.57C317.637 188.443 317.881 188.207 317.994 187.863C318.107 187.517 318.081 187.086 317.916 186.57L317.807 186.241Z" fill="white"/>
<path d="M299.227 190.884C299.227 191.343 299.15 191.744 298.998 192.086C298.845 192.427 298.629 192.688 298.349 192.868C298.069 193.048 297.743 193.138 297.37 193.138C297.005 193.138 296.682 193.048 296.4 192.868C296.118 192.685 295.899 192.427 295.742 192.093C295.587 191.756 295.508 191.368 295.504 190.926V190.589C295.504 190.138 295.581 189.741 295.736 189.396C295.89 189.051 296.109 188.787 296.391 188.605C296.675 188.421 296.999 188.329 297.363 188.329C297.734 188.329 298.061 188.42 298.343 188.602C298.627 188.782 298.845 189.044 298.998 189.39C299.15 189.732 299.227 190.132 299.227 190.589V190.884ZM298.619 190.582C298.619 190.027 298.509 189.602 298.289 189.306C298.068 189.008 297.76 188.859 297.363 188.859C296.978 188.859 296.674 189.008 296.451 189.306C296.231 189.602 296.117 190.013 296.111 190.54V190.884C296.111 191.422 296.222 191.845 296.445 192.154C296.669 192.46 296.978 192.614 297.37 192.614C297.764 192.614 298.069 192.469 298.285 192.18C298.502 191.888 298.613 191.471 298.619 190.929V190.582Z" fill="white"/>
<path d="M307.207 191.281L305.293 191.596L305.057 192.872L304.436 192.975L305.437 188.068L305.964 187.981L308.456 192.312L307.838 192.414L307.207 191.281ZM305.394 191.065L306.948 190.809L305.821 188.776L305.394 191.065Z" fill="white"/>
<path d="M323.742 186.144L323.2 186.434L319.47 184.35L321.14 187.537L320.598 187.827L318.431 183.691L318.973 183.401L322.716 185.496L321.038 182.295L321.575 182.008L323.742 186.144Z" fill="white"/>
<path d="M314.672 190.346L314.087 190.521L312.777 186.032L313.363 185.857L314.672 190.346Z" fill="white"/>
<path opacity="0.81" d="M76.3811 32.3742L69.8174 35.7937L75.8413 40.0935L68.6152 38.4939L70.466 45.6598L65.9586 39.7896L62.7702 46.4687L63.0907 39.0745L56.355 42.1416L61.3534 36.6833L54.2221 34.7032L61.5596 33.7348L57.3695 27.634L63.6128 31.6087L64.3245 24.2419L66.5523 31.2997L71.8328 26.1139L69.0027 32.9525L76.3811 32.3742Z" fill="#063885"/>
<path opacity="0.73" d="M181.333 12.5253L189.562 10.3944L183.931 4.02632L191.605 7.68332L191.385 -0.814092L194.912 6.91968L200.206 0.269005L197.937 8.46083L206.267 6.76881L199.264 11.5856L206.732 15.644L198.271 14.832L201.384 22.7418L195.424 16.6809L192.724 24.741L192.055 16.2672L184.806 20.7062L189.74 13.7844L181.333 12.5253Z" fill="#063885"/>
<path opacity="0.72" d="M262.524 48.0333L254.72 50.7998L260.724 56.5016L252.967 53.6042L253.902 61.8317L249.822 54.6261L245.25 61.5296L246.756 53.3873L238.816 55.7366L245.204 50.4675L237.611 47.1633L245.891 47.2329L242.199 39.8213L248.497 45.197L250.433 37.146L251.802 45.3124L258.46 40.3891L254.26 47.5251L262.524 48.0333Z" fill="#063885"/>
<path opacity="0.77" d="M288.23 129.356L288.902 122.354L282.356 124.93L287.372 119.998L280.702 117.763L287.715 117.209L284.041 111.21L289.769 115.293L290.811 108.336L292.575 115.146L297.845 110.487L294.819 116.837L301.851 116.655L295.451 119.574L300.955 123.955L294.175 122.077L295.575 128.971L291.589 123.175L288.23 129.356Z" fill="#063885"/>
<path opacity="0.81" d="M79.5462 192.575L86.5695 195.339L85.8485 187.826L89.452 194.457L93.7291 188.239L92.2267 195.635L99.5004 193.621L93.5951 198.321L100.462 201.453L92.917 201.258L96.1642 208.071L90.5098 203.072L88.6177 210.379L87.4997 202.914L81.3536 207.295L85.2952 200.858L77.771 200.264L84.9278 197.867L79.5462 192.575Z" fill="#063885"/>
<path opacity="0.91" d="M119.746 190.49L113.893 185.495L112.095 192.976L110.822 185.388L104.636 189.963L108.539 183.332L100.859 182.86L108.111 180.289L102.532 174.991L109.74 177.683L108.871 170.038L112.662 176.734L116.911 170.319L115.511 177.885L122.889 175.702L116.954 180.598L124.009 183.668L116.315 183.604L119.746 190.49Z" fill="#063885"/>
<path opacity="0.81" d="M178.161 185.911L179.296 177.265L171.075 180.173L177.503 174.28L169.336 171.223L178.047 170.84L173.756 163.249L180.676 168.555L182.267 159.982L184.157 168.495L190.888 162.95L186.864 170.686L195.584 170.765L187.528 174.105L194.157 179.77L185.84 177.151L187.277 185.752L182.589 178.399L178.161 185.911Z" fill="#063885"/>
<path opacity="0.74" d="M374.637 226.755L381.406 232.135L383.133 223.663L384.859 232.135L391.628 226.755L387.505 234.355L396.148 234.584L388.104 237.756L394.579 243.487L386.378 240.746L387.653 249.298L383.133 241.927L378.612 249.298L379.888 240.746L371.687 243.487L378.161 237.756L370.117 234.584L378.761 234.355L374.637 226.755Z" fill="#063885"/>
<path opacity="0.96" d="M1.62693 400.34L3.23702 396.249L-1.13956 396.669L2.72365 394.569L-0.898974 392.078L3.40972 392.953L2.23611 388.716L4.97421 392.156L6.79876 388.156L6.68507 392.551L10.6541 390.659L7.74178 393.953L11.9981 395.056L7.64988 395.707L10.2019 399.287L6.45239 396.991L6.10603 401.374L4.70961 397.205L1.62693 400.34Z" fill="#063885"/>
<path opacity="0.93" d="M145.47 415.252L140.869 413.157L141.088 418.208L138.91 413.646L135.83 417.656L137.095 412.76L132.158 413.853L136.273 410.916L131.789 408.58L136.83 408.975L134.897 404.303L138.504 407.845L140.026 403.024L140.512 408.057L144.777 405.341L141.915 409.509L146.928 410.171L142.056 411.523L145.47 415.252Z" fill="#063885"/>
<path opacity="0.72" d="M189.366 363.37L185.86 360.481L184.875 364.917L184.046 360.45L180.44 363.214L182.676 359.259L178.137 359.06L182.392 357.467L179.044 354.397L183.327 355.912L182.735 351.408L185.042 355.321L187.485 351.49L186.736 355.972L191.07 354.607L187.616 357.559L191.813 359.298L187.27 359.34L189.366 363.37Z" fill="#063885"/>
<path opacity="0.85" d="M329.44 344.42L328.365 337.245L322.458 341.456L326.246 335.269L319.014 334.698L325.893 332.394L320.721 327.307L327.471 329.964L326.778 322.743L330.242 329.117L334.353 323.14L332.909 330.249L339.9 328.312L334.224 332.83L340.824 335.841L333.572 335.653L336.693 342.202L331.258 337.397L329.44 344.42Z" fill="#063885"/>
<path opacity="0.72" d="M16.1259 663.605L10.2884 660.697L10.3432 667.219L7.74079 661.239L3.59084 666.27L5.44112 660.016L-0.971796 661.202L4.46545 657.601L-1.20977 654.388L5.27029 655.124L2.98828 649.014L7.47906 653.744L9.65803 647.597L10.0582 654.106L15.6786 650.798L11.801 656.042L18.233 657.12L11.8919 658.645L16.1259 663.605Z" fill="#063885"/>
<path opacity="0.77" d="M105.924 612.109L99.1409 612.765L102.801 618.513L97.1832 614.655L96.2915 621.411L94.4682 614.845L89.4423 619.448L92.2664 613.245L85.4579 613.54L91.608 610.605L86.2027 606.454L92.8011 608.158L91.3282 601.505L95.2873 607.051L98.436 601.008L97.9035 607.802L104.2 605.196L99.4254 610.058L105.924 612.109Z" fill="#063885"/>
<path opacity="0.7" d="M192.848 608.004L195.249 604.233L190.8 603.803L195.062 602.458L191.93 599.269L196.06 600.978L195.711 596.522L197.776 600.486L200.373 596.848L199.407 601.212L203.735 600.094L200.19 602.816L204.224 604.742L199.758 604.549L201.61 608.617L198.314 605.598L197.118 609.905L196.533 605.473L192.848 608.004Z" fill="#063885"/>
<path opacity="0.71" d="M364.027 654.897L358.99 653.596L360.114 658.676L357.091 654.442L354.688 659.056L355.094 653.869L350.287 655.858L353.932 652.146L348.971 650.58L354.149 650.08L351.355 645.691L355.644 648.637L356.325 643.479L357.717 648.492L361.554 644.978L359.398 649.713L364.596 649.488L359.9 651.729L364.027 654.897Z" fill="#063885"/>
</g>
<g opacity="0.5">
<g filter="url(#filter0_b)">
<path d="M285.379 579.16C279.103 579.466 275.316 581.832 268.458 587.246M285.418 578.782C277.731 577.858 273.467 579.844 265.877 584.113M285.515 578.217C278.416 576.556 273.534 577.323 263.866 580.497" stroke="black" stroke-width="3" stroke-linecap="round"/>
</g>
<g filter="url(#filter1_b)">
<path d="M300.369 581.738C306.183 584.123 308.962 587.619 313.617 595.013M300.459 581.369C308.014 583.066 311.369 586.362 317.097 592.923M300.556 580.804C307.802 581.61 312.148 583.964 320.2 590.186" stroke="black" stroke-width="3" stroke-linecap="round"/>
</g>
<path fill-rule="evenodd" clip-rule="evenodd" d="M278.558 560.643C286.225 560.628 290.469 562.691 288.595 568.156C288.611 567.762 288.525 567.545 288.192 567.173C282.83 567.691 281.13 565.894 280.894 561.598C280.528 561.052 279.892 560.882 278.558 560.643ZM282.058 563.263C281.837 562.98 281.768 563.045 281.833 563.379C282.622 566.047 283.97 566.981 286.666 565.921C287 565.79 286.903 565.649 286.592 565.703C283.897 566.318 282.996 565.286 282.058 563.263Z" fill="#252324"/>
<ellipse cx="283.765" cy="563.458" rx="0.642308" ry="0.571461" transform="rotate(9.75878 283.765 563.458)" fill="#0594A7"/>
<path fill-rule="evenodd" clip-rule="evenodd" d="M322.328 567.668C322.87 574.383 320.888 578.124 314.277 584.767C315.78 581.274 315.108 579.932 312.054 578.292C309.869 577.24 308.546 576.725 305.955 575.982C299.88 573.646 298.058 571.773 299.146 566.884C299.516 558.566 296.481 553.998 287.012 552.658C283.245 551.555 282.437 550.246 282.04 547.359C281.444 540.081 280.54 536.795 276.11 533.64C274.512 532.694 273.17 532.868 272.274 534.56C269.792 538.259 269.539 542.367 271.043 549.182C269.614 553.844 269.58 556.166 270.842 559.794C269.127 562.83 269.181 565.177 270.246 569.979C268.395 565.997 267.999 563.697 269.43 559.37C268.249 555.342 268.302 553.136 269.355 549.27C268.243 540.103 268.711 536.255 271.97 532.257C273.316 531.102 274.187 531.046 275.811 531.3C280.177 533.986 282.341 537.033 284.889 540.619L284.889 540.619L284.889 540.619L284.889 540.619C285.687 541.743 286.523 542.92 287.477 544.155C296.071 542.285 300.955 542.998 309.785 547.516C315.238 543.004 318.352 541.225 324.014 539.448C326.775 539.31 327.637 539.827 328.383 541.436C330.191 548.822 329.033 553.472 323.757 562.518C322.734 564.415 322.448 565.55 322.328 567.668ZM323.521 559.9C321.393 561.71 319.987 560.82 319.531 557.721C319.219 556.744 318.511 556.466 316.353 556.428C312.566 558.18 309.259 552.248 313.125 548.644C317.351 544.516 319.824 542.822 324.51 541.461C325.751 541.245 326.249 541.471 326.738 542.575C327.707 548.763 326.961 552.405 323.521 559.9ZM310.707 567.008C311.053 566.682 311.199 566.761 311.039 567.249C308.395 571.092 306.05 572.258 301.755 569.892C301.308 569.574 301.433 569.437 301.914 569.622C306.037 571.472 308.128 570.69 310.707 567.008ZM308.532 567.91C308.705 567.617 308.662 567.533 308.359 567.726C306.799 569.32 305.604 569.991 303.27 568.511C302.995 568.356 302.857 568.457 303.127 568.692C305.315 570.591 306.897 570.162 308.532 567.91ZM311.991 566.691C304.6 564.804 302.058 565.44 300.878 570.134C300.824 570.449 300.674 570.437 300.649 570.095C300.746 564.757 304.869 563.113 312.222 566.446C312.738 566.68 312.623 566.893 311.991 566.691Z" fill="#252324"/>
<ellipse cx="304.148" cy="566.931" rx="0.607168" ry="0.560099" transform="rotate(9.75878 304.148 566.931)" fill="#0594A7"/>
<path d="M292.401 583.284C292.359 582.983 292.379 582.75 292.461 582.262C292.386 582.138 292.329 582.119 292.188 582.215C292.138 582.614 292.087 582.839 291.904 583.243C290.034 584.617 287.409 584.509 285.155 582.988C287.357 584.963 289.442 584.987 292.1 584.36C294.072 586.041 296.882 586.275 298.934 585.358C296.389 586.091 293.571 585.292 292.401 583.284Z" fill="#252324"/>
<path d="M296.61 579.39C297.487 579.036 296.977 577.258 297.772 572.638C297.633 571.171 297.088 576.614 296.435 578.668C295.706 578.073 295.154 577.951 293.972 578.028C293.255 578.085 292.82 578.006 291.988 577.687C291.072 577.244 290.532 577.218 289.53 577.481C290.08 575.201 290.729 570.378 290.378 571.279C289.945 575.069 288.369 577.281 289.17 578.301C290.389 579.326 291.522 579.952 291.192 580.847C291.523 581.352 291.706 581.626 292.408 581.976C293.038 581.902 293.341 581.706 293.855 581.272C293.654 580.338 295.431 580.354 296.61 579.39Z" fill="#252324"/>
</g>
<g opacity="0.5">
<g filter="url(#filter2_b)">
<path d="M83.3483 324.892C77.1723 326.899 74.0082 330.481 68.572 338.195M83.2892 324.471C75.3887 325.517 71.6525 328.813 65.1901 335.479M83.2401 323.83C75.736 323.919 71.0679 326.055 62.2521 332.084" stroke="black" stroke-width="3" stroke-linecap="round"/>
</g>
<g filter="url(#filter3_b)">
<path d="M98.9533 323.696C105.363 324.738 109.036 327.796 115.584 334.591M98.9475 323.271C106.915 323.1 111.11 325.788 118.513 331.391M98.8983 322.63C106.328 321.574 111.267 322.973 120.899 327.588" stroke="black" stroke-width="3" stroke-linecap="round"/>
</g>
<path fill-rule="evenodd" clip-rule="evenodd" d="M71.7672 306.583C79.4049 304.522 84.1679 305.633 83.7115 312.073C83.6255 311.641 83.4831 311.428 83.0555 311.112C77.8449 313.105 75.687 311.606 74.3428 306.999C73.8361 306.503 73.1584 306.488 71.7672 306.583ZM75.9321 308.498C75.6391 308.249 75.5873 308.338 75.738 308.684C77.2133 311.374 78.7978 312.029 81.2115 310.158C81.51 309.927 81.3771 309.8 81.0811 309.941C78.5546 311.328 77.3895 310.447 75.9321 308.498Z" fill="#252324"/>
<ellipse cx="77.6838" cy="308.254" rx="0.660934" ry="0.639893" transform="rotate(-4.38329 77.6838 308.254)" fill="#A70505"/>
<path fill-rule="evenodd" clip-rule="evenodd" d="M117.204 302.544C119.479 309.698 118.469 314.294 113.596 323.279C114.193 319.081 113.176 317.8 109.709 316.833C107.259 316.273 105.808 316.066 103.034 315.949C96.3764 315.03 94.0763 313.48 93.8983 307.876C92.1185 298.736 87.914 294.58 78.1309 295.649C74.0919 295.455 72.9485 294.248 71.8075 291.215C69.3336 283.463 67.5843 280.133 62.3539 277.885C60.5175 277.283 59.2243 277.83 58.7687 279.908C57.2509 284.591 58.0596 289.124 61.3185 296.131C61.0979 301.579 61.6634 304.112 63.8587 307.719C62.9334 311.476 63.5934 314.013 65.8946 318.949C63.021 315.115 62.0327 312.72 62.3416 307.635C60.1238 303.572 59.6069 301.159 59.6584 296.677C56.1825 287.009 55.6558 282.701 57.8714 277.486C58.9141 275.871 59.768 275.578 61.4522 275.421C66.4975 277.176 69.441 279.91 72.9059 283.129C73.992 284.138 75.1292 285.194 76.3984 286.283C84.4804 281.957 89.5322 281.429 99.4994 283.985C103.769 277.626 106.413 274.862 111.597 271.419C114.314 270.533 115.306 270.866 116.465 272.416C120.175 279.961 120.221 285.325 117.299 296.566C116.769 298.9 116.777 300.21 117.204 302.544ZM116.388 293.782C114.734 296.317 113.103 295.725 111.849 292.478C111.284 291.5 110.508 291.386 108.347 291.921C105.025 294.835 100.198 289.269 103.119 284.321C106.266 278.706 108.293 276.205 112.612 273.476C113.792 272.909 114.347 273.023 115.119 274.093C117.683 280.56 117.88 284.718 116.388 293.782ZM105.452 304.927C105.712 304.48 105.879 304.527 105.846 305.1C104.203 309.982 102.166 311.876 97.2753 310.45C96.7475 310.223 96.8362 310.041 97.3636 310.113C101.95 311.025 103.833 309.617 105.452 304.927ZM103.518 306.488C103.614 306.123 103.549 306.043 103.298 306.334C102.154 308.482 101.137 309.53 98.4288 308.544C98.1147 308.45 98.0028 308.596 98.3331 308.779C101.004 310.26 102.47 309.371 103.518 306.488ZM106.65 304.24C98.7962 304.16 96.4277 305.529 96.464 310.947C96.4913 311.304 96.3381 311.33 96.2249 310.965C94.9437 305.137 98.6274 302.25 106.817 303.911C107.392 304.028 107.332 304.29 106.65 304.24Z" fill="#252324"/>
<ellipse cx="98.8959" cy="306.593" rx="0.624775" ry="0.62717" transform="rotate(-4.38329 98.8959 306.593)" fill="#A70505"/>
<path d="M91.4106 327.502C91.2915 327.186 91.2507 326.927 91.2069 326.375C91.0998 326.26 91.038 326.254 90.9228 326.397C90.976 326.844 90.9827 327.102 90.9052 327.59C89.3962 329.582 86.7524 330.164 84.1128 329.113C86.8177 330.672 88.9014 330.142 91.3891 328.752C93.7886 330.053 96.6496 329.558 98.4572 328.014C96.1105 329.489 93.0954 329.373 91.4106 327.502Z" fill="#252324"/>
<path d="M94.6004 322.146C95.3829 321.527 94.4153 319.731 94.0141 314.497C93.4969 312.94 94.3594 319.001 94.2396 321.408C93.3587 320.956 92.7773 320.971 91.6187 321.369C90.9196 321.622 90.4655 321.653 89.5538 321.527C88.5266 321.29 87.9813 321.407 87.051 321.959C87.0108 319.335 86.412 313.919 86.2942 314.992C86.8416 319.227 85.8426 322.052 86.904 322.947C88.3834 323.736 89.6743 324.114 89.5764 325.175C90.0371 325.636 90.2903 325.885 91.0796 326.078C91.6887 325.83 91.9404 325.536 92.3402 324.927C91.8993 323.965 93.6739 323.509 94.6004 322.146Z" fill="#252324"/>
</g>
<path d="M177.608 597.395C145.869 592.163 102.969 571.934 44.3734 581.7C103.666 612.044 132.615 619.717 170.632 667.5L252.247 667.5C247.713 646.224 217.423 616.262 177.608 597.395Z" fill="#53575A"/>
<path fill-rule="evenodd" clip-rule="evenodd" d="M68.1702 488.032C71.323 488.032 73.8789 490.588 73.8789 493.741L73.8789 607.468C73.8789 610.621 71.323 613.177 68.1702 613.177C65.0174 613.177 62.4615 610.621 62.4615 607.468L62.4615 493.741C62.4615 490.588 65.0174 488.032 68.1702 488.032Z" fill="black"/>
<path d="M0.263 572.825C0.263 572.825 66.1873 587.497 116.67 587.497C164.893 587.497 178.89 667.493 178.89 667.493H0.263V572.825Z" fill="#53575A"/>
<path d="M173.572 667.5H151.852C150.222 658.55 148.666 652.822 144.309 640.856C137.511 629.039 131.597 623.302 118.21 614.266C98.6587 602.779 85.9039 597.389 58.1293 590.72C53.9625 588.426 52.1296 586.605 49.8012 582.352L55.5783 583.205L102.606 587.642C120.54 586.361 129.746 589.248 144.309 602.283C160.57 623.032 168.303 641.494 173.572 667.5Z" fill="#63686B"/>
<path d="M159.185 493.384C127.16 502.437 111.568 484.968 71.9245 493.384L71.9245 540.115C111.568 532.142 125.742 547.72 159.185 540.115V493.384Z" fill="#040332" fill-opacity="0.9"/>
<path d="M95.0897 511.587C95.4558 511.587 95.7554 511.559 95.9883 511.504C96.2324 511.437 96.4266 511.354 96.5708 511.254C96.715 511.143 96.8149 511.016 96.8703 510.872C96.9258 510.727 96.9535 510.567 96.9535 510.389C96.9535 510.012 96.776 509.701 96.421 509.457C96.066 509.202 95.4558 508.93 94.5905 508.642C94.2133 508.509 93.8361 508.359 93.4589 508.192C93.0817 508.015 92.7433 507.799 92.4438 507.543C92.1442 507.277 91.9001 506.961 91.7115 506.595C91.5229 506.218 91.4286 505.763 91.4286 505.23C91.4286 504.698 91.5285 504.221 91.7282 503.799C91.9279 503.366 92.2108 503 92.5769 502.701C92.943 502.401 93.3868 502.174 93.9082 502.018C94.4296 501.852 95.0176 501.769 95.6722 501.769C96.4487 501.769 97.1199 501.852 97.6857 502.018C98.2515 502.185 98.7175 502.368 99.0836 502.568L98.3348 504.614C98.013 504.448 97.6525 504.304 97.2531 504.182C96.8648 504.049 96.3933 503.982 95.8386 503.982C95.2173 503.982 94.768 504.071 94.4906 504.248C94.2244 504.415 94.0912 504.676 94.0912 505.031C94.0912 505.241 94.1412 505.419 94.241 505.563C94.3409 505.707 94.4795 505.84 94.657 505.962C94.8456 506.073 95.0564 506.179 95.2894 506.279C95.5335 506.367 95.7997 506.462 96.0882 506.562C96.6873 506.783 97.2087 507.005 97.6525 507.227C98.0962 507.438 98.4623 507.688 98.7508 507.976C99.0503 508.264 99.2722 508.603 99.4164 508.991C99.5607 509.379 99.6328 509.851 99.6328 510.406C99.6328 511.482 99.2556 512.319 98.5012 512.918C97.7468 513.506 96.6096 513.8 95.0897 513.8C94.5794 513.8 94.119 513.767 93.7085 513.701C93.298 513.645 92.9319 513.573 92.6102 513.484C92.2995 513.396 92.0277 513.301 91.7947 513.201C91.5729 513.102 91.3843 513.007 91.2289 512.918L91.9612 510.855C92.3051 511.044 92.7267 511.216 93.2259 511.371C93.7362 511.515 94.3575 511.587 95.0897 511.587Z" fill="#D9D9D9"/>
<path d="M101.048 509.257C101.048 508.481 101.164 507.804 101.397 507.227C101.641 506.639 101.958 506.151 102.346 505.763C102.734 505.374 103.178 505.08 103.677 504.881C104.187 504.681 104.709 504.581 105.241 504.581C106.484 504.581 107.466 504.964 108.187 505.729C108.908 506.484 109.269 507.599 109.269 509.074C109.269 509.219 109.263 509.379 109.252 509.557C109.241 509.723 109.23 509.873 109.219 510.006H103.594C103.649 510.517 103.888 510.922 104.309 511.221C104.731 511.521 105.297 511.67 106.007 511.67C106.462 511.67 106.906 511.632 107.338 511.554C107.782 511.465 108.143 511.36 108.42 511.238L108.753 513.251C108.62 513.318 108.442 513.384 108.22 513.451C107.998 513.518 107.749 513.573 107.471 513.617C107.205 513.673 106.917 513.717 106.606 513.751C106.295 513.784 105.985 513.8 105.674 513.8C104.886 513.8 104.199 513.684 103.611 513.451C103.034 513.218 102.551 512.902 102.163 512.502C101.786 512.092 101.503 511.609 101.314 511.055C101.137 510.5 101.048 509.901 101.048 509.257ZM106.872 508.309C106.861 508.098 106.822 507.893 106.756 507.693C106.7 507.493 106.606 507.316 106.473 507.161C106.351 507.005 106.19 506.878 105.99 506.778C105.802 506.678 105.563 506.628 105.275 506.628C104.997 506.628 104.759 506.678 104.559 506.778C104.359 506.867 104.193 506.989 104.06 507.144C103.927 507.299 103.821 507.482 103.744 507.693C103.677 507.893 103.627 508.098 103.594 508.309H106.872Z" fill="#D9D9D9"/>
<path d="M118.954 504.814C118.454 506.5 117.933 508.081 117.389 509.557C116.846 511.032 116.252 512.464 115.609 513.85C115.376 514.35 115.143 514.771 114.91 515.115C114.677 515.47 114.422 515.759 114.144 515.98C113.867 516.213 113.551 516.38 113.196 516.48C112.852 516.591 112.447 516.646 111.981 516.646C111.593 516.646 111.232 516.607 110.899 516.53C110.577 516.463 110.311 516.385 110.1 516.297L110.533 514.316C110.788 514.405 111.016 514.466 111.215 514.499C111.415 514.533 111.626 514.549 111.848 514.549C112.291 514.549 112.63 514.427 112.863 514.183C113.107 513.95 113.312 513.623 113.479 513.201C112.913 512.092 112.347 510.849 111.781 509.474C111.215 508.087 110.683 506.534 110.184 504.814H112.813C112.924 505.247 113.051 505.718 113.196 506.229C113.351 506.728 113.512 507.238 113.678 507.76C113.845 508.27 114.011 508.769 114.177 509.257C114.355 509.746 114.521 510.189 114.677 510.589C114.821 510.189 114.971 509.746 115.126 509.257C115.281 508.769 115.431 508.27 115.575 507.76C115.731 507.238 115.875 506.728 116.008 506.229C116.152 505.718 116.28 505.247 116.391 504.814H118.954Z" fill="#D9D9D9"/>
<path d="M120.283 505.114C120.704 504.992 121.248 504.881 121.914 504.781C122.579 504.67 123.278 504.614 124.01 504.614C124.754 504.614 125.369 504.714 125.858 504.914C126.357 505.103 126.751 505.374 127.039 505.729C127.328 506.084 127.533 506.506 127.655 506.994C127.777 507.482 127.838 508.026 127.838 508.625V513.567H125.358V508.925C125.358 508.126 125.253 507.56 125.042 507.227C124.831 506.894 124.438 506.728 123.861 506.728C123.683 506.728 123.495 506.739 123.295 506.761C123.095 506.772 122.918 506.789 122.762 506.811V513.567H120.283V505.114Z" fill="#D9D9D9"/>
<path d="M129.666 509.257C129.666 508.481 129.783 507.804 130.016 507.227C130.26 506.639 130.576 506.151 130.964 505.763C131.353 505.374 131.796 505.08 132.296 504.881C132.806 504.681 133.327 504.581 133.86 504.581C135.102 504.581 136.084 504.964 136.805 505.729C137.526 506.484 137.887 507.599 137.887 509.074C137.887 509.219 137.881 509.379 137.87 509.557C137.859 509.723 137.848 509.873 137.837 510.006H132.212C132.268 510.517 132.506 510.922 132.928 511.221C133.349 511.521 133.915 511.67 134.625 511.67C135.08 511.67 135.524 511.632 135.957 511.554C136.4 511.465 136.761 511.36 137.038 511.238L137.371 513.251C137.238 513.318 137.06 513.384 136.839 513.451C136.617 513.518 136.367 513.573 136.09 513.617C135.823 513.673 135.535 513.717 135.224 513.751C134.914 513.784 134.603 513.8 134.292 513.8C133.505 513.8 132.817 513.684 132.229 513.451C131.652 513.218 131.169 512.902 130.781 512.502C130.404 512.092 130.121 511.609 129.932 511.055C129.755 510.5 129.666 509.901 129.666 509.257ZM135.491 508.309C135.48 508.098 135.441 507.893 135.374 507.693C135.319 507.493 135.224 507.316 135.091 507.161C134.969 507.005 134.808 506.878 134.609 506.778C134.42 506.678 134.182 506.628 133.893 506.628C133.616 506.628 133.377 506.678 133.177 506.778C132.978 506.867 132.811 506.989 132.678 507.144C132.545 507.299 132.44 507.482 132.362 507.693C132.296 507.893 132.246 508.098 132.212 508.309H135.491Z" fill="#D9D9D9"/>
<path d="M252.247 667.5H228.455L220.786 648.754L205.304 627.887L183.539 609.488C176.623 602.767 171.168 600.016 161.462 594.728L177.665 598.198C216.226 617.013 244.057 641.565 252.247 667.5Z" fill="#63686B"/>
<path d="M109.847 524.479C109.847 524.732 109.791 524.976 109.68 525.209C109.569 525.442 109.425 525.669 109.247 525.889C109.069 526.102 108.869 526.309 108.647 526.509C108.424 526.709 108.206 526.899 107.991 527.079C107.88 527.172 107.757 527.279 107.624 527.399C107.498 527.512 107.376 527.628 107.257 527.748C107.139 527.868 107.031 527.982 106.935 528.088C106.846 528.188 106.791 528.272 106.768 528.338H110.08V529.588H104.945C104.931 529.515 104.923 529.422 104.923 529.308C104.923 529.195 104.923 529.115 104.923 529.068C104.923 528.748 104.979 528.455 105.09 528.188C105.209 527.922 105.36 527.675 105.546 527.449C105.731 527.215 105.938 526.999 106.168 526.799C106.405 526.599 106.639 526.399 106.868 526.199C107.046 526.045 107.213 525.902 107.368 525.769C107.524 525.629 107.661 525.496 107.78 525.369C107.898 525.236 107.991 525.106 108.058 524.979C108.124 524.846 108.158 524.712 108.158 524.579C108.158 524.286 108.065 524.079 107.88 523.959C107.694 523.839 107.465 523.779 107.191 523.779C106.991 523.779 106.802 523.809 106.624 523.869C106.453 523.922 106.294 523.989 106.146 524.069C106.005 524.142 105.883 524.219 105.779 524.299C105.675 524.372 105.598 524.432 105.546 524.479L104.723 523.439C105.049 523.166 105.427 522.943 105.857 522.769C106.294 522.589 106.761 522.499 107.257 522.499C107.709 522.499 108.098 522.546 108.424 522.639C108.75 522.733 109.017 522.866 109.225 523.039C109.439 523.206 109.595 523.413 109.691 523.659C109.795 523.899 109.847 524.172 109.847 524.479Z" fill="#D9D9D9"/>
<path d="M116.586 526.109C116.586 527.275 116.338 528.172 115.842 528.798C115.353 529.418 114.675 529.728 113.808 529.728C112.941 529.728 112.259 529.418 111.763 528.798C111.274 528.172 111.029 527.275 111.029 526.109C111.029 525.529 111.092 525.016 111.218 524.569C111.351 524.122 111.54 523.746 111.785 523.439C112.029 523.133 112.322 522.899 112.663 522.739C113.004 522.579 113.385 522.499 113.808 522.499C114.675 522.499 115.353 522.813 115.842 523.439C116.338 524.059 116.586 524.949 116.586 526.109ZM114.897 526.109C114.897 525.762 114.878 525.449 114.841 525.169C114.804 524.882 114.745 524.636 114.664 524.429C114.582 524.222 114.471 524.062 114.33 523.949C114.189 523.836 114.015 523.779 113.808 523.779C113.6 523.779 113.426 523.836 113.285 523.949C113.152 524.062 113.041 524.222 112.952 524.429C112.87 524.636 112.811 524.882 112.774 525.169C112.737 525.449 112.719 525.762 112.719 526.109C112.719 526.455 112.737 526.772 112.774 527.059C112.811 527.345 112.87 527.592 112.952 527.798C113.041 528.005 113.152 528.165 113.285 528.278C113.426 528.392 113.6 528.448 113.808 528.448C114.015 528.448 114.189 528.392 114.33 528.278C114.471 528.165 114.582 528.005 114.664 527.798C114.745 527.592 114.804 527.345 114.841 527.059C114.878 526.772 114.897 526.455 114.897 526.109Z" fill="#D9D9D9"/>
<path d="M122.481 524.479C122.481 524.732 122.425 524.976 122.314 525.209C122.203 525.442 122.059 525.669 121.881 525.889C121.703 526.102 121.503 526.309 121.281 526.509C121.058 526.709 120.84 526.899 120.625 527.079C120.514 527.172 120.392 527.279 120.258 527.399C120.132 527.512 120.01 527.628 119.891 527.748C119.773 527.868 119.665 527.982 119.569 528.088C119.48 528.188 119.425 528.272 119.402 528.338H122.714V529.588H117.58C117.565 529.515 117.557 529.422 117.557 529.308C117.557 529.195 117.557 529.115 117.557 529.068C117.557 528.748 117.613 528.455 117.724 528.188C117.843 527.922 117.995 527.675 118.18 527.449C118.365 527.215 118.572 526.999 118.802 526.799C119.039 526.599 119.273 526.399 119.502 526.199C119.68 526.045 119.847 525.902 120.003 525.769C120.158 525.629 120.295 525.496 120.414 525.369C120.532 525.236 120.625 525.106 120.692 524.979C120.758 524.846 120.792 524.712 120.792 524.579C120.792 524.286 120.699 524.079 120.514 523.959C120.329 523.839 120.099 523.779 119.825 523.779C119.625 523.779 119.436 523.809 119.258 523.869C119.087 523.922 118.928 523.989 118.78 524.069C118.639 524.142 118.517 524.219 118.413 524.299C118.309 524.372 118.232 524.432 118.18 524.479L117.357 523.439C117.683 523.166 118.061 522.943 118.491 522.769C118.928 522.589 119.395 522.499 119.891 522.499C120.343 522.499 120.732 522.546 121.058 522.639C121.384 522.733 121.651 522.866 121.859 523.039C122.074 523.206 122.229 523.413 122.325 523.659C122.429 523.899 122.481 524.172 122.481 524.479Z" fill="#D9D9D9"/>
<path d="M129.22 526.109C129.22 527.275 128.972 528.172 128.476 528.798C127.987 529.418 127.309 529.728 126.442 529.728C125.575 529.728 124.893 529.418 124.397 528.798C123.908 528.172 123.663 527.275 123.663 526.109C123.663 525.529 123.726 525.016 123.852 524.569C123.986 524.122 124.174 523.746 124.419 523.439C124.664 523.133 124.956 522.899 125.297 522.739C125.638 522.579 126.019 522.499 126.442 522.499C127.309 522.499 127.987 522.813 128.476 523.439C128.972 524.059 129.22 524.949 129.22 526.109ZM127.531 526.109C127.531 525.762 127.513 525.449 127.475 525.169C127.438 524.882 127.379 524.636 127.298 524.429C127.216 524.222 127.105 524.062 126.964 523.949C126.823 523.836 126.649 523.779 126.442 523.779C126.234 523.779 126.06 523.836 125.919 523.949C125.786 524.062 125.675 524.222 125.586 524.429C125.505 524.636 125.445 524.882 125.408 525.169C125.371 525.449 125.353 525.762 125.353 526.109C125.353 526.455 125.371 526.772 125.408 527.059C125.445 527.345 125.505 527.592 125.586 527.798C125.675 528.005 125.786 528.165 125.919 528.278C126.06 528.392 126.234 528.448 126.442 528.448C126.649 528.448 126.823 528.392 126.964 528.278C127.105 528.165 127.216 528.005 127.298 527.798C127.379 527.592 127.438 527.345 127.475 527.059C127.513 526.772 127.531 526.455 127.531 526.109Z" fill="#D9D9D9"/>
<g filter="url(#filter4_d)">
<path d="M46.2147 20.5011C49.8798 20.5011 52.6936 21.1514 54.6562 22.4519C56.6188 23.7287 57.6 25.8332 57.6 28.7652C57.6 31.7209 56.6069 33.8608 54.6207 35.185C52.6345 36.4855 49.797 37.1357 46.1083 37.1357H44.3704V45.3644H38.8373V21.1395C40.0432 20.9031 41.3201 20.7376 42.6679 20.643C44.0157 20.5484 45.198 20.5011 46.2147 20.5011ZM46.5694 25.2184C46.1674 25.2184 45.7655 25.2302 45.3635 25.2539C44.9852 25.2775 44.6541 25.3011 44.3704 25.3248V32.4185H46.1083C48.0236 32.4185 49.466 32.1583 50.4354 31.6381C51.4049 31.1179 51.8896 30.1485 51.8896 28.7297C51.8896 28.044 51.7596 27.4765 51.4995 27.0273C51.263 26.578 50.9084 26.2233 50.4354 25.9632C49.9862 25.6795 49.4305 25.4903 48.7684 25.3957C48.1064 25.2775 47.3733 25.2184 46.5694 25.2184ZM68.8632 20.5011C72.5519 20.5011 75.3775 21.1632 77.3401 22.4873C79.3027 23.7878 80.284 25.8213 80.284 28.5879C80.284 30.314 79.882 31.7209 79.078 32.8086C78.2977 33.8727 77.1628 34.7121 75.6731 35.3269C76.1696 35.9416 76.6898 36.651 77.2337 37.4549C77.7775 38.2353 78.3096 39.0628 78.8298 39.9377C79.3736 40.789 79.8938 41.6875 80.3904 42.6333C80.8869 43.5555 81.348 44.4658 81.7736 45.3644H75.5667C75.1174 44.5604 74.6563 43.7447 74.1834 42.9171C73.7341 42.0895 73.2612 41.2855 72.7647 40.5052C72.2918 39.7249 71.8189 38.9919 71.3459 38.3062C70.873 37.5968 70.4001 36.9584 69.9272 36.3909H67.1962V45.3644H61.6631V21.1395C62.869 20.9031 64.1104 20.7376 65.3873 20.643C66.6878 20.5484 67.8464 20.5011 68.8632 20.5011ZM69.1824 25.2184C68.7804 25.2184 68.4139 25.2302 68.0829 25.2539C67.7755 25.2775 67.4799 25.3011 67.1962 25.3248V31.9928H68.7568C70.8376 31.9928 72.3272 31.7327 73.2258 31.2125C74.1243 30.6923 74.5736 29.8056 74.5736 28.5524C74.5736 27.3465 74.1125 26.4952 73.1903 25.9987C72.2918 25.4785 70.9558 25.2184 69.1824 25.2184ZM89.3431 33.0569C89.3431 34.2628 89.4849 35.3505 89.7687 36.32C90.0761 37.2894 90.5017 38.1288 91.0455 38.8382C91.613 39.5239 92.2988 40.056 93.1027 40.4343C93.9067 40.8126 94.8288 41.0018 95.8692 41.0018C96.886 41.0018 97.7963 40.8126 98.6003 40.4343C99.4279 40.056 100.114 39.5239 100.657 38.8382C101.225 38.1288 101.651 37.2894 101.934 36.32C102.242 35.3505 102.395 34.2628 102.395 33.0569C102.395 31.851 102.242 30.7633 101.934 29.7938C101.651 28.8007 101.225 27.9613 100.657 27.2755C100.114 26.5662 99.4279 26.0223 98.6003 25.644C97.7963 25.2657 96.886 25.0765 95.8692 25.0765C94.8288 25.0765 93.9067 25.2775 93.1027 25.6795C92.2988 26.0578 91.613 26.6016 91.0455 27.311C90.5017 27.9967 90.0761 28.8362 89.7687 29.8293C89.4849 30.7987 89.3431 31.8746 89.3431 33.0569ZM108.106 33.0569C108.106 35.1613 107.787 37.0175 107.148 38.6254C106.533 40.2097 105.682 41.5456 104.594 42.6333C103.507 43.6974 102.206 44.5013 100.693 45.0452C99.2033 45.589 97.5954 45.8609 95.8692 45.8609C94.1904 45.8609 92.6061 45.589 91.1165 45.0452C89.6268 44.5013 88.3263 43.6974 87.215 42.6333C86.1036 41.5456 85.2287 40.2097 84.5903 38.6254C83.9519 37.0175 83.6327 35.1613 83.6327 33.0569C83.6327 30.9524 83.9637 29.1081 84.6258 27.5238C85.2879 25.9159 86.1746 24.5681 87.2859 23.4804C88.4209 22.3927 89.7214 21.577 91.1874 21.0331C92.6771 20.4893 94.2377 20.2174 95.8692 20.2174C97.5481 20.2174 99.1323 20.4893 100.622 21.0331C102.112 21.577 103.412 22.3927 104.523 23.4804C105.635 24.5681 106.51 25.9159 107.148 27.5238C107.787 29.1081 108.106 30.9524 108.106 33.0569ZM125.484 45.3644C124.798 43.9929 124.041 42.6097 123.214 41.2146C122.41 39.7959 121.476 38.3535 120.412 36.8875C120.081 37.3131 119.655 37.9042 119.135 38.6609C118.638 39.4175 118.13 40.2215 117.61 41.0727C117.113 41.924 116.64 42.7397 116.191 43.52C115.742 44.3003 115.411 44.9151 115.198 45.3644H108.884C109.925 43.4491 111.131 41.4392 112.502 39.3348C113.897 37.2303 115.446 34.9958 117.149 32.6313L109.239 20.7848H115.943L120.731 28.446L125.413 20.7848H131.726L123.923 32.7022C125.909 35.2796 127.576 37.6678 128.924 39.8668C130.272 42.0422 131.336 43.8747 132.116 45.3644H125.484ZM135.301 20.7848H140.834V45.3644H135.301V20.7848ZM153.05 20.7848C153.476 21.5651 153.96 22.5346 154.504 23.6932C155.072 24.8282 155.651 26.0696 156.242 27.4174C156.857 28.7416 157.46 30.1012 158.051 31.4963C158.642 32.8914 159.198 34.2037 159.718 35.4333C160.238 34.2037 160.794 32.8914 161.385 31.4963C161.976 30.1012 162.567 28.7416 163.158 27.4174C163.773 26.0696 164.353 24.8282 164.896 23.6932C165.464 22.5346 165.96 21.5651 166.386 20.7848H171.423C171.659 22.4164 171.872 24.2489 172.061 26.2824C172.274 28.2923 172.451 30.3968 172.593 32.5958C172.759 34.7712 172.9 36.9584 173.019 39.1574C173.16 41.3565 173.279 43.4254 173.373 45.3644H167.982C167.911 42.9762 167.817 40.3752 167.698 37.5614C167.58 34.7475 167.403 31.9101 167.166 29.049C166.741 30.0421 166.268 31.1416 165.748 32.3475C165.227 33.5534 164.707 34.7594 164.187 35.9653C163.69 37.1712 163.206 38.3298 162.733 39.4412C162.26 40.5289 161.858 41.4629 161.527 42.2432H157.661C157.33 41.4629 156.928 40.5289 156.455 39.4412C155.982 38.3298 155.485 37.1712 154.965 35.9653C154.469 34.7594 153.96 33.5534 153.44 32.3475C152.92 31.1416 152.447 30.0421 152.021 29.049C151.785 31.9101 151.608 34.7475 151.489 37.5614C151.371 40.3752 151.277 42.9762 151.206 45.3644H145.814C145.909 43.4254 146.015 41.3565 146.134 39.1574C146.276 36.9584 146.417 34.7712 146.559 32.5958C146.725 30.3968 146.902 28.2923 147.091 26.2824C147.304 24.2489 147.529 22.4164 147.765 20.7848H153.05ZM194.812 45.3644C194.552 44.5131 194.257 43.6383 193.926 42.7397C193.618 41.8412 193.311 40.9427 193.004 40.0441H183.427C183.12 40.9427 182.801 41.8412 182.47 42.7397C182.162 43.6383 181.878 44.5131 181.618 45.3644H175.872C176.795 42.7161 177.669 40.2688 178.497 38.0224C179.325 35.7761 180.129 33.6598 180.909 31.6736C181.713 29.6874 182.493 27.8076 183.25 26.0342C184.03 24.2371 184.834 22.4873 185.662 20.7848H190.946C191.75 22.4873 192.543 24.2371 193.323 26.0342C194.103 27.8076 194.883 29.6874 195.664 31.6736C196.468 33.6598 197.283 35.7761 198.111 38.0224C198.939 40.2688 199.814 42.7161 200.736 45.3644H194.812ZM188.18 26.3534C188.062 26.7081 187.884 27.1928 187.648 27.8076C187.411 28.4224 187.14 29.1317 186.832 29.9357C186.525 30.7396 186.182 31.6263 185.804 32.5958C185.449 33.5653 185.082 34.582 184.704 35.6461H191.691C191.313 34.582 190.946 33.5653 190.592 32.5958C190.237 31.6263 189.894 30.7396 189.563 29.9357C189.256 29.1317 188.984 28.4224 188.747 27.8076C188.511 27.1928 188.322 26.7081 188.18 26.3534ZM210.443 20.7848C210.869 21.5651 211.354 22.5346 211.898 23.6932C212.465 24.8282 213.044 26.0696 213.636 27.4174C214.25 28.7416 214.853 30.1012 215.445 31.4963C216.036 32.8914 216.591 34.2037 217.112 35.4333C217.632 34.2037 218.187 32.8914 218.779 31.4963C219.37 30.1012 219.961 28.7416 220.552 27.4174C221.167 26.0696 221.746 24.8282 222.29 23.6932C222.857 22.5346 223.354 21.5651 223.78 20.7848H228.816C229.053 22.4164 229.265 24.2489 229.454 26.2824C229.667 28.2923 229.845 30.3968 229.987 32.5958C230.152 34.7712 230.294 36.9584 230.412 39.1574C230.554 41.3565 230.672 43.4254 230.767 45.3644H225.376C225.305 42.9762 225.21 40.3752 225.092 37.5614C224.974 34.7475 224.796 31.9101 224.56 29.049C224.134 30.0421 223.661 31.1416 223.141 32.3475C222.621 33.5534 222.101 34.7594 221.581 35.9653C221.084 37.1712 220.599 38.3298 220.126 39.4412C219.653 40.5289 219.251 41.4629 218.92 42.2432H215.054C214.723 41.4629 214.321 40.5289 213.848 39.4412C213.376 38.3298 212.879 37.1712 212.359 35.9653C211.862 34.7594 211.354 33.5534 210.834 32.3475C210.313 31.1416 209.841 30.0421 209.415 29.049C209.178 31.9101 209.001 34.7475 208.883 37.5614C208.765 40.3752 208.67 42.9762 208.599 45.3644H203.208C203.303 43.4254 203.409 41.3565 203.527 39.1574C203.669 36.9584 203.811 34.7712 203.953 32.5958C204.118 30.3968 204.296 28.2923 204.485 26.2824C204.698 24.2489 204.922 22.4164 205.159 20.7848H210.443ZM235.749 45.3644V20.7848H252.348V25.4312H241.282V30.2549H251.106V34.7948H241.282V40.718H253.164V45.3644H235.749ZM273.751 45.3644C272.167 42.5506 270.453 39.7722 268.608 37.0293C266.764 34.2864 264.801 31.6973 262.72 29.2618V45.3644H257.258V20.7848H261.763C262.543 21.5651 263.406 22.5228 264.352 23.6578C265.298 24.7928 266.255 26.0105 267.225 27.311C268.218 28.5879 269.199 29.9238 270.169 31.3189C271.138 32.6904 272.049 34.0145 272.9 35.2914V20.7848H278.397V45.3644H273.751ZM302.298 20.7848V25.5021H294.885V45.3644H289.352V25.5021H281.939V20.7848H302.298ZM305.854 45.3644V20.7848H322.453V25.4312H311.387V30.2549H321.212V34.7948H311.387V40.718H323.269V45.3644H305.854Z" fill="#F5F5F5"/>
</g>
</g>
<defs>
<filter id="filter0_b" x="257.138" y="568.866" width="34.1479" height="26.7068" filterUnits="userSpaceOnUse" color-interpolation-filters="sRGB">
<feFlood flood-opacity="0" result="BackgroundImageFix"/>
<feGaussianBlur in="BackgroundImage" stdDeviation="2"/>
<feComposite in2="SourceAlpha" operator="in" result="effect1_backgroundBlur"/>
<feBlend mode="normal" in="SourceGraphic" in2="effect1_backgroundBlur" result="shape"/>
</filter>
<filter id="filter1_b" x="292.8" y="574.999" width="34.1479" height="26.7068" filterUnits="userSpaceOnUse" color-interpolation-filters="sRGB">
<feFlood flood-opacity="0" result="BackgroundImageFix"/>
<feGaussianBlur in="BackgroundImage" stdDeviation="2"/>
<feComposite in2="SourceAlpha" operator="in" result="effect1_backgroundBlur"/>
<feBlend mode="normal" in="SourceGraphic" in2="effect1_backgroundBlur" result="shape"/>
</filter>
<filter id="filter2_b" x="56.1294" y="318.142" width="33.7569" height="26.1094" filterUnits="userSpaceOnUse" color-interpolation-filters="sRGB">
<feFlood flood-opacity="0" result="BackgroundImageFix"/>
<feGaussianBlur in="BackgroundImage" stdDeviation="2"/>
<feComposite in2="SourceAlpha" operator="in" result="effect1_backgroundBlur"/>
<feBlend mode="normal" in="SourceGraphic" in2="effect1_backgroundBlur" result="shape"/>
</filter>
<filter id="filter3_b" x="93.2553" y="315.296" width="33.7569" height="26.1094" filterUnits="userSpaceOnUse" color-interpolation-filters="sRGB">
<feFlood flood-opacity="0" result="BackgroundImageFix"/>
<feGaussianBlur in="BackgroundImage" stdDeviation="2"/>
<feComposite in2="SourceAlpha" operator="in" result="effect1_backgroundBlur"/>
<feBlend mode="normal" in="SourceGraphic" in2="effect1_backgroundBlur" result="shape"/>
</filter>
<filter id="filter4_d" x="38.8373" y="20.2173" width="289.452" height="31.2914" filterUnits="userSpaceOnUse" color-interpolation-filters="sRGB">
<feFlood flood-opacity="0" result="BackgroundImageFix"/>
<feColorMatrix in="SourceAlpha" type="matrix" values="0 0 0 0 0 0 0 0 0 0 0 0 0 0 0 0 0 0 127 0"/>
<feOffset dx="2.51012" dy="3.13765"/>
<feGaussianBlur stdDeviation="1.25506"/>
<feColorMatrix type="matrix" values="0 0 0 0 1 0 0 0 0 1 0 0 0 0 1 0 0 0 0.4 0"/>
<feBlend mode="normal" in2="BackgroundImageFix" result="effect1_dropShadow"/>
<feBlend mode="normal" in="SourceGraphic" in2="effect1_dropShadow" result="shape"/>
</filter>
<clipPath id="clip0">
<rect width="375" height="667" fill="white" transform="translate(0.263 0.5)"/>
</clipPath>
</defs>
</svg>
