<svg width="27" height="14" viewBox="0 0 27 14" fill="none" xmlns="http://www.w3.org/2000/svg">
<path fill-rule="evenodd" clip-rule="evenodd" d="M3.24083 4.88844C3.24083 4.33615 3.68854 3.88844 4.24083 3.88844H21.6849C24.9444 3.88844 26.5959 6.56366 26.6382 8.96249C26.6596 10.1746 26.2871 11.4339 25.4261 12.3703C24.5486 13.3247 23.252 13.8462 21.6433 13.7175H13.2246C12.6723 13.7175 12.2246 13.2697 12.2246 12.7175C12.2246 12.1652 12.6723 11.7175 13.2246 11.7175H21.6849C21.714 11.7175 21.743 11.7187 21.7719 11.7212C22.8489 11.8152 23.5306 11.477 23.9538 11.0167C24.4018 10.5295 24.6527 9.80194 24.6385 8.99774C24.6097 7.36395 23.5545 5.88844 21.6849 5.88844H4.24083C3.68854 5.88844 3.24083 5.44072 3.24083 4.88844Z" fill="#F2F2F2"/>
<path d="M0.362529 5.07256C-0.0743347 4.85001 -0.0743338 4.22586 0.36253 4.00331L7.57443 0.329379C7.97362 0.126022 8.44678 0.416004 8.44678 0.864004C5.63112 3.80844 5.57279 5.41909 8.44678 8.21187C8.44678 8.65987 7.97362 8.94986 7.57443 8.7465L0.362529 5.07256Z" fill="#F2F2F2"/>
</svg>
