<?xml version="1.0" encoding="UTF-8" standalone="no"?>
<svg
   xmlns:dc="http://purl.org/dc/elements/1.1/"
   xmlns:cc="http://creativecommons.org/ns#"
   xmlns:rdf="http://www.w3.org/1999/02/22-rdf-syntax-ns#"
   xmlns:svg="http://www.w3.org/2000/svg"
   xmlns="http://www.w3.org/2000/svg"
   xmlns:sodipodi="http://sodipodi.sourceforge.net/DTD/sodipodi-0.dtd"
   xmlns:inkscape="http://www.inkscape.org/namespaces/inkscape"
   width="68mm"
   height="72mm"
   viewBox="0 0 68 71.99999"
   version="1.1"
   id="svg8"
   inkscape:version="1.0 (4035a4fb49, 2020-05-01)"
   sodipodi:docname="1.2.svg">
  <defs
     id="defs2">
    <linearGradient
       gradientUnits="userSpaceOnUse"
       gradientTransform="matrix(1.1925696,0,0,0.83852549,410.12194,-26.870058)"
       id="linearGradient-1"
       y2="214.72729"
       x2="107.28935"
       y1="1.8633864e-06"
       x1="107.28935">
      <stop
         id="stop882"
         offset="0%"
         stop-color="#E52D27" />
      <stop
         id="stop884"
         offset="100%"
         stop-color="#BF171D" />
    </linearGradient>
    <linearGradient
       x1="107.28935"
       y1="1.8633864e-06"
       x2="107.28935"
       y2="214.72729"
       id="linearGradient-1-1"
       gradientTransform="matrix(9.2076466,0,0,7.3184088,-860.1963,-1529.5383)"
       gradientUnits="userSpaceOnUse">
      <stop
         stop-color="#E52D27"
         offset="0%"
         id="stop882-2" />
      <stop
         stop-color="#BF171D"
         offset="100%"
         id="stop884-9" />
    </linearGradient>
    <linearGradient
       gradientUnits="userSpaceOnUse"
       gradientTransform="matrix(9.2076466,0,0,7.3184088,-825.56168,-249.51896)"
       id="linearGradient-1-1-4"
       y2="214.72729"
       x2="107.28935"
       y1="1.8633864e-06"
       x1="107.28935">
      <stop
         id="stop882-2-2"
         offset="0%"
         stop-color="#E52D27" />
      <stop
         id="stop884-9-5"
         offset="100%"
         stop-color="#BF171D" />
    </linearGradient>
    <linearGradient
       id="linearGradient-1-12"
       y2="157.86263"
       x2="234.00598"
       y1="0"
       x1="76.143356"
       gradientTransform="matrix(9.0620229,-4.1149356,3.6219859,7.1876931,819.38646,2797.7224)"
       gradientUnits="userSpaceOnUse">
      <stop
         id="stop2389"
         offset="0%"
         stop-color="#F6C338" />
      <stop
         id="stop2391"
         offset="52.2782398%"
         stop-color="#FFD351" />
      <stop
         id="stop2393"
         offset="100%"
         stop-color="#F6C338" />
    </linearGradient>
    <linearGradient
       id="linearGradient-2"
       y2="366.7822"
       x2="26.801083"
       y1="239.05453"
       x1="154.52876"
       gradientTransform="matrix(13.722802,-6.2313289,2.3918234,4.7464824,819.38646,2797.7224)"
       gradientUnits="userSpaceOnUse">
      <stop
         id="stop2396"
         offset="0%"
         stop-color="#286EE6" />
      <stop
         id="stop2398"
         offset="52.1046125%"
         stop-color="#4286FB" />
      <stop
         id="stop2400"
         offset="100%"
         stop-color="#286EE6" />
    </linearGradient>
    <linearGradient
       id="linearGradient-3"
       y2="168.34251"
       x2="60.595699"
       y1="0"
       x1="109.90966"
       gradientTransform="matrix(6.2983723,-2.8600012,5.2112698,10.341567,819.38646,2797.7224)"
       gradientUnits="userSpaceOnUse">
      <stop
         id="stop2403"
         offset="0%"
         stop-color="#069B5A" />
      <stop
         id="stop2405"
         offset="53.1031222%"
         stop-color="#11AA62" />
      <stop
         id="stop2407"
         offset="100%"
         stop-color="#069B5A" />
    </linearGradient>
    <linearGradient
       id="linearGradient-1-3"
       y2="127.76156"
       x2="211.76385"
       y1="127.76156"
       x1="1.3210428"
       gradientTransform="matrix(9.2030702,-4.6161418,3.0402745,6.6644464,99.588728,1599.471)"
       gradientUnits="userSpaceOnUse">
      <stop
         id="stop2451"
         offset="0%"
         stop-opacity="0.1"
         stop-color="#000000" />
      <stop
         id="stop2453"
         offset="100%"
         stop-opacity="0.2"
         stop-color="#000000" />
    </linearGradient>
    <linearGradient
       id="linearGradient-1-9"
       y2="53.078278"
       x2="206.34541"
       y1="187.32983"
       x1="71.77459"
       gradientTransform="matrix(6.7941224,-3.7689128,3.7602202,9.115928,-114.06369,1556.34)"
       gradientUnits="userSpaceOnUse">
      <stop
         id="stop2520"
         offset="0%"
         stop-color="#058B7E" />
      <stop
         id="stop2522"
         offset="0%"
         stop-color="#058D80" />
      <stop
         id="stop2524"
         offset="100%"
         stop-color="#058D7F" />
    </linearGradient>
    <path
       id="path-2"
       d="M 127.68269,0 C 57.165748,0 0,55.790933 0,124.61227 0,193.43392 57.165748,249.22453 127.68269,249.22453 l 0.27148,46.91374 c 65.60585,-37.27075 128,-87.01882 128,-171.526 C 255.95417,55.790933 198.19994,0 127.68269,0 Z" />
    <filter
       id="filter-3"
       filterUnits="objectBoundingBox"
       height="1.007"
       width="1.008"
       y="-0.003"
       x="-0.0040000002">
      <feOffset
         id="feOffset2528"
         result="shadowOffsetInner1"
         in="SourceAlpha"
         dy="2"
         dx="0" />
      <feComposite
         id="feComposite2530"
         result="shadowInnerInner1"
         k3="1"
         k2="-1"
         operator="arithmetic"
         in2="SourceAlpha"
         in="shadowOffsetInner1"
         k1="0"
         k4="0" />
      <feColorMatrix
         id="feColorMatrix2532"
         in="shadowInnerInner1"
         type="matrix"
         values="0 0 0 0 1   0 0 0 0 1   0 0 0 0 1  0 0 0 0.2 0" />
    </filter>
    <path
       id="path-4"
       d="M 127.68269,0 C 57.165748,0 0,55.790933 0,124.61227 0,193.43392 57.165748,249.22453 127.68269,249.22453 l 0.27148,46.91374 c 65.60585,-37.27075 128,-87.01882 128,-171.526 C 255.95417,55.790933 198.19994,0 127.68269,0 Z" />
    <filter
       id="filter-5"
       filterUnits="objectBoundingBox"
       height="1.007"
       width="1.008"
       y="-0.003"
       x="-0.0040000002">
      <feOffset
         id="feOffset2536"
         result="shadowOffsetInner1"
         in="SourceAlpha"
         dy="-2"
         dx="0" />
      <feComposite
         id="feComposite2538"
         result="shadowInnerInner1"
         k3="1"
         k2="-1"
         operator="arithmetic"
         in2="SourceAlpha"
         in="shadowOffsetInner1"
         k1="0"
         k4="0" />
      <feColorMatrix
         id="feColorMatrix2540"
         in="shadowInnerInner1"
         type="matrix"
         values="0 0 0 0 0   0 0 0 0 0   0 0 0 0 0  0 0 0 0.1 0" />
    </filter>
    <path
       id="path-6"
       d="M 127.68269,0 C 57.165748,0 0,55.790933 0,124.61227 0,193.43392 57.165748,249.22453 127.68269,249.22453 l 0.27148,46.91374 c 65.60585,-37.27075 128,-87.01882 128,-171.526 C 255.95417,55.790933 198.19994,0 127.68269,0 Z" />
    <linearGradient
       id="linearGradient-8"
       y2="249.40137"
       x2="221.34538"
       y1="135.5235"
       x1="118.28331"
       gradientTransform="matrix(7.2722455,-4.0341427,3.5129996,8.5165893,-114.06369,1556.34)"
       gradientUnits="userSpaceOnUse">
      <stop
         id="stop2544"
         offset="0%"
         stop-color="#000000" />
      <stop
         id="stop2546"
         offset="100%"
         stop-opacity="0"
         stop-color="#D8D8D8" />
    </linearGradient>
    <path
       id="path-9"
       d="m 55.580192,128.1054 v 34.23858 c 0,9.03901 7.395555,16.43457 16.434567,16.43457 h 85.016021 c 9.03901,0 16.43457,-7.39556 16.43457,-16.43457 v -21.62283 l 33.65926,33.65925 v -46.275 z" />
    <filter
       id="filter-10"
       filterUnits="objectBoundingBox"
       height="1.118"
       width="1.026"
       y="-0.029999999"
       x="-0.0099999998">
      <feOffset
         id="feOffset2550"
         result="shadowOffsetOuter1"
         in="SourceAlpha"
         dy="3"
         dx="1" />
      <feColorMatrix
         id="feColorMatrix2552"
         in="shadowOffsetOuter1"
         type="matrix"
         values="0 0 0 0 0   0 0 0 0 0   0 0 0 0 0  0 0 0 0.1 0" />
    </filter>
    <path
       d="M 253.33333,128 H 194.66667 V 61.333333 L 132.56,0.8 C 132.08,0.29333333 131.41333,0 130.66667,0 129.2,0 128,1.2 128,2.6666667 V 61.333333 H 61.333333 L 0.8,123.44 C 0.29333333,123.92 0,124.58667 0,125.33333 0,126.8 1.2,128 2.6666667,128 H 61.333333 v 66.66667 L 123.44,255.2 c 0.48,0.50667 1.14667,0.8 1.89333,0.8 C 126.8,256 128,254.8 128,253.33333 v -58.66666 h 66.66667 L 255.2,132.56 c 0.50667,-0.48 0.8,-1.14667 0.8,-1.89333 C 256,129.2 254.8,128 253.33333,128 Z"
       id="path-1" />
    <linearGradient
       id="linearGradient-3-5"
       y2="37.495316"
       x2="85.409851"
       y1="31.010235"
       x1="91.72097"
       gradientTransform="matrix(7.3155946,-3.5358575,3.4458254,7.2785231,1306.8737,724.7706)"
       gradientUnits="userSpaceOnUse">
      <stop
         id="stop2630"
         offset="0%"
         stop-color="#E88C22" />
      <stop
         id="stop2632"
         offset="100%"
         stop-opacity="0"
         stop-color="#FCBB29" />
    </linearGradient>
    <linearGradient
       id="linearGradient-4"
       y2="38.90575"
       x2="36.88467"
       y1="33.918175"
       x1="31.740335"
       gradientTransform="matrix(7.0903603,-3.4269946,3.5552862,7.5097343,1925.7544,938.2348)"
       gradientUnits="userSpaceOnUse">
      <stop
         id="stop2635"
         offset="0%"
         stop-color="#5E8235" />
      <stop
         id="stop2637"
         offset="100%"
         stop-opacity="0"
         stop-color="#8CC251" />
    </linearGradient>
    <filter
       id="filter-1"
       filterUnits="objectBoundingBox"
       height="2"
       width="2"
       y="-0.5"
       x="-0.5">
      <feGaussianBlur
         id="feGaussianBlur2827"
         result="blur"
         in="SourceGraphic"
         stdDeviation="3" />
    </filter>
    <linearGradient
       gradientUnits="userSpaceOnUse"
       gradientTransform="matrix(6.5462558,-3.264828,3.146131,6.8572349,584.26326,507.52912)"
       id="linearGradient-2-8"
       y2="5.0122137"
       x2="121.76992"
       y1="236.96635"
       x1="121.76992">
      <stop
         id="stop2830"
         offset="0%"
         stop-color="#20B038" />
      <stop
         id="stop2832"
         offset="100%"
         stop-color="#60D66A" />
    </linearGradient>
    <filter
       inkscape:collect="always"
       style="color-interpolation-filters:sRGB"
       id="filter2887"
       x="-0.030435853"
       width="1.0608717"
       y="-0.059449773"
       height="1.1188995">
      <feGaussianBlur
         inkscape:collect="always"
         stdDeviation="0.29993025"
         id="feGaussianBlur2889" />
    </filter>
    <filter
       inkscape:collect="always"
       style="color-interpolation-filters:sRGB"
       id="filter2891"
       x="-0.05385856"
       width="1.1077172"
       y="-0.25257808"
       height="1.5051562">
      <feGaussianBlur
         inkscape:collect="always"
         stdDeviation="0.29993025"
         id="feGaussianBlur2893" />
    </filter>
    <filter
       inkscape:collect="always"
       style="color-interpolation-filters:sRGB"
       id="filter2895"
       x="-0.10932511"
       width="1.2186502"
       y="-0.29614332"
       height="1.5922867">
      <feGaussianBlur
         inkscape:collect="always"
         stdDeviation="0.29993025"
         id="feGaussianBlur2897" />
    </filter>
    <filter
       inkscape:collect="always"
       style="color-interpolation-filters:sRGB"
       id="filter2899"
       x="-0.092718557"
       width="1.1854371"
       y="-0.40693107"
       height="1.8138622">
      <feGaussianBlur
         inkscape:collect="always"
         stdDeviation="0.29993025"
         id="feGaussianBlur2901" />
    </filter>
    <filter
       inkscape:collect="always"
       style="color-interpolation-filters:sRGB"
       id="filter2903"
       x="-0.10316572"
       width="1.2063314"
       y="-0.37821451"
       height="1.756429">
      <feGaussianBlur
         inkscape:collect="always"
         stdDeviation="0.29993025"
         id="feGaussianBlur2905" />
    </filter>
    <filter
       inkscape:collect="always"
       style="color-interpolation-filters:sRGB"
       id="filter2907"
       x="-0.13079946"
       width="1.2615989"
       y="-0.8138631"
       height="2.6277263">
      <feGaussianBlur
         inkscape:collect="always"
         stdDeviation="0.29993025"
         id="feGaussianBlur2909" />
    </filter>
  </defs>
  <sodipodi:namedview
     units="mm"
     id="base"
     pagecolor="#ffffff"
     bordercolor="#666666"
     borderopacity="1.0"
     inkscape:pageopacity="0.0"
     inkscape:pageshadow="2"
     inkscape:zoom="0.45763198"
     inkscape:cx="327.80365"
     inkscape:cy="223.32643"
     inkscape:document-units="mm"
     inkscape:current-layer="layer1"
     inkscape:document-rotation="0"
     showgrid="false"
     objecttolerance="1"
     inkscape:window-width="1366"
     inkscape:window-height="745"
     inkscape:window-x="-8"
     inkscape:window-y="-8"
     inkscape:window-maximized="1" />
  <metadata
     id="metadata5">
    <rdf:RDF>
      <cc:Work
         rdf:about="">
        <dc:format>image/svg+xml</dc:format>
        <dc:type
           rdf:resource="http://purl.org/dc/dcmitype/StillImage" />
        <dc:title></dc:title>
      </cc:Work>
    </rdf:RDF>
  </metadata>
  <g
     inkscape:label="Capa 1"
     inkscape:groupmode="layer"
     id="layer1">
    <path
       style="fill:#f6c1b0;fill-opacity:1;stroke:#000000;stroke-width:0.444145;stroke-linecap:butt;stroke-linejoin:miter;stroke-miterlimit:4;stroke-dasharray:none;stroke-opacity:1"
       d="m 24.024474,31.733731 c -5.300176,-2.193033 -7.326977,-0.01906 -10.34456,2.341942 -5.3100125,-1.077441 -6.2990249,0.2001 -8.8848805,2.044231 -6.2516984,7.075308 5.5347505,28.563013 8.3622405,27.794933 3.312098,-2.151808 10.431261,-2.891981 22.277543,-1.879371 6.103026,-6.779898 10.727511,-17.022137 8.087846,-21.810345 -2.964946,-2.740556 -3.214549,-6.068429 -3.841393,-9.314705 1.871078,-37.2929894 -15.194923,-36.075477 -7.511027,-1.582631 -4.061208,-2.714207 -5.796232,-0.06303 -8.145769,2.405946 z"
       id="path1269"
       sodipodi:nodetypes="ccccccccc" />
    <path
       style="fill:none;stroke:#000000;stroke-width:0.176711px;stroke-linecap:butt;stroke-linejoin:miter;stroke-opacity:1"
       d="m 13.679362,33.930614 c 2.217373,2.338729 4.434745,3.475495 6.652124,11.377395 0.23103,4.542189 -1.327184,5.52392 -5.404858,1.492117 -1.46839,-2.944442 -6.5805687,-11.28031 -11.4564312,-7.553844"
       id="path1271"
       sodipodi:nodetypes="cccc" />
    <path
       style="fill:none;stroke:#000000;stroke-width:0.176711px;stroke-linecap:butt;stroke-linejoin:miter;stroke-opacity:1"
       d="m 24.119497,31.925582 c 3.259349,2.049198 5.367087,8.214731 6.782786,16.094887 -2.679405,4.917753 -4.783872,3.88224 -7.950058,1.205319 -0.841819,-2.649565 -1.742716,-3.553353 -2.89791,-4.943609"
       id="path1273"
       sodipodi:nodetypes="cccc" />
    <path
       style="fill:none;stroke:#000000;stroke-width:0.176711px;stroke-linecap:butt;stroke-linejoin:miter;stroke-opacity:1"
       d="m 32.322543,29.525613 c 2.810073,3.223918 4.951362,7.652553 6.728992,19.387215 -0.654252,3.803235 -3.11569,5.311797 -6.206352,2.439886 -0.767603,-2.540082 -1.125651,-4.669189 -2.6132,-6.528347"
       id="path1275"
       sodipodi:nodetypes="cccc" />
    <path
       style="fill:#f6c1b0;fill-opacity:1;stroke:#000000;stroke-width:0.176711px;stroke-linecap:butt;stroke-linejoin:miter;stroke-opacity:1"
       d="m 43.62464,40.472135 c -2.171895,-1.207826 -7.65071,-2.51011 -9.995647,-2.14596 -5.527077,0.884043 -6.803008,4.844915 -2.351717,7.157622 7.32624,-1.45641 12.057089,4.368743 9.342192,8.968234"
       id="path1277"
       sodipodi:nodetypes="cccc" />
    <path
       style="fill:#efefef;fill-opacity:1;stroke:#000000;stroke-width:0.176711px;stroke-linecap:butt;stroke-linejoin:miter;stroke-opacity:1"
       d="m 15.924702,46.637795 c 0.768906,-0.797369 1.650691,-1.511876 3.364496,-1.615599 0.923672,4.061116 -0.919584,3.952231 -3.364496,1.615599 z"
       id="path1279"
       sodipodi:nodetypes="ccc" />
    <path
       sodipodi:nodetypes="ccc"
       id="path1279-9"
       d="m 23.626779,47.839195 c 1.906351,-0.66565 3.951898,-1.015154 6.206352,-0.890225 -1.654906,4.948425 -4.889671,3.615091 -6.206352,0.890225 z"
       style="fill:#efefef;fill-opacity:1;stroke:#000000;stroke-width:0.176711px;stroke-linecap:butt;stroke-linejoin:miter;stroke-opacity:1" />
    <path
       sodipodi:nodetypes="ccc"
       id="path1279-4"
       d="m 32.875291,49.760484 c 1.637236,-0.383578 3.349691,-0.539393 5.161072,-0.395656 -1.303951,3.856702 -3.091712,2.697817 -5.161072,0.395656 z"
       style="fill:#efefef;fill-opacity:1;stroke:#000000;stroke-width:0.176711px;stroke-linecap:butt;stroke-linejoin:miter;stroke-opacity:1" />
    <path
       sodipodi:nodetypes="ccc"
       id="path1279-1"
       d="m 33.143076,39.645887 c 0.74048,1.484523 0.821729,2.969046 0.87987,4.453569 -5.007522,0.170815 -4.977428,-2.981413 -0.87987,-4.453569 z"
       style="fill:#efefef;fill-opacity:1;stroke:#000000;stroke-width:0.176711px;stroke-linecap:butt;stroke-linejoin:miter;stroke-opacity:1" />
    <path
       sodipodi:nodetypes="ccccccccc"
       id="path1269-9"
       d="M 37.345375,33.840138 C 33.24462,29.803108 30.558707,31.052684 26.884731,32.10113 22.36094,29.094781 20.969897,29.905474 17.888004,30.637874 9.4661298,34.83495 12.422165,59.214405 15.328857,59.571088 19.198296,58.827942 26.073971,60.832865 36.682394,66.249978 44.856808,62.270609 52.944927,54.521951 52.273949,49.084358 50.541617,45.422423 51.54493,42.24239 52.168177,38.995411 67.739952,5.1238484 51.464246,-0.19863381 45.790991,34.6886 43.032404,30.636688 40.439985,32.439035 37.345375,33.840138 Z"
       style="opacity:0.277419;fill:#f6c1b0;fill-opacity:1;stroke:#000000;stroke-width:0.444145;stroke-linecap:butt;stroke-linejoin:miter;stroke-miterlimit:4;stroke-dasharray:none;stroke-opacity:1" />
    <path
       sodipodi:nodetypes="cccc"
       id="path1271-6"
       d="M 26.938046,31.966418 C 28.1263,34.97316 29.760518,36.86542 28.884669,45.030465 27.413587,49.329419 25.604526,49.650652 23.31954,44.370814 23.050498,41.085573 21.403244,31.423836 15.499598,33.035899"
       style="opacity:0.277419;fill:none;stroke:#000000;stroke-width:0.176711px;stroke-linecap:butt;stroke-linejoin:miter;stroke-opacity:1" />
    <path
       sodipodi:nodetypes="cccc"
       id="path1273-7"
       d="m 37.3623,34.053947 c 2.26182,3.132179 1.928554,9.645774 0.317431,17.487604 -4.309043,3.546962 -5.876145,1.791273 -7.818679,-1.887732 0.202517,-2.774963 -0.297481,-3.953536 -0.852768,-5.679312"
       style="opacity:0.277419;fill:none;stroke:#000000;stroke-width:0.176711px;stroke-linecap:butt;stroke-linejoin:miter;stroke-opacity:1" />
    <path
       sodipodi:nodetypes="cccc"
       id="path1275-1"
       d="m 45.858804,34.929605 c 1.409391,4.051567 1.751678,8.967353 -0.953999,20.519986 -2.017754,3.279115 -4.859783,3.747401 -6.659942,-0.08384 0.230717,-2.645397 0.688688,-4.754904 -6.65e-4,-7.041089"
       style="opacity:0.277419;fill:none;stroke:#000000;stroke-width:0.176711px;stroke-linecap:butt;stroke-linejoin:miter;stroke-opacity:1" />
    <path
       sodipodi:nodetypes="cccc"
       id="path1277-1"
       d="m 52.276854,49.351945 c -1.565686,-1.940956 -6.162576,-5.219596 -8.471967,-5.768396 -5.452835,-1.269669 -8.105516,1.920604 -4.836263,5.747695 7.33342,1.41909 9.558656,8.608687 5.334785,11.847139"
       style="opacity:0.277419;fill:#f6c1b0;fill-opacity:1;stroke:#000000;stroke-width:0.176711px;stroke-linecap:butt;stroke-linejoin:miter;stroke-opacity:1" />
    <path
       sodipodi:nodetypes="ccc"
       id="path1279-0"
       d="m 24.305209,44.597595 c 1.008791,-0.448672 2.091511,-0.777843 3.719074,-0.226157 -0.650356,4.114733 -2.319063,3.316974 -3.719074,0.226157 z"
       style="opacity:0.277419;fill:#efefef;fill-opacity:1;stroke:#000000;stroke-width:0.176711px;stroke-linecap:butt;stroke-linejoin:miter;stroke-opacity:1" />
    <path
       style="opacity:0.277419;fill:#efefef;fill-opacity:1;stroke:#000000;stroke-width:0.176711px;stroke-linecap:butt;stroke-linejoin:miter;stroke-opacity:1"
       d="m 31.000982,48.623138 c 2.01459,0.103444 4.040945,0.552646 6.084971,1.520728 -3.370486,3.962688 -5.875128,1.50357 -6.084971,-1.520728 z"
       id="path1279-9-8"
       sodipodi:nodetypes="ccc" />
    <path
       style="opacity:0.277419;fill:#efefef;fill-opacity:1;stroke:#000000;stroke-width:0.176711px;stroke-linecap:butt;stroke-linejoin:miter;stroke-opacity:1"
       d="m 38.86355,53.900775 c 1.660403,0.263258 3.306035,0.766135 4.932256,1.584159 -2.64001,3.083091 -3.867678,1.33273 -4.932256,-1.584159 z"
       id="path1279-4-9"
       sodipodi:nodetypes="ccc" />
    <path
       style="opacity:0.277419;fill:#efefef;fill-opacity:1;stroke:#000000;stroke-width:0.176711px;stroke-linecap:butt;stroke-linejoin:miter;stroke-opacity:1"
       d="m 42.864682,44.623523 c 0.13578,1.656408 -0.339688,3.063607 -0.836581,4.46207 -4.706465,-1.734593 -3.508985,-4.646028 0.836581,-4.46207 z"
       id="path1279-1-7"
       sodipodi:nodetypes="ccc" />
    <path
       sodipodi:nodetypes="ccccccccc"
       id="path1269-99"
       d="m 24.280413,31.582701 c -5.300176,-2.193033 -7.326978,-0.01906 -10.34456,2.341942 -5.3100109,-1.077443 -6.2990235,0.2001 -8.8848789,2.044231 -6.2516984,7.075306 5.5347479,28.563012 8.3622389,27.794931 3.312098,-2.151808 10.43126,-2.891981 22.277542,-1.87937 6.103026,-6.779898 10.727511,-17.022135 8.087847,-21.810349 -2.964946,-2.740551 -3.214549,-6.068425 -3.841393,-9.3147 1.871078,-37.2929901 -15.194923,-36.0754784 -7.511027,-1.582632 -4.061208,-2.714207 -5.796232,-0.06303 -8.145769,2.405947 z"
       style="fill:#f6c1b0;fill-opacity:1;stroke:#000000;stroke-width:0.444145;stroke-linecap:butt;stroke-linejoin:miter;stroke-miterlimit:4;stroke-dasharray:none;stroke-opacity:1" />
    <path
       sodipodi:nodetypes="cccc"
       id="path1271-3"
       d="m 13.935301,33.779583 c 2.217372,2.338728 4.434745,3.475496 6.652124,11.377392 0.231029,4.542191 -1.327185,5.523922 -5.404859,1.49212 C 13.714176,43.704657 8.6019999,35.368784 3.7261374,39.095252"
       style="fill:none;stroke:#000000;stroke-width:0.176711px;stroke-linecap:butt;stroke-linejoin:miter;stroke-opacity:1" />
    <path
       sodipodi:nodetypes="cccc"
       id="path1273-79"
       d="m 24.375436,31.774551 c 3.259349,2.049199 5.367086,8.214733 6.782786,16.094887 -2.679405,4.917752 -4.783872,3.88224 -7.950059,1.205318 -0.841818,-2.649564 -1.742716,-3.553354 -2.89791,-4.94361"
       style="fill:none;stroke:#000000;stroke-width:0.176711px;stroke-linecap:butt;stroke-linejoin:miter;stroke-opacity:1" />
    <path
       sodipodi:nodetypes="cccc"
       id="path1275-5"
       d="m 32.578482,29.374583 c 2.810073,3.223918 4.951362,7.652552 6.728992,19.387213 -0.654253,3.803236 -3.115691,5.311798 -6.206352,2.439887 -0.767603,-2.540082 -1.125652,-4.66919 -2.6132,-6.528346"
       style="fill:none;stroke:#000000;stroke-width:0.176711px;stroke-linecap:butt;stroke-linejoin:miter;stroke-opacity:1" />
    <path
       sodipodi:nodetypes="cccc"
       id="path1277-6"
       d="m 43.880578,40.321106 c -2.171895,-1.207827 -7.65071,-2.510111 -9.995646,-2.145963 -5.527078,0.884043 -6.803008,4.844914 -2.351717,7.157624 7.32624,-1.456411 12.057089,4.368741 9.342192,8.968233"
       style="fill:#f6c1b0;fill-opacity:1;stroke:#000000;stroke-width:0.176711px;stroke-linecap:butt;stroke-linejoin:miter;stroke-opacity:1" />
    <path
       sodipodi:nodetypes="ccc"
       id="path1279-98"
       d="m 16.18064,46.486764 c 0.768906,-0.797368 1.650691,-1.511875 3.364496,-1.6156 0.923673,4.061116 -0.919584,3.952231 -3.364496,1.6156 z"
       style="fill:#efefef;fill-opacity:1;stroke:#000000;stroke-width:0.176711px;stroke-linecap:butt;stroke-linejoin:miter;stroke-opacity:1" />
    <path
       style="fill:#efefef;fill-opacity:1;stroke:#000000;stroke-width:0.176711px;stroke-linecap:butt;stroke-linejoin:miter;stroke-opacity:1"
       d="m 23.882718,47.688164 c 1.90635,-0.665651 3.951898,-1.015154 6.206352,-0.890225 -1.654906,4.948425 -4.889671,3.61509 -6.206352,0.890225 z"
       id="path1279-9-2"
       sodipodi:nodetypes="ccc" />
    <path
       style="fill:#efefef;fill-opacity:1;stroke:#000000;stroke-width:0.176711px;stroke-linecap:butt;stroke-linejoin:miter;stroke-opacity:1"
       d="m 33.131229,49.609452 c 1.637236,-0.383577 3.349692,-0.539393 5.161072,-0.395655 -1.30395,3.856701 -3.091712,2.697817 -5.161072,0.395655 z"
       id="path1279-4-97"
       sodipodi:nodetypes="ccc" />
    <path
       style="fill:#efefef;fill-opacity:1;stroke:#000000;stroke-width:0.176711px;stroke-linecap:butt;stroke-linejoin:miter;stroke-opacity:1"
       d="m 33.399014,39.494856 c 0.740481,1.484526 0.821729,2.969046 0.879871,4.453566 -5.007523,0.17082 -4.977428,-2.981407 -0.879871,-4.453566 z"
       id="path1279-1-8"
       sodipodi:nodetypes="ccc" />
    <path
       transform="matrix(0.66477564,0,0,0.67101195,0.92945463,0.92870513)"
       style="opacity:0.832258;fill:none;stroke:#f0bead;stroke-width:0.665;stroke-linecap:butt;stroke-linejoin:miter;stroke-miterlimit:4;stroke-dasharray:none;stroke-opacity:1;filter:url(#filter2887)"
       d="m 55.282034,5.2735361 c 9.33495,-2.993341 28.30117,15.1729849 22.60298,11.2032149"
       id="path1392"
       sodipodi:nodetypes="cc" />
    <path
       transform="matrix(0.66477564,0,0,0.67101195,0.92945463,0.92870513)"
       sodipodi:nodetypes="cc"
       id="path1392-2"
       d="m 60.123014,21.300477 c 5.82477,1.170082 4.65802,-1.414668 13.36524,2.849941"
       style="opacity:0.832258;fill:none;stroke:#f0bead;stroke-width:0.665;stroke-linecap:butt;stroke-linejoin:miter;stroke-miterlimit:4;stroke-dasharray:none;stroke-opacity:1;filter:url(#filter2891)" />
    <path
       transform="matrix(0.66477564,0,0,0.67101195,0.92945463,0.92870513)"
       style="opacity:0.832258;fill:none;stroke:#f0bead;stroke-width:0.665;stroke-linecap:butt;stroke-linejoin:miter;stroke-miterlimit:4;stroke-dasharray:none;stroke-opacity:1;filter:url(#filter2895)"
       d="m 60.392284,44.779609 c 0.83885,-0.871015 4.74961,-1.058336 6.58433,1.867202"
       id="path1415"
       sodipodi:nodetypes="cc" />
    <path
       transform="matrix(0.66477564,0,0,0.67101195,0.92945463,0.92870513)"
       style="opacity:0.832258;fill:none;stroke:#f0bead;stroke-width:0.665;stroke-linecap:butt;stroke-linejoin:miter;stroke-miterlimit:4;stroke-dasharray:none;stroke-opacity:1;filter:url(#filter2899)"
       d="m 59.507814,26.500679 7.76363,1.76893"
       id="path1417" />
    <path
       transform="matrix(0.66477564,0,0,0.67101195,0.92945463,0.92870513)"
       style="opacity:0.832258;fill:none;stroke:#f0bead;stroke-width:0.665;stroke-linecap:butt;stroke-linejoin:miter;stroke-miterlimit:4;stroke-dasharray:none;stroke-opacity:1;filter:url(#filter2903)"
       d="m 60.981914,34.166038 c 2.51884,-1.245847 4.70267,0.523394 6.97744,1.474105"
       id="path1419"
       sodipodi:nodetypes="cc" />
    <path
       transform="matrix(0.66477564,0,0,0.67101195,0.92945463,0.92870513)"
       style="opacity:0.832258;fill:none;stroke:#f0bead;stroke-width:0.665;stroke-linecap:butt;stroke-linejoin:miter;stroke-miterlimit:4;stroke-dasharray:none;stroke-opacity:1;filter:url(#filter2907)"
       d="m 65.305964,30.038537 5.50333,0.884464"
       id="path1421"
       sodipodi:nodetypes="cc" />
  </g>
</svg>
