<?xml version="1.0" encoding="UTF-8" standalone="no"?>
<svg
   xmlns:dc="http://purl.org/dc/elements/1.1/"
   xmlns:cc="http://creativecommons.org/ns#"
   xmlns:rdf="http://www.w3.org/1999/02/22-rdf-syntax-ns#"
   xmlns:svg="http://www.w3.org/2000/svg"
   xmlns="http://www.w3.org/2000/svg"
   xmlns:sodipodi="http://sodipodi.sourceforge.net/DTD/sodipodi-0.dtd"
   xmlns:inkscape="http://www.inkscape.org/namespaces/inkscape"
   width="91mm"
   height="53mm"
   viewBox="0 0 91 53"
   version="1.1"
   id="svg8"
   inkscape:version="1.0 (4035a4fb49, 2020-05-01)"
   sodipodi:docname="10.svg">
  <defs
     id="defs2">
    <linearGradient
       gradientUnits="userSpaceOnUse"
       gradientTransform="matrix(1.1925696,0,0,0.83852549,410.12194,-26.870058)"
       id="linearGradient-1"
       y2="214.72729"
       x2="107.28935"
       y1="1.8633864e-06"
       x1="107.28935">
      <stop
         id="stop882"
         offset="0%"
         stop-color="#E52D27" />
      <stop
         id="stop884"
         offset="100%"
         stop-color="#BF171D" />
    </linearGradient>
    <linearGradient
       x1="107.28935"
       y1="1.8633864e-06"
       x2="107.28935"
       y2="214.72729"
       id="linearGradient-1-1"
       gradientTransform="matrix(9.2076466,0,0,7.3184088,-860.1963,-1529.5383)"
       gradientUnits="userSpaceOnUse">
      <stop
         stop-color="#E52D27"
         offset="0%"
         id="stop882-2" />
      <stop
         stop-color="#BF171D"
         offset="100%"
         id="stop884-9" />
    </linearGradient>
    <linearGradient
       gradientUnits="userSpaceOnUse"
       gradientTransform="matrix(9.2076466,0,0,7.3184088,-825.56168,-249.51896)"
       id="linearGradient-1-1-4"
       y2="214.72729"
       x2="107.28935"
       y1="1.8633864e-06"
       x1="107.28935">
      <stop
         id="stop882-2-2"
         offset="0%"
         stop-color="#E52D27" />
      <stop
         id="stop884-9-5"
         offset="100%"
         stop-color="#BF171D" />
    </linearGradient>
    <linearGradient
       id="linearGradient-1-12"
       y2="157.86263"
       x2="234.00598"
       y1="0"
       x1="76.143356"
       gradientTransform="matrix(9.0620229,-4.1149356,3.6219859,7.1876931,819.38646,2797.7224)"
       gradientUnits="userSpaceOnUse">
      <stop
         id="stop2389"
         offset="0%"
         stop-color="#F6C338" />
      <stop
         id="stop2391"
         offset="52.2782398%"
         stop-color="#FFD351" />
      <stop
         id="stop2393"
         offset="100%"
         stop-color="#F6C338" />
    </linearGradient>
    <linearGradient
       id="linearGradient-2"
       y2="366.7822"
       x2="26.801083"
       y1="239.05453"
       x1="154.52876"
       gradientTransform="matrix(13.722802,-6.2313289,2.3918234,4.7464824,819.38646,2797.7224)"
       gradientUnits="userSpaceOnUse">
      <stop
         id="stop2396"
         offset="0%"
         stop-color="#286EE6" />
      <stop
         id="stop2398"
         offset="52.1046125%"
         stop-color="#4286FB" />
      <stop
         id="stop2400"
         offset="100%"
         stop-color="#286EE6" />
    </linearGradient>
    <linearGradient
       id="linearGradient-3"
       y2="168.34251"
       x2="60.595699"
       y1="0"
       x1="109.90966"
       gradientTransform="matrix(6.2983723,-2.8600012,5.2112698,10.341567,819.38646,2797.7224)"
       gradientUnits="userSpaceOnUse">
      <stop
         id="stop2403"
         offset="0%"
         stop-color="#069B5A" />
      <stop
         id="stop2405"
         offset="53.1031222%"
         stop-color="#11AA62" />
      <stop
         id="stop2407"
         offset="100%"
         stop-color="#069B5A" />
    </linearGradient>
    <linearGradient
       id="linearGradient-1-3"
       y2="127.76156"
       x2="211.76385"
       y1="127.76156"
       x1="1.3210428"
       gradientTransform="matrix(9.2030702,-4.6161418,3.0402745,6.6644464,99.588728,1599.471)"
       gradientUnits="userSpaceOnUse">
      <stop
         id="stop2451"
         offset="0%"
         stop-opacity="0.1"
         stop-color="#000000" />
      <stop
         id="stop2453"
         offset="100%"
         stop-opacity="0.2"
         stop-color="#000000" />
    </linearGradient>
    <linearGradient
       id="linearGradient-1-9"
       y2="53.078278"
       x2="206.34541"
       y1="187.32983"
       x1="71.77459"
       gradientTransform="matrix(6.7941224,-3.7689128,3.7602202,9.115928,-114.06369,1556.34)"
       gradientUnits="userSpaceOnUse">
      <stop
         id="stop2520"
         offset="0%"
         stop-color="#058B7E" />
      <stop
         id="stop2522"
         offset="0%"
         stop-color="#058D80" />
      <stop
         id="stop2524"
         offset="100%"
         stop-color="#058D7F" />
    </linearGradient>
    <path
       id="path-2"
       d="M 127.68269,0 C 57.165748,0 0,55.790933 0,124.61227 0,193.43392 57.165748,249.22453 127.68269,249.22453 l 0.27148,46.91374 c 65.60585,-37.27075 128,-87.01882 128,-171.526 C 255.95417,55.790933 198.19994,0 127.68269,0 Z" />
    <filter
       id="filter-3"
       filterUnits="objectBoundingBox"
       height="1.007"
       width="1.008"
       y="-0.003"
       x="-0.0040000002">
      <feOffset
         id="feOffset2528"
         result="shadowOffsetInner1"
         in="SourceAlpha"
         dy="2"
         dx="0" />
      <feComposite
         id="feComposite2530"
         result="shadowInnerInner1"
         k3="1"
         k2="-1"
         operator="arithmetic"
         in2="SourceAlpha"
         in="shadowOffsetInner1"
         k1="0"
         k4="0" />
      <feColorMatrix
         id="feColorMatrix2532"
         in="shadowInnerInner1"
         type="matrix"
         values="0 0 0 0 1   0 0 0 0 1   0 0 0 0 1  0 0 0 0.2 0" />
    </filter>
    <path
       id="path-4"
       d="M 127.68269,0 C 57.165748,0 0,55.790933 0,124.61227 0,193.43392 57.165748,249.22453 127.68269,249.22453 l 0.27148,46.91374 c 65.60585,-37.27075 128,-87.01882 128,-171.526 C 255.95417,55.790933 198.19994,0 127.68269,0 Z" />
    <filter
       id="filter-5"
       filterUnits="objectBoundingBox"
       height="1.007"
       width="1.008"
       y="-0.003"
       x="-0.0040000002">
      <feOffset
         id="feOffset2536"
         result="shadowOffsetInner1"
         in="SourceAlpha"
         dy="-2"
         dx="0" />
      <feComposite
         id="feComposite2538"
         result="shadowInnerInner1"
         k3="1"
         k2="-1"
         operator="arithmetic"
         in2="SourceAlpha"
         in="shadowOffsetInner1"
         k1="0"
         k4="0" />
      <feColorMatrix
         id="feColorMatrix2540"
         in="shadowInnerInner1"
         type="matrix"
         values="0 0 0 0 0   0 0 0 0 0   0 0 0 0 0  0 0 0 0.1 0" />
    </filter>
    <path
       id="path-6"
       d="M 127.68269,0 C 57.165748,0 0,55.790933 0,124.61227 0,193.43392 57.165748,249.22453 127.68269,249.22453 l 0.27148,46.91374 c 65.60585,-37.27075 128,-87.01882 128,-171.526 C 255.95417,55.790933 198.19994,0 127.68269,0 Z" />
    <linearGradient
       id="linearGradient-8"
       y2="249.40137"
       x2="221.34538"
       y1="135.5235"
       x1="118.28331"
       gradientTransform="matrix(7.2722455,-4.0341427,3.5129996,8.5165893,-114.06369,1556.34)"
       gradientUnits="userSpaceOnUse">
      <stop
         id="stop2544"
         offset="0%"
         stop-color="#000000" />
      <stop
         id="stop2546"
         offset="100%"
         stop-opacity="0"
         stop-color="#D8D8D8" />
    </linearGradient>
    <path
       id="path-9"
       d="m 55.580192,128.1054 v 34.23858 c 0,9.03901 7.395555,16.43457 16.434567,16.43457 h 85.016021 c 9.03901,0 16.43457,-7.39556 16.43457,-16.43457 v -21.62283 l 33.65926,33.65925 v -46.275 z" />
    <filter
       id="filter-10"
       filterUnits="objectBoundingBox"
       height="1.118"
       width="1.026"
       y="-0.029999999"
       x="-0.0099999998">
      <feOffset
         id="feOffset2550"
         result="shadowOffsetOuter1"
         in="SourceAlpha"
         dy="3"
         dx="1" />
      <feColorMatrix
         id="feColorMatrix2552"
         in="shadowOffsetOuter1"
         type="matrix"
         values="0 0 0 0 0   0 0 0 0 0   0 0 0 0 0  0 0 0 0.1 0" />
    </filter>
    <path
       d="M 253.33333,128 H 194.66667 V 61.333333 L 132.56,0.8 C 132.08,0.29333333 131.41333,0 130.66667,0 129.2,0 128,1.2 128,2.6666667 V 61.333333 H 61.333333 L 0.8,123.44 C 0.29333333,123.92 0,124.58667 0,125.33333 0,126.8 1.2,128 2.6666667,128 H 61.333333 v 66.66667 L 123.44,255.2 c 0.48,0.50667 1.14667,0.8 1.89333,0.8 C 126.8,256 128,254.8 128,253.33333 v -58.66666 h 66.66667 L 255.2,132.56 c 0.50667,-0.48 0.8,-1.14667 0.8,-1.89333 C 256,129.2 254.8,128 253.33333,128 Z"
       id="path-1" />
    <linearGradient
       id="linearGradient-3-5"
       y2="37.495316"
       x2="85.409851"
       y1="31.010235"
       x1="91.72097"
       gradientTransform="matrix(7.3155946,-3.5358575,3.4458254,7.2785231,1306.8737,724.7706)"
       gradientUnits="userSpaceOnUse">
      <stop
         id="stop2630"
         offset="0%"
         stop-color="#E88C22" />
      <stop
         id="stop2632"
         offset="100%"
         stop-opacity="0"
         stop-color="#FCBB29" />
    </linearGradient>
    <linearGradient
       id="linearGradient-4"
       y2="38.90575"
       x2="36.88467"
       y1="33.918175"
       x1="31.740335"
       gradientTransform="matrix(7.0903603,-3.4269946,3.5552862,7.5097343,1925.7544,938.2348)"
       gradientUnits="userSpaceOnUse">
      <stop
         id="stop2635"
         offset="0%"
         stop-color="#5E8235" />
      <stop
         id="stop2637"
         offset="100%"
         stop-opacity="0"
         stop-color="#8CC251" />
    </linearGradient>
    <filter
       id="filter-1"
       filterUnits="objectBoundingBox"
       height="2"
       width="2"
       y="-0.5"
       x="-0.5">
      <feGaussianBlur
         id="feGaussianBlur2827"
         result="blur"
         in="SourceGraphic"
         stdDeviation="3" />
    </filter>
    <linearGradient
       gradientUnits="userSpaceOnUse"
       gradientTransform="matrix(6.5462558,-3.264828,3.146131,6.8572349,584.26326,507.52912)"
       id="linearGradient-2-8"
       y2="5.0122137"
       x2="121.76992"
       y1="236.96635"
       x1="121.76992">
      <stop
         id="stop2830"
         offset="0%"
         stop-color="#20B038" />
      <stop
         id="stop2832"
         offset="100%"
         stop-color="#60D66A" />
    </linearGradient>
    <path
       id="path-2-2"
       d="M 127.68269,0 C 57.165748,0 0,55.790933 0,124.61227 0,193.43392 57.165748,249.22453 127.68269,249.22453 l 0.27148,46.91374 c 65.60585,-37.27075 128,-87.01882 128,-171.526 C 255.95417,55.790933 198.19994,0 127.68269,0 Z" />
    <filter
       id="filter-3-2"
       filterUnits="objectBoundingBox"
       height="1.007"
       width="1.008"
       y="-0.003"
       x="-0.0040000002">
      <feOffset
         id="feOffset2528-2"
         result="shadowOffsetInner1"
         in="SourceAlpha"
         dy="2"
         dx="0" />
      <feComposite
         id="feComposite2530-7"
         result="shadowInnerInner1"
         k3="1"
         k2="-1"
         operator="arithmetic"
         in2="SourceAlpha"
         in="shadowOffsetInner1"
         k1="0"
         k4="0" />
      <feColorMatrix
         id="feColorMatrix2532-2"
         in="shadowInnerInner1"
         type="matrix"
         values="0 0 0 0 1   0 0 0 0 1   0 0 0 0 1  0 0 0 0.2 0" />
    </filter>
    <path
       id="path-4-1"
       d="M 127.68269,0 C 57.165748,0 0,55.790933 0,124.61227 0,193.43392 57.165748,249.22453 127.68269,249.22453 l 0.27148,46.91374 c 65.60585,-37.27075 128,-87.01882 128,-171.526 C 255.95417,55.790933 198.19994,0 127.68269,0 Z" />
    <filter
       id="filter-5-5"
       filterUnits="objectBoundingBox"
       height="1.007"
       width="1.008"
       y="-0.003"
       x="-0.0040000002">
      <feOffset
         id="feOffset2536-6"
         result="shadowOffsetInner1"
         in="SourceAlpha"
         dy="-2"
         dx="0" />
      <feComposite
         id="feComposite2538-7"
         result="shadowInnerInner1"
         k3="1"
         k2="-1"
         operator="arithmetic"
         in2="SourceAlpha"
         in="shadowOffsetInner1"
         k1="0"
         k4="0" />
      <feColorMatrix
         id="feColorMatrix2540-1"
         in="shadowInnerInner1"
         type="matrix"
         values="0 0 0 0 0   0 0 0 0 0   0 0 0 0 0  0 0 0 0.1 0" />
    </filter>
    <path
       id="path-6-2"
       d="M 127.68269,0 C 57.165748,0 0,55.790933 0,124.61227 0,193.43392 57.165748,249.22453 127.68269,249.22453 l 0.27148,46.91374 c 65.60585,-37.27075 128,-87.01882 128,-171.526 C 255.95417,55.790933 198.19994,0 127.68269,0 Z" />
    <path
       id="path-9-6"
       d="m 55.580192,128.1054 v 34.23858 c 0,9.03901 7.395555,16.43457 16.434567,16.43457 h 85.016021 c 9.03901,0 16.43457,-7.39556 16.43457,-16.43457 v -21.62283 l 33.65926,33.65925 v -46.275 z" />
    <filter
       id="filter-10-2"
       filterUnits="objectBoundingBox"
       height="1.118"
       width="1.026"
       y="-0.029999999"
       x="-0.0099999998">
      <feOffset
         id="feOffset2550-2"
         result="shadowOffsetOuter1"
         in="SourceAlpha"
         dy="3"
         dx="1" />
      <feColorMatrix
         id="feColorMatrix2552-4"
         in="shadowOffsetOuter1"
         type="matrix"
         values="0 0 0 0 0   0 0 0 0 0   0 0 0 0 0  0 0 0 0.1 0" />
    </filter>
    <path
       d="M 253.33333,128 H 194.66667 V 61.333333 L 132.56,0.8 C 132.08,0.29333333 131.41333,0 130.66667,0 129.2,0 128,1.2 128,2.6666667 V 61.333333 H 61.333333 L 0.8,123.44 C 0.29333333,123.92 0,124.58667 0,125.33333 0,126.8 1.2,128 2.6666667,128 H 61.333333 v 66.66667 L 123.44,255.2 c 0.48,0.50667 1.14667,0.8 1.89333,0.8 C 126.8,256 128,254.8 128,253.33333 v -58.66666 h 66.66667 L 255.2,132.56 c 0.50667,-0.48 0.8,-1.14667 0.8,-1.89333 C 256,129.2 254.8,128 253.33333,128 Z"
       id="path-1-8" />
    <filter
       id="filter-1-5"
       filterUnits="objectBoundingBox"
       height="2"
       width="2"
       y="-0.5"
       x="-0.5">
      <feGaussianBlur
         id="feGaussianBlur2827-8"
         result="blur"
         in="SourceGraphic"
         stdDeviation="3" />
    </filter>
    <filter
       inkscape:collect="always"
       style="color-interpolation-filters:sRGB"
       id="filter8868"
       x="-0.049188759"
       width="1.0983775"
       y="-0.14216749"
       height="1.284335">
      <feGaussianBlur
         inkscape:collect="always"
         stdDeviation="0.817395"
         id="feGaussianBlur8870" />
    </filter>
    <filter
       height="1.284335"
       y="-0.14216749"
       width="1.0983775"
       x="-0.049188759"
       id="filter8868-4"
       style="color-interpolation-filters:sRGB"
       inkscape:collect="always">
      <feGaussianBlur
         id="feGaussianBlur8870-5"
         stdDeviation="0.817395"
         inkscape:collect="always" />
    </filter>
    <filter
       height="1.284335"
       y="-0.14216749"
       width="1.0983775"
       x="-0.049188759"
       id="filter8868-9"
       style="color-interpolation-filters:sRGB"
       inkscape:collect="always">
      <feGaussianBlur
         id="feGaussianBlur8870-0"
         stdDeviation="0.817395"
         inkscape:collect="always" />
    </filter>
    <filter
       inkscape:collect="always"
       style="color-interpolation-filters:sRGB"
       id="filter8975"
       x="-0.039609823"
       width="1.0792197"
       y="-0.12716267"
       height="1.2543253">
      <feGaussianBlur
         inkscape:collect="always"
         stdDeviation="0.23329208"
         id="feGaussianBlur8977" />
    </filter>
  </defs>
  <sodipodi:namedview
     id="base"
     pagecolor="#ffffff"
     bordercolor="#666666"
     borderopacity="1.0"
     inkscape:pageopacity="0.0"
     inkscape:pageshadow="2"
     inkscape:zoom="0.75679348"
     inkscape:cx="595.8243"
     inkscape:cy="219.18153"
     inkscape:document-units="mm"
     inkscape:current-layer="layer1"
     inkscape:document-rotation="0"
     showgrid="false"
     objecttolerance="1"
     inkscape:window-width="1366"
     inkscape:window-height="745"
     inkscape:window-x="-8"
     inkscape:window-y="-8"
     inkscape:window-maximized="1" />
  <metadata
     id="metadata5">
    <rdf:RDF>
      <cc:Work
         rdf:about="">
        <dc:format>image/svg+xml</dc:format>
        <dc:type
           rdf:resource="http://purl.org/dc/dcmitype/StillImage" />
        <dc:title></dc:title>
      </cc:Work>
    </rdf:RDF>
  </metadata>
  <g
     inkscape:label="Capa 1"
     inkscape:groupmode="layer"
     id="layer1">
    <path
       style="opacity:1;fill:#765f22;fill-opacity:1;stroke:#72a849;stroke-width:0.670521;stroke-linecap:round;stroke-linejoin:round;stroke-miterlimit:4;stroke-dasharray:none;stroke-opacity:1"
       d="M 2.3311293,15.277477 38.027496,4.2756959 83.303991,34.094383 46.707212,48.166081 Z"
       id="path8722"
       sodipodi:nodetypes="ccccc" />
    <path
       style="fill:#4f50a0;fill-opacity:1;stroke:#000000;stroke-width:0.22176px;stroke-linecap:butt;stroke-linejoin:miter;stroke-opacity:1"
       d="M 82.3671,34.013004 C 45.933166,41.741948 55.075024,41.851964 46.751328,47.721721 L 16.055248,24.897793 C 28.926406,20.718066 36.28866,14.94552 50.423776,13.126963 Z"
       id="path8732"
       sodipodi:nodetypes="ccccc" />
    <path
       transform="matrix(0.82353142,0,0,0.85302975,-5.4002502,-2.4091099)"
       style="fill:none;stroke:#000000;stroke-width:0.264583px;stroke-linecap:butt;stroke-linejoin:miter;stroke-opacity:1;filter:url(#filter8868)"
       d="m 102.36741,42.024245 c -15.622188,4.60668 -32.526098,5.75839 -39.882038,13.79885"
       id="path8734"
       sodipodi:nodetypes="cc" />
    <path
       transform="matrix(0.82353142,0,0,0.85302975,-5.4002502,-2.4091099)"
       sodipodi:nodetypes="cc"
       id="path8734-4"
       d="m 71.488282,21.241825 c -15.622186,4.60668 -32.526101,5.75839 -39.882041,13.79885"
       style="fill:none;stroke:#000000;stroke-width:0.264583px;stroke-linecap:butt;stroke-linejoin:miter;stroke-opacity:1;filter:url(#filter8868-4)" />
    <path
       transform="matrix(0.82353142,0,0,0.85302975,-5.4002502,-2.4091099)"
       sodipodi:nodetypes="cc"
       id="path8734-2"
       d="m 75.779392,23.177035 c -15.62219,4.60668 -32.526104,5.75839 -39.882044,13.79885"
       style="fill:none;stroke:#000000;stroke-width:0.264583px;stroke-linecap:butt;stroke-linejoin:miter;stroke-opacity:1;filter:url(#filter8868-9)" />
    <rect
       style="fill:#d11611;fill-opacity:1;fill-rule:evenodd;stroke-width:0.221784"
       id="rect8903"
       width="13.905718"
       height="6.5820112"
       x="14.221986"
       y="16.499443"
       ry="2.4779806"
       transform="matrix(0.94856757,-0.31657474,0.29701945,0.95487143,0,0)" />
    <path
       transform="matrix(0.82353142,0,0,0.85302975,-5.4002502,-2.4091099)"
       style="fill:none;stroke:#fb2400;stroke-width:0.465;stroke-linecap:butt;stroke-linejoin:miter;stroke-miterlimit:4;stroke-dasharray:none;stroke-opacity:1;filter:url(#filter8975)"
       d="m 46.078201,17.161065 c -1.734701,0.97104 -10.735462,5.13397 -14.135407,4.29111"
       id="path8905"
       sodipodi:nodetypes="cc" />
  </g>
</svg>
