<?xml version="1.0" encoding="UTF-8" standalone="no"?>
<svg
   xmlns:dc="http://purl.org/dc/elements/1.1/"
   xmlns:cc="http://creativecommons.org/ns#"
   xmlns:rdf="http://www.w3.org/1999/02/22-rdf-syntax-ns#"
   xmlns:svg="http://www.w3.org/2000/svg"
   xmlns="http://www.w3.org/2000/svg"
   xmlns:sodipodi="http://sodipodi.sourceforge.net/DTD/sodipodi-0.dtd"
   xmlns:inkscape="http://www.inkscape.org/namespaces/inkscape"
   width="81mm"
   height="40.82917mm"
   viewBox="0 0 81 40.829231"
   version="1.1"
   id="svg8"
   inkscape:version="1.0 (4035a4fb49, 2020-05-01)"
   sodipodi:docname="4.svg">
  <defs
     id="defs2">
    <linearGradient
       gradientUnits="userSpaceOnUse"
       gradientTransform="matrix(1.1925696,0,0,0.83852549,410.12194,-26.870058)"
       id="linearGradient-1"
       y2="214.72729"
       x2="107.28935"
       y1="1.8633864e-06"
       x1="107.28935">
      <stop
         id="stop882"
         offset="0%"
         stop-color="#E52D27" />
      <stop
         id="stop884"
         offset="100%"
         stop-color="#BF171D" />
    </linearGradient>
    <linearGradient
       x1="107.28935"
       y1="1.8633864e-06"
       x2="107.28935"
       y2="214.72729"
       id="linearGradient-1-1"
       gradientTransform="matrix(9.2076466,0,0,7.3184088,-860.1963,-1529.5383)"
       gradientUnits="userSpaceOnUse">
      <stop
         stop-color="#E52D27"
         offset="0%"
         id="stop882-2" />
      <stop
         stop-color="#BF171D"
         offset="100%"
         id="stop884-9" />
    </linearGradient>
    <linearGradient
       gradientUnits="userSpaceOnUse"
       gradientTransform="matrix(9.2076466,0,0,7.3184088,-825.56168,-249.51896)"
       id="linearGradient-1-1-4"
       y2="214.72729"
       x2="107.28935"
       y1="1.8633864e-06"
       x1="107.28935">
      <stop
         id="stop882-2-2"
         offset="0%"
         stop-color="#E52D27" />
      <stop
         id="stop884-9-5"
         offset="100%"
         stop-color="#BF171D" />
    </linearGradient>
    <linearGradient
       id="linearGradient-1-12"
       y2="157.86263"
       x2="234.00598"
       y1="0"
       x1="76.143356"
       gradientTransform="matrix(9.0620229,-4.1149356,3.6219859,7.1876931,819.38646,2797.7224)"
       gradientUnits="userSpaceOnUse">
      <stop
         id="stop2389"
         offset="0%"
         stop-color="#F6C338" />
      <stop
         id="stop2391"
         offset="52.2782398%"
         stop-color="#FFD351" />
      <stop
         id="stop2393"
         offset="100%"
         stop-color="#F6C338" />
    </linearGradient>
    <linearGradient
       id="linearGradient-2"
       y2="366.7822"
       x2="26.801083"
       y1="239.05453"
       x1="154.52876"
       gradientTransform="matrix(13.722802,-6.2313289,2.3918234,4.7464824,819.38646,2797.7224)"
       gradientUnits="userSpaceOnUse">
      <stop
         id="stop2396"
         offset="0%"
         stop-color="#286EE6" />
      <stop
         id="stop2398"
         offset="52.1046125%"
         stop-color="#4286FB" />
      <stop
         id="stop2400"
         offset="100%"
         stop-color="#286EE6" />
    </linearGradient>
    <linearGradient
       id="linearGradient-3"
       y2="168.34251"
       x2="60.595699"
       y1="0"
       x1="109.90966"
       gradientTransform="matrix(6.2983723,-2.8600012,5.2112698,10.341567,819.38646,2797.7224)"
       gradientUnits="userSpaceOnUse">
      <stop
         id="stop2403"
         offset="0%"
         stop-color="#069B5A" />
      <stop
         id="stop2405"
         offset="53.1031222%"
         stop-color="#11AA62" />
      <stop
         id="stop2407"
         offset="100%"
         stop-color="#069B5A" />
    </linearGradient>
    <linearGradient
       id="linearGradient-1-3"
       y2="127.76156"
       x2="211.76385"
       y1="127.76156"
       x1="1.3210428"
       gradientTransform="matrix(9.2030702,-4.6161418,3.0402745,6.6644464,99.588728,1599.471)"
       gradientUnits="userSpaceOnUse">
      <stop
         id="stop2451"
         offset="0%"
         stop-opacity="0.1"
         stop-color="#000000" />
      <stop
         id="stop2453"
         offset="100%"
         stop-opacity="0.2"
         stop-color="#000000" />
    </linearGradient>
    <linearGradient
       id="linearGradient-1-9"
       y2="53.078278"
       x2="206.34541"
       y1="187.32983"
       x1="71.77459"
       gradientTransform="matrix(6.7941224,-3.7689128,3.7602202,9.115928,-114.06369,1556.34)"
       gradientUnits="userSpaceOnUse">
      <stop
         id="stop2520"
         offset="0%"
         stop-color="#058B7E" />
      <stop
         id="stop2522"
         offset="0%"
         stop-color="#058D80" />
      <stop
         id="stop2524"
         offset="100%"
         stop-color="#058D7F" />
    </linearGradient>
    <path
       id="path-2"
       d="M 127.68269,0 C 57.165748,0 0,55.790933 0,124.61227 0,193.43392 57.165748,249.22453 127.68269,249.22453 l 0.27148,46.91374 c 65.60585,-37.27075 128,-87.01882 128,-171.526 C 255.95417,55.790933 198.19994,0 127.68269,0 Z" />
    <filter
       id="filter-3"
       filterUnits="objectBoundingBox"
       height="1.007"
       width="1.008"
       y="-0.003"
       x="-0.0040000002">
      <feOffset
         id="feOffset2528"
         result="shadowOffsetInner1"
         in="SourceAlpha"
         dy="2"
         dx="0" />
      <feComposite
         id="feComposite2530"
         result="shadowInnerInner1"
         k3="1"
         k2="-1"
         operator="arithmetic"
         in2="SourceAlpha"
         in="shadowOffsetInner1"
         k1="0"
         k4="0" />
      <feColorMatrix
         id="feColorMatrix2532"
         in="shadowInnerInner1"
         type="matrix"
         values="0 0 0 0 1   0 0 0 0 1   0 0 0 0 1  0 0 0 0.2 0" />
    </filter>
    <path
       id="path-4"
       d="M 127.68269,0 C 57.165748,0 0,55.790933 0,124.61227 0,193.43392 57.165748,249.22453 127.68269,249.22453 l 0.27148,46.91374 c 65.60585,-37.27075 128,-87.01882 128,-171.526 C 255.95417,55.790933 198.19994,0 127.68269,0 Z" />
    <filter
       id="filter-5"
       filterUnits="objectBoundingBox"
       height="1.007"
       width="1.008"
       y="-0.003"
       x="-0.0040000002">
      <feOffset
         id="feOffset2536"
         result="shadowOffsetInner1"
         in="SourceAlpha"
         dy="-2"
         dx="0" />
      <feComposite
         id="feComposite2538"
         result="shadowInnerInner1"
         k3="1"
         k2="-1"
         operator="arithmetic"
         in2="SourceAlpha"
         in="shadowOffsetInner1"
         k1="0"
         k4="0" />
      <feColorMatrix
         id="feColorMatrix2540"
         in="shadowInnerInner1"
         type="matrix"
         values="0 0 0 0 0   0 0 0 0 0   0 0 0 0 0  0 0 0 0.1 0" />
    </filter>
    <path
       id="path-6"
       d="M 127.68269,0 C 57.165748,0 0,55.790933 0,124.61227 0,193.43392 57.165748,249.22453 127.68269,249.22453 l 0.27148,46.91374 c 65.60585,-37.27075 128,-87.01882 128,-171.526 C 255.95417,55.790933 198.19994,0 127.68269,0 Z" />
    <linearGradient
       id="linearGradient-8"
       y2="249.40137"
       x2="221.34538"
       y1="135.5235"
       x1="118.28331"
       gradientTransform="matrix(7.2722455,-4.0341427,3.5129996,8.5165893,-114.06369,1556.34)"
       gradientUnits="userSpaceOnUse">
      <stop
         id="stop2544"
         offset="0%"
         stop-color="#000000" />
      <stop
         id="stop2546"
         offset="100%"
         stop-opacity="0"
         stop-color="#D8D8D8" />
    </linearGradient>
    <path
       id="path-9"
       d="m 55.580192,128.1054 v 34.23858 c 0,9.03901 7.395555,16.43457 16.434567,16.43457 h 85.016021 c 9.03901,0 16.43457,-7.39556 16.43457,-16.43457 v -21.62283 l 33.65926,33.65925 v -46.275 z" />
    <filter
       id="filter-10"
       filterUnits="objectBoundingBox"
       height="1.118"
       width="1.026"
       y="-0.029999999"
       x="-0.0099999998">
      <feOffset
         id="feOffset2550"
         result="shadowOffsetOuter1"
         in="SourceAlpha"
         dy="3"
         dx="1" />
      <feColorMatrix
         id="feColorMatrix2552"
         in="shadowOffsetOuter1"
         type="matrix"
         values="0 0 0 0 0   0 0 0 0 0   0 0 0 0 0  0 0 0 0.1 0" />
    </filter>
    <path
       d="M 253.33333,128 H 194.66667 V 61.333333 L 132.56,0.8 C 132.08,0.29333333 131.41333,0 130.66667,0 129.2,0 128,1.2 128,2.6666667 V 61.333333 H 61.333333 L 0.8,123.44 C 0.29333333,123.92 0,124.58667 0,125.33333 0,126.8 1.2,128 2.6666667,128 H 61.333333 v 66.66667 L 123.44,255.2 c 0.48,0.50667 1.14667,0.8 1.89333,0.8 C 126.8,256 128,254.8 128,253.33333 v -58.66666 h 66.66667 L 255.2,132.56 c 0.50667,-0.48 0.8,-1.14667 0.8,-1.89333 C 256,129.2 254.8,128 253.33333,128 Z"
       id="path-1" />
    <linearGradient
       id="linearGradient-3-5"
       y2="37.495316"
       x2="85.409851"
       y1="31.010235"
       x1="91.72097"
       gradientTransform="matrix(7.3155946,-3.5358575,3.4458254,7.2785231,1306.8737,724.7706)"
       gradientUnits="userSpaceOnUse">
      <stop
         id="stop2630"
         offset="0%"
         stop-color="#E88C22" />
      <stop
         id="stop2632"
         offset="100%"
         stop-opacity="0"
         stop-color="#FCBB29" />
    </linearGradient>
    <linearGradient
       id="linearGradient-4"
       y2="38.90575"
       x2="36.88467"
       y1="33.918175"
       x1="31.740335"
       gradientTransform="matrix(7.0903603,-3.4269946,3.5552862,7.5097343,1925.7544,938.2348)"
       gradientUnits="userSpaceOnUse">
      <stop
         id="stop2635"
         offset="0%"
         stop-color="#5E8235" />
      <stop
         id="stop2637"
         offset="100%"
         stop-opacity="0"
         stop-color="#8CC251" />
    </linearGradient>
    <filter
       id="filter-1"
       filterUnits="objectBoundingBox"
       height="2"
       width="2"
       y="-0.5"
       x="-0.5">
      <feGaussianBlur
         id="feGaussianBlur2827"
         result="blur"
         in="SourceGraphic"
         stdDeviation="3" />
    </filter>
    <linearGradient
       gradientUnits="userSpaceOnUse"
       gradientTransform="matrix(6.5462558,-3.264828,3.146131,6.8572349,584.26326,507.52912)"
       id="linearGradient-2-8"
       y2="5.0122137"
       x2="121.76992"
       y1="236.96635"
       x1="121.76992">
      <stop
         id="stop2830"
         offset="0%"
         stop-color="#20B038" />
      <stop
         id="stop2832"
         offset="100%"
         stop-color="#60D66A" />
    </linearGradient>
    <path
       id="path-2-2"
       d="M 127.68269,0 C 57.165748,0 0,55.790933 0,124.61227 0,193.43392 57.165748,249.22453 127.68269,249.22453 l 0.27148,46.91374 c 65.60585,-37.27075 128,-87.01882 128,-171.526 C 255.95417,55.790933 198.19994,0 127.68269,0 Z" />
    <filter
       id="filter-3-2"
       filterUnits="objectBoundingBox"
       height="1.007"
       width="1.008"
       y="-0.003"
       x="-0.0040000002">
      <feOffset
         id="feOffset2528-2"
         result="shadowOffsetInner1"
         in="SourceAlpha"
         dy="2"
         dx="0" />
      <feComposite
         id="feComposite2530-7"
         result="shadowInnerInner1"
         k3="1"
         k2="-1"
         operator="arithmetic"
         in2="SourceAlpha"
         in="shadowOffsetInner1"
         k1="0"
         k4="0" />
      <feColorMatrix
         id="feColorMatrix2532-2"
         in="shadowInnerInner1"
         type="matrix"
         values="0 0 0 0 1   0 0 0 0 1   0 0 0 0 1  0 0 0 0.2 0" />
    </filter>
    <path
       id="path-4-1"
       d="M 127.68269,0 C 57.165748,0 0,55.790933 0,124.61227 0,193.43392 57.165748,249.22453 127.68269,249.22453 l 0.27148,46.91374 c 65.60585,-37.27075 128,-87.01882 128,-171.526 C 255.95417,55.790933 198.19994,0 127.68269,0 Z" />
    <filter
       id="filter-5-5"
       filterUnits="objectBoundingBox"
       height="1.007"
       width="1.008"
       y="-0.003"
       x="-0.0040000002">
      <feOffset
         id="feOffset2536-6"
         result="shadowOffsetInner1"
         in="SourceAlpha"
         dy="-2"
         dx="0" />
      <feComposite
         id="feComposite2538-7"
         result="shadowInnerInner1"
         k3="1"
         k2="-1"
         operator="arithmetic"
         in2="SourceAlpha"
         in="shadowOffsetInner1"
         k1="0"
         k4="0" />
      <feColorMatrix
         id="feColorMatrix2540-1"
         in="shadowInnerInner1"
         type="matrix"
         values="0 0 0 0 0   0 0 0 0 0   0 0 0 0 0  0 0 0 0.1 0" />
    </filter>
    <path
       id="path-6-2"
       d="M 127.68269,0 C 57.165748,0 0,55.790933 0,124.61227 0,193.43392 57.165748,249.22453 127.68269,249.22453 l 0.27148,46.91374 c 65.60585,-37.27075 128,-87.01882 128,-171.526 C 255.95417,55.790933 198.19994,0 127.68269,0 Z" />
    <path
       id="path-9-6"
       d="m 55.580192,128.1054 v 34.23858 c 0,9.03901 7.395555,16.43457 16.434567,16.43457 h 85.016021 c 9.03901,0 16.43457,-7.39556 16.43457,-16.43457 v -21.62283 l 33.65926,33.65925 v -46.275 z" />
    <filter
       id="filter-10-2"
       filterUnits="objectBoundingBox"
       height="1.118"
       width="1.026"
       y="-0.029999999"
       x="-0.0099999998">
      <feOffset
         id="feOffset2550-2"
         result="shadowOffsetOuter1"
         in="SourceAlpha"
         dy="3"
         dx="1" />
      <feColorMatrix
         id="feColorMatrix2552-4"
         in="shadowOffsetOuter1"
         type="matrix"
         values="0 0 0 0 0   0 0 0 0 0   0 0 0 0 0  0 0 0 0.1 0" />
    </filter>
    <path
       d="M 253.33333,128 H 194.66667 V 61.333333 L 132.56,0.8 C 132.08,0.29333333 131.41333,0 130.66667,0 129.2,0 128,1.2 128,2.6666667 V 61.333333 H 61.333333 L 0.8,123.44 C 0.29333333,123.92 0,124.58667 0,125.33333 0,126.8 1.2,128 2.6666667,128 H 61.333333 v 66.66667 L 123.44,255.2 c 0.48,0.50667 1.14667,0.8 1.89333,0.8 C 126.8,256 128,254.8 128,253.33333 v -58.66666 h 66.66667 L 255.2,132.56 c 0.50667,-0.48 0.8,-1.14667 0.8,-1.89333 C 256,129.2 254.8,128 253.33333,128 Z"
       id="path-1-8" />
    <filter
       id="filter-1-5"
       filterUnits="objectBoundingBox"
       height="2"
       width="2"
       y="-0.5"
       x="-0.5">
      <feGaussianBlur
         id="feGaussianBlur2827-8"
         result="blur"
         in="SourceGraphic"
         stdDeviation="3" />
    </filter>
  </defs>
  <sodipodi:namedview
     units="mm"
     id="base"
     pagecolor="#ffffff"
     bordercolor="#666666"
     borderopacity="1.0"
     inkscape:pageopacity="0.0"
     inkscape:pageshadow="2"
     inkscape:zoom="0.26725453"
     inkscape:cx="-48.31625"
     inkscape:cy="623.98352"
     inkscape:document-units="mm"
     inkscape:current-layer="layer1"
     inkscape:document-rotation="0"
     showgrid="false"
     objecttolerance="1"
     inkscape:window-width="1366"
     inkscape:window-height="745"
     inkscape:window-x="-8"
     inkscape:window-y="-8"
     inkscape:window-maximized="1" />
  <metadata
     id="metadata5">
    <rdf:RDF>
      <cc:Work
         rdf:about="">
        <dc:format>image/svg+xml</dc:format>
        <dc:type
           rdf:resource="http://purl.org/dc/dcmitype/StillImage" />
        <dc:title></dc:title>
      </cc:Work>
    </rdf:RDF>
  </metadata>
  <g
     inkscape:label="Capa 1"
     inkscape:groupmode="layer"
     id="layer1">
    <path
       sodipodi:nodetypes="ccccc"
       id="path5784-5"
       d="m 16.753266,30.025884 c -0.67785,-6.45551 -0.72903,-8.41886 2.36112,-14.70653 3.19535,-15.86098 -8.521639,-10.36259 -12.5290289,-3.17756 1.28174,10.47935 -0.9671,14.29598 0.28768,18.15861 3.4463499,5.28344 7.5275599,4.1014 9.8802289,-0.27452 z"
       style="fill:#1abe4e;fill-opacity:1;stroke:#000000;stroke-width:0.724;stroke-linecap:butt;stroke-linejoin:miter;stroke-miterlimit:4;stroke-dasharray:none;stroke-opacity:1" />
    <path
       style="fill:none;stroke:#000000;stroke-width:0.465;stroke-linecap:butt;stroke-linejoin:miter;stroke-miterlimit:4;stroke-dasharray:none;stroke-opacity:1"
       d="m 17.650149,5.514564 c -2.788214,2.13596 -4.048406,5.03593 -5.116613,8.03189"
       id="path5801"
       sodipodi:nodetypes="cc" />
    <path
       style="fill:none;stroke:#000000;stroke-width:0.465;stroke-linecap:butt;stroke-linejoin:miter;stroke-miterlimit:4;stroke-dasharray:none;stroke-opacity:1"
       d="m 18.661573,15.926274 c -1.745182,-1.25605 -3.506028,-2.48425 -5.94955,-2.49881 -2.092258,-0.95115 -4.1845169,-1.41712 -6.2767749,-1.10066"
       id="path5803"
       sodipodi:nodetypes="ccc" />
    <path
       style="opacity:1;fill:#16a343;fill-opacity:0.810484;stroke:none;stroke-width:0.462193;stroke-linecap:round;stroke-linejoin:round;stroke-miterlimit:4;stroke-dasharray:none;stroke-opacity:1;paint-order:stroke fill markers"
       id="path5805"
       sodipodi:type="arc"
       sodipodi:cx="11.737436"
       sodipodi:cy="28.98601"
       sodipodi:rx="2.6517925"
       sodipodi:ry="2.5676529"
       sodipodi:start="0.02653616"
       sodipodi:end="0.0073811894"
       sodipodi:open="true"
       sodipodi:arc-type="arc"
       d="m 14.388295,29.054137 a 2.6517925,2.5676529 0 0 1 -2.708524,2.498918 2.6517925,2.5676529 0 0 1 -2.5937459,-2.610587 2.6517925,2.5676529 0 0 1 2.6836829,-2.523921 2.6517925,2.5676529 0 0 1 2.619449,2.586415" />
    <path
       style="fill:#1abe4e;fill-opacity:1;stroke:#000000;stroke-width:0.724001;stroke-linecap:butt;stroke-linejoin:miter;stroke-miterlimit:4;stroke-dasharray:none;stroke-opacity:1"
       d="m 24.082389,29.856767 c 0.67785,-6.45551 0.72903,-8.41886 -2.361117,-14.70653 -3.195348,-15.86098035 8.521637,-10.3625903 12.529027,-3.17756 -1.28174,10.47935 0.9671,14.29598 -0.28768,18.15861 -3.44635,5.28344 -7.52756,4.1014 -9.88023,-0.27452 z"
       id="path5784-5-9"
       sodipodi:nodetypes="ccccc" />
    <path
       sodipodi:nodetypes="cc"
       id="path5801-4"
       d="m 23.185509,5.3454467 c 2.78821,2.13596 4.0484,5.0359303 5.11661,8.0318903"
       style="fill:none;stroke:#000000;stroke-width:0.465;stroke-linecap:butt;stroke-linejoin:miter;stroke-miterlimit:4;stroke-dasharray:none;stroke-opacity:1" />
    <path
       sodipodi:nodetypes="ccc"
       id="path5803-3"
       d="m 22.174082,15.757157 c 1.745187,-1.25605 3.506027,-2.48425 5.949547,-2.49881 2.09226,-0.95115 4.18452,-1.41712 6.27677,-1.10066"
       style="fill:none;stroke:#000000;stroke-width:0.465;stroke-linecap:butt;stroke-linejoin:miter;stroke-miterlimit:4;stroke-dasharray:none;stroke-opacity:1" />
    <path
       d="m -26.44735,28.88503 a 2.6517925,2.5676529 0 0 1 -2.708524,2.498918 2.6517925,2.5676529 0 0 1 -2.593747,-2.610588 2.6517925,2.5676529 0 0 1 2.683683,-2.523921 2.6517925,2.5676529 0 0 1 2.619449,2.586415"
       sodipodi:arc-type="arc"
       sodipodi:open="true"
       sodipodi:end="0.0073811894"
       sodipodi:start="0.02653616"
       sodipodi:ry="2.5676529"
       sodipodi:rx="2.6517925"
       sodipodi:cy="28.816902"
       sodipodi:cx="-29.098209"
       sodipodi:type="arc"
       id="path5805-8"
       style="opacity:1;fill:#16a343;fill-opacity:0.810484;stroke:none;stroke-width:0.462193;stroke-linecap:round;stroke-linejoin:round;stroke-miterlimit:4;stroke-dasharray:none;stroke-opacity:1;paint-order:stroke fill markers"
       transform="scale(-1,1)" />
    <path
       sodipodi:nodetypes="ccccc"
       id="path5784-5-9-9"
       d="m 61.945096,29.688495 c 0.67785,-6.45551 0.72903,-8.41885 -2.36112,-14.70653 -3.19534,-15.86097955 8.52164,-10.3625896 12.52903,-3.17756 -1.28174,10.47935 0.9671,14.29599 -0.28768,18.15861 -3.44635,5.28344 -7.52756,4.1014 -9.88023,-0.27452 z"
       style="fill:#ca1616;fill-opacity:1;stroke:#000000;stroke-width:0.724001;stroke-linecap:butt;stroke-linejoin:miter;stroke-miterlimit:4;stroke-dasharray:none;stroke-opacity:1" />
    <path
       style="fill:none;stroke:#000000;stroke-width:0.465;stroke-linecap:butt;stroke-linejoin:miter;stroke-miterlimit:4;stroke-dasharray:none;stroke-opacity:1"
       d="m 72.078916,11.882335 c -1.46419,0.13752 -2.91859,0.65608 -4.22418,1.66588 l 0.41647,8.56735 c 8.48345,12.33208 -9.84218,10.19291 -3.09376,0.35697 l -0.0595,-7.8534 c -2.24877,-0.6193 -4.01726,-0.47014 -5.47359,0.17848"
       id="path5846"
       sodipodi:nodetypes="cccccc" />
    <path
       style="fill:#a71212;fill-opacity:1;stroke:#000000;stroke-width:0.264583px;stroke-linecap:butt;stroke-linejoin:miter;stroke-opacity:1"
       d="m 65.266686,22.472535 c -0.33655,1.19337 -0.90355,2.41966 -0.72882,3.53999 0.0739,0.261 -0.0155,0.66203 0.58008,0.47596 1.20974,-0.46318 2.41948,-0.66281 3.62922,-0.17849 0.2085,0.0102 0.5341,-0.0857 0.43134,-0.38672 -0.0123,-1.25397 -0.64588,-2.66253 -1.05285,-3.62057 -0.0706,-0.1663 -0.3263,-6.55759 -0.46273,-8.73616 -0.0206,-0.3284 -1.8981,0.15728 -2.48521,0.6666 -0.12904,0.11194 0.0686,8.16024 0.0753,8.27846"
       id="path5848"
       sodipodi:nodetypes="cccccsssc" />
    <path
       style="opacity:1;fill:#521414;fill-opacity:1;stroke:none;stroke-width:0.486396;stroke-linecap:round;stroke-linejoin:round;stroke-miterlimit:4;stroke-dasharray:none;stroke-opacity:1;paint-order:stroke fill markers"
       id="path5859"
       sodipodi:type="arc"
       sodipodi:cx="67.445694"
       sodipodi:cy="28.251045"
       sodipodi:rx="2.5806172"
       sodipodi:ry="1.6584369"
       sodipodi:start="0.02653616"
       sodipodi:end="0.0073811894"
       sodipodi:open="true"
       sodipodi:arc-type="arc"
       d="m 70.025403,28.295049 a 2.5806172,1.6584369 0 0 1 -2.635826,1.614041 2.5806172,1.6584369 0 0 1 -2.524129,-1.686168 2.5806172,1.6584369 0 0 1 2.611651,-1.630191 2.5806172,1.6584369 0 0 1 2.549142,1.670555" />
    <path
       style="fill:none;stroke:#872607;stroke-width:0.465;stroke-linecap:butt;stroke-linejoin:miter;stroke-miterlimit:4;stroke-dasharray:none;stroke-opacity:1"
       d="m 60.016206,14.544765 c -1.33512,-9.1484396 2.64072,-12.9055296 11.52725,-2.73679"
       id="path5861"
       sodipodi:nodetypes="cc" />
    <path
       sodipodi:nodetypes="cccccc"
       id="path5846-1"
       d="m 71.798246,11.917945 c -1.46419,0.13752 -2.91859,0.65608 -4.22418,1.66588 l 0.41647,8.56735 c 8.48345,12.33208 -9.84218,10.19291 -3.09376,0.35697 l -0.0595,-7.8534 c -2.24877,-0.6193 -4.01726,-0.47014 -5.47359,0.17848"
       style="fill:none;stroke:#000000;stroke-width:0.465;stroke-linecap:butt;stroke-linejoin:miter;stroke-miterlimit:4;stroke-dasharray:none;stroke-opacity:1" />
    <path
       style="opacity:1;fill:#434343;fill-opacity:1;stroke:none;stroke-width:0.465;stroke-linecap:round;stroke-linejoin:round;stroke-miterlimit:4;stroke-dasharray:none;stroke-opacity:1;paint-order:stroke fill markers"
       id="path5878"
       sodipodi:type="arc"
       sodipodi:cx="68.944351"
       sodipodi:cy="21.069115"
       sodipodi:rx="0.34953603"
       sodipodi:ry="0.31235135"
       sodipodi:start="0.02653616"
       sodipodi:end="0.0073811894"
       sodipodi:open="true"
       sodipodi:arc-type="arc"
       d="m 69.293764,21.077402 a 0.34953603,0.31235135 0 0 1 -0.357014,0.30399 0.34953603,0.31235135 0 0 1 -0.341885,-0.317574 0.34953603,0.31235135 0 0 1 0.35374,-0.307032 0.34953603,0.31235135 0 0 1 0.345273,0.314634" />
    <path
       d="m 64.442553,22.221064 a 0.34953603,0.31235135 0 0 1 -0.357014,0.30399 0.34953603,0.31235135 0 0 1 -0.341885,-0.317575 0.34953603,0.31235135 0 0 1 0.353739,-0.307031 0.34953603,0.31235135 0 0 1 0.345273,0.314634"
       sodipodi:arc-type="arc"
       sodipodi:open="true"
       sodipodi:end="0.0073811894"
       sodipodi:start="0.02653616"
       sodipodi:ry="0.31235135"
       sodipodi:rx="0.34953603"
       sodipodi:cy="22.212776"
       sodipodi:cx="64.09314"
       sodipodi:type="arc"
       id="path5878-6"
       style="opacity:1;fill:#434343;fill-opacity:1;stroke:none;stroke-width:0.465;stroke-linecap:round;stroke-linejoin:round;stroke-miterlimit:4;stroke-dasharray:none;stroke-opacity:1;paint-order:stroke fill markers" />
    <path
       d="m 64.372011,19.855181 a 0.34953603,0.31235135 0 0 1 -0.357014,0.30399 0.34953603,0.31235135 0 0 1 -0.341885,-0.317575 0.34953603,0.31235135 0 0 1 0.35374,-0.307031 0.34953603,0.31235135 0 0 1 0.345273,0.314634"
       sodipodi:arc-type="arc"
       sodipodi:open="true"
       sodipodi:end="0.0073811894"
       sodipodi:start="0.02653616"
       sodipodi:ry="0.31235135"
       sodipodi:rx="0.34953603"
       sodipodi:cy="19.846893"
       sodipodi:cx="64.022598"
       sodipodi:type="arc"
       id="path5878-1"
       style="opacity:1;fill:#434343;fill-opacity:1;stroke:none;stroke-width:0.465;stroke-linecap:round;stroke-linejoin:round;stroke-miterlimit:4;stroke-dasharray:none;stroke-opacity:1;paint-order:stroke fill markers" />
    <path
       d="m 69.214907,19.83977 a 0.34953603,0.31235135 0 0 1 -0.357014,0.303989 0.34953603,0.31235135 0 0 1 -0.341885,-0.317574 0.34953603,0.31235135 0 0 1 0.353739,-0.307031 0.34953603,0.31235135 0 0 1 0.345273,0.314633"
       sodipodi:arc-type="arc"
       sodipodi:open="true"
       sodipodi:end="0.0073811894"
       sodipodi:start="0.02653616"
       sodipodi:ry="0.31235135"
       sodipodi:rx="0.34953603"
       sodipodi:cy="19.831482"
       sodipodi:cx="68.865494"
       sodipodi:type="arc"
       id="path5878-2"
       style="opacity:1;fill:#434343;fill-opacity:1;stroke:none;stroke-width:0.465;stroke-linecap:round;stroke-linejoin:round;stroke-miterlimit:4;stroke-dasharray:none;stroke-opacity:1;paint-order:stroke fill markers" />
    <path
       d="m 69.175905,18.71464 a 0.34953603,0.31235135 0 0 1 -0.357014,0.30399 0.34953603,0.31235135 0 0 1 -0.341884,-0.317575 0.34953603,0.31235135 0 0 1 0.353739,-0.307031 0.34953603,0.31235135 0 0 1 0.345273,0.314634"
       sodipodi:arc-type="arc"
       sodipodi:open="true"
       sodipodi:end="0.0073811894"
       sodipodi:start="0.02653616"
       sodipodi:ry="0.31235135"
       sodipodi:rx="0.34953603"
       sodipodi:cy="18.706352"
       sodipodi:cx="68.826492"
       sodipodi:type="arc"
       id="path5878-27"
       style="opacity:1;fill:#434343;fill-opacity:1;stroke:none;stroke-width:0.465;stroke-linecap:round;stroke-linejoin:round;stroke-miterlimit:4;stroke-dasharray:none;stroke-opacity:1;paint-order:stroke fill markers" />
    <path
       d="m 69.202578,17.440752 a 0.34953603,0.31235135 0 0 1 -0.357014,0.30399 0.34953603,0.31235135 0 0 1 -0.341885,-0.317574 0.34953603,0.31235135 0 0 1 0.353739,-0.307032 0.34953603,0.31235135 0 0 1 0.345273,0.314634"
       sodipodi:arc-type="arc"
       sodipodi:open="true"
       sodipodi:end="0.0073811894"
       sodipodi:start="0.02653616"
       sodipodi:ry="0.31235135"
       sodipodi:rx="0.34953603"
       sodipodi:cy="17.432465"
       sodipodi:cx="68.853165"
       sodipodi:type="arc"
       id="path5878-8"
       style="opacity:1;fill:#434343;fill-opacity:1;stroke:none;stroke-width:0.465;stroke-linecap:round;stroke-linejoin:round;stroke-miterlimit:4;stroke-dasharray:none;stroke-opacity:1;paint-order:stroke fill markers" />
    <path
       d="m 69.097948,16.25281 a 0.34953603,0.31235135 0 0 1 -0.357014,0.30399 0.34953603,0.31235135 0 0 1 -0.341885,-0.317575 0.34953603,0.31235135 0 0 1 0.35374,-0.307031 0.34953603,0.31235135 0 0 1 0.345273,0.314634"
       sodipodi:arc-type="arc"
       sodipodi:open="true"
       sodipodi:end="0.0073811894"
       sodipodi:start="0.02653616"
       sodipodi:ry="0.31235135"
       sodipodi:rx="0.34953603"
       sodipodi:cy="16.244522"
       sodipodi:cx="68.748535"
       sodipodi:type="arc"
       id="path5878-7"
       style="opacity:1;fill:#434343;fill-opacity:1;stroke:none;stroke-width:0.465;stroke-linecap:round;stroke-linejoin:round;stroke-miterlimit:4;stroke-dasharray:none;stroke-opacity:1;paint-order:stroke fill markers" />
    <path
       d="m 69.134584,15.096422 a 0.34953603,0.31235135 0 0 1 -0.357013,0.30399 0.34953603,0.31235135 0 0 1 -0.341885,-0.317574 0.34953603,0.31235135 0 0 1 0.353739,-0.307031 0.34953603,0.31235135 0 0 1 0.345273,0.314633"
       sodipodi:arc-type="arc"
       sodipodi:open="true"
       sodipodi:end="0.0073811894"
       sodipodi:start="0.02653616"
       sodipodi:ry="0.31235135"
       sodipodi:rx="0.34953603"
       sodipodi:cy="15.088135"
       sodipodi:cx="68.785172"
       sodipodi:type="arc"
       id="path5878-13"
       style="opacity:1;fill:#434343;fill-opacity:1;stroke:none;stroke-width:0.465;stroke-linecap:round;stroke-linejoin:round;stroke-miterlimit:4;stroke-dasharray:none;stroke-opacity:1;paint-order:stroke fill markers" />
    <path
       d="m 64.373278,20.986162 a 0.34953603,0.31235135 0 0 1 -0.357014,0.30399 0.34953603,0.31235135 0 0 1 -0.341885,-0.317574 0.34953603,0.31235135 0 0 1 0.353739,-0.307031 0.34953603,0.31235135 0 0 1 0.345273,0.314633"
       sodipodi:arc-type="arc"
       sodipodi:open="true"
       sodipodi:end="0.0073811894"
       sodipodi:start="0.02653616"
       sodipodi:ry="0.31235135"
       sodipodi:rx="0.34953603"
       sodipodi:cy="20.977875"
       sodipodi:cx="64.023865"
       sodipodi:type="arc"
       id="path5878-5"
       style="opacity:1;fill:#434343;fill-opacity:1;stroke:none;stroke-width:0.465;stroke-linecap:round;stroke-linejoin:round;stroke-miterlimit:4;stroke-dasharray:none;stroke-opacity:1;paint-order:stroke fill markers" />
    <path
       d="m 64.372011,18.601595 a 0.34953603,0.31235135 0 0 1 -0.357014,0.30399 0.34953603,0.31235135 0 0 1 -0.341885,-0.317574 0.34953603,0.31235135 0 0 1 0.35374,-0.307032 0.34953603,0.31235135 0 0 1 0.345273,0.314634"
       sodipodi:arc-type="arc"
       sodipodi:open="true"
       sodipodi:end="0.0073811894"
       sodipodi:start="0.02653616"
       sodipodi:ry="0.31235135"
       sodipodi:rx="0.34953603"
       sodipodi:cy="18.593307"
       sodipodi:cx="64.022598"
       sodipodi:type="arc"
       id="path5878-4"
       style="opacity:1;fill:#434343;fill-opacity:1;stroke:none;stroke-width:0.465;stroke-linecap:round;stroke-linejoin:round;stroke-miterlimit:4;stroke-dasharray:none;stroke-opacity:1;paint-order:stroke fill markers" />
    <path
       d="m 64.230703,17.449557 a 0.34953603,0.31235135 0 0 1 -0.357013,0.303989 0.34953603,0.31235135 0 0 1 -0.341885,-0.317574 0.34953603,0.31235135 0 0 1 0.353739,-0.307031 0.34953603,0.31235135 0 0 1 0.345273,0.314633"
       sodipodi:arc-type="arc"
       sodipodi:open="true"
       sodipodi:end="0.0073811894"
       sodipodi:start="0.02653616"
       sodipodi:ry="0.31235135"
       sodipodi:rx="0.34953603"
       sodipodi:cy="17.441269"
       sodipodi:cx="63.88129"
       sodipodi:type="arc"
       id="path5878-48"
       style="opacity:1;fill:#434343;fill-opacity:1;stroke:none;stroke-width:0.465;stroke-linecap:round;stroke-linejoin:round;stroke-miterlimit:4;stroke-dasharray:none;stroke-opacity:1;paint-order:stroke fill markers" />
    <path
       d="m 64.270453,16.1934 a 0.34953603,0.31235135 0 0 1 -0.357014,0.303989 0.34953603,0.31235135 0 0 1 -0.341885,-0.317574 0.34953603,0.31235135 0 0 1 0.353739,-0.307031 0.34953603,0.31235135 0 0 1 0.345273,0.314634"
       sodipodi:arc-type="arc"
       sodipodi:open="true"
       sodipodi:end="0.0073811894"
       sodipodi:start="0.02653616"
       sodipodi:ry="0.31235135"
       sodipodi:rx="0.34953603"
       sodipodi:cy="16.185112"
       sodipodi:cx="63.92104"
       sodipodi:type="arc"
       id="path5878-54"
       style="opacity:1;fill:#434343;fill-opacity:1;stroke:none;stroke-width:0.465;stroke-linecap:round;stroke-linejoin:round;stroke-miterlimit:4;stroke-dasharray:none;stroke-opacity:1;paint-order:stroke fill markers" />
    <path
       style="fill:none;stroke:#773023;stroke-width:0.365;stroke-linecap:butt;stroke-linejoin:miter;stroke-miterlimit:4;stroke-dasharray:none;stroke-opacity:1"
       d="m 68.910116,21.055865 c -1.5209,-0.21741 -3.12095,0.0853 -4.83801,1.15692"
       id="path5967"
       sodipodi:nodetypes="cc" />
    <path
       sodipodi:nodetypes="cc"
       id="path5967-0"
       d="m 68.903976,19.809605 c -1.5209,-0.21741 -3.12095,0.0853 -4.83801,1.15692"
       style="fill:none;stroke:#773023;stroke-width:0.365001;stroke-linecap:butt;stroke-linejoin:miter;stroke-miterlimit:4;stroke-dasharray:none;stroke-opacity:1" />
    <path
       sodipodi:nodetypes="cc"
       id="path5967-3"
       d="m 68.829296,18.654715 c -1.5209,-0.21741 -3.12095,0.0853 -4.83801,1.15692"
       style="fill:none;stroke:#773023;stroke-width:0.365001;stroke-linecap:butt;stroke-linejoin:miter;stroke-miterlimit:4;stroke-dasharray:none;stroke-opacity:1" />
    <path
       sodipodi:nodetypes="cc"
       id="path5967-4"
       d="m 68.866376,17.396745 c -1.5209,-0.21741 -3.12095,0.0853 -4.83801,1.15692"
       style="fill:none;stroke:#773023;stroke-width:0.365001;stroke-linecap:butt;stroke-linejoin:miter;stroke-miterlimit:4;stroke-dasharray:none;stroke-opacity:1" />
    <path
       sodipodi:nodetypes="cc"
       id="path5967-7"
       d="m 68.739946,16.236585 c -1.5209,-0.21741 -3.12095,0.0853 -4.83801,1.15692"
       style="fill:none;stroke:#773023;stroke-width:0.365001;stroke-linecap:butt;stroke-linejoin:miter;stroke-miterlimit:4;stroke-dasharray:none;stroke-opacity:1" />
    <path
       sodipodi:nodetypes="cc"
       id="path5967-01"
       d="m 68.747386,15.039235 c -1.5209,-0.21741 -3.12095,0.0853 -4.83801,1.15692"
       style="fill:none;stroke:#773023;stroke-width:0.365001;stroke-linecap:butt;stroke-linejoin:miter;stroke-miterlimit:4;stroke-dasharray:none;stroke-opacity:1" />
    <path
       style="fill:#ca1616;fill-opacity:1;stroke:#000000;stroke-width:0.724001;stroke-linecap:butt;stroke-linejoin:miter;stroke-miterlimit:4;stroke-dasharray:none;stroke-opacity:1"
       d="m 54.167193,29.940909 c -0.67785,-6.45551 -0.72903,-8.41885 2.36112,-14.70653 3.19534,-15.86097959 -8.52164,-10.3625896 -12.52903,-3.17756 1.28174,10.47935 -0.9671,14.29599 0.28768,18.15861 3.44635,5.28344 7.52756,4.1014 9.88023,-0.27452 z"
       id="path5784-5-9-9-4"
       sodipodi:nodetypes="ccccc" />
    <path
       sodipodi:nodetypes="cccccc"
       id="path5846-5"
       d="m 44.033373,12.134749 c 1.46419,0.13752 2.91859,0.65608 4.22418,1.66588 l -0.41647,8.56735 c -8.48345,12.33208 9.84218,10.19291 3.09376,0.35697 l 0.0595,-7.8534 c 2.24877,-0.6193 4.01726,-0.47014 5.47359,0.17848"
       style="fill:none;stroke:#000000;stroke-width:0.465;stroke-linecap:butt;stroke-linejoin:miter;stroke-miterlimit:4;stroke-dasharray:none;stroke-opacity:1" />
    <path
       sodipodi:nodetypes="cccccsssc"
       id="path5848-0"
       d="m 50.845603,22.724949 c 0.33655,1.19337 0.90355,2.41966 0.72882,3.53999 -0.0739,0.261 0.0155,0.66203 -0.58008,0.47596 -1.20974,-0.46318 -2.41948,-0.66281 -3.62922,-0.17849 -0.2085,0.0102 -0.5341,-0.0857 -0.43134,-0.38672 0.0123,-1.25397 0.64588,-2.66253 1.05285,-3.62057 0.0706,-0.1663 0.3263,-6.55759 0.46273,-8.73616 0.0206,-0.3284 1.8981,0.15728 2.48521,0.6666 0.12904,0.11194 -0.0686,8.16024 -0.0753,8.27846"
       style="fill:#a71212;fill-opacity:1;stroke:#000000;stroke-width:0.264583px;stroke-linecap:butt;stroke-linejoin:miter;stroke-opacity:1" />
    <path
       d="m -46.086887,28.547477 a 2.5806174,1.6584369 0 0 1 -2.635826,1.614041 2.5806174,1.6584369 0 0 1 -2.524129,-1.686168 2.5806174,1.6584369 0 0 1 2.611652,-1.630191 2.5806174,1.6584369 0 0 1 2.549142,1.670555"
       sodipodi:arc-type="arc"
       sodipodi:open="true"
       sodipodi:end="0.0073811894"
       sodipodi:start="0.02653616"
       sodipodi:ry="1.6584369"
       sodipodi:rx="2.5806174"
       sodipodi:cy="28.503473"
       sodipodi:cx="-48.666595"
       sodipodi:type="arc"
       id="path5859-1"
       style="opacity:1;fill:#521414;fill-opacity:1;stroke:none;stroke-width:0.486397;stroke-linecap:round;stroke-linejoin:round;stroke-miterlimit:4;stroke-dasharray:none;stroke-opacity:1;paint-order:stroke fill markers"
       transform="scale(-1,1)" />
    <path
       sodipodi:nodetypes="cc"
       id="path5861-4"
       d="m 56.096083,14.797179 c 1.33512,-9.1484396 -2.64072,-12.9055296 -11.52725,-2.73679"
       style="fill:none;stroke:#872607;stroke-width:0.465;stroke-linecap:butt;stroke-linejoin:miter;stroke-miterlimit:4;stroke-dasharray:none;stroke-opacity:1" />
    <path
       style="fill:none;stroke:#000000;stroke-width:0.465;stroke-linecap:butt;stroke-linejoin:miter;stroke-miterlimit:4;stroke-dasharray:none;stroke-opacity:1"
       d="m 44.314043,12.170359 c 1.46419,0.13752 2.91859,0.65608 4.22418,1.66588 l -0.41647,8.56735 c -8.48345,12.33208 9.84218,10.19291 3.09376,0.35697 l 0.0595,-7.8534 c 2.24877,-0.6193 4.01726,-0.47014 5.47359,0.17848"
       id="path5846-1-3"
       sodipodi:nodetypes="cccccc" />
    <path
       d="m -46.818525,21.329815 a 0.34953603,0.31235135 0 0 1 -0.357014,0.30399 0.34953603,0.31235135 0 0 1 -0.341885,-0.317574 0.34953603,0.31235135 0 0 1 0.353739,-0.307032 0.34953603,0.31235135 0 0 1 0.345273,0.314634"
       sodipodi:arc-type="arc"
       sodipodi:open="true"
       sodipodi:end="0.0073811894"
       sodipodi:start="0.02653616"
       sodipodi:ry="0.31235135"
       sodipodi:rx="0.34953603"
       sodipodi:cy="21.321527"
       sodipodi:cx="-47.167938"
       sodipodi:type="arc"
       id="path5878-17"
       style="opacity:1;fill:#434343;fill-opacity:1;stroke:none;stroke-width:0.465;stroke-linecap:round;stroke-linejoin:round;stroke-miterlimit:4;stroke-dasharray:none;stroke-opacity:1;paint-order:stroke fill markers"
       transform="scale(-1,1)" />
    <path
       style="opacity:1;fill:#434343;fill-opacity:1;stroke:none;stroke-width:0.465;stroke-linecap:round;stroke-linejoin:round;stroke-miterlimit:4;stroke-dasharray:none;stroke-opacity:1;paint-order:stroke fill markers"
       id="path5878-6-7"
       sodipodi:type="arc"
       sodipodi:cx="-52.01915"
       sodipodi:cy="22.465204"
       sodipodi:rx="0.34953603"
       sodipodi:ry="0.31235135"
       sodipodi:start="0.02653616"
       sodipodi:end="0.0073811894"
       sodipodi:open="true"
       sodipodi:arc-type="arc"
       d="m -51.669737,22.473492 a 0.34953603,0.31235135 0 0 1 -0.357014,0.30399 0.34953603,0.31235135 0 0 1 -0.341885,-0.317575 0.34953603,0.31235135 0 0 1 0.35374,-0.307031 0.34953603,0.31235135 0 0 1 0.345273,0.314634"
       transform="scale(-1,1)" />
    <path
       style="opacity:1;fill:#434343;fill-opacity:1;stroke:none;stroke-width:0.465;stroke-linecap:round;stroke-linejoin:round;stroke-miterlimit:4;stroke-dasharray:none;stroke-opacity:1;paint-order:stroke fill markers"
       id="path5878-1-3"
       sodipodi:type="arc"
       sodipodi:cx="-52.089691"
       sodipodi:cy="20.099314"
       sodipodi:rx="0.34953603"
       sodipodi:ry="0.31235135"
       sodipodi:start="0.02653616"
       sodipodi:end="0.0073811894"
       sodipodi:open="true"
       sodipodi:arc-type="arc"
       d="m -51.740278,20.107601 a 0.34953603,0.31235135 0 0 1 -0.357014,0.30399 0.34953603,0.31235135 0 0 1 -0.341885,-0.317574 0.34953603,0.31235135 0 0 1 0.35374,-0.307031 0.34953603,0.31235135 0 0 1 0.345272,0.314633"
       transform="scale(-1,1)" />
    <path
       style="opacity:1;fill:#434343;fill-opacity:1;stroke:none;stroke-width:0.465;stroke-linecap:round;stroke-linejoin:round;stroke-miterlimit:4;stroke-dasharray:none;stroke-opacity:1;paint-order:stroke fill markers"
       id="path5878-2-2"
       sodipodi:type="arc"
       sodipodi:cx="-47.246796"
       sodipodi:cy="20.083887"
       sodipodi:rx="0.34953603"
       sodipodi:ry="0.31235135"
       sodipodi:start="0.02653616"
       sodipodi:end="0.0073811894"
       sodipodi:open="true"
       sodipodi:arc-type="arc"
       d="m -46.897383,20.092175 a 0.34953603,0.31235135 0 0 1 -0.357014,0.30399 0.34953603,0.31235135 0 0 1 -0.341884,-0.317575 0.34953603,0.31235135 0 0 1 0.353739,-0.307031 0.34953603,0.31235135 0 0 1 0.345273,0.314634"
       transform="scale(-1,1)" />
    <path
       style="opacity:1;fill:#434343;fill-opacity:1;stroke:none;stroke-width:0.465;stroke-linecap:round;stroke-linejoin:round;stroke-miterlimit:4;stroke-dasharray:none;stroke-opacity:1;paint-order:stroke fill markers"
       id="path5878-27-9"
       sodipodi:type="arc"
       sodipodi:cx="-47.285797"
       sodipodi:cy="18.958773"
       sodipodi:rx="0.34953603"
       sodipodi:ry="0.31235135"
       sodipodi:start="0.02653616"
       sodipodi:end="0.0073811894"
       sodipodi:open="true"
       sodipodi:arc-type="arc"
       d="m -46.936384,18.96706 a 0.34953603,0.31235135 0 0 1 -0.357014,0.30399 0.34953603,0.31235135 0 0 1 -0.341885,-0.317574 0.34953603,0.31235135 0 0 1 0.35374,-0.307032 0.34953603,0.31235135 0 0 1 0.345272,0.314634"
       transform="scale(-1,1)" />
    <path
       style="opacity:1;fill:#434343;fill-opacity:1;stroke:none;stroke-width:0.465;stroke-linecap:round;stroke-linejoin:round;stroke-miterlimit:4;stroke-dasharray:none;stroke-opacity:1;paint-order:stroke fill markers"
       id="path5878-8-0"
       sodipodi:type="arc"
       sodipodi:cx="-47.259125"
       sodipodi:cy="17.684877"
       sodipodi:rx="0.34953603"
       sodipodi:ry="0.31235135"
       sodipodi:start="0.02653616"
       sodipodi:end="0.0073811894"
       sodipodi:open="true"
       sodipodi:arc-type="arc"
       d="m -46.909712,17.693165 a 0.34953603,0.31235135 0 0 1 -0.357014,0.30399 0.34953603,0.31235135 0 0 1 -0.341885,-0.317574 0.34953603,0.31235135 0 0 1 0.35374,-0.307032 0.34953603,0.31235135 0 0 1 0.345273,0.314634"
       transform="scale(-1,1)" />
    <path
       style="opacity:1;fill:#434343;fill-opacity:1;stroke:none;stroke-width:0.465;stroke-linecap:round;stroke-linejoin:round;stroke-miterlimit:4;stroke-dasharray:none;stroke-opacity:1;paint-order:stroke fill markers"
       id="path5878-7-4"
       sodipodi:type="arc"
       sodipodi:cx="-47.363754"
       sodipodi:cy="16.496927"
       sodipodi:rx="0.34953603"
       sodipodi:ry="0.31235135"
       sodipodi:start="0.02653616"
       sodipodi:end="0.0073811894"
       sodipodi:open="true"
       sodipodi:arc-type="arc"
       d="m -47.014341,16.505215 a 0.34953603,0.31235135 0 0 1 -0.357014,0.30399 0.34953603,0.31235135 0 0 1 -0.341885,-0.317575 0.34953603,0.31235135 0 0 1 0.353739,-0.307031 0.34953603,0.31235135 0 0 1 0.345273,0.314634"
       transform="scale(-1,1)" />
    <path
       style="opacity:1;fill:#434343;fill-opacity:1;stroke:none;stroke-width:0.465;stroke-linecap:round;stroke-linejoin:round;stroke-miterlimit:4;stroke-dasharray:none;stroke-opacity:1;paint-order:stroke fill markers"
       id="path5878-13-4"
       sodipodi:type="arc"
       sodipodi:cx="-47.327118"
       sodipodi:cy="15.340539"
       sodipodi:rx="0.34953603"
       sodipodi:ry="0.31235135"
       sodipodi:start="0.02653616"
       sodipodi:end="0.0073811894"
       sodipodi:open="true"
       sodipodi:arc-type="arc"
       d="m -46.977705,15.348827 a 0.34953603,0.31235135 0 0 1 -0.357014,0.303989 0.34953603,0.31235135 0 0 1 -0.341885,-0.317574 0.34953603,0.31235135 0 0 1 0.35374,-0.307031 0.34953603,0.31235135 0 0 1 0.345273,0.314633"
       transform="scale(-1,1)" />
    <path
       style="opacity:1;fill:#434343;fill-opacity:1;stroke:none;stroke-width:0.465;stroke-linecap:round;stroke-linejoin:round;stroke-miterlimit:4;stroke-dasharray:none;stroke-opacity:1;paint-order:stroke fill markers"
       id="path5878-5-8"
       sodipodi:type="arc"
       sodipodi:cx="-52.088425"
       sodipodi:cy="21.230288"
       sodipodi:rx="0.34953603"
       sodipodi:ry="0.31235135"
       sodipodi:start="0.02653616"
       sodipodi:end="0.0073811894"
       sodipodi:open="true"
       sodipodi:arc-type="arc"
       d="m -51.739012,21.238575 a 0.34953603,0.31235135 0 0 1 -0.357014,0.30399 0.34953603,0.31235135 0 0 1 -0.341884,-0.317574 0.34953603,0.31235135 0 0 1 0.353739,-0.307032 0.34953603,0.31235135 0 0 1 0.345273,0.314634"
       transform="scale(-1,1)" />
    <path
       style="opacity:1;fill:#434343;fill-opacity:1;stroke:none;stroke-width:0.465;stroke-linecap:round;stroke-linejoin:round;stroke-miterlimit:4;stroke-dasharray:none;stroke-opacity:1;paint-order:stroke fill markers"
       id="path5878-4-3"
       sodipodi:type="arc"
       sodipodi:cx="-52.089691"
       sodipodi:cy="18.84572"
       sodipodi:rx="0.34953603"
       sodipodi:ry="0.31235135"
       sodipodi:start="0.02653616"
       sodipodi:end="0.0073811894"
       sodipodi:open="true"
       sodipodi:arc-type="arc"
       d="m -51.740278,18.854008 a 0.34953603,0.31235135 0 0 1 -0.357014,0.30399 0.34953603,0.31235135 0 0 1 -0.341885,-0.317575 0.34953603,0.31235135 0 0 1 0.35374,-0.307031 0.34953603,0.31235135 0 0 1 0.345272,0.314634"
       transform="scale(-1,1)" />
    <path
       style="opacity:1;fill:#434343;fill-opacity:1;stroke:none;stroke-width:0.465;stroke-linecap:round;stroke-linejoin:round;stroke-miterlimit:4;stroke-dasharray:none;stroke-opacity:1;paint-order:stroke fill markers"
       id="path5878-48-4"
       sodipodi:type="arc"
       sodipodi:cx="-52.231003"
       sodipodi:cy="17.693682"
       sodipodi:rx="0.34953603"
       sodipodi:ry="0.31235135"
       sodipodi:start="0.02653616"
       sodipodi:end="0.0073811894"
       sodipodi:open="true"
       sodipodi:arc-type="arc"
       d="m -51.88159,17.701969 a 0.34953603,0.31235135 0 0 1 -0.357014,0.30399 0.34953603,0.31235135 0 0 1 -0.341885,-0.317574 0.34953603,0.31235135 0 0 1 0.35374,-0.307031 0.34953603,0.31235135 0 0 1 0.345273,0.314633"
       transform="scale(-1,1)" />
    <path
       style="opacity:1;fill:#434343;fill-opacity:1;stroke:none;stroke-width:0.465;stroke-linecap:round;stroke-linejoin:round;stroke-miterlimit:4;stroke-dasharray:none;stroke-opacity:1;paint-order:stroke fill markers"
       id="path5878-54-9"
       sodipodi:type="arc"
       sodipodi:cx="-52.191254"
       sodipodi:cy="16.437532"
       sodipodi:rx="0.34953603"
       sodipodi:ry="0.31235135"
       sodipodi:start="0.02653616"
       sodipodi:end="0.0073811894"
       sodipodi:open="true"
       sodipodi:arc-type="arc"
       d="m -51.841841,16.44582 a 0.34953603,0.31235135 0 0 1 -0.357014,0.30399 0.34953603,0.31235135 0 0 1 -0.341884,-0.317574 0.34953603,0.31235135 0 0 1 0.353739,-0.307032 0.34953603,0.31235135 0 0 1 0.345273,0.314634"
       transform="scale(-1,1)" />
    <path
       sodipodi:nodetypes="cc"
       id="path5967-9"
       d="m 47.202173,21.308279 c 1.5209,-0.21741 3.12095,0.0853 4.83801,1.15692"
       style="fill:none;stroke:#773023;stroke-width:0.365001;stroke-linecap:butt;stroke-linejoin:miter;stroke-miterlimit:4;stroke-dasharray:none;stroke-opacity:1" />
    <path
       style="fill:none;stroke:#773023;stroke-width:0.365001;stroke-linecap:butt;stroke-linejoin:miter;stroke-miterlimit:4;stroke-dasharray:none;stroke-opacity:1"
       d="m 47.208313,20.062019 c 1.5209,-0.21741 3.12095,0.0853 4.83801,1.15692"
       id="path5967-0-3"
       sodipodi:nodetypes="cc" />
    <path
       style="fill:none;stroke:#773023;stroke-width:0.365001;stroke-linecap:butt;stroke-linejoin:miter;stroke-miterlimit:4;stroke-dasharray:none;stroke-opacity:1"
       d="m 47.282993,18.907129 c 1.5209,-0.21741 3.12095,0.0853 4.83801,1.15692"
       id="path5967-3-1"
       sodipodi:nodetypes="cc" />
    <path
       style="fill:none;stroke:#773023;stroke-width:0.365001;stroke-linecap:butt;stroke-linejoin:miter;stroke-miterlimit:4;stroke-dasharray:none;stroke-opacity:1"
       d="m 47.245913,17.649159 c 1.5209,-0.21741 3.12095,0.0853 4.83801,1.15692"
       id="path5967-4-6"
       sodipodi:nodetypes="cc" />
    <path
       style="fill:none;stroke:#773023;stroke-width:0.365001;stroke-linecap:butt;stroke-linejoin:miter;stroke-miterlimit:4;stroke-dasharray:none;stroke-opacity:1"
       d="m 47.372343,16.488999 c 1.5209,-0.21741 3.12095,0.0853 4.83801,1.15692"
       id="path5967-7-7"
       sodipodi:nodetypes="cc" />
    <path
       style="fill:none;stroke:#773023;stroke-width:0.365001;stroke-linecap:butt;stroke-linejoin:miter;stroke-miterlimit:4;stroke-dasharray:none;stroke-opacity:1"
       d="m 47.364903,15.291649 c 1.5209,-0.21741 3.12095,0.0853 4.83801,1.15692"
       id="path5967-01-5"
       sodipodi:nodetypes="cc" />
  </g>
</svg>
