<?xml version="1.0" encoding="UTF-8" standalone="no"?>
<svg
   xmlns:dc="http://purl.org/dc/elements/1.1/"
   xmlns:cc="http://creativecommons.org/ns#"
   xmlns:rdf="http://www.w3.org/1999/02/22-rdf-syntax-ns#"
   xmlns:svg="http://www.w3.org/2000/svg"
   xmlns="http://www.w3.org/2000/svg"
   xmlns:sodipodi="http://sodipodi.sourceforge.net/DTD/sodipodi-0.dtd"
   xmlns:inkscape="http://www.inkscape.org/namespaces/inkscape"
   width="67mm"
   height="49mm"
   viewBox="0 0 67 48.999995"
   version="1.1"
   id="svg8"
   inkscape:version="1.0 (4035a4fb49, 2020-05-01)"
   sodipodi:docname="5.svg">
  <defs
     id="defs2">
    <linearGradient
       gradientUnits="userSpaceOnUse"
       gradientTransform="matrix(1.1925696,0,0,0.83852549,410.12194,-26.870058)"
       id="linearGradient-1"
       y2="214.72729"
       x2="107.28935"
       y1="1.8633864e-06"
       x1="107.28935">
      <stop
         id="stop882"
         offset="0%"
         stop-color="#E52D27" />
      <stop
         id="stop884"
         offset="100%"
         stop-color="#BF171D" />
    </linearGradient>
    <linearGradient
       x1="107.28935"
       y1="1.8633864e-06"
       x2="107.28935"
       y2="214.72729"
       id="linearGradient-1-1"
       gradientTransform="matrix(9.2076466,0,0,7.3184088,-860.1963,-1529.5383)"
       gradientUnits="userSpaceOnUse">
      <stop
         stop-color="#E52D27"
         offset="0%"
         id="stop882-2" />
      <stop
         stop-color="#BF171D"
         offset="100%"
         id="stop884-9" />
    </linearGradient>
    <linearGradient
       gradientUnits="userSpaceOnUse"
       gradientTransform="matrix(9.2076466,0,0,7.3184088,-825.56168,-249.51896)"
       id="linearGradient-1-1-4"
       y2="214.72729"
       x2="107.28935"
       y1="1.8633864e-06"
       x1="107.28935">
      <stop
         id="stop882-2-2"
         offset="0%"
         stop-color="#E52D27" />
      <stop
         id="stop884-9-5"
         offset="100%"
         stop-color="#BF171D" />
    </linearGradient>
    <linearGradient
       id="linearGradient-1-12"
       y2="157.86263"
       x2="234.00598"
       y1="0"
       x1="76.143356"
       gradientTransform="matrix(9.0620229,-4.1149356,3.6219859,7.1876931,819.38646,2797.7224)"
       gradientUnits="userSpaceOnUse">
      <stop
         id="stop2389"
         offset="0%"
         stop-color="#F6C338" />
      <stop
         id="stop2391"
         offset="52.2782398%"
         stop-color="#FFD351" />
      <stop
         id="stop2393"
         offset="100%"
         stop-color="#F6C338" />
    </linearGradient>
    <linearGradient
       id="linearGradient-2"
       y2="366.7822"
       x2="26.801083"
       y1="239.05453"
       x1="154.52876"
       gradientTransform="matrix(13.722802,-6.2313289,2.3918234,4.7464824,819.38646,2797.7224)"
       gradientUnits="userSpaceOnUse">
      <stop
         id="stop2396"
         offset="0%"
         stop-color="#286EE6" />
      <stop
         id="stop2398"
         offset="52.1046125%"
         stop-color="#4286FB" />
      <stop
         id="stop2400"
         offset="100%"
         stop-color="#286EE6" />
    </linearGradient>
    <linearGradient
       id="linearGradient-3"
       y2="168.34251"
       x2="60.595699"
       y1="0"
       x1="109.90966"
       gradientTransform="matrix(6.2983723,-2.8600012,5.2112698,10.341567,819.38646,2797.7224)"
       gradientUnits="userSpaceOnUse">
      <stop
         id="stop2403"
         offset="0%"
         stop-color="#069B5A" />
      <stop
         id="stop2405"
         offset="53.1031222%"
         stop-color="#11AA62" />
      <stop
         id="stop2407"
         offset="100%"
         stop-color="#069B5A" />
    </linearGradient>
    <linearGradient
       id="linearGradient-1-3"
       y2="127.76156"
       x2="211.76385"
       y1="127.76156"
       x1="1.3210428"
       gradientTransform="matrix(9.2030702,-4.6161418,3.0402745,6.6644464,99.588728,1599.471)"
       gradientUnits="userSpaceOnUse">
      <stop
         id="stop2451"
         offset="0%"
         stop-opacity="0.1"
         stop-color="#000000" />
      <stop
         id="stop2453"
         offset="100%"
         stop-opacity="0.2"
         stop-color="#000000" />
    </linearGradient>
    <linearGradient
       id="linearGradient-1-9"
       y2="53.078278"
       x2="206.34541"
       y1="187.32983"
       x1="71.77459"
       gradientTransform="matrix(6.7941224,-3.7689128,3.7602202,9.115928,-114.06369,1556.34)"
       gradientUnits="userSpaceOnUse">
      <stop
         id="stop2520"
         offset="0%"
         stop-color="#058B7E" />
      <stop
         id="stop2522"
         offset="0%"
         stop-color="#058D80" />
      <stop
         id="stop2524"
         offset="100%"
         stop-color="#058D7F" />
    </linearGradient>
    <path
       id="path-2"
       d="M 127.68269,0 C 57.165748,0 0,55.790933 0,124.61227 0,193.43392 57.165748,249.22453 127.68269,249.22453 l 0.27148,46.91374 c 65.60585,-37.27075 128,-87.01882 128,-171.526 C 255.95417,55.790933 198.19994,0 127.68269,0 Z" />
    <filter
       id="filter-3"
       filterUnits="objectBoundingBox"
       height="1.007"
       width="1.008"
       y="-0.003"
       x="-0.0040000002">
      <feOffset
         id="feOffset2528"
         result="shadowOffsetInner1"
         in="SourceAlpha"
         dy="2"
         dx="0" />
      <feComposite
         id="feComposite2530"
         result="shadowInnerInner1"
         k3="1"
         k2="-1"
         operator="arithmetic"
         in2="SourceAlpha"
         in="shadowOffsetInner1"
         k1="0"
         k4="0" />
      <feColorMatrix
         id="feColorMatrix2532"
         in="shadowInnerInner1"
         type="matrix"
         values="0 0 0 0 1   0 0 0 0 1   0 0 0 0 1  0 0 0 0.2 0" />
    </filter>
    <path
       id="path-4"
       d="M 127.68269,0 C 57.165748,0 0,55.790933 0,124.61227 0,193.43392 57.165748,249.22453 127.68269,249.22453 l 0.27148,46.91374 c 65.60585,-37.27075 128,-87.01882 128,-171.526 C 255.95417,55.790933 198.19994,0 127.68269,0 Z" />
    <filter
       id="filter-5"
       filterUnits="objectBoundingBox"
       height="1.007"
       width="1.008"
       y="-0.003"
       x="-0.0040000002">
      <feOffset
         id="feOffset2536"
         result="shadowOffsetInner1"
         in="SourceAlpha"
         dy="-2"
         dx="0" />
      <feComposite
         id="feComposite2538"
         result="shadowInnerInner1"
         k3="1"
         k2="-1"
         operator="arithmetic"
         in2="SourceAlpha"
         in="shadowOffsetInner1"
         k1="0"
         k4="0" />
      <feColorMatrix
         id="feColorMatrix2540"
         in="shadowInnerInner1"
         type="matrix"
         values="0 0 0 0 0   0 0 0 0 0   0 0 0 0 0  0 0 0 0.1 0" />
    </filter>
    <path
       id="path-6"
       d="M 127.68269,0 C 57.165748,0 0,55.790933 0,124.61227 0,193.43392 57.165748,249.22453 127.68269,249.22453 l 0.27148,46.91374 c 65.60585,-37.27075 128,-87.01882 128,-171.526 C 255.95417,55.790933 198.19994,0 127.68269,0 Z" />
    <linearGradient
       id="linearGradient-8"
       y2="249.40137"
       x2="221.34538"
       y1="135.5235"
       x1="118.28331"
       gradientTransform="matrix(7.2722455,-4.0341427,3.5129996,8.5165893,-114.06369,1556.34)"
       gradientUnits="userSpaceOnUse">
      <stop
         id="stop2544"
         offset="0%"
         stop-color="#000000" />
      <stop
         id="stop2546"
         offset="100%"
         stop-opacity="0"
         stop-color="#D8D8D8" />
    </linearGradient>
    <path
       id="path-9"
       d="m 55.580192,128.1054 v 34.23858 c 0,9.03901 7.395555,16.43457 16.434567,16.43457 h 85.016021 c 9.03901,0 16.43457,-7.39556 16.43457,-16.43457 v -21.62283 l 33.65926,33.65925 v -46.275 z" />
    <filter
       id="filter-10"
       filterUnits="objectBoundingBox"
       height="1.118"
       width="1.026"
       y="-0.029999999"
       x="-0.0099999998">
      <feOffset
         id="feOffset2550"
         result="shadowOffsetOuter1"
         in="SourceAlpha"
         dy="3"
         dx="1" />
      <feColorMatrix
         id="feColorMatrix2552"
         in="shadowOffsetOuter1"
         type="matrix"
         values="0 0 0 0 0   0 0 0 0 0   0 0 0 0 0  0 0 0 0.1 0" />
    </filter>
    <path
       d="M 253.33333,128 H 194.66667 V 61.333333 L 132.56,0.8 C 132.08,0.29333333 131.41333,0 130.66667,0 129.2,0 128,1.2 128,2.6666667 V 61.333333 H 61.333333 L 0.8,123.44 C 0.29333333,123.92 0,124.58667 0,125.33333 0,126.8 1.2,128 2.6666667,128 H 61.333333 v 66.66667 L 123.44,255.2 c 0.48,0.50667 1.14667,0.8 1.89333,0.8 C 126.8,256 128,254.8 128,253.33333 v -58.66666 h 66.66667 L 255.2,132.56 c 0.50667,-0.48 0.8,-1.14667 0.8,-1.89333 C 256,129.2 254.8,128 253.33333,128 Z"
       id="path-1" />
    <linearGradient
       id="linearGradient-3-5"
       y2="37.495316"
       x2="85.409851"
       y1="31.010235"
       x1="91.72097"
       gradientTransform="matrix(7.3155946,-3.5358575,3.4458254,7.2785231,1306.8737,724.7706)"
       gradientUnits="userSpaceOnUse">
      <stop
         id="stop2630"
         offset="0%"
         stop-color="#E88C22" />
      <stop
         id="stop2632"
         offset="100%"
         stop-opacity="0"
         stop-color="#FCBB29" />
    </linearGradient>
    <linearGradient
       id="linearGradient-4"
       y2="38.90575"
       x2="36.88467"
       y1="33.918175"
       x1="31.740335"
       gradientTransform="matrix(7.0903603,-3.4269946,3.5552862,7.5097343,1925.7544,938.2348)"
       gradientUnits="userSpaceOnUse">
      <stop
         id="stop2635"
         offset="0%"
         stop-color="#5E8235" />
      <stop
         id="stop2637"
         offset="100%"
         stop-opacity="0"
         stop-color="#8CC251" />
    </linearGradient>
    <filter
       id="filter-1"
       filterUnits="objectBoundingBox"
       height="2"
       width="2"
       y="-0.5"
       x="-0.5">
      <feGaussianBlur
         id="feGaussianBlur2827"
         result="blur"
         in="SourceGraphic"
         stdDeviation="3" />
    </filter>
    <linearGradient
       gradientUnits="userSpaceOnUse"
       gradientTransform="matrix(6.5462558,-3.264828,3.146131,6.8572349,584.26326,507.52912)"
       id="linearGradient-2-8"
       y2="5.0122137"
       x2="121.76992"
       y1="236.96635"
       x1="121.76992">
      <stop
         id="stop2830"
         offset="0%"
         stop-color="#20B038" />
      <stop
         id="stop2832"
         offset="100%"
         stop-color="#60D66A" />
    </linearGradient>
    <path
       id="path-2-2"
       d="M 127.68269,0 C 57.165748,0 0,55.790933 0,124.61227 0,193.43392 57.165748,249.22453 127.68269,249.22453 l 0.27148,46.91374 c 65.60585,-37.27075 128,-87.01882 128,-171.526 C 255.95417,55.790933 198.19994,0 127.68269,0 Z" />
    <filter
       id="filter-3-2"
       filterUnits="objectBoundingBox"
       height="1.007"
       width="1.008"
       y="-0.003"
       x="-0.0040000002">
      <feOffset
         id="feOffset2528-2"
         result="shadowOffsetInner1"
         in="SourceAlpha"
         dy="2"
         dx="0" />
      <feComposite
         id="feComposite2530-7"
         result="shadowInnerInner1"
         k3="1"
         k2="-1"
         operator="arithmetic"
         in2="SourceAlpha"
         in="shadowOffsetInner1"
         k1="0"
         k4="0" />
      <feColorMatrix
         id="feColorMatrix2532-2"
         in="shadowInnerInner1"
         type="matrix"
         values="0 0 0 0 1   0 0 0 0 1   0 0 0 0 1  0 0 0 0.2 0" />
    </filter>
    <path
       id="path-4-1"
       d="M 127.68269,0 C 57.165748,0 0,55.790933 0,124.61227 0,193.43392 57.165748,249.22453 127.68269,249.22453 l 0.27148,46.91374 c 65.60585,-37.27075 128,-87.01882 128,-171.526 C 255.95417,55.790933 198.19994,0 127.68269,0 Z" />
    <filter
       id="filter-5-5"
       filterUnits="objectBoundingBox"
       height="1.007"
       width="1.008"
       y="-0.003"
       x="-0.0040000002">
      <feOffset
         id="feOffset2536-6"
         result="shadowOffsetInner1"
         in="SourceAlpha"
         dy="-2"
         dx="0" />
      <feComposite
         id="feComposite2538-7"
         result="shadowInnerInner1"
         k3="1"
         k2="-1"
         operator="arithmetic"
         in2="SourceAlpha"
         in="shadowOffsetInner1"
         k1="0"
         k4="0" />
      <feColorMatrix
         id="feColorMatrix2540-1"
         in="shadowInnerInner1"
         type="matrix"
         values="0 0 0 0 0   0 0 0 0 0   0 0 0 0 0  0 0 0 0.1 0" />
    </filter>
    <path
       id="path-6-2"
       d="M 127.68269,0 C 57.165748,0 0,55.790933 0,124.61227 0,193.43392 57.165748,249.22453 127.68269,249.22453 l 0.27148,46.91374 c 65.60585,-37.27075 128,-87.01882 128,-171.526 C 255.95417,55.790933 198.19994,0 127.68269,0 Z" />
    <path
       id="path-9-6"
       d="m 55.580192,128.1054 v 34.23858 c 0,9.03901 7.395555,16.43457 16.434567,16.43457 h 85.016021 c 9.03901,0 16.43457,-7.39556 16.43457,-16.43457 v -21.62283 l 33.65926,33.65925 v -46.275 z" />
    <filter
       id="filter-10-2"
       filterUnits="objectBoundingBox"
       height="1.118"
       width="1.026"
       y="-0.029999999"
       x="-0.0099999998">
      <feOffset
         id="feOffset2550-2"
         result="shadowOffsetOuter1"
         in="SourceAlpha"
         dy="3"
         dx="1" />
      <feColorMatrix
         id="feColorMatrix2552-4"
         in="shadowOffsetOuter1"
         type="matrix"
         values="0 0 0 0 0   0 0 0 0 0   0 0 0 0 0  0 0 0 0.1 0" />
    </filter>
    <path
       d="M 253.33333,128 H 194.66667 V 61.333333 L 132.56,0.8 C 132.08,0.29333333 131.41333,0 130.66667,0 129.2,0 128,1.2 128,2.6666667 V 61.333333 H 61.333333 L 0.8,123.44 C 0.29333333,123.92 0,124.58667 0,125.33333 0,126.8 1.2,128 2.6666667,128 H 61.333333 v 66.66667 L 123.44,255.2 c 0.48,0.50667 1.14667,0.8 1.89333,0.8 C 126.8,256 128,254.8 128,253.33333 v -58.66666 h 66.66667 L 255.2,132.56 c 0.50667,-0.48 0.8,-1.14667 0.8,-1.89333 C 256,129.2 254.8,128 253.33333,128 Z"
       id="path-1-8" />
    <filter
       id="filter-1-5"
       filterUnits="objectBoundingBox"
       height="2"
       width="2"
       y="-0.5"
       x="-0.5">
      <feGaussianBlur
         id="feGaussianBlur2827-8"
         result="blur"
         in="SourceGraphic"
         stdDeviation="3" />
    </filter>
  </defs>
  <sodipodi:namedview
     units="mm"
     id="base"
     pagecolor="#ffffff"
     bordercolor="#666666"
     borderopacity="1.0"
     inkscape:pageopacity="0.0"
     inkscape:pageshadow="2"
     inkscape:zoom="0.53450905"
     inkscape:cx="201.27702"
     inkscape:cy="360.77836"
     inkscape:document-units="mm"
     inkscape:current-layer="layer1"
     inkscape:document-rotation="0"
     showgrid="false"
     objecttolerance="1"
     inkscape:window-width="1366"
     inkscape:window-height="745"
     inkscape:window-x="-8"
     inkscape:window-y="-8"
     inkscape:window-maximized="1" />
  <metadata
     id="metadata5">
    <rdf:RDF>
      <cc:Work
         rdf:about="">
        <dc:format>image/svg+xml</dc:format>
        <dc:type
           rdf:resource="http://purl.org/dc/dcmitype/StillImage" />
        <dc:title></dc:title>
      </cc:Work>
    </rdf:RDF>
  </metadata>
  <g
     inkscape:label="Capa 1"
     inkscape:groupmode="layer"
     id="layer1">
    <path
       style="opacity:1;fill:#434343;fill-opacity:1;stroke:#773023;stroke-width:0.294192;stroke-linecap:round;stroke-linejoin:round;stroke-miterlimit:4;stroke-dasharray:none;stroke-opacity:1;paint-order:stroke fill markers"
       id="path6092"
       sodipodi:type="arc"
       sodipodi:cx="19.827349"
       sodipodi:cy="7.1784835"
       sodipodi:rx="15.02694"
       sodipodi:ry="4.5786047"
       sodipodi:start="0.02653616"
       sodipodi:end="0.0073811894"
       sodipodi:open="true"
       sodipodi:arc-type="arc"
       d="M 34.848999,7.2999678 A 15.02694,4.5786047 0 0 1 19.500577,11.756006 15.02694,4.5786047 0 0 1 4.8025692,7.1008401 15.02694,4.5786047 0 0 1 20.010221,2.6002178 15.02694,4.5786047 0 0 1 34.85388,7.2122787" />
    <path
       style="fill:#efefef;fill-opacity:1;stroke:#000000;stroke-width:0.535992;stroke-linecap:butt;stroke-linejoin:round;stroke-miterlimit:4;stroke-dasharray:none;stroke-opacity:1"
       d="M 6.5726262,4.8720205 C 5.5536716,5.5152167 4.6044383,6.3389723 4.5328766,8.2524175 3.558454,17.581498 3.5214709,27.078598 4.5504521,36.766751 16.729626,42.346488 26.613086,40.75989 35.719002,36.746105 34.887816,27.391801 34.97545,17.735584 35.224299,8.0263944 34.908095,6.659777 34.490148,5.6968028 33.084672,4.8670741 Z"
       id="path6094"
       sodipodi:nodetypes="ccccccc" />
    <path
       d="M 34.836345,7.0239482 A 15.02694,4.5786047 0 0 1 19.487924,11.479986 15.02694,4.5786047 0 0 1 4.7899158,6.8248206 15.02694,4.5786047 0 0 1 19.997568,2.3241983 15.02694,4.5786047 0 0 1 34.841226,6.9362592"
       sodipodi:arc-type="arc"
       sodipodi:open="true"
       sodipodi:end="0.0073811894"
       sodipodi:start="0.02653616"
       sodipodi:ry="4.5786047"
       sodipodi:rx="15.02694"
       sodipodi:cy="6.9024639"
       sodipodi:cx="19.814695"
       sodipodi:type="arc"
       id="path6092-9"
       style="opacity:1;fill:#f0f0f0;fill-opacity:1;stroke:#030101;stroke-width:0.535992;stroke-linecap:round;stroke-linejoin:round;stroke-miterlimit:4;stroke-dasharray:none;stroke-opacity:1;paint-order:stroke fill markers" />
    <path
       style="fill:#f0f0f0;fill-opacity:1;stroke:#000000;stroke-width:0.213255px;stroke-linecap:butt;stroke-linejoin:miter;stroke-opacity:1"
       d="m 34.980378,6.0454673 c 11.395994,0.090749 16.074996,10.6847397 28.206277,5.0467897 l 8e-6,34.375291 C 47.123528,46.99724 48.875156,33.784791 35.696572,36.797033 34.564022,26.514839 35.523748,16.406779 34.980378,6.0454673 Z"
       id="path6111"
       sodipodi:nodetypes="ccccc" />
    <path
       style="fill:none;stroke:#000000;stroke-width:0.374792;stroke-linecap:butt;stroke-linejoin:miter;stroke-miterlimit:4;stroke-dasharray:none;stroke-opacity:1"
       d="m 6.8209833,14.057107 c 4.9096217,2.768511 9.8033157,2.95955 15.1188257,2.415217"
       id="path6113"
       sodipodi:nodetypes="cc" />
    <path
       sodipodi:nodetypes="cc"
       id="path6113-2"
       d="m 3.9388609,30.469134 c 2.5788503,2.81018 7.4972001,2.77745 12.4116321,1.895159"
       style="fill:none;stroke:#000000;stroke-width:0.309486;stroke-linecap:butt;stroke-linejoin:miter;stroke-miterlimit:4;stroke-dasharray:none;stroke-opacity:1" />
    <path
       sodipodi:nodetypes="cc"
       id="path6113-9"
       d="m 4.0032707,16.646244 c 4.7781544,4.568498 9.5362713,4.224774 14.6406953,3.357871"
       style="fill:none;stroke:#000000;stroke-width:0.374792;stroke-linecap:butt;stroke-linejoin:miter;stroke-miterlimit:4;stroke-dasharray:none;stroke-opacity:1" />
    <path
       sodipodi:nodetypes="cc"
       id="path6113-3"
       d="m 4.5296992,34.748659 c 4.7659376,2.820014 10.8546058,2.270523 15.9384778,1.809227"
       style="fill:none;stroke:#000000;stroke-width:0.374792;stroke-linecap:butt;stroke-linejoin:miter;stroke-miterlimit:4;stroke-dasharray:none;stroke-opacity:1" />
    <path
       sodipodi:nodetypes="cc"
       id="path6113-8"
       d="m 5.1237474,23.882916 c 4.1628297,2.70893 8.6496146,2.136575 12.8098066,1.557645"
       style="fill:none;stroke:#000000;stroke-width:0.311764;stroke-linecap:butt;stroke-linejoin:miter;stroke-miterlimit:4;stroke-dasharray:none;stroke-opacity:1" />
    <path
       style="fill:none;stroke:#000000;stroke-width:0.294191;stroke-linecap:butt;stroke-linejoin:miter;stroke-miterlimit:4;stroke-dasharray:none;stroke-opacity:1"
       d="m 24.472758,34.559808 c 3.758886,-0.166283 8.051106,-1.36364 10.990608,-3.899341"
       id="path6148"
       sodipodi:nodetypes="cc" />
    <path
       sodipodi:nodetypes="cc"
       id="path6148-5"
       d="m 24.521461,25.651417 c 3.662165,-0.356967 7.214479,-1.060434 10.23926,-3.428011"
       style="fill:none;stroke:#000000;stroke-width:0.294192;stroke-linecap:butt;stroke-linejoin:miter;stroke-miterlimit:4;stroke-dasharray:none;stroke-opacity:1" />
    <path
       sodipodi:nodetypes="cc"
       id="path6148-7"
       d="M 22.319025,19.717531 C 25.98119,19.360564 29.533503,18.657097 32.558284,16.28952"
       style="fill:none;stroke:#000000;stroke-width:0.294192;stroke-linecap:butt;stroke-linejoin:miter;stroke-miterlimit:4;stroke-dasharray:none;stroke-opacity:1" />
    <path
       sodipodi:nodetypes="cc"
       id="path6148-4"
       d="M 24.777979,12.984288 C 28.440147,12.627321 31.99246,11.923853 35.017242,9.5562767"
       style="fill:none;stroke:#000000;stroke-width:0.294192;stroke-linecap:butt;stroke-linejoin:miter;stroke-miterlimit:4;stroke-dasharray:none;stroke-opacity:1" />
    <path
       sodipodi:nodetypes="cc"
       id="path6148-6"
       d="m 16.649769,30.962047 c 2.881902,0.07034 7.722297,0.823586 11.605344,-2.014027"
       style="fill:none;stroke:#000000;stroke-width:0.294192;stroke-linecap:butt;stroke-linejoin:miter;stroke-miterlimit:4;stroke-dasharray:none;stroke-opacity:1" />
    <path
       style="fill:none;stroke:#000000;stroke-width:0.213255px;stroke-linecap:butt;stroke-linejoin:miter;stroke-opacity:1"
       d="M 21.398349,5.158512 C 14.602424,5.9207237 14.785873,8.1257909 20.237176,8.7271298"
       id="path6183"
       sodipodi:nodetypes="cc" />
    <path
       style="fill:none;stroke:#000000;stroke-width:0.213255px;stroke-linecap:butt;stroke-linejoin:miter;stroke-opacity:1"
       d="M 25.155086,3.8791954 C 23.203793,3.8083614 21.454766,3.7799981 19.893967,3.7887505 3.325828,3.8816594 7.9675707,8.1568278 17.026874,10.208443"
       id="path6185"
       sodipodi:nodetypes="csc" />
    <path
       style="fill:none;stroke:#000000;stroke-width:0.213255px;stroke-linecap:butt;stroke-linejoin:miter;stroke-opacity:1"
       d="m 26.86269,4.7545167 c 4.666565,2.7570278 2.458665,4.5595982 -5.805864,5.5212593"
       id="path6187"
       sodipodi:nodetypes="cc" />
    <path
       style="fill:none;stroke:#000000;stroke-width:0.213255px;stroke-linecap:butt;stroke-linejoin:miter;stroke-opacity:1"
       d="m 25.838126,5.8991682 c 1.926701,1.7913608 0.01575,2.4618239 -2.937083,2.8279616"
       id="path6189"
       sodipodi:nodetypes="cc" />
    <path
       style="fill:none;stroke:#000000;stroke-width:0.213255px;stroke-linecap:butt;stroke-linejoin:miter;stroke-opacity:1"
       d="m 37.449856,10.141111 c 8.186179,1.835016 14.023083,9.011694 22.472107,6.329248"
       id="path6191"
       sodipodi:nodetypes="cc" />
    <path
       style="fill:none;stroke:#000000;stroke-width:0.213255px;stroke-linecap:butt;stroke-linejoin:miter;stroke-opacity:1"
       d="m 38.406115,33.572797 c 4.43211,-0.428605 8.070222,1.275197 11.61173,3.837947"
       id="path6193"
       sodipodi:nodetypes="cc" />
    <path
       style="fill:none;stroke:#000000;stroke-width:0.213255px;stroke-linecap:butt;stroke-linejoin:miter;stroke-opacity:1"
       d="m 51.383925,27.310881 c 2.749436,1.353276 5.739626,2.416488 10.109032,1.817974"
       id="path6195"
       sodipodi:nodetypes="cc" />
    <path
       style="fill:none;stroke:#000000;stroke-width:0.213255px;stroke-linecap:butt;stroke-linejoin:miter;stroke-opacity:1"
       d="m 52.886623,21.385627 c 2.508331,1.646895 5.018091,3.285819 8.059904,1.95264"
       id="path6197"
       sodipodi:nodetypes="cc" />
    <path
       style="fill:none;stroke:#000000;stroke-width:0.213255px;stroke-linecap:butt;stroke-linejoin:miter;stroke-opacity:1"
       d="m 38.33781,28.45553 c 9.586396,2.022926 15.768039,9.585274 18.64707,6.26192"
       id="path6199"
       sodipodi:nodetypes="cc" />
    <path
       style="fill:none;stroke:#000000;stroke-width:0.213255px;stroke-linecap:butt;stroke-linejoin:miter;stroke-opacity:1"
       d="m 39.020851,20.173642 c 2.615301,0.14064 4.826814,1.077366 6.898737,2.289303"
       id="path6201"
       sodipodi:nodetypes="cc" />
    <path
       style="fill:none;stroke:#000000;stroke-width:0.213255px;stroke-linecap:butt;stroke-linejoin:miter;stroke-opacity:1"
       d="m 52.886623,42.124011 c 2.435569,1.796367 5.601563,2.60269 9.494289,2.423971"
       id="path6203"
       sodipodi:nodetypes="cc" />
  </g>
</svg>
