<?xml version="1.0" encoding="UTF-8" standalone="no"?>
<svg
   xmlns:dc="http://purl.org/dc/elements/1.1/"
   xmlns:cc="http://creativecommons.org/ns#"
   xmlns:rdf="http://www.w3.org/1999/02/22-rdf-syntax-ns#"
   xmlns:svg="http://www.w3.org/2000/svg"
   xmlns="http://www.w3.org/2000/svg"
   xmlns:sodipodi="http://sodipodi.sourceforge.net/DTD/sodipodi-0.dtd"
   xmlns:inkscape="http://www.inkscape.org/namespaces/inkscape"
   width="70mm"
   height="78mm"
   viewBox="0 0 70 78"
   version="1.1"
   id="svg8"
   inkscape:version="1.0 (4035a4fb49, 2020-05-01)"
   sodipodi:docname="6.svg">
  <defs
     id="defs2">
    <linearGradient
       gradientUnits="userSpaceOnUse"
       gradientTransform="matrix(1.1925696,0,0,0.83852549,410.12194,-26.870058)"
       id="linearGradient-1"
       y2="214.72729"
       x2="107.28935"
       y1="1.8633864e-06"
       x1="107.28935">
      <stop
         id="stop882"
         offset="0%"
         stop-color="#E52D27" />
      <stop
         id="stop884"
         offset="100%"
         stop-color="#BF171D" />
    </linearGradient>
    <linearGradient
       x1="107.28935"
       y1="1.8633864e-06"
       x2="107.28935"
       y2="214.72729"
       id="linearGradient-1-1"
       gradientTransform="matrix(9.2076466,0,0,7.3184088,-860.1963,-1529.5383)"
       gradientUnits="userSpaceOnUse">
      <stop
         stop-color="#E52D27"
         offset="0%"
         id="stop882-2" />
      <stop
         stop-color="#BF171D"
         offset="100%"
         id="stop884-9" />
    </linearGradient>
    <linearGradient
       gradientUnits="userSpaceOnUse"
       gradientTransform="matrix(9.2076466,0,0,7.3184088,-825.56168,-249.51896)"
       id="linearGradient-1-1-4"
       y2="214.72729"
       x2="107.28935"
       y1="1.8633864e-06"
       x1="107.28935">
      <stop
         id="stop882-2-2"
         offset="0%"
         stop-color="#E52D27" />
      <stop
         id="stop884-9-5"
         offset="100%"
         stop-color="#BF171D" />
    </linearGradient>
    <linearGradient
       id="linearGradient-1-12"
       y2="157.86263"
       x2="234.00598"
       y1="0"
       x1="76.143356"
       gradientTransform="matrix(9.0620229,-4.1149356,3.6219859,7.1876931,819.38646,2797.7224)"
       gradientUnits="userSpaceOnUse">
      <stop
         id="stop2389"
         offset="0%"
         stop-color="#F6C338" />
      <stop
         id="stop2391"
         offset="52.2782398%"
         stop-color="#FFD351" />
      <stop
         id="stop2393"
         offset="100%"
         stop-color="#F6C338" />
    </linearGradient>
    <linearGradient
       id="linearGradient-2"
       y2="366.7822"
       x2="26.801083"
       y1="239.05453"
       x1="154.52876"
       gradientTransform="matrix(13.722802,-6.2313289,2.3918234,4.7464824,819.38646,2797.7224)"
       gradientUnits="userSpaceOnUse">
      <stop
         id="stop2396"
         offset="0%"
         stop-color="#286EE6" />
      <stop
         id="stop2398"
         offset="52.1046125%"
         stop-color="#4286FB" />
      <stop
         id="stop2400"
         offset="100%"
         stop-color="#286EE6" />
    </linearGradient>
    <linearGradient
       id="linearGradient-3"
       y2="168.34251"
       x2="60.595699"
       y1="0"
       x1="109.90966"
       gradientTransform="matrix(6.2983723,-2.8600012,5.2112698,10.341567,819.38646,2797.7224)"
       gradientUnits="userSpaceOnUse">
      <stop
         id="stop2403"
         offset="0%"
         stop-color="#069B5A" />
      <stop
         id="stop2405"
         offset="53.1031222%"
         stop-color="#11AA62" />
      <stop
         id="stop2407"
         offset="100%"
         stop-color="#069B5A" />
    </linearGradient>
    <linearGradient
       id="linearGradient-1-3"
       y2="127.76156"
       x2="211.76385"
       y1="127.76156"
       x1="1.3210428"
       gradientTransform="matrix(9.2030702,-4.6161418,3.0402745,6.6644464,99.588728,1599.471)"
       gradientUnits="userSpaceOnUse">
      <stop
         id="stop2451"
         offset="0%"
         stop-opacity="0.1"
         stop-color="#000000" />
      <stop
         id="stop2453"
         offset="100%"
         stop-opacity="0.2"
         stop-color="#000000" />
    </linearGradient>
    <linearGradient
       id="linearGradient-1-9"
       y2="53.078278"
       x2="206.34541"
       y1="187.32983"
       x1="71.77459"
       gradientTransform="matrix(6.7941224,-3.7689128,3.7602202,9.115928,-114.06369,1556.34)"
       gradientUnits="userSpaceOnUse">
      <stop
         id="stop2520"
         offset="0%"
         stop-color="#058B7E" />
      <stop
         id="stop2522"
         offset="0%"
         stop-color="#058D80" />
      <stop
         id="stop2524"
         offset="100%"
         stop-color="#058D7F" />
    </linearGradient>
    <path
       id="path-2"
       d="M 127.68269,0 C 57.165748,0 0,55.790933 0,124.61227 0,193.43392 57.165748,249.22453 127.68269,249.22453 l 0.27148,46.91374 c 65.60585,-37.27075 128,-87.01882 128,-171.526 C 255.95417,55.790933 198.19994,0 127.68269,0 Z" />
    <filter
       id="filter-3"
       filterUnits="objectBoundingBox"
       height="1.007"
       width="1.008"
       y="-0.003"
       x="-0.0040000002">
      <feOffset
         id="feOffset2528"
         result="shadowOffsetInner1"
         in="SourceAlpha"
         dy="2"
         dx="0" />
      <feComposite
         id="feComposite2530"
         result="shadowInnerInner1"
         k3="1"
         k2="-1"
         operator="arithmetic"
         in2="SourceAlpha"
         in="shadowOffsetInner1"
         k1="0"
         k4="0" />
      <feColorMatrix
         id="feColorMatrix2532"
         in="shadowInnerInner1"
         type="matrix"
         values="0 0 0 0 1   0 0 0 0 1   0 0 0 0 1  0 0 0 0.2 0" />
    </filter>
    <path
       id="path-4"
       d="M 127.68269,0 C 57.165748,0 0,55.790933 0,124.61227 0,193.43392 57.165748,249.22453 127.68269,249.22453 l 0.27148,46.91374 c 65.60585,-37.27075 128,-87.01882 128,-171.526 C 255.95417,55.790933 198.19994,0 127.68269,0 Z" />
    <filter
       id="filter-5"
       filterUnits="objectBoundingBox"
       height="1.007"
       width="1.008"
       y="-0.003"
       x="-0.0040000002">
      <feOffset
         id="feOffset2536"
         result="shadowOffsetInner1"
         in="SourceAlpha"
         dy="-2"
         dx="0" />
      <feComposite
         id="feComposite2538"
         result="shadowInnerInner1"
         k3="1"
         k2="-1"
         operator="arithmetic"
         in2="SourceAlpha"
         in="shadowOffsetInner1"
         k1="0"
         k4="0" />
      <feColorMatrix
         id="feColorMatrix2540"
         in="shadowInnerInner1"
         type="matrix"
         values="0 0 0 0 0   0 0 0 0 0   0 0 0 0 0  0 0 0 0.1 0" />
    </filter>
    <path
       id="path-6"
       d="M 127.68269,0 C 57.165748,0 0,55.790933 0,124.61227 0,193.43392 57.165748,249.22453 127.68269,249.22453 l 0.27148,46.91374 c 65.60585,-37.27075 128,-87.01882 128,-171.526 C 255.95417,55.790933 198.19994,0 127.68269,0 Z" />
    <linearGradient
       id="linearGradient-8"
       y2="249.40137"
       x2="221.34538"
       y1="135.5235"
       x1="118.28331"
       gradientTransform="matrix(7.2722455,-4.0341427,3.5129996,8.5165893,-114.06369,1556.34)"
       gradientUnits="userSpaceOnUse">
      <stop
         id="stop2544"
         offset="0%"
         stop-color="#000000" />
      <stop
         id="stop2546"
         offset="100%"
         stop-opacity="0"
         stop-color="#D8D8D8" />
    </linearGradient>
    <path
       id="path-9"
       d="m 55.580192,128.1054 v 34.23858 c 0,9.03901 7.395555,16.43457 16.434567,16.43457 h 85.016021 c 9.03901,0 16.43457,-7.39556 16.43457,-16.43457 v -21.62283 l 33.65926,33.65925 v -46.275 z" />
    <filter
       id="filter-10"
       filterUnits="objectBoundingBox"
       height="1.118"
       width="1.026"
       y="-0.029999999"
       x="-0.0099999998">
      <feOffset
         id="feOffset2550"
         result="shadowOffsetOuter1"
         in="SourceAlpha"
         dy="3"
         dx="1" />
      <feColorMatrix
         id="feColorMatrix2552"
         in="shadowOffsetOuter1"
         type="matrix"
         values="0 0 0 0 0   0 0 0 0 0   0 0 0 0 0  0 0 0 0.1 0" />
    </filter>
    <path
       d="M 253.33333,128 H 194.66667 V 61.333333 L 132.56,0.8 C 132.08,0.29333333 131.41333,0 130.66667,0 129.2,0 128,1.2 128,2.6666667 V 61.333333 H 61.333333 L 0.8,123.44 C 0.29333333,123.92 0,124.58667 0,125.33333 0,126.8 1.2,128 2.6666667,128 H 61.333333 v 66.66667 L 123.44,255.2 c 0.48,0.50667 1.14667,0.8 1.89333,0.8 C 126.8,256 128,254.8 128,253.33333 v -58.66666 h 66.66667 L 255.2,132.56 c 0.50667,-0.48 0.8,-1.14667 0.8,-1.89333 C 256,129.2 254.8,128 253.33333,128 Z"
       id="path-1" />
    <linearGradient
       id="linearGradient-3-5"
       y2="37.495316"
       x2="85.409851"
       y1="31.010235"
       x1="91.72097"
       gradientTransform="matrix(7.3155946,-3.5358575,3.4458254,7.2785231,1306.8737,724.7706)"
       gradientUnits="userSpaceOnUse">
      <stop
         id="stop2630"
         offset="0%"
         stop-color="#E88C22" />
      <stop
         id="stop2632"
         offset="100%"
         stop-opacity="0"
         stop-color="#FCBB29" />
    </linearGradient>
    <linearGradient
       id="linearGradient-4"
       y2="38.90575"
       x2="36.88467"
       y1="33.918175"
       x1="31.740335"
       gradientTransform="matrix(7.0903603,-3.4269946,3.5552862,7.5097343,1925.7544,938.2348)"
       gradientUnits="userSpaceOnUse">
      <stop
         id="stop2635"
         offset="0%"
         stop-color="#5E8235" />
      <stop
         id="stop2637"
         offset="100%"
         stop-opacity="0"
         stop-color="#8CC251" />
    </linearGradient>
    <filter
       id="filter-1"
       filterUnits="objectBoundingBox"
       height="2"
       width="2"
       y="-0.5"
       x="-0.5">
      <feGaussianBlur
         id="feGaussianBlur2827"
         result="blur"
         in="SourceGraphic"
         stdDeviation="3" />
    </filter>
    <linearGradient
       gradientUnits="userSpaceOnUse"
       gradientTransform="matrix(6.5462558,-3.264828,3.146131,6.8572349,584.26326,507.52912)"
       id="linearGradient-2-8"
       y2="5.0122137"
       x2="121.76992"
       y1="236.96635"
       x1="121.76992">
      <stop
         id="stop2830"
         offset="0%"
         stop-color="#20B038" />
      <stop
         id="stop2832"
         offset="100%"
         stop-color="#60D66A" />
    </linearGradient>
    <path
       id="path-2-2"
       d="M 127.68269,0 C 57.165748,0 0,55.790933 0,124.61227 0,193.43392 57.165748,249.22453 127.68269,249.22453 l 0.27148,46.91374 c 65.60585,-37.27075 128,-87.01882 128,-171.526 C 255.95417,55.790933 198.19994,0 127.68269,0 Z" />
    <filter
       id="filter-3-2"
       filterUnits="objectBoundingBox"
       height="1.007"
       width="1.008"
       y="-0.003"
       x="-0.0040000002">
      <feOffset
         id="feOffset2528-2"
         result="shadowOffsetInner1"
         in="SourceAlpha"
         dy="2"
         dx="0" />
      <feComposite
         id="feComposite2530-7"
         result="shadowInnerInner1"
         k3="1"
         k2="-1"
         operator="arithmetic"
         in2="SourceAlpha"
         in="shadowOffsetInner1"
         k1="0"
         k4="0" />
      <feColorMatrix
         id="feColorMatrix2532-2"
         in="shadowInnerInner1"
         type="matrix"
         values="0 0 0 0 1   0 0 0 0 1   0 0 0 0 1  0 0 0 0.2 0" />
    </filter>
    <path
       id="path-4-1"
       d="M 127.68269,0 C 57.165748,0 0,55.790933 0,124.61227 0,193.43392 57.165748,249.22453 127.68269,249.22453 l 0.27148,46.91374 c 65.60585,-37.27075 128,-87.01882 128,-171.526 C 255.95417,55.790933 198.19994,0 127.68269,0 Z" />
    <filter
       id="filter-5-5"
       filterUnits="objectBoundingBox"
       height="1.007"
       width="1.008"
       y="-0.003"
       x="-0.0040000002">
      <feOffset
         id="feOffset2536-6"
         result="shadowOffsetInner1"
         in="SourceAlpha"
         dy="-2"
         dx="0" />
      <feComposite
         id="feComposite2538-7"
         result="shadowInnerInner1"
         k3="1"
         k2="-1"
         operator="arithmetic"
         in2="SourceAlpha"
         in="shadowOffsetInner1"
         k1="0"
         k4="0" />
      <feColorMatrix
         id="feColorMatrix2540-1"
         in="shadowInnerInner1"
         type="matrix"
         values="0 0 0 0 0   0 0 0 0 0   0 0 0 0 0  0 0 0 0.1 0" />
    </filter>
    <path
       id="path-6-2"
       d="M 127.68269,0 C 57.165748,0 0,55.790933 0,124.61227 0,193.43392 57.165748,249.22453 127.68269,249.22453 l 0.27148,46.91374 c 65.60585,-37.27075 128,-87.01882 128,-171.526 C 255.95417,55.790933 198.19994,0 127.68269,0 Z" />
    <path
       id="path-9-6"
       d="m 55.580192,128.1054 v 34.23858 c 0,9.03901 7.395555,16.43457 16.434567,16.43457 h 85.016021 c 9.03901,0 16.43457,-7.39556 16.43457,-16.43457 v -21.62283 l 33.65926,33.65925 v -46.275 z" />
    <filter
       id="filter-10-2"
       filterUnits="objectBoundingBox"
       height="1.118"
       width="1.026"
       y="-0.029999999"
       x="-0.0099999998">
      <feOffset
         id="feOffset2550-2"
         result="shadowOffsetOuter1"
         in="SourceAlpha"
         dy="3"
         dx="1" />
      <feColorMatrix
         id="feColorMatrix2552-4"
         in="shadowOffsetOuter1"
         type="matrix"
         values="0 0 0 0 0   0 0 0 0 0   0 0 0 0 0  0 0 0 0.1 0" />
    </filter>
    <path
       d="M 253.33333,128 H 194.66667 V 61.333333 L 132.56,0.8 C 132.08,0.29333333 131.41333,0 130.66667,0 129.2,0 128,1.2 128,2.6666667 V 61.333333 H 61.333333 L 0.8,123.44 C 0.29333333,123.92 0,124.58667 0,125.33333 0,126.8 1.2,128 2.6666667,128 H 61.333333 v 66.66667 L 123.44,255.2 c 0.48,0.50667 1.14667,0.8 1.89333,0.8 C 126.8,256 128,254.8 128,253.33333 v -58.66666 h 66.66667 L 255.2,132.56 c 0.50667,-0.48 0.8,-1.14667 0.8,-1.89333 C 256,129.2 254.8,128 253.33333,128 Z"
       id="path-1-8" />
    <filter
       id="filter-1-5"
       filterUnits="objectBoundingBox"
       height="2"
       width="2"
       y="-0.5"
       x="-0.5">
      <feGaussianBlur
         id="feGaussianBlur2827-8"
         result="blur"
         in="SourceGraphic"
         stdDeviation="3" />
    </filter>
    <filter
       inkscape:collect="always"
       style="color-interpolation-filters:sRGB"
       id="filter6301"
       x="-0.054763895"
       width="1.1095278"
       y="-0.12398217"
       height="1.2479643">
      <feGaussianBlur
         inkscape:collect="always"
         stdDeviation="0.29230717"
         id="feGaussianBlur6303" />
    </filter>
    <filter
       height="1.2479643"
       y="-0.12398217"
       width="1.1095278"
       x="-0.054763895"
       id="filter6301-6"
       style="color-interpolation-filters:sRGB"
       inkscape:collect="always">
      <feGaussianBlur
         id="feGaussianBlur6303-5"
         stdDeviation="0.29230717"
         inkscape:collect="always" />
    </filter>
    <filter
       height="1.2479643"
       y="-0.12398217"
       width="1.1095278"
       x="-0.054763895"
       id="filter6301-3"
       style="color-interpolation-filters:sRGB"
       inkscape:collect="always">
      <feGaussianBlur
         id="feGaussianBlur6303-4"
         stdDeviation="0.29230717"
         inkscape:collect="always" />
    </filter>
  </defs>
  <sodipodi:namedview
     id="base"
     pagecolor="#ffffff"
     bordercolor="#666666"
     borderopacity="1.0"
     inkscape:pageopacity="0.0"
     inkscape:pageshadow="2"
     inkscape:zoom="0.75590996"
     inkscape:cx="142.44037"
     inkscape:cy="158.28609"
     inkscape:document-units="mm"
     inkscape:current-layer="layer1"
     inkscape:document-rotation="0"
     showgrid="false"
     objecttolerance="1"
     inkscape:window-width="1366"
     inkscape:window-height="745"
     inkscape:window-x="-8"
     inkscape:window-y="-8"
     inkscape:window-maximized="1" />
  <metadata
     id="metadata5">
    <rdf:RDF>
      <cc:Work
         rdf:about="">
        <dc:format>image/svg+xml</dc:format>
        <dc:type
           rdf:resource="http://purl.org/dc/dcmitype/StillImage" />
        <dc:title></dc:title>
      </cc:Work>
    </rdf:RDF>
  </metadata>
  <g
     inkscape:label="Capa 1"
     inkscape:groupmode="layer"
     id="layer1">
    <rect
       style="opacity:1;fill:#f3f3f3;fill-opacity:1;stroke:#000000;stroke-width:0.495796;stroke-linecap:round;stroke-linejoin:round;stroke-miterlimit:4;stroke-dasharray:none;stroke-opacity:1;paint-order:stroke fill markers"
       id="rect6205"
       width="13.406107"
       height="53.355309"
       x="33.623867"
       y="15.976645"
       ry="1.5189364" />
    <path
       style="opacity:1;fill:#f3f3f3;fill-opacity:1;stroke:#000000;stroke-width:0.495796;stroke-linecap:round;stroke-linejoin:round;stroke-miterlimit:4;stroke-dasharray:none;stroke-opacity:1;paint-order:stroke fill markers"
       id="path6207"
       sodipodi:type="arc"
       sodipodi:cx="40.345043"
       sodipodi:cy="17.462088"
       sodipodi:rx="6.5822892"
       sodipodi:ry="3.0825672"
       sodipodi:start="0.02653616"
       sodipodi:end="0.0073811894"
       sodipodi:open="true"
       sodipodi:arc-type="arc"
       d="m 46.925015,17.543878 a 6.5822892,3.0825672 0 0 1 -6.723108,3.000048 6.5822892,3.0825672 0 0 1 -6.438207,-3.134112 6.5822892,3.0825672 0 0 1 6.661447,-3.030065 6.5822892,3.0825672 0 0 1 6.502006,3.105091" />
    <path
       style="fill:#a70000;fill-opacity:1;stroke:#000000;stroke-width:0.217905px;stroke-linecap:butt;stroke-linejoin:miter;stroke-opacity:1"
       d="m 41.216105,17.942368 c 1.950603,-2.117831 4.521081,-5.148318 5.198287,-7.26615 -2.682249,3.779882 -4.700889,6.041817 -1.094375,-4.5632813 -3.883839,8.2389923 -4.052219,4.9058203 -2.667541,-3.264505 -1.592814,4.485045 -3.032363,11.5789503 -4.274908,2.492256 -0.09295,8.2119123 -1.686277,4.185003 -3.488323,-1.544496 l 0.581386,5.862064 -2.975335,-1.860417 c 1.289494,3.9391053 3.8913,7.5152853 6.668855,10.1445313 z"
       id="path6225"
       sodipodi:nodetypes="cccccccccc" />
    <path
       transform="matrix(0.81291944,0,0,0.83438214,-30.533922,-34.289673)"
       style="fill:none;stroke:#f1df0a;stroke-width:0.565;stroke-linecap:butt;stroke-linejoin:miter;stroke-miterlimit:4;stroke-dasharray:none;stroke-opacity:1;filter:url(#filter6301)"
       d="m 78.943732,52.481912 2.713493,1.66175 -0.210347,-3.996619 1.808996,3.660064 1.114846,0.105172 0.631044,-2.986945 0.904497,2.923841 1.114848,0.147244 1.556576,-3.197294 -0.04207,3.786269 1.409335,1.220021 1.808996,-3.386609"
       id="path6227" />
    <path
       style="fill:none;stroke:#a8a8a8;stroke-width:0.382965;stroke-linecap:butt;stroke-linejoin:miter;stroke-miterlimit:4;stroke-dasharray:none;stroke-opacity:1"
       d="m 40.756153,20.812923 0.38692,23.033878"
       id="path6305" />
    <path
       style="opacity:1;fill:#9a9a9a;fill-opacity:1;stroke:none;stroke-width:0.382965;stroke-linecap:round;stroke-linejoin:round;stroke-miterlimit:4;stroke-dasharray:none;stroke-opacity:1;paint-order:stroke fill markers"
       id="path6307"
       sodipodi:type="arc"
       sodipodi:cx="41.113506"
       sodipodi:cy="43.98819"
       sodipodi:rx="0.58138722"
       sodipodi:ry="1.755109"
       sodipodi:start="0.02653616"
       sodipodi:end="0.0073811894"
       sodipodi:open="true"
       sodipodi:arc-type="arc"
       d="m 41.694689,44.034758 a 0.58138722,1.755109 0 0 1 -0.593825,1.708126 0.58138722,1.755109 0 0 1 -0.568661,-1.784457 0.58138722,1.755109 0 0 1 0.588379,-1.725216 0.58138722,1.755109 0 0 1 0.574296,1.767933" />
    <path
       id="path6305-2"
       d="m 36.045949,19.866347 0.38692,32.861526"
       style="fill:none;stroke:#a8a8a8;stroke-width:0.457425;stroke-linecap:butt;stroke-linejoin:miter;stroke-miterlimit:4;stroke-dasharray:none;stroke-opacity:1" />
    <path
       d="m 36.984484,52.996033 a 0.58138722,2.5039454 0 0 1 -0.593825,2.436916 0.58138722,2.5039454 0 0 1 -0.568661,-2.545815 0.58138722,2.5039454 0 0 1 0.588379,-2.461298 0.58138722,2.5039454 0 0 1 0.574296,2.522242"
       sodipodi:arc-type="arc"
       sodipodi:open="true"
       sodipodi:end="0.0073811894"
       sodipodi:start="0.02653616"
       sodipodi:ry="2.5039454"
       sodipodi:rx="0.58138722"
       sodipodi:cy="52.929596"
       sodipodi:cx="36.403301"
       sodipodi:type="arc"
       id="path6307-8"
       style="opacity:1;fill:#9a9a9a;fill-opacity:1;stroke:none;stroke-width:0.457425;stroke-linecap:round;stroke-linejoin:round;stroke-miterlimit:4;stroke-dasharray:none;stroke-opacity:1;paint-order:stroke fill markers" />
    <path
       id="path6305-3"
       d="m 45.235308,19.667778 0.38692,12.429918"
       style="fill:none;stroke:#a8a8a8;stroke-width:0.281326;stroke-linecap:butt;stroke-linejoin:miter;stroke-miterlimit:4;stroke-dasharray:none;stroke-opacity:1" />
    <path
       d="m 46.173845,32.199118 a 0.58138722,0.94712049 0 0 1 -0.593825,0.921767 0.58138722,0.94712049 0 0 1 -0.568661,-0.962958 0.58138722,0.94712049 0 0 1 0.588379,-0.930989 0.58138722,0.94712049 0 0 1 0.574296,0.954041"
       sodipodi:arc-type="arc"
       sodipodi:open="true"
       sodipodi:end="0.0073811894"
       sodipodi:start="0.02653616"
       sodipodi:ry="0.94712049"
       sodipodi:rx="0.58138722"
       sodipodi:cy="32.173988"
       sodipodi:cx="45.592663"
       sodipodi:type="arc"
       id="path6307-0"
       style="opacity:1;fill:#9a9a9a;fill-opacity:1;stroke:none;stroke-width:0.281326;stroke-linecap:round;stroke-linejoin:round;stroke-miterlimit:4;stroke-dasharray:none;stroke-opacity:1;paint-order:stroke fill markers" />
    <rect
       ry="1.5039585"
       y="30.856779"
       x="-12.701755"
       height="52.829189"
       width="13.543978"
       id="rect6205-7"
       style="opacity:1;fill:#f3f3f3;fill-opacity:1;stroke:#000000;stroke-width:0.495876;stroke-linecap:round;stroke-linejoin:round;stroke-miterlimit:4;stroke-dasharray:none;stroke-opacity:1;paint-order:stroke fill markers"
       transform="matrix(0.77533574,-0.63154928,0.61167336,0.79111042,0,0)" />
    <path
       d="m 0.73618847,32.408567 a 6.6499834,3.0521708 0 0 1 -6.79225077,2.970465 6.6499834,3.0521708 0 0 1 -6.5044187,-3.103207 6.6499834,3.0521708 0 0 1 6.7299551,-3.000186 6.6499834,3.0521708 0 0 1 6.56887443,3.074473"
       sodipodi:arc-type="arc"
       sodipodi:open="true"
       sodipodi:end="0.0073811894"
       sodipodi:start="0.02653616"
       sodipodi:ry="3.0521708"
       sodipodi:rx="6.6499834"
       sodipodi:cy="32.327583"
       sodipodi:cx="-5.9114537"
       sodipodi:type="arc"
       id="path6207-8"
       style="opacity:1;fill:#f3f3f3;fill-opacity:1;stroke:#000000;stroke-width:0.495876;stroke-linecap:round;stroke-linejoin:round;stroke-miterlimit:4;stroke-dasharray:none;stroke-opacity:1;paint-order:stroke fill markers"
       transform="matrix(0.77533574,-0.63154928,0.61167336,0.79111042,0,0)" />
    <path
       sodipodi:nodetypes="cccccccccc"
       id="path6225-7"
       d="m 16.163738,29.128488 c 0.245279,-2.903488 0.423369,-6.917376 -0.328816,-9.008382 0.188223,4.672212 -0.02308,7.731988 -3.620949,-2.8762 1.94763,8.931741 -0.202971,6.428271 -4.0666309,-0.855109 1.468664,4.529464 4.6374189,11.004682 -1.839161,4.679788 4.9006659,6.491776 1.213738,4.354072 -3.667847,1.015886 l 4.005717,4.22086 -3.457355,0.441114 c 3.395759,2.262783 7.5996629,3.403972 11.3677289,3.691283 z"
       style="fill:#a70000;fill-opacity:1;stroke:#000000;stroke-width:0.217905px;stroke-linecap:butt;stroke-linejoin:miter;stroke-opacity:1" />
    <path
       id="path6227-4"
       d="m 47.971456,86.136011 2.713493,1.66175 -0.210347,-3.996619 1.808996,3.660064 1.114846,0.105172 0.631044,-2.986945 0.904497,2.923841 1.114848,0.147244 1.556576,-3.197294 -0.04207,3.786268 1.409335,1.220021 1.808996,-3.386608"
       style="fill:none;stroke:#f1df0a;stroke-width:0.565;stroke-linecap:butt;stroke-linejoin:miter;stroke-miterlimit:4;stroke-dasharray:none;stroke-opacity:1;filter:url(#filter6301-6)"
       transform="matrix(0.63676749,-0.51867859,0.50533669,0.65357943,-68.957157,-4.0659523)" />
    <path
       id="path6305-0"
       d="M 17.541981,31.670486 31.79534,49.466273"
       style="fill:none;stroke:#a8a8a8;stroke-width:0.382965;stroke-linecap:butt;stroke-linejoin:miter;stroke-miterlimit:4;stroke-dasharray:none;stroke-opacity:1" />
    <path
       d="m -4.5479375,58.638211 a 0.58736634,1.7378023 0 0 1 -0.5999322,1.691282 0.58736634,1.7378023 0 0 1 -0.5745092,-1.76686 0.58736634,1.7378023 0 0 1 0.5944299,-1.708205 0.58736634,1.7378023 0 0 1 0.5802023,1.750501"
       sodipodi:arc-type="arc"
       sodipodi:open="true"
       sodipodi:end="0.0073811894"
       sodipodi:start="0.02653616"
       sodipodi:ry="1.7378023"
       sodipodi:rx="0.58736634"
       sodipodi:cy="58.592102"
       sodipodi:cx="-5.135097"
       sodipodi:type="arc"
       id="path6307-6"
       style="opacity:1;fill:#9a9a9a;fill-opacity:1;stroke:none;stroke-width:0.383027;stroke-linecap:round;stroke-linejoin:round;stroke-miterlimit:4;stroke-dasharray:none;stroke-opacity:1;paint-order:stroke fill markers"
       transform="matrix(0.77533574,-0.63154928,0.61167336,0.79111042,0,0)" />
    <path
       style="fill:none;stroke:#a8a8a8;stroke-width:0.457426;stroke-linecap:butt;stroke-linejoin:miter;stroke-miterlimit:4;stroke-dasharray:none;stroke-opacity:1"
       d="M 13.279148,33.934348 33.484542,59.428223"
       id="path6305-2-1" />
    <path
       style="opacity:1;fill:#9a9a9a;fill-opacity:1;stroke:none;stroke-width:0.4575;stroke-linecap:round;stroke-linejoin:round;stroke-miterlimit:4;stroke-dasharray:none;stroke-opacity:1;paint-order:stroke fill markers"
       id="path6307-8-2"
       sodipodi:type="arc"
       sodipodi:cx="-9.8937378"
       sodipodi:cy="67.445335"
       sodipodi:rx="0.58736634"
       sodipodi:ry="2.4792545"
       sodipodi:start="0.02653616"
       sodipodi:end="0.0073811894"
       sodipodi:open="true"
       sodipodi:arc-type="arc"
       d="m -9.3065782,67.511118 a 0.58736634,2.4792545 0 0 1 -0.5999323,2.412886 0.58736634,2.4792545 0 0 1 -0.5745095,-2.520711 0.58736634,2.4792545 0 0 1 0.5944302,-2.437029 0.58736634,2.4792545 0 0 1 0.5802023,2.497371"
       transform="matrix(0.77533574,-0.63154928,0.61167336,0.79111042,0,0)" />
    <path
       style="fill:none;stroke:#a8a8a8;stroke-width:0.281327;stroke-linecap:butt;stroke-linejoin:miter;stroke-miterlimit:4;stroke-dasharray:none;stroke-opacity:1"
       d="m 20.356999,27.915588 7.831154,9.489598"
       id="path6305-3-2" />
    <path
       style="opacity:1;fill:#9a9a9a;fill-opacity:1;stroke:none;stroke-width:0.281372;stroke-linecap:round;stroke-linejoin:round;stroke-miterlimit:4;stroke-dasharray:none;stroke-opacity:1;paint-order:stroke fill markers"
       id="path6307-0-4"
       sodipodi:type="arc"
       sodipodi:cx="-0.60987246"
       sodipodi:cy="46.894409"
       sodipodi:rx="0.58736634"
       sodipodi:ry="0.93778116"
       sodipodi:start="0.02653616"
       sodipodi:end="0.0073811894"
       sodipodi:open="true"
       sodipodi:arc-type="arc"
       d="m -0.02271291,46.919291 a 0.58736634,0.93778116 0 0 1 -0.59993224,0.912678 0.58736634,0.93778116 0 0 1 -0.57450915,-0.953463 0.58736634,0.93778116 0 0 1 0.59442987,-0.921809 0.58736634,0.93778116 0 0 1 0.58020231,0.944634"
       transform="matrix(0.77533574,-0.63154928,0.61167336,0.79111042,0,0)" />
    <rect
       ry="1.5163908"
       y="6.3385816"
       x="53.008629"
       height="53.265896"
       width="13.429735"
       id="rect6205-5"
       style="opacity:1;fill:#f3f3f3;fill-opacity:1;stroke:#000000;stroke-width:0.495817;stroke-linecap:round;stroke-linejoin:round;stroke-miterlimit:4;stroke-dasharray:none;stroke-opacity:1;paint-order:stroke fill markers"
       transform="matrix(0.96476484,0.26311366,-0.25061187,0.96808765,0,0)" />
    <path
       d="m 66.333215,7.9031865 a 6.5938907,3.0774012 0 0 1 -6.734958,2.9950205 6.5938907,3.0774012 0 0 1 -6.449554,-3.1288595 6.5938907,3.0774012 0 0 1 6.673188,-3.0249871 6.5938907,3.0774012 0 0 1 6.513466,3.099888"
       sodipodi:arc-type="arc"
       sodipodi:open="true"
       sodipodi:end="0.0073811894"
       sodipodi:start="0.02653616"
       sodipodi:ry="3.0774012"
       sodipodi:rx="6.5938907"
       sodipodi:cy="7.8215337"
       sodipodi:cx="59.741646"
       sodipodi:type="arc"
       id="path6207-87"
       style="opacity:1;fill:#f3f3f3;fill-opacity:1;stroke:#000000;stroke-width:0.495817;stroke-linecap:round;stroke-linejoin:round;stroke-miterlimit:4;stroke-dasharray:none;stroke-opacity:1;paint-order:stroke fill markers"
       transform="matrix(0.96476484,0.26311366,-0.25061187,0.96808765,0,0)" />
    <path
       sodipodi:nodetypes="cccccccccc"
       id="path6225-4"
       d="m 56.398154,23.984541 c 2.415062,-1.532674 5.657535,-3.784016 6.841895,-5.652331 -3.537995,2.946146 -6.054859,4.600158 0.084,-4.698705 -5.814922,6.939007 -5.143727,3.673233 -1.761332,-3.8581333 -2.661514,3.9148103 -5.827632,10.3913903 -4.755091,1.2819103 -2.144384,7.912027 -2.676781,3.600197 -2.984918,-2.4121453 L 52.917953,14.463859 50.507862,11.8816 c 0.260716,4.146889 1.880539,8.288919 3.907131,11.562094 z"
       style="fill:#a70000;fill-opacity:1;stroke:#000000;stroke-width:0.217905px;stroke-linecap:butt;stroke-linejoin:miter;stroke-opacity:1" />
    <path
       id="path6227-3"
       d="m 107.87866,76.375848 2.7135,1.66175 -0.21035,-3.996619 1.809,3.660064 1.11484,0.105172 0.63105,-2.986945 0.90449,2.923841 1.11485,0.147244 1.55658,-3.197294 -0.0421,3.786268 1.40933,1.220021 1.809,-3.386608"
       style="fill:none;stroke:#f1df0a;stroke-width:0.565;stroke-linecap:butt;stroke-linejoin:miter;stroke-miterlimit:4;stroke-dasharray:none;stroke-opacity:1;filter:url(#filter6301-3)"
       transform="matrix(0.78565839,0.2142672,-0.20875563,0.80640134,-17.622695,-70.875504)" />
    <path
       id="path6305-4"
       d="M 55.235436,26.6376 49.846499,49.001023"
       style="fill:none;stroke:#a8a8a8;stroke-width:0.382965;stroke-linecap:butt;stroke-linejoin:miter;stroke-miterlimit:4;stroke-dasharray:none;stroke-opacity:1" />
    <path
       d="m 61.093666,34.349671 a 0.58241194,1.7521677 0 0 1 -0.594872,1.705263 0.58241194,1.7521677 0 0 1 -0.569663,-1.781466 0.58241194,1.7521677 0 0 1 0.589416,-1.722325 0.58241194,1.7521677 0 0 1 0.575308,1.764971"
       sodipodi:arc-type="arc"
       sodipodi:open="true"
       sodipodi:end="0.0073811894"
       sodipodi:start="0.02653616"
       sodipodi:ry="1.7521677"
       sodipodi:rx="0.58241194"
       sodipodi:cy="34.303181"
       sodipodi:cx="60.511459"
       sodipodi:type="arc"
       id="path6307-1"
       style="opacity:1;fill:#9a9a9a;fill-opacity:1;stroke:none;stroke-width:0.382981;stroke-linecap:round;stroke-linejoin:round;stroke-miterlimit:4;stroke-dasharray:none;stroke-opacity:1;paint-order:stroke fill markers"
       transform="matrix(0.96476484,0.26311366,-0.25061187,0.96808765,0,0)" />
    <path
       style="fill:none;stroke:#a8a8a8;stroke-width:0.457426;stroke-linecap:butt;stroke-linejoin:miter;stroke-miterlimit:4;stroke-dasharray:none;stroke-opacity:1"
       d="M 50.92002,24.481264 43.072279,56.342767"
       id="path6305-2-9" />
    <path
       style="opacity:1;fill:#9a9a9a;fill-opacity:1;stroke:none;stroke-width:0.457445;stroke-linecap:round;stroke-linejoin:round;stroke-miterlimit:4;stroke-dasharray:none;stroke-opacity:1;paint-order:stroke fill markers"
       id="path6307-8-9"
       sodipodi:type="arc"
       sodipodi:cx="55.792969"
       sodipodi:cy="43.229595"
       sodipodi:rx="0.58241194"
       sodipodi:ry="2.4997489"
       sodipodi:start="0.02653616"
       sodipodi:end="0.0073811894"
       sodipodi:open="true"
       sodipodi:arc-type="arc"
       d="m 56.375176,43.295921 a 0.58241194,2.4997489 0 0 1 -0.594872,2.432832 0.58241194,2.4997489 0 0 1 -0.569663,-2.541548 0.58241194,2.4997489 0 0 1 0.589415,-2.457174 0.58241194,2.4997489 0 0 1 0.575309,2.518015"
       transform="matrix(0.96476484,0.26311366,-0.25061187,0.96808765,0,0)" />
    <path
       style="fill:none;stroke:#a8a8a8;stroke-width:0.281327;stroke-linecap:butt;stroke-linejoin:miter;stroke-miterlimit:4;stroke-dasharray:none;stroke-opacity:1"
       d="M 59.850891,26.711461 57.114979,38.826534"
       id="path6305-3-1" />
    <path
       style="opacity:1;fill:#9a9a9a;fill-opacity:1;stroke:none;stroke-width:0.281339;stroke-linecap:round;stroke-linejoin:round;stroke-miterlimit:4;stroke-dasharray:none;stroke-opacity:1;paint-order:stroke fill markers"
       id="path6307-0-7"
       sodipodi:type="arc"
       sodipodi:cx="64.998512"
       sodipodi:cy="22.508785"
       sodipodi:rx="0.58241194"
       sodipodi:ry="0.94553322"
       sodipodi:start="0.02653616"
       sodipodi:end="0.0073811894"
       sodipodi:open="true"
       sodipodi:arc-type="arc"
       d="m 65.580719,22.533873 a 0.58241194,0.94553322 0 0 1 -0.594872,0.920222 0.58241194,0.94553322 0 0 1 -0.569663,-0.961344 0.58241194,0.94553322 0 0 1 0.589416,-0.929429 0.58241194,0.94553322 0 0 1 0.575308,0.952442"
       transform="matrix(0.96476484,0.26311366,-0.25061187,0.96808765,0,0)" />
  </g>
</svg>
